<svg width="307" height="51" viewBox="0 0 307 51" fill="none" xmlns="http://www.w3.org/2000/svg">
<path d="M44.416 22.816C46.336 21.92 48.1493 20.832 49.856 19.552C51.5627 18.272 53.184 16.928 54.72 15.52C54.9333 15.3067 55.296 14.944 55.808 14.432C56.32 13.8773 56.8747 13.2587 57.472 12.576C58.112 11.8507 58.7093 11.104 59.264 10.336C59.8613 9.52533 60.3093 8.77867 60.608 8.096C60.9493 7.37067 61.0987 6.752 61.056 6.24C61.0133 5.68533 60.6507 5.30133 59.968 5.088C58.816 4.704 57.6213 4.46933 56.384 4.384C55.1467 4.29867 53.9093 4.32 52.672 4.448C51.4347 4.576 50.1973 4.768 48.96 5.024C47.7227 5.28 46.5493 5.536 45.44 5.792C41.728 6.64533 38.1013 7.75467 34.56 9.12C31.0187 10.4853 27.5627 12.0427 24.192 13.792C21.248 15.328 18.3467 17.0347 15.488 18.912C12.6293 20.7467 10.048 22.88 7.744 25.312C7.01867 26.1227 6.29333 27.0613 5.568 28.128C4.84267 29.1947 4.50133 30.304 4.544 31.456C4.544 32.1813 5.01333 32.7147 5.952 33.056C6.93333 33.3547 8.14933 33.5253 9.6 33.568C11.0933 33.6107 12.7147 33.5467 14.464 33.376C16.256 33.2053 17.9413 33.0133 19.52 32.8C21.1413 32.5867 22.5707 32.3733 23.808 32.16C25.088 31.9467 25.9627 31.8187 26.432 31.776C27.2 31.6907 28.2027 31.584 29.44 31.456C30.6773 31.2853 31.9573 31.2 33.28 31.2C34.6453 31.2 35.9467 31.3067 37.184 31.52C38.464 31.6907 39.5093 32.0533 40.32 32.608C41.1307 33.12 41.6 33.8667 41.728 34.848C41.8987 35.7867 41.5787 37.0027 40.768 38.496C39.7867 40.288 38.4853 41.824 36.864 43.104C35.2853 44.4267 33.536 45.536 31.616 46.432C29.7387 47.328 27.776 48.032 25.728 48.544C23.68 49.056 21.7173 49.44 19.84 49.696C19.0293 49.824 18.048 49.9307 16.896 50.016C15.744 50.1013 14.6133 50.08 13.504 49.952C12.3947 49.824 11.3707 49.5253 10.432 49.056C9.49333 48.5867 8.85333 47.84 8.512 46.816C8.29867 46.176 8.32 45.536 8.576 44.896C8.87467 44.256 9.42933 43.9573 10.24 44C10.496 44 10.7307 44.0853 10.944 44.256C11.2 44.4693 11.4133 44.6613 11.584 44.832C11.7547 45.0453 11.8613 45.2373 11.904 45.408C11.9893 45.5787 11.968 45.664 11.84 45.664C12.096 46.048 12.5227 46.304 13.12 46.432C13.76 46.56 14.4213 46.624 15.104 46.624C15.8293 46.6667 16.512 46.6667 17.152 46.624C17.8347 46.5813 18.3467 46.5387 18.688 46.496C22.144 46.1547 25.4507 45.344 28.608 44.064C29.5467 43.68 30.464 43.232 31.36 42.72C32.2987 42.2507 33.1733 41.696 33.984 41.056C34.7947 40.416 35.5413 39.6907 36.224 38.88C36.9067 38.112 37.4613 37.2587 37.888 36.32C38.272 35.808 38.3147 35.4453 38.016 35.232C37.76 34.976 37.3547 34.8053 36.8 34.72C36.288 34.6347 35.7547 34.6133 35.2 34.656C34.6453 34.656 34.2613 34.656 34.048 34.656C32.0427 34.7413 30.0587 34.912 28.096 35.168C26.1333 35.424 24.1707 35.7013 22.208 36C20.5013 36.2133 18.7947 36.4053 17.088 36.576C15.3813 36.7893 13.6747 36.9387 11.968 37.024C11.2 37.0667 10.368 37.088 9.472 37.088C8.576 37.088 7.70133 37.024 6.848 36.896C5.99467 36.768 5.16267 36.5333 4.352 36.192C3.584 35.8933 2.90133 35.4453 2.304 34.848C1.28 33.8667 0.746667 32.8 0.704 31.648C0.661333 30.496 0.896 29.3227 1.408 28.128C1.96267 26.9333 2.73067 25.76 3.712 24.608C4.69333 23.456 5.71733 22.3893 6.784 21.408C7.89333 20.4267 8.96 19.552 9.984 18.784C11.008 18.016 11.8187 17.4187 12.416 16.992C15.4453 14.9013 18.5813 13.024 21.824 11.36C25.1093 9.65333 28.4587 8.096 31.872 6.688C35.456 5.23733 39.1467 3.95733 42.944 2.848C46.7413 1.696 50.6027 1.056 54.528 0.927998C55.2107 0.885331 55.9573 0.885331 56.768 0.927998C57.6213 0.927998 58.432 0.991998 59.2 1.12C60.0107 1.248 60.7787 1.48266 61.504 1.824C62.272 2.12267 62.912 2.54933 63.424 3.104C64.1493 3.91467 64.5547 4.81066 64.64 5.792C64.768 6.77333 64.6613 7.75466 64.32 8.736C63.9787 9.71733 63.4667 10.72 62.784 11.744C62.144 12.7253 61.44 13.664 60.672 14.56C59.904 15.4133 59.136 16.224 58.368 16.992C57.6 17.7173 56.9387 18.336 56.384 18.848C54.9333 20.128 53.4187 21.344 51.84 22.496C50.304 23.648 48.6827 24.6507 46.976 25.504C46.5493 25.7173 46.1013 25.9093 45.632 26.08C45.2053 26.2507 44.7573 26.208 44.288 25.952C43.9467 25.7813 43.712 25.5467 43.584 25.248C43.456 24.9493 43.392 24.6507 43.392 24.352C43.392 24.0107 43.4773 23.712 43.648 23.456C43.8187 23.1573 44.0747 22.944 44.416 22.816ZM64.079 29.408C64.2923 29.4933 64.4843 29.6 64.655 29.728C64.8257 29.8133 64.975 29.92 65.103 30.048C65.9563 29.9627 66.8097 30.0907 67.663 30.432C68.5163 30.9013 68.9643 31.4133 69.007 31.968C69.0497 32.48 68.9003 33.0347 68.559 33.632C69.4977 33.504 70.4363 33.2907 71.375 32.992C72.3563 32.6933 73.3163 32.352 74.255 31.968C75.1937 31.584 76.111 31.2 77.007 30.816C77.9457 30.432 78.8417 30.112 79.695 29.856C80.1643 29.728 80.655 29.6 81.167 29.472C81.7217 29.344 82.2337 29.4507 82.703 29.792C83.087 30.0907 83.3217 30.4107 83.407 30.752C83.4923 31.0933 83.471 31.4347 83.343 31.776C83.215 32.0747 83.0017 32.352 82.703 32.608C82.4043 32.864 82.063 33.0133 81.679 33.056C80.3137 33.2693 78.9697 33.6747 77.647 34.272C76.3243 34.8267 75.023 35.3173 73.743 35.744C73.1457 35.9573 72.5057 36.192 71.823 36.448C71.1403 36.704 70.4363 36.9173 69.711 37.088C68.9857 37.2587 68.2603 37.344 67.535 37.344C66.8097 37.3867 66.127 37.3013 65.487 37.088C64.7617 36.7467 64.2923 36.32 64.079 35.808C63.9083 35.2533 63.9297 34.6773 64.143 34.08C63.2897 34.208 62.4363 34.4 61.583 34.656C60.4737 34.9973 59.3643 35.3813 58.255 35.808C57.1883 36.2347 56.1003 36.5547 54.991 36.768C54.2657 36.896 53.519 36.896 52.751 36.768C51.983 36.64 51.407 36.2133 51.023 35.488C50.5537 34.592 50.5323 33.76 50.959 32.992C51.343 32.1813 51.9617 31.4987 52.815 30.944C53.6257 30.3467 54.5217 29.8773 55.503 29.536C56.4843 29.152 57.295 28.9173 57.935 28.832C59.0017 28.704 60.047 28.704 61.071 28.832C62.095 28.9173 63.0977 29.1093 64.079 29.408ZM55.631 33.184C56.0577 33.0987 56.4843 32.992 56.911 32.864C57.3377 32.736 57.7643 32.5867 58.191 32.416C57.167 32.544 56.3137 32.8 55.631 33.184ZM81.689 29.472C82.3717 29.5147 82.8623 29.664 83.161 29.92C83.4597 30.176 83.609 30.496 83.609 30.88C83.6517 31.264 83.5663 31.6907 83.353 32.16C83.1823 32.5867 82.9903 33.0133 82.777 33.44C83.5877 33.2267 84.3983 32.992 85.209 32.736C86.0623 32.4373 86.8517 32.1813 87.577 31.968C88.217 31.7973 88.8783 31.584 89.561 31.328C90.2863 31.0293 91.0117 30.7733 91.737 30.56C92.4623 30.304 93.1877 30.112 93.913 29.984C94.6383 29.8133 95.321 29.7707 95.961 29.856C96.345 29.8987 96.6863 30.0053 96.985 30.176C97.3263 30.304 97.6037 30.5387 97.817 30.88C98.1583 31.4773 98.1797 32.096 97.881 32.736C98.777 32.48 99.673 32.2027 100.569 31.904C101.508 31.5627 102.425 31.264 103.321 31.008C104.217 30.7093 105.113 30.496 106.009 30.368C106.948 30.1973 107.886 30.1333 108.825 30.176C109.422 30.176 109.956 30.3253 110.425 30.624C111.15 31.0933 111.513 31.584 111.513 32.096C111.513 32.608 111.449 33.1627 111.321 33.76C111.961 33.6747 112.622 33.4613 113.305 33.12C114.03 32.7787 114.628 32.5013 115.097 32.288C116.334 31.776 117.55 31.2427 118.745 30.688C119.982 30.1333 121.262 29.7493 122.585 29.536C122.969 29.4933 123.374 29.5147 123.801 29.6C124.228 29.6853 124.569 29.856 124.825 30.112C125.124 30.3253 125.316 30.624 125.401 31.008C125.486 31.3493 125.38 31.7547 125.081 32.224C124.868 32.5227 124.548 32.7573 124.121 32.928C123.737 33.056 123.31 33.1627 122.841 33.248C122.372 33.3333 121.902 33.4187 121.433 33.504C120.964 33.5467 120.58 33.6107 120.281 33.696C119.556 33.952 118.702 34.336 117.721 34.848C116.74 35.36 115.737 35.8293 114.713 36.256C113.689 36.7253 112.665 37.0453 111.641 37.216C110.617 37.4293 109.721 37.344 108.953 36.96C108.228 36.576 107.801 36.1067 107.673 35.552C107.588 34.9547 107.609 34.336 107.737 33.696C106.884 33.6533 105.988 33.76 105.049 34.016C104.11 34.272 103.236 34.5067 102.425 34.72C101.87 34.8907 101.273 35.104 100.633 35.36C99.993 35.5733 99.3317 35.7867 98.649 36C98.009 36.256 97.3477 36.448 96.665 36.576C96.025 36.7467 95.4063 36.8107 94.809 36.768C94.1263 36.768 93.5717 36.5547 93.145 36.128C92.4623 35.4453 92.3343 34.6773 92.761 33.824C91.737 34.08 90.7343 34.4 89.753 34.784C88.7717 35.168 87.7903 35.552 86.809 35.936C85.8277 36.2773 84.8463 36.576 83.865 36.832C82.8837 37.088 81.881 37.216 80.857 37.216C80.5157 37.216 80.1743 37.1733 79.833 37.088C79.4917 37.0027 79.193 36.832 78.937 36.576C78.553 36.192 78.3397 35.7867 78.297 35.36C78.2543 34.8907 78.3183 34.4427 78.489 34.016C78.6597 33.5467 78.873 33.0987 79.129 32.672C79.385 32.2453 79.641 31.84 79.897 31.456C79.8543 30.9867 80.0037 30.5387 80.345 30.112C80.6437 29.6853 81.0917 29.472 81.689 29.472ZM140.012 17.504C140.012 17.9733 139.948 18.336 139.82 18.592C139.692 18.848 139.5 19.04 139.244 19.168C138.988 19.2533 138.689 19.2747 138.348 19.232C138.007 19.1893 137.665 19.1253 137.324 19.04C137.324 19.8507 137.025 20.5547 136.428 21.152C136.001 21.5787 135.34 21.92 134.444 22.176C133.591 22.432 132.652 22.5813 131.628 22.624C130.604 22.6667 129.58 22.624 128.556 22.496C127.532 22.3253 126.636 22.048 125.868 21.664C125.1 21.28 124.545 20.768 124.204 20.128C123.863 19.488 123.884 18.6987 124.268 17.76C124.567 16.9493 125.057 16.3307 125.74 15.904C126.465 15.4347 127.255 15.0933 128.108 14.88C129.004 14.6667 129.9 14.5387 130.796 14.496C131.735 14.4533 132.567 14.4533 133.292 14.496C133.719 14.496 134.295 14.5387 135.02 14.624C135.788 14.7093 136.535 14.8587 137.26 15.072C137.985 15.2853 138.604 15.584 139.116 15.968C139.671 16.352 139.969 16.864 140.012 17.504ZM123.628 29.472C124.183 29.5147 124.609 29.664 124.908 29.92C125.207 30.1333 125.399 30.432 125.484 30.816C125.612 31.1573 125.655 31.5413 125.612 31.968C125.569 32.3947 125.505 32.8213 125.42 33.248C125.804 33.1627 126.167 33.12 126.508 33.12C126.892 33.0773 127.212 33.0133 127.468 32.928C128.535 32.672 129.623 32.352 130.732 31.968C132.14 31.4987 133.548 31.0507 134.956 30.624C136.407 30.1547 137.879 29.8133 139.372 29.6C139.799 29.5573 140.247 29.6 140.716 29.728C141.228 29.856 141.633 30.0693 141.932 30.368C142.273 30.6667 142.444 31.0293 142.444 31.456C142.487 31.84 142.231 32.2453 141.676 32.672C141.377 32.8853 141.057 32.992 140.716 32.992C140.417 32.992 140.097 33.0133 139.756 33.056C139.116 33.1413 138.476 33.248 137.836 33.376C137.196 33.504 136.577 33.6533 135.98 33.824C134.7 34.1653 133.42 34.528 132.14 34.912C130.903 35.296 129.665 35.7013 128.428 36.128C127.703 36.384 126.849 36.6613 125.868 36.96C124.929 37.3013 124.055 37.344 123.244 37.088C122.732 36.8747 122.369 36.576 122.156 36.192C121.9 35.8507 121.751 35.4667 121.708 35.04C121.623 34.5707 121.623 34.1013 121.708 33.632C121.793 33.1627 121.9 32.7147 122.028 32.288C121.857 32.032 121.772 31.7333 121.772 31.392C121.772 31.0507 121.836 30.752 121.964 30.496C122.092 30.1973 122.305 29.9627 122.604 29.792C122.86 29.5787 123.201 29.472 123.628 29.472ZM135.02 19.36C135.191 18.8907 135.084 18.4853 134.7 18.144C134.615 18.1013 134.551 18.08 134.508 18.08C134.465 18.08 134.423 18.0587 134.38 18.016C133.911 17.9307 133.313 17.8453 132.588 17.76C131.905 17.632 131.18 17.568 130.412 17.568C129.687 17.568 129.004 17.6747 128.364 17.888C127.724 18.0587 127.255 18.3573 126.956 18.784C126.956 18.8267 126.935 18.8693 126.892 18.912C126.977 19.2533 127.276 19.5307 127.788 19.744C128.343 19.9147 128.94 20.0427 129.58 20.128C130.22 20.2133 130.839 20.256 131.436 20.256C132.033 20.256 132.439 20.256 132.652 20.256C133.079 20.1707 133.484 20.0853 133.868 20C134.295 19.872 134.679 19.6587 135.02 19.36ZM242.124 48.48C238.753 48.48 235.383 48.352 232.012 48.096C228.641 47.84 225.271 47.4987 221.9 47.072C218.572 46.6453 215.223 46.176 211.852 45.664C208.524 45.152 205.196 44.6613 201.868 44.192C198.753 43.7227 195.639 43.2533 192.524 42.784C189.452 42.3573 186.359 41.9093 183.244 41.44C181.751 41.2267 180.236 40.992 178.7 40.736C177.207 40.48 175.713 40.3093 174.22 40.224C173.537 40.1813 172.983 39.9467 172.556 39.52C172.172 39.0933 171.959 38.624 171.916 38.112C171.873 37.6427 172.001 37.2373 172.3 36.896C172.641 36.5547 173.175 36.4053 173.9 36.448C174.967 36.5333 176.055 36.4053 177.164 36.064C178.273 35.7653 179.361 35.36 180.428 34.848C181.537 34.2933 182.583 33.7173 183.564 33.12C184.588 32.48 185.548 31.904 186.444 31.392C189.772 29.5147 193.015 27.552 196.172 25.504C199.329 23.4133 202.444 21.2587 205.516 19.04C208.289 17.0773 211.02 15.072 213.708 13.024C216.439 10.9333 218.999 8.672 221.388 6.24C221.857 5.77067 222.305 5.30133 222.732 4.832C223.159 4.36267 223.543 3.85066 223.884 3.296C224.055 2.99733 224.225 2.69867 224.396 2.4C224.609 2.05866 224.844 1.78133 225.1 1.568C225.356 1.35466 225.655 1.248 225.996 1.248C226.337 1.248 226.7 1.44 227.084 1.824C227.809 2.54933 227.788 3.57333 227.02 4.896C226.295 6.21867 225.057 7.75467 223.308 9.504C221.559 11.2107 219.404 13.0453 216.844 15.008C214.327 16.9707 211.66 18.9547 208.844 20.96C206.028 22.9227 203.169 24.8427 200.268 26.72C197.409 28.5973 194.743 30.304 192.268 31.84C189.836 33.3333 187.724 34.6133 185.932 35.68C184.14 36.704 182.924 37.3653 182.284 37.664C190.135 38.8587 197.921 40.0107 205.644 41.12C213.409 42.272 221.239 43.2533 229.132 44.064C231.735 44.32 234.423 44.5973 237.196 44.896C239.969 45.2373 242.657 45.1947 245.26 44.768C245.644 44.6827 245.964 44.512 246.22 44.256C246.519 44.0427 246.881 43.9573 247.308 44C247.991 44.0853 248.46 44.4267 248.716 45.024C249.015 45.6213 248.993 46.2187 248.652 46.816C248.353 47.2853 247.927 47.6267 247.372 47.84C246.86 48.096 246.284 48.2667 245.644 48.352C245.004 48.4373 244.364 48.48 243.724 48.48C243.127 48.48 242.593 48.48 242.124 48.48ZM161.932 46.176C161.079 46.176 160.545 45.8987 160.332 45.344C160.119 44.7893 160.119 44.0853 160.332 43.232C160.545 42.4213 160.887 41.504 161.356 40.48C161.868 39.4987 162.38 38.56 162.892 37.664C163.404 36.8107 163.873 36.0853 164.3 35.488C164.769 34.848 165.047 34.464 165.132 34.336C168.887 28.8747 172.919 23.6053 177.228 18.528C181.58 13.4507 186.145 8.62933 190.924 4.064C191.351 3.59466 191.863 3.424 192.46 3.552C193.057 3.68 193.484 4.02133 193.74 4.576C194.039 5.17333 194.039 5.68533 193.74 6.112C193.441 6.53867 193.1 6.92267 192.716 7.264C191.649 8.288 190.604 9.33333 189.58 10.4C188.599 11.4667 187.617 12.5547 186.636 13.664C184.076 16.48 181.58 19.3173 179.148 22.176C176.759 24.992 174.412 27.8933 172.108 30.88C170.401 33.056 168.759 35.2747 167.18 37.536C165.601 39.7973 164.428 42.2507 163.66 44.896C163.575 45.2373 163.361 45.536 163.02 45.792C162.721 46.048 162.359 46.176 161.932 46.176ZM240.897 13.728C238.764 14.9653 236.758 16.4373 234.881 18.144C233.004 19.808 231.169 21.5147 229.377 23.264C228.353 24.2453 227.35 25.248 226.369 26.272C225.388 27.296 224.406 28.32 223.425 29.344C222.913 29.9413 222.358 30.5387 221.761 31.136C221.206 31.6907 220.652 32.288 220.097 32.928C220.993 32.7147 221.868 32.4587 222.721 32.16C223.617 31.8613 224.428 31.6053 225.153 31.392C225.793 31.264 226.476 31.0933 227.201 30.88C227.926 30.6667 228.652 30.496 229.377 30.368C230.102 30.1973 230.828 30.112 231.553 30.112C232.321 30.0693 233.025 30.176 233.665 30.432C234.476 30.7307 234.966 31.2427 235.137 31.968C235.265 32.4373 235.222 32.8853 235.009 33.312C235.734 33.0987 236.438 32.864 237.121 32.608C237.846 32.352 238.529 32.1173 239.169 31.904C240.406 31.52 241.644 31.136 242.881 30.752C244.118 30.3253 245.377 29.984 246.657 29.728C246.998 29.6427 247.404 29.6 247.873 29.6C248.385 29.5573 248.833 29.6 249.217 29.728C249.601 29.856 249.878 30.0907 250.049 30.432C250.262 30.7307 250.284 31.1787 250.113 31.776C249.985 32.16 249.729 32.48 249.345 32.736C248.961 32.9493 248.513 33.12 248.001 33.248C247.489 33.376 246.977 33.4827 246.465 33.568C245.953 33.6107 245.548 33.6747 245.249 33.76C243.798 34.1867 242.369 34.6347 240.961 35.104C239.553 35.5307 238.145 35.9573 236.737 36.384C236.012 36.5973 235.222 36.8107 234.369 37.024C233.516 37.28 232.705 37.3227 231.937 37.152C231.638 37.1093 231.318 36.9813 230.977 36.768C230.252 36.2133 229.91 35.7013 229.953 35.232C229.996 34.7627 230.188 34.2933 230.529 33.824H229.761C228.225 34.08 226.689 34.4 225.153 34.784C223.916 35.1253 222.657 35.5093 221.377 35.936C220.14 36.3627 218.86 36.64 217.537 36.768C217.068 36.8107 216.598 36.7253 216.129 36.512C215.66 36.3413 215.318 35.9787 215.105 35.424C214.977 34.9973 214.998 34.5493 215.169 34.08C215.297 33.6107 215.532 33.1627 215.873 32.736C216.172 32.2667 216.513 31.84 216.897 31.456C217.238 31.072 217.537 30.7307 217.793 30.432C219.969 27.9573 222.23 25.5893 224.577 23.328C226.924 21.024 229.334 18.784 231.809 16.608C232.876 15.6693 233.964 14.752 235.073 13.856C236.182 12.96 237.313 12.128 238.465 11.36C238.934 11.0187 239.446 10.8053 240.001 10.72C240.598 10.592 241.089 10.8267 241.473 11.424C241.686 11.808 241.729 12.2347 241.601 12.704C241.516 13.1307 241.281 13.472 240.897 13.728ZM256.954 29.408C257.167 29.4933 257.359 29.6 257.53 29.728C257.701 29.8133 257.85 29.92 257.978 30.048C258.831 29.9627 259.685 30.0907 260.538 30.432C261.391 30.9013 261.839 31.4133 261.882 31.968C261.925 32.48 261.775 33.0347 261.434 33.632C262.373 33.504 263.311 33.2907 264.25 32.992C265.231 32.6933 266.191 32.352 267.13 31.968C268.069 31.584 268.986 31.2 269.882 30.816C270.821 30.432 271.717 30.112 272.57 29.856C273.039 29.728 273.53 29.6 274.042 29.472C274.597 29.344 275.109 29.4507 275.578 29.792C275.962 30.0907 276.197 30.4107 276.282 30.752C276.367 31.0933 276.346 31.4347 276.218 31.776C276.09 32.0747 275.877 32.352 275.578 32.608C275.279 32.864 274.938 33.0133 274.554 33.056C273.189 33.2693 271.845 33.6747 270.522 34.272C269.199 34.8267 267.898 35.3173 266.618 35.744C266.021 35.9573 265.381 36.192 264.698 36.448C264.015 36.704 263.311 36.9173 262.586 37.088C261.861 37.2587 261.135 37.344 260.41 37.344C259.685 37.3867 259.002 37.3013 258.362 37.088C257.637 36.7467 257.167 36.32 256.954 35.808C256.783 35.2533 256.805 34.6773 257.018 34.08C256.165 34.208 255.311 34.4 254.458 34.656C253.349 34.9973 252.239 35.3813 251.13 35.808C250.063 36.2347 248.975 36.5547 247.866 36.768C247.141 36.896 246.394 36.896 245.626 36.768C244.858 36.64 244.282 36.2133 243.898 35.488C243.429 34.592 243.407 33.76 243.834 32.992C244.218 32.1813 244.837 31.4987 245.69 30.944C246.501 30.3467 247.397 29.8773 248.378 29.536C249.359 29.152 250.17 28.9173 250.81 28.832C251.877 28.704 252.922 28.704 253.946 28.832C254.97 28.9173 255.973 29.1093 256.954 29.408ZM248.506 33.184C248.933 33.0987 249.359 32.992 249.786 32.864C250.213 32.736 250.639 32.5867 251.066 32.416C250.042 32.544 249.189 32.8 248.506 33.184ZM274.628 29.472C274.969 29.472 275.289 29.536 275.588 29.664C275.929 29.7493 276.207 29.92 276.42 30.176C276.804 30.6453 276.975 31.0933 276.932 31.52C276.932 31.904 276.825 32.288 276.612 32.672C277.721 32.4587 278.831 32.2027 279.94 31.904C281.049 31.6053 282.159 31.3067 283.268 31.008C283.78 30.88 284.335 30.7307 284.932 30.56C285.529 30.3893 286.127 30.2613 286.724 30.176C287.364 30.0907 287.983 30.0693 288.58 30.112C289.22 30.112 289.796 30.24 290.308 30.496C291.033 30.8373 291.46 31.2427 291.588 31.712C291.716 32.1813 291.673 32.672 291.46 33.184C292.057 33.0133 292.655 32.864 293.252 32.736C293.849 32.5653 294.447 32.3733 295.044 32.16C296.196 31.8187 297.348 31.4773 298.5 31.136C299.695 30.752 300.889 30.3893 302.084 30.048C302.639 29.8773 303.279 29.7067 304.004 29.536C304.772 29.3227 305.433 29.408 305.988 29.792C306.329 30.048 306.543 30.368 306.628 30.752C306.713 31.0933 306.692 31.456 306.564 31.84C306.479 32.1813 306.287 32.48 305.988 32.736C305.689 32.9493 305.348 33.056 304.964 33.056C303.343 33.184 301.7 33.568 300.036 34.208C298.372 34.848 296.772 35.4027 295.236 35.872C294.767 36 294.212 36.1707 293.572 36.384C292.975 36.5973 292.356 36.7893 291.716 36.96C291.076 37.1307 290.436 37.2373 289.796 37.28C289.156 37.3227 288.58 37.2373 288.068 37.024C287.471 36.768 287.044 36.3413 286.788 35.744C286.575 35.104 286.553 34.464 286.724 33.824C285.785 33.9093 284.868 34.0587 283.972 34.272C283.076 34.4853 282.18 34.6987 281.284 34.912C280.687 35.0827 280.047 35.2747 279.364 35.488C278.724 35.7013 278.063 35.9147 277.38 36.128C276.74 36.3413 276.079 36.512 275.396 36.64C274.756 36.768 274.116 36.8107 273.476 36.768C273.092 36.7253 272.708 36.5973 272.324 36.384C271.812 36.0427 271.513 35.68 271.428 35.296C271.343 34.912 271.385 34.528 271.556 34.144C271.684 33.76 271.897 33.376 272.196 32.992C272.452 32.608 272.708 32.2453 272.964 31.904C272.793 31.3493 272.857 30.816 273.156 30.304C273.412 29.7493 273.903 29.472 274.628 29.472Z" fill="black"/>
</svg>
