<svg xmlns="http://www.w3.org/2000/svg">
<defs>
<font id="OggBoldItalic" horiz-adv-x="558" >
  <font-face 
    font-family="Ogg"
    font-weight="700"
    font-style="italic"
    font-stretch="normal"
    units-per-em="1000"
    panose-1="2 9 8 4 8 7 6 10 2 3"
    ascent="800"
    descent="-200"
    x-height="514"
    cap-height="829"
    bbox="-583 -436.25 2010.33 1093"
    underline-thickness="50"
    underline-position="-150"
    slope="-29"
    unicode-range="U+000D-FB03"
  />
<missing-glyph horiz-adv-x="1414" 
d="M1229 695q53 -55 79 -152t26 -236q0 -126 -32.5 -230.5t-84.5 -158.5q-62 -62 -199.5 -107t-293.5 -45q-185 0 -342 46t-215 113q-45 51 -66 142t-21 237q0 114 28.5 216.5t75.5 155.5q67 77 202.5 117.5t327.5 40.5q189 0 322.5 -36t192.5 -103zM253 -6
q-18 -19 -32.5 -25.5t-32.5 -6.5q-3 0 -9 1.5t-15 4.5q4 -9 8.5 -16.5t10.5 -14.5q46 -51 196.5 -84t340.5 -33q162 0 299.5 33t181.5 76q37 38 56 134.5t19 245.5q0 175 -13.5 255t-47.5 119q-44 51 -173 78t-330 27q-176 0 -322 -34.5t-194 -87.5q-31 -36 -46.5 -127
t-15.5 -232v-64q44 31 62.5 39.5t35.5 8.5t35 -2.5t52 -11.5q32 -8 48 -10.5t31 -2.5q12 0 20.5 6.5t9.5 16.5q-18 -2 -37.5 6.5t-26.5 24.5q25 -9 47.5 -1.5t29.5 26.5q22 -11 40 -3t24 30q26 -2 42 7.5t22 31.5q29 -6 50 16.5t22 23.5q17 -1 39.5 6.5t43.5 22.5q5 2 10 5
l15 9l15 9t10 5q8 1 14 0t8 -4q-3 2 -12 -1.5t-13 -9.5q-32 -30 -46 -40.5t-29 -18.5q-26 -15 -40.5 -35.5t-21.5 -51.5q-4 -16 -11 -31t-18 -31q-5 -6 -10.5 -8.5t-13.5 -3.5q-21 -3 -25 -5t-5 -5q-1 -7 6 -12t17 -5q9 -1 25.5 -0.5t19.5 0.5q7 0 11 6t4 17q0 3 3.5 7
t15.5 13q15 11 20.5 17t7.5 12q2 9 0.5 16t-6.5 13q7 9 17 15t28 10q20 5 32.5 13t21.5 22q18 22 27.5 49t4.5 46q17 -10 33.5 -15t37.5 -5q17 0 26.5 4t14.5 12q18 -2 29.5 3t15.5 17q3 5 1.5 10t-6.5 6q19 -1 35 5.5t16 14.5q0 1 -3 1.5t-8 0.5q-6 0 -12.5 0.5t-17.5 3.5
q-10 2 -15 2.5t-10 0.5q-11 0 -20 -2.5t-15 -6.5l-2 2q5 8 14 11.5t28 3.5q4 0 8.5 -0.5t15.5 -1.5q14 -2 21.5 -2.5t14.5 -0.5q14 0 25 4.5t18 12.5q-15 0 -30 1t-41 5q-22 3 -32.5 4t-20.5 1q-17 0 -30.5 -10t-20.5 -28q-9 -17 -26.5 -20t-35.5 8q-7 5 -14 8t-14 3

<glyph glyph-name="uniFB00" unicode="ff" horiz-adv-x="739" 
d="M416 -14q-68 -119 -168 -187t-194 -68q-59 0 -93.5 23.5t-39.5 65.5q-55 -43 -117 -66t-121 -23q-52 0 -82 23.5t-30 62.5t31 65t82 31l4 -2q-3 -20 -2 -43.5t5 -41.5q8 -33 26.5 -52t43.5 -19q40 0 74.5 40.5t106.5 175.5q12 23 33 62.5t73 139.5q53 104 79.5 155
t47.5 90h-90q-6 0 -6.5 4.5t3.5 6.5l145 92q1 2 12.5 22.5t17.5 29.5q49 80 115 143t142 103q52 28 104.5 42.5t98.5 14.5q28 0 46.5 -2t32.5 -6q5 -1 7.5 -3.5t2.5 -6.5q0 -23 -37 -57.5t-57 -34.5q-11 0 -26.5 5.5t-50.5 22.5q-36 18 -52 23.5t-28 5.5q-29 0 -59.5 -40.5
t-107.5 -179.5l-33 -61.5t-20 -37.5h237q24 44 29.5 53t9.5 16q48 76 120.5 134.5t179.5 105.5q83 37 143 51.5t126 14.5q37 0 72 -3t55 -8q5 -1 7.5 -3.5t2.5 -6.5q0 -23 -38 -57t-59 -34q-15 0 -37 4.5t-71 20.5q-55 17 -82 22.5t-47 5.5q-19 0 -35.5 -3.5t-32.5 -10.5
q-37 -18 -82.5 -70.5t-90.5 -132.5q-14 -25 -27 -49.5t-27 -49.5q26 0 54 1.5t70 3.5q17 1 23.5 1.5t9.5 0.5q4 0 6 -3t0 -6q-16 -25 -48.5 -56t-45.5 -32h-1.5h-1.5q-29 1 -57 2t-55 1q-18 -35 -54.5 -107.5t-56.5 -109.5q-34 -67 -62 -118.5t-53 -95.5zM292 423
q-7 -14 -91.5 -178.5t-138.5 -258.5q-8 -14 -18 -29.5t-23 -34.5q-9 -61 17.5 -114.5t74.5 -53.5q40 0 75 41t108 176q11 20 28.5 53.5t60.5 118.5q60 117 90.5 175.5t54.5 103.5h-30h-61q-59 1 -90.5 1h-56.5z" />
    <glyph glyph-name="uniFB01" unicode="fi" horiz-adv-x="709" 
d="M471 501q-17 -25 -49 -55.5t-45 -31.5h-14.5h-27.5q-20 1 -29.5 1h-16.5q-9 -17 -91.5 -177t-135.5 -252q-69 -121 -170.5 -188t-208.5 -67q-52 0 -82 23.5t-30 62.5t31 65t82 31l4 -2q-3 -20 -2 -43.5t5 -41.5q8 -33 26.5 -52t43.5 -19q40 0 73.5 39.5t107.5 176.5
q10 19 26.5 51t57.5 111q60 118 91 177.5t55 105.5h-87q-6 1 -6.5 5.5t3.5 6.5l145 93q1 2 12.5 22.5t17.5 29.5q100 148 222 227t255 79q28 0 57.5 -2t46.5 -5q6 -1 9 -3.5t3 -7.5q0 -23 -29 -57.5t-46 -34.5q-12 0 -31 5.5t-61 22.5q-49 20 -71 26t-38 6q-38 0 -72.5 -41
t-113.5 -185q-22 -41 -33 -61t-20 -37q20 0 42.5 1t58.5 3q15 1 20.5 1.5t8.5 0.5q4 0 6 -3t0 -7zM947 773q-28 -28 -88 -73.5t-170 -120.5l-4 5q79 73 132.5 138t85.5 126q7 7 16.5 10.5t19.5 3.5q30 0 34 -29.5t-26 -59.5zM511 3q-5 -3 -14.5 -4.5t-24.5 -1.5
q-14 0 -23.5 1.5t-14.5 4.5q-21 13 -34.5 33.5t-13.5 42.5q0 21 14.5 53t71.5 120q54 81 69.5 108.5t20.5 47.5q1 16 -6 26.5t-21 13.5q-20 -8 -50.5 -33t-60.5 -58l-7 5q29 34 74.5 74t79.5 61q14 10 26 13.5t30 2.5q25 -2 47.5 -32t23.5 -62q0 -17 -13.5 -44.5
t-92.5 -137.5q-51 -74 -65 -103t-13 -48q1 -13 9.5 -23t23.5 -14q20 7 52 34.5t67 67.5l6 -7q-63 -68 -97 -96.5t-64 -44.5z" />
    <glyph glyph-name="uniFB03" unicode="ffi" horiz-adv-x="1064" 
d="M-79 -180q-55 -43 -117 -66t-121 -23q-52 0 -82 23.5t-30 62.5t31 65t82 31l4 -2q-3 -20 -2 -43.5t5 -41.5q8 -33 26.5 -52t43.5 -19q40 0 74.5 40.5t106.5 175.5q12 23 33 62.5t73 139.5q53 104 79.5 155t47.5 90h-90q-6 0 -6.5 4.5t3.5 6.5l145 92q1 2 12.5 22.5
t17.5 29.5q49 80 115 143t142 103q52 28 104.5 42.5t98.5 14.5q28 0 46.5 -2t32.5 -6q5 -1 7.5 -3.5t2.5 -6.5q0 -23 -37 -57.5t-57 -34.5q-11 0 -26.5 5.5t-50.5 22.5q-36 18 -52 23.5t-28 5.5q-29 0 -59.5 -40.5t-107.5 -179.5l-33 -61.5t-20 -37.5h237q17 30 27 47.5
t13 22.5q97 147 219.5 226t256.5 79q28 0 57 -2t46 -5q7 -1 10 -3.5t3 -7.5q0 -23 -29 -57.5t-46 -34.5q-12 0 -30.5 5.5t-61.5 22.5q-49 20 -71.5 26t-38.5 6q-37 0 -71.5 -41.5t-112.5 -183.5q-16 -29 -29.5 -53.5t-24.5 -46.5q25 0 48.5 1.5t53.5 3.5q13 1 18 1.5t9 0.5
q5 0 7 -2.5t-1 -6.5q-18 -26 -49.5 -56.5t-44.5 -31.5h-0.5h-1.5q-19 1 -40.5 1.5t-44.5 0.5q-3 -5 -88 -170t-139 -260q-68 -119 -168 -187t-194 -68q-59 0 -93.5 23.5t-39.5 65.5zM1301 773q-28 -28 -88 -73.5t-170 -120.5l-5 5q79 72 133 137.5t86 126.5q7 7 16.5 10.5
t19.5 3.5q30 0 34 -29.5t-26 -59.5zM865 3q-5 -3 -15 -4.5t-24 -1.5q-17 0 -25.5 1.5t-13.5 4.5q-21 13 -34 33.5t-14 42.5q0 20 13.5 50.5t73.5 122.5q58 88 71.5 113t17.5 43q3 15 -4.5 26t-21.5 14q-20 -8 -50.5 -33t-60.5 -58l-7 5q28 33 73.5 73t79.5 62q14 10 26 13.5
t31 2.5q25 -2 47.5 -32.5t22.5 -61.5q0 -18 -15 -47.5t-90 -134.5q-50 -71 -65 -101t-14 -50q1 -13 9.5 -23t23.5 -14q20 7 51.5 33.5t68.5 68.5l6 -7q-74 -78 -104 -102.5t-57 -38.5zM292 423q-7 -14 -91.5 -178.5t-138.5 -258.5q-8 -14 -18 -29.5t-23 -34.5
q-9 -61 17.5 -114.5t74.5 -53.5q40 0 75 41t108 176q11 20 28.5 53.5t60.5 118.5q60 117 90.5 175.5t54.5 103.5h-30h-61q-59 1 -90.5 1h-56.5z" />
    <glyph glyph-name="f_j" unicode="fj" horiz-adv-x="703" 
d="M471 501q-17 -25 -49 -55.5t-45 -31.5h-54.5t-33.5 1q-9 -17 -91.5 -177t-135.5 -252q-69 -121 -170.5 -188t-208.5 -67q-52 0 -82 23.5t-30 62.5t31 65t82 31l4 -2q-3 -20 -2 -43.5t5 -41.5q8 -33 26.5 -52t43.5 -19q40 0 73.5 39.5t107.5 176.5q10 19 26.5 51t57.5 111
q60 118 91 177.5t55 105.5h-87q-6 1 -6.5 5.5t3.5 6.5l145 93q1 2 12.5 22.5t17.5 29.5q100 148 222 227t255 79q28 0 57.5 -2t46.5 -5q6 -1 9 -3.5t3 -7.5q0 -23 -29 -57.5t-46 -34.5q-12 0 -31 5.5t-61 22.5q-49 20 -71 26t-38 6q-38 0 -72.5 -41t-113.5 -185
q-22 -41 -33 -61t-20 -37q20 0 42.5 1t58.5 3q15 1 20.5 1.5t8.5 0.5q4 0 6.5 -3.5t-0.5 -6.5zM947 773q-28 -28 -88 -73.5t-170 -120.5l-4 5q79 73 132.5 138t85.5 126q7 7 16.5 10.5t19.5 3.5q30 0 34 -29.5t-26 -59.5zM226 -219q-46 -19 -87 -28.5t-76 -9.5
q-39 0 -64 5.5t-29 15.5q-8 20 20 56.5t47 36.5q8 0 19 -5t37 -22q41 -25 63 -33.5t41 -8.5q40 0 72 27.5t69 96.5q14 25 31.5 61t54.5 118q94 208 112 252t22 64q1 18 -4.5 28t-18.5 14q-23 -9 -54.5 -34.5t-59.5 -58.5l-7 5q26 31 71.5 71t84.5 67q13 9 26.5 12.5
t31.5 2.5q22 -2 39 -31.5t16 -62.5q0 -19 -17.5 -62.5t-132.5 -285.5q-51 -104 -126.5 -176.5t-180.5 -114.5z" />
    <glyph glyph-name="f_f_j" unicode="ffj" horiz-adv-x="1057" 
d="M-79 -180q-55 -43 -117 -66t-121 -23q-52 0 -82 23.5t-30 62.5t31 65t82 31l4 -2q-3 -20 -2 -43.5t5 -41.5q8 -33 26.5 -52t43.5 -19q40 0 74.5 40.5t106.5 175.5q12 23 33 62.5t73 139.5q53 104 79.5 155t47.5 90h-90q-6 0 -6.5 4.5t3.5 6.5l145 92q1 2 12.5 22.5
t17.5 29.5q49 80 115 143t142 103q52 28 104.5 42.5t98.5 14.5q28 0 46.5 -2t32.5 -6q5 -1 7.5 -3.5t2.5 -6.5q0 -23 -37 -57.5t-57 -34.5q-11 0 -26.5 5.5t-50.5 22.5q-36 18 -52 23.5t-28 5.5q-29 0 -59.5 -40.5t-107.5 -179.5l-33 -61.5t-20 -37.5h237q24 44 29.5 53
t9.5 16q98 148 220.5 227t256.5 79q28 0 57.5 -2t46.5 -5q6 -1 9 -3.5t3 -7.5q0 -23 -29 -57.5t-46 -34.5q-12 0 -31 5.5t-61 22.5q-49 20 -71 26t-38 6q-37 0 -71.5 -40.5t-114.5 -185.5l-33 -61.5t-20 -37.5q27 0 52 1.5t57 4.5q10 1 14 1h6q5 0 7 -2.5t-1 -6.5
q-18 -26 -49.5 -56.5t-44.5 -31.5h-0.5h-1.5q-19 1 -40.5 1.5t-44.5 0.5q-131 -254 -164 -316t-63 -114q-68 -119 -168 -187t-194 -68q-59 0 -93.5 23.5t-39.5 65.5zM1301 773q-28 -28 -88 -73.5t-170 -120.5l-4 5q79 73 132.5 138t85.5 126q7 7 16.5 10.5t19.5 3.5
q30 0 34 -29.5t-26 -59.5zM580 -219q-46 -19 -87 -28.5t-76 -9.5q-39 0 -64 5.5t-29 15.5q-8 20 20 56.5t47 36.5q8 0 19 -5t37 -22q41 -25 63 -33.5t41 -8.5q40 0 72 27.5t69 96.5q14 25 31.5 61t54.5 118q94 208 112 252t22 64q1 18 -4.5 28t-18.5 14q-23 -9 -54.5 -34.5
t-59.5 -58.5l-7 5q26 31 71.5 71t84.5 67q13 9 26.5 12.5t31.5 2.5q22 -2 39 -31.5t16 -62.5q0 -19 -17.5 -62.5t-132.5 -285.5q-51 -105 -126.5 -177t-180.5 -114zM292 423q-7 -14 -91.5 -178.5t-138.5 -258.5q-8 -14 -18 -29.5t-23 -34.5q-9 -61 17.5 -114.5t74.5 -53.5
q40 0 75 41t108 176q11 20 28.5 53.5t60.5 118.5q60 117 90.5 175.5t54.5 103.5h-30h-61q-59 1 -90.5 1h-56.5z" />
    <glyph glyph-name="lslash_lslash" unicode="&#x142;&#x142;" horiz-adv-x="599" 
d="M835 998q125 -22 176 -28.5t82 -6.5q12 0 26.5 14.5t32.5 43.5l4 -1q-23 -65 -73.5 -107.5t-110.5 -42.5q-43 0 -107.5 13t-207.5 54q-131 37 -186.5 48.5t-90.5 11.5q-22 0 -30 -13.5t-6 -68.5q1 -43 -11.5 -64.5t-39.5 -21.5q-32 0 -55.5 18t-17.5 41q7 27 41.5 57.5
t84.5 53.5q40 20 83 30t83 10q44 0 110 -8t213 -33zM484 840q10 -1 15.5 -6.5t6.5 -15.5q-75 -132 -142.5 -253t-177.5 -322q-32 -57 -47 -96.5t-14 -62.5q1 -12 8.5 -21t20.5 -13q19 6 49 32.5t70 70.5l6 -7q-73 -77 -103 -101.5t-57 -39.5q-7 -3 -16.5 -4.5t-21.5 -1.5
q-14 0 -23.5 1.5t-14.5 4.5q-21 13 -35 34t-14 42q-1 23 14.5 62t56.5 113q127 231 180 326t86 153q-2 8 -8 14.5t-16 12.5t-29 7t-48 -2q-5 0 -11.5 -1t-21.5 -3q-19 -3 -28.5 -4t-17.5 -2l-1 7q96 14 180.5 33t153.5 43zM417 5q-7 -3 -16.5 -4.5t-21.5 -1.5
q-14 0 -23.5 1.5t-14.5 4.5q-20 13 -34.5 35.5t-15.5 44.5q0 23 16 62.5t57 114.5q47 86 93 164t76 121q43 64 110 115t173 100q86 39 152.5 55.5t135.5 16.5q30 0 60 -1.5t46 -3.5q6 -1 9 -4t3 -8q0 -24 -36.5 -59t-56.5 -35q-14 0 -35 4t-71 18q-56 16 -82 21t-45 5
q-26 0 -43.5 -3.5t-31.5 -11.5q-27 -13 -66.5 -62.5t-95.5 -140.5q-31 -50 -66 -110.5t-109 -194.5q-35 -65 -49 -101.5t-13 -59.5q1 -14 8.5 -23.5t21.5 -13.5q19 6 49 32.5t70 70.5l6 -7q-73 -77 -103 -101.5t-57 -39.5z" />
    <glyph glyph-name=".notdef" horiz-adv-x="1414" 
d="M1229 695q53 -55 79 -152t26 -236q0 -126 -32.5 -230.5t-84.5 -158.5q-62 -62 -199.5 -107t-293.5 -45q-185 0 -342 46t-215 113q-45 51 -66 142t-21 237q0 114 28.5 216.5t75.5 155.5q67 77 202.5 117.5t327.5 40.5q189 0 322.5 -36t192.5 -103zM253 -6
q-18 -19 -32.5 -25.5t-32.5 -6.5q-3 0 -9 1.5t-15 4.5q4 -9 8.5 -16.5t10.5 -14.5q46 -51 196.5 -84t340.5 -33q162 0 299.5 33t181.5 76q37 38 56 134.5t19 245.5q0 175 -13.5 255t-47.5 119q-44 51 -173 78t-330 27q-176 0 -322 -34.5t-194 -87.5q-31 -36 -46.5 -127
t-15.5 -232v-64q44 31 62.5 39.5t35.5 8.5t35 -2.5t52 -11.5q32 -8 48 -10.5t31 -2.5q12 0 20.5 6.5t9.5 16.5q-18 -2 -37.5 6.5t-26.5 24.5q25 -9 47.5 -1.5t29.5 26.5q22 -11 40 -3t24 30q26 -2 42 7.5t22 31.5q29 -6 50 16.5t22 23.5q17 -1 39.5 6.5t43.5 22.5q5 2 10 5
l15 9l15 9t10 5q8 1 14 0t8 -4q-3 2 -12 -1.5t-13 -9.5q-32 -30 -46 -40.5t-29 -18.5q-26 -15 -40.5 -35.5t-21.5 -51.5q-4 -16 -11 -31t-18 -31q-5 -6 -10.5 -8.5t-13.5 -3.5q-21 -3 -25 -5t-5 -5q-1 -7 6 -12t17 -5q9 -1 25.5 -0.5t19.5 0.5q7 0 11 6t4 17q0 3 3.5 7
t15.5 13q15 11 20.5 17t7.5 12q2 9 0.5 16t-6.5 13q7 9 17 15t28 10q20 5 32.5 13t21.5 22q18 22 27.5 49t4.5 46q17 -10 33.5 -15t37.5 -5q17 0 26.5 4t14.5 12q18 -2 29.5 3t15.5 17q3 5 1.5 10t-6.5 6q19 -1 35 5.5t16 14.5q0 1 -3 1.5t-8 0.5q-6 0 -12.5 0.5t-17.5 3.5
q-10 2 -15 2.5t-10 0.5q-11 0 -20 -2.5t-15 -6.5l-2 2q5 8 14 11.5t28 3.5q4 0 8.5 -0.5t15.5 -1.5q14 -2 21.5 -2.5t14.5 -0.5q14 0 25 4.5t18 12.5q-15 0 -30 1t-41 5q-22 3 -32.5 4t-20.5 1q-17 0 -30.5 -10t-20.5 -28q-9 -17 -26.5 -20t-35.5 8q-7 5 -14 8t-14 3
q-5 0 -9.5 -1.5t-20.5 -11.5q-16 -13 -35 -26.5t-36 -22.5q-2 -1 -5 -2t-9 -2q-7 -1 -10.5 -2.5t-5.5 -2.5q-9 -3 -12.5 -8.5t-4.5 -17.5q-26 -6 -58 -20t-97 -51q-58 -32 -83 -43t-43 -14q-5 -1 -10.5 -1t-13.5 2q-3 1 -5 1h-4t-5.5 -1t-13.5 -4q-18 -7 -27.5 -9t-16.5 -2
q-8 0 -13 10.5t-5 26.5q-13 5 -23 32t-10 52q0 11 9.5 25t26.5 27q17 12 30.5 27t21.5 28l7 14t8 15q5 8 11 13.5t13 9.5q5 7 14 32t19 38q11 15 27 25t39 15q-14 -14 -13 -26t15 -12q11 0 23 1t37 4q-11 -11 6.5 -19.5t45.5 0.5q-7 -27 1 -35.5t35 -2.5q-9 -25 -1 -35.5
t32 -1.5q-8 -21 -2 -30.5t27 -13.5q-13 -26 -2 -33t45 6q-8 53 -14.5 77.5t-14.5 37.5t-19.5 23t-33.5 22q-35 16 -45 26t-10 24q0 15 9.5 24.5t24.5 9.5q13 0 22 -6t19 -21q2 -3 4 -7.5t6 -15.5q5 -14 8 -21t7 -13q11 -17 28 -27t48 -19l-17 -16l-35 22q15 -37 18 -47
t5 -18q14 1 24.5 -2.5t17.5 -11.5q12 0 19.5 3t12.5 12q2 5 4 6t4 1q7 0 13.5 -1t23.5 -7q6 -3 18.5 -4.5t17.5 -2.5q9 8 14.5 22.5t5.5 28.5q0 25 -10.5 37t-32.5 12q-12 0 -21.5 -5.5t-12.5 -15.5q-3 -6 -2 -9.5t5 -3.5q12 0 17.5 -2.5t5.5 -7.5q0 -4 -1.5 -5t-7.5 -1
q-3 0 -6 1t-8 4q-1 0 -2 0.5l-1 0.5q-2 0 -4 -1t-5 -3q-4 -3 -6 -4t-4 -1q-4 0 -6.5 1t-2.5 3q0 4 4 9t7 6q1 2 2 3.5t1 5.5t1 7l2 6q6 13 20 21t29 8q23 0 39.5 -12t22.5 -33q6 13 15.5 23.5t22.5 17.5q8 5 18.5 7.5t32.5 3.5q25 2 38.5 5t26.5 9l4 -6q-10 -13 -20 -19
t-22 -6q4 -12 0.5 -22.5t-13.5 -15.5q4 -6 -3.5 -16t-17.5 -10q25 -4 55 -5t59 0l1 -5q-6 -15 -24.5 -24.5t-40.5 -10.5q4 -13 -13 -24t-36 -8q0 -17 -15.5 -27t-40.5 -10q-3 -7 -15.5 -11t-28.5 -4q-10 0 -22.5 2.5t-30.5 7.5q-6 -26 -5 -36t9 -12q5 -2 12.5 -1.5t25.5 5.5
q19 5 28.5 6.5t18.5 1.5q23 0 42 -9t35 -27q5 -6 10.5 -13t15.5 -21l19.5 -25.5t13.5 -16.5q22 -24 39 -34.5t33 -10.5q26 0 40.5 20t14.5 56q0 20 -5 37.5t-31 58.5q-8 14 -11.5 27t-3.5 25q0 31 24.5 79t26.5 54h11q2 -16 2.5 -36t-0.5 -61q-2 -30 -2 -44t1 -25
q1 -5 9.5 -43.5t8.5 -65.5q0 -45 -23 -72t-60 -27q-17 0 -32.5 5t-61.5 34v-48q0 -47 13 -58t69 -7q40 1 54.5 -13.5t10.5 -51.5q-3 -46 -8 -86.5t-11 -74.5q-4 -25 -37 -44t-78 -19q-12 0 -19 1.5t-7 4.5q-2 9 -0.5 18t5.5 10l6 6t7 6q4 4 7.5 5.5t7.5 1.5h5t9 -1
q5 -1 7.5 -1h4.5q19 1 26.5 7.5t7.5 22.5q-4 24 -5.5 41t-1.5 54q0 22 -6 30.5t-23 8.5q-5 0 -12 -0.5t-22 -2.5q-16 -2 -24 -2.5t-15 -0.5q-39 0 -60 27t-21 75q0 21 -1.5 29.5t-4.5 10.5q-7 -11 -11.5 -24t-4.5 -26q0 -44 15.5 -70.5t48.5 -39.5q2 -2 2 -11.5t-2 -14.5
q-5 -6 -11.5 -13.5t-19.5 -21.5q-20 -24 -30.5 -36t-18.5 -23q-16 -27 -53 -42t-80 -14q-5 0 -14.5 3t-9.5 6q-1 10 -0.5 19.5t2.5 12.5q1 1 12.5 9t18.5 8h7.5t10.5 -1q5 -1 7.5 -1h4.5q21 0 30.5 3.5t17.5 12.5q2 4 5 8t8 11q6 9 9 13t5 8q20 30 16 46t-33 27
q-37 14 -49 35t0 51q10 26 27 44t54 38q-21 6 -47 -7t-47 -42q-11 -16 -31 -47t-29 -44q-21 -28 -42 -39.5t-48 -11.5q-20 0 -41 7.5t-47 23.5q12 20 14 46.5t-7 42.5q-17 -68 -34 -88t-57 -13q-11 -23 -35 -32.5t-58 -4.5q-9 -22 -34.5 -38t-51.5 -15q-6 0 -12 -3t-16 -14z
M626 670q4 -2 5.5 -3t2.5 -1q-3 4 -5.5 8.5l-7.5 13.5q-4 9 -7 14t-6 9q-8 9 -10.5 10.5t-6.5 1.5q-5 0 -8.5 -4.5t-3.5 -9.5q0 -8 7.5 -15.5t22.5 -16.5q3 -1 6.5 -2.5zM771 582q0 3 2.5 5.5t8.5 4.5q5 2 9.5 0.5t4.5 -5.5q0 -3 -2 -4.5t-9 -2.5q-7 0 -10.5 0.5t-3.5 1.5z
M448 548q0 -10 -2 -15.5t-7 -9.5v-7q15 8 22.5 19t7.5 27q0 12 -10 21t-23 9q-12 0 -22.5 -8t-22.5 -25l3 -5q10 9 16.5 13t12.5 4q10 0 17.5 -6.5t7.5 -16.5zM725 539q-2 5 -9.5 7t-16.5 1q-4 -4 -1 -16t7 -12q7 0 15.5 8t4.5 12zM314 492q1 -4 1 -6v-3q0 -2 -0.5 -4
t-3.5 -6l-1.5 -3t-0.5 -2q0 -3 1 -4t3 -1l1 1t4 5q4 8 6.5 10.5t4.5 3.5q7 5 12 10t10 12h-4.5t-7.5 1q-7 1 -10 1h-6q-5 0 -7 -1.5t-2 -5.5v-3v-5zM228 442l-0.5 -2t-0.5 -6q0 -16 3 -25.5t9 -9.5q1 0 2 1.5t1 4.5v14t1 6q2 2 4.5 3.5t6.5 3.5q5 2 6 3.5t1 3.5q0 4 -1.5 5
t-3.5 -2q-7 -5 -17.5 -2.5zM324 371q-39 -4 -51 -2t-22 8l-3 -2q8 -12 17 -17.5t25 -3.5q2 3 10 5t15 2q3 0 5.5 -1t7.5 -4q2 -2 3 -2.5t2 -0.5q3 0 4 1t1 4q0 6 -4 9.5t-10 3.5zM153 161q-11 -5 -14 -11t-3 -17q1 -24 4 -50t7 -50q9 5 17.5 8t23.5 4q42 7 74 22t57 39
q7 7 17 14t30 20q32 20 43 32.5t14 27.5q-16 -14 -28.5 -18.5t-30.5 -4.5q-16 0 -27.5 7.5t-17.5 22.5q-19 -16 -41.5 -12.5t-31.5 24.5q-4 10 -7.5 12.5t-9.5 2.5q-4 0 -8 -3t-12 -14q-10 -14 -17.5 -19.5t-15.5 -6.5q-2 -11 -7 -18t-16 -12z" />
    <glyph glyph-name=".null" horiz-adv-x="0" 
 />
    <glyph glyph-name="nonmarkingreturn" horiz-adv-x="333" 
 />
    <glyph glyph-name="NULL" horiz-adv-x="0" 
 />
    <glyph glyph-name="NULL" horiz-adv-x="0" 
 />
    <glyph glyph-name="CR" unicode="&#xd;" horiz-adv-x="233" 
 />
    <glyph glyph-name="space" unicode=" " horiz-adv-x="233" 
 />
    <glyph glyph-name="exclam" unicode="!" horiz-adv-x="323" 
d="M368 611q-76 -115 -128.5 -208t-104.5 -203l-10 2q50 105 87.5 197.5t85.5 235.5q35 102 52 148t35 87q2 5 13 7.5t29 2.5q23 0 51 -4t44 -10q6 -2 9 -4.5t2 -5.5q-17 -26 -37 -56t-59 -87q-29 -43 -43.5 -64t-25.5 -38zM116 9q-7 -5 -26 -8t-39 -3q-28 0 -41.5 5
t-18.5 15q-5 23 12.5 62.5t39.5 50.5q8 3 27.5 6.5t35.5 3.5q21 0 38.5 -6.5t20.5 -16.5q4 -24 -13 -60.5t-36 -48.5z" />
    <glyph glyph-name="quotedbl" unicode="&#x22;" horiz-adv-x="318" 
d="M203 666q10 21 26 32t37 11q23 0 32.5 -21t-0.5 -43q-5 -10 -15 -25.5t-38 -55.5q-45 -62 -69.5 -99.5t-44.5 -73.5q-3 -5 -7.5 -4t-2.5 6q16 42 29.5 86.5t31.5 115.5q10 36 14 49.5t7 21.5zM343 666q9 21 25 32t38 11q23 0 32.5 -20.5t-1.5 -43.5q-5 -11 -15.5 -27
t-40.5 -59q-44 -60 -67.5 -96.5t-43.5 -70.5q-3 -6 -7 -5t-2 7q14 39 27 81.5t31 111.5q11 41 15.5 55.5t8.5 23.5z" />
    <glyph glyph-name="numbersign" unicode="#" horiz-adv-x="809" 
d="M564 218q-19 1 -42.5 1h-78.5h-86.5t-44.5 -1q0 -1 1 -67.5t3 -136.5q-2 -1 -8.5 -6.5t-16.5 -3.5q1 30 2.5 58t3.5 73l3 51t1 32q-36 -1 -72.5 -2.5t-122.5 -4.5q-1 2 -6.5 8.5t-3.5 16.5q60 -4 106 -5.5t100 -2.5v16.5v29.5q1 28 1 44v32v85.5t-1 42.5q-35 -1 -70.5 -2
t-125.5 -4q-1 2 -6.5 8.5t-3.5 16.5q53 -3 98 -5t108 -4v38.5t-1 59.5q-1 35 -1.5 55t-0.5 40q7 5 10.5 6.5t16.5 -0.5q-1 -16 -6 -86t-6 -113q19 -1 44 -1h84h80t43 1v38.5t-1 59.5q-1 35 -1.5 55t-0.5 40q7 5 10.5 6.5t16.5 -0.5q-1 -16 -6 -86t-6 -113q23 0 48 0.5
t69 1.5q35 1 52 1.5t32 0.5q5 -7 6.5 -10.5t-0.5 -16.5q-64 5 -110.5 8t-96.5 4q-1 -36 -1.5 -65.5t-0.5 -60.5v-61.5v-61.5q24 0 49.5 0.5t71.5 1.5q33 1 50 1.5t32 0.5q5 -7 6.5 -10.5t-0.5 -16.5q-67 6 -113 8.5t-96 3.5q0 -1 1 -66.5t3 -136.5q-2 -1 -8.5 -6.5
t-16.5 -3.5q1 30 2.5 58.5t3.5 73.5q2 34 3 50.5t1 31.5zM314 478q-1 -38 -1.5 -67t-0.5 -60v-61.5v-61.5q20 -1 45 -1h85h79t43 1q1 36 1.5 64t0.5 58v85.5t-1 42.5q-19 1 -43 1h-79h-85t-44 -1z" />
    <glyph glyph-name="dollar" unicode="$" horiz-adv-x="606" 
d="M624 414q-3 -5 -7.5 -4.5t-2.5 5.5q46 100 29 174.5t-94 96.5q-38 -65 -77 -133t-81 -145q82 -56 107.5 -94.5t25.5 -84.5q0 -101 -91 -172t-221 -71q-14 0 -27 1t-24 3q-14 -28 -28.5 -55.5t-28.5 -55.5q-9 -4 -18 -3t-15 6q17 28 33.5 55.5t32.5 55.5q-47 9 -96.5 26
t-80.5 34q-7 4 -7.5 6t1.5 6q42 71 70.5 124t52.5 103q3 6 7.5 4.5t2.5 -6.5q-46 -98 -29 -175.5t89 -105.5q41 71 80 139t76 137q-78 57 -101 93t-23 78q0 104 92 175.5t223 71.5q7 0 14.5 -0.5l22.5 -1.5q4 7 20.5 39.5t26.5 51.5q9 4 18.5 2.5t14.5 -6.5
q-22 -37 -33.5 -55.5t-20.5 -33.5q37 -5 74 -16t107 -42q6 -2 6.5 -4t-1.5 -7q-6 -12 -52.5 -96t-66.5 -120zM489 693q-90 0 -146.5 -41t-56.5 -112q0 -31 20 -59t76 -66q12 23 25.5 49t40.5 77q33 62 48.5 92.5t29.5 56.5q-9 2 -18 2.5t-19 0.5zM220 -3q81 0 132 43.5
t51 108.5q0 32 -19 61t-72 68q-35 -66 -70.5 -133.5t-73.5 -141.5q12 -3 25 -4.5t27 -1.5z" />
    <glyph glyph-name="percent" unicode="%" horiz-adv-x="773" 
d="M811 693q-77 -63 -194 -164.5t-216 -190.5q-34 -30 -74.5 -68.5t-122.5 -119.5q-66 -64 -98 -95t-59 -56q-11 -6 -26.5 -2.5t-17.5 14.5q105 87 206 173t182 158q42 37 98 90t168 162q50 49 72.5 70.5t39.5 37.5q12 4 21.5 2t20.5 -11zM327 698q66 0 100.5 -51t14.5 -120
q-14 -51 -50.5 -90.5t-87.5 -60.5q-26 -10 -44 -14.5t-30 -4.5q-67 0 -102.5 50.5t-15.5 122.5q13 50 50.5 89.5t91.5 60.5q26 10 43 14t30 4zM207 542q-18 -74 -6 -119t51 -45q14 0 23 1.5t20 4.5q17 27 30 58.5t23 67.5q20 77 8 122.5t-54 45.5q-9 0 -19.5 -1.5
t-19.5 -4.5q-18 -26 -32.5 -59t-23.5 -71zM581 332q67 0 101 -50.5t15 -120.5q-14 -49 -50.5 -89t-88.5 -62q-20 -8 -40 -13t-33 -5q-67 0 -102.5 50.5t-16.5 122.5q14 50 52.5 89.5t90.5 59.5q19 8 38.5 13t33.5 5zM462 177q-18 -75 -6 -119.5t51 -44.5q14 0 23 1.5t20 4.5
q16 25 28.5 55.5t24.5 70.5q19 78 7 122.5t-54 44.5q-8 0 -18 -1.5t-20 -3.5q-18 -26 -32 -58.5t-24 -71.5z" />
    <glyph glyph-name="ampersand" unicode="&#x26;" horiz-adv-x="1092" 
d="M463 122q-58 -72 -126.5 -117t-140.5 -59q-50 1 -97 33t-77 83q-31 53 -34 108t24 100q27 44 107 92.5t183 82.5q-6 21 -9.5 41.5t-3.5 37.5q0 48 30 100.5t103 124.5q64 61 116.5 87.5t106.5 26.5q60 0 108 -22.5t71 -62.5q-75 -85 -127 -148t-78 -100l-7 4
q8 11 18 24.5t31 41.5q35 47 47.5 65t17.5 26q-25 41 -72.5 65t-104.5 24q-43 0 -75 -10.5t-52 -30.5q-19 -18 -28.5 -45t-10.5 -68q-1 -53 37.5 -147.5t100.5 -198.5q63 -107 146 -187t133 -80q11 0 21 2t19 7q22 11 39.5 39t36.5 84q27 80 8 150.5t-75 92.5q-18 8 -38 11
t-49 3q-6 0 -28 -2t-60 -5q-3 -1 -4 0.5t-1 4.5q0 2 2 6.5t8 14.5q9 14 30.5 41t36.5 43q6 6 10 8t10 2q123 0 145.5 0.5t38.5 1.5q58 5 102 12.5t78 18.5q4 2 8.5 3t10.5 3q5 2 7 2.5t3 1.5q2 0 3.5 -1t1.5 -3q0 -1 -2 -4t-5 -6q-11 -14 -59.5 -64t-71.5 -69q-4 -4 -8 -5.5
t-10 -1.5h-23q-23 0 -48.5 1.5t-72.5 5.5q-36 4 -53 5t-32 1q12 -3 34.5 -9.5t38.5 -11.5q119 -33 168 -92.5t21 -136.5q-14 -37 -57.5 -71.5t-139.5 -79.5q-14 -7 -30.5 -15.5t-49.5 -27.5l-43.5 -24t-26.5 -14q-48 1 -109 51t-122 136zM306 432q-71 -15 -119 -45t-69 -73
q-19 -42 -13 -90t36 -94q29 -46 72 -74t84 -28q42 0 82 25.5t78 76.5q-13 20 -26 41t-25 43q-36 65 -61 120t-39 98z" />
    <glyph glyph-name="quotesingle" unicode="'" horiz-adv-x="179" 
d="M203 666q10 21 26 32t37 11q23 0 32.5 -21t-0.5 -43q-5 -10 -15 -25.5t-38 -55.5q-45 -62 -69.5 -99.5t-44.5 -73.5q-3 -5 -7.5 -4t-2.5 6q16 42 29.5 86.5t31.5 115.5q10 36 14 49.5t7 21.5z" />
    <glyph glyph-name="parenleft" unicode="(" horiz-adv-x="386" 
d="M150 -264q3 -4 -2.5 -7.5t-8.5 0.5q-34 48 -54 125.5t-20 164.5q-1 79 15 154t47 141q64 138 200 265.5t304 209.5q9 4 11.5 -1t-5.5 -9q-109 -49 -217.5 -178t-189.5 -302q-77 -165 -100 -325.5t20 -237.5z" />
    <glyph glyph-name="parenright" unicode=")" horiz-adv-x="386" 
d="M235 782q-3 4 2.5 7.5t8.5 -0.5q34 -48 54 -125.5t20 -164.5q1 -79 -15 -154t-47 -141q-64 -138 -200 -265.5t-304 -209.5q-9 -4 -11.5 1t5.5 9q109 49 217.5 178t189.5 302q77 165 100 325.5t-20 237.5z" />
    <glyph glyph-name="asterisk" unicode="*" horiz-adv-x="402" 
d="M218 371q-12 4 -18.5 23.5t1.5 40.5q1 3 6.5 10t21.5 27q25 28 34.5 41t11.5 20q-8 -2 -22.5 -9.5t-46.5 -26.5q-21 -12 -28.5 -16t-9.5 -4q-22 -4 -40.5 5t-21.5 22q-1 14 12.5 29t35.5 19q3 0 11 -1t31 -5q39 -8 55.5 -10t23.5 0q-6 6 -19.5 15t-45.5 27
q-21 12 -28 16.5t-9 6.5q-14 17 -15 37t9 29q10 8 30.5 3.5t34.5 -21.5q2 -2 5.5 -10.5t11.5 -33.5q12 -34 18 -48t10 -19q2 8 3.5 23.5t1.5 51.5q0 25 0.5 33.5t1.5 11.5q7 20 24 31t30 7q12 -5 18.5 -24t-0.5 -40q-1 -3 -6 -9.5t-21 -24.5q-24 -27 -34 -40t-14 -21
q9 2 25 9.5t49 27.5q18 10 24.5 13.5t8.5 3.5q21 4 39.5 -5.5t21.5 -22.5q2 -13 -11.5 -28t-35.5 -19q-3 0 -12 1t-34 6q-37 7 -53 9t-23 1q6 -6 20.5 -15.5t47.5 -29.5q20 -11 26.5 -15t8.5 -6q14 -17 15 -38t-9 -29q-10 -9 -30 -4t-34 22q-3 3 -6.5 12t-12.5 35
q-12 31 -17.5 45t-10.5 21q-2 -9 -3 -25.5t-1 -53.5v-31.5t-1 -10.5q-8 -21 -25.5 -32.5t-29.5 -6.5z" />
    <glyph glyph-name="plus" unicode="+" 
d="M486 354q8 -5 8.5 -17.5t-8.5 -18.5q-62 6 -103 9t-61 3q0 -25 2 -50.5t12 -124.5q-8 -9 -20 -9t-19 9q6 70 9 113.5t3 61.5q-28 -1 -57 -3t-107 -9q-8 6 -8 18.5t8 17.5q70 -8 102 -10.5t62 -2.5q0 20 -3 62.5t-9 107.5q7 9 19.5 9t19.5 -9q-11 -99 -12.5 -123t-1.5 -47
q30 0 62 2.5t102 10.5z" />
    <glyph glyph-name="comma" unicode="," horiz-adv-x="306" 
d="M140 26q-23 -40 -75.5 -82.5t-117.5 -75.5q-2 -1 -4 1.5t0 3.5q43 24 82.5 59.5t63.5 71.5q4 6 7.5 12.5t12.5 23.5q-18 -18 -43 -30t-42 -12q-14 0 -23 5t-14 16q-5 21 15 59t42 49q13 6 31 10t32 4q21 0 36.5 -6.5t20.5 -17.5q6 -15 0 -38.5t-24 -52.5z" />
    <glyph glyph-name="hyphen" unicode="-" horiz-adv-x="375" 
d="M74 273q24 -2 51.5 -3t64.5 -1t65 1t51 3q7 -4 4 -23t-10 -23q-26 3 -51.5 4t-63.5 1q-29 0 -56.5 -1t-60.5 -4q-5 4 -3 22.5t9 23.5z" />
    <glyph glyph-name="period" unicode="." horiz-adv-x="306" 
d="M51 -2q-31 0 -44 5t-16 15q-8 21 11 61.5t41 51.5q8 3 27.5 6.5t35.5 3.5q21 0 38.5 -6.5t20.5 -16.5q4 -24 -13 -60.5t-36 -48.5q-7 -5 -26 -8t-39 -3z" />
    <glyph glyph-name="slash" unicode="/" horiz-adv-x="342" 
d="M652 775q-110 -116 -207.5 -222.5t-252.5 -282.5q-142 -162 -256 -294.5t-211 -250.5q-16 -6 -26.5 -4.5t-13.5 10.5q107 113 225 243t269 302q114 129 225 258t211 248q14 5 22 4t15 -11z" />
    <glyph glyph-name="zero" unicode="0" horiz-adv-x="912" 
d="M522 59q-61 -30 -130.5 -51.5t-106.5 -21.5q-47 0 -89.5 18.5t-63.5 48.5q-46 65 -43 156.5t60 184.5q49 78 143.5 153.5t207.5 131.5q58 29 125.5 50t108.5 21q56 0 93.5 -15.5t59.5 -48.5q44 -61 39 -154t-60 -190q-44 -77 -142 -155.5t-202 -127.5zM259 111
q22 -31 67 -50t95 -19q26 0 52 6t46 17q58 31 105 85t96 143q56 101 67 190.5t-25 145.5q-22 36 -58.5 53t-89.5 17q-27 0 -57.5 -7.5t-53.5 -18.5q-55 -30 -110 -88.5t-107 -144.5q-54 -89 -60.5 -181t33.5 -148z" />
    <glyph glyph-name="one" unicode="1" horiz-adv-x="385" 
d="M-45 2q-36 -1 -49.5 -1.5t-18.5 -0.5q-4 0 -3 4t5 4q52 0 91 23.5t71 74.5q18 29 142.5 248t136.5 241q5 11 3 17t-11 6q-10 0 -43 -13.5t-91 -40.5q-4 -2 -6 2t2 6q100 46 180.5 88t146.5 82q9 5 14.5 7.5t8.5 2.5q6 -1 8 -5.5t-1 -10.5q-268 -479 -309 -551.5
t-49 -87.5q-26 -48 -11.5 -68.5t74.5 -20.5q4 0 3.5 -4t-4.5 -4q-8 0 -31 0.5t-86 1.5q-53 1 -71.5 1.5t-23.5 0.5q-6 0 -21.5 -0.5t-56.5 -1.5z" />
    <glyph glyph-name="two" unicode="2" horiz-adv-x="753" 
d="M-13 -4h-23h-6q-4 0 -5.5 7.5t2.5 9.5q112 57 206.5 109t171.5 99q136 84 211 149t100 121q34 80 -7 136t-135 56q-30 0 -53 -4.5t-40 -14.5q-19 -10 -34.5 -31.5t-29.5 -59.5q-7 -18 -18.5 -55t-17.5 -53q-17 -45 -36.5 -61.5t-49.5 -16.5q-24 0 -36 11.5t-12 33.5
q0 13 4 26.5t13 28.5q24 46 85 97.5t129 85.5q67 34 115 47.5t94 13.5q105 0 154 -64.5t11 -159.5q-16 -41 -61.5 -79.5t-140.5 -89.5q-32 -18 -112 -59t-126 -66q-52 -28 -95.5 -53.5t-83.5 -50.5h220q71 0 110 4t66 13q32 11 59 35t68 82q4 5 7 2.5t-1 -7.5
q-4 -6 -12.5 -19.5t-32.5 -51.5q-40 -66 -59 -95.5t-30 -45.5q-8 -12 -14 -17t-15 -6q-8 -1 -34 -1.5t-99 -0.5q-36 -1 -52.5 -1h-28.5q-64 0 -142.5 -1t-183.5 -3z" />
    <glyph glyph-name="three" unicode="3" horiz-adv-x="733" 
d="M457 66q-96 -54 -152 -73t-105 -19q-86 0 -133.5 50.5t-28.5 121.5q14 47 72 86t119 49q4 1 4.5 -1.5t-2.5 -3.5q-32 -6 -53.5 -26t-29.5 -54q-14 -64 40 -105.5t137 -41.5q45 0 74 5.5t52 18.5q26 14 43.5 31t30.5 41q21 38 27 79t-3 76q-11 44 -42 68.5t-74 24.5
q-24 0 -46 -8t-55 -33q-19 -14 -27.5 -18t-16.5 -4q-11 0 -16.5 5t-5.5 14q0 11 14 19.5t44 14.5q113 23 183.5 58t95.5 81q38 70 3 129.5t-112 59.5q-20 0 -35 -2.5t-28 -8.5q-33 -14 -54.5 -46t-41.5 -98q-11 -37 -30 -53.5t-49 -16.5q-32 0 -44 21t2 51q15 34 62.5 67.5
t150.5 78.5q56 25 99.5 37t74.5 11q90 0 132 -63t0 -140q-17 -31 -56 -56.5t-104 -48.5q-21 -7 -46 -14.5t-142 -39.5q15 2 68.5 14t92.5 12q92 0 126.5 -59.5t-14.5 -140.5q-18 -29 -58.5 -60.5t-142.5 -89.5z" />
    <glyph glyph-name="four" unicode="4" horiz-adv-x="776" 
d="M414 2q-51 1 -73.5 1.5t-35.5 0.5q-14 0 -41.5 -0.5t-88.5 -2.5q-34 -1 -45 -1h-15q-5 0 -4.5 4t5.5 4q61 0 100.5 22t72.5 73q7 10 26 42.5t41 72.5h-169t-172 1q-4 0 -5 5.5t3 7.5q130 86 329 227.5t391 286.5q10 7 15 10t10 3q4 0 5.5 -2t1.5 -8q0 -4 -2 -9.5
t-6 -13.5q-7 -13 -20.5 -37.5t-50.5 -92.5q-63 -114 -96.5 -176t-60.5 -110h47.5h47.5q67 0 99.5 16.5t76.5 79.5q3 4 6.5 2t-0.5 -6q-37 -59 -70 -110t-46 -65q-4 -6 -9 -8t-16 -2q-40 0 -89.5 0.5t-96.5 0.5q-21 -38 -38.5 -70t-22.5 -43q-28 -56 -12 -76.5t80 -20.5
q4 0 3.5 -4t-4.5 -4q-6 0 -20 0.5t-51 1.5zM570 611q-3 0 -13.5 -7t-22.5 -16l-383 -275q12 -2 36 -3t57 -1h82h82q46 81 92 163t68 122q3 5 4.5 8.5t1.5 5.5t-1 2.5t-3 0.5z" />
    <glyph glyph-name="five" unicode="5" horiz-adv-x="714" 
d="M412 69q-95 -52 -151 -71t-103 -19q-88 0 -135 46.5t-27 116.5q15 49 68.5 86t133.5 55q4 1 4.5 -2t-2.5 -4q-38 -6 -61.5 -27.5t-32.5 -57.5q-16 -61 36 -103.5t132 -42.5q41 0 73 7t60 22q27 14 45.5 32.5t33.5 45.5q24 45 29.5 91.5t-8.5 85.5q-16 45 -52.5 70
t-88.5 25q-46 0 -79 -10t-73 -36q-7 -4 -14 -10t-19 -19t-18 -17t-13 -4q-13 0 -19.5 6t-6.5 19q0 12 12 21t31 9q13 0 20 1.5t12 4.5q7 4 16 14t18 24l186 292q4 5 5.5 6t4.5 1h326q46 0 72 15.5t51 61.5q3 4 6.5 2t0.5 -6q-13 -24 -38 -67t-60 -105q-4 -7 -9 -9.5
t-16 -2.5q-6 0 -36 0.5t-121 1.5q-127 1 -174 1.5t-60 0.5q-3 0 -6 -1.5t-4 -3.5l-133 -209v0q0 -1 -2 -3.5t-2 -4.5q0 -1 0.5 -1.5t1.5 -0.5q3 0 10 3.5t17 9.5q62 40 113.5 55.5t105.5 15.5q52 0 91.5 -21t60.5 -60q21 -38 18.5 -83.5t-27.5 -89.5q-20 -35 -65.5 -70.5
t-137.5 -86.5z" />
    <glyph glyph-name="six" unicode="6" horiz-adv-x="766" 
d="M474 46q-83 -40 -127.5 -53t-85.5 -13q-47 0 -85 18.5t-64 53.5q-42 59 -37 149.5t62 188.5q91 157 283.5 255t446.5 123q12 1 12.5 -2t-10.5 -5q-199 -19 -347.5 -105.5t-241.5 -237.5q-12 -18 -23 -37.5t-21 -39.5q11 11 23 22.5t24 21.5q58 51 123 79t129 28
q49 0 88 -19.5t61 -54.5q28 -42 27.5 -100.5t-31.5 -114.5q-15 -27 -37 -50.5t-53 -44.5q-16 -11 -35.5 -22t-80.5 -40zM233 106q24 -34 62.5 -52.5t86.5 -18.5q27 0 47.5 4t41.5 13q29 12 52.5 40t43.5 73q20 46 17.5 98t-25.5 89q-21 33 -57.5 51t-83.5 18
q-40 0 -74 -10.5t-57 -29.5q-28 -24 -42 -41.5t-23 -37.5q-22 -50 -18 -105.5t29 -90.5z" />
    <glyph glyph-name="seven" unicode="7" horiz-adv-x="656" 
d="M258 -18q-9 -48 -32.5 -71t-63.5 -23q-48 0 -62 37t17 86q32 51 83.5 111t136.5 145q40 40 85 82t104 93q34 31 100 88t95 82h-349q-68 0 -114.5 -23.5t-94.5 -89.5q-2 -4 -6.5 -0.5t-1.5 7.5q16 20 54.5 75t99.5 144q3 4 38.5 3t71.5 -1h429l3 -10q-59 -53 -140.5 -125
t-99.5 -89q-93 -82 -140.5 -132t-81.5 -98q-49 -68 -81 -139.5t-50 -151.5z" />
    <glyph glyph-name="eight" unicode="8" horiz-adv-x="703" 
d="M489 74q-68 -46 -136.5 -71.5t-125.5 -25.5q-117 0 -179 52t-40 130q14 48 74.5 92.5t223.5 112.5q-71 40 -89.5 78.5t4.5 92.5q15 33 50.5 67.5t88.5 65.5q66 39 127.5 60.5t110.5 21.5q104 0 157 -55t26 -132q-14 -39 -66.5 -75.5t-184.5 -89.5l-4 4q73 31 106.5 59
t45.5 76q17 66 -38.5 110t-152.5 44q-36 0 -67 -7t-56 -21q-21 -12 -35 -27.5t-22 -36.5q-16 -42 17 -79t135 -86q124 -60 159 -113.5t2 -120.5q-14 -29 -46 -60t-85 -66zM313 360q-95 -39 -136 -73t-51 -83q-12 -64 54 -108.5t169 -44.5q48 0 80.5 6.5t54.5 20.5
q14 9 25 22t20 30q25 53 -7 98t-141 98q-31 15 -44.5 21.5t-23.5 12.5z" />
    <glyph glyph-name="nine" unicode="9" horiz-adv-x="778" 
d="M411 65q-93 -47 -148.5 -65t-98.5 -18q-73 0 -107 38.5t-14 98.5q10 30 48.5 55t113.5 48q3 1 3.5 -1.5t-2.5 -3.5q-18 -5 -32 -19t-19 -34q-12 -47 34.5 -80.5t115.5 -33.5q32 0 55.5 5t46.5 17q38 18 86 75.5t112 159.5q10 15 19 32.5t19 38.5q-10 -11 -19.5 -20.5
t-21.5 -19.5q-58 -48 -122 -73.5t-128 -25.5q-45 0 -82.5 17.5t-62.5 49.5q-34 44 -35.5 105t29.5 116q22 39 68 75.5t128 76.5q75 37 122 50.5t90 13.5q46 0 84.5 -18.5t63.5 -53.5q47 -65 41 -154.5t-68 -194.5q-41 -70 -112 -129t-207 -128zM325 373q23 -31 58.5 -47
t81.5 -16q45 0 79 9t58 28q20 15 33.5 32t22.5 38q23 52 19.5 111.5t-30.5 95.5q-24 32 -64.5 49t-91.5 17q-30 0 -51 -4t-40 -13q-27 -13 -48.5 -38.5t-39.5 -63.5q-24 -51 -20.5 -105t33.5 -93z" />
    <glyph glyph-name="colon" unicode=":" horiz-adv-x="306" 
d="M193 364q-29 0 -42 4.5t-18 14.5q-5 23 13 62t41 51q7 4 26 7t35 3q23 0 40 -6.5t19 -16.5q4 -23 -12.5 -59t-36.5 -49q-7 -5 -26 -8t-39 -3zM51 -2q-28 0 -41.5 5t-18.5 15q-5 23 12.5 62.5t39.5 50.5q8 3 27.5 6.5t35.5 3.5q21 0 38.5 -6.5t20.5 -16.5q4 -24 -13 -60.5
t-36 -48.5q-7 -5 -26 -8t-39 -3z" />
    <glyph glyph-name="semicolon" unicode=";" horiz-adv-x="306" 
d="M193 364q-29 0 -42 4.5t-18 14.5q-5 23 13 62t41 51q7 4 26 7t35 3q23 0 40 -6.5t19 -16.5q4 -23 -12.5 -59t-36.5 -49q-7 -5 -26 -8t-39 -3zM140 26q-23 -40 -75.5 -82.5t-117.5 -75.5q-2 -1 -4 1.5t0 3.5q43 24 82.5 59.5t63.5 71.5q4 6 7.5 12.5t12.5 23.5
q-18 -18 -43 -30t-42 -12q-14 0 -23 5t-14 16q-5 21 15 59t42 49q13 6 31 10t32 4q21 0 36.5 -6.5t20.5 -17.5q6 -15 0 -38.5t-24 -52.5z" />
    <glyph glyph-name="less" unicode="&#x3c;" 
d="M315 272q49 -17 87 -29.5t76 -24.5q8 -13 3 -25.5t-16 -16.5q-29 16 -62.5 34.5t-91.5 48.5q-18 7 -36.5 15t-53.5 22q-23 10 -35 15t-22 9q-4 4 -4 12t4 13q17 7 35.5 14.5t54.5 23.5q23 9 35 14t23 10q37 20 72.5 39t79.5 43q10 -4 15 -16.5t-2 -25.5
q-18 -5 -58.5 -18.5t-103.5 -35.5q-37 -16 -68.5 -30.5t-64.5 -29.5q16 -7 33 -15t52 -24q19 -9 29 -13.5t19 -8.5z" />
    <glyph glyph-name="equal" unicode="=" 
d="M317 420q36 0 72.5 2.5t90.5 9.5q10 -5 12 -16.5t-4 -19.5q-46 6 -85.5 8.5t-84.5 3.5q-39 -1 -76.5 -3t-89.5 -7q-10 5 -12 16.5t4 18.5q71 -8 105 -10.5t68 -2.5zM317 265q36 1 73 3.5t90 9.5q10 -5 12 -17t-4 -19q-47 6 -87 8.5t-83 2.5q-42 0 -80.5 -2.5t-85.5 -7.5
q-10 5 -12 17t4 19q72 -8 105.5 -10.5t67.5 -3.5z" />
    <glyph glyph-name="greater" unicode="&#x3e;" 
d="M320 393q-42 15 -80.5 28t-82.5 27q-7 13 -2 25.5t16 16.5q31 -18 65.5 -37t85.5 -45q19 -8 39 -16.5t57 -23.5l31.5 -13.5t20.5 -8.5q5 -4 5 -12t-5 -13q-11 -5 -24 -10.5t-38 -15.5q-33 -14 -51 -21.5t-34 -14.5q-35 -18 -71 -37t-83 -45q-10 4 -15 16.5t2 25.5
q44 14 83 26.5t81 27.5l60 28t72 32q-27 13 -56.5 26t-75.5 34z" />
    <glyph glyph-name="question" unicode="?" horiz-adv-x="599" 
d="M254 194q-2 -1 -8.5 -2t-14.5 -1q-10 0 -20 1t-12 3q-19 14 -34.5 41.5t-15.5 47.5q-1 23 5.5 43.5t20.5 42.5q19 30 59 57.5t141 73.5q112 51 154 83t58 67q33 74 -13.5 129.5t-144.5 55.5q-70 0 -114.5 -26t-57.5 -75q-10 -51 16 -86t74 -35q20 0 43 7.5t48 22.5l5 -5
q-76 -42 -120.5 -58t-76.5 -16q-60 0 -90 39t-12 94q21 63 104.5 104t180.5 40q62 0 114.5 -15.5t90.5 -44.5q48 -37 62.5 -88t-8.5 -103q-16 -38 -60.5 -70t-162.5 -81q-91 -37 -124.5 -58t-48.5 -43q-10 -15 -14 -26.5t-4 -25.5q1 -12 10.5 -23.5t22.5 -14.5q18 8 50.5 33
t67.5 57l6 -7q-41 -38 -83.5 -71t-93.5 -67zM211 9q-7 -5 -26 -8t-39 -3q-28 0 -41.5 5t-18.5 15q-5 23 12.5 62.5t39.5 50.5q8 3 27.5 6.5t35.5 3.5q21 0 38.5 -6.5t20.5 -16.5q4 -24 -13 -60.5t-36 -48.5z" />
    <glyph glyph-name="at" unicode="@" horiz-adv-x="981" 
d="M452 -222q-186 0 -295 99t-109 271q0 101 40.5 195t115.5 168t170.5 115t193.5 41q162 0 262.5 -92t100.5 -234q0 -141 -92 -237.5t-223 -96.5q-26 0 -53.5 6.5t-34.5 13.5q-10 11 -17 31.5t-8 37.5q-1 23 14.5 60.5t49.5 92.5q-66 -78 -129.5 -144.5t-88.5 -85.5
q-11 -6 -34.5 -4.5t-28.5 7.5q-27 32 -29.5 89.5t20.5 110.5q17 42 48.5 80.5t75.5 72.5q47 36 98.5 59t80.5 23q35 0 59.5 -15t57.5 -57q1 1 7 5.5t24 17.5q20 15 27.5 20.5t8.5 6.5q5 4 8 3.5t5 -4.5q-81 -126 -123.5 -211.5t-40.5 -120.5q1 -14 19 -43.5t31 -34.5
q88 3 158 83t70 183q0 150 -105 248t-273 98q-79 0 -154 -31.5t-134 -89.5q-58 -57 -90 -131.5t-32 -154.5q0 -200 108 -313.5t296 -113.5q72 0 145 32t134 90l7 -6q-70 -68 -157.5 -104t-183.5 -36zM385 284q-17 -55 -16.5 -108t19.5 -91q49 39 111.5 104t109.5 126
q-31 53 -57 77t-53 24q-31 0 -63.5 -38t-50.5 -94z" />
    <glyph glyph-name="A" unicode="A" horiz-adv-x="1343" 
d="M573 176q-155 -173 -210.5 -212t-120.5 -39q-50 0 -93.5 24t-73.5 66q-31 44 -36.5 94.5t16.5 91.5q21 40 75 81.5t124 72.5q54 24 109.5 36.5t105.5 12.5q30 0 75 -1t195 -5q29 35 65.5 78.5t108.5 130.5q52 63 76 91.5t42 50.5q-34 -1 -65 -2.5t-58 -4.5
q-29 -3 -60.5 -7.5t-83.5 -11.5q-39 -6 -52 -7.5t-18 -1.5q-7 0 4.5 15t53.5 58q15 16 20 21t6 7q7 4 45.5 6t117.5 2h157q66 0 135.5 0.5t172.5 2.5q39 1 53.5 1h22.5q12 0 20 -1t12 -2q0 -11 -27 -46t-45 -46q-11 -3 -50 -1.5t-142 10.5q-48 4 -68 5t-32 2
q-16 -90 -33.5 -186.5t-30.5 -174.5q87 -1 112 -1.5t44 -0.5q59 0 84 -0.5t39 -1.5q8 0 12.5 -2t4.5 -5q0 -4 -2 -7.5t-7 -8.5q-17 -20 -43.5 -41.5t-37.5 -23.5q-21 -4 -51.5 -3.5t-34.5 0.5q-23 0 -54 1.5t-81 5.5q-6 -37 -9 -58.5t-5 -35.5q-5 -42 -5.5 -78t4.5 -54
q4 -16 16 -24t31 -9q22 9 75.5 49t83.5 69l6 -6q-61 -56 -130 -111t-104 -74q-12 -6 -33.5 -6.5t-26.5 3.5q-14 11 -23.5 28.5t-12.5 40.5q-5 34 -4 63.5t7 68.5q4 24 10.5 61.5t14.5 83.5q-25 3 -55.5 6.5t-91.5 11.5q-44 5 -66 8t-40 5q-63 -76 -97 -116t-43 -49z
M1049 749l-293 -351q19 -1 42 -1.5t69 -2.5q47 -2 70 -2.5t43 -1.5q32 168 46 240.5t23 118.5zM257 348q-29 -14 -50 -38t-38 -62q-17 -35 -12.5 -76t29.5 -77q24 -34 60 -53t78 -19q58 0 103.5 30t126.5 122q21 22 79 91.5t64 76.5q-134 16 -206.5 22t-119.5 6
q-32 0 -60 -5.5t-54 -17.5z" />
    <glyph glyph-name="B" unicode="B" horiz-adv-x="1043" 
d="M323 -30q-99 1 -154 2t-67 2q-26 1 -43.5 4t-27.5 8q-4 2 -6 4.5t-2 5.5q0 6 3 13t9 15q15 21 41 42.5t47 30.5q4 2 8 2.5t12 0.5q11 0 25.5 -2t46.5 -9q34 -8 50.5 -10.5t29.5 -2.5q24 0 41 6t29 19q40 42 98 187.5t61 153.5q43 107 118 185.5t169 118.5l4 -1
q-22 -12 -44.5 -48t-50.5 -106q-11 -27 -33 -85t-33 -86q-2 -5 -4.5 -11t-7.5 -17q57 18 109 30t101 17q39 22 61 47.5t33 59.5q15 50 -5.5 97.5t-72.5 78.5q-37 22 -88.5 33t-114.5 11q-85 0 -146 -14t-113 -47q-37 -23 -65.5 -69t-64.5 -147q-15 -43 -39.5 -62.5
t-62.5 -19.5q-24 0 -36.5 4.5t-15.5 13.5q-3 10 4.5 29t25.5 45q38 53 98 104.5t152 107.5q106 67 203.5 102.5t175.5 34.5q62 0 113.5 -14.5t89.5 -42.5q48 -36 66.5 -87.5t1.5 -99.5q-16 -44 -61 -84t-126 -82q68 -26 101 -84t15 -119q-6 -23 -27.5 -47.5t-113.5 -93.5
q-20 -16 -46 -33t-46 -27q-47 -24 -98 -41t-87 -20q-35 -2 -84.5 -2.5t-155.5 -0.5zM639 385q-57 -129 -131 -204t-175 -105q87 -7 177 -10.5t148 -1.5q80 2 115.5 10t54.5 23q12 9 22 22t18 32q25 60 -4.5 132t-92.5 100q-22 3 -61.5 4t-70.5 -2z" />
    <glyph glyph-name="C" unicode="C" horiz-adv-x="861" 
d="M829 177q-156 -176 -255 -239.5t-190 -63.5q-114 0 -187 60t-91 167q-15 86 11 184.5t87 188.5q48 70 124 137.5t164 116.5q90 51 183.5 77.5t184.5 26.5q56 0 117.5 -13.5t137.5 -44.5q3 -1 4 -2.5t1 -4.5q0 -11 -51 -49.5t-69 -38.5q-8 0 -14 1t-14 4q-24 8 -72 32
t-74 34q-40 17 -78.5 24.5t-77.5 7.5q-85 0 -167.5 -64t-161.5 -191q-50 -81 -74.5 -170.5t-17.5 -168.5q9 -105 68.5 -164t159.5 -59q82 0 155 44t189 174q3 2 7 -0.5t1 -5.5z" />
    <glyph glyph-name="D" unicode="D" horiz-adv-x="1168" 
d="M426 -25h-134t-177 2q-28 1 -43.5 7.5t-20.5 19.5q-3 18 24 53t55 47q12 4 31.5 2t66.5 -14q36 -10 52.5 -13t29.5 -3q33 0 44.5 4t21.5 15q22 22 42 58t51 115q43 108 53.5 133.5t21.5 49.5q44 99 113 171.5t165 120.5l4 -1q-21 -10 -41.5 -44t-50.5 -109
q-4 -8 -27.5 -69t-40.5 -99q-57 -130 -133 -217t-176 -134q36 -5 137.5 -8t192.5 -1q76 1 129.5 13t88.5 36q29 21 57 57.5t50 83.5q42 89 38.5 185.5t-51.5 172.5q-47 76 -129.5 116t-191.5 40q-91 0 -162.5 -16t-119.5 -47q-34 -22 -59.5 -63.5t-58.5 -137.5
q-15 -44 -39 -63t-63 -19q-43 0 -49 25t24 70q33 45 84.5 88.5t154.5 106.5q108 68 200.5 97.5t187.5 29.5q111 0 196.5 -41.5t135.5 -119.5q52 -81 55.5 -182t-41.5 -185q-24 -46 -78 -96.5t-137 -106.5q-37 -25 -58 -38t-47 -29q-40 -23 -74 -35t-71 -18
q-24 -5 -88.5 -7.5t-144.5 -2.5z" />
    <glyph glyph-name="E" unicode="E" horiz-adv-x="1066" 
d="M201 -2q-40 -1 -54 -1.5t-21 -0.5q-30 0 -47.5 6t-21.5 18q-3 18 20 48t52 43q8 3 24.5 0.5t59.5 -14.5q44 -13 65.5 -17.5t37.5 -4.5q22 0 40 7t31 21q41 40 90 165t55 140q-68 11 -112.5 16.5t-80.5 9.5q-5 1 -6.5 1.5t-1.5 2.5t1.5 2.5t8.5 0.5q45 0 98.5 1t108.5 2
q1 1 1.5 2.5t0.5 3.5q1 2 1.5 3.5t1.5 2.5q42 96 105.5 166t141.5 107q-76 22 -139.5 32t-119.5 10q-48 0 -82.5 -7t-61.5 -21q-46 -25 -81.5 -84.5t-70.5 -169.5q-17 -54 -39 -75t-60 -21q-43 0 -53 28.5t20 74.5q49 76 121.5 142t158.5 112q75 39 153.5 58.5t158.5 19.5
q58 0 133 -12t198 -41q95 -23 132.5 -35.5t40.5 -20.5q4 -9 -28 -42.5t-47 -35.5q-15 -1 -66 11.5t-124 33.5q-9 3 -58 18t-81 24q-15 -9 -32 -40t-42 -95q-7 -18 -25.5 -67.5t-30.5 -78.5q74 2 132 3.5t90 1.5q40 0 70 -2.5t43 -7.5q12 -3 -20.5 -42t-50.5 -44t-37 -5
t-56 4q-17 2 -40.5 5.5t-156.5 26.5q-52 -112 -119.5 -187t-154.5 -116q24 -2 45 -3t45 -1q77 0 156.5 6t148.5 17q135 19 157.5 22t29.5 3q5 0 7 -2.5t1 -6.5q-1 -13 -31 -51.5t-53 -56.5q-8 -4 -43.5 -5.5t-111.5 -1.5h-195q-67 0 -141.5 -1.5t-188.5 -4.5z" />
    <glyph glyph-name="F" unicode="F" horiz-adv-x="993" 
d="M357 -2q-62 -31 -129.5 -49.5t-121.5 -18.5q-41 0 -64.5 6t-28.5 17q-3 19 20.5 50.5t51.5 43.5q8 3 12.5 4t9.5 1q11 0 27.5 -5t55.5 -21q50 -19 73 -25.5t40 -6.5q19 0 30.5 2.5t22.5 8.5q27 15 51 53t60 126q13 31 39.5 100t38.5 100q-28 7 -88.5 15.5t-122.5 14.5
q-4 0 -6.5 1t-2.5 3t2 2.5t8 0.5q49 0 108 1l118 2q49 114 112.5 188.5t148.5 116.5q-80 22 -142.5 32t-116.5 10q-48 0 -80 -6.5t-58 -20.5q-46 -25 -82.5 -83.5t-72.5 -163.5q-13 -45 -36 -68t-54 -23q-40 0 -48.5 27t19.5 72q50 76 119 139.5t150 106.5q72 39 149.5 58.5
t159.5 19.5q58 0 133 -12t198 -41q95 -23 132.5 -35.5t40.5 -20.5q4 -9 -28.5 -43t-47.5 -36q-14 -1 -59.5 10t-131.5 35q-40 12 -74 22t-65 19q-23 -17 -50.5 -71.5t-93.5 -228.5q133 3 161 3.5t45 0.5q36 0 67.5 -3t45.5 -7q12 -4 -19.5 -41.5t-49.5 -43.5
q-16 -5 -35.5 -5.5t-57.5 3.5q-22 2 -56.5 7.5t-124.5 22.5q-55 -141 -124.5 -226t-177.5 -140z" />
    <glyph glyph-name="G" unicode="G" horiz-adv-x="1090" 
d="M589 -235q-29 -11 -73.5 -24t-48.5 -14q-5 -1 -5.5 2t3.5 5q69 22 103.5 47t69.5 76q32 47 86.5 139t88.5 158q-99 -76 -199 -118t-185 -42q-101 0 -171.5 48.5t-97.5 134.5q-25 78 -9 167.5t69 167.5q47 69 137 138t193 113q80 34 161 51.5t160 17.5q67 0 140.5 -13
t146.5 -38q2 -1 3.5 -2.5t1.5 -3.5q0 -12 -52.5 -52.5t-70.5 -40.5q-7 0 -14 1.5t-18 4.5q-4 1 -123.5 47.5t-211.5 46.5q-30 0 -59.5 -6.5t-60.5 -19.5q-55 -25 -105 -71.5t-88 -107.5q-53 -84 -70.5 -172t3.5 -163q24 -85 93.5 -132.5t175.5 -48.5q117 -1 201 68.5
t166 237.5h-172q-46 0 -99 -3t-134 -12q-28 -2 -37.5 -3t-14.5 -1q-3 0 -4 1t-1 4q0 4 5.5 13t15.5 21q19 21 37.5 36.5t31.5 19.5q7 2 35 3.5t131 1.5q39 0 87.5 1t122.5 3q17 1 22.5 1h7.5q23 0 61 -35t29 -52q-30 -47 -65 -108.5t-98 -182.5q-45 -85 -63.5 -117.5
t-30.5 -50.5q-17 -26 -40 -48t-52 -41q-24 -15 -52.5 -28t-62.5 -25z" />
    <glyph glyph-name="H" unicode="H" horiz-adv-x="1348" 
d="M421 -28q-61 -31 -101.5 -43.5t-76.5 -12.5q-52 0 -100 31t-77 83q-28 50 -27.5 105.5t30.5 104.5q51 85 179.5 140.5t286.5 55.5h24h45q44 -1 68.5 -1h46.5q18 33 44.5 80.5t27.5 48.5q32 57 46.5 93t14.5 55q0 16 -8 26t-22 12q-19 -7 -65 -41.5t-100 -82.5l-6 6
q118 102 160 134t68 45q11 6 32 6t31 -4q17 -8 29 -29t13 -42q1 -23 -12 -57t-55 -112q-6 -11 -14 -24.5t-24 -42.5t-24.5 -43.5t-15.5 -27.5q23 0 50 -0.5t81 -0.5q55 0 82 -0.5t49 -0.5q19 34 38.5 66.5t36.5 58.5q35 53 93.5 103t134.5 92q74 41 151 67t135 29
q39 2 144.5 -13.5t168.5 -30.5q4 -1 6 -3.5t1 -6.5q-6 -19 -49 -46.5t-70 -27.5q-17 0 -46 5.5t-101 23.5q-89 23 -129.5 30t-66.5 7q-53 0 -87 -16t-68 -54q-21 -24 -45.5 -59t-54.5 -86q-15 -26 -31.5 -54.5t-47.5 -84.5q107 0 146 -0.5t56 -1.5q4 0 6 -2t2 -7
q0 -7 -18.5 -26t-46.5 -38q-12 -6 -27 -8.5t-40 -2.5h-71.5t-53.5 1q-2 -4 -19 -35.5t-28 -52.5q-41 -79 -51.5 -106t-10.5 -45q-1 -15 8.5 -27t24.5 -15q21 6 75 47.5t87 74.5l6 -7q-55 -52 -119.5 -104t-105.5 -75q-14 -7 -36 -7t-34 6q-15 9 -26.5 30t-12.5 42
q-1 22 14 59.5t55 109.5q26 47 38.5 70t23.5 42q-27 2 -89.5 7.5t-160.5 14.5q-55 -93 -83 -139.5t-43 -69.5q-33 -50 -92 -95.5t-167 -100.5zM399 411q-77 0 -129.5 -34t-90.5 -109q-23 -45 -22.5 -98t24.5 -101q26 -50 69.5 -78.5t94.5 -28.5q21 0 38.5 4t32.5 12
q29 16 59.5 54t83.5 126q23 39 58 99t75 132q-123 13 -188 17.5t-105 4.5z" />
    <glyph glyph-name="I" unicode="I" horiz-adv-x="823" 
d="M119 -2q-23 -1 -30 -1h-10q-22 0 -37.5 4t-21.5 11q-1 11 29 51.5t43 44.5q6 2 18.5 0.5t44.5 -8.5q38 -8 57.5 -10.5t35.5 -2.5q41 0 64.5 6t40.5 20q27 22 47.5 53.5t46.5 92.5q7 17 28.5 71.5t37.5 92.5q55 131 122.5 207t169.5 116q-6 1 -25.5 1.5t-37.5 0.5
q-26 0 -68 -4.5t-134 -19.5q-67 -10 -92.5 -13t-38.5 -3q-14 0 27 54.5t61 62.5q5 3 26 3t79 -4q32 -3 45.5 -3.5t22.5 -0.5q45 0 118 1.5t204 5.5q39 1 51 1.5t15 0.5q23 0 38.5 -3.5t20.5 -10.5q2 -9 -27 -45t-48 -48q-7 -2 -21 -0.5t-53 9.5q-46 10 -70 13t-42 3
q-23 0 -40.5 -5t-30.5 -16q-18 -14 -32.5 -40t-43.5 -108q-22 -60 -34.5 -93.5t-25.5 -66.5q-53 -131 -133 -212t-194 -117q4 -3 11 -4t20 -1q21 0 61 4t136 17q95 13 131.5 16.5t52.5 2.5q11 0 3 -25.5t-28 -51.5q-16 -22 -34.5 -33.5t-35.5 -11.5l-139 3q-75 1 -165 -0.5
t-216 -6.5z" />
    <glyph glyph-name="J" unicode="J" horiz-adv-x="549" 
d="M244 -96q-61 -73 -145.5 -118t-221.5 -77q-7 -3 -9 2.5t4 7.5q83 17 150.5 73.5t132.5 165.5q21 34 43.5 76.5t129.5 265.5q89 185 163 267t191 124q20 7 58 16t59 11q-21 2 -44 3t-57 1q-48 0 -113.5 -3.5t-182.5 -13.5q-49 -4 -66 -5t-24 -1q-5 0 -5.5 5.5t4.5 12.5
q17 29 44 56.5t43 32.5q7 3 52.5 4.5t246.5 1.5q41 0 79 1.5t90 4.5q24 2 34 2.5t17 0.5q10 0 13 -1.5t3 -5.5q0 -6 -8.5 -22.5t-20.5 -30.5q-23 -27 -35 -37t-19 -9q-32 2 -55.5 -1.5t-47.5 -13.5q-88 -36 -159 -134t-148 -288q-64 -156 -107.5 -238t-88.5 -136z" />
    <glyph glyph-name="K" unicode="K" horiz-adv-x="1124" 
d="M261 -4q-64 -35 -113.5 -51t-95.5 -16q-44 0 -68 8t-26 23q0 17 23.5 45.5t47.5 42.5q6 4 12.5 5.5t15.5 1.5q11 0 24 -5.5t40 -23.5q32 -22 50 -29t35 -7q18 0 28 2.5t22 9.5q14 9 26 23.5t27 40.5q13 22 29.5 55.5t42.5 93.5q9 19 31.5 70t36.5 83q33 74 62.5 126
t57.5 89q36 46 78 76.5t121 62.5q12 5 22.5 9t16.5 5q-13 2 -23 2.5t-23 0.5q-64 0 -139.5 -5.5t-196.5 -19.5q-43 -5 -57 -6.5t-21 -1.5q-5 0 -5.5 6t3.5 13q17 29 46.5 57t45.5 34q7 3 48.5 4.5t233.5 1.5q55 0 98.5 1.5t91.5 5.5q18 1 25.5 1.5t14.5 0.5q10 0 13.5 -1.5
t3.5 -5.5q0 -5 -7 -16t-22 -29q-25 -32 -32.5 -38t-13.5 -6q-45 0 -71.5 -4t-43.5 -13q-33 -18 -65.5 -72.5t-119.5 -243.5q-31 -67 -55.5 -113t-46.5 -81q59 55 121 108.5t130 109.5q61 49 149 117t112 88q89 70 144.5 106t96.5 54q44 19 82.5 27.5t80.5 8.5q22 0 33 -3.5
t11 -11.5q0 -9 -7.5 -22.5t-24.5 -36.5q-20 -27 -36 -40t-30 -13q-10 0 -22.5 1t-41.5 4q-40 5 -62 6.5t-42 1.5q-32 0 -69 -18t-103 -70q-72 -55 -119 -91.5t-70 -54.5q21 -144 41.5 -230t45.5 -133q17 -34 32.5 -48.5t33.5 -16.5q13 2 39.5 23.5t74.5 69.5l7 -6
q-8 -7 -36.5 -35.5t-47.5 -45.5q-26 -24 -48.5 -41.5t-43.5 -28.5q-9 -5 -20 -7.5t-22 -2.5q-10 0 -19.5 4t-19.5 12q-11 9 -21.5 25t-20.5 37q-24 48 -41.5 130t-33.5 213q-62 -51 -124.5 -105.5t-125.5 -110.5q-41 -59 -89.5 -102t-121.5 -84z" />
    <glyph glyph-name="L" unicode="L" horiz-adv-x="1072" 
d="M417 -31q-64 -73 -133 -110.5t-142 -37.5q-82 0 -119.5 43t-12.5 104q10 26 43 59.5t76 59.5q41 26 82 39.5t78 13.5q43 0 87.5 -15.5t103.5 -51.5q1 2 2 3.5t3 6.5l1.5 4.5t1.5 2.5q14 32 21 78t10 151q3 122 13 179.5t30 100.5q49 110 192.5 179t311.5 69
q55 0 120 -11.5t119 -29.5q11 -4 16 -8.5t5 -11.5q0 -22 -50 -57t-71 -35q-9 0 -17 1t-15 4q-17 6 -36.5 17t-58.5 39q-59 42 -90 55t-58 13q-72 0 -117 -44.5t-87 -152.5q-2 -6 -72.5 -198.5t-132.5 -307.5q-7 -13 -14.5 -26t-16.5 -27q10 -6 42 -27t52 -32
q28 -17 52.5 -29t48.5 -20q27 -10 54.5 -14.5t54.5 -4.5q33 0 63.5 11t60.5 35q17 12 34 29t60 66l8 -6q-77 -90 -93 -108t-22 -24q-67 -66 -116.5 -89.5t-112.5 -23.5q-50 0 -104.5 27t-154.5 112zM194 96q-41 0 -62 -14t-34 -51q-19 -52 26.5 -91.5t122.5 -39.5
q48 0 89.5 18.5t76.5 54.5q-89 76 -134 99.5t-85 23.5z" />
    <glyph glyph-name="M" unicode="M" horiz-adv-x="1561" 
d="M436 137q-103 -85 -155 -111.5t-104 -26.5q-59 0 -119 11t-68 21q-10 12 27 61.5t54 54.5q10 0 26.5 -2.5t58.5 -11.5q61 -14 94.5 -19t61.5 -5q35 0 63.5 8.5t49.5 25.5q36 28 86 84t125 152q32 43 97 128t95 125q-1 52 -4.5 92t-9.5 70q-7 27 -14.5 44t-17.5 25
q-5 4 -10 6t-10 2q-20 -4 -94.5 -57.5t-128.5 -98.5l-4 6q174 142 231.5 184.5t83.5 56.5q7 4 24.5 3.5t21.5 -4.5q15 -13 26 -41t19 -74q20 -116 14.5 -309t-33.5 -402q138 146 345 348t363 341q3 2 5 3t4 1q3 -1 3.5 -4.5t-2.5 -7.5q-73 -116 -151 -274t-123 -281
q-18 -50 -27 -94.5t-5 -66.5q2 -13 10.5 -23.5t22.5 -14.5q20 7 65.5 41.5t101.5 84.5l6 -6q-82 -72 -145 -122t-109 -80q-7 -4 -25.5 -3t-21.5 4q-19 14 -33.5 37t-18.5 44q-5 25 3.5 66t33.5 110q26 71 58 143t60 120q4 7 9.5 16.5t16.5 29.5q10 18 15.5 27.5t9.5 16.5
q-166 -161 -278.5 -273t-180.5 -185q-7 -7 -10.5 -14t-6.5 -18q-1 -9 -4.5 -34t-8.5 -65q-13 -5 -35 -9t-44 -4q-15 0 -23.5 3t-12.5 11q-5 8 -5 28t6 70q19 161 28.5 290t9.5 226q-211 -279 -282.5 -364.5t-109.5 -115.5z" />
    <glyph glyph-name="N" unicode="N" horiz-adv-x="1172" 
d="M379 95q-113 -140 -183.5 -182t-174.5 -42q-60 0 -145 18t-94 29q-8 11 36 61.5t62 55.5q8 1 26 -2.5t68 -17.5q82 -23 124 -31t74 -8q39 0 76 24.5t120 118.5q28 32 88 115.5t299 433.5q-20 85 -48 125t-72 40q-12 0 -26.5 -3.5t-30.5 -11.5q-32 -14 -89.5 -54.5
t-106.5 -83.5l-6 6q53 47 124.5 100.5t135.5 92.5q29 18 55 26.5t52 8.5q53 0 85.5 -56t56.5 -183q25 -135 45 -267t39 -287q128 212 214 342.5t137 192.5q85 103 156 148t159 45q56 0 121 -13t80 -23q1 -1 1.5 -2t0.5 -3q0 -19 -39 -64.5t-57 -45.5q-12 0 -28.5 3t-56.5 14
q-61 16 -96 21.5t-67 5.5q-42 0 -79.5 -23t-78.5 -74q-68 -85 -162.5 -225.5t-202.5 -316.5q-6 -10 -33 -54.5t-42 -68.5q-7 -11 -13 -14.5t-11 0.5q-3 1 -6 13.5t-13 90.5q-23 174 -45 308t-50 275q-230 -346 -292 -436t-87 -122z" />
    <glyph glyph-name="O" unicode="O" horiz-adv-x="1082" 
d="M792 103q-103 -61 -181 -87t-150 -26q-101 0 -172 43t-104 123q-30 75 -22.5 165t50.5 167q32 62 94.5 121t163.5 120q84 51 165 78t153 28q103 1 175 -42.5t106 -124.5q30 -74 22 -164t-52 -172q-29 -56 -97 -118t-151 -111zM317 226q34 -77 104 -119t167 -42
q62 0 110.5 11t85.5 34q35 20 69 62.5t65 102.5q42 80 49 169t-23 162q-33 79 -104 121t-173 41q-50 1 -101.5 -11.5t-87.5 -34.5q-42 -27 -75.5 -67.5t-66.5 -105.5q-41 -76 -46 -163t27 -160z" />
    <glyph glyph-name="P" unicode="P" horiz-adv-x="1004" 
d="M175 -2q-40 -1 -54 -1.5t-21 -0.5q-30 0 -47.5 6t-21.5 18q-3 18 20 46.5t52 41.5q8 3 24 1t59 -15q43 -12 64 -16t37 -4q22 0 40.5 7t31.5 20q22 22 39.5 53.5t47.5 109.5q28 72 42 106t29 66q50 111 116.5 188t146.5 114l6 -2q-16 -7 -34 -39.5t-49 -114.5
q-39 -104 -47.5 -125t-16.5 -40q36 -38 79 -60t85 -22q15 0 32 4.5t33 11.5q19 9 36 28.5t29 44.5q26 57 14.5 124.5t-57.5 118.5q-40 44 -100 67.5t-136 23.5q-91 0 -152.5 -13.5t-104.5 -42.5q-32 -20 -55.5 -58.5t-56.5 -130.5q-15 -44 -38 -62.5t-61 -18.5
q-41 0 -45.5 20.5t28.5 68.5q32 45 82.5 89t137.5 101q98 66 179.5 95.5t160.5 28.5q82 1 147 -22.5t108 -68.5q51 -54 63.5 -126t-17.5 -131q-20 -41 -62.5 -79t-96.5 -64q-35 -17 -79 -27t-83 -10q-30 0 -58.5 6.5t-54.5 18.5q-52 -94 -109.5 -153.5t-133.5 -95.5
q7 -2 27.5 -3t53.5 -1q51 0 111 4t114 11q26 3 54 7.5t73 12.5q26 5 35 6.5t13 1.5q5 0 7 -2t2 -6q0 -11 -29.5 -47t-54.5 -56q-8 -4 -40.5 -5.5t-103.5 -1.5h-110q-67 0 -141.5 -1.5t-188.5 -4.5z" />
    <glyph glyph-name="Q" unicode="Q" horiz-adv-x="1082" 
d="M1429 -252q-84 -75 -166.5 -115t-154.5 -40q-71 0 -162 29t-273 119q-142 71 -203 92t-103 21q-37 0 -74 -10t-89 -36q-23 -11 -57.5 -33.5t-50.5 -32.5q-13 -8 -24 -4t-15 18q-4 12 1.5 23.5t18.5 15.5q18 5 80 21.5t104 31.5q40 14 83 32t94 43q190 98 305.5 191.5
t166.5 193.5q39 75 41 160t-34 154q-37 72 -106.5 110.5t-164.5 37.5q-49 0 -101 -13.5t-88 -35.5q-51 -32 -92 -77t-72 -106q-37 -71 -46.5 -148t11.5 -144q24 -79 82 -123t141 -44q36 0 81.5 18.5t84.5 47.5q5 4 7 1.5t-2 -6.5q-81 -64 -154.5 -97t-135.5 -33
q-87 0 -146 43.5t-81 121.5q-18 66 -6.5 144t50.5 151q35 68 106 135t165 123q80 49 166.5 77.5t157.5 28.5q95 0 167.5 -41.5t111.5 -116.5q38 -73 34.5 -159t-48.5 -165q-50 -95 -172.5 -187.5t-423.5 -249.5q-22 -11 -47 -24t-48 -24q69 23 108 31.5t71 8.5
q55 0 123.5 -20t211.5 -85q147 -67 219 -88t131 -21q57 0 107.5 16t98.5 50q15 11 30.5 24t33.5 30q11 10 30.5 29.5t29.5 28.5l7 -3q-26 -30 -61.5 -65.5t-58.5 -54.5z" />
    <glyph glyph-name="R" unicode="R" horiz-adv-x="1126" 
d="M345 15q-63 -32 -128 -50t-117 -18q-41 0 -67 6.5t-30 18.5q-4 17 19 48.5t51 44.5q5 3 10.5 4t12.5 1q11 0 27.5 -5t56.5 -21q50 -21 73.5 -27.5t40.5 -6.5q13 0 23.5 2.5t26.5 10.5q17 9 30 23t26 37t28.5 59.5t38.5 97.5q10 25 30 79t31 82q55 145 129 233.5
t200 152.5q-24 6 -51.5 9t-59.5 3q-84 0 -156 -17t-115 -47q-29 -19 -53 -62t-62 -157q-16 -45 -40 -64.5t-64 -19.5q-43 0 -49 26t25 73q35 48 95.5 100.5t143.5 107.5q97 65 190.5 98.5t181.5 34.5q82 0 146.5 -21t105.5 -62q50 -49 58.5 -117t-26.5 -133
q-31 -57 -105 -95t-186 -55q5 -78 26 -151.5t53 -124.5q14 -23 30.5 -38t35.5 -23q22 6 48 23t70 55l5 -6q-68 -59 -112.5 -92.5t-80.5 -52.5q-8 -4 -23 -5t-20 2q-19 13 -36.5 34.5t-34.5 52.5q-34 61 -54 142.5t-22 165.5q0 12 5.5 15t23.5 5q23 1 43 2.5t38 3.5
q75 6 120.5 33t69.5 78q21 44 19 91t-27 87q-23 37 -61.5 62t-91.5 38q-36 -21 -66.5 -63t-60.5 -111q-9 -21 -27.5 -72.5t-47.5 -132.5q-53 -149 -125 -240.5t-188 -151.5z" />
    <glyph glyph-name="S" unicode="S" horiz-adv-x="814" 
d="M625 95q-70 -54 -152 -85t-155 -31q-90 0 -161.5 34t-111.5 96q8 8 20.5 21t43.5 46q61 64 92.5 97.5t55.5 59.5l7 -5q-68 -75 -83.5 -97t-16.5 -36q11 -23 46.5 -51t81.5 -48q39 -18 79.5 -27t79.5 -9q57 0 99.5 10t70.5 30q19 13 32 28.5t21 35.5q27 61 -19.5 108
t-189.5 97q-139 48 -181 99t-11 127q12 32 46 66t84 66q79 52 158 79.5t150 27.5q78 0 147 -27.5t95 -68.5q-14 -17 -30 -36.5t-47 -57.5q-49 -58 -72 -87t-41 -55l-7 4q50 66 66 88.5t32 47.5q-35 51 -112.5 83.5t-170.5 32.5q-53 0 -94 -9t-69 -27q-22 -13 -36 -28
t-20 -31q-21 -51 18 -90.5t175 -90.5q161 -59 202.5 -115.5t1.5 -140.5q-13 -28 -45.5 -62.5t-78.5 -68.5z" />
    <glyph glyph-name="T" unicode="T" horiz-adv-x="898" 
d="M366 14q-58 -31 -129 -48.5t-143 -17.5q-42 0 -75 8.5t-37 19.5q-6 18 18.5 55t51.5 48q7 3 12.5 4t10.5 1q11 0 29 -6.5t64 -28.5q58 -28 85.5 -37t45.5 -9t32 3.5t31 13.5q21 11 35.5 26.5t26.5 36.5q20 36 57 142.5t56 157.5q24 64 52.5 114.5t61.5 88.5
q34 40 75.5 70t113.5 63q-28 7 -87 22.5t-88 23.5q-63 15 -105 22t-72 7q-29 0 -48.5 -4t-34.5 -13q-34 -18 -63 -70.5t-71 -175.5q-17 -49 -42 -71t-62 -22q-46 0 -57.5 28t19.5 74q49 75 120 138.5t152 104.5q57 29 113 43.5t110 14.5q50 0 108 -4t172 -18
q108 -12 160 -16t95 -4q25 0 47.5 4t47.5 14q5 2 6.5 2.5t2.5 0.5q2 0 2.5 -0.5t0.5 -1.5q0 -16 -23.5 -53t-49.5 -56q-23 -17 -50.5 -24.5t-63.5 -7.5q-41 0 -98 10t-138 31q-21 -14 -42.5 -49.5t-50.5 -106.5q-13 -31 -37 -93t-30 -78q-59 -151 -127.5 -233t-189.5 -144z
" />
    <glyph glyph-name="U" unicode="U" horiz-adv-x="999" 
d="M653 196q-79 -90 -183 -164t-163 -74q-70 0 -122.5 53.5t-56.5 129.5q-3 53 26 117t139 210q16 22 45 59t40 52q36 48 50 75t13 46q-1 13 -10.5 28.5t-20.5 23.5q-20 -6 -92.5 -55.5t-102.5 -76.5l-5 6q36 32 134.5 102.5t136.5 87.5q5 2 12 3t14 1q10 0 18.5 -1.5
t11.5 -4.5q17 -13 30.5 -35.5t17.5 -45.5q5 -35 -28.5 -95.5t-121.5 -172.5q-67 -86 -81.5 -105t-25.5 -36q-37 -52 -52.5 -91t-13.5 -70q5 -55 41 -94.5t84 -39.5q47 0 143.5 70t142.5 130q13 21 30 47t52 77q27 41 40 60t23 35q9 13 29 43.5t52 77.5q38 57 49 82t10 46
q-2 15 -10 30t-19 23q-20 -6 -90.5 -54.5t-102.5 -75.5l-5 6q39 34 133 102.5t131 85.5q4 2 10.5 3.5t14.5 1.5q11 0 19 -2t10 -4q18 -13 32 -35.5t17 -45.5q5 -38 -22.5 -95.5t-117.5 -189.5q-14 -20 -55.5 -79.5t-62.5 -90.5q-51 -76 -71.5 -117t-20.5 -65q1 -20 12 -34.5
t26 -17.5q22 5 73.5 44.5t99.5 84.5l5 -7q-132 -120 -178.5 -155t-74.5 -48q-4 -2 -9 -2.5t-11 -0.5q-9 0 -18.5 2t-13.5 4q-27 18 -42.5 39t-18.5 43q-2 24 11.5 60.5t43.5 88.5z" />
    <glyph glyph-name="V" unicode="V" horiz-adv-x="824" 
d="M624 242q-114 -126 -188.5 -210.5t-131.5 -152.5q-4 -4 -10 -6t-14 -2q-10 0 -15.5 3.5t-5.5 10.5q0 3 1 7t1 5q56 253 91 425.5t46 248.5q9 65 7.5 103t-12.5 55q-10 15 -24.5 21.5t-40.5 6.5q-22 0 -49.5 -4.5t-81.5 -18.5q-40 -10 -56.5 -12.5t-26.5 -2.5q-6 0 -9 2.5
t-3 6.5q0 14 28.5 50t40.5 43q5 3 26 4.5t64 1.5q14 0 45.5 -0.5t46.5 -0.5h104q55 0 122.5 1.5t183.5 5.5q50 1 67 1.5t26 0.5q12 0 19 -3t7 -8q0 -7 -19 -29t-43 -43q-12 -12 -23.5 -17t-26.5 -5q-12 0 -31.5 1.5t-71.5 8.5q-97 11 -152.5 15t-101.5 4q-12 0 -25 -0.5
t-27 -1.5q54 -3 88 -15.5t53 -37.5q20 -28 25 -69.5t-6 -99.5q-20 -109 -50.5 -254t-59.5 -265q55 61 105.5 117.5t123.5 137.5q38 42 55 61.5t32 35.5q153 170 251 287.5t233 289.5q5 7 15 11t22 4q23 0 37.5 -10t14.5 -26q0 -10 -4.5 -20t-14.5 -20
q-237 -210 -353.5 -323.5t-303.5 -318.5z" />
    <glyph glyph-name="W" unicode="W" horiz-adv-x="1266" 
d="M408 -113q-3 -3 -7 -4t-10 -1q-16 0 -28 7t-10 16q59 303 85.5 458t32.5 218q5 63 3 101.5t-12 53.5q-7 12 -17 16.5t-31 4.5q-23 0 -59.5 -5t-110.5 -20q-43 -8 -58.5 -10.5t-22.5 -2.5q-4 0 -6.5 3t-2.5 7q0 5 4 13.5t10 17.5q12 18 32 37t31 24q12 4 60.5 6t164.5 2
h433q55 0 124.5 2.5t190.5 9.5q52 2 69.5 3t26.5 1q11 0 17.5 -2t8.5 -7q0 -10 -33.5 -57.5t-50.5 -57.5q-5 -4 -11.5 -5.5t-14.5 -1.5q-12 0 -60 5t-133 14q-13 -137 -33 -331t-39 -370q15 20 32 43t47 66q15 21 22 31t13 18q126 172 216 303t227 340q15 23 32 48.5
t62 96.5q6 10 17 16t23 6q22 0 33.5 -8t13.5 -25q1 -11 -3 -22t-13 -22q-9 -10 -19 -22.5t-33 -37.5q-23 -26 -35 -39.5t-22 -26.5q-183 -220 -284.5 -347.5t-204.5 -267.5q-17 -23 -37 -51t-63 -87q-45 -63 -68.5 -95t-43.5 -60q-3 -3 -9 -5t-14 -2q-13 0 -24 7t-10 15
q4 32 18.5 142.5t23.5 178.5q14 107 22.5 186t13.5 135q-46 -64 -106 -147.5t-177 -245.5q-48 -67 -69.5 -97t-37.5 -52q-2 -3 -16 -22t-49 -67q-13 -17 -16.5 -22t-4.5 -6zM578 719q16 -19 22 -55t2 -84q-5 -64 -28.5 -197.5t-66.5 -341.5q53 75 129.5 182t228.5 318
q68 93 95 131t45 63q-129 15 -228.5 22t-180.5 8q-44 0 -80 -1t-78 -4q62 -3 93 -12t47 -29z" />
    <glyph glyph-name="X" unicode="X" horiz-adv-x="830" 
d="M50 -17q-8 -6 -16.5 -9.5t-16.5 -3.5q-22 0 -34 12t-12 33q0 24 3.5 33t10.5 12q116 53 193 99t157 106l126 95q10 56 18 110.5t13 94.5q6 49 3 88t-15 56q-6 9 -17.5 17t-24.5 13q-26 -8 -90.5 -48.5t-97.5 -68.5l-6 7q39 31 136.5 97t140.5 90q4 3 9.5 4t12.5 1
q5 0 9.5 -1t8.5 -3q14 -9 25 -21t18 -25q14 -27 17 -67t-4 -95q-3 -17 -7.5 -45t-21.5 -143q17 13 40.5 32l70.5 57q20 17 28 23t13 10q71 58 151.5 139t199.5 217q7 4 16 6.5t19 2.5q24 0 38.5 -14t14.5 -38q0 -15 -4.5 -28.5t-13.5 -26.5q-96 -53 -213.5 -128.5
t-198.5 -137.5q-14 -10 -43.5 -32.5t-119.5 -93.5q-3 -23 -7 -49.5t-11 -74.5q-3 -22 -4.5 -31.5t-2.5 -16.5q-7 -62 -5.5 -96.5t11.5 -49.5q10 -14 24.5 -24t28.5 -12q27 12 81.5 50.5t90.5 70.5l7 -7q-64 -53 -142 -109.5t-113 -74.5q-6 -3 -14.5 -4.5t-19.5 -1.5
q-10 0 -16.5 1.5t-12.5 4.5q-11 8 -22.5 21t-19.5 27q-11 21 -10.5 70t16.5 158q1 8 2.5 18.5t5.5 32.5q2 15 3.5 22t2.5 14l-118 -92q-65 -51 -124 -104.5t-167 -168.5z" />
    <glyph glyph-name="Y" unicode="Y" horiz-adv-x="743" 
d="M566 4q-3 -1 -73 -0.5t-74 0.5q-61 0 -130.5 -1t-172.5 -4q-32 -1 -43 -1h-16q-16 0 -27 3t-16 9q-1 10 28 48t43 42q2 1 4.5 1.5t7.5 0.5t15.5 -1t36.5 -4q35 -4 50.5 -5t25.5 -1q32 0 56.5 7t45.5 21q26 19 48.5 51.5t68.5 130.5q6 14 14 31.5t23 54.5q11 24 16 35.5
t9 21.5q-26 96 -52 161t-55 103q-12 15 -26 25t-28 12q-25 -8 -95.5 -52t-104.5 -73l-6 7q45 35 147.5 105.5t143.5 92.5q4 3 9.5 4t12.5 1q5 0 9.5 -1t8.5 -3q13 -7 25 -19.5t20 -27.5q35 -65 62 -141.5t49 -175.5q16 13 23.5 19t15.5 13q70 60 130.5 117.5t106.5 108.5
q46 49 87.5 97t74.5 92q7 4 18 6.5t23 2.5q24 0 38.5 -14.5t14.5 -37.5q0 -20 -10.5 -36t-32.5 -31q-8 -6 -20.5 -14t-44.5 -29q-42 -27 -65.5 -42.5t-43.5 -29.5q-86 -60 -151 -107.5t-118 -89.5q-5 -4 -17.5 -14.5t-32.5 -27.5q-25 -69 -40.5 -107.5t-32.5 -76.5
q-41 -83 -110 -123.5t-180 -46.5q15 -3 35 -4.5t38 -1.5q21 0 57.5 4t122.5 15q78 11 108 14.5t45 2.5h1l-1 -1q-2 -1 -3 -2t-1 -2q0 -24 -33 -67.5t-62 -44.5z" />
    <glyph glyph-name="Z" unicode="Z" horiz-adv-x="959" 
d="M729 91q-84 -68 -138 -91t-112 -23q-40 0 -84.5 5t-127.5 21q-76 15 -115 20t-74 5q-16 0 -32 -1.5t-33 -4.5q-2 0 -3.5 1.5t-1.5 3.5q0 3 2 8t6 11q6 11 18 26.5t21 23.5q6 5 10 6.5t10 2.5q58 5 110.5 31.5t106.5 78.5q20 20 43 46t118 143q102 126 212 197t251 103
q-10 -1 -18.5 -1.5t-17.5 -0.5q-32 0 -75 5t-135 22q-92 16 -134 21t-73 5q-28 0 -45.5 -3.5t-29.5 -10.5q-20 -13 -33.5 -44.5t-43.5 -147.5q-10 -44 -31 -65t-55 -21q-23 0 -35.5 11t-12.5 31q0 11 5 23.5t14 27.5q37 57 85 105t105 86q65 45 120 67.5t99 22.5
q28 0 63.5 -4.5t111.5 -19.5q80 -15 118 -20t69 -5q21 0 40 1.5t40 5.5q6 1 8 1h3q2 0 3.5 -1.5t1.5 -4.5t-6 -11t-16 -19q-6 -8 -21.5 -22t-25.5 -21q-9 -6 -18 -9t-20 -4q-48 -1 -91.5 -26.5t-93.5 -83.5q-23 -27 -68.5 -86.5t-69.5 -88.5q-111 -140 -231.5 -210.5
t-291.5 -103.5q30 4 51.5 6t46.5 2q29 0 66.5 -3.5t120.5 -14.5q92 -13 136.5 -16.5t79.5 -3.5q57 1 78 5.5t36 15.5q22 16 34.5 49.5t38.5 157.5q10 51 29.5 73.5t53.5 22.5q26 0 40 -13.5t14 -36.5q0 -12 -5.5 -27.5t-15.5 -31.5q-37 -57 -81 -104t-104 -95z" />
    <glyph glyph-name="bracketleft" unicode="[" horiz-adv-x="372" 
d="M-118 -266l240 512l238 521q4 7 7.5 9.5t8.5 2.5h24.5h40.5q30 -1 45.5 -1h29.5h27h45q29 1 44 1h27q7 0 5.5 -6.5t-8.5 -6.5q-8 0 -18.5 0.5t-34.5 0.5q-25 1 -36.5 1.5t-20.5 0.5h-72q-3 0 -5 -1.5t-5 -5.5l-239 -516l-236 -507q-2 -4 -0.5 -5.5t5.5 -1.5h71
q9 0 22 0.5t42 1.5q22 1 30.5 1h13.5q7 0 6 -6.5t-7 -6.5h-27h-46q-31 1 -46 1h-27h-29t-44 -1h-40h-25q-5 0 -7 3t1 9z" />
    <glyph glyph-name="backslash" unicode="\" horiz-adv-x="342" 
d="M199 -276q-6 121 -13 225.5t-23 278.5q-29 322 -38 403t-18 148q10 5 19.5 5.5t18.5 -3.5q3 -120 11 -261.5t20 -289.5q13 -138 26 -252t32 -252q-10 -5 -18 -5.5t-17 3.5z" />
    <glyph glyph-name="bracketright" unicode="]" horiz-adv-x="372" 
d="M485 767l-240 -512l-238 -521q-4 -7 -7.5 -9.5t-8.5 -2.5h-24.5h-40.5q-30 1 -45.5 1h-29.5h-27h-45q-29 -1 -44 -1h-27q-7 0 -5.5 6.5t8.5 6.5q8 0 18.5 -0.5t34.5 -0.5q25 -1 36.5 -1.5t20.5 -0.5h72q3 0 5 1.5t5 5.5l239 516l236 507q2 4 0.5 5.5t-5.5 1.5h-71
q-9 0 -22 -0.5t-42 -1.5q-22 -1 -30.5 -1h-13.5q-7 0 -6 6.5t7 6.5h27h46q31 -1 46 -1h27h29t44 1h40h25q5 0 7 -3t-1 -9z" />
    <glyph glyph-name="asciicircum" unicode="^" horiz-adv-x="378" 
d="M350 507l36 176q0 2 -2 2t-3 -2l-129 -182q-27 -42 -47 -58t-42 -16q-17 0 -28 9t-11 24q0 12 8.5 23t61.5 55l184 152q4 3 9.5 2.5t6.5 -5.5l42 -167q12 -43 -2.5 -67.5t-49.5 -24.5q-27 0 -35 19t1 60z" />
    <glyph glyph-name="underscore" unicode="_" horiz-adv-x="500" 
d="M-165 -73h564q6 0 7 -12t-6 -12h-566q-8 0 -7.5 12t8.5 12z" />
    <glyph glyph-name="grave" unicode="`" horiz-adv-x="809" 
d="M590 536l-2 2t-2 1q-12 12 -29.5 26t-53.5 41q-27 19 -36.5 26.5t-13.5 12.5q-9 10 -12 22.5t0 25.5q4 12 15.5 20.5t24.5 8.5q11 0 24 -10t20 -23l5 -10t10 -22q20 -44 32 -68t23 -42q2 -3 3 -5t0 -3q0 -2 -1.5 -3t-3.5 -1q-1 0 -1.5 0.5t-1.5 0.5z" />
    <glyph glyph-name="a" unicode="a" horiz-adv-x="604" 
d="M102 2q-6 -3 -14.5 -5t-15.5 -2q-6 0 -12.5 1t-9.5 3q-39 24 -38.5 95t37.5 154q27 61 85 117.5t131 95.5q40 24 76.5 36.5t63.5 12.5q45 0 76.5 -19t52.5 -58q6 3 14 8.5t28 19.5q26 17 38 25t21 13q6 3 8.5 2t1.5 -6q-42 -53 -91 -126t-81 -132q-27 -49 -40 -85.5
t-11 -57.5q2 -14 11.5 -26t24.5 -16q17 6 44 29t67 66l6 -7q-66 -71 -94.5 -95t-58.5 -40q-3 -2 -13 -3t-25 -1q-12 0 -23.5 1t-15.5 3q-23 17 -34.5 36t-13.5 42q-2 20 6 45t25 55q4 7 19 29t40 59q-53 -58 -113.5 -118.5t-95.5 -91.5q-24 -21 -41.5 -34.5t-34.5 -24.5z
M168 292q-22 -67 -25.5 -126.5t14.5 -77.5q7 -4 19.5 1t27.5 17q43 32 111.5 102.5t132.5 147.5q-27 55 -61 84t-69 29q-15 0 -25 -3t-20 -10q-31 -21 -59.5 -65t-45.5 -99z" />
    <glyph glyph-name="b" unicode="b" horiz-adv-x="609" 
d="M341 57q-56 -33 -92.5 -47.5t-63.5 -14.5q-24 0 -38.5 11t-20.5 33q-4 17 -2.5 37.5t7.5 42.5q-5 -6 -13 -17t-27 -35q-28 -35 -36.5 -46t-9.5 -13q-9 -2 -18.5 -3t-20.5 -1q-25 0 -37 12t-5 33q23 41 52 90.5t85 148.5q86 151 118 206.5t47 79.5q42 70 113 126.5
t180 105.5q87 39 155 55t141 16q32 0 64.5 -1.5t50.5 -3.5q6 -1 9 -4t3 -8q0 -24 -36.5 -58.5t-56.5 -34.5q-16 0 -39.5 4t-76.5 18q-59 15 -86.5 20t-47.5 5q-26 0 -43 -3.5t-32 -10.5q-30 -15 -71.5 -67t-90.5 -136q-65 -115 -118.5 -209.5t-103.5 -183.5q43 50 84 94.5
t75 78.5q54 56 98 92t72 46q28 2 50 -15t32 -47q15 -42 6 -95t-40 -104q-29 -48 -87 -100.5t-129 -96.5zM433 434q-12 -1 -35 -18t-53 -45q-51 -48 -103.5 -107.5t-86.5 -107.5q30 -54 61.5 -81t63.5 -27q16 0 30 3.5t27 10.5q26 18 46.5 47t45.5 80q25 53 36 115t2 94
q-5 18 -12 26t-22 10z" />
    <glyph glyph-name="c" unicode="c" horiz-adv-x="477" 
d="M291 49q-52 -33 -84.5 -44.5t-67.5 -11.5q-45 0 -77 22.5t-42 62.5q-12 45 -4.5 90.5t35.5 96.5q24 47 78.5 98t122.5 93q52 32 90.5 45.5t71.5 13.5q42 0 67 -22t24 -58q0 -36 -30.5 -63.5t-70.5 -28.5q-15 59 -40 89t-58 30q-11 0 -21.5 -2.5t-27.5 -10.5
q-19 -13 -37 -35t-35 -54q-24 -43 -35 -99.5t-5 -104.5q7 -40 30 -61t61 -23q22 -2 45.5 4.5t47.5 20.5q26 17 53.5 43.5t45.5 52.5l9 -5q-28 -38 -69.5 -77t-76.5 -62z" />
    <glyph glyph-name="d" unicode="d" horiz-adv-x="609" 
d="M102 2q-6 -3 -14 -5t-17 -2q-6 0 -12.5 1t-8.5 3q-39 24 -38.5 95t38.5 154q28 60 84.5 116t129.5 97q41 23 78 36t63 13q32 0 58 -11t46 -33q29 45 53.5 82t42.5 62q40 56 106 104t163 92q86 39 155 55t147 16q32 0 64 -1.5t50 -3.5q6 -1 9 -4t3 -8q0 -23 -37.5 -58
t-57.5 -35q-16 0 -39.5 4.5t-76.5 18.5q-58 15 -85.5 20t-48.5 5q-25 0 -43 -3.5t-34 -11.5q-34 -17 -83.5 -75.5t-111.5 -156.5q-85 -135 -142.5 -232.5t-91.5 -162.5q-12 -25 -18.5 -45.5t-5.5 -35.5q1 -17 9 -27.5t22 -13.5q17 6 45.5 30t66.5 65l6 -7
q-72 -76 -98.5 -97.5t-54.5 -36.5q-3 -2 -13 -3t-26 -1q-13 0 -23.5 1.5t-14.5 3.5q-21 13 -33.5 33.5t-14.5 44.5q-1 22 9 49.5t32 63.5q8 13 18 28.5t40 59.5q-42 -46 -92.5 -98.5t-95.5 -96.5q-27 -27 -56.5 -51.5t-50.5 -36.5zM168 292q-22 -67 -26 -126.5t14 -77.5
q6 -3 18.5 1t27.5 15q41 31 108.5 101.5t134.5 151.5q-27 55 -59.5 83.5t-67.5 28.5q-14 0 -25 -3.5t-21 -10.5q-30 -21 -58.5 -64.5t-45.5 -98.5z" />
    <glyph glyph-name="e" unicode="e" horiz-adv-x="485" 
d="M291 49q-52 -33 -84.5 -44.5t-67.5 -11.5q-43 0 -76 23.5t-44 62.5q-12 44 -4 89t36 97q24 47 77.5 99t113.5 89q54 34 90.5 47.5t69.5 13.5q41 0 64.5 -19t23.5 -51q0 -45 -53.5 -94.5t-184.5 -127.5q-19 -12 -43.5 -26l-66.5 -38q8 -42 35 -64.5t68 -22.5q21 0 42 6.5
t44 20.5t52.5 42t49.5 56l8 -5q-28 -38 -71 -78.5t-79 -63.5zM252 449q-17 -11 -35 -34.5t-36 -58.5q-22 -42 -33 -94t-7 -95q7 4 46.5 27.5t58.5 35.5q51 34 78 60.5t39 55.5q3 6 5 13.5t2 15.5q0 34 -23 58.5t-56 24.5q-9 0 -19.5 -2.5t-19.5 -6.5z" />
    <glyph glyph-name="f" unicode="f" horiz-adv-x="385" 
d="M496 501q-17 -25 -49 -55.5t-45 -31.5h-3h-5q-30 1 -55.5 1.5t-50.5 0.5q-16 -31 -53 -104t-58 -112q-34 -67 -61.5 -118.5t-53.5 -95.5q-69 -121 -170.5 -188t-208.5 -67q-52 0 -82 23.5t-30 62.5t31 65t82 31l4 -2q-3 -20 -2.5 -43t4.5 -42q8 -32 26.5 -51.5
t44.5 -19.5q40 0 73.5 39.5t107.5 176.5q10 19 26.5 51t57.5 111q60 118 91 177.5t55 105.5h-87q-6 1 -6.5 5.5t3.5 6.5l144 93q11 19 18.5 32t12.5 21q51 78 123 135.5t177 103.5q83 37 143 51.5t126 14.5q37 0 72 -3t55 -8q5 -1 7 -3.5t2 -6.5q0 -23 -37.5 -57t-58.5 -34
q-15 0 -37 4.5t-71 20.5q-56 17 -83 22.5t-47 5.5q-19 0 -35.5 -3.5t-32.5 -10.5q-36 -18 -81 -70.5t-91 -132.5q-22 -41 -33 -61t-20 -37q23 0 50 1t71 3q18 1 24.5 1.5t9.5 0.5q5 0 7 -3t-1 -7z" />
    <glyph glyph-name="g" unicode="g" horiz-adv-x="591" 
d="M301 -271q-32 -54 -123.5 -86.5t-192.5 -32.5q-104 1 -165 20t-77 56q-8 19 -9 35.5t4 34.5q11 31 48 61t101 61q97 49 140.5 77t86.5 61q-11 -6 -21.5 -9t-18.5 -3q-5 0 -10.5 1.5t-10.5 4.5q-35 22 -36 92t34 145q28 62 85.5 119t130.5 96q40 23 77.5 35.5t63.5 12.5
q43 0 73 -19t53 -61q5 3 13 8t26 17q29 19 43 28.5t24 15.5q4 2 6.5 0.5t2.5 -5.5q-30 -36 -53 -68t-41 -61q-64 -102 -108.5 -194.5t-70.5 -180.5q-8 -26 -15 -54t-18 -77q-13 -61 -21.5 -86t-20.5 -44zM169 292q-21 -67 -20 -123.5t24 -81.5q42 22 121.5 99t153.5 169
q-28 56 -61 85t-68 29q-13 0 -23 -3t-21 -10q-30 -20 -59 -64t-47 -100zM-115 -313q14 -34 44 -50.5t80 -16.5q48 0 90 28.5t76 84.5q12 19 22 46t28 92q18 68 30.5 107t27.5 76q21 56 48 110.5t62 109.5q-57 -61 -127 -128t-110 -101q-77 -63 -128 -109t-84 -83
q-24 -27 -39.5 -51t-22.5 -46q-6 -18 -5 -35.5t8 -33.5z" />
    <glyph glyph-name="h" unicode="h" horiz-adv-x="625" 
d="M76 12q-13 -7 -26 -10.5t-28 -3.5q-33 0 -49 13.5t-7 37.5q26 45 58 101t94 166q77 136 105.5 185.5t42.5 72.5q42 69 113 125t182 107q89 39 156.5 55t140.5 16q32 0 64.5 -1.5t50.5 -3.5q6 -1 9 -4t3 -8q0 -24 -36.5 -58.5t-57.5 -34.5q-16 0 -39.5 4t-76.5 18
q-58 15 -85.5 20t-48.5 5q-25 0 -42 -3.5t-32 -10.5q-32 -16 -75.5 -68.5t-90.5 -134.5q-19 -33 -43 -76t-77 -138q-43 -77 -65 -117t-42 -75q107 148 205.5 237t161.5 91q63 -22 58 -88.5t-79 -178.5q-50 -76 -65.5 -109t-14.5 -53q1 -15 8.5 -24.5t20.5 -13.5
q20 7 52.5 34.5t67.5 66.5l6 -7q-70 -74 -101.5 -100t-59.5 -41q-6 -3 -17.5 -4.5t-24.5 -1.5q-14 0 -23 1.5t-14 4.5q-21 12 -34 33.5t-13 44.5q-1 22 19.5 65t70.5 119q56 85 67.5 128t-19.5 63q-43 -15 -124 -101.5t-161 -204.5q-5 -8 -26 -43t-59 -97z" />
    <glyph glyph-name="i" unicode="i" horiz-adv-x="329" 
d="M564 774q-27 -29 -87 -74t-171 -121l-5 5q62 57 111.5 122t90.5 144q7 7 17 10.5t23 3.5q19 0 31.5 -11.5t12.5 -29.5q1 -12 -5 -25t-18 -24zM131 3q-5 -3 -14.5 -4.5t-24.5 -1.5q-14 0 -23 1.5t-15 4.5q-21 11 -34.5 32t-13.5 44q0 21 14.5 53t71.5 120q63 95 74.5 117
t15.5 39q3 15 -4.5 26t-22.5 14q-20 -8 -50.5 -33t-60.5 -58l-7 5q29 34 74.5 74t79.5 61q15 10 27.5 13.5t28.5 2.5q25 -2 47.5 -32t23.5 -62q0 -17 -13.5 -44.5t-92.5 -137.5q-54 -77 -67 -105t-12 -46q1 -13 10 -22.5t24 -14.5q20 7 52 34.5t67 67.5l6 -7
q-63 -68 -97 -96.5t-64 -44.5z" />
    <glyph glyph-name="j" unicode="j" horiz-adv-x="303" 
d="M564 774q-27 -29 -87 -74t-171 -121l-5 5q62 57 111.5 122t90.5 144q8 7 18 10.5t22 3.5q19 0 31.5 -11.5t12.5 -29.5q1 -12 -5 -25t-18 -24zM-192 -201q-61 -26 -134 -41t-137 -15q-37 0 -66 2t-44 6q-5 2 -7 4.5t-2 6.5q0 23 33.5 58.5t54.5 38.5q15 0 35 -5t65 -23
q57 -24 87 -31t55 -7q19 0 33 3t27 10q35 18 80.5 80.5t128.5 208.5q128 226 145.5 260t21.5 52q1 17 -5.5 27.5t-19.5 14.5q-22 -9 -53 -34t-61 -59l-7 5q26 31 71.5 71t84.5 67q13 8 25.5 12t27.5 4q27 0 46.5 -31t19.5 -70q0 -15 -14.5 -44.5t-68.5 -121.5
q-42 -72 -59.5 -103t-34.5 -60q-36 -63 -68 -105.5t-66 -72.5q-32 -28 -73.5 -51.5t-120.5 -56.5z" />
    <glyph glyph-name="k" unicode="k" horiz-adv-x="639" 
d="M71 5q-8 -1 -16.5 -2t-15.5 -1q-39 0 -57.5 17.5t-5.5 46.5q5 9 13.5 24.5t32.5 57.5q25 44 39 68t26 46q109 191 143 246.5t59 91.5q37 54 108 106.5t170 98.5q85 39 153.5 55.5t143.5 16.5q32 0 64.5 -1.5t50.5 -3.5q6 -1 9 -4t3 -8q0 -24 -36.5 -58.5t-57.5 -34.5
q-16 0 -39.5 4t-76.5 18q-58 15 -85.5 20t-48.5 5q-25 0 -42.5 -3.5t-32.5 -10.5q-35 -17 -81.5 -72.5t-90.5 -135.5q-29 -53 -70 -126t-100 -179q98 103 191.5 169.5t138.5 66.5q38 -7 64.5 -54t14.5 -85q-7 -25 -25.5 -46.5t-45.5 -37.5q-20 -11 -50.5 -19t-86.5 -16
q-20 -3 -67 -9t-74 -10q38 1 62.5 -8t39.5 -30q6 -7 10 -19t11 -41q6 -30 11 -43.5t11 -22.5q7 -11 17 -16t22 -4q18 5 47 28t67 63l7 -7q-36 -38 -78 -74t-74 -55q-12 -7 -27 -11.5t-29 -4.5q-23 0 -40.5 6t-26.5 18q-11 14 -17.5 36t-13.5 72q-5 36 -9 50.5t-9 22.5
q-13 19 -29 25.5t-42 3.5q-1 -2 -2.5 -4.5t-4.5 -8.5l-4.5 -7.5t-2.5 -4.5q-29 -49 -58 -101.5t-57 -103.5zM512 370q2 25 -16.5 51.5t-42.5 29.5q-43 -10 -114.5 -70.5t-133.5 -137.5l-2 -2q54 7 97.5 14.5t77.5 16.5q66 17 98.5 39.5t35.5 58.5z" />
    <glyph glyph-name="l" unicode="l" horiz-adv-x="302" 
d="M119 5q-7 -3 -16.5 -4.5t-21.5 -1.5q-14 0 -23.5 1.5t-14.5 4.5q-20 13 -34.5 35.5t-15.5 44.5q0 23 16 62.5t57 114.5q52 95 107.5 186t98.5 154q37 55 107.5 107t167.5 97q85 39 153.5 55t143.5 16q32 0 64 -1.5t50 -3.5q6 -1 9 -4t3 -8q0 -24 -36 -58.5t-57 -34.5
q-16 0 -39.5 4t-76.5 18q-58 15 -85.5 20t-48.5 5q-26 0 -43 -3.5t-32 -10.5q-28 -14 -67 -63.5t-95 -139.5q-68 -111 -116.5 -194.5t-87.5 -154.5q-35 -65 -49 -101.5t-13 -59.5q1 -14 8.5 -23.5t21.5 -13.5q19 6 49 32.5t70 70.5l6 -7q-73 -77 -103 -101.5t-57 -39.5z" />
    <glyph glyph-name="m" unicode="m" horiz-adv-x="946" 
d="M98 15q-13 -7 -27.5 -10.5t-30.5 -4.5q-33 0 -49.5 14t-7.5 37q83 114 135 211t51 143q-1 17 -7.5 26.5t-20.5 12.5q-20 -7 -47 -29t-58 -59l-7 5q29 35 68.5 72.5t76.5 64.5q13 11 24 15.5t22 4.5q25 0 52 -35.5t28 -67.5q1 -25 -16.5 -66.5t-84.5 -153.5
q108 148 198 234t143 90q68 -24 66.5 -94t-73.5 -190q90 123 183 203.5t153 84.5q62 -23 56 -89t-80 -178q-50 -76 -65.5 -109t-14.5 -53q1 -15 8.5 -24.5t20.5 -13.5q20 7 51 33t69 67l6 -7l-27.5 -29t-47.5 -47q-24 -22 -45 -38t-41 -26q-5 -3 -16 -4.5t-26 -1.5t-22 1
t-13 4q-21 14 -34 35.5t-13 43.5q-1 22 19 63t72 121q55 84 67 126t-19 63q-47 -17 -128 -103t-152 -197q-19 -31 -39.5 -68t-39.5 -74q-13 -7 -29 -11t-31 -4q-33 0 -49.5 14t-9.5 38q7 11 29 45t36 56q19 30 34 55.5t27 48.5q33 57 47.5 92.5t15.5 61.5q1 15 -3.5 24.5
t-17.5 17.5q-41 -10 -114 -88t-165 -212q-8 -11 -29.5 -46.5t-57.5 -94.5z" />
    <glyph glyph-name="n" unicode="n" horiz-adv-x="648" 
d="M189 156q-12 -17 -24.5 -37.5t-62.5 -103.5q-13 -7 -27.5 -10.5t-30.5 -4.5q-33 0 -50.5 14t-8.5 37q79 109 132 208t52 146q-1 17 -7.5 26.5t-20.5 12.5q-20 -7 -47 -29t-58 -59l-7 5q31 36 70.5 73.5t74.5 63.5q13 11 24 15.5t22 4.5q25 0 52.5 -35.5t28.5 -67.5
q1 -27 -18.5 -73t-79.5 -148q107 145 204 233t158 92q63 -22 57 -88.5t-80 -178.5q-54 -83 -67.5 -113t-12.5 -49q1 -15 8.5 -24.5t20.5 -13.5q20 7 52.5 34.5t67.5 66.5l6 -7q-70 -74 -101.5 -100t-59.5 -41q-5 -3 -16 -4.5t-26 -1.5q-13 0 -22.5 1.5t-14.5 4.5
q-20 12 -33.5 33.5t-13.5 44.5q-1 22 19 63t72 121q56 86 68 127.5t-19 61.5q-43 -16 -122.5 -100t-158.5 -200z" />
    <glyph glyph-name="o" unicode="o" horiz-adv-x="527" 
d="M299 67q-81 -52 -111 -63t-57 -11q-46 0 -77 25.5t-39 70.5q-8 44 5 93t46 104q30 46 74 89t92 73q63 41 99 55t71 14q45 0 75 -25t38 -71q9 -44 -4.5 -96t-47.5 -105q-27 -40 -73 -82.5t-91 -70.5zM142 153q9 -48 30.5 -72t55.5 -24q18 0 34.5 3.5t33.5 11.5
q11 10 23 29.5t27 49.5q23 46 36.5 109t7.5 106q-8 51 -30.5 74.5t-62.5 23.5q-9 0 -17 -1.5t-27 -8.5q-13 -9 -28.5 -30.5t-33.5 -54.5q-26 -47 -40 -108t-9 -108z" />
    <glyph glyph-name="p" unicode="p" horiz-adv-x="615" 
d="M-233 -274q-38 -3 -51 -3.5t-17 -0.5q-7 0 -6.5 3.5t6.5 4.5q48 6 72 16.5t48 33.5q19 17 47.5 62.5t115.5 192.5q121 206 154 273t32 97q-1 17 -8 26t-21 13q-21 -8 -50 -32t-58 -59l-7 6q36 44 80 82t85 61q10 5 19.5 7.5t22.5 2.5q24 0 44 -31t22 -66q1 -24 -14 -58
t-90 -154q40 51 77.5 94.5t71.5 77.5q60 63 111 99.5t77 37.5q25 -1 44 -16.5t31 -43.5q15 -40 4.5 -91t-44.5 -107q-31 -51 -90 -105.5t-125 -93.5q-63 -35 -98 -47.5t-63 -12.5q-30 0 -51 10.5t-36 33.5q-27 -46 -72.5 -125.5t-54.5 -96.5q-6 -11 -18.5 -33.5t-14.5 -28.5
q11 -8 44 -13.5t80 -7.5q8 0 8 -4t-11 -4q-5 0 -20.5 0.5t-57.5 1.5q-54 2 -75 2.5t-30 0.5t-32.5 -1t-80.5 -4zM442 439q-11 -1 -36 -20.5t-56 -50.5q-53 -52 -103 -113t-83 -114q28 -46 59 -69.5t65 -23.5q16 0 30.5 3.5t27.5 10.5q27 22 48 51t43 76q27 57 40 118t4 90
q-6 21 -15 30.5t-24 11.5z" />
    <glyph glyph-name="q" unicode="q" horiz-adv-x="604" 
d="M132 -277q-12 -1 -15.5 -1.5t-4.5 -0.5q-12 0 -17 4t-5 13q0 12 4.5 23.5t18.5 32.5q45 75 132 215t143 229q18 29 31.5 48.5t26.5 37.5q-63 -69 -147 -151t-128 -118q-22 -19 -38.5 -31.5t-31.5 -21.5q-6 -3 -14.5 -5t-15.5 -2q-8 0 -14 1t-9 3q-39 24 -38.5 93.5
t38.5 152.5q27 61 87 117.5t139 98.5q43 24 79.5 36.5t62.5 12.5q44 0 75 -19t53 -59q7 4 19.5 11.5l42.5 25.5q23 15 34 21.5t18 10.5q6 3 8 2t2 -6q-12 -17 -48.5 -76.5t-98.5 -161.5q-116 -194 -185.5 -312t-93.5 -160q-3 -14 3.5 -22.5t22.5 -12.5q14 -3 43.5 -5
t72.5 -2q9 0 9 -4.5t-10 -4.5q-55 0 -115 -3t-136 -10zM167 290q-23 -67 -26.5 -125t14.5 -77q5 -5 18.5 -0.5t29.5 17.5q47 34 121 106.5t134 143.5q-27 55 -60.5 84.5t-68.5 29.5q-15 0 -26.5 -3t-20.5 -10q-34 -22 -65.5 -67t-49.5 -99z" />
    <glyph glyph-name="r" unicode="r" horiz-adv-x="503" 
d="M99 15q-11 -6 -26.5 -10t-32.5 -5q-32 0 -49 14t-9 37q79 109 132 208t52 146q-1 17 -7.5 26.5t-19.5 12.5q-22 -7 -50.5 -30.5t-59.5 -59.5l-7 6q33 37 76 75.5t77 59.5q12 9 25.5 13t29.5 4q24 -1 45 -32t23 -65q1 -20 -9.5 -49t-33.5 -74q80 109 115 147t64 54
q11 7 21 11t22 5q40 6 70 0t31 -21q-1 -23 -39 -64.5t-56 -42.5q-8 0 -16.5 1.5t-24.5 5.5q-22 6 -36 7.5t-29 1.5q-9 -2 -17 -6t-16 -10q-23 -15 -49.5 -48t-75.5 -114q-23 -37 -68 -114.5t-52 -89.5z" />
    <glyph glyph-name="s" unicode="s" horiz-adv-x="448" 
d="M233 20q-27 -17 -61 -26.5t-70 -9.5q-44 0 -76 15t-47 43q-19 36 1.5 79.5t62.5 61.5l4 -3q17 -45 37 -79t42 -55q23 -22 49 -28t47 6q26 14 17.5 56t-65.5 156q-44 89 -30 156.5t79 101.5q34 16 60.5 23t54.5 7q53 0 88 -13.5t47 -39.5q15 -31 -5 -65t-57 -45h-4
q-30 71 -64 106t-73 35q-5 0 -9.5 -1t-12.5 -4q-23 -19 -14.5 -57.5t53.5 -132.5q45 -92 30 -167t-84 -120z" />
    <glyph glyph-name="t" unicode="t" horiz-adv-x="400" 
d="M330 167l6 -8q-64 -63 -116 -102.5t-92 -55.5q-4 -2 -12 -3t-16 -1q-17 0 -27 1.5t-16 4.5q-18 10 -30 34t-13 49q-1 30 11 65t40 82q10 16 22 35.5t35 58.5q27 45 40 66t23 38h-96q-9 0 -9.5 4t8.5 7q42 16 69 27.5t49 23.5q41 21 88.5 49t109.5 68q7 5 11.5 3t-0.5 -9
q-1 -2 -4.5 -7.5t-14.5 -24.5q-16 -25 -24.5 -39.5t-15.5 -26.5q31 0 63 1t70 2q8 1 10.5 1h3.5q2 0 3.5 -1.5t0.5 -4.5q-2 -5 -7.5 -13.5t-14.5 -20.5q-18 -25 -28.5 -34.5t-19.5 -9.5t-19.5 0.5t-33.5 1.5q-29 1 -44.5 1.5t-29.5 0.5q-3 -5 -54.5 -89.5t-74.5 -126.5
q-25 -44 -33 -69.5t-7 -51.5q1 -17 10.5 -30t24.5 -15q21 6 66.5 41.5t87.5 77.5z" />
    <glyph glyph-name="u" unicode="u" horiz-adv-x="642" 
d="M440 318q-115 -156 -204.5 -239t-148.5 -86q-29 5 -53 24.5t-29 46.5q-1 17 8.5 40t32.5 61q8 13 28.5 44.5t31.5 49.5q47 73 64 107.5t16 51.5q0 11 -7.5 19t-21.5 13q-21 -8 -51.5 -33.5t-60.5 -60.5l-7 6q33 39 76.5 78t75.5 58q15 9 27.5 12.5t28.5 3.5q24 0 46 -31
t23 -62q0 -21 -19 -61t-69 -120q-9 -14 -24 -37.5t-21 -32.5q-18 -28 -26.5 -45t-11.5 -29q-1 -14 8.5 -25t26.5 -15q38 11 113 92.5t164 208.5q12 17 24.5 37t34.5 57q11 19 16 27.5t9 14.5q14 8 29.5 12t32.5 5q33 0 50.5 -14.5t7.5 -37.5q-29 -40 -59 -85t-55 -85
q-54 -87 -74 -130.5t-21 -68.5q1 -13 10 -23t25 -15q20 7 51.5 34t68.5 68l6 -7q-63 -67 -96.5 -95t-63.5 -45q-6 -3 -17 -5t-22 -2q-15 0 -26 1.5t-17 4.5q-21 14 -33.5 35t-12.5 42q-1 23 16.5 62.5t99.5 173.5z" />
    <glyph glyph-name="v" unicode="v" horiz-adv-x="586" 
d="M233 37q-30 -26 -44 -35t-25 -10q-24 0 -42.5 16t-17.5 35q35 163 44 220t9 85q-1 40 -13 64.5t-30 25.5q-15 -4 -45 -23t-55 -41l-5 4q23 23 80 63.5t92 59.5q11 6 18.5 8.5t14.5 2.5q30 -1 47.5 -31.5t18.5 -83.5q1 -36 -14.5 -127t-39.5 -192q-1 -8 7.5 -13t18.5 -1
q30 24 69.5 60t73.5 70q49 49 73 92.5t24 83.5q0 23 -13 40t-33 21q-18 -4 -39 -16.5t-54 -38.5l-4 4q34 31 88.5 71t81.5 54q7 4 14.5 6.5t21.5 5.5q22 -1 39 -26.5t15 -53.5q-1 -38 -49.5 -97t-157.5 -152q-10 -9 -24 -21.5t-44 -39.5q-43 -40 -64 -58.5t-37 -31.5z" />
    <glyph glyph-name="w" unicode="w" horiz-adv-x="860" 
d="M224 23q-22 -18 -35 -23t-38 -5q-26 0 -36 7.5t-7 25.5q23 119 36 201t12 113q0 42 -12.5 68.5t-31.5 28.5q-15 -4 -44.5 -23t-54.5 -41l-5 4q25 24 82 65t89 58q11 6 18.5 8.5t14.5 2.5q30 -1 47.5 -33.5t17.5 -88.5q0 -42 -15 -138t-39 -207q29 23 65 56.5t67 67.5
q46 52 69 86t32 63q4 11 5.5 23t1.5 27q0 31 -12.5 50.5t-30.5 21.5q-16 -4 -39 -18.5t-47 -35.5l-6 4q27 26 75.5 62t77.5 52q10 6 18 8.5t15 2.5q30 -2 47.5 -34.5t18.5 -87.5q0 -37 -15 -138t-36 -204q31 21 62 46t55 49q62 61 95 120.5t31 103.5q-1 23 -14.5 40
t-34.5 22q-18 -5 -35.5 -15.5t-54.5 -40.5l-5 4q34 31 88 71.5t78 52.5q12 5 21.5 8t17.5 4q22 -1 39 -23t20 -53q1 -29 -22 -67.5t-77 -96.5q-18 -19 -42 -43t-97 -94q-63 -60 -87 -81.5t-41 -35.5q-21 -18 -33.5 -23t-35.5 -5q-27 0 -37 7.5t-7 25.5q2 14 5.5 32t10.5 58
q13 69 18.5 101t8.5 55q-13 -17 -31.5 -38.5t-62.5 -71.5q-35 -40 -74.5 -80.5t-63.5 -60.5z" />
    <glyph glyph-name="x" unicode="x" horiz-adv-x="543" 
d="M-46 -60q-17 -21 -30 -30t-27 -9q-15 0 -27 12t-12 30q0 13 7.5 25t22.5 21q75 45 127 79.5t98 69.5q18 13 44.5 34t46.5 38q-10 84 -16.5 131t-9.5 58q-4 14 -13 27t-17 15q-14 -4 -39 -23t-66 -56l-5 6q30 31 76 68.5t102 76.5q5 3 9.5 4t8.5 1q3 0 6.5 -1t9.5 -3
q15 -7 26 -26.5t17 -49.5q2 -12 7 -51.5t13 -107.5q7 6 14.5 13.5l22.5 22.5q27 28 51.5 55t117.5 140q7 8 16 12.5t19 4.5q15 0 26.5 -11t11.5 -26q0 -10 -6.5 -20t-19.5 -19q-12 -8 -47.5 -30.5t-58.5 -37.5q-27 -19 -52.5 -37.5t-49.5 -38.5q-7 -5 -23.5 -19t-20.5 -17
q7 -67 13 -105.5t11 -58.5q4 -14 16 -26.5t26 -16.5q22 8 53.5 31.5t64.5 55.5l7 -6q-57 -54 -100 -88t-90 -63q-5 -2 -12 -3.5t-12 -1.5q-7 0 -14 1.5t-13 4.5q-14 8 -24.5 27.5t-16.5 51.5q-4 17 -8 46t-10 82q-37 -35 -53.5 -50.5t-27.5 -26.5q-30 -29 -58.5 -59.5
t-111.5 -125.5z" />
    <glyph glyph-name="y" unicode="y" horiz-adv-x="575" 
d="M73 -121q-94 -81 -182 -115.5t-199 -34.5q-29 0 -52.5 2t-35.5 5q-6 2 -8 4.5t-2 7.5q0 22 35.5 60t56.5 41q14 0 31.5 -3t56.5 -13q48 -13 72.5 -17t45.5 -4q52 0 90 16t85 56q15 13 24 21.5t18 17.5q22 84 35 203t13 214q0 30 -5.5 53t-16.5 35q-5 6 -10.5 8.5
t-12.5 1.5q-14 -4 -44 -23.5t-54 -40.5l-5 4q23 23 80 63.5t92 59.5q10 6 18 8.5t15 2.5q10 -1 17 -4t14 -9q19 -15 28.5 -46.5t9.5 -75.5q0 -65 -12.5 -157.5t-32.5 -174.5l59 59t26 27q77 81 115.5 140t39.5 98q0 23 -12.5 39t-33.5 21q-17 -4 -34.5 -14t-45.5 -33l-4 4
q32 29 79 65t71 49q11 5 21 9t24 8q21 -1 37.5 -25t14.5 -52q-5 -27 -32 -65.5t-88 -101.5q-27 -29 -81 -83.5t-65 -65.5l-93.5 -93.5t-49.5 -48.5q-5 -5 -45.5 -42t-67.5 -61z" />
    <glyph glyph-name="z" unicode="z" horiz-adv-x="524" 
d="M310 4q-3 -2 -10.5 -3.5t-16.5 -1.5q-10 0 -18.5 1.5t-12.5 3.5q-6 3 -35.5 21t-48.5 29q-28 15 -50.5 22.5t-39.5 7.5q-37 0 -64.5 -16.5t-57.5 -56.5q-14 -10 -22 -0.5t-1 28.5q71 41 263 173.5t297 212.5q0 1 -0.5 2t-1.5 1q-53 -33 -91.5 -48.5t-69.5 -15.5
q-18 0 -39.5 7t-60.5 29q-30 16 -43 20.5t-22 3.5q-13 -4 -32 -18.5t-75 -68.5l-8 5q41 44 100 99t87 73q4 3 12.5 4.5t19.5 1.5q8 0 16 -1t12 -3q5 -2 32 -20t48 -28q25 -13 48 -19t44 -6q39 0 63 13t49 46q4 5 11 3t11 -9q3 -6 1.5 -12t-6.5 -8q-44 -24 -281 -190
t-263 -184q-1 -1 0 -2t2 -1q54 32 95.5 50.5t60.5 18.5q15 0 36.5 -8t66.5 -33q35 -19 49 -24.5t22 -5.5q12 3 26 11.5t33 24.5q9 8 26.5 24t25.5 23l6 -6q-23 -24 -95.5 -87t-97.5 -83z" />
    <glyph glyph-name="braceleft" unicode="{" horiz-adv-x="398" 
d="M129 253q45 -20 61.5 -70t-6.5 -99q-9 -19 -24.5 -41t-52.5 -68q-43 -54 -62 -81.5t-30 -52.5q-31 -67 -9 -96t98 -25q12 1 10 -8.5t-16 -9.5q-98 0 -141.5 67t-3.5 154q13 30 36.5 60t77.5 82q39 38 53.5 55.5t21.5 32.5q19 42 7 68.5t-55 26.5q-4 0 -5.5 1.5t-1.5 5.5
t2.5 6t7.5 2q43 0 72.5 16.5t44.5 50.5q11 23 17.5 51t12.5 88q7 68 15 102.5t22 63.5q37 80 125 124t199 38q11 -1 9 -10.5t-16 -7.5q-77 11 -124.5 -10t-73.5 -78q-11 -25 -20 -57.5t-22 -101.5q-12 -65 -20.5 -95t-18.5 -52q-21 -45 -63 -74.5t-127 -57.5z" />
    <glyph glyph-name="bar" unicode="|" horiz-adv-x="256" 
d="M147 782q-7 -106 -11 -258t-4 -277q0 -113 3 -250t9 -267q-9 -8 -17.5 -10t-19.5 0q6 149 9.5 285t3.5 241t-4 256t-9 274q10 6 20.5 8t19.5 -2z" />
    <glyph glyph-name="braceright" unicode="}" horiz-adv-x="398" 
d="M256 246q-45 20 -61.5 70t6.5 99q9 19 24.5 41t52.5 68q43 54 62 81.5t30 52.5q31 67 9 96t-98 25q-12 -1 -10 8.5t16 9.5q98 0 141.5 -67t3.5 -154q-13 -30 -36.5 -60t-77.5 -82q-39 -38 -53.5 -55.5t-21.5 -32.5q-19 -42 -7 -68.5t55 -26.5q4 0 5.5 -1.5t1.5 -5.5
t-2.5 -6t-7.5 -2q-43 0 -72.5 -16.5t-44.5 -50.5q-11 -23 -17.5 -51t-12.5 -88q-7 -68 -15 -102.5t-22 -63.5q-37 -80 -125 -124t-199 -38q-11 1 -9 10.5t16 7.5q77 -11 124.5 10t73.5 78q11 25 20 57.5t22 101.5q12 65 20.5 95t18.5 52q21 45 63 74.5t127 57.5z" />
    <glyph glyph-name="asciitilde" unicode="~" horiz-adv-x="438" 
d="M228 319q-36 20 -54.5 25.5t-34.5 5.5q-25 0 -43 -15.5t-33 -48.5q-4 -6 -8.5 -3.5t-1.5 8.5q32 63 74 99t86 36q20 0 41 -7t59 -29q35 -20 52.5 -26t32.5 -6q24 0 40.5 16.5t30.5 54.5q2 6 6 4t2 -8q-25 -68 -62.5 -105.5t-78.5 -37.5q-22 0 -45 7t-63 30z" />
    <glyph glyph-name="exclamdown" unicode="&#xa1;" horiz-adv-x="323" 
d="M195 503q7 5 26 8t39 3q27 0 41 -4.5t19 -14.5q5 -23 -12.5 -62.5t-39.5 -50.5q-8 -4 -27.5 -7t-35.5 -3q-23 0 -40 6t-19 17q-4 23 12.5 59t36.5 49zM-57 -98q78 118 130 210t104 201l9 -2q-49 -102 -86 -193.5t-87 -239.5q-38 -114 -54 -156t-33 -80q-2 -5 -12 -7
t-30 -2q-25 0 -52.5 4t-42.5 10q-6 1 -9 4t-2 5q17 26 37 56.5t60 89.5q29 42 43 62.5t25 37.5z" />
    <glyph glyph-name="cent" unicode="&#xa2;" horiz-adv-x="549" 
d="M520 199q-55 -101 -129 -155t-158 -54q-17 0 -33.5 2.5t-31.5 6.5q-20 -41 -42.5 -88.5t-57.5 -124.5q-13 -7 -22.5 -7t-15.5 8q9 16 19 34.5t31 55.5l43.5 79.5t26.5 48.5q-85 34 -108 124.5t29 189.5q44 87 138 139t199 52q15 31 32 66.5t50 104.5q10 7 19 7t18 -7
q-23 -38 -47 -80t-51 -92q76 -6 123 -47t28 -85q-9 -20 -31 -33t-46 -13t-36 15.5t-17 65.5q-3 40 -10 56t-20 23q-26 -46 -54.5 -100.5t-71.5 -140.5q-5 -10 -11 -21.5t-17 -33.5q-17 -34 -25.5 -50.5t-15.5 -30.5q22 -15 47.5 -22.5t54.5 -7.5q61 0 105.5 28.5t81.5 90.5
q2 2 5 0.5t1 -4.5zM390 498q-70 0 -123 -29.5t-82 -85.5q-38 -74 -29.5 -146t58.5 -114q12 22 25.5 48t39.5 78l60.5 121t62.5 127q-2 1 -4.5 1h-7.5z" />
    <glyph glyph-name="sterling" unicode="&#xa3;" horiz-adv-x="686" 
d="M525 8q-25 -30 -51 -44.5t-53 -14.5q-30 0 -66.5 12.5t-84.5 39.5q-21 12 -69 42t-70 41q-18 -19 -36 -34.5t-35 -28.5q-29 -22 -55 -33t-46 -11q-28 0 -41 19t-4 47q8 28 40.5 44.5t77.5 16.5q17 0 40 -2t52 -6q21 77 38.5 135.5t34.5 107.5q-36 -3 -66 -5t-56 -3
q-4 7 -2 14.5t8 12.5q22 -1 51.5 -2t70.5 -3q11 32 23.5 62t25.5 57q53 108 151.5 168.5t210.5 60.5q77 0 114 -30t22 -78q-6 -20 -21.5 -32.5t-34.5 -12.5q-28 0 -42.5 16t-17.5 50q-4 53 -11.5 63.5t-25.5 10.5q-52 0 -108 -63t-139 -223l-16.5 -31.5t-10.5 -18.5
q31 1 62.5 2t155.5 7q4 -7 2 -15t-9 -13q-101 5 -140 6.5t-78 1.5q-43 -75 -87.5 -137.5t-88.5 -109.5q191 -25 228 -28t68 -3q35 0 69.5 13t59.5 35q17 15 33 35.5t31 48.5l21 39q3 6 8 3.5t2 -7.5l-24 -44q-33 -61 -61 -106t-50 -72z" />
    <glyph glyph-name="yen" unicode="&#xa5;" horiz-adv-x="664" 
d="M312 9h16q6 0 5.5 -4.5t-6.5 -4.5q-8 0 -26.5 0.5t-63.5 1.5q-29 1 -39 1h-13h-13t-39 -1q-46 -1 -65 -1.5t-28 -0.5q-6 0 -5 4.5t7 4.5h10q40 0 67 29t87 135q-36 -1 -74 -2.5t-87 -5.5q-3 6 0 13.5t10 14.5q58 -4 92 -5.5t65 -2.5q13 24 23 41.5t19 34.5l32 60
q-51 -1 -90.5 -3t-76.5 -5q-3 6 -0.5 13.5t9.5 14.5q73 -4 104 -5.5t59 -2.5l-11 176q-7 120 -18 147t-46 27h-8q-7 0 -6.5 5t7.5 5q9 0 28.5 -0.5t66.5 -1.5q30 -1 40.5 -1h13.5h14.5t45.5 1q52 1 73.5 1.5t30.5 0.5q6 0 5 -5t-7 -5h-36q-44 0 -60.5 -35.5t-13.5 -128.5
l7 -179l161 144q92 82 120 141.5t-32 59.5q-4 0 -9.5 -0.5t-16.5 -2.5q-6 -1 -7.5 -1h-2.5q-8 0 -8 6t10 6h17t51 -1q41 -1 56 -1h20h10.5t29.5 1q35 1 49.5 1h22.5q6 0 5 -5t-6 -5h-7q-42 0 -93.5 -35.5t-197.5 -166.5l-165 -148q39 1 78.5 3t84.5 5q3 -6 0 -13.5
t-10 -14.5q-12 0 -25.5 1t-42.5 2q-37 3 -57 3.5t-37 1.5l-33 -62q-4 -7 -8 -14.5t-11 -22.5q-9 -16 -13 -23.5t-7 -13.5q34 1 71.5 2.5t98.5 6.5q3 -7 0.5 -14.5t-9.5 -14.5q-11 0 -23.5 1t-38.5 2q-41 3 -63 4t-41 1q-51 -100 -56.5 -132t30.5 -32z" />
    <glyph glyph-name="brokenbar" unicode="&#xa6;" horiz-adv-x="256" 
d="M144 303q-8 -8 -16 -10t-19 1q4 53 7.5 128.5t3.5 118.5q0 39 -4.5 122.5t-8.5 112.5q9 7 19.5 8.5t19.5 -2.5q-5 -39 -9.5 -116t-4.5 -124q0 -40 3.5 -109.5t8.5 -129.5zM144 -274q-9 -8 -17.5 -10t-18.5 1q5 60 8.5 133.5t3.5 113.5q0 41 -4 124t-8 111q8 7 19 8.5
t19 -2.5q-5 -39 -9.5 -116t-4.5 -124q0 -46 3.5 -118.5t8.5 -120.5z" />
    <glyph glyph-name="section" unicode="&#xa7;" horiz-adv-x="603" 
d="M16 -121q5 -34 14 -44t25 -10q24 0 48 15.5t38 39.5q19 34 18.5 81.5t-28.5 154.5q-34 126 -32 187.5t29 110.5q23 42 76.5 83.5t122.5 70.5q37 53 107.5 91.5t134.5 38.5q52 0 83 -19.5t31 -51.5q0 -29 -20.5 -47.5t-49.5 -18.5q-25 0 -38 12.5t-19 52.5q-6 33 -15 43
t-26 10q-29 0 -54.5 -23t-34.5 -59q-13 -34 -9.5 -77.5t34.5 -136.5q39 -117 39 -176t-27 -108q-24 -44 -82 -88t-134 -75q-36 -52 -107 -90.5t-136 -38.5q-51 0 -82.5 19.5t-31.5 51.5q0 29 20.5 47.5t49.5 18.5q24 0 37 -12.5t19 -52.5zM245 210q32 -115 32 -168t-22 -93
q-1 -1 -1.5 -2t-0.5 -2q36 17 56.5 34.5t38.5 48.5q25 44 24.5 101t-37.5 175q-35 110 -36 161t20 90q1 1 1.5 2t0.5 2q-31 -15 -50 -32t-34 -44q-24 -43 -24.5 -99t32.5 -174z" />
    <glyph glyph-name="dieresis" unicode="&#xa8;" horiz-adv-x="809" 
d="M495 584q-16 0 -26.5 2.5t-16.5 7.5q-2 21 17 62t36 51q8 5 22 8t29 3q18 0 33 -5t21 -13q0 -24 -31 -63.5t-51 -47.5q-6 -2 -15 -3.5t-18 -1.5zM283 584q-16 0 -25.5 2.5t-16.5 7.5q-3 21 16 62.5t37 50.5q8 5 22 8t30 3q17 0 32.5 -5t19.5 -13q1 -25 -30 -64t-52 -47
q-5 -2 -14 -3.5t-19 -1.5z" />
    <glyph glyph-name="copyright" unicode="&#xa9;" horiz-adv-x="816" 
d="M670 100q-58 -54 -126.5 -85t-132.5 -31q-142 0 -241.5 101.5t-99.5 248.5q0 69 31 136t89 121q56 54 125 84t136 30q146 0 243 -98t97 -252q0 -67 -31.5 -133t-89.5 -122zM110 349q0 -136 94.5 -231.5t225.5 -95.5q149 0 235 85t86 233q0 147 -91.5 240.5t-231.5 93.5
q-145 0 -231.5 -88t-86.5 -237zM618 263q2 3 5.5 2t1.5 -4q-33 -61 -85 -94.5t-116 -32.5q-90 0 -145 54.5t-55 142.5q0 89 68.5 155t160.5 66q41 0 74 -4t62 -13q3 -1 5 -3.5t3 -6.5q0 -1 3 -53.5t4 -99.5q0 -3 -3 -3.5t-4 3.5q-12 80 -49.5 125.5t-95.5 45.5
q-70 0 -111.5 -42.5t-41.5 -115.5q0 -85 50 -137.5t132 -52.5q48 0 83 17.5t54 50.5z" />
    <glyph glyph-name="ordfeminine" unicode="&#xaa;" horiz-adv-x="396" 
d="M288 403q-15 8 -23 20t-10 31q0 9 4.5 21.5t21.5 42.5q-37 -38 -71 -68t-60 -48q-9 -4 -26 -5t-22 3q-20 16 -20.5 55.5t18.5 77.5q22 40 58 74t86 62q24 13 46.5 20t40.5 7q28 0 49 -8.5t44 -27.5q36 16 45 20.5t16 8.5q4 3 6 1t1 -3q-54 -67 -98.5 -138t-41.5 -95
q1 -8 5.5 -15t11.5 -9q10 4 26.5 18.5t37.5 37.5l4 -4q-31 -34 -51 -50.5t-40 -28.5q-5 -3 -28.5 -3t-29.5 3zM187 561q-8 -32 -6.5 -57.5t11.5 -42.5q3 -1 9.5 0.5t11.5 5.5q23 17 61.5 57t69.5 78q-11 37 -24.5 54.5t-31.5 17.5q-9 0 -16 -1.5t-13 -5.5
q-24 -15 -43.5 -43.5t-28.5 -62.5z" />
    <glyph glyph-name="guillemotleft" unicode="&#xab;" horiz-adv-x="529" 
d="M74 133q-19 44 -29.5 66.5t-21.5 42.5q-3 5 -2 9.5t6 8.5q42 37 84 75t108 98q31 28 48.5 40t27.5 12q13 0 17 -16.5t-3 -38.5q-7 -20 -22.5 -35.5t-45.5 -32.5q-85 -46 -135.5 -73t-67.5 -35q-2 -2 -3 -4t0 -3q23 -25 77 -75t58 -53q19 -18 22.5 -31.5t-4.5 -33.5
q-5 -14 -18 -25.5t-25 -11.5q-10 0 -16.5 6.5t-19.5 31.5q-7 14 -14 30zM269 106q-31 59 -46 87t-25 44q-4 6 -3 10.5t7 7.5q54 36 143.5 98.5t133.5 93.5q30 21 46.5 29.5t26.5 8.5q14 0 17.5 -17t-4.5 -38q-8 -23 -24.5 -39t-43.5 -28q-83 -33 -172 -68.5t-112 -45.5
q-3 -1 -4 -3t1 -4q40 -32 89 -70.5t63 -48.5q19 -14 23 -29.5t-5 -35.5q-8 -18 -21.5 -29.5t-27.5 -11.5q-9 0 -15.5 6.5t-20.5 31.5q-4 7 -9 17z" />
    <glyph glyph-name="logicalnot" unicode="&#xac;" 
d="M482 410h-168q-25 0 -51.5 -1.5t-123.5 -10.5q-9 6 -8.5 18.5t8.5 17.5q85 -9 115.5 -11t58.5 -2q14 0 58 2.5t117 8.5q2 0 5 -3t3 -5q0 -31 1.5 -64t11.5 -136q-6 -9 -19 -9t-19 9q1 9 3.5 40t3.5 52q2 26 3 49.5t1 44.5z" />
    <glyph glyph-name="uni00AD" unicode="&#xad;" horiz-adv-x="375" 
d="M64 227zM74 273q24 -2 51.5 -3t64.5 -1t65 1t51 3q7 -4 4 -23t-10 -23q-26 3 -51.5 4t-63.5 1q-29 0 -56.5 -1t-60.5 -4q-5 4 -3 22.5t9 23.5z" />
    <glyph glyph-name="registered" unicode="&#xae;" horiz-adv-x="804" 
d="M606 63q3 1 4.5 -1t-0.5 -4q-46 -34 -106 -54t-113 -20q-149 0 -238.5 88t-89.5 240q0 72 32 143t89 128q58 58 129.5 90t142.5 32q143 0 235 -85.5t92 -212.5q0 -117 -65.5 -207.5t-157.5 -90.5q-61 2 -87 35t-20 99q6 83 -0.5 97.5t-33.5 15.5h-4h-7q-5 1 -7 1h-4
l-33 -60q-52 -95 -58.5 -122.5t20.5 -27.5h14q4 0 3.5 -4t-4.5 -4h-17t-39 1h-25.5h-8.5h-7.5h-22.5q-31 -1 -44 -1h-19q43 -60 114 -91.5t163 -31.5q56 0 96 11t77 36zM541 249q0 -95 6.5 -112.5t30.5 -17.5q31 0 67.5 23t61.5 61q20 30 30.5 68.5t10.5 82.5
q0 144 -86.5 232t-231.5 88q-149 0 -238.5 -94.5t-89.5 -252.5q0 -52 12.5 -97.5t36.5 -82.5q11 0 19.5 2t16.5 7q6 3 12.5 10.5t15.5 21.5q10 16 39.5 69.5t35.5 64.5l44 82q14 25 24 44.5t18 33.5q19 41 21 56.5t-17 15.5h-11q-4 0 -3.5 3.5t4.5 3.5h16.5t38.5 -1h23h8
h5.5h15.5q25 1 38 1h22q74 0 112.5 -37t14.5 -88q-16 -35 -66.5 -54t-140.5 -22q43 -4 63.5 -31.5t20.5 -79.5zM470 491l-69 -126h16h16q44 0 81.5 24.5t60.5 69.5q22 42 12 68.5t-47 26.5h-9q-18 0 -26 -7t-35 -56z" />
    <glyph glyph-name="macron" unicode="&#xaf;" horiz-adv-x="809" 
d="M469 639q17 -1 29.5 -1h26.5h75.5t41.5 1q16 1 22 0.5t6 -2.5q0 -5 -14 -20t-44 -42h-5.5t-12.5 1q-21 0 -35.5 0.5t-28.5 0.5q-26 0 -49.5 -0.5t-52.5 -2.5q-17 -1 -24.5 -0.5t-7.5 3.5q0 2 4 6.5t18 18.5q13 14 21 22t14 15h6h10z" />
    <glyph glyph-name="degree" unicode="&#xb0;" horiz-adv-x="376" 
d="M278 447q-54 0 -92 38t-38 92t38 92t92 38t92 -38t38 -92t-38 -92t-92 -38zM278 693q-47 0 -81 -34.5t-34 -81.5t34 -81.5t81 -34.5t81 34.5t34 81.5t-34 81.5t-81 34.5z" />
    <glyph glyph-name="plusminus" unicode="&#xb1;" 
d="M483 474q8 -5 8.5 -17.5t-8.5 -18.5q-63 6 -103 9t-58 3q0 -20 1.5 -40.5t12.5 -113.5q-8 -9 -20 -9t-19 9q6 61 9 99.5t3 54.5q-25 -1 -50 -2.5t-111 -9.5q-8 6 -8 18.5t8 17.5q75 -8 104 -10.5t57 -2.5q0 21 -1.5 41.5t-10.5 108.5q7 9 19.5 9t19.5 -9
q-7 -55 -10.5 -92.5t-3.5 -57.5q30 0 60.5 2.5t100.5 10.5zM317 211q30 0 61 2.5t105 10.5q8 -5 8 -17.5t-8 -18.5q-66 7 -99 9t-66 3q-36 -1 -70.5 -3t-98.5 -9q-9 6 -8.5 18.5t8.5 17.5q79 -9 108.5 -11t59.5 -2z" />
    <glyph glyph-name="two.sup" unicode="&#xb2;" horiz-adv-x="403" 
d="M141 496zM367 497q-21 1 -31 1h-17q-31 0 -70.5 -0.5t-90.5 -1.5h-9h-2q-4 0 -5.5 8.5t4.5 11.5q67 34 97.5 50t52.5 29q61 35 97 67.5t50 65.5q17 39 4 65t-52 26q-17 0 -28 -5t-16 -16q-7 -14 -13 -43t-8 -38q-5 -21 -17.5 -31t-33.5 -10q-24 0 -31.5 17t6.5 39
q11 19 35.5 39.5t61.5 41.5q36 20 65.5 29.5t57.5 9.5q47 0 70 -34.5t2 -78.5q-14 -27 -59 -56.5t-198 -101.5h109q47 0 67.5 8t45.5 43q3 4 6.5 3t0.5 -6q-6 -11 -35.5 -56.5t-43.5 -64.5q-3 -4 -7.5 -6.5t-12.5 -4.5h-13h-39z" />
    <glyph glyph-name="three.sup" unicode="&#xb3;" horiz-adv-x="375" 
d="M149 485zM346 510q-29 -12 -57.5 -18.5t-53.5 -6.5q-47 0 -70 18t-13 49q7 20 34.5 33.5t81.5 22.5q4 1 5 -2t-3 -5q-12 -4 -20 -11t-12 -17q-8 -27 12 -43.5t55 -16.5q9 0 16 0.5t14 2.5q12 5 19.5 14t15.5 30q17 45 10 83.5t-33 39.5q-10 0 -19 -4t-24 -18
q-13 -11 -20.5 -14.5t-14.5 -3.5t-12.5 5.5t-5.5 13.5q0 10 8.5 16.5t23.5 7.5q60 3 95.5 17t48.5 40q16 33 2.5 56t-50.5 23q-14 0 -23 -4.5t-14 -13.5q-4 -8 -7.5 -19t-8.5 -33q-4 -20 -14.5 -30t-27.5 -10q-24 0 -32.5 14t4.5 33q7 11 20.5 21.5t68.5 38.5
q32 16 60.5 24.5t50.5 8.5q44 0 66 -30.5t2 -68.5q-8 -14 -25 -24t-48 -18q-16 -4 -45 -10.5t-40 -8.5q10 1 18.5 2t16.5 1q58 0 80.5 -30t-1.5 -73q-11 -20 -37 -36.5t-97 -45.5z" />
    <glyph glyph-name="acute" unicode="&#xb4;" horiz-adv-x="809" 
d="M468 706q8 7 19 11t22 4q13 0 22 -10t9 -23q0 -11 -5.5 -20t-15.5 -17q-7 -5 -20.5 -12.5t-50.5 -27.5q-56 -29 -82.5 -44t-43.5 -28q-2 -2 -4 -3t-4 -1t-3.5 1t-1.5 3q0 1 0.5 2t2.5 2t2.5 2t1.5 2q20 16 46.5 42.5t72.5 79.5q17 20 23 26.5t10 10.5z" />
    <glyph glyph-name="paragraph" unicode="&#xb6;" horiz-adv-x="644" 
d="M171 -91l220 444h-42q-118 0 -163.5 63.5t4.5 153.5q29 52 87.5 77t151.5 25h29h100q74 -1 99 -1h29h11t30 1q33 1 48 1h23q6 0 6 -4.5t-6 -4.5h-13q-36 0 -52.5 -11.5t-37.5 -42.5q-11 -16 -25 -39.5t-33 -57.5q-11 -19 -24 -43.5t-30 -55.5l-94 -175
q-112 -207 -198.5 -299.5t-168.5 -92.5q-79 0 -133 33t-54 78q0 21 27 42t44 15q11 -4 19 -14t15 -29q3 -8 8.5 -26.5t8.5 -27.5q11 -30 26 -44.5t34 -14.5q16 0 28.5 12t25.5 38zM638 661h-81l-395 -798q39 11 77 42t82 87q34 44 73 107t82 142l93 173q12 23 21 39t16 29
q11 22 19.5 38.5t15.5 29.5q12 24 20 40.5t12 28.5q9 24 4.5 33t-39.5 9z" />
    <glyph glyph-name="periodcentered" unicode="&#xb7;" horiz-adv-x="306" 
d="M128 186q-28 0 -41.5 5t-18.5 15q-5 22 12.5 61.5t39.5 51.5q7 3 27 6t36 3q22 0 39.5 -6t19.5 -16q4 -24 -13 -60.5t-36 -48.5q-7 -5 -26 -8t-39 -3z" />
    <glyph glyph-name="cedilla" unicode="&#xb8;" horiz-adv-x="809" 
d="M355 -170q-14 -44 -59.5 -73t-96.5 -29q-37 0 -60 14.5t-19 33.5q3 14 21 24.5t37 10.5q11 0 19 -5t19 -21q13 -18 23 -23.5t24 -5.5q16 0 29 10t18 26q12 37 -21.5 61t-96.5 12q-5 -1 -8.5 -3t-8.5 -8q-3 -4 -5.5 -5t-5.5 -1q-7 0 -7 5.5t9 12.5q14 12 35 33t63 65
q18 19 25.5 27t12.5 13q6 6 10 3.5t-1 -7.5q-22 -20 -39 -38.5t-24 -27.5q-2 -2 -0.5 -3t6.5 -1q56 4 86 -25.5t15 -74.5z" />
    <glyph glyph-name="one.sup" unicode="&#xb9;" horiz-adv-x="258" 
d="M110 498zM258 762q-6 -1 -6.5 2.5t3.5 4.5q48 13 104.5 36t79.5 40q4 3 6 4t6 1q5 0 7 -3t0 -7q-6 -11 -65.5 -117.5t-90.5 -162.5q-15 -27 -8.5 -41t33.5 -14q4 0 3.5 -3.5t-4.5 -3.5h-9.5h-19.5q-35 1 -57.5 1h-44.5h-24.5t-38.5 -1h-13.5h-5.5q-4 0 -3 3.5t5 3.5
q25 0 45 13.5t38 42.5q3 5 19.5 33.5t59.5 103.5q21 37 27.5 48.5t7.5 13.5q3 5 1.5 8.5t-7.5 3.5q-7 0 -20.5 -3t-27.5 -7z" />
    <glyph glyph-name="ordmasculine" unicode="&#xba;" horiz-adv-x="341" 
d="M271 421q-21 -11 -51.5 -18.5t-53.5 -7.5q-27 0 -47.5 17t-26.5 44q-4 21 2 47.5t21 53.5q17 34 49.5 63.5t78.5 53.5q21 10 53 18t51 8q24 0 42 -16.5t24 -42.5q6 -24 -1 -55t-26 -61q-17 -31 -47 -58t-68 -46zM197 478q3 -15 10.5 -27t18.5 -18q9 -6 19 -7.5t20 1.5
q6 3 11.5 14.5t11.5 30.5q11 34 16.5 75.5t2.5 71.5q-1 15 -6 26.5t-13 18.5q-7 4 -16.5 6.5t-19.5 1.5q-9 -8 -20 -28.5t-20 -46.5q-11 -34 -15 -64.5t0 -54.5z" />
    <glyph glyph-name="guillemotright" unicode="&#xbb;" horiz-adv-x="529" 
d="M459 371q19 -45 30 -68t22 -43q3 -5 2 -9.5t-6 -8.5q-28 -25 -58 -51.5t-112 -101.5q-45 -41 -66.5 -56.5t-32.5 -15.5q-14 0 -17.5 17t4.5 38q7 20 22.5 35.5t45.5 32.5q54 30 110 60t92 49q3 1 4 3t0 3q-11 12 -27.5 28.5t-107.5 99.5q-20 18 -23.5 32t4.5 33
q4 14 17.5 25.5t26.5 11.5q9 0 16.5 -7.5t19.5 -30.5q7 -13 14 -29t20 -47zM273 381q28 -53 41 -77t22 -39q3 -5 2 -10t-6 -8q-51 -34 -141 -96t-137 -96q-28 -20 -45 -29t-27 -9q-13 0 -17 16.5t3 38.5q8 23 24.5 39t43.5 28q83 33 172 68.5t112 45.5q3 1 4 3t0 4
q-5 4 -15.5 12t-38.5 30q-50 40 -70.5 56t-28.5 22q-18 13 -22 28t4 36q7 16 21 28.5t28 12.5q10 0 16.5 -6.5t19.5 -31.5q5 -8 12 -21.5t23 -44.5z" />
    <glyph glyph-name="onequarter" unicode="&#xbc;" horiz-adv-x="636" 
d="M37 0zM101 354q33 -2 123.5 -4t135.5 -2t136.5 2t124.5 4q5 -3 2 -12t-9 -12q-35 3 -123.5 5t-135.5 2q-48 0 -137 -2t-124 -5q-5 3 -2 11.5t9 12.5zM276 429zM424 693q-6 -1 -6.5 2.5t3.5 4.5q48 13 104.5 36t79.5 40q4 3 6 4t6 1q5 0 7 -3t0 -7q-6 -11 -65.5 -117.5
t-90.5 -162.5q-15 -27 -8.5 -41t33.5 -14q4 0 3.5 -3.5t-4.5 -3.5h-9.5h-19.5q-35 1 -57.5 1h-44.5h-24.5t-38.5 -1h-13.5h-5.5q-4 0 -3 3.5t5 3.5q25 0 45 13.5t38 42.5q3 5 19.5 33.5t59.5 103.5q21 37 27.5 48.5t7.5 13.5q3 5 1.5 8.5t-7.5 3.5q-7 0 -20.5 -3t-27.5 -7z
M274 -92q-31 1 -46 1h-24q-6 0 -18.5 -0.5t-39.5 -0.5q-16 -1 -21.5 -1h-7.5q-4 0 -3 3.5t5 3.5q30 0 50 13t35 43q4 7 8.5 15t9.5 18h-88.5h-88.5q-7 0 -8 9t6 13q60 36 163 102t181 119q27 18 38.5 24t18.5 6q7 -1 7.5 -7t-5.5 -17q-2 -3 -8.5 -15.5t-27.5 -53.5
q-24 -45 -37 -70t-24 -45h27q32 0 49 10t41 47q3 5 7 3t0 -7q-14 -21 -32 -53t-32 -60q-2 -3 -6 -4t-10 -1h-39h-39q-2 -3 -7.5 -14.5t-8.5 -17.5q-14 -29 -8.5 -43t31.5 -14q3 0 2.5 -3.5t-4.5 -3.5h-14t-32 1zM298 174l-147 -96q-2 -1 -5.5 -3.5t-8.5 -6.5h122
q28 49 39.5 69t16.5 31q4 8 4.5 12t-1.5 4q-3 0 -7.5 -2.5t-12.5 -7.5z" />
    <glyph glyph-name="onehalf" unicode="&#xbd;" horiz-adv-x="636" 
d="M6 0zM101 354q33 -2 123.5 -4t135.5 -2t136.5 2t124.5 4q5 -3 2 -12t-9 -12q-35 3 -123.5 5t-135.5 2q-48 0 -137 -2t-124 -5q-5 3 -2 11.5t9 12.5zM276 429zM424 693q-6 -1 -6.5 2.5t3.5 4.5q48 13 104.5 36t79.5 40q4 3 6 4t6 1q5 0 7 -3t0 -7q-6 -11 -65.5 -117.5
t-90.5 -162.5q-15 -27 -8.5 -41t33.5 -14q4 0 3.5 -3.5t-4.5 -3.5h-9.5h-19.5q-35 1 -57.5 1h-44.5h-24.5t-38.5 -1h-13.5h-5.5q-4 0 -3 3.5t5 3.5q25 0 45 13.5t38 42.5q3 5 19.5 33.5t59.5 103.5q21 37 27.5 48.5t7.5 13.5q3 5 1.5 8.5t-7.5 3.5q-7 0 -20.5 -3t-27.5 -7z
M232 -97q-21 1 -31 1h-17q-31 0 -70.5 -0.5t-90.5 -1.5h-9h-2q-4 0 -5.5 8.5t4.5 11.5q67 34 97.5 50t52.5 29q61 35 97 67.5t50 65.5q17 39 4 65t-52 26q-17 0 -28 -5t-16 -16q-7 -14 -13 -43t-8 -38q-5 -21 -17.5 -31t-33.5 -10q-24 0 -31.5 17t6.5 39q11 19 35.5 39.5
t61.5 41.5q36 20 65.5 29.5t57.5 9.5q47 0 70 -34.5t2 -78.5q-14 -27 -59 -56.5t-198 -101.5h109q47 0 67.5 8t45.5 43q3 4 6.5 3t0.5 -6q-6 -11 -35.5 -56.5t-43.5 -64.5q-3 -4 -7.5 -6.5t-12.5 -4.5h-13h-39z" />
    <glyph glyph-name="threequarters" unicode="&#xbe;" horiz-adv-x="636" 
d="M37 0zM101 354q33 -2 123.5 -4t135.5 -2t136.5 2t124.5 4q5 -3 2 -12t-9 -12q-35 3 -123.5 5t-135.5 2q-48 0 -137 -2t-124 -5q-5 3 -2 11.5t9 12.5zM255 419zM452 444q-29 -12 -57.5 -18.5t-53.5 -6.5q-47 0 -70 18t-13 49q7 20 34.5 33.5t81.5 22.5q4 1 5 -2t-3 -5
q-12 -4 -20 -11t-12 -17q-8 -27 12 -43.5t55 -16.5q9 0 16 0.5t14 2.5q12 5 19.5 14t15.5 30q17 45 10 83.5t-33 39.5q-10 0 -19 -4t-24 -18q-13 -11 -20.5 -14.5t-14.5 -3.5t-12.5 5.5t-5.5 13.5q0 10 8.5 16.5t23.5 7.5q60 3 95.5 17t48.5 40q16 33 2.5 56t-50.5 23
q-14 0 -23 -4.5t-14 -13.5q-4 -8 -7.5 -19t-8.5 -33q-4 -20 -14.5 -30t-27.5 -10q-24 0 -32.5 14t4.5 33q7 11 20.5 21.5t68.5 38.5q32 16 60.5 24.5t50.5 8.5q44 0 66 -30.5t2 -68.5q-8 -14 -25 -24t-48 -18q-16 -4 -45 -10.5t-40 -8.5q10 1 18.5 2t16.5 1q58 0 80.5 -30
t-1.5 -73q-11 -20 -37 -36.5t-97 -45.5zM274 -92q-31 1 -46 1h-24q-6 0 -18.5 -0.5t-39.5 -0.5q-16 -1 -21.5 -1h-7.5q-4 0 -3 3.5t5 3.5q30 0 50 13t35 43q4 7 8.5 15t9.5 18h-88.5h-88.5q-7 0 -8 9t6 13q60 36 163 102t181 119q27 18 38.5 24t18.5 6q7 -1 7.5 -7t-5.5 -17
q-2 -3 -8.5 -15.5t-27.5 -53.5q-24 -45 -37 -70t-24 -45h27q32 0 49 10t41 47q3 5 7 3t0 -7q-14 -21 -32 -53t-32 -60q-2 -3 -6 -4t-10 -1h-39h-39q-2 -3 -7.5 -14.5t-8.5 -17.5q-14 -29 -8.5 -43t31.5 -14q3 0 2.5 -3.5t-4.5 -3.5h-14t-32 1zM298 174l-147 -96
q-2 -1 -5.5 -3.5t-8.5 -6.5h122q28 49 39.5 69t16.5 31q4 8 4.5 12t-1.5 4q-3 0 -7.5 -2.5t-12.5 -7.5z" />
    <glyph glyph-name="questiondown" unicode="&#xbf;" horiz-adv-x="557" 
d="M337 504q7 5 26 8t39 3q27 0 41 -4.5t19 -14.5q5 -23 -12.5 -62.5t-40.5 -51.5q-6 -4 -25.5 -6.5t-36.5 -2.5q-23 0 -40 6t-19 16q-4 24 12.5 60t36.5 49zM293 319q3 1 9 2t15 1q10 0 19.5 -1t11.5 -3q19 -13 35 -41t16 -48q0 -24 -6 -44.5t-20 -41.5q-19 -30 -59 -57.5
t-141 -73.5q-112 -51 -154 -83t-58 -67q-33 -74 13.5 -129.5t144.5 -55.5q69 0 113 25.5t59 75.5q15 48 -12.5 84.5t-77.5 36.5q-20 0 -43 -7.5t-48 -22.5l-5 5q76 42 120.5 58t76.5 16q60 0 89.5 -38t12.5 -95q-19 -63 -103 -104t-182 -40q-62 0 -115 15.5t-90 44.5
q-48 37 -62.5 88.5t8.5 103.5q16 38 60.5 70t162.5 80q91 37 124.5 58t48.5 43q9 14 13 26t4 26q-1 13 -10 24t-22 14q-16 -7 -44 -27.5t-75 -61.5l-6 7q58 50 96 79.5t81 57.5z" />
    <glyph glyph-name="Agrave" unicode="&#xc0;" horiz-adv-x="1343" 
d="M37 0zM573 176q-155 -173 -210.5 -212t-120.5 -39q-50 0 -93.5 24t-73.5 66q-31 44 -36.5 94.5t16.5 91.5q21 40 75 81.5t124 72.5q54 24 109.5 36.5t105.5 12.5q30 0 75 -1t195 -5q29 35 65.5 78.5t108.5 130.5q52 63 76 91.5t42 50.5q-34 -1 -65 -2.5t-58 -4.5
q-29 -3 -60.5 -7.5t-83.5 -11.5q-39 -6 -52 -7.5t-18 -1.5q-7 0 4.5 15t53.5 58q15 16 20 21t6 7q7 4 45.5 6t117.5 2h157q66 0 135.5 0.5t172.5 2.5q39 1 53.5 1h22.5q12 0 20 -1t12 -2q0 -11 -27 -46t-45 -46q-11 -3 -50 -1.5t-142 10.5q-48 4 -68 5t-32 2
q-16 -90 -33.5 -186.5t-30.5 -174.5q87 -1 112 -1.5t44 -0.5q59 0 84 -0.5t39 -1.5q8 0 12.5 -2t4.5 -5q0 -4 -2 -7.5t-7 -8.5q-17 -20 -43.5 -41.5t-37.5 -23.5q-21 -4 -51.5 -3.5t-34.5 0.5q-23 0 -54 1.5t-81 5.5q-6 -37 -9 -58.5t-5 -35.5q-5 -42 -5.5 -78t4.5 -54
q4 -16 16 -24t31 -9q22 9 75.5 49t83.5 69l6 -6q-61 -56 -130 -111t-104 -74q-12 -6 -33.5 -6.5t-26.5 3.5q-14 11 -23.5 28.5t-12.5 40.5q-5 34 -4 63.5t7 68.5q4 24 10.5 61.5t14.5 83.5q-25 3 -55.5 6.5t-91.5 11.5q-44 5 -66 8t-40 5q-63 -76 -97 -116t-43 -49z
M1049 749l-293 -351q19 -1 42 -1.5t69 -2.5q47 -2 70 -2.5t43 -1.5q32 168 46 240.5t23 118.5zM257 348q-29 -14 -50 -38t-38 -62q-17 -35 -12.5 -76t29.5 -77q24 -34 60 -53t78 -19q58 0 103.5 30t126.5 122q21 22 79 91.5t64 76.5q-134 16 -206.5 22t-119.5 6
q-32 0 -60 -5.5t-54 -17.5zM1171 882l-2 2t-2 1q-12 12 -29.5 26t-53.5 41q-27 19 -36.5 26.5t-13.5 12.5q-9 10 -12 22.5t0 25.5q4 12 15.5 20.5t24.5 8.5q11 0 24 -10t20 -23l5 -10t10 -22q20 -44 32 -68t23 -42q2 -3 3 -5t0 -3q0 -2 -1.5 -3t-3.5 -1q-1 0 -1.5 0.5
t-1.5 0.5z" />
    <glyph glyph-name="Aacute" unicode="&#xc1;" horiz-adv-x="1343" 
d="M37 0zM573 176q-155 -173 -210.5 -212t-120.5 -39q-50 0 -93.5 24t-73.5 66q-31 44 -36.5 94.5t16.5 91.5q21 40 75 81.5t124 72.5q54 24 109.5 36.5t105.5 12.5q30 0 75 -1t195 -5q29 35 65.5 78.5t108.5 130.5q52 63 76 91.5t42 50.5q-34 -1 -65 -2.5t-58 -4.5
q-29 -3 -60.5 -7.5t-83.5 -11.5q-39 -6 -52 -7.5t-18 -1.5q-7 0 4.5 15t53.5 58q15 16 20 21t6 7q7 4 45.5 6t117.5 2h157q66 0 135.5 0.5t172.5 2.5q39 1 53.5 1h22.5q12 0 20 -1t12 -2q0 -11 -27 -46t-45 -46q-11 -3 -50 -1.5t-142 10.5q-48 4 -68 5t-32 2
q-16 -90 -33.5 -186.5t-30.5 -174.5q87 -1 112 -1.5t44 -0.5q59 0 84 -0.5t39 -1.5q8 0 12.5 -2t4.5 -5q0 -4 -2 -7.5t-7 -8.5q-17 -20 -43.5 -41.5t-37.5 -23.5q-21 -4 -51.5 -3.5t-34.5 0.5q-23 0 -54 1.5t-81 5.5q-6 -37 -9 -58.5t-5 -35.5q-5 -42 -5.5 -78t4.5 -54
q4 -16 16 -24t31 -9q22 9 75.5 49t83.5 69l6 -6q-61 -56 -130 -111t-104 -74q-12 -6 -33.5 -6.5t-26.5 3.5q-14 11 -23.5 28.5t-12.5 40.5q-5 34 -4 63.5t7 68.5q4 24 10.5 61.5t14.5 83.5q-25 3 -55.5 6.5t-91.5 11.5q-44 5 -66 8t-40 5q-63 -76 -97 -116t-43 -49z
M1049 749l-293 -351q19 -1 42 -1.5t69 -2.5q47 -2 70 -2.5t43 -1.5q32 168 46 240.5t23 118.5zM257 348q-29 -14 -50 -38t-38 -62q-17 -35 -12.5 -76t29.5 -77q24 -34 60 -53t78 -19q58 0 103.5 30t126.5 122q21 22 79 91.5t64 76.5q-134 16 -206.5 22t-119.5 6
q-32 0 -60 -5.5t-54 -17.5zM1240 1052q8 7 19 11t22 4q13 0 22 -10t9 -23q0 -11 -5.5 -20t-15.5 -17q-7 -5 -20.5 -12.5t-50.5 -27.5q-56 -29 -82.5 -44t-43.5 -28q-2 -2 -4 -3t-4 -1t-3.5 1t-1.5 3q0 1 0.5 2t2.5 2t2.5 2t1.5 2q20 16 46.5 42.5t72.5 79.5q17 20 23 26.5
t10 10.5z" />
    <glyph glyph-name="Acircumflex" unicode="&#xc2;" horiz-adv-x="1343" 
d="M37 0zM573 176q-155 -173 -210.5 -212t-120.5 -39q-50 0 -93.5 24t-73.5 66q-31 44 -36.5 94.5t16.5 91.5q21 40 75 81.5t124 72.5q54 24 109.5 36.5t105.5 12.5q30 0 75 -1t195 -5q29 35 65.5 78.5t108.5 130.5q52 63 76 91.5t42 50.5q-34 -1 -65 -2.5t-58 -4.5
q-29 -3 -60.5 -7.5t-83.5 -11.5q-39 -6 -52 -7.5t-18 -1.5q-7 0 4.5 15t53.5 58q15 16 20 21t6 7q7 4 45.5 6t117.5 2h157q66 0 135.5 0.5t172.5 2.5q39 1 53.5 1h22.5q12 0 20 -1t12 -2q0 -11 -27 -46t-45 -46q-11 -3 -50 -1.5t-142 10.5q-48 4 -68 5t-32 2
q-16 -90 -33.5 -186.5t-30.5 -174.5q87 -1 112 -1.5t44 -0.5q59 0 84 -0.5t39 -1.5q8 0 12.5 -2t4.5 -5q0 -4 -2 -7.5t-7 -8.5q-17 -20 -43.5 -41.5t-37.5 -23.5q-21 -4 -51.5 -3.5t-34.5 0.5q-23 0 -54 1.5t-81 5.5q-6 -37 -9 -58.5t-5 -35.5q-5 -42 -5.5 -78t4.5 -54
q4 -16 16 -24t31 -9q22 9 75.5 49t83.5 69l6 -6q-61 -56 -130 -111t-104 -74q-12 -6 -33.5 -6.5t-26.5 3.5q-14 11 -23.5 28.5t-12.5 40.5q-5 34 -4 63.5t7 68.5q4 24 10.5 61.5t14.5 83.5q-25 3 -55.5 6.5t-91.5 11.5q-44 5 -66 8t-40 5q-63 -76 -97 -116t-43 -49z
M1049 749l-293 -351q19 -1 42 -1.5t69 -2.5q47 -2 70 -2.5t43 -1.5q32 168 46 240.5t23 118.5zM257 348q-29 -14 -50 -38t-38 -62q-17 -35 -12.5 -76t29.5 -77q24 -34 60 -53t78 -19q58 0 103.5 30t126.5 122q21 22 79 91.5t64 76.5q-134 16 -206.5 22t-119.5 6
q-32 0 -60 -5.5t-54 -17.5zM1306 905q0 -14 -12.5 -23.5t-32.5 -9.5t-29.5 7t-12.5 24q-1 8 -1.5 19t-0.5 35q0 28 -0.5 42t-2.5 26q-1 4 -3 5t-6 -2q-16 -10 -29.5 -22t-27.5 -27q-10 -10 -26 -29t-22 -26q-10 -12 -23.5 -18t-30.5 -6q-19 0 -29 6.5t-10 19.5q0 23 59 55.5
t140 55.5q6 2 8.5 1.5t5.5 -3.5q35 -34 60.5 -72t25.5 -58z" />
    <glyph glyph-name="Atilde" unicode="&#xc3;" horiz-adv-x="1343" 
d="M37 0zM573 176q-155 -173 -210.5 -212t-120.5 -39q-50 0 -93.5 24t-73.5 66q-31 44 -36.5 94.5t16.5 91.5q21 40 75 81.5t124 72.5q54 24 109.5 36.5t105.5 12.5q30 0 75 -1t195 -5q29 35 65.5 78.5t108.5 130.5q52 63 76 91.5t42 50.5q-34 -1 -65 -2.5t-58 -4.5
q-29 -3 -60.5 -7.5t-83.5 -11.5q-39 -6 -52 -7.5t-18 -1.5q-7 0 4.5 15t53.5 58q15 16 20 21t6 7q7 4 45.5 6t117.5 2h157q66 0 135.5 0.5t172.5 2.5q39 1 53.5 1h22.5q12 0 20 -1t12 -2q0 -11 -27 -46t-45 -46q-11 -3 -50 -1.5t-142 10.5q-48 4 -68 5t-32 2
q-16 -90 -33.5 -186.5t-30.5 -174.5q87 -1 112 -1.5t44 -0.5q59 0 84 -0.5t39 -1.5q8 0 12.5 -2t4.5 -5q0 -4 -2 -7.5t-7 -8.5q-17 -20 -43.5 -41.5t-37.5 -23.5q-21 -4 -51.5 -3.5t-34.5 0.5q-23 0 -54 1.5t-81 5.5q-6 -37 -9 -58.5t-5 -35.5q-5 -42 -5.5 -78t4.5 -54
q4 -16 16 -24t31 -9q22 9 75.5 49t83.5 69l6 -6q-61 -56 -130 -111t-104 -74q-12 -6 -33.5 -6.5t-26.5 3.5q-14 11 -23.5 28.5t-12.5 40.5q-5 34 -4 63.5t7 68.5q4 24 10.5 61.5t14.5 83.5q-25 3 -55.5 6.5t-91.5 11.5q-44 5 -66 8t-40 5q-63 -76 -97 -116t-43 -49z
M1049 749l-293 -351q19 -1 42 -1.5t69 -2.5q47 -2 70 -2.5t43 -1.5q32 168 46 240.5t23 118.5zM257 348q-29 -14 -50 -38t-38 -62q-17 -35 -12.5 -76t29.5 -77q24 -34 60 -53t78 -19q58 0 103.5 30t126.5 122q21 22 79 91.5t64 76.5q-134 16 -206.5 22t-119.5 6
q-32 0 -60 -5.5t-54 -17.5zM988 893q-2 -4 -6.5 -2t-0.5 7q31 52 66 80t68 28q11 0 26.5 -2.5t50.5 -9.5q34 -7 49 -9.5t26 -2.5q20 0 34.5 16.5t24.5 50.5q2 5 7 4t4 -6q-18 -62 -55 -100.5t-77 -38.5q-16 0 -34.5 3.5t-54.5 13.5q-30 8 -43 10.5t-23 2.5q-18 0 -33 -11
t-29 -34z" />
    <glyph glyph-name="Adieresis" unicode="&#xc4;" horiz-adv-x="1343" 
d="M37 0zM573 176q-155 -173 -210.5 -212t-120.5 -39q-50 0 -93.5 24t-73.5 66q-31 44 -36.5 94.5t16.5 91.5q21 40 75 81.5t124 72.5q54 24 109.5 36.5t105.5 12.5q30 0 75 -1t195 -5q29 35 65.5 78.5t108.5 130.5q52 63 76 91.5t42 50.5q-34 -1 -65 -2.5t-58 -4.5
q-29 -3 -60.5 -7.5t-83.5 -11.5q-39 -6 -52 -7.5t-18 -1.5q-7 0 4.5 15t53.5 58q15 16 20 21t6 7q7 4 45.5 6t117.5 2h157q66 0 135.5 0.5t172.5 2.5q39 1 53.5 1h22.5q12 0 20 -1t12 -2q0 -11 -27 -46t-45 -46q-11 -3 -50 -1.5t-142 10.5q-48 4 -68 5t-32 2
q-16 -90 -33.5 -186.5t-30.5 -174.5q87 -1 112 -1.5t44 -0.5q59 0 84 -0.5t39 -1.5q8 0 12.5 -2t4.5 -5q0 -4 -2 -7.5t-7 -8.5q-17 -20 -43.5 -41.5t-37.5 -23.5q-21 -4 -51.5 -3.5t-34.5 0.5q-23 0 -54 1.5t-81 5.5q-6 -37 -9 -58.5t-5 -35.5q-5 -42 -5.5 -78t4.5 -54
q4 -16 16 -24t31 -9q22 9 75.5 49t83.5 69l6 -6q-61 -56 -130 -111t-104 -74q-12 -6 -33.5 -6.5t-26.5 3.5q-14 11 -23.5 28.5t-12.5 40.5q-5 34 -4 63.5t7 68.5q4 24 10.5 61.5t14.5 83.5q-25 3 -55.5 6.5t-91.5 11.5q-44 5 -66 8t-40 5q-63 -76 -97 -116t-43 -49z
M1049 749l-293 -351q19 -1 42 -1.5t69 -2.5q47 -2 70 -2.5t43 -1.5q32 168 46 240.5t23 118.5zM257 348q-29 -14 -50 -38t-38 -62q-17 -35 -12.5 -76t29.5 -77q24 -34 60 -53t78 -19q58 0 103.5 30t126.5 122q21 22 79 91.5t64 76.5q-134 16 -206.5 22t-119.5 6
q-32 0 -60 -5.5t-54 -17.5zM1265 910q-16 0 -26.5 2.5t-16.5 7.5q-2 21 17 62t36 51q8 5 22 8t29 3q18 0 33 -5t21 -13q0 -24 -31 -63.5t-51 -47.5q-6 -2 -15 -3.5t-18 -1.5zM1053 910q-16 0 -25.5 2.5t-16.5 7.5q-3 21 16 62.5t37 50.5q8 5 22 8t30 3q17 0 32.5 -5
t19.5 -13q1 -25 -30 -64t-52 -47q-5 -2 -14 -3.5t-19 -1.5z" />
    <glyph glyph-name="Aring" unicode="&#xc5;" horiz-adv-x="1343" 
d="M37 0zM573 176q-155 -173 -210.5 -212t-120.5 -39q-50 0 -93.5 24t-73.5 66q-31 44 -36.5 94.5t16.5 91.5q21 40 75 81.5t124 72.5q54 24 109.5 36.5t105.5 12.5q30 0 75 -1t195 -5q29 35 65.5 78.5t108.5 130.5q52 63 76 91.5t42 50.5q-34 -1 -65 -2.5t-58 -4.5
q-29 -3 -60.5 -7.5t-83.5 -11.5q-39 -6 -52 -7.5t-18 -1.5q-7 0 4.5 15t53.5 58q15 16 20 21t6 7q7 4 45.5 6t117.5 2h157q66 0 135.5 0.5t172.5 2.5q39 1 53.5 1h22.5q12 0 20 -1t12 -2q0 -11 -27 -46t-45 -46q-11 -3 -50 -1.5t-142 10.5q-48 4 -68 5t-32 2
q-16 -90 -33.5 -186.5t-30.5 -174.5q87 -1 112 -1.5t44 -0.5q59 0 84 -0.5t39 -1.5q8 0 12.5 -2t4.5 -5q0 -4 -2 -7.5t-7 -8.5q-17 -20 -43.5 -41.5t-37.5 -23.5q-21 -4 -51.5 -3.5t-34.5 0.5q-23 0 -54 1.5t-81 5.5q-6 -37 -9 -58.5t-5 -35.5q-5 -42 -5.5 -78t4.5 -54
q4 -16 16 -24t31 -9q22 9 75.5 49t83.5 69l6 -6q-61 -56 -130 -111t-104 -74q-12 -6 -33.5 -6.5t-26.5 3.5q-14 11 -23.5 28.5t-12.5 40.5q-5 34 -4 63.5t7 68.5q4 24 10.5 61.5t14.5 83.5q-25 3 -55.5 6.5t-91.5 11.5q-44 5 -66 8t-40 5q-63 -76 -97 -116t-43 -49z
M1049 749l-293 -351q19 -1 42 -1.5t69 -2.5q47 -2 70 -2.5t43 -1.5q32 168 46 240.5t23 118.5zM257 348q-29 -14 -50 -38t-38 -62q-17 -35 -12.5 -76t29.5 -77q24 -34 60 -53t78 -19q58 0 103.5 30t126.5 122q21 22 79 91.5t64 76.5q-134 16 -206.5 22t-119.5 6
q-32 0 -60 -5.5t-54 -17.5zM1158 880q-39 0 -66 27t-27 65q0 39 27.5 66.5t65.5 27.5q39 0 66.5 -27.5t27.5 -66.5q0 -38 -27.5 -65t-66.5 -27zM1158 1051q-32 0 -54 -23t-22 -56q0 -32 22 -54.5t54 -22.5q33 0 55 22t22 55t-22 56t-55 23z" />
    <glyph glyph-name="AE" unicode="&#xc6;" horiz-adv-x="1656" 
d="M1226 747q-13 1 -27 1h-39q-92 0 -136.5 -2.5t-86.5 -6.5q-28 -3 -59 -7t-80 -11q-34 -5 -44 -6t-14 -1q-8 0 3 17.5t50 63.5q10 11 13 14.5t4 5.5q8 4 48.5 6t123.5 2h154q101 0 217 1t300 4q70 1 94.5 1.5t36.5 0.5t20 -1t12 -2q0 -11 -27 -46t-45 -46q-17 -4 -79 -3.5
t-304 10.5q-10 -69 -26.5 -145.5t-34.5 -138.5q26 -1 56.5 -1h83.5q59 0 84 -0.5t38 -1.5q10 -1 13.5 -2.5t3.5 -4.5t-2.5 -7.5t-8.5 -11.5q-19 -21 -43 -40t-35 -21t-21.5 -3t-49.5 -1q-21 0 -53.5 1.5t-95.5 5.5q-43 -103 -109.5 -175.5t-154.5 -111.5q21 -2 46 -3t53 -1
q55 0 122.5 6t136.5 17q86 13 131.5 19t51.5 6q5 0 7 -2t2 -7q0 -11 -30.5 -50t-54.5 -58q-7 -4 -42 -5.5t-110 -1.5h-165q-60 0 -128 -1.5t-171 -4.5q-36 -1 -48.5 -1.5t-18.5 -0.5q-31 0 -49 6.5t-20 17.5q-3 18 20 48t52 43q9 1 22 -1t43 -11q34 -11 52 -14.5t34 -3.5
q27 0 48 7.5t37 21.5q33 31 63.5 97.5t61.5 173.5q-67 5 -129.5 10.5t-119.5 10.5q-62 -65 -124.5 -126t-108.5 -102q-138 -128 -232 -185t-169 -57q-55 0 -103.5 27t-81.5 76q-34 49 -41 105.5t15 102.5q49 101 167 163t273 62q72 0 188.5 -1.5t251.5 -3.5q40 40 85.5 84.5
t126.5 124.5q34 33 49 48zM959 463q35 -1 76 -2t138 -2q9 31 40 158t32 129l-3 1q-46 -49 -126.5 -129.5t-156.5 -154.5zM394 441q-83 0 -140.5 -32.5t-83.5 -91.5q-20 -47 -17 -102t28 -104q27 -53 71 -83.5t96 -30.5q55 0 129.5 44.5t180.5 141.5q47 41 108 100.5
t118 120.5q-6 0 -210.5 18.5t-279.5 18.5z" />
    <glyph glyph-name="Ccedilla" unicode="&#xc7;" horiz-adv-x="861" 
d="M829 177q-153 -174 -253 -238.5t-192 -64.5h-4.5h-4.5q-23 -23 -32.5 -33.5t-16.5 -19.5q-1 -3 -0.5 -3.5t6.5 -0.5q56 4 85.5 -25t15.5 -75q-14 -44 -59.5 -73t-96.5 -29q-36 0 -59.5 14.5t-19.5 33.5q2 13 20.5 24t37.5 11q11 0 19 -5t19 -21q13 -18 23 -23.5t24 -5.5
q16 0 29.5 10t17.5 26q13 37 -21 61t-97 12q-5 -1 -8.5 -3t-8.5 -8q-3 -4 -5.5 -5t-5.5 -1q-7 0 -7 5.5t9 12.5q23 20 71 70.5t49 51.5q-108 5 -176.5 67.5t-83.5 168.5q-12 85 14 180.5t86 182.5q48 70 124 137.5t164 116.5q90 51 183.5 77.5t184.5 26.5q56 0 117.5 -13.5
t137.5 -44.5q3 -1 4 -3t1 -5q0 -11 -51.5 -49t-68.5 -38q-8 0 -14 1t-14 4q-24 8 -72 32t-74 34q-40 17 -78.5 24.5t-77.5 7.5q-85 0 -167.5 -64t-161.5 -191q-50 -81 -74.5 -170.5t-17.5 -168.5q9 -105 68.5 -164t159.5 -59q82 0 155 44t189 174q3 2 7 -0.5t1 -5.5z" />
    <glyph glyph-name="Egrave" unicode="&#xc8;" horiz-adv-x="1066" 
d="M57 0zM201 -2q-40 -1 -54 -1.5t-21 -0.5q-30 0 -47.5 6t-21.5 18q-3 18 20 48t52 43q8 3 24.5 0.5t59.5 -14.5q44 -13 65.5 -17.5t37.5 -4.5q22 0 40 7t31 21q41 40 90 165t55 140q-68 11 -112.5 16.5t-80.5 9.5q-5 1 -6.5 1.5t-1.5 2.5t1.5 2.5t8.5 0.5q45 0 98.5 1
t108.5 2q1 1 1.5 2.5t0.5 3.5q1 2 1.5 3.5t1.5 2.5q42 96 105.5 166t141.5 107q-76 22 -139.5 32t-119.5 10q-48 0 -82.5 -7t-61.5 -21q-46 -25 -81.5 -84.5t-70.5 -169.5q-17 -54 -39 -75t-60 -21q-43 0 -53 28.5t20 74.5q49 76 121.5 142t158.5 112q75 39 153.5 58.5
t158.5 19.5q58 0 133 -12t198 -41q95 -23 132.5 -35.5t40.5 -20.5q4 -9 -28 -42.5t-47 -35.5q-15 -1 -66 11.5t-124 33.5q-9 3 -58 18t-81 24q-15 -9 -32 -40t-42 -95q-7 -18 -25.5 -67.5t-30.5 -78.5q74 2 132 3.5t90 1.5q40 0 70 -2.5t43 -7.5q12 -3 -20.5 -42t-50.5 -44
t-37 -5t-56 4q-17 2 -40.5 5.5t-156.5 26.5q-52 -112 -119.5 -187t-154.5 -116q24 -2 45 -3t45 -1q77 0 156.5 6t148.5 17q135 19 157.5 22t29.5 3q5 0 7 -2.5t1 -6.5q-1 -13 -31 -51.5t-53 -56.5q-8 -4 -43.5 -5.5t-111.5 -1.5h-195q-67 0 -141.5 -1.5t-188.5 -4.5z
M970 850l-2 2t-2 1q-12 12 -29.5 26t-53.5 41q-27 19 -36.5 26.5t-13.5 12.5q-9 10 -12 22.5t0 25.5q4 12 15.5 20.5t24.5 8.5q11 0 24 -10t20 -23l5 -10t10 -22q20 -44 32 -68t23 -42q2 -3 3 -5t0 -3q0 -2 -1.5 -3t-3.5 -1q-1 0 -1.5 0.5t-1.5 0.5z" />
    <glyph glyph-name="Eacute" unicode="&#xc9;" horiz-adv-x="1066" 
d="M57 0zM201 -2q-40 -1 -54 -1.5t-21 -0.5q-30 0 -47.5 6t-21.5 18q-3 18 20 48t52 43q8 3 24.5 0.5t59.5 -14.5q44 -13 65.5 -17.5t37.5 -4.5q22 0 40 7t31 21q41 40 90 165t55 140q-68 11 -112.5 16.5t-80.5 9.5q-5 1 -6.5 1.5t-1.5 2.5t1.5 2.5t8.5 0.5q45 0 98.5 1
t108.5 2q1 1 1.5 2.5t0.5 3.5q1 2 1.5 3.5t1.5 2.5q42 96 105.5 166t141.5 107q-76 22 -139.5 32t-119.5 10q-48 0 -82.5 -7t-61.5 -21q-46 -25 -81.5 -84.5t-70.5 -169.5q-17 -54 -39 -75t-60 -21q-43 0 -53 28.5t20 74.5q49 76 121.5 142t158.5 112q75 39 153.5 58.5
t158.5 19.5q58 0 133 -12t198 -41q95 -23 132.5 -35.5t40.5 -20.5q4 -9 -28 -42.5t-47 -35.5q-15 -1 -66 11.5t-124 33.5q-9 3 -58 18t-81 24q-15 -9 -32 -40t-42 -95q-7 -18 -25.5 -67.5t-30.5 -78.5q74 2 132 3.5t90 1.5q40 0 70 -2.5t43 -7.5q12 -3 -20.5 -42t-50.5 -44
t-37 -5t-56 4q-17 2 -40.5 5.5t-156.5 26.5q-52 -112 -119.5 -187t-154.5 -116q24 -2 45 -3t45 -1q77 0 156.5 6t148.5 17q135 19 157.5 22t29.5 3q5 0 7 -2.5t1 -6.5q-1 -13 -31 -51.5t-53 -56.5q-8 -4 -43.5 -5.5t-111.5 -1.5h-195q-67 0 -141.5 -1.5t-188.5 -4.5z
M1039 1020q8 7 19 11t22 4q13 0 22 -10t9 -23q0 -11 -5.5 -20t-15.5 -17q-7 -5 -20.5 -12.5t-50.5 -27.5q-56 -29 -82.5 -44t-43.5 -28q-2 -2 -4 -3t-4 -1t-3.5 1t-1.5 3q0 1 0.5 2t2.5 2t2.5 2t1.5 2q20 16 46.5 42.5t72.5 79.5q17 20 23 26.5t10 10.5z" />
    <glyph glyph-name="Ecircumflex" unicode="&#xca;" horiz-adv-x="1066" 
d="M57 0zM201 -2q-40 -1 -54 -1.5t-21 -0.5q-30 0 -47.5 6t-21.5 18q-3 18 20 48t52 43q8 3 24.5 0.5t59.5 -14.5q44 -13 65.5 -17.5t37.5 -4.5q22 0 40 7t31 21q41 40 90 165t55 140q-68 11 -112.5 16.5t-80.5 9.5q-5 1 -6.5 1.5t-1.5 2.5t1.5 2.5t8.5 0.5q45 0 98.5 1
t108.5 2q1 1 1.5 2.5t0.5 3.5q1 2 1.5 3.5t1.5 2.5q42 96 105.5 166t141.5 107q-76 22 -139.5 32t-119.5 10q-48 0 -82.5 -7t-61.5 -21q-46 -25 -81.5 -84.5t-70.5 -169.5q-17 -54 -39 -75t-60 -21q-43 0 -53 28.5t20 74.5q49 76 121.5 142t158.5 112q75 39 153.5 58.5
t158.5 19.5q58 0 133 -12t198 -41q95 -23 132.5 -35.5t40.5 -20.5q4 -9 -28 -42.5t-47 -35.5q-15 -1 -66 11.5t-124 33.5q-9 3 -58 18t-81 24q-15 -9 -32 -40t-42 -95q-7 -18 -25.5 -67.5t-30.5 -78.5q74 2 132 3.5t90 1.5q40 0 70 -2.5t43 -7.5q12 -3 -20.5 -42t-50.5 -44
t-37 -5t-56 4q-17 2 -40.5 5.5t-156.5 26.5q-52 -112 -119.5 -187t-154.5 -116q24 -2 45 -3t45 -1q77 0 156.5 6t148.5 17q135 19 157.5 22t29.5 3q5 0 7 -2.5t1 -6.5q-1 -13 -31 -51.5t-53 -56.5q-8 -4 -43.5 -5.5t-111.5 -1.5h-195q-67 0 -141.5 -1.5t-188.5 -4.5z
M1105 873q0 -14 -12.5 -23.5t-32.5 -9.5t-29.5 7t-12.5 24q-1 8 -1.5 19t-0.5 35q0 28 -0.5 42t-2.5 26q-1 4 -3 5t-6 -2q-16 -10 -29.5 -22t-27.5 -27q-10 -10 -26 -29t-22 -26q-10 -12 -23.5 -18t-30.5 -6q-19 0 -29 6.5t-10 19.5q0 23 59 55.5t140 55.5q6 2 8.5 1.5
t5.5 -3.5q35 -34 60.5 -72t25.5 -58z" />
    <glyph glyph-name="Edieresis" unicode="&#xcb;" horiz-adv-x="1066" 
d="M57 0zM201 -2q-40 -1 -54 -1.5t-21 -0.5q-30 0 -47.5 6t-21.5 18q-3 18 20 48t52 43q8 3 24.5 0.5t59.5 -14.5q44 -13 65.5 -17.5t37.5 -4.5q22 0 40 7t31 21q41 40 90 165t55 140q-68 11 -112.5 16.5t-80.5 9.5q-5 1 -6.5 1.5t-1.5 2.5t1.5 2.5t8.5 0.5q45 0 98.5 1
t108.5 2q1 1 1.5 2.5t0.5 3.5q1 2 1.5 3.5t1.5 2.5q42 96 105.5 166t141.5 107q-76 22 -139.5 32t-119.5 10q-48 0 -82.5 -7t-61.5 -21q-46 -25 -81.5 -84.5t-70.5 -169.5q-17 -54 -39 -75t-60 -21q-43 0 -53 28.5t20 74.5q49 76 121.5 142t158.5 112q75 39 153.5 58.5
t158.5 19.5q58 0 133 -12t198 -41q95 -23 132.5 -35.5t40.5 -20.5q4 -9 -28 -42.5t-47 -35.5q-15 -1 -66 11.5t-124 33.5q-9 3 -58 18t-81 24q-15 -9 -32 -40t-42 -95q-7 -18 -25.5 -67.5t-30.5 -78.5q74 2 132 3.5t90 1.5q40 0 70 -2.5t43 -7.5q12 -3 -20.5 -42t-50.5 -44
t-37 -5t-56 4q-17 2 -40.5 5.5t-156.5 26.5q-52 -112 -119.5 -187t-154.5 -116q24 -2 45 -3t45 -1q77 0 156.5 6t148.5 17q135 19 157.5 22t29.5 3q5 0 7 -2.5t1 -6.5q-1 -13 -31 -51.5t-53 -56.5q-8 -4 -43.5 -5.5t-111.5 -1.5h-195q-67 0 -141.5 -1.5t-188.5 -4.5z
M1044 876q-16 0 -26.5 2.5t-16.5 7.5q-2 21 17 62t36 51q8 5 22 8t29 3q18 0 33 -5t21 -13q0 -24 -31 -63.5t-51 -47.5q-6 -2 -15 -3.5t-18 -1.5zM832 876q-16 0 -25.5 2.5t-16.5 7.5q-3 21 16 62.5t37 50.5q8 5 22 8t30 3q17 0 32.5 -5t19.5 -13q1 -25 -30 -64t-52 -47
q-5 -2 -14 -3.5t-19 -1.5z" />
    <glyph glyph-name="Igrave" unicode="&#xcc;" horiz-adv-x="823" 
d="M20 0zM119 -2q-23 -1 -30 -1h-10q-22 0 -37.5 4t-21.5 11q-1 11 29 51.5t43 44.5q6 2 18.5 0.5t44.5 -8.5q38 -8 57.5 -10.5t35.5 -2.5q41 0 64.5 6t40.5 20q27 22 47.5 53.5t46.5 92.5q7 17 28.5 71.5t37.5 92.5q55 131 122.5 207t169.5 116q-6 1 -25.5 1.5t-37.5 0.5
q-26 0 -68 -4.5t-134 -19.5q-67 -10 -92.5 -13t-38.5 -3q-14 0 27 54.5t61 62.5q5 3 26 3t79 -4q32 -3 45.5 -3.5t22.5 -0.5q45 0 118 1.5t204 5.5q39 1 51 1.5t15 0.5q23 0 38.5 -3.5t20.5 -10.5q2 -9 -27 -45t-48 -48q-7 -2 -21 -0.5t-53 9.5q-46 10 -70 13t-42 3
q-23 0 -40.5 -5t-30.5 -16q-18 -14 -32.5 -40t-43.5 -108q-22 -60 -34.5 -93.5t-25.5 -66.5q-53 -131 -133 -212t-194 -117q4 -3 11 -4t20 -1q21 0 61 4t136 17q95 13 131.5 16.5t52.5 2.5q11 0 3 -25.5t-28 -51.5q-16 -22 -34.5 -33.5t-35.5 -11.5l-139 3q-75 1 -165 -0.5
t-216 -6.5zM849 882l-2 2t-2 1q-12 12 -29.5 26t-53.5 41q-27 19 -36.5 26.5t-13.5 12.5q-9 10 -12 22.5t0 25.5q4 12 15.5 20.5t24.5 8.5q11 0 24 -10t20 -23l5 -10t10 -22q20 -44 32 -68t23 -42q2 -3 3 -5t0 -3q0 -2 -1.5 -3t-3.5 -1q-1 0 -1.5 0.5t-1.5 0.5z" />
    <glyph glyph-name="Iacute" unicode="&#xcd;" horiz-adv-x="823" 
d="M20 0zM119 -2q-23 -1 -30 -1h-10q-22 0 -37.5 4t-21.5 11q-1 11 29 51.5t43 44.5q6 2 18.5 0.5t44.5 -8.5q38 -8 57.5 -10.5t35.5 -2.5q41 0 64.5 6t40.5 20q27 22 47.5 53.5t46.5 92.5q7 17 28.5 71.5t37.5 92.5q55 131 122.5 207t169.5 116q-6 1 -25.5 1.5t-37.5 0.5
q-26 0 -68 -4.5t-134 -19.5q-67 -10 -92.5 -13t-38.5 -3q-14 0 27 54.5t61 62.5q5 3 26 3t79 -4q32 -3 45.5 -3.5t22.5 -0.5q45 0 118 1.5t204 5.5q39 1 51 1.5t15 0.5q23 0 38.5 -3.5t20.5 -10.5q2 -9 -27 -45t-48 -48q-7 -2 -21 -0.5t-53 9.5q-46 10 -70 13t-42 3
q-23 0 -40.5 -5t-30.5 -16q-18 -14 -32.5 -40t-43.5 -108q-22 -60 -34.5 -93.5t-25.5 -66.5q-53 -131 -133 -212t-194 -117q4 -3 11 -4t20 -1q21 0 61 4t136 17q95 13 131.5 16.5t52.5 2.5q11 0 3 -25.5t-28 -51.5q-16 -22 -34.5 -33.5t-35.5 -11.5l-139 3q-75 1 -165 -0.5
t-216 -6.5zM918 1052q8 7 19 11t22 4q13 0 22 -10t9 -23q0 -11 -5.5 -20t-15.5 -17q-7 -5 -20.5 -12.5t-50.5 -27.5q-56 -29 -82.5 -44t-43.5 -28q-2 -2 -4 -3t-4 -1t-3.5 1t-1.5 3q0 1 0.5 2t2.5 2t2.5 2t1.5 2q20 16 46.5 42.5t72.5 79.5q17 20 23 26.5t10 10.5z" />
    <glyph glyph-name="Icircumflex" unicode="&#xce;" horiz-adv-x="823" 
d="M20 0zM119 -2q-23 -1 -30 -1h-10q-22 0 -37.5 4t-21.5 11q-1 11 29 51.5t43 44.5q6 2 18.5 0.5t44.5 -8.5q38 -8 57.5 -10.5t35.5 -2.5q41 0 64.5 6t40.5 20q27 22 47.5 53.5t46.5 92.5q7 17 28.5 71.5t37.5 92.5q55 131 122.5 207t169.5 116q-6 1 -25.5 1.5t-37.5 0.5
q-26 0 -68 -4.5t-134 -19.5q-67 -10 -92.5 -13t-38.5 -3q-14 0 27 54.5t61 62.5q5 3 26 3t79 -4q32 -3 45.5 -3.5t22.5 -0.5q45 0 118 1.5t204 5.5q39 1 51 1.5t15 0.5q23 0 38.5 -3.5t20.5 -10.5q2 -9 -27 -45t-48 -48q-7 -2 -21 -0.5t-53 9.5q-46 10 -70 13t-42 3
q-23 0 -40.5 -5t-30.5 -16q-18 -14 -32.5 -40t-43.5 -108q-22 -60 -34.5 -93.5t-25.5 -66.5q-53 -131 -133 -212t-194 -117q4 -3 11 -4t20 -1q21 0 61 4t136 17q95 13 131.5 16.5t52.5 2.5q11 0 3 -25.5t-28 -51.5q-16 -22 -34.5 -33.5t-35.5 -11.5l-139 3q-75 1 -165 -0.5
t-216 -6.5zM984 905q0 -14 -12.5 -23.5t-32.5 -9.5t-29.5 7t-12.5 24q-1 8 -1.5 19t-0.5 35q0 28 -0.5 42t-2.5 26q-1 4 -3 5t-6 -2q-16 -10 -29.5 -22t-27.5 -27q-10 -10 -26 -29t-22 -26q-10 -12 -23.5 -18t-30.5 -6q-19 0 -29 6.5t-10 19.5q0 23 59 55.5t140 55.5
q6 2 8.5 1.5t5.5 -3.5q35 -34 60.5 -72t25.5 -58z" />
    <glyph glyph-name="Idieresis" unicode="&#xcf;" horiz-adv-x="823" 
d="M20 0zM119 -2q-23 -1 -30 -1h-10q-22 0 -37.5 4t-21.5 11q-1 11 29 51.5t43 44.5q6 2 18.5 0.5t44.5 -8.5q38 -8 57.5 -10.5t35.5 -2.5q41 0 64.5 6t40.5 20q27 22 47.5 53.5t46.5 92.5q7 17 28.5 71.5t37.5 92.5q55 131 122.5 207t169.5 116q-6 1 -25.5 1.5t-37.5 0.5
q-26 0 -68 -4.5t-134 -19.5q-67 -10 -92.5 -13t-38.5 -3q-14 0 27 54.5t61 62.5q5 3 26 3t79 -4q32 -3 45.5 -3.5t22.5 -0.5q45 0 118 1.5t204 5.5q39 1 51 1.5t15 0.5q23 0 38.5 -3.5t20.5 -10.5q2 -9 -27 -45t-48 -48q-7 -2 -21 -0.5t-53 9.5q-46 10 -70 13t-42 3
q-23 0 -40.5 -5t-30.5 -16q-18 -14 -32.5 -40t-43.5 -108q-22 -60 -34.5 -93.5t-25.5 -66.5q-53 -131 -133 -212t-194 -117q4 -3 11 -4t20 -1q21 0 61 4t136 17q95 13 131.5 16.5t52.5 2.5q11 0 3 -25.5t-28 -51.5q-16 -22 -34.5 -33.5t-35.5 -11.5l-139 3q-75 1 -165 -0.5
t-216 -6.5zM923 908q-16 0 -26.5 2.5t-16.5 7.5q-2 21 17 62t36 51q8 5 22 8t29 3q18 0 33 -5t21 -13q0 -24 -31 -63.5t-51 -47.5q-6 -2 -15 -3.5t-18 -1.5zM711 908q-16 0 -25.5 2.5t-16.5 7.5q-3 21 16 62.5t37 50.5q8 5 22 8t30 3q17 0 32.5 -5t19.5 -13q1 -25 -30 -64
t-52 -47q-5 -2 -14 -3.5t-19 -1.5z" />
    <glyph glyph-name="Eth" unicode="&#xd0;" horiz-adv-x="1168" 
d="M426 -25q-170 0 -225 0.5t-86 1.5q-28 0 -44 7t-20 20q-5 18 22.5 53.5t56.5 46.5q12 5 32 3t67 -15q35 -10 52 -13t29 -3q33 0 44.5 4t21.5 15q40 40 89.5 164t50.5 126q-42 -1 -85 -3t-73 -4q-5 3 -3 14t9 14q23 -2 65 -4t92 -4q4 9 8.5 20t14.5 33q44 99 113 171.5
t165 120.5l4 -1q-21 -10 -41.5 -44t-50.5 -109q-4 -8 -27.5 -69t-40.5 -99q-1 -2 -2 -4.5t-4 -7.5l-3 -7.5t-2 -4.5q49 1 103 3.5t93 5.5q6 -4 3.5 -15t-8.5 -13q-49 3 -100.5 5.5t-95.5 3.5q-55 -116 -127 -194t-166 -123q36 -5 137.5 -8t192.5 -1q76 1 129.5 13t88.5 36
q29 21 57 57.5t50 83.5q42 89 38.5 185.5t-51.5 172.5q-47 76 -129.5 116t-191.5 40q-91 0 -162.5 -16t-119.5 -47q-31 -20 -55 -58t-63 -143q-16 -44 -40 -63t-62 -19q-43 0 -49 25t24 70q33 45 84.5 88.5t154.5 106.5q108 68 200.5 97.5t187.5 29.5q111 0 196.5 -41.5
t135.5 -119.5q52 -81 55.5 -182t-41.5 -185q-24 -46 -78 -96.5t-137 -106.5q-37 -25 -58 -38t-47 -29q-40 -23 -74 -35t-71 -18q-24 -5 -88.5 -7.5t-144.5 -2.5z" />
    <glyph glyph-name="Ntilde" unicode="&#xd1;" horiz-adv-x="1172" 
d="M0 0zM379 95q-113 -140 -183.5 -182t-174.5 -42q-60 0 -145 18t-94 29q-8 11 36 61.5t62 55.5q8 1 26 -2.5t68 -17.5q82 -23 124 -31t74 -8q39 0 76 24.5t120 118.5q28 32 88 115.5t299 433.5q-20 85 -48 125t-72 40q-12 0 -26.5 -3.5t-30.5 -11.5q-32 -14 -89.5 -54.5
t-106.5 -83.5l-6 6q53 47 124.5 100.5t135.5 92.5q29 18 55 26.5t52 8.5q53 0 85.5 -56t56.5 -183q25 -135 45 -267t39 -287q128 212 214 342.5t137 192.5q85 103 156 148t159 45q56 0 121 -13t80 -23q1 -1 1.5 -2t0.5 -3q0 -19 -39 -64.5t-57 -45.5q-12 0 -28.5 3t-56.5 14
q-61 16 -96 21.5t-67 5.5q-42 0 -79.5 -23t-78.5 -74q-68 -85 -162.5 -225.5t-202.5 -316.5q-6 -10 -33 -54.5t-42 -68.5q-7 -11 -13 -14.5t-11 0.5q-3 1 -6 13.5t-13 90.5q-23 174 -45 308t-50 275q-230 -346 -292 -436t-87 -122zM1010 875q-2 -4 -6.5 -2t-0.5 7
q31 52 66 80t68 28q11 0 26.5 -2.5t50.5 -9.5q34 -7 49 -9.5t26 -2.5q20 0 34.5 16.5t24.5 50.5q2 5 7 4t4 -6q-18 -62 -55 -100.5t-77 -38.5q-16 0 -34.5 3.5t-54.5 13.5q-30 8 -43 10.5t-23 2.5q-18 0 -33 -11t-29 -34z" />
    <glyph glyph-name="Ograve" unicode="&#xd2;" horiz-adv-x="1082" 
d="M161 0zM792 103q-103 -61 -181 -87t-150 -26q-101 0 -172 43t-104 123q-30 75 -22.5 165t50.5 167q32 62 94.5 121t163.5 120q84 51 165 78t153 28q103 1 175 -42.5t106 -124.5q30 -74 22 -164t-52 -172q-29 -56 -97 -118t-151 -111zM317 226q34 -77 104 -119t167 -42
q62 0 110.5 11t85.5 34q35 20 69 62.5t65 102.5q42 80 49 169t-23 162q-33 79 -104 121t-173 41q-50 1 -101.5 -11.5t-87.5 -34.5q-42 -27 -75.5 -67.5t-66.5 -105.5q-41 -76 -46 -163t27 -160zM811 882l-2 2t-2 1q-12 12 -29.5 26t-53.5 41q-27 19 -36.5 26.5t-13.5 12.5
q-9 10 -12 22.5t0 25.5q4 12 15.5 20.5t24.5 8.5q11 0 24 -10t20 -23l5 -10t10 -22q20 -44 32 -68t23 -42q2 -3 3 -5t0 -3q0 -2 -1.5 -3t-3.5 -1q-1 0 -1.5 0.5t-1.5 0.5z" />
    <glyph glyph-name="Oacute" unicode="&#xd3;" horiz-adv-x="1082" 
d="M161 0zM792 103q-103 -61 -181 -87t-150 -26q-101 0 -172 43t-104 123q-30 75 -22.5 165t50.5 167q32 62 94.5 121t163.5 120q84 51 165 78t153 28q103 1 175 -42.5t106 -124.5q30 -74 22 -164t-52 -172q-29 -56 -97 -118t-151 -111zM317 226q34 -77 104 -119t167 -42
q62 0 110.5 11t85.5 34q35 20 69 62.5t65 102.5q42 80 49 169t-23 162q-33 79 -104 121t-173 41q-50 1 -101.5 -11.5t-87.5 -34.5q-42 -27 -75.5 -67.5t-66.5 -105.5q-41 -76 -46 -163t27 -160zM880 1052q8 7 19 11t22 4q13 0 22 -10t9 -23q0 -11 -5.5 -20t-15.5 -17
q-7 -5 -20.5 -12.5t-50.5 -27.5q-56 -29 -82.5 -44t-43.5 -28q-2 -2 -4 -3t-4 -1t-3.5 1t-1.5 3q0 1 0.5 2t2.5 2t2.5 2t1.5 2q20 16 46.5 42.5t72.5 79.5q17 20 23 26.5t10 10.5z" />
    <glyph glyph-name="Ocircumflex" unicode="&#xd4;" horiz-adv-x="1082" 
d="M161 0zM792 103q-103 -61 -181 -87t-150 -26q-101 0 -172 43t-104 123q-30 75 -22.5 165t50.5 167q32 62 94.5 121t163.5 120q84 51 165 78t153 28q103 1 175 -42.5t106 -124.5q30 -74 22 -164t-52 -172q-29 -56 -97 -118t-151 -111zM317 226q34 -77 104 -119t167 -42
q62 0 110.5 11t85.5 34q35 20 69 62.5t65 102.5q42 80 49 169t-23 162q-33 79 -104 121t-173 41q-50 1 -101.5 -11.5t-87.5 -34.5q-42 -27 -75.5 -67.5t-66.5 -105.5q-41 -76 -46 -163t27 -160zM946 905q0 -14 -12.5 -23.5t-32.5 -9.5t-29.5 7t-12.5 24q-1 8 -1.5 19
t-0.5 35q0 28 -0.5 42t-2.5 26q-1 4 -3 5t-6 -2q-16 -10 -29.5 -22t-27.5 -27q-10 -10 -26 -29t-22 -26q-10 -12 -23.5 -18t-30.5 -6q-19 0 -29 6.5t-10 19.5q0 23 59 55.5t140 55.5q6 2 8.5 1.5t5.5 -3.5q35 -34 60.5 -72t25.5 -58z" />
    <glyph glyph-name="Otilde" unicode="&#xd5;" horiz-adv-x="1082" 
d="M161 0zM792 103q-103 -61 -181 -87t-150 -26q-101 0 -172 43t-104 123q-30 75 -22.5 165t50.5 167q32 62 94.5 121t163.5 120q84 51 165 78t153 28q103 1 175 -42.5t106 -124.5q30 -74 22 -164t-52 -172q-29 -56 -97 -118t-151 -111zM317 226q34 -77 104 -119t167 -42
q62 0 110.5 11t85.5 34q35 20 69 62.5t65 102.5q42 80 49 169t-23 162q-33 79 -104 121t-173 41q-50 1 -101.5 -11.5t-87.5 -34.5q-42 -27 -75.5 -67.5t-66.5 -105.5q-41 -76 -46 -163t27 -160zM628 893q-2 -4 -6.5 -2t-0.5 7q31 52 66 80t68 28q11 0 26.5 -2.5t50.5 -9.5
q34 -7 49 -9.5t26 -2.5q20 0 34.5 16.5t24.5 50.5q2 5 7 4t4 -6q-18 -62 -55 -100.5t-77 -38.5q-16 0 -34.5 3.5t-54.5 13.5q-30 8 -43 10.5t-23 2.5q-18 0 -33 -11t-29 -34z" />
    <glyph glyph-name="Odieresis" unicode="&#xd6;" horiz-adv-x="1082" 
d="M161 0zM792 103q-103 -61 -181 -87t-150 -26q-101 0 -172 43t-104 123q-30 75 -22.5 165t50.5 167q32 62 94.5 121t163.5 120q84 51 165 78t153 28q103 1 175 -42.5t106 -124.5q30 -74 22 -164t-52 -172q-29 -56 -97 -118t-151 -111zM317 226q34 -77 104 -119t167 -42
q62 0 110.5 11t85.5 34q35 20 69 62.5t65 102.5q42 80 49 169t-23 162q-33 79 -104 121t-173 41q-50 1 -101.5 -11.5t-87.5 -34.5q-42 -27 -75.5 -67.5t-66.5 -105.5q-41 -76 -46 -163t27 -160zM885 908q-16 0 -26.5 2.5t-16.5 7.5q-2 21 17 62t36 51q8 5 22 8t29 3
q18 0 33 -5t21 -13q0 -24 -31 -63.5t-51 -47.5q-6 -2 -15 -3.5t-18 -1.5zM673 908q-16 0 -25.5 2.5t-16.5 7.5q-3 21 16 62.5t37 50.5q8 5 22 8t30 3q17 0 32.5 -5t19.5 -13q1 -25 -30 -64t-52 -47q-5 -2 -14 -3.5t-19 -1.5z" />
    <glyph glyph-name="multiply" unicode="&#xd7;" 
d="M236 406q-13 11 -38 31.5t-37 30.5q-1 6 6.5 14.5t17.5 14.5q43 -51 74.5 -86t57.5 -61q29 29 65 70t67 80q9 0 16 -6t11 -16q-26 -20 -61 -51.5t-90 -85.5q21 -21 60 -54t89 -73q0 -7 -8 -16t-16 -11q-16 23 -43.5 53.5t-89.5 92.5q-35 -35 -71.5 -76.5t-63.5 -76.5
q-8 1 -15.5 8.5t-12.5 17.5q39 30 79.5 65.5t74.5 69.5q-14 14 -31.5 30t-40.5 35z" />
    <glyph glyph-name="Oslash" unicode="&#xd8;" horiz-adv-x="1082" 
d="M792 103q-103 -61 -181 -87t-150 -26q-65 0 -118 18t-91 53l-53.5 -53.5l-53.5 -53.5q-11 -5 -20 0.5t-7 19.5q20 18 44 39.5l72 64.5q-67 75 -72 191.5t51 218.5q32 62 94.5 121t163.5 120q84 51 165 78t153 28q61 1 112.5 -15t90.5 -47l42.5 42.5l42.5 42.5
q12 5 20.5 -1t5.5 -20q-20 -17 -52.5 -46.5t-38.5 -35.5q74 -73 81.5 -192.5t-53.5 -230.5q-29 -56 -97 -118t-151 -111zM478 722q-42 -27 -75.5 -67.5t-66.5 -105.5q-50 -93 -46.5 -198t59.5 -179q9 8 105 95t150 138q27 26 62 59t109 103q50 48 75 71.5t46 43.5
q-40 43 -98 65t-131 21q-50 1 -101.5 -11.5t-87.5 -34.5zM362 156q40 -45 97 -68t129 -23q62 0 110.5 11t85.5 34q35 20 69 62.5t65 102.5q53 101 50.5 211t-61.5 183q-68 -61 -143.5 -131.5t-149.5 -142.5q-16 -15 -35 -33l-57 -54q-66 -62 -99 -93.5t-61 -58.5z" />
    <glyph glyph-name="Ugrave" unicode="&#xd9;" horiz-adv-x="999" 
d="M128 0zM653 196q-79 -90 -183 -164t-163 -74q-70 0 -122.5 53.5t-56.5 129.5q-3 53 26 117t139 210q16 22 45 59t40 52q36 48 50 75t13 46q-1 13 -10.5 28.5t-20.5 23.5q-20 -6 -92.5 -55.5t-102.5 -76.5l-5 6q36 32 134.5 102.5t136.5 87.5q5 2 12 3t14 1
q10 0 18.5 -1.5t11.5 -4.5q17 -13 30.5 -35.5t17.5 -45.5q5 -35 -28.5 -95.5t-121.5 -172.5q-67 -86 -81.5 -105t-25.5 -36q-37 -52 -52.5 -91t-13.5 -70q5 -55 41 -94.5t84 -39.5q47 0 143.5 70t142.5 130q13 21 30 47t52 77q27 41 40 60t23 35q9 13 29 43.5t52 77.5
q38 57 49 82t10 46q-2 15 -10 30t-19 23q-20 -6 -90.5 -54.5t-102.5 -75.5l-5 6q39 34 133 102.5t131 85.5q4 2 10.5 3.5t14.5 1.5q11 0 19 -2t10 -4q18 -13 32 -35.5t17 -45.5q5 -38 -22.5 -95.5t-117.5 -189.5q-14 -20 -55.5 -79.5t-62.5 -90.5q-51 -76 -71.5 -117
t-20.5 -65q1 -20 12 -34.5t26 -17.5q22 5 73.5 44.5t99.5 84.5l5 -7q-132 -120 -178.5 -155t-74.5 -48q-4 -2 -9 -2.5t-11 -0.5q-9 0 -18.5 2t-13.5 4q-27 18 -42.5 39t-18.5 43q-2 24 11.5 60.5t43.5 88.5zM812 849l-2 2t-2 1q-12 12 -29.5 26t-53.5 41q-27 19 -36.5 26.5
t-13.5 12.5q-9 10 -12 22.5t0 25.5q4 12 15.5 20.5t24.5 8.5q11 0 24 -10t20 -23l5 -10t10 -22q20 -44 32 -68t23 -42q2 -3 3 -5t0 -3q0 -2 -1.5 -3t-3.5 -1q-1 0 -1.5 0.5t-1.5 0.5z" />
    <glyph glyph-name="Uacute" unicode="&#xda;" horiz-adv-x="999" 
d="M128 0zM653 196q-79 -90 -183 -164t-163 -74q-70 0 -122.5 53.5t-56.5 129.5q-3 53 26 117t139 210q16 22 45 59t40 52q36 48 50 75t13 46q-1 13 -10.5 28.5t-20.5 23.5q-20 -6 -92.5 -55.5t-102.5 -76.5l-5 6q36 32 134.5 102.5t136.5 87.5q5 2 12 3t14 1
q10 0 18.5 -1.5t11.5 -4.5q17 -13 30.5 -35.5t17.5 -45.5q5 -35 -28.5 -95.5t-121.5 -172.5q-67 -86 -81.5 -105t-25.5 -36q-37 -52 -52.5 -91t-13.5 -70q5 -55 41 -94.5t84 -39.5q47 0 143.5 70t142.5 130q13 21 30 47t52 77q27 41 40 60t23 35q9 13 29 43.5t52 77.5
q38 57 49 82t10 46q-2 15 -10 30t-19 23q-20 -6 -90.5 -54.5t-102.5 -75.5l-5 6q39 34 133 102.5t131 85.5q4 2 10.5 3.5t14.5 1.5q11 0 19 -2t10 -4q18 -13 32 -35.5t17 -45.5q5 -38 -22.5 -95.5t-117.5 -189.5q-14 -20 -55.5 -79.5t-62.5 -90.5q-51 -76 -71.5 -117
t-20.5 -65q1 -20 12 -34.5t26 -17.5q22 5 73.5 44.5t99.5 84.5l5 -7q-132 -120 -178.5 -155t-74.5 -48q-4 -2 -9 -2.5t-11 -0.5q-9 0 -18.5 2t-13.5 4q-27 18 -42.5 39t-18.5 43q-2 24 11.5 60.5t43.5 88.5zM881 1019q8 7 19 11t22 4q13 0 22 -10t9 -23q0 -11 -5.5 -20
t-15.5 -17q-7 -5 -20.5 -12.5t-50.5 -27.5q-56 -29 -82.5 -44t-43.5 -28q-2 -2 -4 -3t-4 -1t-3.5 1t-1.5 3q0 1 0.5 2t2.5 2t2.5 2t1.5 2q20 16 46.5 42.5t72.5 79.5q17 20 23 26.5t10 10.5z" />
    <glyph glyph-name="Ucircumflex" unicode="&#xdb;" horiz-adv-x="999" 
d="M128 0zM653 196q-79 -90 -183 -164t-163 -74q-70 0 -122.5 53.5t-56.5 129.5q-3 53 26 117t139 210q16 22 45 59t40 52q36 48 50 75t13 46q-1 13 -10.5 28.5t-20.5 23.5q-20 -6 -92.5 -55.5t-102.5 -76.5l-5 6q36 32 134.5 102.5t136.5 87.5q5 2 12 3t14 1
q10 0 18.5 -1.5t11.5 -4.5q17 -13 30.5 -35.5t17.5 -45.5q5 -35 -28.5 -95.5t-121.5 -172.5q-67 -86 -81.5 -105t-25.5 -36q-37 -52 -52.5 -91t-13.5 -70q5 -55 41 -94.5t84 -39.5q47 0 143.5 70t142.5 130q13 21 30 47t52 77q27 41 40 60t23 35q9 13 29 43.5t52 77.5
q38 57 49 82t10 46q-2 15 -10 30t-19 23q-20 -6 -90.5 -54.5t-102.5 -75.5l-5 6q39 34 133 102.5t131 85.5q4 2 10.5 3.5t14.5 1.5q11 0 19 -2t10 -4q18 -13 32 -35.5t17 -45.5q5 -38 -22.5 -95.5t-117.5 -189.5q-14 -20 -55.5 -79.5t-62.5 -90.5q-51 -76 -71.5 -117
t-20.5 -65q1 -20 12 -34.5t26 -17.5q22 5 73.5 44.5t99.5 84.5l5 -7q-132 -120 -178.5 -155t-74.5 -48q-4 -2 -9 -2.5t-11 -0.5q-9 0 -18.5 2t-13.5 4q-27 18 -42.5 39t-18.5 43q-2 24 11.5 60.5t43.5 88.5zM947 872q0 -14 -12.5 -23.5t-32.5 -9.5t-29.5 7t-12.5 24
q-1 8 -1.5 19t-0.5 35q0 28 -0.5 42t-2.5 26q-1 4 -3 5t-6 -2q-16 -10 -29.5 -22t-27.5 -27q-10 -10 -26 -29t-22 -26q-10 -12 -23.5 -18t-30.5 -6q-19 0 -29 6.5t-10 19.5q0 23 59 55.5t140 55.5q6 2 8.5 1.5t5.5 -3.5q35 -34 60.5 -72t25.5 -58z" />
    <glyph glyph-name="Udieresis" unicode="&#xdc;" horiz-adv-x="999" 
d="M128 0zM653 196q-79 -90 -183 -164t-163 -74q-70 0 -122.5 53.5t-56.5 129.5q-3 53 26 117t139 210q16 22 45 59t40 52q36 48 50 75t13 46q-1 13 -10.5 28.5t-20.5 23.5q-20 -6 -92.5 -55.5t-102.5 -76.5l-5 6q36 32 134.5 102.5t136.5 87.5q5 2 12 3t14 1
q10 0 18.5 -1.5t11.5 -4.5q17 -13 30.5 -35.5t17.5 -45.5q5 -35 -28.5 -95.5t-121.5 -172.5q-67 -86 -81.5 -105t-25.5 -36q-37 -52 -52.5 -91t-13.5 -70q5 -55 41 -94.5t84 -39.5q47 0 143.5 70t142.5 130q13 21 30 47t52 77q27 41 40 60t23 35q9 13 29 43.5t52 77.5
q38 57 49 82t10 46q-2 15 -10 30t-19 23q-20 -6 -90.5 -54.5t-102.5 -75.5l-5 6q39 34 133 102.5t131 85.5q4 2 10.5 3.5t14.5 1.5q11 0 19 -2t10 -4q18 -13 32 -35.5t17 -45.5q5 -38 -22.5 -95.5t-117.5 -189.5q-14 -20 -55.5 -79.5t-62.5 -90.5q-51 -76 -71.5 -117
t-20.5 -65q1 -20 12 -34.5t26 -17.5q22 5 73.5 44.5t99.5 84.5l5 -7q-132 -120 -178.5 -155t-74.5 -48q-4 -2 -9 -2.5t-11 -0.5q-9 0 -18.5 2t-13.5 4q-27 18 -42.5 39t-18.5 43q-2 24 11.5 60.5t43.5 88.5zM885 875q-16 0 -26.5 2.5t-16.5 7.5q-2 21 17 62t36 51q8 5 22 8
t29 3q18 0 33 -5t21 -13q0 -24 -31 -63.5t-51 -47.5q-6 -2 -15 -3.5t-18 -1.5zM673 875q-16 0 -25.5 2.5t-16.5 7.5q-3 21 16 62.5t37 50.5q8 5 22 8t30 3q17 0 32.5 -5t19.5 -13q1 -25 -30 -64t-52 -47q-5 -2 -14 -3.5t-19 -1.5z" />
    <glyph glyph-name="Yacute" unicode="&#xdd;" horiz-adv-x="743" 
d="M14 0zM566 4q-3 -1 -73 -0.5t-74 0.5q-61 0 -130.5 -1t-172.5 -4q-32 -1 -43 -1h-16q-16 0 -27 3t-16 9q-1 10 28 48t43 42q2 1 4.5 1.5t7.5 0.5t15.5 -1t36.5 -4q35 -4 50.5 -5t25.5 -1q32 0 56.5 7t45.5 21q26 19 48.5 51.5t68.5 130.5q6 14 14 31.5t23 54.5
q11 24 16 35.5t9 21.5q-26 96 -52 161t-55 103q-12 15 -26 25t-28 12q-25 -8 -95.5 -52t-104.5 -73l-6 7q45 35 147.5 105.5t143.5 92.5q4 3 9.5 4t12.5 1q5 0 9.5 -1t8.5 -3q13 -7 25 -19.5t20 -27.5q35 -65 62 -141.5t49 -175.5q16 13 23.5 19t15.5 13q70 60 130.5 117.5
t106.5 108.5q46 49 87.5 97t74.5 92q7 4 18 6.5t23 2.5q24 0 38.5 -14.5t14.5 -37.5q0 -20 -10.5 -36t-32.5 -31q-8 -6 -20.5 -14t-44.5 -29q-42 -27 -65.5 -42.5t-43.5 -29.5q-86 -60 -151 -107.5t-118 -89.5q-5 -4 -17.5 -14.5t-32.5 -27.5q-25 -69 -40.5 -107.5
t-32.5 -76.5q-41 -83 -110 -123.5t-180 -46.5q15 -3 35 -4.5t38 -1.5q21 0 57.5 4t122.5 15q78 11 108 14.5t45 2.5h1l-1 -1q-2 -1 -3 -2t-1 -2q0 -24 -33 -67.5t-62 -44.5zM850 1052q8 7 19 11t22 4q13 0 22 -10t9 -23q0 -11 -5.5 -20t-15.5 -17q-7 -5 -20.5 -12.5
t-50.5 -27.5q-56 -29 -82.5 -44t-43.5 -28q-2 -2 -4 -3t-4 -1t-3.5 1t-1.5 3q0 1 0.5 2t2.5 2t2.5 2t1.5 2q20 16 46.5 42.5t72.5 79.5q17 20 23 26.5t10 10.5z" />
    <glyph glyph-name="Thorn" unicode="&#xde;" horiz-adv-x="1055" 
d="M446 257q6 14 28 69.5t39 96.5q56 133 123.5 209.5t168.5 116.5q-13 1 -27 2t-27 1q-41 0 -90.5 -5.5t-139.5 -22.5q-54 -10 -76 -13t-36 -3t27 54.5t61 62.5q5 2 25.5 2.5t83.5 -3.5q50 -2 74.5 -3t43.5 -1q29 0 85 1.5t172 5.5q45 1 59 1.5t18 0.5q23 0 38.5 -3.5
t20.5 -10.5q2 -9 -20.5 -39.5t-38.5 -40.5q-8 -2 -25.5 -1.5t-64.5 7.5q-47 6 -70.5 8t-41.5 2q-22 0 -39.5 -5t-31.5 -16q-19 -15 -34 -41.5t-44 -105.5q-25 -68 -36.5 -98.5t-23.5 -60.5q-8 -20 -15 -35t-13 -28q106 123 222 225.5t162 109.5q39 -30 61.5 -79t22.5 -102
q0 -68 -30 -132t-84 -113q-52 -47 -118 -72t-137 -25q-53 0 -98 12.5t-88 40.5q-44 -51 -96 -87t-114 -57q8 -2 18 -3t27 -1q24 0 70 3.5t159 13.5q108 10 148 13t57 2q10 0 1 -24t-28 -46q-16 -19 -33.5 -29t-34.5 -10l-206 4q-74 1 -165 -0.5t-221 -6.5q-25 -1 -32.5 -1
h-10.5q-22 0 -37.5 4t-21.5 11q-1 11 29 51.5t44 44.5q6 2 18.5 0.5t46.5 -10.5q40 -10 61 -13t37 -3q41 0 64.5 6t40.5 20q27 22 47 54t46 95zM973 433q0 57 -19.5 104t-56.5 79q-47 -33 -139 -121.5t-154 -170.5q45 -56 99 -88t105 -32q74 0 119.5 64t45.5 165z" />
    <glyph glyph-name="germandbls" unicode="&#xdf;" horiz-adv-x="660" 
d="M261 572q72 107 183 176.5t215 69.5q71 0 112.5 -37t34.5 -93q-3 -38 -27 -67.5t-73 -53.5q-24 -13 -77 -33t-74 -32q-33 -18 -46 -32.5t-16 -33.5q-3 -20 4 -46t31 -76q21 -42 30.5 -76t9.5 -62q0 -48 -23 -87.5t-67 -68.5q-27 -17 -59.5 -26.5t-65.5 -9.5
q-41 0 -71.5 13.5t-42.5 37.5q-20 37 0.5 81t62.5 60l4 -3q9 -39 26 -72.5t39 -54.5q23 -22 49 -28t47 6q10 6 15 16t5 26q0 20 -8.5 46t-43.5 99q-16 36 -22.5 66.5t-3.5 57.5q3 52 31.5 90.5t103.5 80.5q55 31 70.5 42t27.5 22q23 21 35 46.5t14 56.5q8 53 -19.5 88.5
t-80.5 35.5q-52 0 -100.5 -50t-114.5 -168q-32 -57 -65.5 -120t-94.5 -183q-62 -121 -93.5 -180t-60.5 -110q-68 -120 -168.5 -187.5t-199.5 -67.5q-58 0 -90.5 23t-32.5 63q0 39 31 65t82 31l4 -2q-3 -20 -2 -43.5t5 -41.5q8 -33 26.5 -52t43.5 -19q40 0 73.5 39.5
t107.5 176.5q12 23 32 61t68 132q55 107 82 160t48 92h-87q-6 1 -6.5 5.5t3.5 6.5l150 97q4 6 8 12.5t11 18.5q4 7 6 10z" />
    <glyph glyph-name="agrave" unicode="&#xe0;" horiz-adv-x="604" 
d="M11 0zM102 2q-6 -3 -14.5 -5t-15.5 -2q-6 0 -12.5 1t-9.5 3q-39 24 -38.5 95t37.5 154q27 61 85 117.5t131 95.5q40 24 76.5 36.5t63.5 12.5q45 0 76.5 -19t52.5 -58q6 3 14 8.5t28 19.5q26 17 38 25t21 13q6 3 8.5 2t1.5 -6q-42 -53 -91 -126t-81 -132
q-27 -49 -40 -85.5t-11 -57.5q2 -14 11.5 -26t24.5 -16q17 6 44 29t67 66l6 -7q-66 -71 -94.5 -95t-58.5 -40q-3 -2 -13 -3t-25 -1q-12 0 -23.5 1t-15.5 3q-23 17 -34.5 36t-13.5 42q-2 20 6 45t25 55q4 7 19 29t40 59q-53 -58 -113.5 -118.5t-95.5 -91.5
q-24 -21 -41.5 -34.5t-34.5 -24.5zM168 292q-22 -67 -25.5 -126.5t14.5 -77.5q7 -4 19.5 1t27.5 17q43 32 111.5 102.5t132.5 147.5q-27 55 -61 84t-69 29q-15 0 -25 -3t-20 -10q-31 -21 -59.5 -65t-45.5 -99zM478 558l-2 2t-2 1q-12 12 -29.5 26t-53.5 41
q-27 19 -36.5 26.5t-13.5 12.5q-9 10 -12 22.5t0 25.5q4 12 15.5 20.5t24.5 8.5q11 0 24 -10t20 -23l5 -10t10 -22q20 -44 32 -68t23 -42q2 -3 3 -5t0 -3q0 -2 -1.5 -3t-3.5 -1q-1 0 -1.5 0.5t-1.5 0.5z" />
    <glyph glyph-name="aacute" unicode="&#xe1;" horiz-adv-x="604" 
d="M11 0zM102 2q-6 -3 -14.5 -5t-15.5 -2q-6 0 -12.5 1t-9.5 3q-39 24 -38.5 95t37.5 154q27 61 85 117.5t131 95.5q40 24 76.5 36.5t63.5 12.5q45 0 76.5 -19t52.5 -58q6 3 14 8.5t28 19.5q26 17 38 25t21 13q6 3 8.5 2t1.5 -6q-42 -53 -91 -126t-81 -132
q-27 -49 -40 -85.5t-11 -57.5q2 -14 11.5 -26t24.5 -16q17 6 44 29t67 66l6 -7q-66 -71 -94.5 -95t-58.5 -40q-3 -2 -13 -3t-25 -1q-12 0 -23.5 1t-15.5 3q-23 17 -34.5 36t-13.5 42q-2 20 6 45t25 55q4 7 19 29t40 59q-53 -58 -113.5 -118.5t-95.5 -91.5
q-24 -21 -41.5 -34.5t-34.5 -24.5zM168 292q-22 -67 -25.5 -126.5t14.5 -77.5q7 -4 19.5 1t27.5 17q43 32 111.5 102.5t132.5 147.5q-27 55 -61 84t-69 29q-15 0 -25 -3t-20 -10q-31 -21 -59.5 -65t-45.5 -99zM547 728q8 7 19 11t22 4q13 0 22 -10t9 -23q0 -11 -5.5 -20
t-15.5 -17q-7 -5 -20.5 -12.5t-50.5 -27.5q-56 -29 -82.5 -44t-43.5 -28q-2 -2 -4 -3t-4 -1t-3.5 1t-1.5 3q0 1 0.5 2t2.5 2t2.5 2t1.5 2q20 16 46.5 42.5t72.5 79.5q17 20 23 26.5t10 10.5z" />
    <glyph glyph-name="acircumflex" unicode="&#xe2;" horiz-adv-x="604" 
d="M11 0zM102 2q-6 -3 -14.5 -5t-15.5 -2q-6 0 -12.5 1t-9.5 3q-39 24 -38.5 95t37.5 154q27 61 85 117.5t131 95.5q40 24 76.5 36.5t63.5 12.5q45 0 76.5 -19t52.5 -58q6 3 14 8.5t28 19.5q26 17 38 25t21 13q6 3 8.5 2t1.5 -6q-42 -53 -91 -126t-81 -132
q-27 -49 -40 -85.5t-11 -57.5q2 -14 11.5 -26t24.5 -16q17 6 44 29t67 66l6 -7q-66 -71 -94.5 -95t-58.5 -40q-3 -2 -13 -3t-25 -1q-12 0 -23.5 1t-15.5 3q-23 17 -34.5 36t-13.5 42q-2 20 6 45t25 55q4 7 19 29t40 59q-53 -58 -113.5 -118.5t-95.5 -91.5
q-24 -21 -41.5 -34.5t-34.5 -24.5zM168 292q-22 -67 -25.5 -126.5t14.5 -77.5q7 -4 19.5 1t27.5 17q43 32 111.5 102.5t132.5 147.5q-27 55 -61 84t-69 29q-15 0 -25 -3t-20 -10q-31 -21 -59.5 -65t-45.5 -99zM613 581q0 -14 -12.5 -23.5t-32.5 -9.5t-29.5 7t-12.5 24
q-1 8 -1.5 19t-0.5 35q0 28 -0.5 42t-2.5 26q-1 4 -3 5t-6 -2q-16 -10 -29.5 -22t-27.5 -27q-10 -10 -26 -29t-22 -26q-10 -12 -23.5 -18t-30.5 -6q-19 0 -29 6.5t-10 19.5q0 23 59 55.5t140 55.5q6 2 8.5 1.5t5.5 -3.5q35 -34 60.5 -72t25.5 -58z" />
    <glyph glyph-name="atilde" unicode="&#xe3;" horiz-adv-x="604" 
d="M11 0zM102 2q-6 -3 -14.5 -5t-15.5 -2q-6 0 -12.5 1t-9.5 3q-39 24 -38.5 95t37.5 154q27 61 85 117.5t131 95.5q40 24 76.5 36.5t63.5 12.5q45 0 76.5 -19t52.5 -58q6 3 14 8.5t28 19.5q26 17 38 25t21 13q6 3 8.5 2t1.5 -6q-42 -53 -91 -126t-81 -132
q-27 -49 -40 -85.5t-11 -57.5q2 -14 11.5 -26t24.5 -16q17 6 44 29t67 66l6 -7q-66 -71 -94.5 -95t-58.5 -40q-3 -2 -13 -3t-25 -1q-12 0 -23.5 1t-15.5 3q-23 17 -34.5 36t-13.5 42q-2 20 6 45t25 55q4 7 19 29t40 59q-53 -58 -113.5 -118.5t-95.5 -91.5
q-24 -21 -41.5 -34.5t-34.5 -24.5zM168 292q-22 -67 -25.5 -126.5t14.5 -77.5q7 -4 19.5 1t27.5 17q43 32 111.5 102.5t132.5 147.5q-27 55 -61 84t-69 29q-15 0 -25 -3t-20 -10q-31 -21 -59.5 -65t-45.5 -99zM295 569q-2 -4 -6.5 -2t-0.5 7q31 52 66 80t68 28
q11 0 26.5 -2.5t50.5 -9.5q34 -7 49 -9.5t26 -2.5q20 0 34.5 16.5t24.5 50.5q2 5 7 4t4 -6q-18 -62 -55 -100.5t-77 -38.5q-16 0 -34.5 3.5t-54.5 13.5q-30 8 -43 10.5t-23 2.5q-18 0 -33 -11t-29 -34z" />
    <glyph glyph-name="adieresis" unicode="&#xe4;" horiz-adv-x="604" 
d="M11 0zM102 2q-6 -3 -14.5 -5t-15.5 -2q-6 0 -12.5 1t-9.5 3q-39 24 -38.5 95t37.5 154q27 61 85 117.5t131 95.5q40 24 76.5 36.5t63.5 12.5q45 0 76.5 -19t52.5 -58q6 3 14 8.5t28 19.5q26 17 38 25t21 13q6 3 8.5 2t1.5 -6q-42 -53 -91 -126t-81 -132
q-27 -49 -40 -85.5t-11 -57.5q2 -14 11.5 -26t24.5 -16q17 6 44 29t67 66l6 -7q-66 -71 -94.5 -95t-58.5 -40q-3 -2 -13 -3t-25 -1q-12 0 -23.5 1t-15.5 3q-23 17 -34.5 36t-13.5 42q-2 20 6 45t25 55q4 7 19 29t40 59q-53 -58 -113.5 -118.5t-95.5 -91.5
q-24 -21 -41.5 -34.5t-34.5 -24.5zM168 292q-22 -67 -25.5 -126.5t14.5 -77.5q7 -4 19.5 1t27.5 17q43 32 111.5 102.5t132.5 147.5q-27 55 -61 84t-69 29q-15 0 -25 -3t-20 -10q-31 -21 -59.5 -65t-45.5 -99zM552 584q-16 0 -26.5 2.5t-16.5 7.5q-2 21 17 62t36 51
q8 5 22 8t29 3q18 0 33 -5t21 -13q0 -24 -31 -63.5t-51 -47.5q-6 -2 -15 -3.5t-18 -1.5zM340 584q-16 0 -25.5 2.5t-16.5 7.5q-3 21 16 62.5t37 50.5q8 5 22 8t30 3q17 0 32.5 -5t19.5 -13q1 -25 -30 -64t-52 -47q-5 -2 -14 -3.5t-19 -1.5z" />
    <glyph glyph-name="aring" unicode="&#xe5;" horiz-adv-x="604" 
d="M11 0zM102 2q-6 -3 -14.5 -5t-15.5 -2q-6 0 -12.5 1t-9.5 3q-39 24 -38.5 95t37.5 154q27 61 85 117.5t131 95.5q40 24 76.5 36.5t63.5 12.5q45 0 76.5 -19t52.5 -58q6 3 14 8.5t28 19.5q26 17 38 25t21 13q6 3 8.5 2t1.5 -6q-42 -53 -91 -126t-81 -132
q-27 -49 -40 -85.5t-11 -57.5q2 -14 11.5 -26t24.5 -16q17 6 44 29t67 66l6 -7q-66 -71 -94.5 -95t-58.5 -40q-3 -2 -13 -3t-25 -1q-12 0 -23.5 1t-15.5 3q-23 17 -34.5 36t-13.5 42q-2 20 6 45t25 55q4 7 19 29t40 59q-53 -58 -113.5 -118.5t-95.5 -91.5
q-24 -21 -41.5 -34.5t-34.5 -24.5zM168 292q-22 -67 -25.5 -126.5t14.5 -77.5q7 -4 19.5 1t27.5 17q43 32 111.5 102.5t132.5 147.5q-27 55 -61 84t-69 29q-15 0 -25 -3t-20 -10q-31 -21 -59.5 -65t-45.5 -99zM465 556q-39 0 -66 27t-27 65q0 39 27.5 66.5t65.5 27.5
q39 0 66.5 -27.5t27.5 -66.5q0 -38 -27.5 -65t-66.5 -27zM465 727q-32 0 -54 -23t-22 -56q0 -32 22 -54.5t54 -22.5q33 0 55 22t22 55t-22 56t-55 23z" />
    <glyph glyph-name="ae" unicode="&#xe6;" horiz-adv-x="783" 
d="M50 -1q-39 24 -38.5 95t37.5 154q28 61 86 117.5t130 95.5q40 24 76.5 36.5t63.5 12.5q39 0 67.5 -17.5t50.5 -54.5q6 4 12 7.5t12 7.5q57 36 90 48.5t63 12.5q41 0 64.5 -19t23.5 -51q0 -45 -53.5 -94.5t-185.5 -127.5q-29 -18 -53 -32t-47 -27v-1.5t1 -1.5v-2.5v-1.5
q8 -41 32.5 -63t61.5 -22q22 0 43.5 6.5t42.5 20.5q22 14 51 42t49 56l9 -5q-30 -40 -73 -80.5t-76 -61.5q-51 -34 -81.5 -45t-62.5 -11q-43 0 -75.5 23.5t-43.5 62.5q-10 34 -6.5 71t20.5 78q-41 -47 -86 -93t-77 -74q-24 -21 -41.5 -34.5t-34.5 -24.5q-6 -3 -14.5 -5
t-15.5 -2q-6 0 -12.5 1t-9.5 3zM204 106q40 29 107 106t119 150q-22 51 -51 79t-61 28q-15 0 -25 -3t-20 -10q-31 -21 -59.5 -65t-45.5 -99q-22 -67 -25.5 -126.5t14.5 -77.5q7 -4 19.5 1t27.5 17zM557 449q-17 -11 -35 -34.5t-36 -58.5q-21 -38 -31.5 -88t-6.5 -95
q58 34 71.5 42t23.5 15q55 37 81 61t36 50q3 6 5 15.5t2 18.5q1 35 -20 59t-52 24q-8 0 -18.5 -2.5t-19.5 -6.5z" />
    <glyph glyph-name="ccedilla" unicode="&#xe7;" horiz-adv-x="477" 
d="M153 -7h-7h-7q-45 0 -77 22.5t-42 62.5q-12 47 -4 92t35 95q24 47 78.5 98t122.5 93q52 32 90.5 45.5t71.5 13.5q42 0 67 -22t24 -58q0 -36 -30.5 -63.5t-70.5 -28.5q-15 59 -40 89t-58 30q-11 0 -21.5 -2.5t-27.5 -10.5q-19 -13 -37 -35t-35 -54q-24 -43 -35 -99.5
t-5 -104.5q7 -40 30 -61t61 -23q22 -2 45.5 4.5t47.5 20.5q26 17 53.5 43.5t45.5 52.5l9 -5q-28 -38 -69.5 -77t-76.5 -62q-46 -29 -72.5 -40t-52.5 -14q-19 -19 -32.5 -33t-24.5 -28q-2 -2 -0.5 -3t6.5 -1q56 4 85.5 -25t15.5 -75q-14 -44 -59.5 -73t-96.5 -29
q-36 0 -59.5 14.5t-19.5 33.5q2 13 20.5 24t37.5 11q11 0 19 -5t19 -21q13 -18 23 -23.5t24 -5.5q15 0 28.5 10t18.5 26q13 37 -21 61t-97 12q-5 -1 -8.5 -3t-8.5 -8q-3 -4 -5.5 -5t-5.5 -1q-7 0 -7 5.5t9 12.5q8 7 39.5 39t86.5 88z" />
    <glyph glyph-name="egrave" unicode="&#xe8;" horiz-adv-x="485" 
d="M12 0zM291 49q-52 -33 -84.5 -44.5t-67.5 -11.5q-43 0 -76 23.5t-44 62.5q-12 44 -4 89t36 97q24 47 77.5 99t113.5 89q54 34 90.5 47.5t69.5 13.5q41 0 64.5 -19t23.5 -51q0 -45 -53.5 -94.5t-184.5 -127.5q-19 -12 -43.5 -26l-66.5 -38q8 -42 35 -64.5t68 -22.5
q21 0 42 6.5t44 20.5t52.5 42t49.5 56l8 -5q-28 -38 -71 -78.5t-79 -63.5zM252 449q-17 -11 -35 -34.5t-36 -58.5q-22 -42 -33 -94t-7 -95q7 4 46.5 27.5t58.5 35.5q51 34 78 60.5t39 55.5q3 6 5 13.5t2 15.5q0 34 -23 58.5t-56 24.5q-9 0 -19.5 -2.5t-19.5 -6.5zM400 561
l-2 2t-2 1q-12 12 -29.5 26t-53.5 41q-27 19 -36.5 26.5t-13.5 12.5q-9 10 -12 22.5t0 25.5q4 12 15.5 20.5t24.5 8.5q11 0 24 -10t20 -23l5 -10t10 -22q20 -44 32 -68t23 -42q2 -3 3 -5t0 -3q0 -2 -1.5 -3t-3.5 -1q-1 0 -1.5 0.5t-1.5 0.5z" />
    <glyph glyph-name="eacute" unicode="&#xe9;" horiz-adv-x="485" 
d="M12 0zM291 49q-52 -33 -84.5 -44.5t-67.5 -11.5q-43 0 -76 23.5t-44 62.5q-12 44 -4 89t36 97q24 47 77.5 99t113.5 89q54 34 90.5 47.5t69.5 13.5q41 0 64.5 -19t23.5 -51q0 -45 -53.5 -94.5t-184.5 -127.5q-19 -12 -43.5 -26l-66.5 -38q8 -42 35 -64.5t68 -22.5
q21 0 42 6.5t44 20.5t52.5 42t49.5 56l8 -5q-28 -38 -71 -78.5t-79 -63.5zM252 449q-17 -11 -35 -34.5t-36 -58.5q-22 -42 -33 -94t-7 -95q7 4 46.5 27.5t58.5 35.5q51 34 78 60.5t39 55.5q3 6 5 13.5t2 15.5q0 34 -23 58.5t-56 24.5q-9 0 -19.5 -2.5t-19.5 -6.5zM493 740
q8 7 19 11t22 4q13 0 22 -10t9 -23q0 -11 -5.5 -20t-15.5 -17q-7 -5 -20.5 -12.5t-50.5 -27.5q-56 -29 -82.5 -44t-43.5 -28q-2 -2 -4 -3t-4 -1t-3.5 1t-1.5 3q0 1 0.5 2t2.5 2t2.5 2t1.5 2q20 16 46.5 42.5t72.5 79.5q17 20 23 26.5t10 10.5z" />
    <glyph glyph-name="ecircumflex" unicode="&#xea;" horiz-adv-x="485" 
d="M12 0zM291 49q-52 -33 -84.5 -44.5t-67.5 -11.5q-43 0 -76 23.5t-44 62.5q-12 44 -4 89t36 97q24 47 77.5 99t113.5 89q54 34 90.5 47.5t69.5 13.5q41 0 64.5 -19t23.5 -51q0 -45 -53.5 -94.5t-184.5 -127.5q-19 -12 -43.5 -26l-66.5 -38q8 -42 35 -64.5t68 -22.5
q21 0 42 6.5t44 20.5t52.5 42t49.5 56l8 -5q-28 -38 -71 -78.5t-79 -63.5zM252 449q-17 -11 -35 -34.5t-36 -58.5q-22 -42 -33 -94t-7 -95q7 4 46.5 27.5t58.5 35.5q51 34 78 60.5t39 55.5q3 6 5 13.5t2 15.5q0 34 -23 58.5t-56 24.5q-9 0 -19.5 -2.5t-19.5 -6.5zM578 578
q0 -14 -12.5 -23.5t-32.5 -9.5t-29.5 7t-12.5 24q-1 8 -1.5 19t-0.5 35q0 28 -0.5 42t-2.5 26q-1 4 -3 5t-6 -2q-16 -10 -29.5 -22t-27.5 -27q-10 -10 -26 -29t-22 -26q-10 -12 -23.5 -18t-30.5 -6q-19 0 -29 6.5t-10 19.5q0 23 59 55.5t140 55.5q6 2 8.5 1.5t5.5 -3.5
q35 -34 60.5 -72t25.5 -58z" />
    <glyph glyph-name="edieresis" unicode="&#xeb;" horiz-adv-x="485" 
d="M12 0zM291 49q-52 -33 -84.5 -44.5t-67.5 -11.5q-43 0 -76 23.5t-44 62.5q-12 44 -4 89t36 97q24 47 77.5 99t113.5 89q54 34 90.5 47.5t69.5 13.5q41 0 64.5 -19t23.5 -51q0 -45 -53.5 -94.5t-184.5 -127.5q-19 -12 -43.5 -26l-66.5 -38q8 -42 35 -64.5t68 -22.5
q21 0 42 6.5t44 20.5t52.5 42t49.5 56l8 -5q-28 -38 -71 -78.5t-79 -63.5zM252 449q-17 -11 -35 -34.5t-36 -58.5q-22 -42 -33 -94t-7 -95q7 4 46.5 27.5t58.5 35.5q51 34 78 60.5t39 55.5q3 6 5 13.5t2 15.5q0 34 -23 58.5t-56 24.5q-9 0 -19.5 -2.5t-19.5 -6.5zM526 584
q-16 0 -26.5 2.5t-16.5 7.5q-2 21 17 62t36 51q8 5 22 8t29 3q18 0 33 -5t21 -13q0 -24 -31 -63.5t-51 -47.5q-6 -2 -15 -3.5t-18 -1.5zM314 584q-16 0 -25.5 2.5t-16.5 7.5q-3 21 16 62.5t37 50.5q8 5 22 8t30 3q17 0 32.5 -5t19.5 -13q1 -25 -30 -64t-52 -47
q-5 -2 -14 -3.5t-19 -1.5z" />
    <glyph glyph-name="igrave" unicode="&#xec;" horiz-adv-x="329" 
d="M6 0zM131 3q-5 -3 -14.5 -4.5t-24.5 -1.5q-17 0 -25 1.5t-13 4.5q-21 13 -34.5 33.5t-13.5 42.5q0 21 14.5 53t71.5 120q54 81 69.5 108.5t20.5 47.5q1 16 -6 26.5t-21 13.5q-20 -8 -50.5 -33t-60.5 -58l-7 5q29 34 74.5 74t79.5 61q13 10 25.5 13.5t30.5 2.5
q25 -2 47.5 -32t23.5 -62q0 -17 -13.5 -44.5t-92.5 -137.5q-54 -77 -67 -105t-12 -46q1 -13 10 -22.5t24 -14.5q20 7 52 34.5t67 67.5l6 -7q-63 -68 -97 -96.5t-64 -44.5zM351 558l-2 2t-2 1q-12 12 -29.5 26t-53.5 41q-27 19 -36.5 26.5t-13.5 12.5q-9 10 -12 22.5t0 25.5
q4 12 15.5 20.5t24.5 8.5q11 0 24 -10t20 -23l5 -10t10 -22q20 -44 32 -68t23 -42q2 -3 3 -5t0 -3q0 -2 -1.5 -3t-3.5 -1q-1 0 -1.5 0.5t-1.5 0.5z" />
    <glyph glyph-name="iacute" unicode="&#xed;" horiz-adv-x="329" 
d="M6 0zM131 3q-5 -3 -14.5 -4.5t-24.5 -1.5q-17 0 -25 1.5t-13 4.5q-21 13 -34.5 33.5t-13.5 42.5q0 21 14.5 53t71.5 120q54 81 69.5 108.5t20.5 47.5q1 16 -6 26.5t-21 13.5q-20 -8 -50.5 -33t-60.5 -58l-7 5q29 34 74.5 74t79.5 61q13 10 25.5 13.5t30.5 2.5
q25 -2 47.5 -32t23.5 -62q0 -17 -13.5 -44.5t-92.5 -137.5q-54 -77 -67 -105t-12 -46q1 -13 10 -22.5t24 -14.5q20 7 52 34.5t67 67.5l6 -7q-63 -68 -97 -96.5t-64 -44.5zM420 728q8 7 19 11t22 4q13 0 22 -10t9 -23q0 -11 -5.5 -20t-15.5 -17q-7 -5 -20.5 -12.5
t-50.5 -27.5q-56 -29 -82.5 -44t-43.5 -28q-2 -2 -4 -3t-4 -1t-3.5 1t-1.5 3q0 1 0.5 2t2.5 2t2.5 2t1.5 2q20 16 46.5 42.5t72.5 79.5q17 20 23 26.5t10 10.5z" />
    <glyph glyph-name="icircumflex" unicode="&#xee;" horiz-adv-x="329" 
d="M6 0zM131 3q-5 -3 -14.5 -4.5t-24.5 -1.5q-17 0 -25 1.5t-13 4.5q-21 13 -34.5 33.5t-13.5 42.5q0 21 14.5 53t71.5 120q54 81 69.5 108.5t20.5 47.5q1 16 -6 26.5t-21 13.5q-20 -8 -50.5 -33t-60.5 -58l-7 5q29 34 74.5 74t79.5 61q13 10 25.5 13.5t30.5 2.5
q25 -2 47.5 -32t23.5 -62q0 -17 -13.5 -44.5t-92.5 -137.5q-54 -77 -67 -105t-12 -46q1 -13 10 -22.5t24 -14.5q20 7 52 34.5t67 67.5l6 -7q-63 -68 -97 -96.5t-64 -44.5zM486 581q0 -14 -12.5 -23.5t-32.5 -9.5t-29.5 7t-12.5 24q-1 8 -1.5 19t-0.5 35q0 28 -0.5 42
t-2.5 26q-1 4 -3 5t-6 -2q-16 -10 -29.5 -22t-27.5 -27q-10 -10 -26 -29t-22 -26q-10 -12 -23.5 -18t-30.5 -6q-19 0 -29 6.5t-10 19.5q0 23 59 55.5t140 55.5q6 2 8.5 1.5t5.5 -3.5q35 -34 60.5 -72t25.5 -58z" />
    <glyph glyph-name="idieresis" unicode="&#xef;" horiz-adv-x="329" 
d="M6 0zM131 3q-5 -3 -14.5 -4.5t-24.5 -1.5q-17 0 -25 1.5t-13 4.5q-21 13 -34.5 33.5t-13.5 42.5q0 21 14.5 53t71.5 120q54 81 69.5 108.5t20.5 47.5q1 16 -6 26.5t-21 13.5q-20 -8 -50.5 -33t-60.5 -58l-7 5q29 34 74.5 74t79.5 61q13 10 25.5 13.5t30.5 2.5
q25 -2 47.5 -32t23.5 -62q0 -17 -13.5 -44.5t-92.5 -137.5q-54 -77 -67 -105t-12 -46q1 -13 10 -22.5t24 -14.5q20 7 52 34.5t67 67.5l6 -7q-63 -68 -97 -96.5t-64 -44.5zM425 584q-16 0 -26.5 2.5t-16.5 7.5q-2 21 17 62t36 51q8 5 22 8t29 3q18 0 33 -5t21 -13
q0 -24 -31 -63.5t-51 -47.5q-6 -2 -15 -3.5t-18 -1.5zM213 584q-16 0 -25.5 2.5t-16.5 7.5q-3 21 16 62.5t37 50.5q8 5 22 8t30 3q17 0 32.5 -5t19.5 -13q1 -25 -30 -64t-52 -47q-5 -2 -14 -3.5t-19 -1.5z" />
    <glyph glyph-name="eth" unicode="&#xf0;" horiz-adv-x="518" 
d="M223 17q-23 -12 -44 -18t-41 -6q-47 0 -80 26t-42 70q-9 45 3 95.5t45 107.5q21 36 52.5 73t65.5 64q41 38 81 59.5t69 21.5q30 0 49.5 -14t28.5 -41q4 72 -1 132.5t-18 108.5q-12 -6 -25 -13.5t-38 -22.5q-23 -13 -33.5 -19t-19.5 -11q-8 1 -12.5 11.5t-0.5 16.5
q41 14 72 26t55 22q-18 60 -47 99t-71 59q-4 2 -0.5 6.5t7.5 2.5q55 -28 99 -63.5t77 -77.5q23 13 48.5 27.5t70.5 40.5q6 -2 12 -12t2 -16q-49 -17 -77.5 -28t-50.5 -20q36 -48 54.5 -102.5t18.5 -114.5q0 -141 -65 -259t-168 -183q-4 -3 -31.5 -21t-44.5 -27zM136 152
q11 -45 32 -69t51 -25q18 -1 37.5 2.5t39.5 12.5q34 31 66 115t36 154q-2 45 -33 69.5t-89 27.5q-22 2 -43.5 -2t-38.5 -13q-31 -48 -49.5 -128.5t-8.5 -143.5z" />
    <glyph glyph-name="ntilde" unicode="&#xf1;" horiz-adv-x="648" 
d="M0 0zM189 156q-12 -17 -24.5 -37.5t-62.5 -103.5q-13 -7 -27.5 -10.5t-30.5 -4.5q-33 0 -50.5 14t-8.5 37q79 109 132 208t52 146q-1 17 -7.5 26.5t-20.5 12.5q-20 -7 -47 -29t-58 -59l-7 5q31 36 70.5 73.5t74.5 63.5q13 11 24 15.5t22 4.5q25 0 52.5 -35.5t28.5 -67.5
q1 -27 -18.5 -73t-79.5 -148q107 145 204 233t158 92q63 -22 57 -88.5t-80 -178.5q-54 -83 -67.5 -113t-12.5 -49q1 -15 8.5 -24.5t20.5 -13.5q20 7 52.5 34.5t67.5 66.5l6 -7q-70 -74 -101.5 -100t-59.5 -41q-5 -3 -16 -4.5t-26 -1.5q-13 0 -22.5 1.5t-14.5 4.5
q-20 12 -33.5 33.5t-13.5 44.5q-1 22 19 63t72 121q56 86 68 127.5t-19 61.5q-43 -16 -122.5 -100t-158.5 -200zM274 569q-2 -4 -6.5 -2t-0.5 7q31 52 66 80t68 28q11 0 26.5 -2.5t50.5 -9.5q34 -7 49 -9.5t26 -2.5q20 0 34.5 16.5t24.5 50.5q2 5 7 4t4 -6
q-18 -62 -55 -100.5t-77 -38.5q-16 0 -34.5 3.5t-54.5 13.5q-30 8 -43 10.5t-23 2.5q-18 0 -33 -11t-29 -34z" />
    <glyph glyph-name="ograve" unicode="&#xf2;" horiz-adv-x="527" 
d="M12 0zM299 67q-81 -52 -111 -63t-57 -11q-46 0 -77 25.5t-39 70.5q-8 44 5 93t46 104q30 46 74 89t92 73q63 41 99 55t71 14q45 0 75 -25t38 -71q9 -44 -4.5 -96t-47.5 -105q-27 -40 -73 -82.5t-91 -70.5zM142 153q9 -48 30.5 -72t55.5 -24q18 0 34.5 3.5t33.5 11.5
q11 10 23 29.5t27 49.5q23 46 36.5 109t7.5 106q-8 51 -30.5 74.5t-62.5 23.5q-9 0 -17 -1.5t-27 -8.5q-13 -9 -28.5 -30.5t-33.5 -54.5q-26 -47 -40 -108t-9 -108zM385 558l-2 2t-2 1q-12 12 -29.5 26t-53.5 41q-27 19 -36.5 26.5t-13.5 12.5q-9 10 -12 22.5t0 25.5
q4 12 15.5 20.5t24.5 8.5q11 0 24 -10t20 -23l5 -10t10 -22q20 -44 32 -68t23 -42q2 -3 3 -5t0 -3q0 -2 -1.5 -3t-3.5 -1q-1 0 -1.5 0.5t-1.5 0.5z" />
    <glyph glyph-name="oacute" unicode="&#xf3;" horiz-adv-x="527" 
d="M12 0zM299 67q-81 -52 -111 -63t-57 -11q-46 0 -77 25.5t-39 70.5q-8 44 5 93t46 104q30 46 74 89t92 73q63 41 99 55t71 14q45 0 75 -25t38 -71q9 -44 -4.5 -96t-47.5 -105q-27 -40 -73 -82.5t-91 -70.5zM142 153q9 -48 30.5 -72t55.5 -24q18 0 34.5 3.5t33.5 11.5
q11 10 23 29.5t27 49.5q23 46 36.5 109t7.5 106q-8 51 -30.5 74.5t-62.5 23.5q-9 0 -17 -1.5t-27 -8.5q-13 -9 -28.5 -30.5t-33.5 -54.5q-26 -47 -40 -108t-9 -108zM454 728q8 7 19 11t22 4q13 0 22 -10t9 -23q0 -11 -5.5 -20t-15.5 -17q-7 -5 -20.5 -12.5t-50.5 -27.5
q-56 -29 -82.5 -44t-43.5 -28q-2 -2 -4 -3t-4 -1t-3.5 1t-1.5 3q0 1 0.5 2t2.5 2t2.5 2t1.5 2q20 16 46.5 42.5t72.5 79.5q17 20 23 26.5t10 10.5z" />
    <glyph glyph-name="ocircumflex" unicode="&#xf4;" horiz-adv-x="527" 
d="M12 0zM299 67q-81 -52 -111 -63t-57 -11q-46 0 -77 25.5t-39 70.5q-8 44 5 93t46 104q30 46 74 89t92 73q63 41 99 55t71 14q45 0 75 -25t38 -71q9 -44 -4.5 -96t-47.5 -105q-27 -40 -73 -82.5t-91 -70.5zM142 153q9 -48 30.5 -72t55.5 -24q18 0 34.5 3.5t33.5 11.5
q11 10 23 29.5t27 49.5q23 46 36.5 109t7.5 106q-8 51 -30.5 74.5t-62.5 23.5q-9 0 -17 -1.5t-27 -8.5q-13 -9 -28.5 -30.5t-33.5 -54.5q-26 -47 -40 -108t-9 -108zM520 581q0 -14 -12.5 -23.5t-32.5 -9.5t-29.5 7t-12.5 24q-1 8 -1.5 19t-0.5 35q0 28 -0.5 42t-2.5 26
q-1 4 -3 5t-6 -2q-16 -10 -29.5 -22t-27.5 -27q-10 -10 -26 -29t-22 -26q-10 -12 -23.5 -18t-30.5 -6q-19 0 -29 6.5t-10 19.5q0 23 59 55.5t140 55.5q6 2 8.5 1.5t5.5 -3.5q35 -34 60.5 -72t25.5 -58z" />
    <glyph glyph-name="otilde" unicode="&#xf5;" horiz-adv-x="527" 
d="M12 0zM299 67q-81 -52 -111 -63t-57 -11q-46 0 -77 25.5t-39 70.5q-8 44 5 93t46 104q30 46 74 89t92 73q63 41 99 55t71 14q45 0 75 -25t38 -71q9 -44 -4.5 -96t-47.5 -105q-27 -40 -73 -82.5t-91 -70.5zM142 153q9 -48 30.5 -72t55.5 -24q18 0 34.5 3.5t33.5 11.5
q11 10 23 29.5t27 49.5q23 46 36.5 109t7.5 106q-8 51 -30.5 74.5t-62.5 23.5q-9 0 -17 -1.5t-27 -8.5q-13 -9 -28.5 -30.5t-33.5 -54.5q-26 -47 -40 -108t-9 -108zM202 569q-2 -4 -6.5 -2t-0.5 7q31 52 66 80t68 28q11 0 26.5 -2.5t50.5 -9.5q34 -7 49 -9.5t26 -2.5
q20 0 34.5 16.5t24.5 50.5q2 5 7 4t4 -6q-18 -62 -55 -100.5t-77 -38.5q-16 0 -34.5 3.5t-54.5 13.5q-30 8 -43 10.5t-23 2.5q-18 0 -33 -11t-29 -34z" />
    <glyph glyph-name="odieresis" unicode="&#xf6;" horiz-adv-x="527" 
d="M12 0zM299 67q-81 -52 -111 -63t-57 -11q-46 0 -77 25.5t-39 70.5q-8 44 5 93t46 104q30 46 74 89t92 73q63 41 99 55t71 14q45 0 75 -25t38 -71q9 -44 -4.5 -96t-47.5 -105q-27 -40 -73 -82.5t-91 -70.5zM142 153q9 -48 30.5 -72t55.5 -24q18 0 34.5 3.5t33.5 11.5
q11 10 23 29.5t27 49.5q23 46 36.5 109t7.5 106q-8 51 -30.5 74.5t-62.5 23.5q-9 0 -17 -1.5t-27 -8.5q-13 -9 -28.5 -30.5t-33.5 -54.5q-26 -47 -40 -108t-9 -108zM459 584q-16 0 -26.5 2.5t-16.5 7.5q-2 21 17 62t36 51q8 5 22 8t29 3q18 0 33 -5t21 -13q0 -24 -31 -63.5
t-51 -47.5q-6 -2 -15 -3.5t-18 -1.5zM247 584q-16 0 -25.5 2.5t-16.5 7.5q-3 21 16 62.5t37 50.5q8 5 22 8t30 3q17 0 32.5 -5t19.5 -13q1 -25 -30 -64t-52 -47q-5 -2 -14 -3.5t-19 -1.5z" />
    <glyph glyph-name="divide" unicode="&#xf7;" 
d="M365 477q0 -18 -14.5 -32t-32.5 -14q-20 0 -33.5 13.5t-13.5 32.5q0 20 13.5 33.5t33.5 13.5q19 0 33 -14t14 -33zM317 341q32 1 65.5 3t103.5 10q8 -5 8.5 -17.5t-8.5 -18.5q-62 6 -104 9t-64 3t-65 -3t-108 -9q-8 6 -8 18.5t8 17.5q72 -8 105.5 -10t66.5 -3zM365 194
q0 -19 -14 -33t-33 -14q-20 0 -33.5 13.5t-13.5 33.5t13.5 33.5t33.5 13.5q18 0 32.5 -14.5t14.5 -32.5z" />
    <glyph glyph-name="oslash" unicode="&#xf8;" horiz-adv-x="527" 
d="M42 30q-8 -8 -18 -17.5t-41 -39.5q-11 -4 -23.5 -1.5t-14.5 10.5q12 10 24.5 20.5t57.5 50.5q-5 8 -8 17t-4 19q-8 44 5 93t46 104q30 46 74 89t92 73q63 41 99 55t71 14q29 0 51.5 -10.5t38.5 -30.5q13 12 27 25.5t30 28.5q12 3 23.5 0.5t13.5 -10.5q-9 -8 -29 -25
t-51 -44q3 -7 5.5 -14.5t3.5 -15.5q9 -44 -4.5 -96t-47.5 -105q-27 -40 -73 -82.5t-91 -70.5q-81 -52 -111 -63t-57 -11q-28 0 -50.5 9.5t-38.5 27.5zM191 369q-26 -47 -40 -108t-9 -108l1 -7q26 24 53 50.5t60 59.5q18 18 37 36.5t93 94.5q-10 40 -31.5 58.5t-57.5 18.5
q-9 0 -17 -1.5t-27 -8.5q-13 -9 -28.5 -30.5t-33.5 -54.5zM149 125q11 -34 30.5 -51t48.5 -17q18 0 34.5 3.5t33.5 11.5q11 10 23 29.5t27 49.5q23 46 36.5 109t7.5 106l-19.5 -19.5t-33.5 -32.5l-41.5 -41.5l-27.5 -27.5q-27 -26 -52 -51.5t-67 -68.5z" />
    <glyph glyph-name="ugrave" unicode="&#xf9;" horiz-adv-x="642" 
d="M5 0zM440 318q-115 -156 -204.5 -239t-148.5 -86q-29 5 -53 24.5t-29 46.5q-1 17 8.5 40t32.5 61q8 13 28.5 44.5t31.5 49.5q47 73 64 107.5t16 51.5q0 11 -7.5 19t-21.5 13q-21 -8 -51.5 -33.5t-60.5 -60.5l-7 6q33 39 76.5 78t75.5 58q15 9 27.5 12.5t28.5 3.5
q24 0 46 -31t23 -62q0 -21 -19 -61t-69 -120q-9 -14 -24 -37.5t-21 -32.5q-18 -28 -26.5 -45t-11.5 -29q-1 -14 8.5 -25t26.5 -15q38 11 113 92.5t164 208.5q12 17 24.5 37t34.5 57q11 19 16 27.5t9 14.5q14 8 29.5 12t32.5 5q33 0 50.5 -14.5t7.5 -37.5q-29 -40 -59 -85
t-55 -85q-54 -87 -74 -130.5t-21 -68.5q1 -13 10 -23t25 -15q20 7 51.5 34t68.5 68l6 -7q-63 -67 -96.5 -95t-63.5 -45q-6 -3 -17 -5t-22 -2q-15 0 -26 1.5t-17 4.5q-21 14 -33.5 35t-12.5 42q-1 23 16.5 62.5t99.5 173.5zM480 558l-2 2t-2 1q-12 12 -29.5 26t-53.5 41
q-27 19 -36.5 26.5t-13.5 12.5q-9 10 -12 22.5t0 25.5q4 12 15.5 20.5t24.5 8.5q11 0 24 -10t20 -23l5 -10t10 -22q20 -44 32 -68t23 -42q2 -3 3 -5t0 -3q0 -2 -1.5 -3t-3.5 -1q-1 0 -1.5 0.5t-1.5 0.5z" />
    <glyph glyph-name="uacute" unicode="&#xfa;" horiz-adv-x="642" 
d="M5 0zM440 318q-115 -156 -204.5 -239t-148.5 -86q-29 5 -53 24.5t-29 46.5q-1 17 8.5 40t32.5 61q8 13 28.5 44.5t31.5 49.5q47 73 64 107.5t16 51.5q0 11 -7.5 19t-21.5 13q-21 -8 -51.5 -33.5t-60.5 -60.5l-7 6q33 39 76.5 78t75.5 58q15 9 27.5 12.5t28.5 3.5
q24 0 46 -31t23 -62q0 -21 -19 -61t-69 -120q-9 -14 -24 -37.5t-21 -32.5q-18 -28 -26.5 -45t-11.5 -29q-1 -14 8.5 -25t26.5 -15q38 11 113 92.5t164 208.5q12 17 24.5 37t34.5 57q11 19 16 27.5t9 14.5q14 8 29.5 12t32.5 5q33 0 50.5 -14.5t7.5 -37.5q-29 -40 -59 -85
t-55 -85q-54 -87 -74 -130.5t-21 -68.5q1 -13 10 -23t25 -15q20 7 51.5 34t68.5 68l6 -7q-63 -67 -96.5 -95t-63.5 -45q-6 -3 -17 -5t-22 -2q-15 0 -26 1.5t-17 4.5q-21 14 -33.5 35t-12.5 42q-1 23 16.5 62.5t99.5 173.5zM549 728q8 7 19 11t22 4q13 0 22 -10t9 -23
q0 -11 -5.5 -20t-15.5 -17q-7 -5 -20.5 -12.5t-50.5 -27.5q-56 -29 -82.5 -44t-43.5 -28q-2 -2 -4 -3t-4 -1t-3.5 1t-1.5 3q0 1 0.5 2t2.5 2t2.5 2t1.5 2q20 16 46.5 42.5t72.5 79.5q17 20 23 26.5t10 10.5z" />
    <glyph glyph-name="ucircumflex" unicode="&#xfb;" horiz-adv-x="642" 
d="M5 0zM440 318q-115 -156 -204.5 -239t-148.5 -86q-29 5 -53 24.5t-29 46.5q-1 17 8.5 40t32.5 61q8 13 28.5 44.5t31.5 49.5q47 73 64 107.5t16 51.5q0 11 -7.5 19t-21.5 13q-21 -8 -51.5 -33.5t-60.5 -60.5l-7 6q33 39 76.5 78t75.5 58q15 9 27.5 12.5t28.5 3.5
q24 0 46 -31t23 -62q0 -21 -19 -61t-69 -120q-9 -14 -24 -37.5t-21 -32.5q-18 -28 -26.5 -45t-11.5 -29q-1 -14 8.5 -25t26.5 -15q38 11 113 92.5t164 208.5q12 17 24.5 37t34.5 57q11 19 16 27.5t9 14.5q14 8 29.5 12t32.5 5q33 0 50.5 -14.5t7.5 -37.5q-29 -40 -59 -85
t-55 -85q-54 -87 -74 -130.5t-21 -68.5q1 -13 10 -23t25 -15q20 7 51.5 34t68.5 68l6 -7q-63 -67 -96.5 -95t-63.5 -45q-6 -3 -17 -5t-22 -2q-15 0 -26 1.5t-17 4.5q-21 14 -33.5 35t-12.5 42q-1 23 16.5 62.5t99.5 173.5zM615 581q0 -14 -12.5 -23.5t-32.5 -9.5t-29.5 7
t-12.5 24q-1 8 -1.5 19t-0.5 35q0 28 -0.5 42t-2.5 26q-1 4 -3 5t-6 -2q-16 -10 -29.5 -22t-27.5 -27q-10 -10 -26 -29t-22 -26q-10 -12 -23.5 -18t-30.5 -6q-19 0 -29 6.5t-10 19.5q0 23 59 55.5t140 55.5q6 2 8.5 1.5t5.5 -3.5q35 -34 60.5 -72t25.5 -58z" />
    <glyph glyph-name="udieresis" unicode="&#xfc;" horiz-adv-x="642" 
d="M5 0zM440 318q-115 -156 -204.5 -239t-148.5 -86q-29 5 -53 24.5t-29 46.5q-1 17 8.5 40t32.5 61q8 13 28.5 44.5t31.5 49.5q47 73 64 107.5t16 51.5q0 11 -7.5 19t-21.5 13q-21 -8 -51.5 -33.5t-60.5 -60.5l-7 6q33 39 76.5 78t75.5 58q15 9 27.5 12.5t28.5 3.5
q24 0 46 -31t23 -62q0 -21 -19 -61t-69 -120q-9 -14 -24 -37.5t-21 -32.5q-18 -28 -26.5 -45t-11.5 -29q-1 -14 8.5 -25t26.5 -15q38 11 113 92.5t164 208.5q12 17 24.5 37t34.5 57q11 19 16 27.5t9 14.5q14 8 29.5 12t32.5 5q33 0 50.5 -14.5t7.5 -37.5q-29 -40 -59 -85
t-55 -85q-54 -87 -74 -130.5t-21 -68.5q1 -13 10 -23t25 -15q20 7 51.5 34t68.5 68l6 -7q-63 -67 -96.5 -95t-63.5 -45q-6 -3 -17 -5t-22 -2q-15 0 -26 1.5t-17 4.5q-21 14 -33.5 35t-12.5 42q-1 23 16.5 62.5t99.5 173.5zM554 584q-16 0 -26.5 2.5t-16.5 7.5q-2 21 17 62
t36 51q8 5 22 8t29 3q18 0 33 -5t21 -13q0 -24 -31 -63.5t-51 -47.5q-6 -2 -15 -3.5t-18 -1.5zM342 584q-16 0 -25.5 2.5t-16.5 7.5q-3 21 16 62.5t37 50.5q8 5 22 8t30 3q17 0 32.5 -5t19.5 -13q1 -25 -30 -64t-52 -47q-5 -2 -14 -3.5t-19 -1.5z" />
    <glyph glyph-name="yacute" unicode="&#xfd;" horiz-adv-x="575" 
d="M0 0zM73 -121q-94 -81 -182 -115.5t-199 -34.5q-29 0 -52.5 2t-35.5 5q-6 2 -8 4.5t-2 7.5q0 22 35.5 60t56.5 41q14 0 31.5 -3t56.5 -13q48 -13 72.5 -17t45.5 -4q52 0 90 16t85 56q15 13 24 21.5t18 17.5q22 84 35 203t13 214q0 30 -5.5 53t-16.5 35q-5 6 -10.5 8.5
t-12.5 1.5q-14 -4 -44 -23.5t-54 -40.5l-5 4q23 23 80 63.5t92 59.5q10 6 18 8.5t15 2.5q10 -1 17 -4t14 -9q19 -15 28.5 -46.5t9.5 -75.5q0 -65 -12.5 -157.5t-32.5 -174.5l59 59t26 27q77 81 115.5 140t39.5 98q0 23 -12.5 39t-33.5 21q-17 -4 -34.5 -14t-45.5 -33l-4 4
q32 29 79 65t71 49q11 5 21 9t24 8q21 -1 37.5 -25t14.5 -52q-5 -27 -32 -65.5t-88 -101.5q-27 -29 -81 -83.5t-65 -65.5l-93.5 -93.5t-49.5 -48.5q-5 -5 -45.5 -42t-67.5 -61zM484 728q8 7 19 11t22 4q13 0 22 -10t9 -23q0 -11 -5.5 -20t-15.5 -17q-7 -5 -20.5 -12.5
t-50.5 -27.5q-56 -29 -82.5 -44t-43.5 -28q-2 -2 -4 -3t-4 -1t-3.5 1t-1.5 3q0 1 0.5 2t2.5 2t2.5 2t1.5 2q20 16 46.5 42.5t72.5 79.5q17 20 23 26.5t10 10.5z" />
    <glyph glyph-name="thorn" unicode="&#xfe;" horiz-adv-x="603" 
d="M-193 -220q19 17 47.5 62.5t115.5 192.5q36 61 80.5 141t126.5 229q49 91 67 123t27 47q44 72 115 128t181 106q87 40 143 54t114 14q30 0 59.5 -1.5t44.5 -3.5q6 -1 9 -4t3 -8q0 -24 -36 -58.5t-57 -34.5q-12 0 -30 4t-60 18q-48 15 -71 20t-39 5q-31 0 -50.5 -4.5
t-39.5 -15.5q-30 -16 -60.5 -56t-89.5 -141q-14 -24 -30.5 -53.5t-52.5 -92.5q-57 -101 -86.5 -153t-55.5 -95q33 44 71 88t77 84q60 62 110.5 99t76.5 38q26 -1 45 -16t31 -44q15 -39 4.5 -90t-44.5 -108q-31 -51 -90 -105.5t-125 -93.5q-63 -35 -98 -47.5t-63 -12.5
q-30 0 -51 10.5t-37 33.5q-10 -18 -25.5 -45t-48.5 -85q-30 -53 -39.5 -70t-12.5 -22q-6 -11 -18.5 -33.5t-14.5 -28.5q11 -8 43.5 -13.5t80.5 -7.5q8 0 8 -4t-11 -4q-5 0 -20.5 0.5t-57.5 1.5q-54 2 -75 2.5t-30 0.5t-32.5 -1t-80.5 -4q-38 -3 -51 -3.5t-17 -0.5
q-7 0 -6.5 3.5t6.5 4.5q47 6 71.5 16.5t48.5 33.5zM430 439q-11 -1 -35.5 -20t-56.5 -51q-53 -52 -103 -113t-83 -114q28 -46 59 -69.5t65 -23.5q16 0 29.5 3.5t27.5 10.5q28 22 48.5 51t43.5 76q26 56 39 117t5 91q-5 20 -14 30t-25 12z" />
    <glyph glyph-name="ydieresis" unicode="&#xff;" horiz-adv-x="575" 
d="M0 0zM73 -121q-94 -81 -182 -115.5t-199 -34.5q-29 0 -52.5 2t-35.5 5q-6 2 -8 4.5t-2 7.5q0 22 35.5 60t56.5 41q14 0 31.5 -3t56.5 -13q48 -13 72.5 -17t45.5 -4q52 0 90 16t85 56q15 13 24 21.5t18 17.5q22 84 35 203t13 214q0 30 -5.5 53t-16.5 35q-5 6 -10.5 8.5
t-12.5 1.5q-14 -4 -44 -23.5t-54 -40.5l-5 4q23 23 80 63.5t92 59.5q10 6 18 8.5t15 2.5q10 -1 17 -4t14 -9q19 -15 28.5 -46.5t9.5 -75.5q0 -65 -12.5 -157.5t-32.5 -174.5l59 59t26 27q77 81 115.5 140t39.5 98q0 23 -12.5 39t-33.5 21q-17 -4 -34.5 -14t-45.5 -33l-4 4
q32 29 79 65t71 49q11 5 21 9t24 8q21 -1 37.5 -25t14.5 -52q-5 -27 -32 -65.5t-88 -101.5q-27 -29 -81 -83.5t-65 -65.5l-93.5 -93.5t-49.5 -48.5q-5 -5 -45.5 -42t-67.5 -61zM489 584q-16 0 -26.5 2.5t-16.5 7.5q-2 21 17 62t36 51q8 5 22 8t29 3q18 0 33 -5t21 -13
q0 -24 -31 -63.5t-51 -47.5q-6 -2 -15 -3.5t-18 -1.5zM277 584q-16 0 -25.5 2.5t-16.5 7.5q-3 21 16 62.5t37 50.5q8 5 22 8t30 3q17 0 32.5 -5t19.5 -13q1 -25 -30 -64t-52 -47q-5 -2 -14 -3.5t-19 -1.5z" />
    <glyph glyph-name="Amacron" unicode="&#x100;" horiz-adv-x="1343" 
d="M37 0zM573 176q-155 -173 -210.5 -212t-120.5 -39q-50 0 -93.5 24t-73.5 66q-31 44 -36.5 94.5t16.5 91.5q21 40 75 81.5t124 72.5q54 24 109.5 36.5t105.5 12.5q30 0 75 -1t195 -5q29 35 65.5 78.5t108.5 130.5q52 63 76 91.5t42 50.5q-34 -1 -65 -2.5t-58 -4.5
q-29 -3 -60.5 -7.5t-83.5 -11.5q-39 -6 -52 -7.5t-18 -1.5q-7 0 4.5 15t53.5 58q15 16 20 21t6 7q7 4 45.5 6t117.5 2h157q66 0 135.5 0.5t172.5 2.5q39 1 53.5 1h22.5q12 0 20 -1t12 -2q0 -11 -27 -46t-45 -46q-11 -3 -50 -1.5t-142 10.5q-48 4 -68 5t-32 2
q-16 -90 -33.5 -186.5t-30.5 -174.5q87 -1 112 -1.5t44 -0.5q59 0 84 -0.5t39 -1.5q8 0 12.5 -2t4.5 -5q0 -4 -2 -7.5t-7 -8.5q-17 -20 -43.5 -41.5t-37.5 -23.5q-21 -4 -51.5 -3.5t-34.5 0.5q-23 0 -54 1.5t-81 5.5q-6 -37 -9 -58.5t-5 -35.5q-5 -42 -5.5 -78t4.5 -54
q4 -16 16 -24t31 -9q22 9 75.5 49t83.5 69l6 -6q-61 -56 -130 -111t-104 -74q-12 -6 -33.5 -6.5t-26.5 3.5q-14 11 -23.5 28.5t-12.5 40.5q-5 34 -4 63.5t7 68.5q4 24 10.5 61.5t14.5 83.5q-25 3 -55.5 6.5t-91.5 11.5q-44 5 -66 8t-40 5q-63 -76 -97 -116t-43 -49z
M1049 749l-293 -351q19 -1 42 -1.5t69 -2.5q47 -2 70 -2.5t43 -1.5q32 168 46 240.5t23 118.5zM257 348q-29 -14 -50 -38t-38 -62q-17 -35 -12.5 -76t29.5 -77q24 -34 60 -53t78 -19q58 0 103.5 30t126.5 122q21 22 79 91.5t64 76.5q-134 16 -206.5 22t-119.5 6
q-32 0 -60 -5.5t-54 -17.5zM1102 963q17 -1 29.5 -1h26.5h75.5t41.5 1q16 1 22 0.5t6 -2.5q0 -5 -14 -20t-44 -42h-5.5t-12.5 1q-21 0 -35.5 0.5t-28.5 0.5q-26 0 -49.5 -0.5t-52.5 -2.5q-17 -1 -24.5 -0.5t-7.5 3.5q0 2 4 6.5t18 18.5q13 14 21 22t14 15h6h10z" />
    <glyph glyph-name="amacron" unicode="&#x101;" horiz-adv-x="604" 
d="M11 0zM102 2q-6 -3 -14.5 -5t-15.5 -2q-6 0 -12.5 1t-9.5 3q-39 24 -38.5 95t37.5 154q27 61 85 117.5t131 95.5q40 24 76.5 36.5t63.5 12.5q45 0 76.5 -19t52.5 -58q6 3 14 8.5t28 19.5q26 17 38 25t21 13q6 3 8.5 2t1.5 -6q-42 -53 -91 -126t-81 -132
q-27 -49 -40 -85.5t-11 -57.5q2 -14 11.5 -26t24.5 -16q17 6 44 29t67 66l6 -7q-66 -71 -94.5 -95t-58.5 -40q-3 -2 -13 -3t-25 -1q-12 0 -23.5 1t-15.5 3q-23 17 -34.5 36t-13.5 42q-2 20 6 45t25 55q4 7 19 29t40 59q-53 -58 -113.5 -118.5t-95.5 -91.5
q-24 -21 -41.5 -34.5t-34.5 -24.5zM168 292q-22 -67 -25.5 -126.5t14.5 -77.5q7 -4 19.5 1t27.5 17q43 32 111.5 102.5t132.5 147.5q-27 55 -61 84t-69 29q-15 0 -25 -3t-20 -10q-31 -21 -59.5 -65t-45.5 -99zM409 639q17 -1 29.5 -1h26.5h75.5t41.5 1q16 1 22 0.5t6 -2.5
q0 -5 -14 -20t-44 -42h-5.5t-12.5 1q-21 0 -35.5 0.5t-28.5 0.5q-26 0 -49.5 -0.5t-52.5 -2.5q-17 -1 -24.5 -0.5t-7.5 3.5q0 2 4 6.5t18 18.5q13 14 21 22t14 15h6h10z" />
    <glyph glyph-name="Abreve" unicode="&#x102;" horiz-adv-x="1343" 
d="M37 0zM573 176q-155 -173 -210.5 -212t-120.5 -39q-50 0 -93.5 24t-73.5 66q-31 44 -36.5 94.5t16.5 91.5q21 40 75 81.5t124 72.5q54 24 109.5 36.5t105.5 12.5q30 0 75 -1t195 -5q29 35 65.5 78.5t108.5 130.5q52 63 76 91.5t42 50.5q-34 -1 -65 -2.5t-58 -4.5
q-29 -3 -60.5 -7.5t-83.5 -11.5q-39 -6 -52 -7.5t-18 -1.5q-7 0 4.5 15t53.5 58q15 16 20 21t6 7q7 4 45.5 6t117.5 2h157q66 0 135.5 0.5t172.5 2.5q39 1 53.5 1h22.5q12 0 20 -1t12 -2q0 -11 -27 -46t-45 -46q-11 -3 -50 -1.5t-142 10.5q-48 4 -68 5t-32 2
q-16 -90 -33.5 -186.5t-30.5 -174.5q87 -1 112 -1.5t44 -0.5q59 0 84 -0.5t39 -1.5q8 0 12.5 -2t4.5 -5q0 -4 -2 -7.5t-7 -8.5q-17 -20 -43.5 -41.5t-37.5 -23.5q-21 -4 -51.5 -3.5t-34.5 0.5q-23 0 -54 1.5t-81 5.5q-6 -37 -9 -58.5t-5 -35.5q-5 -42 -5.5 -78t4.5 -54
q4 -16 16 -24t31 -9q22 9 75.5 49t83.5 69l6 -6q-61 -56 -130 -111t-104 -74q-12 -6 -33.5 -6.5t-26.5 3.5q-14 11 -23.5 28.5t-12.5 40.5q-5 34 -4 63.5t7 68.5q4 24 10.5 61.5t14.5 83.5q-25 3 -55.5 6.5t-91.5 11.5q-44 5 -66 8t-40 5q-63 -76 -97 -116t-43 -49z
M1049 749l-293 -351q19 -1 42 -1.5t69 -2.5q47 -2 70 -2.5t43 -1.5q32 168 46 240.5t23 118.5zM257 348q-29 -14 -50 -38t-38 -62q-17 -35 -12.5 -76t29.5 -77q24 -34 60 -53t78 -19q58 0 103.5 30t126.5 122q21 22 79 91.5t64 76.5q-134 16 -206.5 22t-119.5 6
q-32 0 -60 -5.5t-54 -17.5zM1306 994q-23 -47 -64.5 -72t-97.5 -25q-47 0 -77.5 18t-38.5 50q-3 14 5.5 24.5t27.5 15.5q25 7 37.5 5t13.5 -14q4 -43 20.5 -62t48.5 -19q40 0 69.5 24t37.5 61q1 5 3.5 7.5t7.5 2.5q6 0 8 -5t-1 -11z" />
    <glyph glyph-name="abreve" unicode="&#x103;" horiz-adv-x="604" 
d="M11 0zM102 2q-6 -3 -14.5 -5t-15.5 -2q-6 0 -12.5 1t-9.5 3q-39 24 -38.5 95t37.5 154q27 61 85 117.5t131 95.5q40 24 76.5 36.5t63.5 12.5q45 0 76.5 -19t52.5 -58q6 3 14 8.5t28 19.5q26 17 38 25t21 13q6 3 8.5 2t1.5 -6q-42 -53 -91 -126t-81 -132
q-27 -49 -40 -85.5t-11 -57.5q2 -14 11.5 -26t24.5 -16q17 6 44 29t67 66l6 -7q-66 -71 -94.5 -95t-58.5 -40q-3 -2 -13 -3t-25 -1q-12 0 -23.5 1t-15.5 3q-23 17 -34.5 36t-13.5 42q-2 20 6 45t25 55q4 7 19 29t40 59q-53 -58 -113.5 -118.5t-95.5 -91.5
q-24 -21 -41.5 -34.5t-34.5 -24.5zM168 292q-22 -67 -25.5 -126.5t14.5 -77.5q7 -4 19.5 1t27.5 17q43 32 111.5 102.5t132.5 147.5q-27 55 -61 84t-69 29q-15 0 -25 -3t-20 -10q-31 -21 -59.5 -65t-45.5 -99zM613 670q-23 -47 -64.5 -72t-97.5 -25q-47 0 -77.5 18t-38.5 50
q-3 14 5.5 24.5t27.5 15.5q25 7 37.5 5t13.5 -14q4 -43 20.5 -62t48.5 -19q40 0 69.5 24t37.5 61q1 5 3.5 7.5t7.5 2.5q6 0 8 -5t-1 -11z" />
    <glyph glyph-name="Aogonek" unicode="&#x104;" horiz-adv-x="1343" 
d="M573 176q-155 -173 -210.5 -212t-120.5 -39q-50 0 -93.5 24t-72.5 66q-31 44 -36.5 94.5t16.5 91.5q21 41 74.5 82.5t123.5 71.5q54 24 109.5 36.5t105.5 12.5q30 0 73.5 -1t197.5 -5q24 29 131.5 159t159.5 192q-34 -1 -64.5 -2.5t-58.5 -4.5q-29 -3 -60.5 -7.5
t-83.5 -11.5q-39 -6 -52 -7.5t-18 -1.5q-7 0 4.5 15t53.5 58q15 16 20 21t6 7q7 4 45.5 6t117.5 2h157q66 0 135.5 0.5t172.5 2.5q39 1 53.5 1h22.5q12 0 20 -1t12 -2q0 -11 -27 -46t-45 -46q-11 -3 -50 -1.5t-142 10.5q-48 4 -68 5t-32 2q-16 -86 -33 -183t-31 -177
q44 -1 84 -2t73 -1q59 0 84 -0.5t38 -1.5q8 0 12.5 -2t4.5 -5t-2 -7t-6 -9q-18 -21 -44.5 -42t-37.5 -23q-21 -4 -51.5 -3.5t-34.5 0.5q-23 0 -54 1.5t-81 5.5q-1 -8 -7 -43.5t-7 -50.5q-6 -57 -6.5 -86.5t5.5 -45.5t17.5 -24t29.5 -9q22 9 75.5 49t83.5 69l6 -6
q-65 -60 -132.5 -113.5t-102.5 -72.5q-38 -20 -61 -44t-28 -49q-7 -29 7.5 -46.5t45.5 -17.5q17 0 33 5t28 14q7 4 -12.5 -38.5t-33.5 -51.5q-12 -9 -25 -13t-27 -4q-50 -1 -72 29t-9 77q9 34 42.5 70t83.5 64q-13 -1 -20 0t-11 3q-15 8 -24 25.5t-13 42.5q-5 31 -4 61.5
t8 71.5q4 24 10.5 61.5t14.5 83.5q-25 3 -55.5 6.5t-91.5 11.5q-44 5 -66 8t-40 5q-63 -76 -97 -116t-43 -49zM1049 748l-292 -350q19 -1 42 -1.5t69 -2.5q47 -2 70 -2.5t42 -1.5q32 168 46 240.5t23 117.5zM258 348q-28 -13 -49.5 -37t-39.5 -63q-17 -35 -12 -76.5
t30 -76.5q24 -34 60 -53t78 -19q57 0 102.5 30t126.5 122q21 22 79 91.5t64 76.5q-132 16 -205 22t-120 6q-32 0 -60.5 -5.5t-53.5 -17.5z" />
    <glyph glyph-name="aogonek" unicode="&#x105;" horiz-adv-x="604" 
d="M423 -229q-13 -8 -26 -12t-26 -4q-50 -1 -72 29t-9 77q10 36 40.5 73t75.5 69q-9 -1 -13 -1.5t-8 -0.5q-12 0 -24 1t-16 3q-23 17 -34.5 36t-13.5 42q-2 21 6 45.5t26 55.5q6 10 21 32.5t39 55.5q-55 -59 -116 -120t-95 -91q-23 -20 -40.5 -34t-34.5 -25q-7 -3 -15.5 -5
t-14.5 -2q-7 0 -13.5 1t-9.5 3q-39 25 -38.5 95.5t38.5 153.5q28 61 85.5 117.5t129.5 95.5q41 24 78 36.5t63 12.5q44 0 75.5 -19t52.5 -58q6 3 15 9t29 20q25 17 37 24.5t21 12.5q6 3 8 2t1 -6q-83 -103 -154.5 -227.5t-67.5 -173.5q1 -14 11 -25.5t25 -16.5q16 6 43 29
t67 66l6 -7q-60 -65 -84 -85.5t-48 -36.5q-37 -25 -58.5 -51.5t-27.5 -53.5q-8 -32 6.5 -51.5t44.5 -19.5q15 0 32 5t29 14q7 4 -12.5 -38.5t-33.5 -51.5zM168 292q-22 -68 -25 -127t14 -77q6 -4 19 1t29 17q44 33 112 103.5t131 146.5q-27 55 -61 84t-69 29q-15 0 -25 -3
t-20 -10q-31 -21 -59.5 -65t-45.5 -99z" />
    <glyph glyph-name="Cacute" unicode="&#x106;" horiz-adv-x="861" 
d="M101 0zM829 177q-156 -176 -255 -239.5t-190 -63.5q-114 0 -187 60t-91 167q-15 86 11 184.5t87 188.5q48 70 124 137.5t164 116.5q90 51 183.5 77.5t184.5 26.5q56 0 117.5 -13.5t137.5 -44.5q3 -1 4 -2.5t1 -4.5q0 -11 -51 -49.5t-69 -38.5q-8 0 -14 1t-14 4
q-24 8 -72 32t-74 34q-40 17 -78.5 24.5t-77.5 7.5q-85 0 -167.5 -64t-161.5 -191q-50 -81 -74.5 -170.5t-17.5 -168.5q9 -105 68.5 -164t159.5 -59q82 0 155 44t189 174q3 2 7 -0.5t1 -5.5zM881 1052q8 7 19 11t22 4q13 0 22 -10t9 -23q0 -11 -5.5 -20t-15.5 -17
q-7 -5 -20.5 -12.5t-50.5 -27.5q-56 -29 -82.5 -44t-43.5 -28q-2 -2 -4 -3t-4 -1t-3.5 1t-1.5 3q0 1 0.5 2t2.5 2t2.5 2t1.5 2q20 16 46.5 42.5t72.5 79.5q17 20 23 26.5t10 10.5z" />
    <glyph glyph-name="cacute" unicode="&#x107;" horiz-adv-x="477" 
d="M13 0zM291 49q-52 -33 -84.5 -44.5t-67.5 -11.5q-45 0 -77 22.5t-42 62.5q-12 45 -4.5 90.5t35.5 96.5q24 47 78.5 98t122.5 93q52 32 90.5 45.5t71.5 13.5q42 0 67 -22t24 -58q0 -36 -30.5 -63.5t-70.5 -28.5q-15 59 -40 89t-58 30q-11 0 -21.5 -2.5t-27.5 -10.5
q-19 -13 -37 -35t-35 -54q-24 -43 -35 -99.5t-5 -104.5q7 -40 30 -61t61 -23q22 -2 45.5 4.5t47.5 20.5q26 17 53.5 43.5t45.5 52.5l9 -5q-28 -38 -69.5 -77t-76.5 -62zM474 728q8 7 19 11t22 4q13 0 22 -10t9 -23q0 -11 -5.5 -20t-15.5 -17q-7 -5 -20.5 -12.5t-50.5 -27.5
q-56 -29 -82.5 -44t-43.5 -28q-2 -2 -4 -3t-4 -1t-3.5 1t-1.5 3q0 1 0.5 2t2.5 2t2.5 2t1.5 2q20 16 46.5 42.5t72.5 79.5q17 20 23 26.5t10 10.5z" />
    <glyph glyph-name="Ccircumflex" unicode="&#x108;" horiz-adv-x="861" 
d="M101 0zM829 177q-156 -176 -255 -239.5t-190 -63.5q-114 0 -187 60t-91 167q-15 86 11 184.5t87 188.5q48 70 124 137.5t164 116.5q90 51 183.5 77.5t184.5 26.5q56 0 117.5 -13.5t137.5 -44.5q3 -1 4 -2.5t1 -4.5q0 -11 -51 -49.5t-69 -38.5q-8 0 -14 1t-14 4
q-24 8 -72 32t-74 34q-40 17 -78.5 24.5t-77.5 7.5q-85 0 -167.5 -64t-161.5 -191q-50 -81 -74.5 -170.5t-17.5 -168.5q9 -105 68.5 -164t159.5 -59q82 0 155 44t189 174q3 2 7 -0.5t1 -5.5zM947 905q0 -14 -12.5 -23.5t-32.5 -9.5t-29.5 7t-12.5 24q-1 8 -1.5 19t-0.5 35
q0 28 -0.5 42t-2.5 26q-1 4 -3 5t-6 -2q-16 -10 -29.5 -22t-27.5 -27q-10 -10 -26 -29t-22 -26q-10 -12 -23.5 -18t-30.5 -6q-19 0 -29 6.5t-10 19.5q0 23 59 55.5t140 55.5q6 2 8.5 1.5t5.5 -3.5q35 -34 60.5 -72t25.5 -58z" />
    <glyph glyph-name="ccircumflex" unicode="&#x109;" horiz-adv-x="477" 
d="M13 0zM291 49q-52 -33 -84.5 -44.5t-67.5 -11.5q-45 0 -77 22.5t-42 62.5q-12 45 -4.5 90.5t35.5 96.5q24 47 78.5 98t122.5 93q52 32 90.5 45.5t71.5 13.5q42 0 67 -22t24 -58q0 -36 -30.5 -63.5t-70.5 -28.5q-15 59 -40 89t-58 30q-11 0 -21.5 -2.5t-27.5 -10.5
q-19 -13 -37 -35t-35 -54q-24 -43 -35 -99.5t-5 -104.5q7 -40 30 -61t61 -23q22 -2 45.5 4.5t47.5 20.5q26 17 53.5 43.5t45.5 52.5l9 -5q-28 -38 -69.5 -77t-76.5 -62zM540 581q0 -14 -12.5 -23.5t-32.5 -9.5t-29.5 7t-12.5 24q-1 8 -1.5 19t-0.5 35q0 28 -0.5 42t-2.5 26
q-1 4 -3 5t-6 -2q-16 -10 -29.5 -22t-27.5 -27q-10 -10 -26 -29t-22 -26q-10 -12 -23.5 -18t-30.5 -6q-19 0 -29 6.5t-10 19.5q0 23 59 55.5t140 55.5q6 2 8.5 1.5t5.5 -3.5q35 -34 60.5 -72t25.5 -58z" />
    <glyph glyph-name="Cdotaccent" unicode="&#x10a;" horiz-adv-x="861" 
d="M101 0zM829 177q-156 -176 -255 -239.5t-190 -63.5q-114 0 -187 60t-91 167q-15 86 11 184.5t87 188.5q48 70 124 137.5t164 116.5q90 51 183.5 77.5t184.5 26.5q56 0 117.5 -13.5t137.5 -44.5q3 -1 4 -2.5t1 -4.5q0 -11 -51 -49.5t-69 -38.5q-8 0 -14 1t-14 4
q-24 8 -72 32t-74 34q-40 17 -78.5 24.5t-77.5 7.5q-85 0 -167.5 -64t-161.5 -191q-50 -81 -74.5 -170.5t-17.5 -168.5q9 -105 68.5 -164t159.5 -59q82 0 155 44t189 174q3 2 7 -0.5t1 -5.5zM802 912q-15 0 -26.5 2.5t-19.5 7.5q-4 23 17 68.5t41 56.5q8 4 24 7t30 3
q18 0 35 -5.5t24 -13.5q-3 -31 -35 -71.5t-55 -48.5q-7 -3 -15.5 -4.5t-19.5 -1.5z" />
    <glyph glyph-name="cdotaccent" unicode="&#x10b;" horiz-adv-x="477" 
d="M13 0zM291 49q-52 -33 -84.5 -44.5t-67.5 -11.5q-45 0 -77 22.5t-42 62.5q-12 45 -4.5 90.5t35.5 96.5q24 47 78.5 98t122.5 93q52 32 90.5 45.5t71.5 13.5q42 0 67 -22t24 -58q0 -36 -30.5 -63.5t-70.5 -28.5q-15 59 -40 89t-58 30q-11 0 -21.5 -2.5t-27.5 -10.5
q-19 -13 -37 -35t-35 -54q-24 -43 -35 -99.5t-5 -104.5q7 -40 30 -61t61 -23q22 -2 45.5 4.5t47.5 20.5q26 17 53.5 43.5t45.5 52.5l9 -5q-28 -38 -69.5 -77t-76.5 -62zM367 588q-15 0 -26.5 2.5t-19.5 7.5q-4 23 17 68.5t41 56.5q8 4 24 7t30 3q18 0 35 -5.5t24 -13.5
q-3 -31 -35 -71.5t-55 -48.5q-7 -3 -15.5 -4.5t-19.5 -1.5z" />
    <glyph glyph-name="Ccaron" unicode="&#x10c;" horiz-adv-x="861" 
d="M101 0zM829 177q-156 -176 -255 -239.5t-190 -63.5q-114 0 -187 60t-91 167q-15 86 11 184.5t87 188.5q48 70 124 137.5t164 116.5q90 51 183.5 77.5t184.5 26.5q56 0 117.5 -13.5t137.5 -44.5q3 -1 4 -2.5t1 -4.5q0 -11 -51 -49.5t-69 -38.5q-8 0 -14 1t-14 4
q-24 8 -72 32t-74 34q-40 17 -78.5 24.5t-77.5 7.5q-85 0 -167.5 -64t-161.5 -191q-50 -81 -74.5 -170.5t-17.5 -168.5q9 -105 68.5 -164t159.5 -59q82 0 155 44t189 174q3 2 7 -0.5t1 -5.5zM697 1011q0 14 12.5 23.5t32.5 9.5q22 0 32.5 -7.5t10.5 -23.5q0 -64 1 -84.5
t3 -37.5q1 -5 3.5 -5.5t6.5 2.5q15 10 28.5 21.5t27.5 26.5q10 11 26 30t22 26q11 12 24.5 18t30.5 6q18 0 28 -6.5t10 -19.5q0 -24 -58.5 -56.5t-139.5 -55.5q-6 -1 -9 -0.5t-6 3.5q-35 34 -60.5 72t-25.5 58z" />
    <glyph glyph-name="ccaron" unicode="&#x10d;" horiz-adv-x="477" 
d="M13 0zM291 49q-52 -33 -84.5 -44.5t-67.5 -11.5q-45 0 -77 22.5t-42 62.5q-12 45 -4.5 90.5t35.5 96.5q24 47 78.5 98t122.5 93q52 32 90.5 45.5t71.5 13.5q42 0 67 -22t24 -58q0 -36 -30.5 -63.5t-70.5 -28.5q-15 59 -40 89t-58 30q-11 0 -21.5 -2.5t-27.5 -10.5
q-19 -13 -37 -35t-35 -54q-24 -43 -35 -99.5t-5 -104.5q7 -40 30 -61t61 -23q22 -2 45.5 4.5t47.5 20.5q26 17 53.5 43.5t45.5 52.5l9 -5q-28 -38 -69.5 -77t-76.5 -62zM290 687q0 14 12.5 23.5t32.5 9.5q22 0 32.5 -7.5t10.5 -23.5q0 -64 1 -84.5t3 -37.5q1 -5 3.5 -5.5
t6.5 2.5q15 10 28.5 21.5t27.5 26.5q10 11 26 30t22 26q11 12 24.5 18t30.5 6q18 0 28 -6.5t10 -19.5q0 -24 -58.5 -56.5t-139.5 -55.5q-6 -1 -9 -0.5t-6 3.5q-35 34 -60.5 72t-25.5 58z" />
    <glyph glyph-name="Dcaron" unicode="&#x10e;" horiz-adv-x="1168" 
d="M51 0zM426 -25h-134t-177 2q-28 1 -43.5 7.5t-20.5 19.5q-3 18 24 53t55 47q12 4 31.5 2t66.5 -14q36 -10 52.5 -13t29.5 -3q33 0 44.5 4t21.5 15q22 22 42 58t51 115q43 108 53.5 133.5t21.5 49.5q44 99 113 171.5t165 120.5l4 -1q-21 -10 -41.5 -44t-50.5 -109
q-4 -8 -27.5 -69t-40.5 -99q-57 -130 -133 -217t-176 -134q36 -5 137.5 -8t192.5 -1q76 1 129.5 13t88.5 36q29 21 57 57.5t50 83.5q42 89 38.5 185.5t-51.5 172.5q-47 76 -129.5 116t-191.5 40q-91 0 -162.5 -16t-119.5 -47q-34 -22 -59.5 -63.5t-58.5 -137.5
q-15 -44 -39 -63t-63 -19q-43 0 -49 25t24 70q33 45 84.5 88.5t154.5 106.5q108 68 200.5 97.5t187.5 29.5q111 0 196.5 -41.5t135.5 -119.5q52 -81 55.5 -182t-41.5 -185q-24 -46 -78 -96.5t-137 -106.5q-37 -25 -58 -38t-47 -29q-40 -23 -74 -35t-71 -18
q-24 -5 -88.5 -7.5t-144.5 -2.5zM869 988q0 14 12.5 23.5t32.5 9.5q22 0 32.5 -7.5t10.5 -23.5q0 -64 1 -84.5t3 -37.5q1 -5 3.5 -5.5t6.5 2.5q15 10 28.5 21.5t27.5 26.5q10 11 26 30t22 26q11 12 24.5 18t30.5 6q18 0 28 -6.5t10 -19.5q0 -24 -58.5 -56.5t-139.5 -55.5
q-6 -1 -9 -0.5t-6 3.5q-35 34 -60.5 72t-25.5 58z" />
    <glyph glyph-name="dcaron" unicode="&#x10f;" horiz-adv-x="609" 
d="M11 0zM264 461q42 24 79 36.5t62 12.5q33 0 59.5 -11.5t46.5 -34.5q36 61 100 171.5t77 133.5q-2 11 -11 20t-25 16q-13 7 -34.5 9.5t-55.5 1.5q-44 -6 -62.5 -8t-32.5 -3l-1 7q106 10 197 29t167 45q11 -2 16.5 -7t6.5 -15q-10 -17 -21 -36.5l-33 -58.5
q-41 -73 -62 -109t-39 -66q-164 -273 -195 -326.5t-52 -94.5q-12 -25 -18.5 -45.5t-5.5 -35.5q1 -17 9 -27.5t22 -13.5q17 6 45.5 30t66.5 65l6 -7q-63 -68 -92.5 -92.5t-60.5 -41.5q-3 -2 -13 -3t-25 -1q-12 0 -23.5 1t-14.5 3q-22 16 -34.5 36t-14.5 43q-1 22 9.5 50
t31.5 63q9 14 19.5 30.5t42.5 61.5q-48 -53 -99.5 -106.5t-92.5 -92.5q-26 -26 -55.5 -50.5t-50.5 -37.5q-6 -3 -14.5 -5t-17.5 -2q-6 0 -11.5 1t-9.5 3q-39 25 -38.5 95.5t38.5 153.5q27 60 83.5 116t130.5 97zM168 292q-22 -67 -26 -126.5t14 -77.5q6 -3 18.5 1t27.5 15
q41 31 108.5 101.5t134.5 151.5q-27 55 -59.5 83.5t-67.5 28.5q-14 0 -25 -3.5t-21 -10.5q-30 -21 -58.5 -64.5t-45.5 -98.5zM888 837q8 17 29.5 28.5t41.5 11.5q21 0 23.5 -24t-13.5 -69q-19 -51 -67.5 -100t-112.5 -83q-6 -3 -8 1t3 7q29 15 48.5 36.5t33.5 54.5
q7 16 10.5 34.5t4.5 53.5q1 23 2.5 32.5t4.5 16.5z" />
    <glyph glyph-name="Dcroat" unicode="&#x110;" horiz-adv-x="1168" 
d="M50 0zM426 -25q-170 0 -225 0.5t-86 1.5q-28 0 -44 7t-20 20q-5 18 22.5 53.5t56.5 46.5q12 5 32 3t67 -15q35 -10 52 -13t29 -3q33 0 44.5 4t21.5 15q40 40 89.5 164t50.5 126q-42 -1 -85 -3t-73 -4q-5 3 -3 14t9 14q23 -2 65 -4t92 -4q4 9 8.5 20t14.5 33
q44 99 113 171.5t165 120.5l4 -1q-21 -10 -41.5 -44t-50.5 -109q-4 -8 -27.5 -69t-40.5 -99q-1 -2 -2 -4.5t-4 -7.5l-3 -7.5t-2 -4.5q49 1 103 3.5t93 5.5q6 -4 3.5 -15t-8.5 -13q-49 3 -100.5 5.5t-95.5 3.5q-55 -116 -127 -194t-166 -123q36 -5 137.5 -8t192.5 -1
q76 1 129.5 13t88.5 36q29 21 57 57.5t50 83.5q42 89 38.5 185.5t-51.5 172.5q-47 76 -129.5 116t-191.5 40q-91 0 -162.5 -16t-119.5 -47q-31 -20 -55 -58t-63 -143q-16 -44 -40 -63t-62 -19q-43 0 -49 25t24 70q33 45 84.5 88.5t154.5 106.5q108 68 200.5 97.5t187.5 29.5
q111 0 196.5 -41.5t135.5 -119.5q52 -81 55.5 -182t-41.5 -185q-24 -46 -78 -96.5t-137 -106.5q-37 -25 -58 -38t-47 -29q-40 -23 -74 -35t-71 -18q-24 -5 -88.5 -7.5t-144.5 -2.5z" />
    <glyph glyph-name="dcroat" unicode="&#x111;" horiz-adv-x="609" 
d="M102 2q-6 -3 -14 -5t-17 -2q-6 0 -12.5 1t-8.5 3q-40 24 -39.5 95t38.5 154q27 60 84 116t131 97q41 23 78 36t63 13q32 0 58 -11t46 -33q29 45 53.5 82t42.5 62q1 2 3 4.5l6 7.5q3 4 5 6t3 4q-91 -3 -123.5 -5t-52.5 -4q-5 3 -4.5 14t5.5 15q24 -2 70 -4.5t115 -4.5
q40 45 99 85t143 78q86 39 155 55t147 16q32 0 64 -1.5t50 -3.5q6 -1 9 -4t3 -8q0 -23 -37.5 -58t-57.5 -35q-16 0 -39.5 4.5t-76.5 18.5q-58 15 -85.5 20t-48.5 5q-25 0 -43 -3.5t-34 -11.5q-27 -14 -63.5 -53.5t-80.5 -102.5q39 2 75 4t60 4q5 -4 4.5 -15t-5.5 -14
q-28 3 -66.5 5t-76.5 3q-10 -14 -20.5 -30t-21.5 -33q-85 -135 -142.5 -232.5t-91.5 -162.5q-12 -25 -18.5 -45.5t-5.5 -35.5q2 -18 10 -28t21 -13q17 6 45.5 30t66.5 65l6 -7q-72 -76 -98.5 -97.5t-54.5 -36.5q-3 -2 -13 -3t-26 -1q-11 0 -22.5 1t-15.5 3q-22 16 -34 36.5
t-14 42.5q-1 22 9 49.5t32 63.5q8 13 18 28.5t40 59.5q-42 -46 -92.5 -98.5t-95.5 -96.5q-27 -27 -56.5 -51.5t-50.5 -36.5zM168 292q-22 -67 -26 -126.5t14 -77.5q6 -3 18.5 1t27.5 15q41 31 108.5 101.5t134.5 151.5q-27 55 -59.5 83.5t-67.5 28.5q-14 0 -25 -3.5
t-21 -10.5q-30 -21 -58.5 -64.5t-45.5 -98.5z" />
    <glyph glyph-name="Emacron" unicode="&#x112;" horiz-adv-x="1066" 
d="M57 0zM201 -2q-40 -1 -54 -1.5t-21 -0.5q-30 0 -47.5 6t-21.5 18q-3 18 20 48t52 43q8 3 24.5 0.5t59.5 -14.5q44 -13 65.5 -17.5t37.5 -4.5q22 0 40 7t31 21q41 40 90 165t55 140q-68 11 -112.5 16.5t-80.5 9.5q-5 1 -6.5 1.5t-1.5 2.5t1.5 2.5t8.5 0.5q45 0 98.5 1
t108.5 2q1 1 1.5 2.5t0.5 3.5q1 2 1.5 3.5t1.5 2.5q42 96 105.5 166t141.5 107q-76 22 -139.5 32t-119.5 10q-48 0 -82.5 -7t-61.5 -21q-46 -25 -81.5 -84.5t-70.5 -169.5q-17 -54 -39 -75t-60 -21q-43 0 -53 28.5t20 74.5q49 76 121.5 142t158.5 112q75 39 153.5 58.5
t158.5 19.5q58 0 133 -12t198 -41q95 -23 132.5 -35.5t40.5 -20.5q4 -9 -28 -42.5t-47 -35.5q-15 -1 -66 11.5t-124 33.5q-9 3 -58 18t-81 24q-15 -9 -32 -40t-42 -95q-7 -18 -25.5 -67.5t-30.5 -78.5q74 2 132 3.5t90 1.5q40 0 70 -2.5t43 -7.5q12 -3 -20.5 -42t-50.5 -44
t-37 -5t-56 4q-17 2 -40.5 5.5t-156.5 26.5q-52 -112 -119.5 -187t-154.5 -116q24 -2 45 -3t45 -1q77 0 156.5 6t148.5 17q135 19 157.5 22t29.5 3q5 0 7 -2.5t1 -6.5q-1 -13 -31 -51.5t-53 -56.5q-8 -4 -43.5 -5.5t-111.5 -1.5h-195q-67 0 -141.5 -1.5t-188.5 -4.5z
M901 931q17 -1 29.5 -1h26.5h75.5t41.5 1q16 1 22 0.5t6 -2.5q0 -5 -14 -20t-44 -42h-5.5t-12.5 1q-21 0 -35.5 0.5t-28.5 0.5q-26 0 -49.5 -0.5t-52.5 -2.5q-17 -1 -24.5 -0.5t-7.5 3.5q0 2 4 6.5t18 18.5q13 14 21 22t14 15h6h10z" />
    <glyph glyph-name="emacron" unicode="&#x113;" horiz-adv-x="485" 
d="M12 0zM291 49q-52 -33 -84.5 -44.5t-67.5 -11.5q-43 0 -76 23.5t-44 62.5q-12 44 -4 89t36 97q24 47 77.5 99t113.5 89q54 34 90.5 47.5t69.5 13.5q41 0 64.5 -19t23.5 -51q0 -45 -53.5 -94.5t-184.5 -127.5q-19 -12 -43.5 -26l-66.5 -38q8 -42 35 -64.5t68 -22.5
q21 0 42 6.5t44 20.5t52.5 42t49.5 56l8 -5q-28 -38 -71 -78.5t-79 -63.5zM252 449q-17 -11 -35 -34.5t-36 -58.5q-22 -42 -33 -94t-7 -95q7 4 46.5 27.5t58.5 35.5q51 34 78 60.5t39 55.5q3 6 5 13.5t2 15.5q0 34 -23 58.5t-56 24.5q-9 0 -19.5 -2.5t-19.5 -6.5zM350 639
q17 -1 29.5 -1h26.5h75.5t41.5 1q16 1 22 0.5t6 -2.5q0 -5 -14 -20t-44 -42h-5.5t-12.5 1q-21 0 -35.5 0.5t-28.5 0.5q-26 0 -49.5 -0.5t-52.5 -2.5q-17 -1 -24.5 -0.5t-7.5 3.5q0 2 4 6.5t18 18.5q13 14 21 22t14 15h6h10z" />
    <glyph glyph-name="Ebreve" unicode="&#x114;" horiz-adv-x="1066" 
d="M57 0zM201 -2q-40 -1 -54 -1.5t-21 -0.5q-30 0 -47.5 6t-21.5 18q-3 18 20 48t52 43q8 3 24.5 0.5t59.5 -14.5q44 -13 65.5 -17.5t37.5 -4.5q22 0 40 7t31 21q41 40 90 165t55 140q-68 11 -112.5 16.5t-80.5 9.5q-5 1 -6.5 1.5t-1.5 2.5t1.5 2.5t8.5 0.5q45 0 98.5 1
t108.5 2q1 1 1.5 2.5t0.5 3.5q1 2 1.5 3.5t1.5 2.5q42 96 105.5 166t141.5 107q-76 22 -139.5 32t-119.5 10q-48 0 -82.5 -7t-61.5 -21q-46 -25 -81.5 -84.5t-70.5 -169.5q-17 -54 -39 -75t-60 -21q-43 0 -53 28.5t20 74.5q49 76 121.5 142t158.5 112q75 39 153.5 58.5
t158.5 19.5q58 0 133 -12t198 -41q95 -23 132.5 -35.5t40.5 -20.5q4 -9 -28 -42.5t-47 -35.5q-15 -1 -66 11.5t-124 33.5q-9 3 -58 18t-81 24q-15 -9 -32 -40t-42 -95q-7 -18 -25.5 -67.5t-30.5 -78.5q74 2 132 3.5t90 1.5q40 0 70 -2.5t43 -7.5q12 -3 -20.5 -42t-50.5 -44
t-37 -5t-56 4q-17 2 -40.5 5.5t-156.5 26.5q-52 -112 -119.5 -187t-154.5 -116q24 -2 45 -3t45 -1q77 0 156.5 6t148.5 17q135 19 157.5 22t29.5 3q5 0 7 -2.5t1 -6.5q-1 -13 -31 -51.5t-53 -56.5q-8 -4 -43.5 -5.5t-111.5 -1.5h-195q-67 0 -141.5 -1.5t-188.5 -4.5z
M1105 962q-23 -47 -64.5 -72t-97.5 -25q-47 0 -77.5 18t-38.5 50q-3 14 5.5 24.5t27.5 15.5q25 7 37.5 5t13.5 -14q4 -43 20.5 -62t48.5 -19q40 0 69.5 24t37.5 61q1 5 3.5 7.5t7.5 2.5q6 0 8 -5t-1 -11z" />
    <glyph glyph-name="ebreve" unicode="&#x115;" horiz-adv-x="485" 
d="M12 0zM291 49q-52 -33 -84.5 -44.5t-67.5 -11.5q-43 0 -76 23.5t-44 62.5q-12 44 -4 89t36 97q24 47 77.5 99t113.5 89q54 34 90.5 47.5t69.5 13.5q41 0 64.5 -19t23.5 -51q0 -45 -53.5 -94.5t-184.5 -127.5q-19 -12 -43.5 -26l-66.5 -38q8 -42 35 -64.5t68 -22.5
q21 0 42 6.5t44 20.5t52.5 42t49.5 56l8 -5q-28 -38 -71 -78.5t-79 -63.5zM252 449q-17 -11 -35 -34.5t-36 -58.5q-22 -42 -33 -94t-7 -95q7 4 46.5 27.5t58.5 35.5q51 34 78 60.5t39 55.5q3 6 5 13.5t2 15.5q0 34 -23 58.5t-56 24.5q-9 0 -19.5 -2.5t-19.5 -6.5zM553 679
q-23 -47 -64.5 -72t-97.5 -25q-47 0 -77.5 18t-38.5 50q-3 14 5.5 24.5t27.5 15.5q25 7 37.5 5t13.5 -14q4 -43 20.5 -62t48.5 -19q40 0 69.5 24t37.5 61q1 5 3.5 7.5t7.5 2.5q6 0 8 -5t-1 -11z" />
    <glyph glyph-name="Edotaccent" unicode="&#x116;" horiz-adv-x="1066" 
d="M57 0zM201 -2q-40 -1 -54 -1.5t-21 -0.5q-30 0 -47.5 6t-21.5 18q-3 18 20 48t52 43q8 3 24.5 0.5t59.5 -14.5q44 -13 65.5 -17.5t37.5 -4.5q22 0 40 7t31 21q41 40 90 165t55 140q-68 11 -112.5 16.5t-80.5 9.5q-5 1 -6.5 1.5t-1.5 2.5t1.5 2.5t8.5 0.5q45 0 98.5 1
t108.5 2q1 1 1.5 2.5t0.5 3.5q1 2 1.5 3.5t1.5 2.5q42 96 105.5 166t141.5 107q-76 22 -139.5 32t-119.5 10q-48 0 -82.5 -7t-61.5 -21q-46 -25 -81.5 -84.5t-70.5 -169.5q-17 -54 -39 -75t-60 -21q-43 0 -53 28.5t20 74.5q49 76 121.5 142t158.5 112q75 39 153.5 58.5
t158.5 19.5q58 0 133 -12t198 -41q95 -23 132.5 -35.5t40.5 -20.5q4 -9 -28 -42.5t-47 -35.5q-15 -1 -66 11.5t-124 33.5q-9 3 -58 18t-81 24q-15 -9 -32 -40t-42 -95q-7 -18 -25.5 -67.5t-30.5 -78.5q74 2 132 3.5t90 1.5q40 0 70 -2.5t43 -7.5q12 -3 -20.5 -42t-50.5 -44
t-37 -5t-56 4q-17 2 -40.5 5.5t-156.5 26.5q-52 -112 -119.5 -187t-154.5 -116q24 -2 45 -3t45 -1q77 0 156.5 6t148.5 17q135 19 157.5 22t29.5 3q5 0 7 -2.5t1 -6.5q-1 -13 -31 -51.5t-53 -56.5q-8 -4 -43.5 -5.5t-111.5 -1.5h-195q-67 0 -141.5 -1.5t-188.5 -4.5z
M960 880q-15 0 -26.5 2.5t-19.5 7.5q-4 23 17 68.5t41 56.5q8 4 24 7t30 3q18 0 35 -5.5t24 -13.5q-3 -31 -35 -71.5t-55 -48.5q-7 -3 -15.5 -4.5t-19.5 -1.5z" />
    <glyph glyph-name="edotaccent" unicode="&#x117;" horiz-adv-x="485" 
d="M12 0zM291 49q-52 -33 -84.5 -44.5t-67.5 -11.5q-43 0 -76 23.5t-44 62.5q-12 44 -4 89t36 97q24 47 77.5 99t113.5 89q54 34 90.5 47.5t69.5 13.5q41 0 64.5 -19t23.5 -51q0 -45 -53.5 -94.5t-184.5 -127.5q-19 -12 -43.5 -26l-66.5 -38q8 -42 35 -64.5t68 -22.5
q21 0 42 6.5t44 20.5t52.5 42t49.5 56l8 -5q-28 -38 -71 -78.5t-79 -63.5zM252 449q-17 -11 -35 -34.5t-36 -58.5q-22 -42 -33 -94t-7 -95q7 4 46.5 27.5t58.5 35.5q51 34 78 60.5t39 55.5q3 6 5 13.5t2 15.5q0 34 -23 58.5t-56 24.5q-9 0 -19.5 -2.5t-19.5 -6.5zM379 588
q-15 0 -26.5 2.5t-19.5 7.5q-4 23 17 68.5t41 56.5q8 4 24 7t30 3q18 0 35 -5.5t24 -13.5q-3 -31 -35 -71.5t-55 -48.5q-7 -3 -15.5 -4.5t-19.5 -1.5z" />
    <glyph glyph-name="Eogonek" unicode="&#x118;" horiz-adv-x="1066" 
d="M202 -2q-41 -1 -55 -1.5t-21 -0.5q-30 0 -47.5 6t-21.5 18q-3 18 20 48t52 43q8 3 24 0.5t59 -15.5q45 -12 66.5 -16.5t37.5 -4.5q22 0 40 7t31 21q40 39 89 161.5l57 142.5q-59 10 -106 16.5t-87 10.5q-5 1 -7 2t-2 2q0 2 1.5 2.5t8.5 0.5q44 0 98 1t110 2q1 2 2 4.5
l3 7.5q42 97 105.5 166.5t140.5 106.5q-76 22 -139.5 32t-119.5 10q-48 0 -82.5 -7t-61.5 -21q-46 -25 -81 -84t-71 -170q-15 -52 -37.5 -74t-61.5 -22q-43 0 -53 28.5t20 74.5q49 76 121.5 142t158.5 112q75 39 153.5 58.5t158.5 19.5q58 0 133 -12t198 -41
q95 -23 132.5 -35.5t40.5 -20.5q4 -9 -28 -42.5t-47 -35.5q-15 -1 -66 11.5t-124 33.5q-8 2 -17.5 5t-29.5 9q-36 12 -55 17.5t-36 10.5q-15 -10 -32.5 -40.5t-42.5 -94.5q-7 -19 -26 -68.5t-30 -77.5q74 2 132 3.5t90 1.5q40 0 70 -2.5t43 -7.5q12 -3 -20.5 -42t-50.5 -44
t-37 -5t-56 4q-17 2 -40.5 5.5t-156.5 26.5q-52 -112 -119.5 -187t-154.5 -116q26 -2 46.5 -3t43.5 -1q78 0 157 6t149 17q127 19 152.5 22t33.5 3q5 0 7 -2t2 -7q-2 -13 -32 -52t-53 -56q-6 -3 -38 -5t-75 -2q-42 -21 -66.5 -46t-30.5 -52q-7 -29 7.5 -46.5t45.5 -17.5
q17 0 33 5t28 14q7 4 -12.5 -38.5t-33.5 -51.5q-12 -8 -25 -12t-27 -4q-50 -1 -72 28.5t-9 76.5q10 38 49 76.5t95 67.5h-12h-12h-195q-67 0 -141 -1.5t-188 -4.5z" />
    <glyph glyph-name="eogonek" unicode="&#x119;" horiz-adv-x="485" 
d="M266 -229q-12 -8 -25 -12t-27 -4q-50 -1 -72 29.5t-9 78.5q10 38 42.5 79.5t88.5 88.5q-35 -20 -64 -29t-60 -9q-43 0 -76 23.5t-44 62.5q-12 43 -4.5 88t35.5 98q25 47 78.5 99t113.5 89q54 34 90.5 47.5t69.5 13.5q41 0 64.5 -19t23.5 -51q0 -46 -54 -95.5t-185 -126.5
q-18 -12 -41.5 -26t-67.5 -38q8 -42 34.5 -64.5t67.5 -22.5q22 0 43.5 6.5t42.5 20.5q23 14 52.5 42t49.5 56l9 -5q-24 -32 -58.5 -67t-64.5 -58q-52 -38 -83 -76.5t-39 -74.5q-8 -32 7 -52.5t47 -20.5q17 0 33 5t28 14q7 4 -12.5 -38.5t-33.5 -51.5zM253 449
q-17 -10 -35 -33.5t-37 -59.5q-22 -42 -33 -94t-6 -95q61 36 76.5 45.5t27.5 17.5q54 36 80 61t38 55q3 6 4.5 12.5t1.5 16.5q0 34 -23 58.5t-56 24.5q-8 0 -18.5 -2.5t-19.5 -6.5z" />
    <glyph glyph-name="Ecaron" unicode="&#x11a;" horiz-adv-x="1066" 
d="M57 0zM201 -2q-40 -1 -54 -1.5t-21 -0.5q-30 0 -47.5 6t-21.5 18q-3 18 20 48t52 43q8 3 24.5 0.5t59.5 -14.5q44 -13 65.5 -17.5t37.5 -4.5q22 0 40 7t31 21q41 40 90 165t55 140q-68 11 -112.5 16.5t-80.5 9.5q-5 1 -6.5 1.5t-1.5 2.5t1.5 2.5t8.5 0.5q45 0 98.5 1
t108.5 2q1 1 1.5 2.5t0.5 3.5q1 2 1.5 3.5t1.5 2.5q42 96 105.5 166t141.5 107q-76 22 -139.5 32t-119.5 10q-48 0 -82.5 -7t-61.5 -21q-46 -25 -81.5 -84.5t-70.5 -169.5q-17 -54 -39 -75t-60 -21q-43 0 -53 28.5t20 74.5q49 76 121.5 142t158.5 112q75 39 153.5 58.5
t158.5 19.5q58 0 133 -12t198 -41q95 -23 132.5 -35.5t40.5 -20.5q4 -9 -28 -42.5t-47 -35.5q-15 -1 -66 11.5t-124 33.5q-9 3 -58 18t-81 24q-15 -9 -32 -40t-42 -95q-7 -18 -25.5 -67.5t-30.5 -78.5q74 2 132 3.5t90 1.5q40 0 70 -2.5t43 -7.5q12 -3 -20.5 -42t-50.5 -44
t-37 -5t-56 4q-17 2 -40.5 5.5t-156.5 26.5q-52 -112 -119.5 -187t-154.5 -116q24 -2 45 -3t45 -1q77 0 156.5 6t148.5 17q135 19 157.5 22t29.5 3q5 0 7 -2.5t1 -6.5q-1 -13 -31 -51.5t-53 -56.5q-8 -4 -43.5 -5.5t-111.5 -1.5h-195q-67 0 -141.5 -1.5t-188.5 -4.5z
M855 979q0 14 12.5 23.5t32.5 9.5q22 0 32.5 -7.5t10.5 -23.5q0 -64 1 -84.5t3 -37.5q1 -5 3.5 -5.5t6.5 2.5q15 10 28.5 21.5t27.5 26.5q10 11 26 30t22 26q11 12 24.5 18t30.5 6q18 0 28 -6.5t10 -19.5q0 -24 -58.5 -56.5t-139.5 -55.5q-6 -1 -9 -0.5t-6 3.5
q-35 34 -60.5 72t-25.5 58z" />
    <glyph glyph-name="ecaron" unicode="&#x11b;" horiz-adv-x="485" 
d="M12 0zM291 49q-52 -33 -84.5 -44.5t-67.5 -11.5q-43 0 -76 23.5t-44 62.5q-12 44 -4 89t36 97q24 47 77.5 99t113.5 89q54 34 90.5 47.5t69.5 13.5q41 0 64.5 -19t23.5 -51q0 -45 -53.5 -94.5t-184.5 -127.5q-19 -12 -43.5 -26l-66.5 -38q8 -42 35 -64.5t68 -22.5
q21 0 42 6.5t44 20.5t52.5 42t49.5 56l8 -5q-28 -38 -71 -78.5t-79 -63.5zM252 449q-17 -11 -35 -34.5t-36 -58.5q-22 -42 -33 -94t-7 -95q7 4 46.5 27.5t58.5 35.5q51 34 78 60.5t39 55.5q3 6 5 13.5t2 15.5q0 34 -23 58.5t-56 24.5q-9 0 -19.5 -2.5t-19.5 -6.5zM285 697
q0 14 12.5 23.5t32.5 9.5q22 0 32.5 -7.5t10.5 -23.5q0 -64 1 -84.5t3 -37.5q1 -5 3.5 -5.5t6.5 2.5q15 10 28.5 21.5t27.5 26.5q10 11 26 30t22 26q11 12 24.5 18t30.5 6q18 0 28 -6.5t10 -19.5q0 -24 -58.5 -56.5t-139.5 -55.5q-6 -1 -9 -0.5t-6 3.5q-35 34 -60.5 72
t-25.5 58z" />
    <glyph glyph-name="Gcircumflex" unicode="&#x11c;" horiz-adv-x="1090" 
d="M145 0zM589 -235q-29 -11 -73.5 -24t-48.5 -14q-5 -1 -5.5 2t3.5 5q69 22 103.5 47t69.5 76q32 47 86.5 139t88.5 158q-99 -76 -199 -118t-185 -42q-101 0 -171.5 48.5t-97.5 134.5q-25 78 -9 167.5t69 167.5q47 69 137 138t193 113q80 34 161 51.5t160 17.5
q67 0 140.5 -13t146.5 -38q2 -1 3.5 -2.5t1.5 -3.5q0 -12 -52.5 -52.5t-70.5 -40.5q-7 0 -14 1.5t-18 4.5q-4 1 -123.5 47.5t-211.5 46.5q-30 0 -59.5 -6.5t-60.5 -19.5q-55 -25 -105 -71.5t-88 -107.5q-53 -84 -70.5 -172t3.5 -163q24 -85 93.5 -132.5t175.5 -48.5
q117 -1 201 68.5t166 237.5h-172q-46 0 -99 -3t-134 -12q-28 -2 -37.5 -3t-14.5 -1q-3 0 -4 1t-1 4q0 4 5.5 13t15.5 21q19 21 37.5 36.5t31.5 19.5q7 2 35 3.5t131 1.5q39 0 87.5 1t122.5 3q17 1 22.5 1h7.5q23 0 61 -35t29 -52q-30 -47 -65 -108.5t-98 -182.5
q-45 -85 -63.5 -117.5t-30.5 -50.5q-17 -26 -40 -48t-52 -41q-24 -15 -52.5 -28t-62.5 -25zM981 905q0 -14 -12.5 -23.5t-32.5 -9.5t-29.5 7t-12.5 24q-1 8 -1.5 19t-0.5 35q0 28 -0.5 42t-2.5 26q-1 4 -3 5t-6 -2q-16 -10 -29.5 -22t-27.5 -27q-10 -10 -26 -29t-22 -26
q-10 -12 -23.5 -18t-30.5 -6q-19 0 -29 6.5t-10 19.5q0 23 59 55.5t140 55.5q6 2 8.5 1.5t5.5 -3.5q35 -34 60.5 -72t25.5 -58z" />
    <glyph glyph-name="gcircumflex" unicode="&#x11d;" horiz-adv-x="591" 
d="M0 0zM301 -271q-32 -54 -123.5 -86.5t-192.5 -32.5q-104 1 -165 20t-77 56q-8 19 -9 35.5t4 34.5q11 31 48 61t101 61q97 49 140.5 77t86.5 61q-11 -6 -21.5 -9t-18.5 -3q-5 0 -10.5 1.5t-10.5 4.5q-35 22 -36 92t34 145q28 62 85.5 119t130.5 96q40 23 77.5 35.5
t63.5 12.5q43 0 73 -19t53 -61q5 3 13 8t26 17q29 19 43 28.5t24 15.5q4 2 6.5 0.5t2.5 -5.5q-30 -36 -53 -68t-41 -61q-64 -102 -108.5 -194.5t-70.5 -180.5q-8 -26 -15 -54t-18 -77q-13 -61 -21.5 -86t-20.5 -44zM169 292q-21 -67 -20 -123.5t24 -81.5q42 22 121.5 99
t153.5 169q-28 56 -61 85t-68 29q-13 0 -23 -3t-21 -10q-30 -20 -59 -64t-47 -100zM-115 -313q14 -34 44 -50.5t80 -16.5q48 0 90 28.5t76 84.5q12 19 22 46t28 92q18 68 30.5 107t27.5 76q21 56 48 110.5t62 109.5q-57 -61 -127 -128t-110 -101q-77 -63 -128 -109t-84 -83
q-24 -27 -39.5 -51t-22.5 -46q-6 -18 -5 -35.5t8 -33.5zM594 581q0 -14 -12.5 -23.5t-32.5 -9.5t-29.5 7t-12.5 24q-1 8 -1.5 19t-0.5 35q0 28 -0.5 42t-2.5 26q-1 4 -3 5t-6 -2q-16 -10 -29.5 -22t-27.5 -27q-10 -10 -26 -29t-22 -26q-10 -12 -23.5 -18t-30.5 -6
q-19 0 -29 6.5t-10 19.5q0 23 59 55.5t140 55.5q6 2 8.5 1.5t5.5 -3.5q35 -34 60.5 -72t25.5 -58z" />
    <glyph glyph-name="Gbreve" unicode="&#x11e;" horiz-adv-x="1090" 
d="M145 0zM589 -235q-29 -11 -73.5 -24t-48.5 -14q-5 -1 -5.5 2t3.5 5q69 22 103.5 47t69.5 76q32 47 86.5 139t88.5 158q-99 -76 -199 -118t-185 -42q-101 0 -171.5 48.5t-97.5 134.5q-25 78 -9 167.5t69 167.5q47 69 137 138t193 113q80 34 161 51.5t160 17.5
q67 0 140.5 -13t146.5 -38q2 -1 3.5 -2.5t1.5 -3.5q0 -12 -52.5 -52.5t-70.5 -40.5q-7 0 -14 1.5t-18 4.5q-4 1 -123.5 47.5t-211.5 46.5q-30 0 -59.5 -6.5t-60.5 -19.5q-55 -25 -105 -71.5t-88 -107.5q-53 -84 -70.5 -172t3.5 -163q24 -85 93.5 -132.5t175.5 -48.5
q117 -1 201 68.5t166 237.5h-172q-46 0 -99 -3t-134 -12q-28 -2 -37.5 -3t-14.5 -1q-3 0 -4 1t-1 4q0 4 5.5 13t15.5 21q19 21 37.5 36.5t31.5 19.5q7 2 35 3.5t131 1.5q39 0 87.5 1t122.5 3q17 1 22.5 1h7.5q23 0 61 -35t29 -52q-30 -47 -65 -108.5t-98 -182.5
q-45 -85 -63.5 -117.5t-30.5 -50.5q-17 -26 -40 -48t-52 -41q-24 -15 -52.5 -28t-62.5 -25zM981 994q-23 -47 -64.5 -72t-97.5 -25q-47 0 -77.5 18t-38.5 50q-3 14 5.5 24.5t27.5 15.5q25 7 37.5 5t13.5 -14q4 -43 20.5 -62t48.5 -19q40 0 69.5 24t37.5 61q1 5 3.5 7.5
t7.5 2.5q6 0 8 -5t-1 -11z" />
    <glyph glyph-name="gbreve" unicode="&#x11f;" horiz-adv-x="591" 
d="M0 0zM301 -271q-32 -54 -123.5 -86.5t-192.5 -32.5q-104 1 -165 20t-77 56q-8 19 -9 35.5t4 34.5q11 31 48 61t101 61q97 49 140.5 77t86.5 61q-11 -6 -21.5 -9t-18.5 -3q-5 0 -10.5 1.5t-10.5 4.5q-35 22 -36 92t34 145q28 62 85.5 119t130.5 96q40 23 77.5 35.5
t63.5 12.5q43 0 73 -19t53 -61q5 3 13 8t26 17q29 19 43 28.5t24 15.5q4 2 6.5 0.5t2.5 -5.5q-30 -36 -53 -68t-41 -61q-64 -102 -108.5 -194.5t-70.5 -180.5q-8 -26 -15 -54t-18 -77q-13 -61 -21.5 -86t-20.5 -44zM169 292q-21 -67 -20 -123.5t24 -81.5q42 22 121.5 99
t153.5 169q-28 56 -61 85t-68 29q-13 0 -23 -3t-21 -10q-30 -20 -59 -64t-47 -100zM-115 -313q14 -34 44 -50.5t80 -16.5q48 0 90 28.5t76 84.5q12 19 22 46t28 92q18 68 30.5 107t27.5 76q21 56 48 110.5t62 109.5q-57 -61 -127 -128t-110 -101q-77 -63 -128 -109t-84 -83
q-24 -27 -39.5 -51t-22.5 -46q-6 -18 -5 -35.5t8 -33.5zM594 670q-23 -47 -64.5 -72t-97.5 -25q-47 0 -77.5 18t-38.5 50q-3 14 5.5 24.5t27.5 15.5q25 7 37.5 5t13.5 -14q4 -43 20.5 -62t48.5 -19q40 0 69.5 24t37.5 61q1 5 3.5 7.5t7.5 2.5q6 0 8 -5t-1 -11z" />
    <glyph glyph-name="Gdotaccent" unicode="&#x120;" horiz-adv-x="1090" 
d="M145 0zM589 -235q-29 -11 -73.5 -24t-48.5 -14q-5 -1 -5.5 2t3.5 5q69 22 103.5 47t69.5 76q32 47 86.5 139t88.5 158q-99 -76 -199 -118t-185 -42q-101 0 -171.5 48.5t-97.5 134.5q-25 78 -9 167.5t69 167.5q47 69 137 138t193 113q80 34 161 51.5t160 17.5
q67 0 140.5 -13t146.5 -38q2 -1 3.5 -2.5t1.5 -3.5q0 -12 -52.5 -52.5t-70.5 -40.5q-7 0 -14 1.5t-18 4.5q-4 1 -123.5 47.5t-211.5 46.5q-30 0 -59.5 -6.5t-60.5 -19.5q-55 -25 -105 -71.5t-88 -107.5q-53 -84 -70.5 -172t3.5 -163q24 -85 93.5 -132.5t175.5 -48.5
q117 -1 201 68.5t166 237.5h-172q-46 0 -99 -3t-134 -12q-28 -2 -37.5 -3t-14.5 -1q-3 0 -4 1t-1 4q0 4 5.5 13t15.5 21q19 21 37.5 36.5t31.5 19.5q7 2 35 3.5t131 1.5q39 0 87.5 1t122.5 3q17 1 22.5 1h7.5q23 0 61 -35t29 -52q-30 -47 -65 -108.5t-98 -182.5
q-45 -85 -63.5 -117.5t-30.5 -50.5q-17 -26 -40 -48t-52 -41q-24 -15 -52.5 -28t-62.5 -25zM836 912q-15 0 -26.5 2.5t-19.5 7.5q-4 23 17 68.5t41 56.5q8 4 24 7t30 3q18 0 35 -5.5t24 -13.5q-3 -31 -35 -71.5t-55 -48.5q-7 -3 -15.5 -4.5t-19.5 -1.5z" />
    <glyph glyph-name="gdotaccent" unicode="&#x121;" horiz-adv-x="591" 
d="M0 0zM301 -271q-32 -54 -123.5 -86.5t-192.5 -32.5q-104 1 -165 20t-77 56q-8 19 -9 35.5t4 34.5q11 31 48 61t101 61q97 49 140.5 77t86.5 61q-11 -6 -21.5 -9t-18.5 -3q-5 0 -10.5 1.5t-10.5 4.5q-35 22 -36 92t34 145q28 62 85.5 119t130.5 96q40 23 77.5 35.5
t63.5 12.5q43 0 73 -19t53 -61q5 3 13 8t26 17q29 19 43 28.5t24 15.5q4 2 6.5 0.5t2.5 -5.5q-30 -36 -53 -68t-41 -61q-64 -102 -108.5 -194.5t-70.5 -180.5q-8 -26 -15 -54t-18 -77q-13 -61 -21.5 -86t-20.5 -44zM169 292q-21 -67 -20 -123.5t24 -81.5q42 22 121.5 99
t153.5 169q-28 56 -61 85t-68 29q-13 0 -23 -3t-21 -10q-30 -20 -59 -64t-47 -100zM-115 -313q14 -34 44 -50.5t80 -16.5q48 0 90 28.5t76 84.5q12 19 22 46t28 92q18 68 30.5 107t27.5 76q21 56 48 110.5t62 109.5q-57 -61 -127 -128t-110 -101q-77 -63 -128 -109t-84 -83
q-24 -27 -39.5 -51t-22.5 -46q-6 -18 -5 -35.5t8 -33.5zM449 588q-15 0 -26.5 2.5t-19.5 7.5q-4 23 17 68.5t41 56.5q8 4 24 7t30 3q18 0 35 -5.5t24 -13.5q-3 -31 -35 -71.5t-55 -48.5q-7 -3 -15.5 -4.5t-19.5 -1.5z" />
    <glyph glyph-name="uni0122" unicode="&#x122;" horiz-adv-x="1090" 
d="M145 0zM589 -235q-29 -11 -73.5 -24t-48.5 -14q-5 -1 -5.5 2t3.5 5q69 22 103.5 47t69.5 76q32 47 86.5 139t88.5 158q-99 -76 -199 -118t-185 -42q-101 0 -171.5 48.5t-97.5 134.5q-25 78 -9 167.5t69 167.5q47 69 137 138t193 113q80 34 161 51.5t160 17.5
q67 0 140.5 -13t146.5 -38q2 -1 3.5 -2.5t1.5 -3.5q0 -12 -52.5 -52.5t-70.5 -40.5q-7 0 -14 1.5t-18 4.5q-4 1 -123.5 47.5t-211.5 46.5q-30 0 -59.5 -6.5t-60.5 -19.5q-55 -25 -105 -71.5t-88 -107.5q-53 -84 -70.5 -172t3.5 -163q24 -85 93.5 -132.5t175.5 -48.5
q117 -1 201 68.5t166 237.5h-172q-46 0 -99 -3t-134 -12q-28 -2 -37.5 -3t-14.5 -1q-3 0 -4 1t-1 4q0 4 5.5 13t15.5 21q19 21 37.5 36.5t31.5 19.5q7 2 35 3.5t131 1.5q39 0 87.5 1t122.5 3q17 1 22.5 1h7.5q23 0 61 -35t29 -52q-30 -47 -65 -108.5t-98 -182.5
q-45 -85 -63.5 -117.5t-30.5 -50.5q-17 -26 -40 -48t-52 -41q-24 -15 -52.5 -28t-62.5 -25zM422 -161h-1q-10 -13 -22 -20t-24 -7q-10 0 -19 4.5t-13 12.5q-7 13 2 45.5t24 46.5q8 7 23.5 11.5t31.5 4.5q13 0 25.5 -5.5t19.5 -14.5q4 -5 5.5 -14t1.5 -23q0 -59 -46.5 -103.5
t-134.5 -69.5q-2 -1 -3 2t1 4q43 13 80.5 48.5t48.5 77.5z" />
    <glyph glyph-name="uni0123" unicode="&#x123;" horiz-adv-x="591" 
d="M0 0zM301 -271q-32 -54 -123.5 -86.5t-192.5 -32.5q-104 1 -165 20t-77 56q-8 19 -9 35.5t4 34.5q11 31 48 61t101 61q97 49 140.5 77t86.5 61q-11 -6 -21.5 -9t-18.5 -3q-5 0 -10.5 1.5t-10.5 4.5q-35 22 -36 92t34 145q28 62 85.5 119t130.5 96q40 23 77.5 35.5
t63.5 12.5q43 0 73 -19t53 -61q5 3 13 8t26 17q29 19 43 28.5t24 15.5q4 2 6.5 0.5t2.5 -5.5q-30 -36 -53 -68t-41 -61q-64 -102 -108.5 -194.5t-70.5 -180.5q-8 -26 -15 -54t-18 -77q-13 -61 -21.5 -86t-20.5 -44zM169 292q-21 -67 -20 -123.5t24 -81.5q42 22 121.5 99
t153.5 169q-28 56 -61 85t-68 29q-13 0 -23 -3t-21 -10q-30 -20 -59 -64t-47 -100zM-115 -313q14 -34 44 -50.5t80 -16.5q48 0 90 28.5t76 84.5q12 19 22 46t28 92q18 68 30.5 107t27.5 76q21 56 48 110.5t62 109.5q-57 -61 -127 -128t-110 -101q-77 -63 -128 -109t-84 -83
q-24 -27 -39.5 -51t-22.5 -46q-6 -18 -5 -35.5t8 -33.5zM443 681h2q9 12 21 19.5t24 7.5q10 0 19 -4.5t13 -12.5q7 -13 -2.5 -46t-22.5 -46q-7 -7 -23 -11.5t-33 -4.5q-13 0 -25.5 5.5t-19.5 14.5q-3 5 -4.5 13t-1.5 24q0 59 46 103.5t134 69.5q2 1 3 -2t-1 -4
q-43 -13 -80.5 -48.5t-48.5 -77.5z" />
    <glyph glyph-name="Hcircumflex" unicode="&#x124;" horiz-adv-x="1348" 
d="M38 0zM421 -28q-61 -31 -101.5 -43.5t-76.5 -12.5q-52 0 -100 31t-77 83q-28 50 -27.5 105.5t30.5 104.5q51 85 179.5 140.5t286.5 55.5h24h45q44 -1 68.5 -1h46.5q18 33 44.5 80.5t27.5 48.5q32 57 46.5 93t14.5 55q0 16 -8 26t-22 12q-19 -7 -65 -41.5t-100 -82.5l-6 6
q118 102 160 134t68 45q11 6 32 6t31 -4q17 -8 29 -29t13 -42q1 -23 -12 -57t-55 -112q-6 -11 -14 -24.5t-24 -42.5t-24.5 -43.5t-15.5 -27.5q23 0 50 -0.5t81 -0.5q55 0 82 -0.5t49 -0.5q19 34 38.5 66.5t36.5 58.5q35 53 93.5 103t134.5 92q74 41 151 67t135 29
q39 2 144.5 -13.5t168.5 -30.5q4 -1 6 -3.5t1 -6.5q-6 -19 -49 -46.5t-70 -27.5q-17 0 -46 5.5t-101 23.5q-89 23 -129.5 30t-66.5 7q-53 0 -87 -16t-68 -54q-21 -24 -45.5 -59t-54.5 -86q-15 -26 -31.5 -54.5t-47.5 -84.5q107 0 146 -0.5t56 -1.5q4 0 6 -2t2 -7
q0 -7 -18.5 -26t-46.5 -38q-12 -6 -27 -8.5t-40 -2.5h-71.5t-53.5 1q-2 -4 -19 -35.5t-28 -52.5q-41 -79 -51.5 -106t-10.5 -45q-1 -15 8.5 -27t24.5 -15q21 6 75 47.5t87 74.5l6 -7q-55 -52 -119.5 -104t-105.5 -75q-14 -7 -36 -7t-34 6q-15 9 -26.5 30t-12.5 42
q-1 22 14 59.5t55 109.5q26 47 38.5 70t23.5 42q-27 2 -89.5 7.5t-160.5 14.5q-55 -93 -83 -139.5t-43 -69.5q-33 -50 -92 -95.5t-167 -100.5zM399 411q-77 0 -129.5 -34t-90.5 -109q-23 -45 -22.5 -98t24.5 -101q26 -50 69.5 -78.5t94.5 -28.5q21 0 38.5 4t32.5 12
q29 16 59.5 54t83.5 126q23 39 58 99t75 132q-123 13 -188 17.5t-105 4.5zM1372 884q0 -14 -12.5 -23.5t-32.5 -9.5t-29.5 7t-12.5 24q-1 8 -1.5 19t-0.5 35q0 28 -0.5 42t-2.5 26q-1 4 -3 5t-6 -2q-16 -10 -29.5 -22t-27.5 -27q-10 -10 -26 -29t-22 -26q-10 -12 -23.5 -18
t-30.5 -6q-19 0 -29 6.5t-10 19.5q0 23 59 55.5t140 55.5q6 2 8.5 1.5t5.5 -3.5q35 -34 60.5 -72t25.5 -58z" />
    </font>
</defs>
</svg>
