<svg xmlns="http://www.w3.org/2000/svg">
<defs>
<font id="OggMediumItalic" horiz-adv-x="558" >
  <font-face 
    font-family="Ogg"
    font-weight="500"
    font-style="italic"
    font-stretch="normal"
    units-per-em="1000"
    panose-1="2 9 6 4 8 7 6 10 2 3"
    ascent="800"
    descent="-200"
    x-height="513"
    cap-height="829"
    bbox="-549 -431.286 2004 1088"
    underline-thickness="50"
    underline-position="-150"
    slope="-29"
    unicode-range="U+000D-FB03"
  />
<missing-glyph horiz-adv-x="1414" 
d="M1229 695q53 -55 79 -152t26 -236q0 -126 -32.5 -230.5t-84.5 -158.5q-62 -62 -199.5 -107t-293.5 -45q-185 0 -342 46t-215 113q-45 51 -66 142t-21 237q0 114 28.5 216.5t75.5 155.5q67 77 202.5 117.5t327.5 40.5q189 0 322.5 -36t192.5 -103zM253 -6
q-18 -19 -32.5 -25.5t-32.5 -6.5q-3 0 -9 1.5t-15 4.5q4 -9 8.5 -16.5t10.5 -14.5q46 -51 196.5 -84t340.5 -33q162 0 299.5 33t181.5 76q37 38 56 134.5t19 245.5q0 182 -13 259.5t-48 114.5q-44 52 -172 78.5t-331 26.5q-176 0 -322 -34.5t-194 -87.5q-31 -36 -46.5 -127
t-15.5 -232v-64q44 31 62.5 39.5t35.5 8.5t35 -2.5t52 -11.5q32 -8 48 -10.5t31 -2.5q12 0 20.5 6.5t9.5 16.5q-18 -2 -37.5 6.5t-26.5 24.5q25 -9 47.5 -1.5t29.5 26.5q22 -11 40 -3t24 30q26 -2 42 7.5t22 31.5q29 -6 50 16.5t22 23.5q17 -1 39.5 6.5t43.5 22.5q5 2 10 5
l15 9l15 9t10 5q8 1 14 0t8 -4q-3 2 -12 -1.5t-13 -9.5q-32 -30 -46 -40.5t-29 -18.5q-26 -15 -40.5 -35.5t-21.5 -51.5q-4 -16 -11 -31t-18 -31q-5 -6 -10.5 -8.5t-13.5 -3.5q-21 -3 -25 -5t-5 -5q-1 -7 6 -12t17 -5q9 -1 25.5 -0.5t19.5 0.5q7 0 11 6t4 17q0 3 3.5 7
t15.5 13q15 11 20.5 17t7.5 12q2 9 0.5 16t-6.5 13q7 9 17 15t28 10q20 5 32.5 13t21.5 22q18 22 27.5 49t4.5 46q17 -10 33.5 -15t37.5 -5q17 0 26.5 4t14.5 12q18 -2 29.5 3t15.5 17q3 5 1.5 10t-6.5 6q19 -1 35 5.5t16 14.5q0 1 -3 1.5t-8 0.5q-6 0 -12.5 0.5t-17.5 3.5
q-10 2 -15 2.5t-10 0.5q-11 0 -20 -2.5t-15 -6.5l-2 2q5 8 14 11.5t28 3.5q4 0 8.5 -0.5t15.5 -1.5q14 -2 21.5 -2.5t14.5 -0.5q14 0 25 4.5t18 12.5q-15 0 -30 1t-41 5q-22 3 -32.5 4t-20.5 1q-17 0 -30.5 -10t-20.5 -28q-9 -17 -26.5 -20t-35.5 8q-7 5 -14 8t-14 3

<glyph glyph-name="uniFB00" unicode="ff" horiz-adv-x="711" 
d="M371 -16q-63 -111 -156 -176.5t-175 -65.5q-53 0 -85 24.5t-32 63.5q-50 -42 -105.5 -65t-104.5 -23t-78 22.5t-29 60.5q0 34 25.5 59t65.5 30l2 -1q-2 -15 -1.5 -36.5t4.5 -39.5q8 -33 26.5 -53t43.5 -20q43 0 77.5 41.5t103.5 168.5q15 27 40.5 76t88.5 172
q48 92 71 136.5t41 78.5h-78q-6 0 -6 3.5t4 6.5l126 76q1 1 14.5 25.5t20.5 35.5q53 86 116.5 149.5t131.5 100.5q44 24 88 36.5t85 12.5q25 0 45 -3t38 -9q5 -1 6.5 -2.5t1.5 -5.5q0 -18 -27 -45t-45 -27q-10 0 -24 4t-45 17q-35 15 -51.5 19.5t-28.5 4.5q-29 0 -52 -21
t-59 -79q-14 -23 -33 -55.5t-46 -80.5q-6 -11 -13 -24t-21 -38q-7 -14 -11 -20.5t-7 -12.5h227q5 9 11 19t16 28q8 15 11.5 21t6.5 11q50 79 118 140t154 103q62 32 117.5 46.5t114.5 14.5q41 0 80 -4.5t62 -12.5q3 -1 5 -3t2 -5q0 -18 -28.5 -44.5t-47.5 -26.5
q-14 0 -32 3.5t-59 16.5q-53 16 -81 21t-52 5q-22 0 -40.5 -4.5t-36.5 -13.5q-37 -20 -80.5 -75t-94.5 -145q-6 -11 -13 -24t-21 -38q-7 -14 -11 -20.5t-7 -12.5q28 0 56 1.5t68 3.5q17 2 23 2h8t3.5 -2t0.5 -4q-8 -17 -35.5 -45t-40.5 -29h-2h-8q-33 1 -59.5 2t-50.5 1
q-14 -28 -99 -192.5t-138 -258.5zM49 -16q-12 -20 -23 -37.5t-23 -32.5q-4 -59 20.5 -104.5t65.5 -45.5q44 0 81.5 44t104.5 166q13 24 34.5 65t74.5 145q56 108 84 161t49 94h-228q-11 -21 -98 -190t-142 -265z" />
    <glyph glyph-name="uniFB01" unicode="fi" horiz-adv-x="698" 
d="M462 505q-8 -17 -36 -45t-40 -29h-4h-15q-27 1 -45.5 1.5t-35.5 0.5q-18 -34 -101 -195.5t-136 -253.5q-64 -113 -156 -177.5t-180 -64.5q-49 0 -78 22.5t-29 60.5q0 35 25.5 60t65.5 29l2 -1q-2 -15 -1.5 -36.5t4.5 -39.5q8 -33 26.5 -53t43.5 -20q42 0 76.5 41
t104.5 169q13 24 35.5 66.5t77.5 150.5q54 103 80 153.5t47 89.5h-3h-73q-6 1 -6.5 5.5t3.5 6.5l125 76q21 38 26.5 47t9.5 15q94 145 212.5 224.5t244.5 79.5q34 0 63 -2t49 -6q4 -1 6 -3.5t2 -6.5q0 -18 -23 -45.5t-39 -27.5q-11 0 -27 3.5t-54 14.5q-49 14 -73 18.5
t-42 4.5q-40 0 -68 -20.5t-63 -72.5q-17 -24 -37.5 -59t-49.5 -86q-13 -23 -25.5 -46.5t-25.5 -46.5q22 0 46.5 0.5t63.5 2.5q12 1 16.5 1h6.5t3.5 -2t0.5 -4zM948 812q-27 -30 -78 -76t-179 -153l-5 5q78 75 136.5 145t92.5 126q5 5 11.5 7.5t13.5 2.5q20 0 23.5 -19
t-15.5 -38zM503 3q-3 -3 -10.5 -4t-20.5 -1t-22 1.5t-13 4.5q-19 13 -31.5 34.5t-12.5 40.5q-1 18 11.5 47t76.5 132q70 108 79.5 126t13.5 32q2 14 -6.5 26.5t-22.5 15.5q-19 -7 -54 -33t-63 -55l-7 5q28 30 75.5 69t83.5 61q11 7 21 9.5t24 0.5q20 -5 39.5 -35t19.5 -55
q0 -14 -10.5 -36.5t-34.5 -58.5q-10 -15 -31.5 -44.5t-30.5 -43.5q-56 -86 -68 -112.5t-11 -43.5q1 -12 11.5 -22t26.5 -15q21 7 54.5 33.5t64.5 60.5l6 -7q-55 -56 -90.5 -85.5t-67.5 -47.5z" />
    <glyph glyph-name="uniFB03" unicode="ffi" horiz-adv-x="1020" 
d="M-77 -170q-50 -42 -105.5 -65t-104.5 -23t-78 22.5t-29 60.5q0 34 25.5 59t65.5 30l2 -1q-2 -15 -1.5 -36.5t4.5 -39.5q8 -33 26.5 -53t43.5 -20q43 0 77.5 41.5t103.5 168.5q15 27 40.5 76t88.5 172q48 92 71 136.5t41 78.5h-78q-6 0 -6 3.5t4 6.5l126 76q1 1 14.5 25.5
t20.5 35.5q53 86 116.5 149.5t131.5 100.5q44 24 88 36.5t85 12.5q25 0 45 -3t38 -9q5 -1 6.5 -2.5t1.5 -5.5q0 -18 -27 -45t-45 -27q-10 0 -24 4t-45 17q-35 15 -51.5 19.5t-28.5 4.5q-29 0 -52 -21t-59 -79q-14 -23 -33 -55.5t-46 -80.5q-6 -11 -13 -24t-21 -38
q-7 -14 -11 -20.5t-7 -12.5h227q3 6 20.5 37.5t25.5 43.5q94 145 212 223.5t244 78.5q34 0 63 -2t48 -6q5 -1 7 -3.5t2 -6.5q0 -18 -23 -45.5t-39 -27.5q-11 0 -27 3.5t-54 14.5q-49 14 -73 18.5t-42 4.5q-40 0 -68 -20t-63 -71q-16 -25 -37 -59.5t-49 -85.5q-3 -6 -7 -13.5
t-12 -21.5q-14 -26 -21 -38.5t-13 -23.5q27 0 52.5 1.5t57.5 4.5q13 1 17.5 1h6.5t3.5 -2t0.5 -4q-8 -17 -36 -45t-40 -29h-1.5h-6.5q-26 1 -48 2t-43 1q-3 -6 -92 -179t-145 -272q-63 -111 -156 -176.5t-175 -65.5q-53 0 -85 24.5t-32 63.5zM1269 812q-27 -30 -78 -76
t-179 -153l-6 5q77 74 136.5 144t93.5 127q5 5 11.5 7.5t13.5 2.5q20 0 23.5 -19t-15.5 -38zM824 3q-3 -3 -10.5 -4t-20.5 -1t-22 1.5t-13 4.5q-19 13 -31.5 34t-13.5 41q-1 15 7.5 37.5t28.5 55.5q10 19 30 50t23 36q65 99 76.5 120.5t15.5 37.5q3 14 -5.5 26.5t-22.5 15.5
q-19 -7 -54 -33t-63 -55l-7 5q28 30 75.5 69t83.5 61q11 7 21 9.5t24 0.5q20 -5 39.5 -35t19.5 -55q0 -14 -10.5 -36.5t-34.5 -58.5q-10 -15 -31.5 -44.5t-30.5 -43.5q-59 -90 -70 -115t-10 -41q1 -12 11.5 -22t26.5 -15q21 7 54 33t66 61l6 -7q-65 -65 -97 -91t-61 -42z
M49 -16q-12 -20 -23 -37.5t-23 -32.5q-4 -59 20.5 -104.5t65.5 -45.5q44 0 81.5 44t104.5 166q13 24 34.5 65t74.5 145q56 108 84 161t49 94h-228q-11 -21 -98 -190t-142 -265z" />
    <glyph glyph-name="f_j" unicode="fj" horiz-adv-x="690" 
d="M462 505q-8 -17 -36 -45t-40 -29h-4h-15q-27 1 -45.5 1.5t-35.5 0.5q-18 -34 -101 -195.5t-136 -253.5q-64 -113 -156 -177.5t-180 -64.5q-49 0 -78 22.5t-29 60.5q0 35 25.5 60t65.5 29l2 -1q-2 -15 -1.5 -36.5t4.5 -39.5q8 -33 26.5 -53t43.5 -20q42 0 76.5 41
t104.5 169q13 24 35.5 66.5t77.5 150.5q54 103 80 153.5t47 89.5h-3h-73q-6 1 -6.5 5.5t3.5 6.5l125 76q21 38 26.5 47t9.5 15q94 145 212.5 224.5t244.5 79.5q34 0 63 -2t49 -6q4 -1 6 -3.5t2 -6.5q0 -18 -23 -45.5t-39 -27.5q-11 0 -27 3.5t-54 14.5q-49 14 -73 18.5
t-42 4.5q-40 0 -68 -20.5t-63 -72.5q-17 -24 -37.5 -59t-49.5 -86q-13 -23 -25.5 -46.5t-25.5 -46.5q22 0 46.5 0.5t63.5 2.5q12 1 16.5 1h6.5t3.5 -2t0.5 -4zM948 812q-27 -30 -78 -76t-179 -153l-5 5q78 75 136.5 145t92.5 126q5 5 11.5 7.5t13.5 2.5q20 0 23.5 -19
t-15.5 -38zM225 -200q-52 -24 -95.5 -36t-81.5 -12q-31 0 -53 5t-27 14q-6 18 18 48.5t40 30.5q6 0 15 -3t33 -12q44 -18 69 -24t46 -6q41 0 75.5 29t73.5 99q11 18 23.5 42.5t70.5 141.5q3 7 66.5 137.5t67.5 158.5q1 18 -4.5 30.5t-16.5 16.5q-24 -8 -60.5 -35t-63.5 -57
l-7 6q26 28 75.5 68t89.5 66q10 7 22.5 9t24.5 -1q19 -5 30 -35t9 -64q0 -18 -24.5 -73.5t-124.5 -249.5q-58 -110 -125 -179.5t-166 -114.5z" />
    <glyph glyph-name="f_f_j" unicode="ffj" horiz-adv-x="1012" 
d="M-77 -170q-50 -42 -105.5 -65t-104.5 -23t-78 22.5t-29 60.5q0 34 25.5 59t65.5 30l2 -1q-2 -15 -1.5 -36.5t4.5 -39.5q8 -33 26.5 -53t43.5 -20q43 0 77.5 41.5t103.5 168.5q15 27 40.5 76t88.5 172q48 92 71 136.5t41 78.5h-78q-6 0 -6 3.5t4 6.5l126 76q1 1 14.5 25.5
t20.5 35.5q53 86 116.5 149.5t131.5 100.5q44 24 88 36.5t85 12.5q25 0 45 -3t38 -9q5 -1 6.5 -2.5t1.5 -5.5q0 -18 -27 -45t-45 -27q-10 0 -24 4t-45 17q-35 15 -51.5 19.5t-28.5 4.5q-29 0 -52 -21t-59 -79q-14 -23 -33 -55.5t-46 -80.5q-6 -11 -13 -24t-21 -38
q-7 -14 -11 -20.5t-7 -12.5h227q25 44 32.5 57t12.5 22q94 146 213 225t245 79q34 0 63 -2t48 -6q5 -1 7 -3.5t2 -6.5q0 -18 -23 -45.5t-39 -27.5q-11 0 -27 3.5t-54 14.5q-49 14 -73 18.5t-42 4.5q-40 0 -68.5 -20.5t-63.5 -71.5q-17 -25 -38 -60t-49 -86
q-12 -21 -24.5 -44.5t-26.5 -50.5q27 0 52 1.5t57 4.5q13 1 17.5 1h6.5t3.5 -2t0.5 -4q-8 -17 -36 -45t-40 -29h-1.5h-6.5q-26 1 -47.5 2t-42.5 1q-15 -29 -32.5 -62.5t-52.5 -99.5q-63 -122 -94.5 -181t-58.5 -108q-63 -111 -156 -176.5t-175 -65.5q-53 0 -85 24.5
t-32 63.5zM1270 812q-28 -30 -79 -76t-179 -153l-5 5q77 75 136 144.5t94 126.5q5 5 11.5 7.5t13.5 2.5q20 0 23.5 -19t-15.5 -38zM547 -200q-53 -25 -96.5 -36.5t-81.5 -11.5q-30 0 -52 5t-27 14q-6 18 17.5 48.5t39.5 30.5q6 0 15 -3t32 -12q45 -18 70.5 -24t46.5 -6
q40 0 74.5 29t74.5 99q10 18 33.5 64t60.5 120q3 7 66.5 137.5t67.5 158.5q1 18 -4.5 30.5t-17.5 16.5q-23 -8 -59 -34.5t-64 -57.5l-7 6q25 28 74 67.5t90 66.5q11 7 23 9t25 -1q18 -5 29.5 -35.5t9.5 -63.5q-1 -18 -25.5 -73.5t-124.5 -249.5q-57 -110 -124 -179
t-166 -115zM49 -16q-12 -20 -23 -37.5t-23 -32.5q-4 -59 20.5 -104.5t65.5 -45.5q44 0 81.5 44t104.5 166q13 24 34.5 65t74.5 145q56 108 84 161t49 94h-228q-11 -21 -98 -190t-142 -265z" />
    <glyph glyph-name="lslash_lslash" unicode="&#x142;&#x142;" horiz-adv-x="605" 
d="M788 990q126 -26 179.5 -33.5t86.5 -7.5q14 0 33 17.5t38 49.5l4 -1q-23 -58 -74 -96.5t-108 -38.5q-43 0 -106.5 11.5t-204.5 49.5q-124 32 -176 42t-85 10q-32 0 -45.5 -17t-13.5 -63q0 -43 -11.5 -64.5t-33.5 -21.5q-25 0 -43.5 15.5t-13.5 34.5q15 55 102 106.5
t170 51.5q41 0 102.5 -8.5t199.5 -36.5zM483 841q9 -2 14 -6t8 -14q-73 -125 -138.5 -239.5t-192.5 -343.5q-31 -56 -46 -95t-13 -61q1 -12 9 -20.5t20 -11.5q22 7 55.5 34t64.5 60l6 -7q-55 -56 -90 -85t-67 -48q-6 -2 -13.5 -3.5t-15.5 -1.5q-11 0 -20.5 1.5t-13.5 4.5
q-17 11 -28.5 31.5t-12.5 39.5q-2 23 13 61.5t55 110.5q94 167 158 280.5t125 217.5q-2 7 -6 12.5t-11 10.5q-8 7 -25 8.5t-43 -2.5q-49 -8 -77.5 -12t-36.5 -5l-1 7q80 11 164.5 31t158.5 45zM416 4q-8 -3 -15 -4t-15 -1q-10 0 -19.5 1.5t-13.5 4.5q-17 12 -29 35.5
t-13 44.5q-1 22 14.5 60.5t57.5 115.5q45 83 94.5 167.5t74.5 122.5q40 63 106 117.5t154 97.5q77 38 143 55.5t128 17.5q27 0 54 -1.5t42 -3.5q5 -1 8 -4t3 -8q0 -20 -26 -48t-43 -28q-11 0 -27 2.5t-56 10.5q-54 12 -81 15.5t-48 3.5q-34 0 -54.5 -4.5t-37.5 -14.5
q-34 -19 -74.5 -69t-93.5 -140q-29 -46 -60.5 -101.5t-110.5 -200.5q-37 -68 -50 -102.5t-12 -56.5q1 -14 9 -24.5t22 -14.5q22 7 55.5 34t64.5 60l6 -7q-55 -56 -90 -85t-67 -48z" />
    <glyph glyph-name=".notdef" horiz-adv-x="1414" 
d="M1229 695q53 -55 79 -152t26 -236q0 -126 -32.5 -230.5t-84.5 -158.5q-62 -62 -199.5 -107t-293.5 -45q-185 0 -342 46t-215 113q-45 51 -66 142t-21 237q0 114 28.5 216.5t75.5 155.5q67 77 202.5 117.5t327.5 40.5q189 0 322.5 -36t192.5 -103zM253 -6
q-18 -19 -32.5 -25.5t-32.5 -6.5q-3 0 -9 1.5t-15 4.5q4 -9 8.5 -16.5t10.5 -14.5q46 -51 196.5 -84t340.5 -33q162 0 299.5 33t181.5 76q37 38 56 134.5t19 245.5q0 182 -13 259.5t-48 114.5q-44 52 -172 78.5t-331 26.5q-176 0 -322 -34.5t-194 -87.5q-31 -36 -46.5 -127
t-15.5 -232v-64q44 31 62.5 39.5t35.5 8.5t35 -2.5t52 -11.5q32 -8 48 -10.5t31 -2.5q12 0 20.5 6.5t9.5 16.5q-18 -2 -37.5 6.5t-26.5 24.5q25 -9 47.5 -1.5t29.5 26.5q22 -11 40 -3t24 30q26 -2 42 7.5t22 31.5q29 -6 50 16.5t22 23.5q17 -1 39.5 6.5t43.5 22.5q5 2 10 5
l15 9l15 9t10 5q8 1 14 0t8 -4q-3 2 -12 -1.5t-13 -9.5q-32 -30 -46 -40.5t-29 -18.5q-26 -15 -40.5 -35.5t-21.5 -51.5q-4 -16 -11 -31t-18 -31q-5 -6 -10.5 -8.5t-13.5 -3.5q-21 -3 -25 -5t-5 -5q-1 -7 6 -12t17 -5q9 -1 25.5 -0.5t19.5 0.5q7 0 11 6t4 17q0 3 3.5 7
t15.5 13q15 11 20.5 17t7.5 12q2 9 0.5 16t-6.5 13q7 9 17 15t28 10q20 5 32.5 13t21.5 22q18 22 27.5 49t4.5 46q17 -10 33.5 -15t37.5 -5q17 0 26.5 4t14.5 12q18 -2 29.5 3t15.5 17q3 5 1.5 10t-6.5 6q19 -1 35 5.5t16 14.5q0 1 -3 1.5t-8 0.5q-6 0 -12.5 0.5t-17.5 3.5
q-10 2 -15 2.5t-10 0.5q-11 0 -20 -2.5t-15 -6.5l-2 2q5 8 14 11.5t28 3.5q4 0 8.5 -0.5t15.5 -1.5q14 -2 21.5 -2.5t14.5 -0.5q14 0 25 4.5t18 12.5q-15 0 -30 1t-41 5q-22 3 -32.5 4t-20.5 1q-17 0 -30.5 -10t-20.5 -28q-9 -17 -26.5 -20t-35.5 8q-7 5 -14 8t-14 3
q-5 0 -9.5 -1.5t-20.5 -11.5q-16 -13 -35 -26.5t-36 -22.5q-2 -1 -5 -2t-9 -2q-7 -1 -10.5 -2.5t-5.5 -2.5q-9 -3 -12.5 -8.5t-4.5 -17.5q-26 -6 -58 -20t-97 -51q-58 -32 -83 -43t-43 -14q-5 -1 -10.5 -1t-13.5 2q-3 1 -5 1h-4t-5.5 -1t-13.5 -4q-18 -7 -27.5 -9t-16.5 -2
q-8 0 -13 10.5t-5 26.5q-13 5 -23 32t-10 52q0 11 9.5 25t26.5 27q17 12 30.5 27t21.5 28l7 14t8 15q5 8 11 13.5t13 9.5q5 7 14 32t19 38q11 15 27 25t39 15q-14 -14 -13 -26t15 -12q11 0 23 1t37 4q-11 -11 6.5 -19.5t45.5 0.5q-7 -27 1 -35.5t35 -2.5q-9 -25 -1 -35.5
t32 -1.5q-8 -21 -2 -30.5t27 -13.5q-13 -26 -2 -33t45 6q-8 53 -14.5 77.5t-14.5 37.5t-19.5 23t-33.5 22q-35 16 -45 26t-10 24q0 15 9.5 24.5t24.5 9.5q13 0 22 -6t19 -21q2 -3 4 -7.5t6 -15.5q5 -14 8 -21t7 -13q11 -17 28 -27t48 -19l-17 -16l-35 22q15 -37 18 -47
t5 -18q14 1 24.5 -2.5t17.5 -11.5q12 0 19.5 3t12.5 12q2 5 4 6t4 1q7 0 13.5 -1t23.5 -7q6 -3 18.5 -4.5t17.5 -2.5q9 8 14.5 22.5t5.5 28.5q0 25 -10.5 37t-32.5 12q-12 0 -21.5 -5.5t-12.5 -15.5q-3 -6 -2 -9.5t5 -3.5q12 0 17.5 -2.5t5.5 -7.5q0 -4 -1.5 -5t-7.5 -1
q-3 0 -6 1t-8 4q-1 0 -2 0.5l-1 0.5q-2 0 -4 -1t-5 -3q-4 -3 -6 -4t-4 -1q-4 0 -6.5 1t-2.5 3q0 4 4 9t7 6q1 2 2 3.5t1 5.5t1 7l2 6q6 13 20 21t29 8q23 0 39.5 -12t22.5 -33q6 13 15.5 23.5t22.5 17.5q8 5 18.5 7.5t32.5 3.5q25 2 38.5 5t26.5 9l4 -6q-10 -13 -20 -19
t-22 -6q4 -12 0.5 -22.5t-13.5 -15.5q4 -6 -3.5 -16t-17.5 -10q25 -4 55 -5t59 0l1 -5q-6 -15 -24.5 -24.5t-40.5 -10.5q4 -13 -13 -24t-36 -8q0 -17 -15.5 -27t-40.5 -10q-3 -7 -15.5 -11t-28.5 -4q-10 0 -22.5 2.5t-30.5 7.5q-6 -26 -5 -36t9 -12q5 -2 12.5 -1.5t25.5 5.5
q19 5 28.5 6.5t18.5 1.5q23 0 42 -9t35 -27q5 -6 10.5 -13t15.5 -21l19.5 -25.5t13.5 -16.5q22 -24 39 -34.5t33 -10.5q26 0 40.5 20t14.5 56q0 20 -5 37.5t-31 58.5q-8 14 -11.5 27t-3.5 25q0 31 24.5 79t26.5 54h11q2 -16 2.5 -36t-0.5 -61q-2 -30 -2 -44t1 -25
q1 -5 9.5 -43.5t8.5 -65.5q0 -45 -23 -72t-60 -27q-17 0 -32.5 5t-61.5 34v-48q0 -47 13 -58t69 -7q40 1 54.5 -13.5t10.5 -51.5q-3 -46 -8 -86.5t-11 -74.5q-4 -25 -37 -44t-78 -19q-12 0 -19 1.5t-7 4.5q-2 9 -0.5 18t5.5 10l6 6t7 6q4 4 7.5 5.5t7.5 1.5h5t9 -1
q5 -1 7.5 -1h4.5q19 1 26.5 7.5t7.5 22.5q-4 24 -5.5 41t-1.5 54q0 22 -6 30.5t-23 8.5q-5 0 -12 -0.5t-22 -2.5q-16 -2 -24 -2.5t-15 -0.5q-39 0 -60 27t-21 75q0 21 -1.5 29.5t-4.5 10.5q-7 -11 -11.5 -24t-4.5 -26q0 -44 15.5 -70.5t48.5 -39.5q2 -2 2 -11.5t-2 -14.5
q-5 -6 -11.5 -13.5t-19.5 -21.5q-20 -24 -30.5 -36t-18.5 -23q-16 -27 -53 -42t-80 -14q-5 0 -14.5 3t-9.5 6q-1 10 -0.5 19.5t2.5 12.5q1 1 12.5 9t18.5 8h7.5t10.5 -1q5 -1 7.5 -1h4.5q21 0 30.5 3.5t17.5 12.5q2 4 5 8t8 11q6 9 9 13t5 8q20 30 16 46t-33 27
q-37 14 -49 35t0 51q10 26 27 44t54 38q-21 6 -47 -7t-47 -42q-11 -16 -31 -47t-29 -44q-21 -28 -42 -39.5t-48 -11.5q-20 0 -41 7.5t-47 23.5q12 20 14 46.5t-7 42.5q-17 -68 -34 -88t-57 -13q-11 -23 -35 -32.5t-58 -4.5q-9 -22 -34.5 -38t-51.5 -15q-6 0 -12 -3t-16 -14z
M626 670q4 -2 5.5 -3t2.5 -1q-3 4 -5.5 8.5l-7.5 13.5q-4 9 -7 14t-6 9q-8 9 -10.5 10.5t-6.5 1.5q-5 0 -8.5 -4.5t-3.5 -9.5q0 -8 7.5 -15.5t22.5 -16.5q3 -1 6.5 -2.5zM771 582q0 3 2.5 5.5t8.5 4.5q5 2 9.5 0.5t4.5 -5.5q0 -3 -2 -4.5t-9 -2.5q-7 0 -10.5 0.5t-3.5 1.5z
M448 548q0 -10 -2 -15.5t-7 -9.5v-7q15 8 22.5 19t7.5 27q0 12 -10 21t-23 9q-12 0 -22.5 -8t-22.5 -25l3 -5q10 9 16.5 13t12.5 4q10 0 17.5 -6.5t7.5 -16.5zM725 539q-2 5 -9.5 7t-16.5 1q-4 -4 -1 -16t7 -12q7 0 15.5 8t4.5 12zM314 492q1 -4 1 -6v-3q0 -2 -0.5 -4
t-3.5 -6l-1.5 -3t-0.5 -2q0 -3 1 -4t3 -1l1 1t4 5q4 8 6.5 10.5t4.5 3.5q7 5 12 10t10 12h-4.5t-7.5 1q-7 1 -10 1h-6q-5 0 -7 -1.5t-2 -5.5v-3v-5zM228 442l-0.5 -2t-0.5 -6q0 -16 3 -25.5t9 -9.5q1 0 2 1.5t1 4.5v14t1 6q2 2 4.5 3.5t6.5 3.5q5 2 6 3.5t1 3.5q0 4 -1.5 5
t-3.5 -2q-7 -5 -17.5 -2.5zM324 371q-39 -4 -51 -2t-22 8l-3 -2q8 -12 17 -17.5t25 -3.5q2 3 10 5t15 2q3 0 5.5 -1t7.5 -4q2 -2 3 -2.5t2 -0.5q3 0 4 1t1 4q0 6 -4 9.5t-10 3.5zM153 161q-11 -5 -14 -11t-3 -17q1 -24 4 -50t7 -50q9 5 17.5 8t23.5 4q42 7 74 22t57 39
q7 7 17 14t30 20q32 20 43 32.5t14 27.5q-16 -14 -28.5 -18.5t-30.5 -4.5q-16 0 -27.5 7.5t-17.5 22.5q-19 -16 -41.5 -12.5t-31.5 24.5q-4 10 -7.5 12.5t-9.5 2.5q-4 0 -8 -3t-12 -14q-10 -14 -17.5 -19.5t-15.5 -6.5q-2 -11 -7 -18t-16 -12z" />
    <glyph glyph-name=".null" horiz-adv-x="0" 
 />
    <glyph glyph-name="nonmarkingreturn" horiz-adv-x="333" 
 />
    <glyph glyph-name="NULL" horiz-adv-x="0" 
 />
    <glyph glyph-name="NULL" horiz-adv-x="0" 
 />
    <glyph glyph-name="CR" unicode="&#xd;" horiz-adv-x="262" 
 />
    <glyph glyph-name="space" unicode=" " horiz-adv-x="262" 
 />
    <glyph glyph-name="exclam" unicode="!" horiz-adv-x="314" 
d="M363 613q-102 -165 -146.5 -247t-89.5 -176l-9 2q51 106 90 199t94 243q40 107 58 151t35 79q2 5 11.5 7.5t23.5 2.5q18 0 38.5 -4t31.5 -9q4 -2 6 -4.5t1 -4.5q-29 -54 -85 -144t-59 -95zM103 7q-6 -4 -20.5 -6.5t-30.5 -2.5q-23 0 -34.5 3.5t-16.5 11.5q-6 18 8 54.5
t33 45.5q6 3 22 5.5t30 2.5q17 0 31.5 -4.5t17.5 -11.5q3 -23 -10.5 -55t-29.5 -43z" />
    <glyph glyph-name="quotedbl" unicode="&#x22;" horiz-adv-x="304" 
d="M350 677q8 17 20 25t30 8t25.5 -15.5t-1.5 -33.5q-3 -7 -11 -20.5t-34 -51.5q-45 -67 -69.5 -107t-42.5 -75q-3 -6 -7 -5t-2 7q17 40 33.5 88t40.5 125q9 29 12.5 39.5t5.5 15.5zM217 676q8 17 20.5 25t29.5 8q18 0 25.5 -15.5t-0.5 -33.5q-3 -7 -11 -19.5t-32 -47.5
q-46 -69 -71 -110t-44 -77q-3 -6 -7 -5t-2 7q17 41 34 89t41 126q8 28 11.5 38t5.5 15z" />
    <glyph glyph-name="numbersign" unicode="#" horiz-adv-x="809" 
d="M564 218q-19 1 -42.5 1h-78.5h-86.5t-44.5 -1q0 -1 1 -67.5t3 -136.5q-2 -1 -8.5 -6.5t-16.5 -3.5q1 30 2.5 58t3.5 73l3 51t1 32q-36 -1 -72.5 -2.5t-122.5 -4.5q-1 2 -6.5 8.5t-3.5 16.5q60 -4 106 -5.5t100 -2.5v16.5v29.5q1 28 1 44v32v85.5t-1 42.5q-35 -1 -70.5 -2
t-125.5 -4q-1 2 -6.5 8.5t-3.5 16.5q53 -3 98 -5t108 -4v38.5t-1 59.5q-1 35 -1.5 55t-0.5 40q7 5 10.5 6.5t16.5 -0.5q-1 -16 -6 -86t-6 -113q19 -1 44 -1h84h80t43 1v38.5t-1 59.5q-1 35 -1.5 55t-0.5 40q7 5 10.5 6.5t16.5 -0.5q-1 -16 -6 -86t-6 -113q23 0 48 0.5
t69 1.5q35 1 52 1.5t32 0.5q5 -7 6.5 -10.5t-0.5 -16.5q-64 5 -110.5 8t-96.5 4q-1 -36 -1.5 -65.5t-0.5 -60.5v-61.5v-61.5q24 0 49.5 0.5t71.5 1.5q33 1 50 1.5t32 0.5q5 -7 6.5 -10.5t-0.5 -16.5q-67 6 -113 8.5t-96 3.5q0 -1 1 -66.5t3 -136.5q-2 -1 -8.5 -6.5
t-16.5 -3.5q1 30 2.5 58.5t3.5 73.5q2 34 3 50.5t1 31.5zM314 478q-1 -38 -1.5 -67t-0.5 -60v-61.5v-61.5q20 -1 45 -1h85h79t43 1q1 36 1.5 64t0.5 58v85.5t-1 42.5q-19 1 -43 1h-79h-85t-44 -1z" />
    <glyph glyph-name="dollar" unicode="$" horiz-adv-x="584" 
d="M602 423q-3 -6 -7.5 -5t-2.5 6q47 98 30.5 170.5t-92.5 92.5q-45 -80 -83 -150t-74 -139q42 -30 58.5 -44t27.5 -28q21 -23 31 -48.5t10 -54.5q0 -99 -88 -169t-211 -70q-11 0 -22.5 1t-22.5 2q-21 -42 -31.5 -63.5t-19.5 -39.5q-7 -4 -14.5 -4.5t-15.5 3.5q7 12 15 26.5
t24 42.5q9 16 13.5 23.5t8.5 14.5q-44 8 -91.5 25t-83.5 36q-6 4 -7 6t1 7q2 4 6.5 12t15.5 28q37 66 57.5 105.5t36.5 71.5q3 5 7.5 4t2.5 -7q-49 -102 -32 -177t94 -98q40 73 80.5 147t81.5 152q-43 31 -58 44t-26 25q-20 23 -29.5 46.5t-9.5 50.5q0 97 86.5 166t206.5 69
q8 0 16.5 -0.5t22.5 -1.5q19 36 28 54t16 33q7 4 14 4t15 -4q-13 -22 -25.5 -45t-25.5 -45q31 -5 63 -15t106 -46q5 -2 6 -4t0 -7q-3 -6 -30.5 -57t-78.5 -146zM472 694q-88 0 -145.5 -43.5t-57.5 -116.5q0 -33 19.5 -61.5t75.5 -68.5q10 19 21 41t33 65q38 76 57 113t34 68
q-8 1 -17.5 2t-19.5 1zM208 -6q85 0 139.5 50.5t54.5 119.5q0 33 -18.5 62.5t-69.5 69.5q-32 -61 -66.5 -128t-85.5 -170q10 -2 21 -3t25 -1z" />
    <glyph glyph-name="percent" unicode="%" horiz-adv-x="806" 
d="M836 691q-78 -63 -194.5 -162t-218.5 -190q-39 -35 -86.5 -78.5t-144.5 -135.5q-57 -53 -85 -79.5t-51 -47.5q-10 -3 -21 1.5t-16 12.5q186 154 260.5 216.5t132.5 113.5q79 70 230.5 212t159.5 150q6 1 10.5 1t8.5 -2q3 -2 8 -6.5t7 -5.5zM342 697q64 0 95 -47.5
t12 -116.5q-13 -45 -46 -82t-79 -58q-31 -14 -51 -20t-32 -6q-66 0 -98 48t-13 116q11 45 44.5 81.5t81.5 58.5q28 14 49 20t37 6zM203 540q-17 -65 0 -106.5t62 -41.5q19 0 31 1.5t23 5.5q18 24 32 53.5t25 68.5q18 70 1.5 111.5t-62.5 41.5q-15 0 -29 -2.5t-23 -6.5
q-21 -24 -35.5 -55.5t-24.5 -69.5zM611 322q64 0 94.5 -47.5t12.5 -116.5q-13 -45 -45.5 -81.5t-79.5 -58.5q-29 -13 -50 -19.5t-33 -6.5q-65 0 -97.5 48.5t-14.5 116.5q12 45 45.5 81.5t81.5 58.5q26 12 47.5 18.5t38.5 6.5zM472 166q-16 -66 0.5 -107t61.5 -41
q19 0 31 1.5t23 5.5q18 24 32 53.5t25 68.5q18 70 1 111.5t-63 41.5q-13 0 -26.5 -2.5t-24.5 -6.5q-20 -24 -35 -55t-25 -70z" />
    <glyph glyph-name="ampersand" unicode="&#x26;" horiz-adv-x="1092" 
d="M479 146q-53 -76 -121.5 -126t-143.5 -66q-47 1 -92 32.5t-75 83.5q-30 53 -33 106.5t22 94.5q33 49 113.5 99t177.5 81q-8 29 -12 52t-3 42q1 45 31.5 97t92.5 113q49 46 100 69t104 23q55 0 100.5 -21t67.5 -57q-61 -70 -103 -121.5t-68 -87.5l-7 4q46 64 71.5 99.5
t29.5 42.5q-24 37 -67.5 58t-97.5 21q-47 0 -81 -11.5t-56 -35.5q-20 -19 -30 -48t-11 -69q-1 -56 34.5 -149t96.5 -194q65 -108 142 -182t126 -74q13 0 24 2.5t20 7.5q25 14 45.5 47t40.5 90q28 83 12.5 148.5t-71.5 90.5q-19 9 -43.5 13.5t-56.5 4.5q-18 0 -47 -2.5
t-44 -4.5q-3 -1 -4.5 0t-1.5 4q0 2 2 6.5t8 14.5q8 12 23 30.5t27 31.5q4 5 7.5 7t8.5 2q75 0 125 1t75 2q59 5 102.5 13t79.5 20q4 2 8.5 3.5t11.5 3.5q4 2 6 2.5t4 1.5t3.5 0.5t1.5 -2.5q0 -1 -1 -3t-4 -6q-12 -13 -59 -56t-69 -59q-6 -4 -10 -5.5t-7 -1.5h-23
q-23 0 -47.5 1.5t-67.5 5.5q-37 4 -54.5 5t-31.5 1q23 -6 41.5 -12t39.5 -14q100 -38 142.5 -103.5t14.5 -138.5q-13 -36 -53.5 -69.5t-130.5 -78.5q-12 -6 -27 -14t-44 -24q-25 -13 -37 -20t-23 -12q-45 3 -104.5 53.5t-119.5 136.5zM331 437q-78 -15 -133 -49.5t-80 -82.5
q-18 -38 -11.5 -85.5t35.5 -93.5q30 -47 71 -75.5t79 -28.5q48 0 93 33t88 99q-12 17 -23.5 35t-21.5 37q-33 57 -57.5 111t-39.5 100z" />
    <glyph glyph-name="quotesingle" unicode="'" horiz-adv-x="172" 
d="M217 676q8 17 20.5 25t29.5 8q18 0 25.5 -15.5t-0.5 -33.5q-3 -7 -11 -19.5t-32 -47.5q-46 -69 -71 -110t-44 -77q-3 -6 -7 -5t-2 7q17 41 34 89t41 126q8 28 11.5 38t5.5 15z" />
    <glyph glyph-name="parenleft" unicode="(" horiz-adv-x="393" 
d="M170 -264q3 -4 -2.5 -8t-8.5 1q-71 102 -73 271.5t69 320.5q67 144 196.5 268t291.5 200q8 5 11 0t-5 -9q-127 -59 -239.5 -183t-188.5 -287q-77 -166 -91.5 -325t40.5 -249z" />
    <glyph glyph-name="parenright" unicode=")" horiz-adv-x="393" 
d="M215 782q-3 4 2.5 8t8.5 -1q71 -102 73 -271.5t-69 -320.5q-67 -144 -196.5 -268t-291.5 -200q-8 -5 -11 0t5 9q127 59 239.5 183t188.5 287q77 166 91.5 325t-40.5 249z" />
    <glyph glyph-name="asterisk" unicode="*" horiz-adv-x="377" 
d="M194 386q-10 4 -14.5 22t3.5 36q0 2 4.5 7t18.5 22q26 29 36.5 43t13.5 22q-10 -2 -28.5 -9t-55.5 -24q-14 -7 -19 -9t-6 -2q-19 -3 -35.5 5.5t-19.5 19.5q1 13 14 25t32 15q2 0 7.5 -1t23.5 -4q41 -9 59.5 -11t27.5 -1q-6 8 -21.5 20t-49.5 35q-13 9 -17.5 12.5
t-5.5 4.5q-12 16 -12.5 34t8.5 25t27 1.5t30 -21.5q1 -1 3 -6.5t8 -22.5q13 -36 20 -53t13 -26q3 10 6 27t6 55q2 19 2.5 25t1.5 8q7 18 22 27.5t27 6.5q11 -5 15.5 -22.5t-3.5 -35.5q-1 -2 -5 -7.5t-19 -22.5q-26 -29 -36 -42.5t-13 -20.5q11 2 30 9t55 25q13 6 17.5 8
t5.5 2q19 3 35.5 -6t19.5 -21q0 -11 -13.5 -23.5t-32.5 -14.5q-2 0 -7.5 1t-23.5 4q-41 9 -59.5 11t-27.5 1q7 -9 24.5 -23t53.5 -38q10 -6 12.5 -8t3.5 -3q12 -16 12.5 -34.5t-8.5 -26.5q-9 -7 -26.5 -1.5t-29.5 22.5q-1 1 -4 8t-11 29q-11 33 -17.5 48t-11.5 24
q-4 -10 -7 -29t-6 -59q-1 -16 -1.5 -21.5t-1.5 -6.5q-8 -18 -23.5 -28t-26.5 -6z" />
    <glyph glyph-name="plus" unicode="+" 
d="M483 351q7 -5 7 -15.5t-7 -14.5q-61 5 -101.5 7t-61.5 2q0 -32 1.5 -61.5t8.5 -107.5q-5 -7 -15.5 -7t-15.5 7q4 53 5.5 90.5t1.5 78.5q-22 0 -62.5 -2t-100.5 -7q-7 5 -7 15t7 15q53 -5 88.5 -7t74.5 -3q0 42 -1.5 79t-5.5 89q5 7 16 7t15 -7q-7 -84 -8.5 -111.5
t-1.5 -56.5q40 1 76 3t87 7z" />
    <glyph glyph-name="comma" unicode="," horiz-adv-x="277" 
d="M132 27q-20 -37 -64.5 -71.5t-109.5 -64.5q-2 -1 -3.5 1t0.5 3q37 19 71 49t56 62q10 15 14 22t6 12l-1 -2q-14 -16 -35 -28t-35 -12q-11 0 -18.5 4t-13.5 14q-6 16 9.5 49t33.5 44q8 4 24 7.5t30 3.5q18 0 32 -5t18 -13q6 -11 2.5 -32.5t-16.5 -42.5z" />
    <glyph glyph-name="hyphen" unicode="-" horiz-adv-x="375" 
d="M75 271q25 -2 52 -3t63 -1q37 0 65.5 1t51.5 3q6 -4 3 -21t-10 -21q-25 3 -51 4t-64 1q-28 0 -55.5 -1t-61.5 -4q-5 4 -2.5 20.5t9.5 21.5z" />
    <glyph glyph-name="period" unicode="." horiz-adv-x="277" 
d="M53 -2q-23 0 -34.5 3.5t-16.5 11.5q-6 18 8 54.5t33 45.5q6 3 22 5.5t30 2.5q17 0 31.5 -4.5t17.5 -11.5q3 -23 -10.5 -55t-29.5 -43q-6 -4 -20.5 -6.5t-30.5 -2.5z" />
    <glyph glyph-name="slash" unicode="/" horiz-adv-x="349" 
d="M649 777q-92 -98 -196 -213t-271 -305q-213 -244 -300.5 -346t-158.5 -186q-16 -5 -23 -4.5t-11 7.5q94 102 207 227t273 307q85 96 191.5 219.5t256.5 298.5q13 4 18.5 3.5t13.5 -8.5z" />
    <glyph glyph-name="zero" unicode="0" horiz-adv-x="912" 
d="M498 43q-48 -21 -111 -39t-94 -18q-44 0 -87 18.5t-63 47.5q-46 66 -42.5 157t58.5 183q53 88 153 171t199 130q42 20 106 37t100 17q46 0 84 -17.5t60 -48.5q43 -62 37.5 -158.5t-61.5 -192.5q-50 -85 -143.5 -162t-195.5 -125zM242 101q21 -30 67.5 -49.5t95.5 -19.5
q25 0 49 5t41 13q75 37 125 93t106 154q54 94 64 189t-26 151q-22 34 -62 52t-93 18q-24 0 -49.5 -6t-44.5 -15q-72 -36 -131.5 -99.5t-117.5 -162.5q-51 -87 -57 -178.5t33 -144.5z" />
    <glyph glyph-name="one" unicode="1" horiz-adv-x="383" 
d="M-30 2q-36 -1 -49 -1.5t-18 -0.5q-4 0 -3 3.5t5 3.5q51 0 88 23.5t70 75.5q18 29 146.5 255t140.5 248q6 11 4.5 17t-10.5 6q-11 0 -40 -11.5t-82 -36.5q-4 -2 -6 1.5t2 5.5q79 36 149.5 74t127.5 75q9 7 13 8.5t9 0.5q6 -1 7.5 -5.5t-1.5 -9.5q-178 -317 -268 -477.5
t-92 -164.5q-25 -46 -11 -65.5t73 -19.5q4 0 3.5 -3.5t-4.5 -3.5q-8 0 -27.5 0.5t-71.5 1.5q-44 1 -59.5 1.5t-20.5 0.5q-6 0 -21 -0.5t-54 -1.5z" />
    <glyph glyph-name="two" unicode="2" horiz-adv-x="774" 
d="M-13 -4h-23h-6q-4 0 -5.5 7.5t2.5 9.5q118 60 212 111t168 94q151 90 231 157t104 123q35 83 -8.5 140.5t-141.5 57.5q-27 0 -50 -4.5t-42 -13.5q-33 -16 -58.5 -54.5t-59.5 -138.5q-13 -37 -29 -51t-42 -14q-20 0 -30.5 9t-10.5 26q0 10 3.5 21t10.5 25q25 51 84.5 102
t128.5 82q51 24 96 35t87 11q108 0 159 -64.5t13 -159.5q-16 -38 -61.5 -76.5t-140.5 -92.5q-36 -20 -115.5 -62.5t-120.5 -64.5q-69 -39 -118.5 -68t-93.5 -56l194 1q72 0 119 4.5t81 13.5q42 12 74 37t77 86q4 5 7 2.5t-1 -7.5q-4 -6 -12 -18.5t-30 -47.5q-36 -60 -54 -88
t-29 -44q-8 -12 -14 -17t-15 -6q-8 -1 -34 -1.5t-99 -0.5q-36 -1 -52.5 -1h-28.5q-64 0 -142.5 -1t-183.5 -3z" />
    <glyph glyph-name="three" unicode="3" horiz-adv-x="733" 
d="M444 51q-72 -39 -130 -58t-106 -19q-91 0 -143 50.5t-33 124.5q13 41 64.5 76t109.5 45q4 0 4.5 -2t-2.5 -3q-32 -6 -54 -25.5t-31 -51.5q-14 -68 43.5 -113t144.5 -45q36 0 67.5 7t59.5 22q31 17 52.5 37.5t35.5 46.5q22 42 27.5 87t-7.5 84q-15 44 -49.5 69.5
t-82.5 25.5q-24 0 -46.5 -8t-57.5 -31q-20 -13 -29 -17t-16 -4q-11 0 -16 4.5t-5 13.5q0 11 10.5 18t32.5 11q157 28 231.5 60t101.5 79q40 70 6.5 130.5t-111.5 60.5q-16 0 -31.5 -2.5t-30.5 -7.5q-38 -13 -64 -45.5t-44 -91.5q-10 -34 -25 -47.5t-39 -13.5q-27 0 -37 18
t3 45q21 42 72.5 77t131.5 63q42 15 78 23t63 8q43 0 78 -16t56 -45q23 -31 23 -68.5t-22 -75.5q-17 -29 -53 -51t-98 -41q-36 -11 -104 -27t-71 -17q9 1 27.5 4.5t28.5 5.5q17 2 31 3.5t26 1.5q48 0 84 -20.5t52 -57.5q14 -34 7.5 -74.5t-33.5 -83.5q-19 -31 -62.5 -65
t-117.5 -74z" />
    <glyph glyph-name="four" unicode="4" horiz-adv-x="759" 
d="M392 2q-46 1 -67 1.5t-34 0.5q-14 0 -39 -0.5t-80 -2.5q-30 -1 -40 -1h-14q-5 0 -4.5 3.5t5.5 3.5q59 0 97 21.5t72 74.5q6 9 27 44.5t56 97.5q-81 0 -165 0.5t-171 0.5q-4 0 -5 5.5t3 7.5q135 89 331.5 228.5t350.5 256.5q7 6 12 8.5t9 2.5q5 0 7 -2.5t2 -7.5
q0 -4 -2 -8.5t-5 -9.5q-10 -18 -44 -78.5t-185 -330.5h40h40q68 0 101.5 17t77.5 80q3 4 7 1.5t0 -6.5q-6 -8 -15 -21t-30 -44q-35 -51 -47.5 -69t-16.5 -22q-4 -6 -9 -8t-16 -2q-38 0 -83.5 0.5t-89.5 0.5q-3 -5 -38 -69t-41 -76q-26 -53 -9.5 -73t78.5 -20q4 0 3.5 -3.5
t-4.5 -3.5q-6 0 -19 0.5t-46 1.5zM552 613l-383 -273q-2 -2 -5 -4t-9 -7q-4 -3 -6 -5t-4 -3q12 -2 34 -3t54 -1h90h90q10 18 53 93.5t119 208.5q3 5 4.5 8.5t1.5 5.5q0 1 -0.5 2t-2.5 1q-3 0 -13.5 -7t-22.5 -16z" />
    <glyph glyph-name="five" unicode="5" horiz-adv-x="717" 
d="M412 56q-79 -42 -137 -60.5t-105 -18.5q-91 0 -139.5 46t-27.5 117q13 45 69 83t125 51q5 1 5.5 -2t-2.5 -4q-47 -8 -73.5 -29.5t-35.5 -59.5q-15 -61 38 -104t137 -43q43 0 78 7.5t63 22.5q32 17 56 41t42 58q24 45 29 92t-10 86q-17 45 -55 69.5t-89 24.5
q-45 0 -84 -13.5t-85 -46.5q-5 -3 -10 -7t-14 -12q-13 -12 -19 -15.5t-12 -3.5q-11 0 -16.5 5t-5.5 16t10.5 18.5t26.5 7.5q9 0 16 1.5t12 5.5q7 4 14.5 12.5t15.5 21.5l191 297q3 4 5.5 5.5t5.5 1.5h325q46 0 72 15.5t51 61.5q3 4 6.5 2t0.5 -6q-14 -24 -35 -62t-50 -89
q-4 -7 -9 -9.5t-16 -2.5q-6 0 -35.5 0.5t-120.5 1.5q-126 1 -173 1.5t-60 0.5q-3 0 -6 -1.5t-4 -3.5q-25 -37 -85.5 -131t-66.5 -104q-1 -2 -2 -3.5t-1 -2.5t0.5 -1.5t1.5 -0.5q3 0 11 3.5t15 8.5q64 38 115 53.5t102 15.5t91.5 -23t60.5 -64q20 -39 16.5 -85.5t-30.5 -91.5
q-21 -36 -69.5 -74.5t-123.5 -79.5z" />
    <glyph glyph-name="six" unicode="6" horiz-adv-x="788" 
d="M474 33q-57 -27 -102.5 -40t-85.5 -13q-46 0 -85.5 19t-64.5 53q-47 65 -42 152t63 186q93 157 287 256t445 123q12 1 12.5 -2.5t-10.5 -5.5q-216 -21 -371 -107.5t-248 -238.5q-8 -12 -16 -26t-15 -29q17 14 36 27.5t42 26.5q74 44 123 60.5t94 16.5q46 0 83.5 -20.5
t58.5 -56.5q29 -47 28 -110t-36 -121q-26 -43 -68.5 -76.5t-127.5 -73.5zM231 98q25 -36 65 -55.5t89 -19.5q26 0 45.5 3.5t39.5 11.5q39 17 66 47.5t51 82.5q20 48 17 104.5t-25 93.5q-23 35 -60.5 54t-84.5 19q-26 0 -54.5 -8t-56.5 -23q-45 -25 -68 -49.5t-38 -59.5
q-23 -51 -18 -107t32 -94z" />
    <glyph glyph-name="seven" unicode="7" horiz-adv-x="671" 
d="M238 -27q-12 -41 -30 -58t-47 -17q-37 0 -47.5 29t13.5 67q32 50 87.5 115t143.5 157q73 76 162.5 161.5t224.5 208.5h-348q-70 0 -117.5 -25t-91.5 -88q-2 -4 -6.5 -0.5t-1.5 7.5q16 20 50 69t87 126q3 4 38.5 3t71.5 -1h419l3 -10q-25 -23 -109 -99t-126 -115
q-81 -76 -131 -128.5t-87 -101.5q-53 -70 -91.5 -142.5t-66.5 -157.5z" />
    <glyph glyph-name="eight" unicode="8" horiz-adv-x="712" 
d="M487 66q-64 -42 -128.5 -65.5t-118.5 -23.5q-116 0 -178 53.5t-40 132.5q14 50 80 99.5t225 117.5q-70 40 -89 78t1 89q13 32 48.5 65t86.5 63q61 35 120 54.5t106 19.5q101 0 153 -53.5t27 -125.5q-16 -41 -64.5 -76.5t-177.5 -89.5l-6 4q80 34 116 63.5t49 78.5
q16 61 -36.5 106t-144.5 45q-39 0 -74 -8t-64 -24q-25 -15 -42.5 -34.5t-26.5 -43.5q-15 -39 13.5 -73.5t136.5 -88.5q124 -62 156 -116.5t-1 -124.5q-14 -27 -46 -58t-81 -64zM336 376q-110 -44 -160 -84.5t-62 -92.5q-13 -66 52.5 -114t168.5 -48q49 0 85.5 8t61.5 25
q18 11 32 27.5t24 37.5q28 59 -0.5 106t-145.5 106q-22 11 -36 18.5t-20 10.5z" />
    <glyph glyph-name="nine" unicode="9" horiz-adv-x="798" 
d="M406 52q-73 -35 -126.5 -52t-93.5 -17q-80 0 -117.5 40.5t-17.5 103.5q10 31 45.5 54.5t93.5 38.5q3 1 3 -1t-2 -3q-16 -6 -29.5 -20.5t-18.5 -33.5q-14 -53 32.5 -89.5t121.5 -36.5q32 0 57 5t48 17q47 22 99 81t123 171q10 17 16 27.5t8 15.5q-14 -12 -27 -21.5
t-25 -17.5q-53 -36 -115 -57.5t-118 -21.5q-44 0 -81.5 17.5t-62.5 49.5q-37 48 -38 113t34 125q25 43 72.5 81t115.5 71q51 25 102.5 39t91.5 14q45 0 87.5 -20.5t65.5 -52.5q51 -66 44 -158t-73 -201q-45 -75 -123.5 -140t-191.5 -121zM316 356q24 -32 61 -49t85 -17
q41 0 73.5 7.5t56.5 23.5q32 20 51.5 42t31.5 51q24 56 19.5 121t-33.5 103q-25 32 -67.5 48.5t-97.5 16.5q-24 0 -46 -4t-44 -13q-37 -18 -61.5 -44.5t-46.5 -70.5q-25 -53 -20 -113t38 -102z" />
    <glyph glyph-name="colon" unicode=":" horiz-adv-x="277" 
d="M182 384q-24 0 -34.5 3.5t-15.5 10.5q-7 18 7.5 54.5t33.5 45.5q6 3 22 5.5t30 2.5q18 0 32 -4.5t16 -11.5q4 -23 -9.5 -54.5t-30.5 -42.5q-5 -4 -20 -6.5t-31 -2.5zM53 -2q-23 0 -34.5 3.5t-16.5 11.5q-6 18 8 54.5t33 45.5q6 3 22 5.5t30 2.5q17 0 31.5 -4.5
t17.5 -11.5q3 -23 -10.5 -55t-29.5 -43q-6 -4 -20.5 -6.5t-30.5 -2.5z" />
    <glyph glyph-name="semicolon" unicode=";" horiz-adv-x="277" 
d="M182 384q-24 0 -34.5 3.5t-15.5 10.5q-7 18 7.5 54.5t33.5 45.5q6 3 22 5.5t30 2.5q18 0 32 -4.5t16 -11.5q4 -23 -9.5 -54.5t-30.5 -42.5q-5 -4 -20 -6.5t-31 -2.5zM132 27q-20 -37 -64.5 -71.5t-109.5 -64.5q-2 -1 -3.5 1t0.5 3q37 19 71 49t56 62q10 15 14 22t6 12
l-1 -2q-14 -16 -35 -28t-35 -12q-11 0 -18.5 4t-13.5 14q-6 16 9.5 49t33.5 44q8 4 24 7.5t30 3.5q18 0 32 -5t18 -13q6 -11 2.5 -32.5t-16.5 -42.5z" />
    <glyph glyph-name="less" unicode="&#x3c;" 
d="M313 272q46 -18 80 -30.5t76 -26.5q5 -9 1.5 -18t-11.5 -13q-17 9 -55 28t-97 48q-20 9 -39.5 17.5t-52.5 22.5q-21 9 -32.5 14t-22.5 10q-3 2 -3 9t3 9q3 1 53.5 23t95.5 42q55 27 86 42.5t61 32.5q8 -4 11.5 -13t-0.5 -18q-17 -5 -55.5 -19.5t-98.5 -37.5
q-45 -19 -74 -32t-61 -28q16 -8 50 -23.5t85 -38.5z" />
    <glyph glyph-name="equal" unicode="=" 
d="M314 421q48 0 86.5 2t80.5 6q7 -6 8.5 -14.5t-2.5 -15.5q-28 4 -56.5 6t-115.5 3q-89 -1 -115.5 -2.5t-53.5 -3.5q-7 4 -8.5 13t2.5 16q52 -6 88.5 -8t85.5 -2zM314 266q38 0 72 1.5t95 6.5q7 -4 8.5 -13.5t-2.5 -16.5q-35 5 -70 7t-102 2q-60 0 -95 -1.5t-74 -4.5
q-8 3 -9.5 12.5t3.5 16.5q52 -6 88.5 -8t85.5 -2z" />
    <glyph glyph-name="greater" unicode="&#x3e;" 
d="M318 395q-59 24 -90 35.5t-64 22.5q-5 9 -1 18t12 13q31 -18 63 -34t84 -41q41 -19 89.5 -39.5t59.5 -25.5q3 -2 3 -9.5t-3 -9.5q-53 -23 -90 -39t-58 -25q-43 -20 -78 -37.5t-74 -37.5q-7 3 -10.5 12.5t0.5 18.5q38 12 72 24t85 32q13 6 58 26.5t76 35.5q-25 11 -49 22
t-85 38z" />
    <glyph glyph-name="question" unicode="?" horiz-adv-x="599" 
d="M247 187q-3 -1 -9 -2t-15 -1q-10 0 -19.5 1t-11.5 3q-17 12 -29.5 38t-13.5 47q-1 23 5.5 44.5t21.5 43.5q19 30 60.5 57.5t147.5 75.5q118 53 161.5 85.5t59.5 67.5q33 75 -16.5 132t-153.5 57q-77 0 -124.5 -26.5t-60.5 -76.5q-10 -52 17 -87t77 -35q20 0 45.5 8.5
t48.5 21.5l5 -5q-73 -39 -112 -52t-70 -13q-59 0 -88.5 37.5t-15.5 94.5q20 62 101.5 101.5t176.5 37.5q62 0 113.5 -14t87.5 -40q48 -35 62 -84.5t-9 -102.5q-15 -37 -61 -70t-168 -84q-99 -42 -135.5 -65.5t-52.5 -47.5q-10 -17 -14 -29.5t-4 -27.5q1 -13 11 -25.5
t23 -15.5q21 10 55 34t70 54l6 -7q-44 -37 -85 -68t-87 -62zM193 7q-6 -4 -20.5 -6.5t-30.5 -2.5q-23 0 -34.5 3.5t-16.5 11.5q-6 18 8 54.5t33 45.5q6 3 22 5.5t30 2.5q17 0 31.5 -4.5t17.5 -11.5q3 -23 -10.5 -55t-29.5 -43z" />
    <glyph glyph-name="at" unicode="@" horiz-adv-x="979" 
d="M466 -221q-189 0 -302.5 102.5t-113.5 277.5q0 100 40 191.5t115 164.5q74 71 168.5 111t189.5 40q76 0 140.5 -21.5t113.5 -62.5q53 -45 83 -108t30 -130q0 -142 -92.5 -241t-224.5 -99q-16 0 -43 7t-32 12q-10 11 -17.5 32t-8.5 38q-1 23 14.5 61t52.5 102
q-59 -69 -124.5 -136.5t-106.5 -100.5q-8 -6 -28 -5t-24 6q-29 27 -31.5 88t21.5 120q17 41 47 79.5t71 70.5q45 35 93.5 57t80.5 22q34 0 56 -13.5t58 -56.5q2 2 6 5.5t16 14.5q21 17 29.5 24.5t11.5 11.5q4 3 7 3t5 -4q-65 -93 -117 -198.5t-49 -146.5q1 -13 19 -42
t31 -33q49 1 96.5 26t83.5 70q33 40 50.5 90t17.5 105q0 67 -30 131.5t-83 110.5q-50 43 -115 65.5t-141 22.5q-82 0 -163 -33.5t-144 -93.5q-65 -61 -99.5 -139.5t-34.5 -163.5q0 -193 111 -302.5t302 -109.5q71 0 149 32.5t137 86.5l5 -4q-67 -65 -152 -101t-175 -36z
M372 265q-18 -58 -17.5 -110t19.5 -82q39 23 117 103.5t134 154.5q-38 53 -61.5 73t-48.5 20q-39 0 -80.5 -46.5t-62.5 -112.5z" />
    <glyph glyph-name="A" unicode="A" horiz-adv-x="1346" 
d="M567 176q-151 -166 -206.5 -205t-121.5 -39q-50 0 -93.5 24t-72.5 67q-31 45 -36 96t18 89q24 40 72.5 79.5t109.5 67.5q48 22 98.5 34t98.5 12q29 0 74 -0.5t222 -3.5q34 40 75.5 90t124.5 149q48 58 70 84.5t39 46.5q-38 0 -76 -2t-71 -5q-31 -3 -64 -8t-87 -13
q-35 -6 -46.5 -7.5t-16.5 -1.5q-7 0 2.5 13t44.5 49q12 13 16.5 17.5t5.5 6.5q7 4 45.5 6t117.5 2h170q66 0 135 1t172 3q39 1 53 1h22q12 0 20 -1t12 -2q0 -11 -20 -39t-37 -38q-10 -3 -46.5 -1t-135.5 10q-61 5 -84.5 6.5t-35.5 1.5q-12 -64 -29 -159.5t-38 -216.5
q98 -1 125 -1.5t47 -0.5q59 0 84 -0.5t38 -1.5q6 0 8.5 -1t2.5 -4t-2.5 -6.5t-7.5 -8.5q-14 -16 -35.5 -32t-32.5 -18q-21 -4 -51.5 -3.5t-35.5 0.5q-25 0 -60.5 1.5t-91.5 5.5q-6 -37 -10.5 -65t-6.5 -47q-5 -40 -4.5 -76t5.5 -55q3 -13 14 -21.5t29 -11.5q23 9 77.5 49
t82.5 68l6 -6q-44 -42 -110 -95t-104 -75q-9 -5 -28.5 -5t-24.5 4q-15 11 -24.5 30.5t-11.5 39.5q-5 43 -4 70t7 61q5 36 11 71.5t13 69.5q-64 5 -131 11t-130 12q-78 -93 -107.5 -128.5t-37.5 -44.5zM1056 765l-309 -369q46 -1 101 -2t137 -3q20 108 39 210.5t32 163.5z
M240 348q-30 -15 -52.5 -42t-41.5 -68q-17 -36 -12.5 -80t30.5 -81q25 -37 62.5 -57t81.5 -20q43 0 70 13.5t65 48.5q19 19 44.5 46.5t60.5 66.5q7 8 18 21t38 45q34 41 54 64.5t38 44.5q-134 12 -212.5 17t-128.5 5q-33 0 -61.5 -6t-53.5 -18z" />
    <glyph glyph-name="B" unicode="B" horiz-adv-x="1037" 
d="M170 -15h-49.5h-19.5q-24 1 -40.5 4.5t-24.5 9.5q-3 2 -4 3.5t-1 3.5q0 6 2.5 13t7.5 15q11 18 30 35.5t35 25.5q3 1 5.5 1.5t8.5 0.5q10 0 25 -2.5t51 -12.5q45 -13 68 -17t41 -4q22 0 37.5 4.5t25.5 14.5q22 20 43 57.5t49 109.5q8 19 31.5 80t39.5 101q49 121 121 210
t148 124l6 -2q-19 -10 -43 -49.5t-57 -116.5q-13 -31 -38 -93t-36 -89q-3 -6 -4.5 -10t-2.5 -6q56 15 114.5 26t116.5 18q40 23 64.5 52t34.5 65q13 51 -6 98.5t-68 78.5q-36 23 -86 35t-113 12q-80 0 -142.5 -14t-115.5 -45q-53 -30 -94.5 -86.5t-78.5 -150.5
q-13 -36 -34.5 -52.5t-53.5 -16.5q-20 0 -30.5 4.5t-12.5 14.5q-2 9 3.5 23.5t18.5 34.5q45 66 116.5 127t160.5 110q92 54 182.5 82.5t165.5 27.5q64 0 116 -14t89 -41q48 -35 65 -86.5t-1 -103.5q-15 -41 -59 -82.5t-109 -75.5q63 -25 88 -92.5t1 -131.5
q-10 -26 -39.5 -56.5t-84.5 -70.5q-21 -15 -41.5 -28.5t-37.5 -21.5q-45 -23 -88.5 -36.5t-76.5 -14.5q-58 -1 -143 -0.5t-92 0.5h-83h-101zM622 389q-62 -146 -128.5 -224.5t-145.5 -101.5q70 -6 161.5 -8t157.5 2q69 4 103 12t54 23q15 10 26.5 26t22.5 41q26 62 0 133.5
t-88 97.5q-29 5 -76.5 4.5t-86.5 -5.5z" />
    <glyph glyph-name="C" unicode="C" horiz-adv-x="811" 
d="M766 144q-107 -125 -205.5 -189t-184.5 -64q-112 0 -186.5 59.5t-96.5 164.5q-18 87 5.5 186t84.5 188q99 144 267.5 242.5t337.5 98.5q53 0 106 -13t142 -55q3 -2 4 -3.5t1 -3.5q0 -10 -37.5 -37t-51.5 -27q-5 0 -9.5 0.5t-11.5 2.5q-19 7 -64.5 30t-72.5 34
q-38 15 -74.5 22.5t-74.5 7.5q-96 0 -188 -66t-170 -190q-52 -83 -74 -175t-10 -173q16 -104 80.5 -162t166.5 -58q76 0 151 45t158 142q3 3 6.5 0t0.5 -7z" />
    <glyph glyph-name="D" unicode="D" horiz-adv-x="1153" 
d="M202 -13h-67.5h-26.5q-25 0 -41 5.5t-21 15.5q-3 18 18.5 48.5t45.5 42.5q10 3 28 0.5t65 -14.5q49 -13 72.5 -17t41.5 -4q27 0 41 4t25 13q25 21 46.5 57.5t50.5 110.5q1 4 26 70t45 113q50 117 119 202.5t143 122.5l4 -2q-36 -18 -102 -179.5t-67 -162.5
q-59 -137 -129 -225t-153 -130q36 -4 143.5 -5.5t187.5 2.5q77 4 128 17t87 38q30 22 57.5 57.5t50.5 84.5q43 92 39 190.5t-55 177.5q-50 77 -135.5 118t-196.5 41q-87 0 -153 -13.5t-114 -41.5q-47 -27 -82.5 -78t-65.5 -134q-13 -37 -34 -53t-54 -16q-35 0 -41 20.5
t19 57.5q38 56 101.5 108.5t151.5 101.5q95 54 180 79t167 24q113 0 201 -42t142 -120q56 -83 62.5 -186t-39.5 -189q-25 -46 -76.5 -96.5t-120.5 -96.5q-29 -20 -54.5 -35t-56.5 -31q-41 -21 -80 -32.5t-77 -14.5q-12 -1 -91 -2.5t-123 -1.5h-101.5h-130.5z" />
    <glyph glyph-name="E" unicode="E" horiz-adv-x="1066" 
d="M178 -2q-34 -1 -45 -1.5t-16 -0.5q-26 0 -43 5t-22 15q-3 18 16.5 43.5t44.5 38.5q8 2 24 0t61 -13q52 -13 78 -17.5t46 -4.5q24 0 42 5.5t31 17.5q24 20 45.5 55t47.5 100q9 23 31 80t36 91q-63 9 -117 15t-99 9q-4 0 -6.5 1t-2.5 3t2 2.5t10 0.5q49 0 108.5 1t119.5 2
q43 107 106 184.5t135 114.5q-70 19 -129 28.5t-109 9.5q-52 0 -91.5 -8.5t-71.5 -25.5q-56 -30 -99.5 -93.5t-85.5 -174.5q-16 -42 -35.5 -59t-50.5 -17q-36 0 -43 22.5t17 59.5q54 85 129.5 154.5t163.5 114.5q71 36 146 54t153 18q58 0 133 -12t198 -41
q95 -23 132.5 -35.5t40.5 -20.5q4 -9 -19.5 -35t-36.5 -29q-12 0 -65.5 13t-129.5 35q-57 17 -92 27t-48 13q-16 -11 -36 -44.5t-48 -97.5q-13 -30 -35.5 -84.5t-28.5 -68.5q145 3 176.5 3.5t50.5 0.5q42 0 71.5 -2t42.5 -6q13 -3 -15 -36.5t-45 -37.5q-18 -4 -36.5 -4.5
t-56.5 3.5q-18 2 -45.5 5.5t-163.5 23.5q-57 -127 -124 -210.5t-143 -120.5q22 -1 40.5 -1.5t38.5 -0.5q81 0 153.5 4t124.5 11q19 2 108 14t102 12q3 0 4.5 -1.5t0.5 -5.5q-2 -11 -28 -43t-43 -44q-7 -3 -47 -5t-122 -2h-188q-69 0 -149 -1.5t-199 -5.5z" />
    <glyph glyph-name="F" unicode="F" horiz-adv-x="979" 
d="M362 11q-59 -31 -123.5 -47.5t-122.5 -16.5q-44 0 -68.5 5t-31.5 15q-3 17 16.5 43t42.5 38q4 2 7.5 2.5t7.5 0.5q10 0 25.5 -3.5t53.5 -14.5q55 -16 82.5 -21.5t47.5 -5.5q23 0 38.5 3.5t26.5 10.5q28 18 53.5 57.5t61.5 122.5q12 30 39.5 97.5t42.5 103.5
q-81 11 -129.5 16.5t-89.5 8.5q-5 0 -7.5 1t-2.5 3t2.5 2.5t9.5 0.5q22 0 50.5 0.5t90.5 1.5q37 0 56 0.5t35 0.5q51 117 112.5 193.5t136.5 115.5q-72 19 -130 28.5t-106 9.5q-46 0 -83.5 -7.5t-69.5 -23.5q-58 -29 -104.5 -93t-88.5 -174q-14 -39 -34 -56.5t-48 -17.5
q-34 0 -41 21.5t17 58.5q56 87 131.5 156t163.5 113q68 34 140.5 51.5t148.5 17.5q58 0 134 -12t198 -41q94 -23 131.5 -35t40.5 -21q4 -9 -19.5 -35.5t-36.5 -29.5q-12 0 -65.5 13t-129.5 35q-7 2 -16.5 4.5t-27.5 8.5q-39 11 -60 17t-39 11q-25 -20 -54.5 -74t-102.5 -232
q130 3 155 3.5t42 0.5q39 0 70 -2.5t45 -6.5q13 -2 -14.5 -34t-44.5 -36q-18 -4 -36.5 -4.5t-56.5 3.5q-16 1 -38 4t-144 21q-61 -147 -131.5 -238.5t-158.5 -137.5z" />
    <glyph glyph-name="G" unicode="G" horiz-adv-x="1053" 
d="M576 -216q-24 -9 -59.5 -20.5t-42.5 -13.5q-6 -1 -7 2.5t4 5.5q64 22 94.5 44.5t56.5 60.5q31 48 87 141t90 156q-98 -77 -200 -120.5t-185 -43.5q-105 0 -176.5 49.5t-98.5 139.5q-24 80 -6.5 172.5t71.5 171.5q45 66 122.5 128.5t168.5 103.5q74 34 152 51.5t158 17.5
q72 0 144.5 -12.5t152.5 -39.5q2 -1 3.5 -2.5t1.5 -3.5q0 -12 -39.5 -43.5t-55.5 -31.5q-6 0 -12.5 1.5t-17.5 4.5q-23 7 -76 27t-83 29q-48 15 -88 22t-78 7q-41 0 -80 -9t-77 -27q-55 -26 -103 -71t-85 -103q-53 -84 -71 -174.5t2 -166.5q24 -88 94.5 -136.5t177.5 -49.5
q126 -2 222 77t166 241q-90 5 -111.5 5.5t-44.5 0.5q-46 0 -100 -3.5t-140 -14.5q-29 -4 -39 -5t-15 -1q-2 0 -3 1t-1 3q0 4 4 11t12 17q15 18 31.5 31.5t27.5 16.5q5 2 25.5 3.5t139.5 1.5q42 0 90.5 1t120.5 3q20 1 26 1h9q20 0 51.5 -29.5t25.5 -45.5q-29 -43 -62.5 -100
t-72.5 -131q-29 -52 -71 -134t-54 -103q-11 -19 -31 -36.5t-48 -33.5q-19 -12 -43.5 -23t-53.5 -21z" />
    <glyph glyph-name="H" unicode="H" horiz-adv-x="1343" 
d="M418 -36q-48 -26 -83.5 -38.5t-62.5 -12.5q-56 0 -108 30t-85 81q-34 54 -35.5 112t30.5 108q52 82 168.5 138.5t247.5 56.5h58t182 -2q21 37 40.5 72.5t36.5 64.5q31 56 45 92t13 57q0 14 -8.5 24.5t-22.5 14.5q-21 -8 -72 -46t-91 -74l-6 6q66 60 121.5 104t89.5 63
q9 5 28.5 4.5t26.5 -4.5q16 -9 27 -30.5t12 -42.5q2 -23 -12.5 -59.5t-55.5 -109.5q-15 -27 -44.5 -78.5t-33.5 -58.5q121 -1 184 -1.5t110 -0.5q22 38 43 72.5t36 57.5q76 116 219.5 198.5t266.5 89.5q40 2 153 -15t160 -29q4 -1 6 -3.5t2 -5.5q-3 -15 -36 -37.5t-54 -22.5
q-15 0 -42 5t-97 21q-93 22 -135.5 29t-69.5 7q-84 0 -145.5 -52t-136.5 -178q-15 -25 -31.5 -53t-48.5 -84q68 0 125 -0.5t81 -1.5q3 0 4.5 -1.5t1.5 -5.5q0 -7 -16 -22.5t-38 -29.5q-8 -5 -18 -7t-27 -3q-14 -1 -32.5 -1t-120.5 1q-13 -23 -27 -49l-35 -65
q-32 -58 -45.5 -93.5t-12.5 -57.5q0 -14 9 -25t23 -15q21 7 76.5 48t85.5 71l6 -7q-47 -45 -109 -94.5t-101 -72.5q-10 -6 -30 -5.5t-28 5.5q-15 10 -26 32t-12 42q-1 21 13 57t56 112q14 25 30 54t37 66q-56 3 -125.5 8t-157.5 13q-59 -99 -88 -147t-42 -67
q-39 -59 -100 -111t-147 -98zM392 414q-80 0 -136.5 -37t-92.5 -113q-22 -45 -19 -99.5t30 -103.5q28 -50 73.5 -78.5t98.5 -28.5q20 0 36 4t31 12q32 18 68.5 63t89.5 134q49 82 79 133.5t55 94.5q-135 11 -202 15t-111 4z" />
    <glyph glyph-name="I" unicode="I" horiz-adv-x="778" 
d="M91 -2q-23 -1 -30 -1h-10q-22 0 -37.5 4t-21.5 11q-1 11 23 39.5t38 32.5q6 2 18.5 1t45.5 -8q40 -8 61.5 -10.5t39.5 -2.5q39 0 63 6.5t42 20.5q26 21 47 55t49 103q3 8 27 68.5t43 104.5q64 145 130.5 227t151.5 118q-6 1 -20 1.5t-26 0.5q-31 0 -79 -5.5t-146 -21.5
q-53 -8 -72 -10.5t-27 -2.5q-14 0 19 41.5t53 49.5q10 5 86 2.5t82 -2.5q45 0 115 1.5t195 5.5q36 1 47.5 1.5t14.5 0.5q23 0 38.5 -3.5t20.5 -10.5q2 -9 -19 -34t-41 -38q-7 -2 -21 -0.5t-52 8.5q-47 9 -71 12t-43 3q-24 0 -43.5 -5t-34.5 -16q-22 -16 -39 -45.5
t-46 -112.5q-24 -68 -37.5 -103t-27.5 -68q-58 -135 -135.5 -224.5t-169.5 -126.5q4 -2 10.5 -3t16.5 -1q21 0 58 4t126 16q90 13 125 16.5t51 2.5q12 0 5.5 -21t-24.5 -42q-14 -17 -30.5 -26t-33.5 -9l-139 3q-74 1 -160.5 -0.5t-205.5 -6.5z" />
    <glyph glyph-name="J" unicode="J" horiz-adv-x="472" 
d="M188 -74q-48 -59 -118.5 -103.5t-226.5 -107.5q-7 -3 -9.5 2.5t4.5 8.5q95 39 161 96.5t120 150.5q28 48 58.5 114.5t97.5 233.5q78 185 146.5 270t171.5 130q17 8 43 15.5t50 12.5q-17 2 -34 2.5t-39 0.5q-41 0 -95.5 -4.5t-156.5 -18.5q-50 -6 -67.5 -8t-26.5 -2
q-4 0 -4.5 3.5t2.5 7.5q9 20 34 46.5t41 31.5q10 5 64.5 7t165.5 2q39 0 76 1t89 5q27 2 39 2.5t21 0.5q6 0 8 -1t2 -4q0 -5 -7.5 -17.5t-18.5 -23.5q-18 -20 -29 -28.5t-18 -7.5q-31 1 -55.5 -4.5t-48.5 -17.5q-69 -34 -125.5 -123t-137.5 -305q-60 -159 -98.5 -238
t-78.5 -130z" />
    <glyph glyph-name="K" unicode="K" horiz-adv-x="1120" 
d="M289 18q-57 -33 -112 -49t-108 -16q-43 0 -70.5 7t-31.5 19q0 13 19.5 39t36.5 36q5 2 8.5 3t8.5 1q8 0 20 -3.5t40 -15.5q43 -18 67 -24t44 -6q27 0 44.5 4t31.5 13t26 23t25 35q15 24 33 61t100 228q69 160 132.5 244.5t153.5 127.5q14 6 22.5 10t12.5 5q-17 1 -25 1.5
t-16 0.5q-48 0 -108.5 -5t-163.5 -21q-44 -6 -59.5 -8t-23.5 -2q-4 0 -4.5 3.5t1.5 8.5q10 20 36 46.5t42 31.5q7 4 36 5.5t185 1.5q46 0 85.5 1.5t90.5 5.5q24 2 34.5 2.5t19.5 0.5q6 0 8.5 -1.5t2.5 -4.5q0 -4 -6.5 -13t-17.5 -22q-16 -21 -23 -26.5t-14 -5.5
q-42 0 -64.5 -3.5t-37.5 -12.5q-25 -15 -47 -48t-58 -113q-12 -26 -38.5 -87t-40.5 -93q-22 -50 -43.5 -93t-44.5 -80q109 102 250.5 222.5t257.5 212.5q62 48 118 81.5t102 49.5q37 14 73.5 21t75.5 7q17 0 26.5 -3.5t9.5 -10.5t-6 -19t-18 -27q-15 -20 -27.5 -30.5
t-22.5 -10.5t-23 1t-43 3q-37 4 -56.5 5t-36.5 1q-31 0 -70 -18t-86 -54q-40 -30 -97 -76t-131 -108q18 -118 45.5 -215.5t56.5 -147.5q17 -30 33 -45.5t34 -19.5q16 4 44.5 25.5t78.5 69.5l7 -5q-6 -6 -34.5 -33t-47.5 -44q-26 -23 -48 -39.5t-42 -27.5q-6 -3 -14 -5
t-17 -2t-17.5 2.5t-14.5 7.5q-13 11 -26.5 29t-23.5 38q-28 50 -52.5 142.5t-39.5 202.5q-48 -41 -104 -90.5t-130 -115.5q-42 -64 -88.5 -109t-104.5 -77z" />
    <glyph glyph-name="L" unicode="L" horiz-adv-x="1040" 
d="M375 -8q-65 -89 -135.5 -135.5t-141.5 -46.5q-80 0 -120.5 53.5t-13.5 117.5q22 55 106.5 108t164.5 53q34 0 75 -14.5t96 -46.5q13 32 25 78t31 151q23 129 39.5 189t36.5 103q51 115 177 182t285 67q50 0 118 -12t107 -27q7 -3 10.5 -6.5t3.5 -9.5q0 -18 -35.5 -45.5
t-52.5 -27.5q-8 0 -15 1t-14 3q-14 4 -31 12t-53 28q-66 35 -100 46.5t-62 11.5q-76 0 -120 -46t-95 -168q-6 -14 -81 -203.5t-132 -299.5l-13.5 -24t-8.5 -15q14 -9 73.5 -47t96.5 -58q56 -30 101.5 -44.5t86.5 -14.5q33 0 63.5 11.5t60.5 34.5q17 13 35 30.5t59 65.5l8 -6
q-42 -49 -65 -75.5t-27 -30.5q-70 -69 -119.5 -93t-109.5 -24q-34 0 -75 16t-92 49q-16 11 -53 38t-94 71zM156 106q-46 0 -74 -18.5t-43 -59.5q-19 -53 27.5 -103t118.5 -50q56 0 99 30t81 94q-79 60 -126 83.5t-83 23.5z" />
    <glyph glyph-name="M" unicode="M" horiz-adv-x="1557" 
d="M402 114q-77 -63 -131 -89t-105 -26q-52 0 -117.5 11.5t-72.5 20.5q-10 12 17 50t44 43q10 0 27 -2.5t58 -11.5q62 -15 95.5 -19.5t60.5 -4.5q36 0 64 8.5t49 25.5q37 29 92 90.5t139 168.5q36 46 107.5 139.5t104.5 135.5q-1 53 -5 97t-11 79q-7 32 -15.5 49.5
t-20.5 25.5q-5 4 -9.5 5.5t-9.5 2.5q-20 -5 -94 -58.5t-125 -96.5l-4 6q161 131 210 167t75 50q7 4 25 3t22 -4q15 -13 26 -41t19 -74q21 -116 15.5 -327.5t-30.5 -407.5q116 123 308 309.5t388 368.5q4 3 6.5 4t5.5 0t2.5 -4.5t-3.5 -7.5q-63 -90 -138 -245t-129 -306
q-15 -43 -22.5 -84.5t-4.5 -71.5q2 -13 10.5 -23.5t22.5 -14.5q21 7 77 50t97 81l6 -6q-59 -54 -125.5 -108t-108.5 -81q-7 -4 -25.5 -3t-21.5 4q-17 14 -31 37t-16 42q-3 27 6 72t29 101q29 83 67.5 170t61.5 124q12 21 25 43t27 44q-170 -162 -301.5 -292.5t-205.5 -210.5
q-4 -4 -7 -10t-6 -18q-2 -10 -4 -23t-5 -37q-1 -13 -1.5 -18t-1.5 -9q-6 -5 -22 -8t-34 -3q-16 0 -23 2t-11 8q-5 8 0 54.5t6 53.5q21 212 28 326t6 200q-221 -290 -306 -392t-126 -134z" />
    <glyph glyph-name="N" unicode="N" horiz-adv-x="1060" 
d="M142 -36q-59 -57 -122 -82t-144 -25q-56 0 -135.5 18t-87.5 28q-7 9 28.5 48t53.5 45q6 1 19.5 -2t53.5 -15q78 -24 123 -32.5t82 -8.5q43 0 83 24t89 82q19 22 43 52.5t86 113.5q23 31 134.5 191.5t190.5 277.5q-17 83 -43 121.5t-66 38.5q-11 0 -23 -3t-26 -9
q-27 -10 -96 -58.5t-113 -86.5l-6 6q47 42 129 102.5t126 86.5q25 15 48.5 22t47.5 7q52 0 81 -53.5t51 -182.5q27 -170 43 -287.5t34 -274.5q113 185 190 304t131 191q98 132 177 188t177 56q55 0 126 -11.5t87 -19.5q2 -1 2.5 -2t0.5 -3q0 -14 -33 -49t-49 -37h-6t-5 1
q-9 1 -22 3.5t-47 9.5q-71 16 -109.5 21.5t-68.5 5.5q-51 0 -100.5 -39.5t-118.5 -135.5q-68 -91 -150.5 -217t-184.5 -294q-5 -7 -10 -16t-16 -27q-14 -24 -20.5 -34.5t-11.5 -17.5q-5 -6 -9 -8.5t-8 -0.5q-4 1 -6.5 9.5t-10.5 68.5q-17 138 -32 247t-53 339q0 2 -0.5 4.5
l-1.5 7.5l-1.5 7.5t-0.5 4.5q-70 -105 -180 -267.5t-137 -200.5q-75 -107 -112.5 -153.5t-70.5 -78.5z" />
    <glyph glyph-name="O" unicode="O" horiz-adv-x="1027" 
d="M735 94q-83 -50 -158 -75t-142 -25q-106 0 -179 46.5t-103 132.5q-27 78 -14 170.5t62 172.5q39 62 103 121t142 105q74 44 146 67.5t134 23.5q108 1 182.5 -45t105.5 -132q28 -78 15.5 -171.5t-63.5 -175.5q-35 -56 -98 -114.5t-133 -100.5zM256 229q29 -85 99 -131
t173 -47q56 -1 106.5 12t92.5 38q37 23 72 62.5t68 97.5q47 82 60.5 173.5t-11.5 167.5q-27 87 -98 133.5t-176 46.5q-53 0 -102.5 -12.5t-87.5 -35.5q-42 -25 -77.5 -65t-72.5 -104q-47 -81 -59 -171t13 -165z" />
    <glyph glyph-name="P" unicode="P" horiz-adv-x="1004" 
d="M157 -2q-35 -1 -46 -1.5t-16 -0.5q-26 0 -42.5 5t-21.5 15q-3 17 15.5 39t45.5 36q7 2 22.5 0.5t58.5 -12.5q50 -11 75 -15t44 -4q24 0 43 5.5t32 16.5q25 21 46.5 56.5t50.5 107.5q3 7 28 70t45 109q52 123 118 209t134 119q-28 10 -59.5 15t-66.5 5q-87 0 -150.5 -13.5
t-107.5 -40.5q-44 -26 -75.5 -71t-54.5 -114q-12 -37 -31 -53t-51 -16q-34 0 -37.5 18t24.5 58q31 45 85 91t133 95q88 54 166.5 80t150.5 25q85 1 152 -22.5t112 -69.5q54 -55 67 -130t-19 -134q-21 -41 -64 -75.5t-99 -57.5q-33 -13 -70 -20.5t-69 -7.5q-31 0 -62.5 7
t-60.5 21q-55 -111 -114.5 -178t-131.5 -101q14 -1 37.5 -1.5t48.5 -0.5q51 0 102 3t95 8q30 3 61.5 8t78.5 15q24 4 32.5 5.5t12.5 1.5q3 0 4.5 -1t1.5 -4q0 -8 -23 -35t-48 -51q-8 -4 -40.5 -5.5t-103.5 -1.5h-110q-69 0 -149 -1.5t-199 -5.5zM861 350q25 10 46.5 30.5
t34.5 47.5q21 43 21 94t-22 98q-21 45 -58 78t-87 52q-17 -10 -38 -47.5t-53 -114.5q-10 -24 -33.5 -83.5t-36.5 -90.5q35 -34 80 -54.5t88 -20.5q13 0 28 3t30 8z" />
    <glyph glyph-name="Q" unicode="Q" horiz-adv-x="1047" 
d="M1454 -253q-81 -72 -150 -105t-135 -33q-71 0 -167.5 28.5t-294.5 116.5q-156 70 -221 90.5t-107 20.5q-35 0 -70.5 -9t-91.5 -36q-15 -7 -35.5 -19t-102.5 -63q-13 -8 -23.5 -5t-13.5 15q-3 11 2.5 21t18.5 15q76 25 124.5 42t70.5 25q49 19 96 40t93 45
q163 85 270.5 174.5t168.5 192.5q44 75 49.5 162.5t-28.5 160.5q-35 76 -106 117t-169 41q-47 0 -97 -14.5t-92 -39.5q-58 -34 -106 -83.5t-82 -109.5q-42 -73 -54 -150.5t8 -145.5q23 -80 83 -126t143 -46q31 0 75.5 20t87.5 52q5 4 7.5 1.5t-2.5 -6.5q-75 -60 -144 -93
t-119 -33q-85 0 -146.5 47t-84.5 128q-19 68 -6 146.5t57 154.5q38 65 112 132t165 120q81 47 158.5 72t142.5 25q101 0 175 -45.5t108 -127.5q32 -76 21.5 -166t-62.5 -171q-58 -93 -179 -184.5t-349 -212.5q-6 -3 -24.5 -13t-49.5 -26q32 11 57.5 16t51.5 5
q55 0 130 -20.5t237 -86.5q167 -69 245.5 -90t137.5 -21q57 0 107.5 16t98.5 50q15 11 30.5 24t33.5 30q11 10 30.5 29.5t29.5 28.5l7 -3q-26 -30 -61.5 -65.5t-58.5 -54.5z" />
    <glyph glyph-name="R" unicode="R" horiz-adv-x="1064" 
d="M313 26q-61 -31 -120.5 -47.5t-114.5 -16.5q-42 0 -71.5 6.5t-35.5 16.5q-5 14 14 41.5t41 37.5q5 2 9 2.5t9 0.5q10 0 25.5 -3.5t53.5 -15.5q57 -18 84.5 -23.5t48.5 -5.5q16 0 29.5 4t29.5 13q17 10 30 25.5t26 38.5q23 42 65.5 155t57.5 152q57 144 131 236.5
t174 142.5q-23 5 -47.5 8t-51.5 3q-78 0 -141.5 -14.5t-107.5 -42.5q-37 -23 -68.5 -70t-64.5 -134q-15 -40 -34.5 -55.5t-50.5 -15.5q-35 0 -39.5 21.5t22.5 59.5q33 48 93.5 99.5t138.5 99.5q85 52 165.5 78.5t154.5 27.5q78 0 139 -20.5t101 -60.5q47 -49 56 -114
t-23 -126q-29 -54 -95.5 -87.5t-180.5 -50.5q6 -78 26.5 -149.5t54.5 -129.5q14 -25 30 -41.5t35 -24.5q23 6 54.5 27.5t73.5 59.5l5 -7q-54 -50 -101 -85.5t-85 -56.5q-7 -4 -22 -4t-20 3q-17 13 -33 33.5t-34 55.5q-34 64 -54.5 144.5t-25.5 164.5q-1 11 3 14t22 5
q10 0 34 0.5t48 1.5q67 4 109.5 29t66.5 75q41 86 -1 168t-149 110q-32 -19 -62.5 -61.5t-62.5 -114.5q-8 -19 -28.5 -70t-52.5 -134q-58 -150 -125.5 -241t-157.5 -138z" />
    <glyph glyph-name="S" unicode="S" horiz-adv-x="788" 
d="M590 91q-69 -50 -144.5 -78t-141.5 -28q-84 0 -154.5 32.5t-120.5 93.5q30 34 120 127t96 99l8 -5q-83 -88 -101.5 -114t-19.5 -42q10 -20 44 -46t76 -46q37 -17 75 -25.5t74 -8.5q54 0 101.5 12.5t82.5 35.5q23 15 39.5 34t26.5 41q28 65 -11.5 113.5t-184.5 103.5
q-138 52 -177 99.5t-12 114.5q13 31 48.5 65.5t88.5 66.5q72 44 147 69.5t136 25.5q77 0 146.5 -28t94.5 -69q-15 -20 -33.5 -42.5t-54.5 -65.5q-43 -51 -63.5 -77t-36.5 -49l-6 4q7 10 15 20.5t24 32.5q29 38 44.5 59.5t30.5 43.5q-35 51 -105.5 82t-158.5 31
q-49 0 -94.5 -11t-80.5 -32q-26 -16 -44.5 -36t-27.5 -42q-13 -34 2 -63t61 -56q20 -12 46.5 -24t91.5 -38q144 -57 181 -113.5t0 -134.5q-15 -30 -48.5 -65t-79.5 -67z" />
    <glyph glyph-name="T" unicode="T" horiz-adv-x="851" 
d="M364 45q-57 -36 -121 -54.5t-129 -18.5q-44 0 -90.5 9.5t-51.5 19.5q-7 15 13.5 46.5t43.5 39.5q5 2 9.5 3t8.5 1q10 0 25.5 -4.5t54.5 -20.5q60 -25 90.5 -33t53.5 -8q27 0 48.5 6.5t40.5 19.5t33.5 29.5t26.5 39.5q10 19 21 46t35 94q19 53 30 83t22 58
q52 131 118.5 213.5t160.5 127.5q-180 39 -243 49t-101 10q-23 0 -42.5 -4t-36.5 -12q-40 -19 -73.5 -71t-71.5 -156q-16 -43 -34.5 -59t-49.5 -16q-37 0 -45 21.5t16 60.5q44 74 109.5 132t145.5 95q50 23 102 34.5t103 11.5q46 0 101 -3.5t167 -15.5q115 -12 173 -15.5
t107 -3.5q23 0 43.5 3t44.5 10q6 2 8 2.5t3 0.5q2 0 2.5 -0.5t0.5 -1.5q0 -11 -22 -40.5t-41 -43.5q-24 -15 -49.5 -21t-60.5 -6q-34 0 -89.5 8t-160.5 30v0q-26 -18 -49 -54t-52 -107q-12 -29 -35.5 -90t-34.5 -90q-51 -128 -117 -212t-161 -143z" />
    <glyph glyph-name="U" unicode="U" horiz-adv-x="964" 
d="M638 201q-85 -96 -191 -171t-166 -75q-72 0 -124.5 57t-57.5 139q-3 56 27.5 123.5t143.5 216.5q15 20 44.5 59t43.5 57q36 49 50 78t13 49q-1 13 -8.5 27t-20.5 27q-21 -6 -95.5 -57.5t-108.5 -80.5l-6 7q39 34 129.5 99t128.5 85q4 1 9.5 2t11.5 1q9 0 17.5 -2t11.5 -4
q16 -13 27.5 -35t14.5 -48q4 -32 -25 -86t-138 -197q-108 -143 -137.5 -203t-26.5 -104q5 -65 45 -110.5t97 -45.5q48 0 148.5 76t161.5 148q10 15 22 34t38 60q32 48 48.5 74t30.5 49q11 18 23 36.5t65 100.5q44 68 55 93.5t9 51.5q-1 13 -8.5 27.5t-20.5 26.5
q-20 -6 -94.5 -57t-107.5 -79l-6 7q40 34 128 99t126 84q5 2 10 3t10 1q10 0 18.5 -2t10.5 -4q17 -14 28.5 -36t14.5 -47q4 -36 -18 -84.5t-141 -234.5q-13 -19 -53 -80.5t-59 -92.5q-49 -77 -68 -118t-18 -66q1 -18 13 -35t25 -19q20 5 77.5 48.5t108.5 89.5l5 -7
q-131 -117 -174 -149.5t-69 -44.5q-3 -2 -7.5 -2.5t-10.5 -0.5q-10 0 -18.5 1.5t-11.5 3.5q-25 19 -38.5 40t-15.5 44q-2 27 11 64t43 89z" />
    <glyph glyph-name="V" unicode="V" horiz-adv-x="716" 
d="M225 -103q-3 -3 -8 -5t-11 -2q-7 0 -12 3t-5 7q0 2 1 5t1 4q33 155 74 375t55 312q9 58 8 98t-11 57q-8 14 -20 19.5t-34 5.5q-23 1 -54 -3.5t-93 -18.5q-44 -10 -61 -13t-27 -2q-4 1 -6 2.5t-2 5.5q0 11 21.5 38t32.5 34q5 3 26 4.5t64 1.5q14 0 45.5 -0.5t46.5 -0.5
h104q60 0 131.5 1.5t187.5 5.5q47 1 63.5 1.5t24.5 0.5q14 0 21.5 -2.5t7.5 -6.5q0 -8 -17 -29.5t-36 -35.5q-7 -6 -15 -9t-18 -3q-12 0 -33.5 1.5t-77.5 8.5q-95 10 -147 13.5t-95 4.5q19 -7 31.5 -17.5t19.5 -24.5q13 -24 15.5 -63.5t-6.5 -88.5q-15 -90 -48.5 -266.5
t-60.5 -303.5q130 151 228 263.5t283 321.5q63 70 123.5 142.5t205.5 257.5q4 4 9.5 6.5t12.5 2.5q16 0 28 -9t12 -21q0 -7 -3 -13t-9 -11q-123 -109 -211 -195.5t-214 -225.5q-184 -210 -301.5 -345t-168.5 -195v0v0q-19 -23 -39 -46.5t-39 -46.5z" />
    <glyph glyph-name="W" unicode="W" horiz-adv-x="1146" 
d="M272 -107q-2 -3 -5 -4t-8 -1q-14 0 -24.5 7t-9.5 16q61 307 91.5 472t37.5 223q7 59 6.5 98.5t-8.5 54.5q-7 12 -16.5 17t-29.5 5q-23 0 -57 -4.5t-105 -18.5q-49 -10 -66 -12.5t-25 -1.5q-4 1 -5.5 3t-1.5 6q0 3 2.5 9t8.5 15q10 14 24.5 28.5t22.5 18.5q8 3 37.5 4.5
t166.5 1.5h449q60 0 128 2t176 8q43 2 58.5 2.5t23.5 0.5q11 0 18 -1.5t11 -4.5q0 -11 -23 -45t-40 -44q-5 -2 -11 -3t-12 -1q-14 0 -64 4t-136 11q-12 -100 -29 -256.5t-53 -493.5q16 22 33.5 46t49.5 69q20 28 29.5 41.5t17.5 24.5q153 212 245 345t200 296q24 36 49 74.5
t68 106.5q4 8 12.5 13t17.5 6q15 1 24 -7t10 -22q0 -8 -3 -16t-9 -15q-31 -35 -65.5 -76.5t-67.5 -85.5q-111 -140 -212.5 -274t-259.5 -353q-83 -117 -134.5 -189.5t-71.5 -99.5q-2 -3 -8 -5t-13 -2q-12 0 -21.5 5.5t-8.5 12.5q21 146 48.5 365.5t37.5 333.5
q-134 -187 -244.5 -344t-187.5 -269l-13 -19.5t-32 -45.5q-12 -17 -16.5 -23t-6.5 -9zM446 745q10 -18 13 -55t-3 -82q-7 -63 -36 -221t-72 -366q79 113 165 235.5t228 323.5q61 86 86 121t42 60q-128 11 -225 16t-184 6h-45t-28 -1q24 -5 37.5 -14t21.5 -23z" />
    <glyph glyph-name="X" unicode="X" horiz-adv-x="793" 
d="M7 -15q-6 -6 -13 -9t-13 -3q-16 0 -25 9t-9 25q0 8 4 17t11 18q75 40 149.5 87t146.5 101l193 149q14 89 21.5 140t9.5 65q6 49 3 88t-15 56q-6 9 -17.5 17t-24.5 13q-26 -8 -90.5 -48.5t-97.5 -68.5l-6 7q42 33 125.5 90.5t127.5 80.5q4 2 9 3t10 1t9.5 -1t8.5 -3
q18 -15 28 -26t15 -20q14 -26 17.5 -65.5t-4.5 -96.5q-14 -90 -18.5 -121.5l-8.5 -59.5q67 53 130 103.5t106 85.5q63 51 132 116.5t156 159.5q6 5 13.5 7.5t15.5 2.5q16 0 26 -10t10 -26q0 -12 -4 -21.5t-12 -19.5q-74 -43 -165.5 -104t-158.5 -113q-61 -46 -130 -100
t-121 -95q-6 -40 -12.5 -85.5t-14.5 -100.5q-8 -65 -6 -97.5t12 -47.5q8 -12 21.5 -21t26.5 -12q26 10 85.5 49.5t92.5 68.5l7 -7q-66 -52 -135 -101t-106 -68q-5 -3 -11 -4t-14 -1q-7 0 -12 1t-11 4q-15 12 -26.5 25.5t-18.5 25.5q-11 21 -10.5 68.5t16.5 157.5
q4 28 7.5 51t6.5 44l-184 -146q-62 -48 -119 -100t-139 -135z" />
    <glyph glyph-name="Y" unicode="Y" horiz-adv-x="671" 
d="M496 5q-6 -4 -68 -2.5t-90 1.5q-49 0 -106 -1t-151 -3q-40 -1 -54.5 -1h-22.5q-9 0 -15 2.5t-9 6.5q-1 9 22.5 36t37.5 33q2 1 4 1.5t7 0.5q3 0 8 -0.5t19 -1.5q21 -2 32 -3t19 -1q37 0 68.5 7.5t57.5 22.5q35 21 64.5 59t79.5 137l13.5 27t22.5 47q12 26 18.5 39.5
t12.5 25.5q-23 105 -48 174t-53 108q-10 14 -26 23.5t-33 13.5q-25 -8 -93 -50t-101 -70l-5 7q53 41 139 100t127 81q3 2 8 3t10 1t9.5 -1t8.5 -3q13 -8 27 -22.5t21 -27.5q35 -64 61 -144t43 -179q13 11 32 27t20 17q70 57 133 113.5t112 105.5q69 66 116 112.5t75 77.5
q7 5 15.5 8t16.5 3q16 0 26 -10t10 -26q0 -14 -7 -25.5t-22 -21.5q-57 -38 -109.5 -74.5t-95.5 -67.5q-94 -70 -153.5 -116.5t-108.5 -87.5q-10 -9 -24.5 -22t-39.5 -36q-5 -10 -10 -21.5t-16 -34.5q-18 -41 -28 -62t-19 -39q-47 -88 -109 -131t-178 -70q9 -1 21 -2t26 -1
q27 0 67.5 3.5t127.5 13.5q67 8 92.5 10t38.5 2q2 0 1.5 -1.5t-0.5 -3.5q0 -18 -26.5 -51t-48.5 -36z" />
    <glyph glyph-name="Z" unicode="Z" horiz-adv-x="926" 
d="M695 79q-68 -50 -119.5 -71t-103.5 -21q-42 0 -88.5 4t-135.5 18q-80 13 -119.5 17t-74.5 4q-18 0 -34 -1t-31 -3q-3 0 -4 1t-1 3q0 3 2 7t6 11q7 11 17 22t18 17q4 3 8 4.5t9 2.5q42 2 82.5 16.5t81.5 43.5q29 21 60.5 50t69.5 71q25 28 67.5 77.5t48.5 57.5
q115 134 223.5 206.5t232.5 102.5q-8 -1 -15.5 -1.5t-15.5 -0.5q-30 0 -72 5.5t-133 24.5q-89 18 -130 23.5t-71 5.5q-32 0 -49.5 -2.5t-30.5 -9.5q-23 -13 -40.5 -47t-50.5 -135q-11 -38 -28.5 -54.5t-46.5 -16.5q-19 0 -29 9t-10 25q0 9 4 20t11 23q35 58 83 104t107 79
q54 31 105.5 47t97.5 16q30 0 66.5 -4.5t109.5 -18.5q72 -14 107.5 -18.5t64.5 -4.5q20 0 38.5 1.5t41.5 6.5q6 1 8.5 1.5t3.5 0.5q3 0 4 -1t1 -4t-6 -11.5t-17 -19.5q-7 -8 -17.5 -17.5t-18.5 -14.5q-9 -6 -16 -8t-18 -3q-48 -3 -95.5 -31.5t-105.5 -89.5
q-29 -31 -81.5 -94t-75.5 -89q-125 -145 -243.5 -220t-263.5 -106q30 6 57 8.5t57 2.5q31 0 69 -3.5t116 -14.5q85 -12 126 -15.5t74 -2.5q54 1 74.5 5.5t34.5 14.5q23 16 40 53t50 153q11 40 29 58.5t46 18.5q19 0 30 -9.5t11 -26.5q0 -10 -4.5 -22.5t-12.5 -26.5
q-37 -61 -82.5 -111.5t-102.5 -91.5z" />
    <glyph glyph-name="bracketleft" unicode="[" horiz-adv-x="386" 
d="M-94 -268l239 514l238 523q2 5 5.5 7.5t8.5 2.5h25.5h41.5q31 -1 46.5 -1h29.5h26.5h43.5q29 1 43.5 1h26.5q6 0 4.5 -5.5t-8.5 -5.5h-25.5t-45.5 1q-23 1 -34 1h-20h-93q-3 0 -5 -1t-4 -4l-239 -519l-236 -510q-1 -3 0 -4t5 -1h93h20t35 1q31 1 45.5 1h24.5q6 0 4 -5.5
t-8 -5.5h-26.5h-43.5q-29 1 -43.5 1h-26.5h-29.5t-46.5 -1h-41.5h-25.5q-4 0 -5 2.5t1 7.5z" />
    <glyph glyph-name="backslash" unicode="\" horiz-adv-x="349" 
d="M202 -274q-6 117 -14.5 237.5t-21.5 274.5q-18 220 -29.5 339t-23.5 202q10 5 18 6t16 -3q2 -98 10.5 -237t21.5 -304q13 -147 26 -269.5t29 -243.5q-8 -5 -15.5 -5.5t-16.5 3.5z" />
    <glyph glyph-name="bracketright" unicode="]" horiz-adv-x="386" 
d="M470 769l-239 -514l-238 -523q-2 -5 -5.5 -7.5t-8.5 -2.5h-25.5h-41.5q-31 1 -46.5 1h-29.5h-26.5h-43.5q-29 -1 -43.5 -1h-26.5q-6 0 -4.5 5.5t8.5 5.5h25.5t45.5 -1q23 -1 34 -1h20h93q3 0 5 1t4 4l239 519l236 510q1 3 0 4t-5 1h-93h-20t-35 -1q-31 -1 -45.5 -1h-24.5
q-6 0 -4 5.5t8 5.5h26.5h43.5q29 -1 43.5 -1h26.5h29.5t46.5 1h41.5h25.5q4 0 5 -2.5t-1 -7.5z" />
    <glyph glyph-name="asciicircum" unicode="^" horiz-adv-x="387" 
d="M382 505l29 177q0 2 -1.5 2t-3.5 -2l-145 -183q-23 -32 -39 -44t-34 -12q-13 0 -21.5 7t-8.5 18q0 10 8 19.5t43 38.5l194 163q5 3 9.5 2t5.5 -7l32 -171q7 -32 -4 -50t-36 -18q-21 0 -27.5 14t-0.5 46z" />
    <glyph glyph-name="underscore" unicode="_" horiz-adv-x="500" 
d="M-165 -73h564q6 0 7 -12t-6 -12h-566q-8 0 -7.5 12t8.5 12z" />
    <glyph glyph-name="grave" unicode="`" horiz-adv-x="809" 
d="M592 536q-1 0 -2.5 1t-3.5 2q-14 16 -34.5 34t-57.5 47q-18 14 -24 19t-9 8q-7 8 -11 21t-2 21q2 10 11.5 16.5t21.5 6.5q10 0 19.5 -7t17.5 -21q2 -3 4.5 -8t8.5 -19q21 -42 35 -67.5t28 -44.5q1 -1 1.5 -2t0.5 -3t-1 -3t-3 -1z" />
    <glyph glyph-name="a" unicode="a" horiz-adv-x="592" 
d="M105 5q-6 -3 -13 -5.5t-12 -2.5q-6 0 -11.5 1t-8.5 3q-37 25 -37.5 97.5t33.5 152.5q29 66 89 125.5t134 95.5q35 19 66.5 29t55.5 10q44 0 73.5 -17t59.5 -58q10 7 30 23l55 44q5 5 8 4t2 -7q-80 -99 -154 -227.5t-70 -178.5q2 -14 12 -26t24 -16q20 8 53 34t63 57l6 -7
q-68 -68 -97.5 -91.5t-58.5 -40.5q-3 -1 -11 -2t-19 -1t-22.5 1.5t-13.5 2.5q-18 16 -28.5 37t-11.5 42q-2 20 6 45t27 57q12 20 33.5 51.5t26.5 39.5q-48 -53 -103.5 -108.5t-98.5 -94.5q-45 -40 -59.5 -51t-27.5 -18zM153 280q-23 -69 -25.5 -128.5t17.5 -80.5q8 -1 23 7
t32 22q50 39 124.5 115.5t139.5 155.5q-36 55 -68.5 81.5t-66.5 26.5q-12 0 -22.5 -3t-21.5 -9q-39 -21 -75.5 -72.5t-56.5 -114.5z" />
    <glyph glyph-name="b" unicode="b" horiz-adv-x="612" 
d="M340 53q-56 -31 -92 -44.5t-63 -13.5q-21 0 -37.5 9t-26.5 27q-9 14 -14.5 31t-6.5 34q-4 -6 -10 -14.5t-19 -26.5q-19 -25 -25 -34.5t-8 -12.5q-19 -2 -24 -2.5t-10 -0.5q-24 0 -33.5 11.5t-1.5 32.5q22 37 56 96t109 192q74 132 102 180.5t41 68.5q41 67 109.5 125
t159.5 102q76 37 146 54.5t142 17.5q33 0 66 -1.5t50 -3.5q6 -1 9 -4.5t3 -8.5q0 -19 -26.5 -47t-43.5 -28q-16 0 -37.5 2.5t-70.5 11.5q-59 11 -89 14.5t-54 3.5q-33 0 -53 -4t-38 -14q-34 -17 -76 -68.5t-93 -140.5q-41 -71 -128.5 -226.5t-92.5 -165.5q41 44 91 93
t109 104q50 48 92 79t65 35q22 -1 42 -20.5t28 -47.5q12 -40 1.5 -94t-38.5 -103q-30 -51 -83.5 -101t-126.5 -97zM452 450q-12 -1 -35.5 -16t-50.5 -39q-69 -61 -135 -129.5t-101 -117.5q31 -53 65 -79.5t71 -26.5q19 0 36 4t34 13q37 28 62 61.5t48 83.5q26 57 36.5 115.5
t2.5 90.5q-4 18 -11 26.5t-22 13.5z" />
    <glyph glyph-name="c" unicode="c" horiz-adv-x="485" 
d="M287 43q-49 -30 -79.5 -40t-60.5 -10q-41 0 -72 22t-42 59q-14 56 -4.5 105t41.5 104q26 48 82 98.5t124 89.5q40 23 74 34t67 11q43 0 68 -19.5t25 -52.5q0 -29 -24.5 -51t-55.5 -24q-13 52 -39 78.5t-64 26.5q-12 0 -22.5 -2t-23.5 -7q-28 -19 -53 -47.5t-46 -65.5
q-28 -49 -41.5 -107t-7.5 -111q7 -33 26.5 -52.5t49.5 -22.5q23 -4 51 1.5t55 19.5q25 14 56 41.5t51 53.5l9 -5q-29 -37 -67.5 -70.5t-76.5 -56.5z" />
    <glyph glyph-name="d" unicode="d" horiz-adv-x="602" 
d="M417 310q-44 -51 -102 -111.5t-114 -114.5q-33 -32 -54.5 -50t-41.5 -29q-6 -3 -13 -5.5t-12 -2.5q-6 0 -11.5 1t-8.5 3q-37 25 -37.5 97.5t33.5 152.5q28 66 87 124t133 96q36 19 68.5 29.5t56.5 10.5q33 0 58.5 -12t47.5 -37q41 62 65 98.5t37 53.5q41 57 105 107
t151 92q80 39 149 55.5t152 16.5q32 0 64 -1.5t50 -3.5q6 -1 9 -4t3 -8q0 -18 -28.5 -47t-45.5 -29q-16 0 -37.5 3t-69.5 12q-59 11 -89 14.5t-54 3.5q-32 0 -54.5 -4.5t-42.5 -14.5q-41 -22 -94 -85.5t-133 -187.5q-71 -112 -125 -204t-84 -153q-14 -29 -20.5 -49t-5.5 -32
q1 -19 9.5 -31.5t22.5 -14.5q20 8 54 34.5t64 57.5l6 -7q-60 -60 -92 -86t-64 -44q-3 -1 -11.5 -2t-19.5 -1t-21.5 1t-12.5 3q-17 14 -28.5 38t-11.5 43q-1 18 8.5 43.5t32.5 66.5q16 27 34.5 57t37.5 57zM144 71q7 -1 20.5 5.5t29.5 19.5q48 39 123 118t141 160
q-36 56 -66 80.5t-63 24.5q-12 0 -23.5 -3.5t-23.5 -10.5q-39 -22 -74 -72.5t-55 -112.5q-23 -69 -25.5 -128.5t16.5 -80.5z" />
    <glyph glyph-name="e" unicode="e" horiz-adv-x="486" 
d="M281 43q-46 -28 -77.5 -39t-62.5 -11q-36 0 -68 23.5t-43 59.5q-13 48 -2.5 97.5t43.5 109.5q26 47 79 98.5t109 84.5q44 25 78 36.5t64 11.5q42 0 65.5 -17t23.5 -46q0 -41 -51.5 -90t-170.5 -121q-30 -19 -65.5 -40t-74.5 -43q0 -5 0.5 -9.5l1.5 -13.5q7 -38 31 -57.5
t62 -19.5q21 0 44.5 6.5t45.5 18.5q23 13 57.5 42.5t54.5 56.5l9 -5q-29 -36 -71 -72.5t-82 -60.5zM274 464q-22 -14 -48 -46.5t-48 -74.5q-23 -42 -36 -88.5t-14 -88.5q40 23 73.5 43.5t60.5 38.5q58 38 86.5 65t38.5 52q3 5 4 11t1 14q0 33 -25.5 57t-60.5 24
q-7 0 -15 -1.5t-17 -5.5z" />
    <glyph glyph-name="f" unicode="f" horiz-adv-x="390" 
d="M482 505q-8 -17 -36 -45t-40 -29h-5h-20q-33 1 -54.5 1.5t-40.5 0.5q-18 -34 -101 -195.5t-136 -253.5q-63 -113 -155.5 -177.5t-180.5 -64.5q-49 0 -77.5 22.5t-28.5 60.5q0 35 25 60t65 29l2 -1q-2 -15 -1.5 -36.5t4.5 -39.5q8 -32 27 -52.5t43 -20.5q43 0 77.5 41.5
t104.5 168.5q12 22 31.5 59.5t67.5 131.5q58 113 87.5 169.5t52.5 99.5h-76q-6 1 -6.5 5.5t3.5 6.5l125 76q21 38 26.5 47t9.5 15q49 79 117 140t154 103q64 32 119 46.5t113 14.5q41 0 80 -4.5t62 -12.5q3 -1 5 -3t2 -5q0 -18 -28.5 -44.5t-47.5 -26.5q-14 0 -32 3.5
t-59 16.5q-53 16 -81 21t-52 5q-22 0 -40.5 -4.5t-36.5 -13.5q-36 -20 -79.5 -75t-94.5 -145q-13 -23 -25.5 -46.5t-25.5 -46.5q24 0 52.5 0.5t73.5 2.5q15 1 20 1h7q3 0 4.5 -2t-0.5 -4z" />
    <glyph glyph-name="g" unicode="g" horiz-adv-x="581" 
d="M292 -265q-34 -58 -128.5 -93.5t-196.5 -34.5q-90 1 -147 21t-74 57q-7 18 -7.5 34t6.5 32q12 30 48 61t101 67q85 49 124 74t74 52q-4 -1 -9 -2t-9 -1q-5 0 -9.5 1.5t-7.5 3.5q-35 24 -36.5 96t32.5 147q29 67 90 127t136 97q35 18 67 28t55 10q39 0 65.5 -17t60.5 -65
q6 5 16 12.5t34 24.5q20 15 29.5 22.5t16.5 12.5q2 1 4 0t4 -4q-28 -33 -50.5 -64.5t-40.5 -59.5q-64 -101 -107.5 -194t-69.5 -185q-8 -26 -14.5 -54t-16.5 -76q-12 -62 -20.5 -87t-19.5 -43zM149 279q-23 -70 -23 -127t23 -83q48 29 144.5 121t164.5 179q-39 60 -68.5 85
t-61.5 25q-11 0 -21 -3t-22 -9q-41 -23 -78.5 -74.5t-57.5 -113.5zM-140 -310q15 -36 51.5 -54.5t92.5 -18.5q52 0 98.5 29t82.5 84q13 20 23.5 48.5t27.5 98.5q15 64 26 101t23 71q22 63 49.5 120.5t63.5 113.5q-68 -70 -147 -145.5t-123 -112.5q-109 -86 -141.5 -114
t-54.5 -51q-27 -27 -45 -50.5t-27 -45.5q-8 -18 -8 -37t8 -37z" />
    <glyph glyph-name="h" unicode="h" horiz-adv-x="613" 
d="M56 10q-11 -4 -21.5 -6t-20.5 -2q-28 0 -39.5 12t-2.5 35q22 37 56 96.5t110 194.5q73 130 100.5 178t40.5 68q40 66 109 124t161 103q78 38 147.5 55t141.5 17q32 0 64.5 -1.5t50.5 -3.5q6 -1 9 -4.5t3 -8.5q0 -20 -26.5 -47.5t-43.5 -27.5q-16 0 -37.5 2.5t-70.5 11.5
q-59 11 -89 14.5t-54 3.5q-33 0 -53 -4t-38 -14q-35 -17 -77 -69t-93 -140q-20 -34 -46 -80t-84 -151q-35 -65 -54 -98.5t-35 -62.5q93 122 200.5 214.5t164.5 96.5q57 -17 49 -82t-81 -182q-54 -86 -66.5 -115t-11.5 -47q1 -15 8.5 -25t20.5 -14q23 8 58 35t64 58l6 -7
q-49 -50 -87 -81.5t-72 -51.5q-7 -2 -15 -3.5t-15 -1.5q-10 0 -18.5 1.5t-13.5 4.5q-18 12 -30 34.5t-13 43.5q-1 18 13 50t77 134q53 86 66.5 131t-13.5 66q-50 -15 -143.5 -106t-170.5 -204q-12 -18 -25 -39.5t-36 -63.5q-11 -18 -15.5 -26.5t-8.5 -14.5z" />
    <glyph glyph-name="i" unicode="i" horiz-adv-x="319" 
d="M563 813q-28 -30 -79 -76.5t-179 -153.5l-6 5q66 64 124 135t98 137q5 5 12 7.5t15 2.5q12 0 20.5 -8t8.5 -19q0 -8 -3.5 -15.5t-10.5 -14.5zM125 3q-4 -3 -11.5 -4t-20.5 -1t-21.5 1.5t-12.5 4.5q-19 13 -31.5 34t-13.5 41q-1 19 13 51t76 128q10 16 26.5 41.5
t23.5 35.5q20 32 29 49.5t13 31.5q2 14 -6.5 26.5t-21.5 15.5q-20 -7 -55 -33t-63 -55l-7 5q28 30 75.5 68.5t84.5 61.5q10 7 20.5 9.5t23.5 0.5q20 -5 39.5 -34.5t20.5 -55.5q0 -14 -10.5 -36.5t-35.5 -58.5q-9 -13 -30 -42.5t-31 -45.5q-59 -90 -70 -115t-10 -41
q1 -12 11.5 -22t26.5 -15q21 7 54 33t66 61l6 -7q-65 -65 -97 -91t-61 -42z" />
    <glyph glyph-name="j" unicode="j" horiz-adv-x="303" 
d="M563 813q-28 -30 -79 -76.5t-179 -153.5l-6 5q66 64 124 135t98 137q5 5 12 7.5t15 2.5q12 0 20.5 -8t8.5 -19q0 -8 -3.5 -15.5t-10.5 -14.5zM-174 -189q-59 -29 -126 -44t-133 -15q-46 0 -73 3t-38 10q-3 2 -4 4t-1 5q0 19 23.5 46t41.5 33q11 1 29 -2.5t64 -16.5
q61 -18 93 -24t58 -6q23 0 39.5 4t28.5 12q37 24 81 84t136 221q108 188 129 229t24 59q1 18 -5 30.5t-18 16.5q-23 -8 -59 -34.5t-64 -57.5l-7 6q25 28 74 67.5t90 66.5q8 6 17.5 8.5t19.5 2.5q26 0 40.5 -30.5t12.5 -74.5q-1 -23 -73 -148t-92 -160q-65 -116 -126.5 -178
t-181.5 -117z" />
    <glyph glyph-name="k" unicode="k" horiz-adv-x="623" 
d="M53 7q-14 -2 -20 -2.5t-11 -0.5q-31 0 -43.5 14t-1.5 40q11 19 36.5 63.5t79.5 139.5q131 231 156 273t41 65q37 57 105 113.5t155 99.5q76 38 146.5 55.5t143.5 17.5q33 0 66 -1.5t50 -3.5q6 -1 9 -4t3 -8q0 -20 -26.5 -48t-43.5 -28q-16 0 -37.5 2.5t-70.5 11.5
q-59 11 -89 14.5t-54 3.5q-33 0 -53.5 -4t-38.5 -14q-37 -19 -81 -73t-92 -139q-13 -22 -30 -52.5t-55 -99.5q-35 -62 -53 -94t-34 -60q97 104 187.5 169.5t134.5 65.5q35 -7 61.5 -50.5t16.5 -77.5q-7 -26 -27.5 -51t-47.5 -41q-24 -14 -62.5 -23.5t-197.5 -31.5
q30 -2 52.5 -12.5t36.5 -29.5q6 -8 10.5 -21t12.5 -44q7 -32 12 -46t11 -23t16 -15t22 -5q21 7 55.5 34t66.5 60l7 -7q-43 -43 -82 -75.5t-72 -52.5q-7 -4 -18 -6.5t-22 -2.5q-24 0 -41 5.5t-24 15.5q-10 14 -16.5 34t-14.5 66q-7 37 -12 52.5t-11 25.5q-16 22 -35 29.5
t-49 4.5q-1 -3 -3 -6t-5 -9q-3 -5 -5 -8t-3 -6q-13 -23 -28 -50t-43 -78q-17 -30 -25 -44.5t-15 -26.5zM507 389q2 23 -16 50t-40 30q-44 -10 -125 -79t-141 -146v-0.5t-1 -1.5v-0.5v-0.5q159 20 238.5 55.5t84.5 92.5z" />
    <glyph glyph-name="l" unicode="l" horiz-adv-x="303" 
d="M113 4q-6 -2 -13.5 -3.5t-15.5 -1.5q-11 0 -20 1.5t-13 4.5q-17 12 -29 35t-13 45t14 60.5t57 115.5q52 96 111 194.5t93 147.5q37 58 104.5 113t151.5 97q77 38 147 55t143 17q32 0 64.5 -1.5t50.5 -3.5q5 -1 8 -4t3 -8q0 -20 -26 -48t-43 -28q-16 0 -37.5 2.5
t-70.5 11.5q-59 11 -89 14.5t-54 3.5q-34 0 -54.5 -4t-37.5 -14q-33 -19 -73 -69t-94 -140q-53 -88 -104.5 -176t-97.5 -173q-37 -68 -50 -102.5t-12 -56.5q1 -14 9.5 -24.5t22.5 -14.5q21 7 54 33t66 61l6 -7q-62 -62 -95 -88.5t-63 -44.5z" />
    <glyph glyph-name="m" unicode="m" horiz-adv-x="930" 
d="M79 10q-9 -4 -20 -6t-24 -3q-28 0 -40 12t-3 35q78 108 132.5 211t52.5 150q-1 16 -8.5 26.5t-21.5 14.5q-22 -6 -52 -29t-59 -56l-7 6q32 35 74 70.5t80 60.5q12 8 19 10.5t13 2.5q23 0 44.5 -34.5t22.5 -65.5q1 -25 -15.5 -66.5t-76.5 -146.5q90 122 190.5 213
t154.5 101q55 -17 50.5 -94t-69.5 -186q82 106 182 189.5t157 92.5q55 -16 46 -81t-82 -183q-51 -81 -64.5 -112t-12.5 -50q1 -15 8.5 -25t20.5 -14q22 7 55 33t65 60l6 -7q-65 -65 -97 -91t-61 -42q-3 -2 -11 -3t-20 -1t-19 1t-11 3q-18 13 -30 36t-12 43q-1 18 13 50
t77 134q54 87 67 129.5t-13 62.5q-53 -18 -145 -107t-160 -196q-19 -30 -41 -68.5t-44 -78.5q-11 -4 -23 -6t-22 -2q-29 1 -40.5 13t-4.5 35q5 8 12 19.5t23 35.5q37 60 56.5 92.5t34.5 60.5q30 55 44 93.5t15 67.5q1 13 -2.5 22t-12.5 17q-47 -13 -132 -97.5t-168 -205.5
q-13 -20 -28.5 -44t-62.5 -102z" />
    <glyph glyph-name="n" unicode="n" horiz-adv-x="634" 
d="M172 156q-17 -26 -38 -59t-53 -87q-9 -4 -20 -6t-24 -3q-29 0 -41 12t-3 35q77 106 131.5 209.5t52.5 151.5q-1 16 -8.5 26.5t-21.5 14.5q-22 -6 -52 -29.5t-58 -55.5l-7 6q33 36 74.5 71.5t78.5 59.5q12 8 18.5 10.5t12.5 2.5q23 0 45 -34.5t24 -65.5q1 -27 -17.5 -72
t-73.5 -141q91 121 195.5 213t163.5 101q57 -17 49 -81.5t-82 -182.5q-58 -95 -68.5 -120.5t-9.5 -41.5q1 -15 8.5 -25t20.5 -14q22 7 56 33.5t65 59.5l6 -7q-62 -62 -95 -88.5t-63 -44.5q-6 -2 -14 -3.5t-17 -1.5q-10 0 -18.5 1.5t-12.5 4.5q-18 12 -30 34.5t-13 43.5
q-1 17 12 46.5t79 137.5q53 87 66 129.5t-13 62.5q-50 -17 -139.5 -105t-165.5 -198z" />
    <glyph glyph-name="o" unicode="o" horiz-adv-x="530" 
d="M213 13q-20 -10 -38 -15t-34 -5q-41 0 -73 24.5t-41 63.5q-11 48 2 100t49 112q30 48 78.5 95.5t97.5 76.5q47 28 80.5 40t63.5 12q39 0 68.5 -24t39.5 -64q10 -44 -3.5 -102t-49.5 -117q-25 -42 -71.5 -84t-102.5 -75q-1 -1 -25.5 -16t-40.5 -22zM128 132
q6 -40 28.5 -61.5t58.5 -21.5q17 0 36 4t40 13q13 9 28.5 31t33.5 57q27 55 43 118.5t11 105.5q-5 49 -29 73t-68 24q-7 0 -14.5 -1t-23.5 -6q-17 -12 -37.5 -37.5t-41.5 -60.5q-37 -62 -54.5 -125.5t-10.5 -112.5z" />
    <glyph glyph-name="p" unicode="p" horiz-adv-x="611" 
d="M-232 -274q-39 -3 -52 -3.5t-17 -0.5q-7 0 -6.5 3.5t6.5 4.5q55 6 80.5 16t48.5 32q23 21 54.5 70t110.5 187q118 203 152 274t33 100q-1 15 -9.5 25.5t-23.5 14.5q-22 -6 -53 -30t-59 -57l-7 7q39 42 82 78t81 57q8 4 15 6t15 2q23 0 41.5 -31.5t20.5 -65.5
q1 -19 -9 -47.5t-34 -69.5q-13 -24 -37.5 -64t-27.5 -45q42 52 87.5 102t87.5 92q59 60 107.5 95t72.5 36q21 -1 39 -19.5t28 -47.5q13 -38 1.5 -91t-42.5 -105q-30 -53 -85.5 -105.5t-124.5 -94.5q-63 -34 -94.5 -45t-58.5 -11t-49.5 15t-41.5 46q-65 -113 -93.5 -162.5
t-39.5 -70.5q-18 -32 -27.5 -49t-10.5 -19q8 -8 45 -14t76 -7q8 0 7.5 -4t-11.5 -4q-5 0 -18.5 0.5t-50.5 1.5q-47 2 -66 2.5t-28 0.5t-32.5 -1t-82.5 -4zM457 453q-11 -1 -37 -21.5t-64 -55.5q-58 -54 -115 -119t-91 -118q30 -51 59.5 -74t65.5 -23q18 0 33 4t33 13
q39 31 63.5 64.5t45.5 80.5q27 57 38.5 116t3.5 90q-5 20 -12.5 29.5t-22.5 13.5z" />
    <glyph glyph-name="q" unicode="q" horiz-adv-x="597" 
d="M134 -277q-9 -1 -11 -1h-3q-13 0 -18 4t-5 12q0 13 5 25.5t17 31.5q91 149 162 264t112 179q13 22 24 38t23 33q-63 -66 -137.5 -136.5t-125.5 -111.5q-19 -17 -37 -31.5t-37 -26.5q-4 -3 -10.5 -4.5t-13.5 -1.5q-9 0 -14.5 1t-8.5 3q-37 25 -37.5 94.5t34.5 149.5
q29 68 93.5 128.5t145.5 98.5q38 19 71 29t57 10q42 0 70.5 -17t59.5 -59q12 8 39 29t56 43q5 4 8 3.5t2 -6.5q-15 -21 -36.5 -55t-115.5 -190q-17 -29 -65 -108.5t-76 -125.5q-42 -71 -76 -129.5t-62 -107.5q-1 -13 5 -21t20 -13q14 -4 42.5 -6.5t70.5 -2.5q9 0 9 -4.5
t-10 -4.5q-48 0 -103.5 -3t-123.5 -10zM150 274q-23 -69 -25.5 -125t16.5 -78q5 -4 20 3.5t36 23.5q58 42 141.5 122.5t141.5 149.5q-37 57 -68.5 83t-64.5 26q-14 0 -26 -3t-23 -9q-44 -23 -85 -76t-63 -117z" />
    <glyph glyph-name="r" unicode="r" horiz-adv-x="492" 
d="M80 10q-10 -4 -21.5 -6t-23.5 -3q-28 0 -40 12t-4 35q78 108 132.5 211t52.5 150q-1 16 -8.5 26.5t-21.5 14.5q-23 -6 -54 -30t-59 -56l-7 7q37 39 79.5 74.5t77.5 55.5q8 6 17 8.5t19 2.5q23 -1 41.5 -32t20.5 -65q1 -19 -8 -46t-29 -66q75 99 112.5 138t69.5 55
q9 5 18 8t20 5q35 4 68 0.5t34 -13.5q-1 -19 -31.5 -54t-47.5 -37q-7 0 -14.5 1t-23.5 5q-25 5 -40.5 6.5t-31.5 1.5q-6 -2 -13 -5t-13 -7q-28 -16 -59.5 -55.5t-105.5 -163.5q-12 -21 -27.5 -46.5t-78.5 -131.5z" />
    <glyph glyph-name="s" unicode="s" horiz-adv-x="423" 
d="M231 26q-30 -19 -63 -28.5t-70 -9.5q-39 -1 -70 13.5t-45 40.5q-18 33 0.5 74t59.5 55l4 -3q6 -34 22 -66t39 -53q24 -23 51.5 -28.5t54.5 6.5q30 14 25 54t-63 167q-42 93 -32 156t71 92q31 15 58.5 22t55.5 7q47 0 77 -12t41 -35q12 -25 -3 -54t-45 -43h-4
q-28 62 -60 92t-69 30q-7 0 -13 -1t-12 -3q-29 -20 -23.5 -61t53.5 -141q43 -91 32.5 -161.5t-72.5 -109.5z" />
    <glyph glyph-name="t" unicode="t" horiz-adv-x="388" 
d="M312 163l6 -7q-52 -49 -108.5 -92t-94.5 -62q-3 -2 -9 -3t-14 -1q-14 0 -22.5 1.5t-12.5 3.5q-16 11 -26.5 35t-11.5 48q-2 27 11 64.5t43 88.5q28 48 74 122.5t50 80.5h-83q-6 1 -6.5 4t6.5 6q42 19 61 28.5t36 18.5q43 24 89.5 53.5t87.5 58.5q6 4 10 2t0 -7
q-19 -31 -34 -55.5t-27 -44.5q32 0 63 1t69 2q7 1 9.5 1h3.5q2 0 3 -1.5t0 -3.5q-1 -4 -6 -12t-16 -20q-13 -17 -24 -25.5t-19 -9.5q-42 2 -69 2.5t-55 0.5q-55 -90 -82 -135.5t-49 -84.5q-26 -46 -35 -73.5t-8 -54.5q1 -18 9.5 -30.5t22.5 -15.5q21 7 71 43.5t87 72.5z" />
    <glyph glyph-name="u" unicode="u" horiz-adv-x="625" 
d="M434 309q-99 -133 -193 -220.5t-148 -93.5q-27 4 -51.5 23t-29.5 46q-2 28 48.5 110.5t53.5 86.5q44 74 58.5 106t13.5 51q-1 13 -9 22t-22 13q-23 -7 -54.5 -31.5t-60.5 -56.5l-7 7q37 39 80 74.5t77 55.5q10 6 18.5 8.5t18.5 2.5q24 -1 43.5 -32.5t20.5 -62.5
q0 -16 -14.5 -49t-67.5 -124q-5 -8 -41.5 -68t-43.5 -84q-1 -15 9 -25.5t28 -15.5q38 6 122.5 93.5t172.5 211.5q12 17 24.5 37t33.5 59q12 20 17 28.5t9 14.5q13 5 27 8.5t27 4.5q27 0 38.5 -12.5t2.5 -34.5q-21 -29 -52 -76t-60 -96q-50 -83 -71 -129t-22 -71
q0 -12 11 -23t27 -16q22 8 56 34.5t64 58.5l6 -7q-49 -50 -86 -81t-71 -51q-5 -2 -14 -4t-17 -2q-12 0 -23 2t-15 4q-17 12 -28.5 34t-13.5 44q-1 21 16.5 62t91.5 164z" />
    <glyph glyph-name="v" unicode="v" horiz-adv-x="579" 
d="M203 20q-16 -13 -26.5 -19.5t-19.5 -7.5q-18 0 -36.5 14t-17.5 31q29 135 41.5 211.5t12.5 109.5q-1 40 -13 64.5t-30 25.5q-15 -4 -45 -23t-55 -41l-5 4q26 25 75 61t83 54q9 5 16 7t12 2q28 -1 45 -32.5t18 -85.5q1 -34 -15 -128t-38 -191q0 -9 8 -16t19 -5
q41 34 91.5 80t87.5 83q45 45 68 86.5t23 80.5q0 23 -12 41t-30 23q-18 -4 -44 -20t-58 -41l-4 4q30 28 80.5 63.5t83.5 52.5q6 3 12 5t11 3q21 -1 38.5 -26.5t15.5 -53.5q-1 -35 -44.5 -90t-132.5 -134q-73 -68 -123 -113t-92 -79z" />
    <glyph glyph-name="w" unicode="w" horiz-adv-x="860" 
d="M208 15q-14 -11 -24.5 -14t-31.5 -3q-24 0 -32 7.5t-5 26.5q22 144 32 218t9 96q0 44 -13 72.5t-32 32.5q-15 -4 -44.5 -23t-54.5 -41l-5 4q26 25 75 61t82 54q9 5 15.5 7t12.5 2q29 -1 45.5 -36t16.5 -96q0 -40 -12 -128t-35 -216q30 19 67 52.5t80 78.5
q51 54 72.5 84.5t29.5 57.5q4 14 5.5 29t0.5 34q0 32 -12.5 53t-30.5 25q-15 -4 -40.5 -21t-51.5 -39l-6 4q27 26 71.5 59.5t76.5 50.5q8 5 15 7t13 2q28 -1 45.5 -36.5t18.5 -95.5q0 -28 -14 -132t-32 -212q27 16 56 39.5t55 49.5q76 74 115.5 142t36.5 117
q-4 24 -17.5 41.5t-31.5 22.5q-18 -5 -37 -17t-59 -45l-5 5q30 29 78.5 64t76.5 49q9 4 16 6t13 2q22 0 39 -19.5t24 -51.5q4 -34 -18 -75.5t-77 -101.5q-21 -22 -49 -50t-98 -96q-49 -48 -76.5 -72.5t-42.5 -34.5q-15 -11 -24.5 -14t-28.5 -3q-26 0 -34 7.5t-4 26.5
q2 14 4.5 32t8.5 58q10 66 14.5 97t6.5 52q-13 -17 -31 -37t-65 -70q-51 -55 -92.5 -95.5t-60.5 -53.5z" />
    <glyph glyph-name="x" unicode="x" horiz-adv-x="528" 
d="M-80 -77q-11 -12 -18.5 -17t-16.5 -5q-12 0 -21.5 9t-9.5 21q0 9 4.5 17.5t13.5 15.5q80 54 134.5 94t98.5 76q6 4 34 27.5t69 58.5q-17 141 -21 163t-7 32q-4 14 -13 27t-17 15q-16 -5 -48.5 -28t-66.5 -54l-5 5q30 30 77 67.5t93 67.5q5 3 9.5 4t8.5 1q3 0 6.5 -1
t9.5 -3q15 -7 26.5 -27t17.5 -49q4 -17 8.5 -50.5t12.5 -110.5q3 3 7.5 7t12.5 12q7 8 11 11.5t7 6.5q42 42 80 82t109 117q5 5 11 8t14 3q11 0 19 -7.5t8 -17.5q0 -6 -4 -12.5t-11 -12.5q-86 -61 -132 -96.5t-86 -70.5q-2 -1 -9 -7t-36 -32q10 -87 15.5 -120t10.5 -51
q4 -14 16 -26.5t26 -16.5q22 8 53.5 31.5t64.5 55.5l7 -6q-55 -52 -94 -83t-78 -56q-8 -2 -13.5 -3t-10.5 -1q-9 0 -17 1.5t-13 3.5q-13 9 -22.5 28t-16.5 52q-4 21 -9 56t-10 77q-22 -20 -49.5 -45.5t-45.5 -43.5q-37 -35 -73 -72t-121 -128z" />
    <glyph glyph-name="y" unicode="y" horiz-adv-x="575" 
d="M68 -122q-91 -81 -183 -119t-192 -38q-22 0 -38.5 2.5t-24.5 7.5q-3 2 -4.5 4.5t-1.5 6.5q0 17 23.5 44t41.5 34q11 0 25 -1.5t44 -6.5q35 -6 54 -8t36 -2q67 0 115 18t99 63q23 21 33 30.5t20 20.5q26 69 41.5 186.5t15.5 226.5q0 33 -5.5 57t-15.5 36q-5 6 -11 8.5
t-15 1.5q-14 -5 -44 -25t-52 -40l-6 5q27 24 76 59.5t82 54.5q7 4 14 6t13 2q9 0 17 -3.5t14 -9.5q18 -17 26.5 -48.5t8.5 -79.5q0 -75 -13 -170.5t-33 -157.5q46 47 70 72t26 27q86 90 128 148.5t44 92.5q-1 22 -12.5 38t-31.5 23q-17 -5 -38 -18t-50 -38l-5 5
q26 25 68.5 57t69.5 47q10 6 20 10.5t21 7.5q19 2 36 -22t13 -51q-11 -34 -51 -85t-205 -221q-59 -60 -96.5 -98t-53.5 -54q-3 -3 -44 -42t-69 -64z" />
    <glyph glyph-name="z" unicode="z" horiz-adv-x="524" 
d="M314 4q-3 -2 -10.5 -3.5t-15.5 -1.5q-9 0 -18.5 1.5t-13.5 3.5q-6 3 -35.5 20.5t-48.5 27.5q-29 15 -51.5 22t-39.5 7q-36 0 -64 -16.5t-63 -56.5q-15 -13 -24.5 -3.5t3.5 27.5q40 23 251 173.5t303 221.5q0 2 -0.5 3t-2.5 1q-45 -26 -81 -39.5t-61 -13.5q-18 0 -39 7.5
t-59 31.5q-30 18 -43 23t-23 4q-10 -3 -24 -13.5t-79 -73.5l-8 5q48 51 94 94t72 60q4 3 12 4t20 1q10 0 17 -1t11 -2q5 -3 31 -21t46 -29q23 -12 44.5 -18t42.5 -6q41 0 65.5 12.5t52.5 45.5q4 5 10.5 3.5t10.5 -7.5q3 -6 2 -11.5t-6 -7.5q-23 -12 -89 -57.5t-189 -133.5
q-46 -33 -139 -100t-133 -96q-1 -2 -0.5 -3t2.5 -1q54 32 91 48.5t56 16.5q15 0 36.5 -8.5t67.5 -33.5q35 -20 49.5 -26t22.5 -6q12 3 27 12.5t86 71.5l6 -6q-24 -25 -86 -79.5t-86 -73.5z" />
    <glyph glyph-name="braceleft" unicode="{" horiz-adv-x="422" 
d="M131 260q36 -16 52.5 -64t-4.5 -91q-9 -20 -24 -44t-51 -73q-41 -56 -59 -85t-30 -55q-32 -71 -8.5 -101t105.5 -28q12 0 10.5 -9.5t-14.5 -9.5q-92 0 -131 59.5t-3 138.5q14 30 35.5 62t68.5 88q36 43 50.5 64t22.5 38q20 42 5.5 73t-56.5 31q-3 0 -4.5 1.5t-1.5 6.5
q1 4 3.5 5.5t6.5 1.5q45 0 79.5 22t52.5 63q10 21 17.5 48t16.5 84q11 66 20.5 100.5t23.5 64.5q32 70 111.5 109t184.5 36q10 -1 9 -10t-13 -8q-91 6 -142 -15t-75 -74q-12 -26 -22 -59t-24 -100q-14 -63 -22.5 -91.5t-18.5 -50.5q-21 -43 -62 -74t-109 -54z" />
    <glyph glyph-name="bar" unicode="|" horiz-adv-x="262" 
d="M147 781q-6 -101 -10 -251.5t-4 -282.5q0 -108 2.5 -242t6.5 -273q-10 -8 -16.5 -10t-16.5 0q6 135 9 273t3 251q0 92 -2.5 229t-7.5 300q9 6 17 7.5t19 -1.5z" />
    <glyph glyph-name="braceright" unicode="}" horiz-adv-x="422" 
d="M263 236q-36 16 -52.5 64t4.5 91q9 20 24 44t51 73q41 56 59 85t30 55q32 71 8.5 101t-105.5 28q-12 0 -10.5 9.5t14.5 9.5q92 0 131 -59.5t3 -138.5q-14 -30 -35.5 -62t-68.5 -88q-36 -43 -50.5 -64t-22.5 -38q-20 -42 -5.5 -73t56.5 -31q3 0 4.5 -1.5t1.5 -6.5
q-1 -4 -3.5 -5.5t-6.5 -1.5q-45 0 -79.5 -22t-52.5 -63q-10 -21 -17.5 -48t-16.5 -84q-11 -66 -20.5 -100.5t-23.5 -64.5q-32 -70 -111.5 -109t-184.5 -36q-10 1 -9 10t13 8q91 -6 142 15t75 74q12 26 22 59t24 100q14 63 22.5 91.5t18.5 50.5q21 43 62 74t109 54z" />
    <glyph glyph-name="asciitilde" unicode="~" horiz-adv-x="452" 
d="M238 330q-35 19 -51.5 24.5t-30.5 5.5q-25 0 -44 -16t-36 -50q-4 -6 -8.5 -3.5t-0.5 8.5q33 59 74.5 91.5t83.5 32.5q19 0 40 -7t61 -29q37 -21 55 -27t34 -6q24 0 40.5 17.5t30.5 57.5q1 5 4.5 3.5t2.5 -7.5q-21 -64 -57.5 -99.5t-78.5 -35.5q-24 0 -49 8t-70 32z" />
    <glyph glyph-name="exclamdown" unicode="&#xa1;" horiz-adv-x="314" 
d="M199 502q6 4 20.5 6.5t30.5 2.5q22 0 34 -3.5t17 -10.5q6 -18 -8 -54.5t-33 -45.5q-6 -3 -22 -5.5t-30 -2.5q-18 0 -32 4.5t-17 11.5q-4 23 9.5 54.5t30.5 42.5zM-61 -104q110 179 152 257t84 167l9 -2q-45 -96 -82 -181.5t-103 -260.5q-30 -85 -51 -137t-41 -94
q-3 -5 -11.5 -7t-24.5 -2q-20 0 -40 3.5t-30 9.5q-4 2 -6 4t-1 4q21 38 50 86.5t95 152.5z" />
    <glyph glyph-name="cent" unicode="&#xa2;" horiz-adv-x="526" 
d="M502 190q-50 -94 -122.5 -147t-152.5 -53q-16 0 -32 2t-31 6q-25 -49 -49.5 -101t-50.5 -108q-14 -8 -21.5 -8.5t-14.5 4.5q32 56 62 111t58 108q-83 32 -104 120.5t30 189.5q45 88 135.5 141t195.5 55q8 16 28.5 58.5t54.5 112.5q10 6 16.5 6.5t17.5 -3.5
q-11 -19 -23.5 -41t-36.5 -66q-15 -28 -22.5 -41.5t-14.5 -25.5q69 -4 116 -38t37 -71q-5 -18 -25 -31t-41 -13q-20 0 -32 12t-22 52q-9 36 -18.5 50.5t-23.5 20.5q-38 -71 -68 -129t-58 -113q-8 -15 -16.5 -32l-25.5 -51l-24 -48t-15 -29q20 -12 43 -18t49 -6
q64 0 110 30.5t85 97.5q2 2 5 0.5t1 -4.5zM383 497q-70 0 -127 -34.5t-90 -99.5q-40 -78 -31 -152.5t63 -113.5q18 34 37.5 71.5t40.5 80.5l50.5 101t72.5 146q-4 1 -7 1h-9z" />
    <glyph glyph-name="sterling" unicode="&#xa3;" horiz-adv-x="675" 
d="M520 5q-20 -26 -45 -41t-50 -15q-31 0 -72.5 11.5t-96.5 34.5q-33 14 -88 40.5t-73 34.5q-15 -15 -30.5 -28.5t-30.5 -24.5q-27 -20 -50.5 -30t-41.5 -10q-22 0 -33.5 14.5t-7.5 38.5q4 27 32 42.5t71 15.5q15 0 36.5 -2t49.5 -6q55 153 70 190.5l29 72.5
q-15 -1 -33.5 -2t-53.5 -3l-24 -1.5t-14 -0.5q-4 5 -3 12t6 12q18 -1 44 -2t84 -2q7 17 14.5 35t17.5 39q57 128 155 199t205 71q64 0 98 -23.5t26 -63.5q-3 -22 -17.5 -35.5t-34.5 -13.5q-25 0 -38 14.5t-15 43.5l-0.5 18t-3.5 27q-3 11 -11 16t-22 5q-59 0 -117.5 -66.5
t-139.5 -231.5q-3 -6 -7 -13t-11 -21q47 0 95 1.5t126 5.5q5 -5 4 -13.5t-7 -12.5q-61 4 -114.5 6t-108.5 2q-44 -82 -91 -149t-95 -117q184 -27 237.5 -32t94.5 -5q28 0 58.5 13t51.5 33q19 17 38.5 42t40.5 61l24 42q3 5 8.5 3.5t2.5 -6.5l-26 -44q-35 -61 -64 -107.5
t-49 -73.5z" />
    <glyph glyph-name="yen" unicode="&#xa5;" horiz-adv-x="640" 
d="M272 9h17q6 0 4.5 -4.5t-7.5 -4.5q-8 0 -24.5 0.5t-52.5 1.5q-25 1 -33.5 1h-11.5h-11.5t-33.5 -1q-40 -1 -57 -1.5t-26 -0.5q-6 0 -4.5 4.5t7.5 4.5h14q37 0 63 30.5t83 135.5q-36 -1 -72 -2.5t-87 -5.5q-3 4 -1 12t8 13q34 -3 71 -5t86 -3q18 35 25.5 49t14.5 27l32 62
q-51 -1 -89 -3t-76 -5q-3 4 -1 12t8 13q38 -3 76.5 -4.5t85.5 -2.5l-12 177q-8 119 -20 147t-46 28h-8q-8 0 -7 4.5t9 4.5q9 0 25.5 -0.5t53.5 -1.5q24 -1 32.5 -1h11.5h13t40 1q46 1 65 1.5t28 0.5q6 0 5.5 -4.5t-6.5 -4.5h-33q-42 0 -57 -38.5t-10 -133.5l11 -176l180 162
q79 71 106 129t-30 58q-4 0 -9 -0.5t-15 -2.5q-5 -1 -6.5 -1h-2.5q-8 0 -8 6t11 6h16.5t46.5 -1q36 -1 49 -1h18h11t30 1q35 1 50 1h23q6 0 5 -4.5t-6 -4.5h-8q-33 0 -82.5 -33t-188.5 -156l-181 -163q46 1 86.5 3t75.5 6q3 -5 1 -12.5t-8 -13.5q-51 3 -89.5 4.5t-74.5 2.5
l-32 -63q-4 -8 -8.5 -16.5t-12.5 -25.5l-10.5 -21t-6.5 -12q51 1 93 3.5t76 6.5q4 -5 2 -13t-8 -14q-47 3 -88 5t-80 3q-16 -31 -26.5 -53t-17.5 -39q-18 -43 -15.5 -58.5t31.5 -15.5z" />
    <glyph glyph-name="brokenbar" unicode="&#xa6;" horiz-adv-x="262" 
d="M142 301q-8 -7 -14 -8.5t-14 1.5q2 55 4.5 135t2.5 110q0 24 -4 123.5t-6 112.5q6 8 15 9.5t17 -3.5q-3 -40 -6.5 -125.5t-3.5 -116.5q0 -11 2.5 -70.5t6.5 -167.5zM142 -276q-8 -7 -15.5 -9t-15.5 1q3 51 6.5 133t3.5 112q0 28 -3 126.5t-5 110.5q5 6 14 8t16 -2
q-3 -40 -6.5 -125.5t-3.5 -116.5q0 -33 3 -115t6 -123z" />
    <glyph glyph-name="section" unicode="&#xa7;" horiz-adv-x="573" 
d="M-9 -124q9 -33 20 -43t29 -10q30 0 59 19t45 47q20 36 20.5 85.5t-27.5 159.5q-32 126 -30 188t30 110q23 41 68 77t112 67q36 50 97.5 86t116.5 36q49 0 79 -19t30 -50q0 -23 -16.5 -38.5t-39.5 -15.5q-20 0 -31.5 10t-20.5 43q-10 32 -21.5 42t-31.5 10
q-33 0 -61 -33.5t-33 -84.5q-6 -31 -1 -71t32 -125q37 -116 37.5 -172.5t-24.5 -101.5q-24 -43 -74.5 -83t-123.5 -72q-37 -54 -105.5 -92t-131.5 -38q-49 0 -79 19t-30 50q0 23 16.5 38.5t39.5 15.5q19 0 30 -10.5t20 -43.5zM230 211q32 -114 31.5 -167t-22.5 -94
q-1 -2 -2 -3.5t-2 -2.5q39 20 60.5 39.5t39.5 51.5q25 45 25 103t-37 179q-32 109 -33.5 158.5t18.5 85.5q1 2 2 3.5t2 2.5q-31 -16 -53 -36t-37 -47q-23 -43 -23.5 -99t31.5 -174z" />
    <glyph glyph-name="dieresis" unicode="&#xa8;" horiz-adv-x="809" 
d="M488 591q-16 0 -23 1.5t-13 6.5q-5 17 13.5 55.5t34.5 46.5q6 3 19 5.5t26 2.5q15 0 29 -3.5t18 -9.5q1 -22 -26 -57t-46 -43q-6 -3 -14 -4t-18 -1zM289 591q-16 0 -23 1.5t-12 6.5q-5 16 12.5 55t34.5 47q6 4 19 6t27 2q15 0 29 -4t17 -9q1 -22 -26 -56.5t-46 -43.5
q-5 -2 -13 -3.5t-19 -1.5z" />
    <glyph glyph-name="copyright" unicode="&#xa9;" horiz-adv-x="816" 
d="M676 98q-55 -53 -123.5 -83.5t-133.5 -30.5q-145 0 -245 102t-100 252q0 69 31 135t87 120q56 52 124.5 82t134.5 30q147 0 245.5 -100t98.5 -253q0 -68 -31 -134t-88 -120zM105 349q0 -140 97 -238.5t232 -98.5q146 0 238 91t92 237t-95.5 244t-233.5 98
q-144 0 -237 -93t-93 -240zM621 258q2 2 5 0.5t2 -4.5q-35 -56 -87.5 -88.5t-111.5 -31.5q-89 0 -144.5 55t-55.5 144q0 90 67.5 154.5t158.5 64.5q39 0 72.5 -5t63.5 -16q2 -1 3.5 -3t2.5 -5q0 -6 0.5 -15t2.5 -33q2 -40 3 -62.5t2 -41.5q0 -3 -3.5 -3.5t-4.5 3.5
q-9 81 -46 126.5t-97 45.5q-76 0 -118 -44.5t-42 -126.5q0 -84 50.5 -137t132.5 -53q46 0 81.5 18.5t62.5 57.5z" />
    <glyph glyph-name="ordfeminine" unicode="&#xaa;" horiz-adv-x="396" 
d="M282 402q-11 9 -17.5 22t-7.5 27q-1 11 6 27t44 71q-35 -36 -82 -77.5t-82 -69.5q-7 -4 -21.5 -4t-18.5 3q-19 16 -18.5 56t18.5 83q19 39 55.5 73t86.5 59q22 12 43.5 18t38.5 6q29 0 47.5 -8.5t39.5 -28.5q11 6 24 14.5t24 17.5q4 3 6 2.5t3 -3.5q-49 -61 -93 -135.5
t-42 -100.5q0 -8 5 -15t13 -9q11 4 30 19.5t36 34.5l5 -5q-35 -35 -54 -50.5t-37 -26.5q-5 -3 -25.5 -2.5t-26.5 2.5zM173 558q-10 -38 -10.5 -66t8.5 -44q3 0 10.5 3.5t16.5 9.5q33 25 80 70.5t75 81.5q-16 32 -32.5 47t-37.5 15q-8 0 -15 -1.5t-13 -5.5q-26 -14 -48.5 -44
t-33.5 -66z" />
    <glyph glyph-name="guillemotleft" unicode="&#xab;" horiz-adv-x="530" 
d="M76 139q-15 44 -23.5 66.5t-17.5 41.5q-2 4 -1 8t5 7q86 77 128.5 115.5t76.5 69.5q20 18 35.5 27.5t24.5 9.5t12.5 -10t0.5 -25q-4 -19 -17.5 -34t-37.5 -29q-19 -11 -43.5 -26l-73.5 -45q-41 -24 -60.5 -36t-34.5 -21q-4 -2 -5 -4t1 -4q19 -27 48.5 -63.5t73.5 -87.5
q10 -11 12 -19t-1 -22q-4 -15 -15.5 -26t-22.5 -11q-9 0 -16.5 7t-14.5 22q-7 16 -14 34t-20 55zM278 96q-38 73 -54.5 103t-21.5 38q-3 4 -1.5 8t5.5 7q8 5 29.5 19.5t84.5 56.5q103 69 141.5 95t47.5 32q23 15 36.5 22t22.5 7t12.5 -10.5t-0.5 -24.5q-5 -19 -18.5 -34
t-36.5 -27q-17 -9 -150.5 -69.5t-157.5 -70.5q-3 -2 -4 -4t0 -4q4 -3 22 -19.5t69 -63.5q34 -33 45.5 -43.5t14.5 -12.5q9 -7 11.5 -16t-0.5 -25q-4 -16 -16 -27.5t-25 -11.5q-8 0 -15 6.5t-16 22.5q-2 3 -6.5 12t-18.5 34z" />
    <glyph glyph-name="logicalnot" unicode="&#xac;" 
d="M479 410h-167q-27 0 -53 -1t-124 -8q-7 4 -7 14.5t7 15.5q64 -6 101 -8t75 -2q43 0 86 2t88 6q2 0 5 -3t3 -5q-1 -44 1.5 -88.5t8.5 -110.5q-5 -7 -16 -7t-15 7q4 55 5.5 100.5t1.5 87.5z" />
    <glyph glyph-name="uni00AD" unicode="&#xad;" horiz-adv-x="375" 
d="M65 229zM75 271q25 -2 52 -3t63 -1q37 0 65.5 1t51.5 3q6 -4 3 -21t-10 -21q-25 3 -51 4t-64 1q-28 0 -55.5 -1t-61.5 -4q-5 4 -2.5 20.5t9.5 21.5z" />
    <glyph glyph-name="registered" unicode="&#xae;" horiz-adv-x="804" 
d="M535 248q1 -89 10 -108t36 -19q31 0 67.5 25.5t62.5 67.5q21 34 32 74.5t11 85.5q0 137 -88.5 222t-231.5 85q-150 0 -248 -100.5t-98 -255.5q0 -144 89.5 -230t235.5 -86q57 0 101.5 11.5t80.5 35.5q4 2 5 0t-1 -5q-44 -31 -101.5 -49t-110.5 -18q-149 0 -239 88.5
t-90 240.5q0 73 31.5 144t89.5 128t129.5 88.5t143.5 31.5q145 0 237.5 -83.5t92.5 -212.5q0 -118 -67.5 -208.5t-157.5 -90.5q-55 1 -79 33t-20 100q2 82 -7.5 99.5t-46.5 18.5h-23l-32 -60q-51 -93 -58.5 -121t18.5 -28h15q4 0 3.5 -4t-4.5 -4h-17t-39 1h-22h-8h-14.5
t-41.5 -1h-22.5h-6.5q-4 0 -4 4t4 4q12 0 19 1.5t14 5.5q8 3 15 12t19 29q6 10 15 27t53 99l42 81q14 26 24 45.5t17 33.5q20 40 21 55t-21 15h-13q-4 0 -2.5 4t4.5 4h15.5t35.5 -1h22.5h7.5h6h17q26 1 39 1h21q73 0 111 -36.5t13 -90.5q-15 -35 -62.5 -53t-129.5 -21
q40 -6 60 -34.5t20 -80.5zM443 480l-59 -112h20h20q51 0 89 23t59 68q22 45 9 71.5t-57 26.5h-15q-18 0 -27 -10t-39 -67z" />
    <glyph glyph-name="macron" unicode="&#xaf;" horiz-adv-x="809" 
d="M473 635q18 -1 30 -1h24h63.5t39.5 1t24.5 0.5t6.5 -2.5t-13 -16t-39 -40h-8h-17q-23 1 -36.5 1h-25.5q-26 0 -57.5 -1t-32.5 -1q-19 -1 -26 -1t-7 3q0 2 2.5 5t13.5 13q14 14 21.5 22.5t14.5 16.5h7.5h14.5z" />
    <glyph glyph-name="degree" unicode="&#xb0;" horiz-adv-x="376" 
d="M278 447q-54 0 -92 38t-38 92t38 92t92 38t92 -38t38 -92t-38 -92t-92 -38zM278 693q-47 0 -81 -34.5t-34 -81.5t34 -81.5t81 -34.5t81 34.5t34 81.5t-34 81.5t-81 34.5z" />
    <glyph glyph-name="plusminus" unicode="&#xb1;" 
d="M477 471q7 -5 7 -15t-7 -15q-3 0 -56.5 4.5t-100.5 4.5q0 -25 1 -47.5t9 -106.5q-5 -7 -15.5 -7t-15.5 7q4 55 5.5 86.5t1.5 67.5q-49 0 -102.5 -4.5t-54.5 -4.5q-7 5 -7 15t7 15q59 -6 90 -7.5t67 -2.5q0 37 -1.5 68.5t-5.5 84.5q5 7 16 7t15 -7q-5 -53 -7.5 -91.5
t-2.5 -61.5q37 1 68.5 2.5t88.5 7.5zM313 214q23 0 64 2t99 7q6 -5 6.5 -15.5t-6.5 -14.5q-75 7 -102 8.5t-60 1.5t-61 -1.5t-102 -8.5q-7 4 -7 14.5t7 15.5q59 -5 99 -7t63 -2z" />
    <glyph glyph-name="two.sup" unicode="&#xb2;" horiz-adv-x="388" 
d="M134 496zM417 498q-7 -1 -50.5 -0.5t-50.5 0.5q-31 0 -70.5 -0.5t-94.5 -1.5h-10h-3q-3 0 -4 6.5t3 7.5q73 37 106.5 55.5t58.5 33.5q67 40 107.5 75t52.5 64q16 39 2.5 64.5t-52.5 25.5q-20 0 -33 -6t-21 -18q-5 -8 -9 -18t-18 -62q-6 -20 -17.5 -29.5t-30.5 -9.5
q-21 0 -27.5 14.5t6.5 35.5q12 21 35 41.5t54 38.5q33 19 63 28.5t57 9.5q51 0 74.5 -31t3.5 -75q-9 -19 -39 -42t-94 -58q-20 -11 -70.5 -37.5t-78.5 -41.5h90q66 0 94 10t57 51q3 5 6.5 3t0.5 -6q-6 -10 -35.5 -53.5t-43.5 -63.5q-3 -4 -7 -6.5t-12 -4.5z" />
    <glyph glyph-name="three.sup" unicode="&#xb3;" horiz-adv-x="362" 
d="M160 485zM363 516q-39 -17 -67.5 -24t-52.5 -7q-46 0 -68 17t-12 47q6 19 30 32.5t76 23.5q4 1 5 -2.5t-3 -4.5q-13 -4 -21 -11t-11 -17q-7 -24 13 -39t55 -15q16 0 28 1.5t20 4.5q12 7 19.5 15.5t16.5 28.5q20 43 8.5 80t-44.5 38q-10 0 -19.5 -4.5t-24.5 -18.5
q-12 -11 -18.5 -14.5t-13.5 -3.5q-8 0 -13 5t-5 13q0 9 7.5 15.5t21.5 7.5q67 7 104.5 22.5t50.5 39.5q17 33 3 58t-50 25q-16 0 -27 -4.5t-17 -14.5q-6 -8 -11 -19.5t-11 -31.5q-5 -20 -15 -29t-25 -9q-20 0 -27 12t3 29q9 15 29 30t56 32q29 13 56.5 20.5t49.5 7.5
q45 0 67.5 -30.5t1.5 -67.5q-8 -13 -26 -23t-51 -19q-17 -5 -48 -12t-39 -9q11 2 22.5 3t22.5 1q53 0 73.5 -30.5t-4.5 -72.5q-10 -17 -34.5 -34t-80.5 -42z" />
    <glyph glyph-name="acute" unicode="&#xb4;" horiz-adv-x="809" 
d="M460 698q8 7 17 10.5t19 3.5q11 0 20 -11.5t6 -20.5t-7.5 -16.5t-10.5 -11.5q-4 -3 -13.5 -9t-35.5 -20q-55 -32 -84 -50.5t-51 -35.5q-1 -1 -2.5 -1.5t-3.5 -0.5t-3.5 1.5t-1.5 3.5q0 1 2 2.5t3 2.5q23 18 49.5 45.5t69.5 77.5q14 16 19 22t8 8z" />
    <glyph glyph-name="paragraph" unicode="&#xb6;" horiz-adv-x="644" 
d="M171 -91l220 444h-42q-118 0 -163.5 63.5t4.5 153.5q29 52 87.5 77t151.5 25h29h100q74 -1 99 -1h29h11t30 1q33 1 48 1h23q6 0 6 -4.5t-6 -4.5h-13q-36 0 -52.5 -11.5t-37.5 -42.5q-11 -16 -25 -39.5t-33 -57.5q-11 -19 -24 -43.5t-30 -55.5l-94 -175
q-112 -207 -198.5 -299.5t-168.5 -92.5q-71 0 -121.5 28t-50.5 65q0 19 22.5 37.5t37.5 13.5q10 -3 17.5 -11.5t13.5 -23.5q3 -7 9 -22.5t9 -22.5q11 -26 26 -39.5t33 -13.5q15 0 27 12t26 39zM638 661h-81l-395 -798q39 11 77 42t82 87q34 44 73 107t82 142l93 173
q12 23 21 39t16 29q11 22 19.5 38.5t15.5 29.5q12 24 20 40.5t12 28.5q9 24 4.5 33t-39.5 9z" />
    <glyph glyph-name="periodcentered" unicode="&#xb7;" horiz-adv-x="277" 
d="M120 196q-22 0 -33.5 3.5t-16.5 10.5q-7 18 7 54.5t33 45.5q6 3 22 5.5t31 2.5q18 0 32 -4.5t16 -11.5q4 -23 -9.5 -54.5t-30.5 -42.5q-5 -4 -20 -6.5t-31 -2.5z" />
    <glyph glyph-name="cedilla" unicode="&#xb8;" horiz-adv-x="809" 
d="M351 -170q-12 -42 -57 -72t-97 -30q-33 0 -53 11t-20 29q0 12 19 22t37 10q10 0 17.5 -4t16.5 -18q11 -15 20 -19.5t22 -4.5q18 0 34.5 12.5t20.5 29.5q10 36 -23 58.5t-95 12.5q-5 -1 -9 -3.5t-9 -8.5q-4 -4 -6.5 -5.5t-5.5 -1.5q-8 0 -7 5.5t11 15.5q22 20 59 57.5
t72 75.5q5 5 9.5 3t-0.5 -7q-21 -20 -36 -36t-31 -34q-1 -2 -0.5 -3t6.5 -1q58 3 87.5 -23.5t17.5 -70.5z" />
    <glyph glyph-name="one.sup" unicode="&#xb9;" horiz-adv-x="240" 
d="M120 498zM270 762q-5 -1 -6 2.5t3 4.5q45 16 91 37t66 36q7 5 9.5 5.5t5.5 0.5q4 0 6.5 -3.5t0.5 -6.5q-3 -6 -20.5 -37t-68.5 -123q-35 -63 -48.5 -87t-19.5 -35q-14 -24 -6.5 -37.5t33.5 -13.5q4 0 3.5 -3.5t-4.5 -3.5h-16.5t-43.5 1h-38h-13h-11t-31 -1h-29.5h-9.5
q-4 0 -3 3.5t5 3.5q26 0 45 12t35 38q6 10 59 103t60 106q3 5 1.5 8.5t-7.5 3.5q-7 0 -19.5 -3.5t-28.5 -10.5z" />
    <glyph glyph-name="ordmasculine" unicode="&#xba;" horiz-adv-x="336" 
d="M254 422q-20 -11 -46.5 -19t-44.5 -8q-24 0 -44.5 15.5t-26.5 37.5q-3 24 5 56t26 62q17 31 45.5 57.5t65.5 46.5q21 11 50.5 20t46.5 9q21 0 38.5 -15.5t23.5 -37.5q6 -24 -1 -58t-28 -68q-16 -28 -44.5 -54t-65.5 -44zM173 473q3 -14 12 -25t23 -17q11 -5 23.5 -4.5
t26.5 6.5q7 3 14 13.5t15 29.5q14 32 21.5 72.5t5.5 70.5q-1 18 -7.5 29t-17.5 17q-8 4 -21.5 5t-24.5 -1q-12 -9 -25 -29t-23 -45q-14 -32 -19.5 -63.5t-2.5 -58.5z" />
    <glyph glyph-name="guillemotright" unicode="&#xbb;" horiz-adv-x="530" 
d="M466 366q15 -44 23.5 -66.5t17.5 -41.5q2 -4 1 -8t-5 -7q-49 -43 -96.5 -86t-97.5 -89q-27 -24 -44.5 -35.5t-27.5 -11.5q-9 0 -12.5 10.5t0.5 24.5q4 19 17.5 34t37.5 29q19 11 43.5 26l73.5 45q41 24 60.5 36t34.5 21q3 2 4 4.5t0 3.5q-11 16 -26.5 35t-48.5 59
q-20 24 -29.5 35.5t-17.5 21.5q-9 12 -11.5 20.5t0.5 20.5q3 14 14.5 25.5t23.5 11.5q9 0 16.5 -7t14.5 -22q7 -16 14 -34t20 -55zM284 371q30 -56 41 -76.5t15 -26.5q2 -4 1 -8.5t-5 -6.5q-7 -4 -23.5 -15.5t-65.5 -43.5q-115 -77 -159.5 -107t-54.5 -37q-23 -15 -36.5 -22
t-22.5 -7t-12.5 10.5t-0.5 24.5q5 21 18.5 36t36.5 25q9 4 52 23.5t157 71.5q58 26 76.5 34.5t22.5 10.5q3 1 4.5 3t0.5 5q-3 3 -18 16.5t-57 53.5q-43 40 -58 53.5t-18 16.5q-9 8 -11.5 17t0.5 23q4 16 16 27.5t24 11.5q8 0 15 -6.5t16 -22.5q3 -5 12 -21t34 -63z" />
    <glyph glyph-name="onequarter" unicode="&#xbc;" horiz-adv-x="636" 
d="M50 0zM101 354q33 -2 123.5 -4t135.5 -2t136.5 2t124.5 4q5 -3 2 -12t-9 -12q-35 3 -123.5 5t-135.5 2q-48 0 -137 -2t-124 -5q-5 3 -2 11.5t9 12.5zM286 429zM436 693q-5 -1 -6 2.5t3 4.5q45 16 91 37t66 36q7 5 9.5 5.5t5.5 0.5q4 0 6.5 -3.5t0.5 -6.5q-3 -6 -20.5 -37
t-68.5 -123q-35 -63 -48.5 -87t-19.5 -35q-14 -24 -6.5 -37.5t33.5 -13.5q4 0 3.5 -3.5t-4.5 -3.5h-16.5t-43.5 1h-38h-13h-11t-31 -1h-29.5h-9.5q-4 0 -3 3.5t5 3.5q26 0 45 12t35 38q6 10 59 103t60 106q3 5 1.5 8.5t-7.5 3.5q-7 0 -19.5 -3.5t-28.5 -10.5zM265 -92
q-27 1 -39.5 1h-20.5q-6 0 -18.5 -0.5t-39.5 -0.5q-16 -1 -21.5 -1h-7.5q-4 0 -3 3.5t5 3.5q28 0 48 13t36 42l2.5 5t5.5 9q8 14 12.5 21.5t8.5 14.5q-43 0 -87 0.5t-88 0.5q-7 0 -7.5 6t5.5 9q67 40 177 111t170 113q18 11 24.5 14.5t10.5 2.5q5 -2 5.5 -6t-3.5 -11
q-5 -9 -37 -67t-65 -119h38q32 0 48.5 9.5t39.5 42.5q3 5 7 3t0 -7q-15 -21 -34.5 -52t-26.5 -45q-2 -3 -6 -4t-10 -1h-43h-43q-8 -16 -15 -28.5t-12 -22.5q-14 -27 -8 -40.5t33 -13.5q3 0 2.5 -3.5t-4.5 -3.5h-11.5t-27.5 1zM306 183l-158 -103q-1 -1 -2 -1.5l-3 -1.5
q-2 -2 -3 -2.5t-2 -1.5h125q8 15 18 31.5t27 45.5q7 13 10 18t5 9q4 7 4.5 11.5t-1.5 4.5q-3 0 -7.5 -2.5t-12.5 -7.5z" />
    <glyph glyph-name="onehalf" unicode="&#xbd;" horiz-adv-x="636" 
d="M0 0zM101 354q33 -2 123.5 -4t135.5 -2t136.5 2t124.5 4q5 -3 2 -12t-9 -12q-35 3 -123.5 5t-135.5 2q-48 0 -137 -2t-124 -5q-5 3 -2 11.5t9 12.5zM286 429zM436 693q-5 -1 -6 2.5t3 4.5q45 16 91 37t66 36q7 5 9.5 5.5t5.5 0.5q4 0 6.5 -3.5t0.5 -6.5q-3 -6 -20.5 -37
t-68.5 -123q-35 -63 -48.5 -87t-19.5 -35q-14 -24 -6.5 -37.5t33.5 -13.5q4 0 3.5 -3.5t-4.5 -3.5h-16.5t-43.5 1h-38h-13h-11t-31 -1h-29.5h-9.5q-4 0 -3 3.5t5 3.5q26 0 45 12t35 38q6 10 59 103t60 106q3 5 1.5 8.5t-7.5 3.5q-7 0 -19.5 -3.5t-28.5 -10.5zM279 -96
q-7 -1 -50.5 -0.5t-50.5 0.5q-31 0 -70.5 -0.5t-94.5 -1.5h-10h-3q-3 0 -4 6.5t3 7.5q73 37 106.5 55.5t58.5 33.5q67 40 107.5 75t52.5 64q16 39 2.5 64.5t-52.5 25.5q-20 0 -33 -6t-21 -18q-5 -8 -9 -18t-18 -62q-6 -20 -17.5 -29.5t-30.5 -9.5q-21 0 -27.5 14.5t6.5 35.5
q12 21 35 41.5t54 38.5q33 19 63 28.5t57 9.5q51 0 74.5 -31t3.5 -75q-9 -19 -39 -42t-94 -58q-20 -11 -70.5 -37.5t-78.5 -41.5h90q66 0 94 10t57 51q3 5 6.5 3t0.5 -6q-6 -10 -35.5 -53.5t-43.5 -63.5q-3 -4 -7 -6.5t-12 -4.5z" />
    <glyph glyph-name="threequarters" unicode="&#xbe;" horiz-adv-x="636" 
d="M50 0zM101 354q33 -2 123.5 -4t135.5 -2t136.5 2t124.5 4q5 -3 2 -12t-9 -12q-35 3 -123.5 5t-135.5 2q-48 0 -137 -2t-124 -5q-5 3 -2 11.5t9 12.5zM266 419zM469 450q-39 -17 -67.5 -24t-52.5 -7q-46 0 -68 17t-12 47q6 19 30 32.5t76 23.5q4 1 5 -2.5t-3 -4.5
q-13 -4 -21 -11t-11 -17q-7 -24 13 -39t55 -15q16 0 28 1.5t20 4.5q12 7 19.5 15.5t16.5 28.5q20 43 8.5 80t-44.5 38q-10 0 -19.5 -4.5t-24.5 -18.5q-12 -11 -18.5 -14.5t-13.5 -3.5q-8 0 -13 5t-5 13q0 9 7.5 15.5t21.5 7.5q67 7 104.5 22.5t50.5 39.5q17 33 3 58t-50 25
q-16 0 -27 -4.5t-17 -14.5q-6 -8 -11 -19.5t-11 -31.5q-5 -20 -15 -29t-25 -9q-20 0 -27 12t3 29q9 15 29 30t56 32q29 13 56.5 20.5t49.5 7.5q45 0 67.5 -30.5t1.5 -67.5q-8 -13 -26 -23t-51 -19q-17 -5 -48 -12t-39 -9q11 2 22.5 3t22.5 1q53 0 73.5 -30.5t-4.5 -72.5
q-10 -17 -34.5 -34t-80.5 -42zM265 -92q-27 1 -39.5 1h-20.5q-6 0 -18.5 -0.5t-39.5 -0.5q-16 -1 -21.5 -1h-7.5q-4 0 -3 3.5t5 3.5q28 0 48 13t36 42l2.5 5t5.5 9q8 14 12.5 21.5t8.5 14.5q-43 0 -87 0.5t-88 0.5q-7 0 -7.5 6t5.5 9q67 40 177 111t170 113q18 11 24.5 14.5
t10.5 2.5q5 -2 5.5 -6t-3.5 -11q-5 -9 -37 -67t-65 -119h38q32 0 48.5 9.5t39.5 42.5q3 5 7 3t0 -7q-15 -21 -34.5 -52t-26.5 -45q-2 -3 -6 -4t-10 -1h-43h-43q-8 -16 -15 -28.5t-12 -22.5q-14 -27 -8 -40.5t33 -13.5q3 0 2.5 -3.5t-4.5 -3.5h-11.5t-27.5 1zM306 183
l-158 -103q-1 -1 -2 -1.5l-3 -1.5q-2 -2 -3 -2.5t-2 -1.5h125q8 15 18 31.5t27 45.5q7 13 10 18t5 9q4 7 4.5 11.5t-1.5 4.5q-3 0 -7.5 -2.5t-12.5 -7.5z" />
    <glyph glyph-name="questiondown" unicode="&#xbf;" horiz-adv-x="554" 
d="M357 504q5 4 20 6.5t31 2.5q22 0 33.5 -3.5t16.5 -10.5q7 -18 -7.5 -54.5t-33.5 -45.5q-6 -3 -22 -5.5t-30 -2.5q-18 0 -32 4.5t-16 11.5q-4 23 9.5 54.5t30.5 42.5zM302 324q3 2 9 3t15 1q10 0 19.5 -1t11.5 -3q17 -13 30 -39.5t13 -45.5q1 -23 -5.5 -44.5t-21.5 -43.5
q-19 -30 -60.5 -58t-147.5 -76q-117 -53 -161 -85.5t-60 -67.5q-33 -75 16.5 -132t153.5 -57q77 0 124.5 26.5t60.5 76.5q11 51 -16.5 86.5t-76.5 35.5q-19 0 -44.5 -8t-50.5 -22l-5 5q72 38 111.5 51.5t70.5 13.5q60 0 91.5 -38.5t13.5 -93.5q-21 -63 -102.5 -102
t-176.5 -37q-62 0 -113.5 14t-87.5 40q-48 35 -62 84.5t9 102.5q15 37 60.5 70t168.5 85q98 41 135 64.5t53 48.5q10 14 14 27t4 29q-1 13 -10.5 25.5t-22.5 16.5q-20 -9 -52.5 -32t-73.5 -56l-6 7q67 54 101.5 79.5t70.5 49.5z" />
    <glyph glyph-name="Agrave" unicode="&#xc0;" horiz-adv-x="1346" 
d="M36 0zM567 176q-151 -166 -206.5 -205t-121.5 -39q-50 0 -93.5 24t-72.5 67q-31 45 -36 96t18 89q24 40 72.5 79.5t109.5 67.5q48 22 98.5 34t98.5 12q29 0 74 -0.5t222 -3.5q34 40 75.5 90t124.5 149q48 58 70 84.5t39 46.5q-38 0 -76 -2t-71 -5q-31 -3 -64 -8t-87 -13
q-35 -6 -46.5 -7.5t-16.5 -1.5q-7 0 2.5 13t44.5 49q12 13 16.5 17.5t5.5 6.5q7 4 45.5 6t117.5 2h170q66 0 135 1t172 3q39 1 53 1h22q12 0 20 -1t12 -2q0 -11 -20 -39t-37 -38q-10 -3 -46.5 -1t-135.5 10q-61 5 -84.5 6.5t-35.5 1.5q-12 -64 -29 -159.5t-38 -216.5
q98 -1 125 -1.5t47 -0.5q59 0 84 -0.5t38 -1.5q6 0 8.5 -1t2.5 -4t-2.5 -6.5t-7.5 -8.5q-14 -16 -35.5 -32t-32.5 -18q-21 -4 -51.5 -3.5t-35.5 0.5q-25 0 -60.5 1.5t-91.5 5.5q-6 -37 -10.5 -65t-6.5 -47q-5 -40 -4.5 -76t5.5 -55q3 -13 14 -21.5t29 -11.5q23 9 77.5 49
t82.5 68l6 -6q-44 -42 -110 -95t-104 -75q-9 -5 -28.5 -5t-24.5 4q-15 11 -24.5 30.5t-11.5 39.5q-5 43 -4 70t7 61q5 36 11 71.5t13 69.5q-64 5 -131 11t-130 12q-78 -93 -107.5 -128.5t-37.5 -44.5zM1056 765l-309 -369q46 -1 101 -2t137 -3q20 108 39 210.5t32 163.5z
M240 348q-30 -15 -52.5 -42t-41.5 -68q-17 -36 -12.5 -80t30.5 -81q25 -37 62.5 -57t81.5 -20q43 0 70 13.5t65 48.5q19 19 44.5 46.5t60.5 66.5q7 8 18 21t38 45q34 41 54 64.5t38 44.5q-134 12 -212.5 17t-128.5 5q-33 0 -61.5 -6t-53.5 -18zM1163 882q-1 0 -2.5 1t-3.5 2
q-14 16 -34.5 34t-57.5 47q-18 14 -24 19t-9 8q-7 8 -11 21t-2 21q2 10 11.5 16.5t21.5 6.5q10 0 19.5 -7t17.5 -21q2 -3 4.5 -8t8.5 -19q21 -42 35 -67.5t28 -44.5q1 -1 1.5 -2t0.5 -3t-1 -3t-3 -1z" />
    <glyph glyph-name="Aacute" unicode="&#xc1;" horiz-adv-x="1346" 
d="M36 0zM567 176q-151 -166 -206.5 -205t-121.5 -39q-50 0 -93.5 24t-72.5 67q-31 45 -36 96t18 89q24 40 72.5 79.5t109.5 67.5q48 22 98.5 34t98.5 12q29 0 74 -0.5t222 -3.5q34 40 75.5 90t124.5 149q48 58 70 84.5t39 46.5q-38 0 -76 -2t-71 -5q-31 -3 -64 -8t-87 -13
q-35 -6 -46.5 -7.5t-16.5 -1.5q-7 0 2.5 13t44.5 49q12 13 16.5 17.5t5.5 6.5q7 4 45.5 6t117.5 2h170q66 0 135 1t172 3q39 1 53 1h22q12 0 20 -1t12 -2q0 -11 -20 -39t-37 -38q-10 -3 -46.5 -1t-135.5 10q-61 5 -84.5 6.5t-35.5 1.5q-12 -64 -29 -159.5t-38 -216.5
q98 -1 125 -1.5t47 -0.5q59 0 84 -0.5t38 -1.5q6 0 8.5 -1t2.5 -4t-2.5 -6.5t-7.5 -8.5q-14 -16 -35.5 -32t-32.5 -18q-21 -4 -51.5 -3.5t-35.5 0.5q-25 0 -60.5 1.5t-91.5 5.5q-6 -37 -10.5 -65t-6.5 -47q-5 -40 -4.5 -76t5.5 -55q3 -13 14 -21.5t29 -11.5q23 9 77.5 49
t82.5 68l6 -6q-44 -42 -110 -95t-104 -75q-9 -5 -28.5 -5t-24.5 4q-15 11 -24.5 30.5t-11.5 39.5q-5 43 -4 70t7 61q5 36 11 71.5t13 69.5q-64 5 -131 11t-130 12q-78 -93 -107.5 -128.5t-37.5 -44.5zM1056 765l-309 -369q46 -1 101 -2t137 -3q20 108 39 210.5t32 163.5z
M240 348q-30 -15 -52.5 -42t-41.5 -68q-17 -36 -12.5 -80t30.5 -81q25 -37 62.5 -57t81.5 -20q43 0 70 13.5t65 48.5q19 19 44.5 46.5t60.5 66.5q7 8 18 21t38 45q34 41 54 64.5t38 44.5q-134 12 -212.5 17t-128.5 5q-33 0 -61.5 -6t-53.5 -18zM1222 1044q8 7 17 10.5
t19 3.5q11 0 20 -11.5t6 -20.5t-7.5 -16.5t-10.5 -11.5q-4 -3 -13.5 -9t-35.5 -20q-55 -32 -84 -50.5t-51 -35.5q-1 -1 -2.5 -1.5t-3.5 -0.5t-3.5 1.5t-1.5 3.5q0 1 2 2.5t3 2.5q23 18 49.5 45.5t69.5 77.5q14 16 19 22t8 8z" />
    <glyph glyph-name="Acircumflex" unicode="&#xc2;" horiz-adv-x="1346" 
d="M36 0zM567 176q-151 -166 -206.5 -205t-121.5 -39q-50 0 -93.5 24t-72.5 67q-31 45 -36 96t18 89q24 40 72.5 79.5t109.5 67.5q48 22 98.5 34t98.5 12q29 0 74 -0.5t222 -3.5q34 40 75.5 90t124.5 149q48 58 70 84.5t39 46.5q-38 0 -76 -2t-71 -5q-31 -3 -64 -8t-87 -13
q-35 -6 -46.5 -7.5t-16.5 -1.5q-7 0 2.5 13t44.5 49q12 13 16.5 17.5t5.5 6.5q7 4 45.5 6t117.5 2h170q66 0 135 1t172 3q39 1 53 1h22q12 0 20 -1t12 -2q0 -11 -20 -39t-37 -38q-10 -3 -46.5 -1t-135.5 10q-61 5 -84.5 6.5t-35.5 1.5q-12 -64 -29 -159.5t-38 -216.5
q98 -1 125 -1.5t47 -0.5q59 0 84 -0.5t38 -1.5q6 0 8.5 -1t2.5 -4t-2.5 -6.5t-7.5 -8.5q-14 -16 -35.5 -32t-32.5 -18q-21 -4 -51.5 -3.5t-35.5 0.5q-25 0 -60.5 1.5t-91.5 5.5q-6 -37 -10.5 -65t-6.5 -47q-5 -40 -4.5 -76t5.5 -55q3 -13 14 -21.5t29 -11.5q23 9 77.5 49
t82.5 68l6 -6q-44 -42 -110 -95t-104 -75q-9 -5 -28.5 -5t-24.5 4q-15 11 -24.5 30.5t-11.5 39.5q-5 43 -4 70t7 61q5 36 11 71.5t13 69.5q-64 5 -131 11t-130 12q-78 -93 -107.5 -128.5t-37.5 -44.5zM1056 765l-309 -369q46 -1 101 -2t137 -3q20 108 39 210.5t32 163.5z
M240 348q-30 -15 -52.5 -42t-41.5 -68q-17 -36 -12.5 -80t30.5 -81q25 -37 62.5 -57t81.5 -20q43 0 70 13.5t65 48.5q19 19 44.5 46.5t60.5 66.5q7 8 18 21t38 45q34 41 54 64.5t38 44.5q-134 12 -212.5 17t-128.5 5q-33 0 -61.5 -6t-53.5 -18zM1291 897q0 -11 -9.5 -17.5
t-24.5 -6.5q-22 0 -31.5 6.5t-9.5 21.5q0 46 -3 74t-9 49q-1 3 -2.5 4t-4.5 -1q-27 -17 -50 -37.5t-64 -67.5q-9 -11 -22.5 -16.5t-30.5 -5.5q-15 0 -23 5.5t-8 15.5q0 22 59.5 55t138.5 58q5 2 7.5 1t5.5 -4q33 -34 57 -73.5t24 -60.5z" />
    <glyph glyph-name="Atilde" unicode="&#xc3;" horiz-adv-x="1346" 
d="M36 0zM567 176q-151 -166 -206.5 -205t-121.5 -39q-50 0 -93.5 24t-72.5 67q-31 45 -36 96t18 89q24 40 72.5 79.5t109.5 67.5q48 22 98.5 34t98.5 12q29 0 74 -0.5t222 -3.5q34 40 75.5 90t124.5 149q48 58 70 84.5t39 46.5q-38 0 -76 -2t-71 -5q-31 -3 -64 -8t-87 -13
q-35 -6 -46.5 -7.5t-16.5 -1.5q-7 0 2.5 13t44.5 49q12 13 16.5 17.5t5.5 6.5q7 4 45.5 6t117.5 2h170q66 0 135 1t172 3q39 1 53 1h22q12 0 20 -1t12 -2q0 -11 -20 -39t-37 -38q-10 -3 -46.5 -1t-135.5 10q-61 5 -84.5 6.5t-35.5 1.5q-12 -64 -29 -159.5t-38 -216.5
q98 -1 125 -1.5t47 -0.5q59 0 84 -0.5t38 -1.5q6 0 8.5 -1t2.5 -4t-2.5 -6.5t-7.5 -8.5q-14 -16 -35.5 -32t-32.5 -18q-21 -4 -51.5 -3.5t-35.5 0.5q-25 0 -60.5 1.5t-91.5 5.5q-6 -37 -10.5 -65t-6.5 -47q-5 -40 -4.5 -76t5.5 -55q3 -13 14 -21.5t29 -11.5q23 9 77.5 49
t82.5 68l6 -6q-44 -42 -110 -95t-104 -75q-9 -5 -28.5 -5t-24.5 4q-15 11 -24.5 30.5t-11.5 39.5q-5 43 -4 70t7 61q5 36 11 71.5t13 69.5q-64 5 -131 11t-130 12q-78 -93 -107.5 -128.5t-37.5 -44.5zM1056 765l-309 -369q46 -1 101 -2t137 -3q20 108 39 210.5t32 163.5z
M240 348q-30 -15 -52.5 -42t-41.5 -68q-17 -36 -12.5 -80t30.5 -81q25 -37 62.5 -57t81.5 -20q43 0 70 13.5t65 48.5q19 19 44.5 46.5t60.5 66.5q7 8 18 21t38 45q34 41 54 64.5t38 44.5q-134 12 -212.5 17t-128.5 5q-33 0 -61.5 -6t-53.5 -18zM977 899q-2 -4 -6.5 -1.5
t-0.5 6.5q31 48 64 73.5t63 25.5q11 0 26.5 -2.5t50.5 -10.5q34 -8 49.5 -10.5t25.5 -2.5q19 0 33 16.5t28 53.5q2 5 7 3.5t3 -6.5q-21 -58 -56 -94t-69 -36q-15 0 -34.5 3.5t-57.5 13.5q-30 8 -43 10.5t-22 2.5q-18 0 -31.5 -10t-29.5 -35z" />
    <glyph glyph-name="Adieresis" unicode="&#xc4;" horiz-adv-x="1346" 
d="M36 0zM567 176q-151 -166 -206.5 -205t-121.5 -39q-50 0 -93.5 24t-72.5 67q-31 45 -36 96t18 89q24 40 72.5 79.5t109.5 67.5q48 22 98.5 34t98.5 12q29 0 74 -0.5t222 -3.5q34 40 75.5 90t124.5 149q48 58 70 84.5t39 46.5q-38 0 -76 -2t-71 -5q-31 -3 -64 -8t-87 -13
q-35 -6 -46.5 -7.5t-16.5 -1.5q-7 0 2.5 13t44.5 49q12 13 16.5 17.5t5.5 6.5q7 4 45.5 6t117.5 2h170q66 0 135 1t172 3q39 1 53 1h22q12 0 20 -1t12 -2q0 -11 -20 -39t-37 -38q-10 -3 -46.5 -1t-135.5 10q-61 5 -84.5 6.5t-35.5 1.5q-12 -64 -29 -159.5t-38 -216.5
q98 -1 125 -1.5t47 -0.5q59 0 84 -0.5t38 -1.5q6 0 8.5 -1t2.5 -4t-2.5 -6.5t-7.5 -8.5q-14 -16 -35.5 -32t-32.5 -18q-21 -4 -51.5 -3.5t-35.5 0.5q-25 0 -60.5 1.5t-91.5 5.5q-6 -37 -10.5 -65t-6.5 -47q-5 -40 -4.5 -76t5.5 -55q3 -13 14 -21.5t29 -11.5q23 9 77.5 49
t82.5 68l6 -6q-44 -42 -110 -95t-104 -75q-9 -5 -28.5 -5t-24.5 4q-15 11 -24.5 30.5t-11.5 39.5q-5 43 -4 70t7 61q5 36 11 71.5t13 69.5q-64 5 -131 11t-130 12q-78 -93 -107.5 -128.5t-37.5 -44.5zM1056 765l-309 -369q46 -1 101 -2t137 -3q20 108 39 210.5t32 163.5z
M240 348q-30 -15 -52.5 -42t-41.5 -68q-17 -36 -12.5 -80t30.5 -81q25 -37 62.5 -57t81.5 -20q43 0 70 13.5t65 48.5q19 19 44.5 46.5t60.5 66.5q7 8 18 21t38 45q34 41 54 64.5t38 44.5q-134 12 -212.5 17t-128.5 5q-33 0 -61.5 -6t-53.5 -18zM1231 915q-16 0 -23 1.5
t-13 6.5q-5 17 13.5 55.5t34.5 46.5q6 3 19 5.5t26 2.5q15 0 29 -3.5t18 -9.5q1 -22 -26 -57t-46 -43q-6 -3 -14 -4t-18 -1zM1032 915q-16 0 -23 1.5t-12 6.5q-5 16 12.5 55t34.5 47q6 4 19 6t27 2q15 0 29 -4t17 -9q1 -22 -26 -56.5t-46 -43.5q-5 -2 -13 -3.5t-19 -1.5z
" />
    <glyph glyph-name="Aring" unicode="&#xc5;" horiz-adv-x="1346" 
d="M36 0zM567 176q-151 -166 -206.5 -205t-121.5 -39q-50 0 -93.5 24t-72.5 67q-31 45 -36 96t18 89q24 40 72.5 79.5t109.5 67.5q48 22 98.5 34t98.5 12q29 0 74 -0.5t222 -3.5q34 40 75.5 90t124.5 149q48 58 70 84.5t39 46.5q-38 0 -76 -2t-71 -5q-31 -3 -64 -8t-87 -13
q-35 -6 -46.5 -7.5t-16.5 -1.5q-7 0 2.5 13t44.5 49q12 13 16.5 17.5t5.5 6.5q7 4 45.5 6t117.5 2h170q66 0 135 1t172 3q39 1 53 1h22q12 0 20 -1t12 -2q0 -11 -20 -39t-37 -38q-10 -3 -46.5 -1t-135.5 10q-61 5 -84.5 6.5t-35.5 1.5q-12 -64 -29 -159.5t-38 -216.5
q98 -1 125 -1.5t47 -0.5q59 0 84 -0.5t38 -1.5q6 0 8.5 -1t2.5 -4t-2.5 -6.5t-7.5 -8.5q-14 -16 -35.5 -32t-32.5 -18q-21 -4 -51.5 -3.5t-35.5 0.5q-25 0 -60.5 1.5t-91.5 5.5q-6 -37 -10.5 -65t-6.5 -47q-5 -40 -4.5 -76t5.5 -55q3 -13 14 -21.5t29 -11.5q23 9 77.5 49
t82.5 68l6 -6q-44 -42 -110 -95t-104 -75q-9 -5 -28.5 -5t-24.5 4q-15 11 -24.5 30.5t-11.5 39.5q-5 43 -4 70t7 61q5 36 11 71.5t13 69.5q-64 5 -131 11t-130 12q-78 -93 -107.5 -128.5t-37.5 -44.5zM1056 765l-309 -369q46 -1 101 -2t137 -3q20 108 39 210.5t32 163.5z
M240 348q-30 -15 -52.5 -42t-41.5 -68q-17 -36 -12.5 -80t30.5 -81q25 -37 62.5 -57t81.5 -20q43 0 70 13.5t65 48.5q19 19 44.5 46.5t60.5 66.5q7 8 18 21t38 45q34 41 54 64.5t38 44.5q-134 12 -212.5 17t-128.5 5q-33 0 -61.5 -6t-53.5 -18zM1148 880q-39 0 -66 27
t-27 65q0 39 27.5 66.5t65.5 27.5q39 0 66.5 -27.5t27.5 -66.5q0 -38 -27.5 -65t-66.5 -27zM1148 1052q-32 0 -54.5 -23.5t-22.5 -56.5q0 -32 22.5 -55t54.5 -23q33 0 55.5 22.5t22.5 55.5t-22.5 56.5t-55.5 23.5z" />
    <glyph glyph-name="AE" unicode="&#xc6;" horiz-adv-x="1644" 
d="M1342 761q-10 -52 -31 -140.5t-41 -161.5q-1 -2 -1.5 -4.5t-1.5 -4.5q32 -1 66.5 -1h88.5q32 0 66.5 -0.5t54.5 -1.5q5 0 8 -1.5t3 -4.5t-3.5 -7.5t-10.5 -10.5q-16 -17 -35 -31t-28 -15q-10 -1 -30 -2t-49 -1q-28 0 -68 1.5t-86 4.5q-44 -111 -116.5 -194.5
t-152.5 -118.5q20 -1 46.5 -1.5t55.5 -0.5q64 0 130.5 4t116.5 11q36 5 114 15.5t89 10.5q3 0 4.5 -1.5t1.5 -4.5q0 -8 -26 -39t-46 -49q-7 -3 -45 -5t-117 -2h-124q-66 0 -143.5 -1.5t-193.5 -5.5q-32 -1 -42.5 -1.5t-14.5 -0.5q-26 0 -43 5t-22 15q-3 18 16.5 43.5
t44.5 38.5q10 -1 21.5 -3t35.5 -8q34 -7 51 -9.5t31 -2.5q29 0 52 6.5t42 20.5q40 30 73.5 96.5t69.5 186.5q-16 1 -35 2t-58 4q-67 4 -101 6t-63 4q-58 -61 -124 -125.5t-98 -93.5q-142 -138 -232.5 -192t-179.5 -54q-57 0 -104.5 26t-78.5 74q-32 49 -39 106t14 100
q44 92 153.5 154t240.5 62q47 0 138.5 -0.5t334.5 -3.5q30 30 64.5 64t100.5 98q69 67 99 97l52 52q-11 1 -22.5 1h-29.5q-100 0 -136.5 -2t-71.5 -6q-31 -3 -64.5 -7.5t-86.5 -13.5q-31 -4 -41 -5.5t-14 -1.5q-7 0 1.5 13.5t42.5 51.5q11 11 14.5 15t4.5 6q7 4 46.5 6
t120.5 2h162q83 0 192 1t295 4q71 1 95 1.5t34 0.5q12 0 20 -1t12 -2q0 -11 -20 -39.5t-37 -38.5q-12 -3 -69.5 -2t-342.5 13zM1172 451q1 3 1.5 6t1.5 6q21 74 43 156t38 145h-1q-34 -34 -139.5 -138.5t-174.5 -172.5q20 0 44 -0.5t72 -0.5t71.5 -0.5t43.5 -0.5zM370 429
q-84 0 -141.5 -37.5t-81.5 -106.5q-17 -43 -12.5 -95.5t29.5 -98.5q27 -49 69 -76.5t92 -27.5q73 0 146 44t188 156q43 39 106.5 101.5t113.5 114.5q-251 16 -353 21t-156 5z" />
    <glyph glyph-name="Ccedilla" unicode="&#xc7;" horiz-adv-x="811" 
d="M766 144q-107 -125 -205.5 -189t-184.5 -64h-8h-8q-17 -16 -30 -29.5t-26 -29.5q-1 -2 -0.5 -3t6.5 -1q58 3 87.5 -23.5t17.5 -70.5q-12 -42 -57 -72t-97 -30q-33 0 -54 11.5t-19 28.5q1 12 19.5 22t36.5 10q10 0 17.5 -4t16.5 -18q11 -15 20 -19.5t22 -4.5
q18 0 34.5 12.5t20.5 29.5q10 36 -23 58.5t-95 12.5q-5 -1 -9 -3.5t-9 -8.5q-4 -4 -6.5 -5.5t-5.5 -1.5q-8 0 -7 5.5t11 15.5q11 10 40.5 39.5t77.5 79.5q-105 7 -173 69.5t-85 166.5q-15 86 9.5 180.5t82.5 180.5q99 144 267.5 242.5t337.5 98.5q53 0 106 -13t142 -55
q3 -2 4 -3.5t1 -3.5q0 -10 -37.5 -37t-51.5 -27q-5 0 -9.5 0.5t-11.5 2.5q-19 7 -64.5 30t-72.5 34q-38 15 -74.5 22.5t-74.5 7.5q-96 0 -188 -66t-170 -190q-52 -83 -74 -175t-10 -173q16 -104 80.5 -162t166.5 -58q76 0 151 45t158 142q3 3 6.5 0t0.5 -7z" />
    <glyph glyph-name="Egrave" unicode="&#xc8;" horiz-adv-x="1066" 
d="M52 0zM178 -2q-34 -1 -45 -1.5t-16 -0.5q-26 0 -43 5t-22 15q-3 18 16.5 43.5t44.5 38.5q8 2 24 0t61 -13q52 -13 78 -17.5t46 -4.5q24 0 42 5.5t31 17.5q24 20 45.5 55t47.5 100q9 23 31 80t36 91q-63 9 -117 15t-99 9q-4 0 -6.5 1t-2.5 3t2 2.5t10 0.5q49 0 108.5 1
t119.5 2q43 107 106 184.5t135 114.5q-70 19 -129 28.5t-109 9.5q-52 0 -91.5 -8.5t-71.5 -25.5q-56 -30 -99.5 -93.5t-85.5 -174.5q-16 -42 -35.5 -59t-50.5 -17q-36 0 -43 22.5t17 59.5q54 85 129.5 154.5t163.5 114.5q71 36 146 54t153 18q58 0 133 -12t198 -41
q95 -23 132.5 -35.5t40.5 -20.5q4 -9 -19.5 -35t-36.5 -29q-12 0 -65.5 13t-129.5 35q-57 17 -92 27t-48 13q-16 -11 -36 -44.5t-48 -97.5q-13 -30 -35.5 -84.5t-28.5 -68.5q145 3 176.5 3.5t50.5 0.5q42 0 71.5 -2t42.5 -6q13 -3 -15 -36.5t-45 -37.5q-18 -4 -36.5 -4.5
t-56.5 3.5q-18 2 -45.5 5.5t-163.5 23.5q-57 -127 -124 -210.5t-143 -120.5q22 -1 40.5 -1.5t38.5 -0.5q81 0 153.5 4t124.5 11q19 2 108 14t102 12q3 0 4.5 -1.5t0.5 -5.5q-2 -11 -28 -43t-43 -44q-7 -3 -47 -5t-122 -2h-188q-69 0 -149 -1.5t-199 -5.5zM990 857
q-1 0 -2.5 1t-3.5 2q-14 16 -34.5 34t-57.5 47q-18 14 -24 19t-9 8q-7 8 -11 21t-2 21q2 10 11.5 16.5t21.5 6.5q10 0 19.5 -7t17.5 -21q2 -3 4.5 -8t8.5 -19q21 -42 35 -67.5t28 -44.5q1 -1 1.5 -2t0.5 -3t-1 -3t-3 -1z" />
    <glyph glyph-name="Eacute" unicode="&#xc9;" horiz-adv-x="1066" 
d="M52 0zM178 -2q-34 -1 -45 -1.5t-16 -0.5q-26 0 -43 5t-22 15q-3 18 16.5 43.5t44.5 38.5q8 2 24 0t61 -13q52 -13 78 -17.5t46 -4.5q24 0 42 5.5t31 17.5q24 20 45.5 55t47.5 100q9 23 31 80t36 91q-63 9 -117 15t-99 9q-4 0 -6.5 1t-2.5 3t2 2.5t10 0.5q49 0 108.5 1
t119.5 2q43 107 106 184.5t135 114.5q-70 19 -129 28.5t-109 9.5q-52 0 -91.5 -8.5t-71.5 -25.5q-56 -30 -99.5 -93.5t-85.5 -174.5q-16 -42 -35.5 -59t-50.5 -17q-36 0 -43 22.5t17 59.5q54 85 129.5 154.5t163.5 114.5q71 36 146 54t153 18q58 0 133 -12t198 -41
q95 -23 132.5 -35.5t40.5 -20.5q4 -9 -19.5 -35t-36.5 -29q-12 0 -65.5 13t-129.5 35q-57 17 -92 27t-48 13q-16 -11 -36 -44.5t-48 -97.5q-13 -30 -35.5 -84.5t-28.5 -68.5q145 3 176.5 3.5t50.5 0.5q42 0 71.5 -2t42.5 -6q13 -3 -15 -36.5t-45 -37.5q-18 -4 -36.5 -4.5
t-56.5 3.5q-18 2 -45.5 5.5t-163.5 23.5q-57 -127 -124 -210.5t-143 -120.5q22 -1 40.5 -1.5t38.5 -0.5q81 0 153.5 4t124.5 11q19 2 108 14t102 12q3 0 4.5 -1.5t0.5 -5.5q-2 -11 -28 -43t-43 -44q-7 -3 -47 -5t-122 -2h-188q-69 0 -149 -1.5t-199 -5.5zM1049 1019
q8 7 17 10.5t19 3.5q11 0 20 -11.5t6 -20.5t-7.5 -16.5t-10.5 -11.5q-4 -3 -13.5 -9t-35.5 -20q-55 -32 -84 -50.5t-51 -35.5q-1 -1 -2.5 -1.5t-3.5 -0.5t-3.5 1.5t-1.5 3.5q0 1 2 2.5t3 2.5q23 18 49.5 45.5t69.5 77.5q14 16 19 22t8 8z" />
    <glyph glyph-name="Ecircumflex" unicode="&#xca;" horiz-adv-x="1066" 
d="M52 0zM178 -2q-34 -1 -45 -1.5t-16 -0.5q-26 0 -43 5t-22 15q-3 18 16.5 43.5t44.5 38.5q8 2 24 0t61 -13q52 -13 78 -17.5t46 -4.5q24 0 42 5.5t31 17.5q24 20 45.5 55t47.5 100q9 23 31 80t36 91q-63 9 -117 15t-99 9q-4 0 -6.5 1t-2.5 3t2 2.5t10 0.5q49 0 108.5 1
t119.5 2q43 107 106 184.5t135 114.5q-70 19 -129 28.5t-109 9.5q-52 0 -91.5 -8.5t-71.5 -25.5q-56 -30 -99.5 -93.5t-85.5 -174.5q-16 -42 -35.5 -59t-50.5 -17q-36 0 -43 22.5t17 59.5q54 85 129.5 154.5t163.5 114.5q71 36 146 54t153 18q58 0 133 -12t198 -41
q95 -23 132.5 -35.5t40.5 -20.5q4 -9 -19.5 -35t-36.5 -29q-12 0 -65.5 13t-129.5 35q-57 17 -92 27t-48 13q-16 -11 -36 -44.5t-48 -97.5q-13 -30 -35.5 -84.5t-28.5 -68.5q145 3 176.5 3.5t50.5 0.5q42 0 71.5 -2t42.5 -6q13 -3 -15 -36.5t-45 -37.5q-18 -4 -36.5 -4.5
t-56.5 3.5q-18 2 -45.5 5.5t-163.5 23.5q-57 -127 -124 -210.5t-143 -120.5q22 -1 40.5 -1.5t38.5 -0.5q81 0 153.5 4t124.5 11q19 2 108 14t102 12q3 0 4.5 -1.5t0.5 -5.5q-2 -11 -28 -43t-43 -44q-7 -3 -47 -5t-122 -2h-188q-69 0 -149 -1.5t-199 -5.5zM1118 872
q0 -11 -9.5 -17.5t-24.5 -6.5q-22 0 -31.5 6.5t-9.5 21.5q0 46 -3 74t-9 49q-1 3 -2.5 4t-4.5 -1q-27 -17 -50 -37.5t-64 -67.5q-9 -11 -22.5 -16.5t-30.5 -5.5q-15 0 -23 5.5t-8 15.5q0 22 59.5 55t138.5 58q5 2 7.5 1t5.5 -4q33 -34 57 -73.5t24 -60.5z" />
    <glyph glyph-name="Edieresis" unicode="&#xcb;" horiz-adv-x="1066" 
d="M52 0zM178 -2q-34 -1 -45 -1.5t-16 -0.5q-26 0 -43 5t-22 15q-3 18 16.5 43.5t44.5 38.5q8 2 24 0t61 -13q52 -13 78 -17.5t46 -4.5q24 0 42 5.5t31 17.5q24 20 45.5 55t47.5 100q9 23 31 80t36 91q-63 9 -117 15t-99 9q-4 0 -6.5 1t-2.5 3t2 2.5t10 0.5q49 0 108.5 1
t119.5 2q43 107 106 184.5t135 114.5q-70 19 -129 28.5t-109 9.5q-52 0 -91.5 -8.5t-71.5 -25.5q-56 -30 -99.5 -93.5t-85.5 -174.5q-16 -42 -35.5 -59t-50.5 -17q-36 0 -43 22.5t17 59.5q54 85 129.5 154.5t163.5 114.5q71 36 146 54t153 18q58 0 133 -12t198 -41
q95 -23 132.5 -35.5t40.5 -20.5q4 -9 -19.5 -35t-36.5 -29q-12 0 -65.5 13t-129.5 35q-57 17 -92 27t-48 13q-16 -11 -36 -44.5t-48 -97.5q-13 -30 -35.5 -84.5t-28.5 -68.5q145 3 176.5 3.5t50.5 0.5q42 0 71.5 -2t42.5 -6q13 -3 -15 -36.5t-45 -37.5q-18 -4 -36.5 -4.5
t-56.5 3.5q-18 2 -45.5 5.5t-163.5 23.5q-57 -127 -124 -210.5t-143 -120.5q22 -1 40.5 -1.5t38.5 -0.5q81 0 153.5 4t124.5 11q19 2 108 14t102 12q3 0 4.5 -1.5t0.5 -5.5q-2 -11 -28 -43t-43 -44q-7 -3 -47 -5t-122 -2h-188q-69 0 -149 -1.5t-199 -5.5zM1058 890
q-16 0 -23 1.5t-13 6.5q-5 17 13.5 55.5t34.5 46.5q6 3 19 5.5t26 2.5q15 0 29 -3.5t18 -9.5q1 -22 -26 -57t-46 -43q-6 -3 -14 -4t-18 -1zM859 890q-16 0 -23 1.5t-12 6.5q-5 16 12.5 55t34.5 47q6 4 19 6t27 2q15 0 29 -4t17 -9q1 -22 -26 -56.5t-46 -43.5q-5 -2 -13 -3.5
t-19 -1.5z" />
    <glyph glyph-name="Igrave" unicode="&#xcc;" horiz-adv-x="778" 
d="M0 0zM91 -2q-23 -1 -30 -1h-10q-22 0 -37.5 4t-21.5 11q-1 11 23 39.5t38 32.5q6 2 18.5 1t45.5 -8q40 -8 61.5 -10.5t39.5 -2.5q39 0 63 6.5t42 20.5q26 21 47 55t49 103q3 8 27 68.5t43 104.5q64 145 130.5 227t151.5 118q-6 1 -20 1.5t-26 0.5q-31 0 -79 -5.5
t-146 -21.5q-53 -8 -72 -10.5t-27 -2.5q-14 0 19 41.5t53 49.5q10 5 86 2.5t82 -2.5q45 0 115 1.5t195 5.5q36 1 47.5 1.5t14.5 0.5q23 0 38.5 -3.5t20.5 -10.5q2 -9 -19 -34t-41 -38q-7 -2 -21 -0.5t-52 8.5q-47 9 -71 12t-43 3q-24 0 -43.5 -5t-34.5 -16
q-22 -16 -39 -45.5t-46 -112.5q-24 -68 -37.5 -103t-27.5 -68q-58 -135 -135.5 -224.5t-169.5 -126.5q4 -2 10.5 -3t16.5 -1q21 0 58 4t126 16q90 13 125 16.5t51 2.5q12 0 5.5 -21t-24.5 -42q-14 -17 -30.5 -26t-33.5 -9l-139 3q-74 1 -160.5 -0.5t-205.5 -6.5zM816 882
q-1 0 -2.5 1t-3.5 2q-14 16 -34.5 34t-57.5 47q-18 14 -24 19t-9 8q-7 8 -11 21t-2 21q2 10 11.5 16.5t21.5 6.5q10 0 19.5 -7t17.5 -21q2 -3 4.5 -8t8.5 -19q21 -42 35 -67.5t28 -44.5q1 -1 1.5 -2t0.5 -3t-1 -3t-3 -1z" />
    <glyph glyph-name="Iacute" unicode="&#xcd;" horiz-adv-x="778" 
d="M0 0zM91 -2q-23 -1 -30 -1h-10q-22 0 -37.5 4t-21.5 11q-1 11 23 39.5t38 32.5q6 2 18.5 1t45.5 -8q40 -8 61.5 -10.5t39.5 -2.5q39 0 63 6.5t42 20.5q26 21 47 55t49 103q3 8 27 68.5t43 104.5q64 145 130.5 227t151.5 118q-6 1 -20 1.5t-26 0.5q-31 0 -79 -5.5
t-146 -21.5q-53 -8 -72 -10.5t-27 -2.5q-14 0 19 41.5t53 49.5q10 5 86 2.5t82 -2.5q45 0 115 1.5t195 5.5q36 1 47.5 1.5t14.5 0.5q23 0 38.5 -3.5t20.5 -10.5q2 -9 -19 -34t-41 -38q-7 -2 -21 -0.5t-52 8.5q-47 9 -71 12t-43 3q-24 0 -43.5 -5t-34.5 -16
q-22 -16 -39 -45.5t-46 -112.5q-24 -68 -37.5 -103t-27.5 -68q-58 -135 -135.5 -224.5t-169.5 -126.5q4 -2 10.5 -3t16.5 -1q21 0 58 4t126 16q90 13 125 16.5t51 2.5q12 0 5.5 -21t-24.5 -42q-14 -17 -30.5 -26t-33.5 -9l-139 3q-74 1 -160.5 -0.5t-205.5 -6.5zM875 1044
q8 7 17 10.5t19 3.5q11 0 20 -11.5t6 -20.5t-7.5 -16.5t-10.5 -11.5q-4 -3 -13.5 -9t-35.5 -20q-55 -32 -84 -50.5t-51 -35.5q-1 -1 -2.5 -1.5t-3.5 -0.5t-3.5 1.5t-1.5 3.5q0 1 2 2.5t3 2.5q23 18 49.5 45.5t69.5 77.5q14 16 19 22t8 8z" />
    <glyph glyph-name="Icircumflex" unicode="&#xce;" horiz-adv-x="778" 
d="M0 0zM91 -2q-23 -1 -30 -1h-10q-22 0 -37.5 4t-21.5 11q-1 11 23 39.5t38 32.5q6 2 18.5 1t45.5 -8q40 -8 61.5 -10.5t39.5 -2.5q39 0 63 6.5t42 20.5q26 21 47 55t49 103q3 8 27 68.5t43 104.5q64 145 130.5 227t151.5 118q-6 1 -20 1.5t-26 0.5q-31 0 -79 -5.5
t-146 -21.5q-53 -8 -72 -10.5t-27 -2.5q-14 0 19 41.5t53 49.5q10 5 86 2.5t82 -2.5q45 0 115 1.5t195 5.5q36 1 47.5 1.5t14.5 0.5q23 0 38.5 -3.5t20.5 -10.5q2 -9 -19 -34t-41 -38q-7 -2 -21 -0.5t-52 8.5q-47 9 -71 12t-43 3q-24 0 -43.5 -5t-34.5 -16
q-22 -16 -39 -45.5t-46 -112.5q-24 -68 -37.5 -103t-27.5 -68q-58 -135 -135.5 -224.5t-169.5 -126.5q4 -2 10.5 -3t16.5 -1q21 0 58 4t126 16q90 13 125 16.5t51 2.5q12 0 5.5 -21t-24.5 -42q-14 -17 -30.5 -26t-33.5 -9l-139 3q-74 1 -160.5 -0.5t-205.5 -6.5zM944 897
q0 -11 -9.5 -17.5t-24.5 -6.5q-22 0 -31.5 6.5t-9.5 21.5q0 46 -3 74t-9 49q-1 3 -2.5 4t-4.5 -1q-27 -17 -50 -37.5t-64 -67.5q-9 -11 -22.5 -16.5t-30.5 -5.5q-15 0 -23 5.5t-8 15.5q0 22 59.5 55t138.5 58q5 2 7.5 1t5.5 -4q33 -34 57 -73.5t24 -60.5z" />
    <glyph glyph-name="Idieresis" unicode="&#xcf;" horiz-adv-x="778" 
d="M0 0zM91 -2q-23 -1 -30 -1h-10q-22 0 -37.5 4t-21.5 11q-1 11 23 39.5t38 32.5q6 2 18.5 1t45.5 -8q40 -8 61.5 -10.5t39.5 -2.5q39 0 63 6.5t42 20.5q26 21 47 55t49 103q3 8 27 68.5t43 104.5q64 145 130.5 227t151.5 118q-6 1 -20 1.5t-26 0.5q-31 0 -79 -5.5
t-146 -21.5q-53 -8 -72 -10.5t-27 -2.5q-14 0 19 41.5t53 49.5q10 5 86 2.5t82 -2.5q45 0 115 1.5t195 5.5q36 1 47.5 1.5t14.5 0.5q23 0 38.5 -3.5t20.5 -10.5q2 -9 -19 -34t-41 -38q-7 -2 -21 -0.5t-52 8.5q-47 9 -71 12t-43 3q-24 0 -43.5 -5t-34.5 -16
q-22 -16 -39 -45.5t-46 -112.5q-24 -68 -37.5 -103t-27.5 -68q-58 -135 -135.5 -224.5t-169.5 -126.5q4 -2 10.5 -3t16.5 -1q21 0 58 4t126 16q90 13 125 16.5t51 2.5q12 0 5.5 -21t-24.5 -42q-14 -17 -30.5 -26t-33.5 -9l-139 3q-74 1 -160.5 -0.5t-205.5 -6.5zM884 915
q-16 0 -23 1.5t-13 6.5q-5 17 13.5 55.5t34.5 46.5q6 3 19 5.5t26 2.5q15 0 29 -3.5t18 -9.5q1 -22 -26 -57t-46 -43q-6 -3 -14 -4t-18 -1zM685 915q-16 0 -23 1.5t-12 6.5q-5 16 12.5 55t34.5 47q6 4 19 6t27 2q15 0 29 -4t17 -9q1 -22 -26 -56.5t-46 -43.5q-5 -2 -13 -3.5
t-19 -1.5z" />
    <glyph glyph-name="Eth" unicode="&#xd0;" horiz-adv-x="1153" 
d="M202 -13h-67.5h-26.5q-25 0 -41 5.5t-21 15.5q-3 18 18.5 48.5t45.5 42.5q10 3 28 0.5t65 -14.5q49 -13 72.5 -17t41.5 -4q27 0 41 4t25 13q23 20 43 52.5t45 92.5q8 20 28 74t34 87q-44 -1 -91.5 -3t-82.5 -4q-6 3 -3.5 13.5t9.5 12.5q29 -2 77.5 -4t94.5 -3
q58 139 126.5 228.5t149.5 129.5l4 -2q-18 -9 -41 -48t-58 -123q-9 -22 -34.5 -86t-41.5 -100q45 1 98.5 3t106.5 5q6 -4 4 -14t-9 -12q-64 4 -114 5.5t-91 2.5q-57 -126 -124.5 -208t-146.5 -122q36 -4 143.5 -5.5t187.5 2.5q77 4 128 17t87 38q30 22 57.5 57.5t50.5 84.5
q43 92 39 190.5t-55 177.5q-50 77 -135.5 118t-196.5 41q-87 0 -153 -13.5t-114 -41.5q-44 -26 -79 -75.5t-69 -136.5q-14 -37 -34.5 -53t-53.5 -16q-35 0 -41 20.5t19 57.5q38 56 101.5 108.5t151.5 101.5q95 54 180 79t167 24q113 0 201 -42t142 -120q56 -83 62.5 -186
t-39.5 -189q-25 -46 -76.5 -96.5t-120.5 -96.5q-29 -20 -54.5 -35t-56.5 -31q-39 -20 -78 -31.5t-79 -15.5q-12 -1 -91 -2.5t-123 -1.5h-101.5h-130.5z" />
    <glyph glyph-name="Ntilde" unicode="&#xd1;" horiz-adv-x="1060" 
d="M0 0zM142 -36q-59 -57 -122 -82t-144 -25q-56 0 -135.5 18t-87.5 28q-7 9 28.5 48t53.5 45q6 1 19.5 -2t53.5 -15q78 -24 123 -32.5t82 -8.5q43 0 83 24t89 82q19 22 43 52.5t86 113.5q23 31 134.5 191.5t190.5 277.5q-17 83 -43 121.5t-66 38.5q-11 0 -23 -3t-26 -9
q-27 -10 -96 -58.5t-113 -86.5l-6 6q47 42 129 102.5t126 86.5q25 15 48.5 22t47.5 7q52 0 81 -53.5t51 -182.5q27 -170 43 -287.5t34 -274.5q113 185 190 304t131 191q98 132 177 188t177 56q55 0 126 -11.5t87 -19.5q2 -1 2.5 -2t0.5 -3q0 -14 -33 -49t-49 -37h-6t-5 1
q-9 1 -22 3.5t-47 9.5q-71 16 -109.5 21.5t-68.5 5.5q-51 0 -100.5 -39.5t-118.5 -135.5q-68 -91 -150.5 -217t-184.5 -294q-5 -7 -10 -16t-16 -27q-14 -24 -20.5 -34.5t-11.5 -17.5q-5 -6 -9 -8.5t-8 -0.5q-4 1 -6.5 9.5t-10.5 68.5q-17 138 -32 247t-53 339q0 2 -0.5 4.5
l-1.5 7.5l-1.5 7.5t-0.5 4.5q-70 -105 -180 -267.5t-137 -200.5q-75 -107 -112.5 -153.5t-70.5 -78.5zM895 890q-2 -4 -6.5 -1.5t-0.5 6.5q31 48 64 73.5t63 25.5q11 0 26.5 -2.5t50.5 -10.5q34 -8 49.5 -10.5t25.5 -2.5q19 0 33 16.5t28 53.5q2 5 7 3.5t3 -6.5
q-21 -58 -56 -94t-69 -36q-15 0 -34.5 3.5t-57.5 13.5q-30 8 -43 10.5t-22 2.5q-18 0 -31.5 -10t-29.5 -35z" />
    <glyph glyph-name="Ograve" unicode="&#xd2;" horiz-adv-x="1027" 
d="M135 0zM735 94q-83 -50 -158 -75t-142 -25q-106 0 -179 46.5t-103 132.5q-27 78 -14 170.5t62 172.5q39 62 103 121t142 105q74 44 146 67.5t134 23.5q108 1 182.5 -45t105.5 -132q28 -78 15.5 -171.5t-63.5 -175.5q-35 -56 -98 -114.5t-133 -100.5zM256 229
q29 -85 99 -131t173 -47q56 -1 106.5 12t92.5 38q37 23 72 62.5t68 97.5q47 82 60.5 173.5t-11.5 167.5q-27 87 -98 133.5t-176 46.5q-53 0 -102.5 -12.5t-87.5 -35.5q-42 -25 -77.5 -65t-72.5 -104q-47 -81 -59 -171t13 -165zM772 882q-1 0 -2.5 1t-3.5 2q-14 16 -34.5 34
t-57.5 47q-18 14 -24 19t-9 8q-7 8 -11 21t-2 21q2 10 11.5 16.5t21.5 6.5q10 0 19.5 -7t17.5 -21q2 -3 4.5 -8t8.5 -19q21 -42 35 -67.5t28 -44.5q1 -1 1.5 -2t0.5 -3t-1 -3t-3 -1z" />
    <glyph glyph-name="Oacute" unicode="&#xd3;" horiz-adv-x="1027" 
d="M135 0zM735 94q-83 -50 -158 -75t-142 -25q-106 0 -179 46.5t-103 132.5q-27 78 -14 170.5t62 172.5q39 62 103 121t142 105q74 44 146 67.5t134 23.5q108 1 182.5 -45t105.5 -132q28 -78 15.5 -171.5t-63.5 -175.5q-35 -56 -98 -114.5t-133 -100.5zM256 229
q29 -85 99 -131t173 -47q56 -1 106.5 12t92.5 38q37 23 72 62.5t68 97.5q47 82 60.5 173.5t-11.5 167.5q-27 87 -98 133.5t-176 46.5q-53 0 -102.5 -12.5t-87.5 -35.5q-42 -25 -77.5 -65t-72.5 -104q-47 -81 -59 -171t13 -165zM831 1044q8 7 17 10.5t19 3.5q11 0 20 -11.5
t6 -20.5t-7.5 -16.5t-10.5 -11.5q-4 -3 -13.5 -9t-35.5 -20q-55 -32 -84 -50.5t-51 -35.5q-1 -1 -2.5 -1.5t-3.5 -0.5t-3.5 1.5t-1.5 3.5q0 1 2 2.5t3 2.5q23 18 49.5 45.5t69.5 77.5q14 16 19 22t8 8z" />
    <glyph glyph-name="Ocircumflex" unicode="&#xd4;" horiz-adv-x="1027" 
d="M135 0zM735 94q-83 -50 -158 -75t-142 -25q-106 0 -179 46.5t-103 132.5q-27 78 -14 170.5t62 172.5q39 62 103 121t142 105q74 44 146 67.5t134 23.5q108 1 182.5 -45t105.5 -132q28 -78 15.5 -171.5t-63.5 -175.5q-35 -56 -98 -114.5t-133 -100.5zM256 229
q29 -85 99 -131t173 -47q56 -1 106.5 12t92.5 38q37 23 72 62.5t68 97.5q47 82 60.5 173.5t-11.5 167.5q-27 87 -98 133.5t-176 46.5q-53 0 -102.5 -12.5t-87.5 -35.5q-42 -25 -77.5 -65t-72.5 -104q-47 -81 -59 -171t13 -165zM900 897q0 -11 -9.5 -17.5t-24.5 -6.5
q-22 0 -31.5 6.5t-9.5 21.5q0 46 -3 74t-9 49q-1 3 -2.5 4t-4.5 -1q-27 -17 -50 -37.5t-64 -67.5q-9 -11 -22.5 -16.5t-30.5 -5.5q-15 0 -23 5.5t-8 15.5q0 22 59.5 55t138.5 58q5 2 7.5 1t5.5 -4q33 -34 57 -73.5t24 -60.5z" />
    <glyph glyph-name="Otilde" unicode="&#xd5;" horiz-adv-x="1027" 
d="M135 0zM735 94q-83 -50 -158 -75t-142 -25q-106 0 -179 46.5t-103 132.5q-27 78 -14 170.5t62 172.5q39 62 103 121t142 105q74 44 146 67.5t134 23.5q108 1 182.5 -45t105.5 -132q28 -78 15.5 -171.5t-63.5 -175.5q-35 -56 -98 -114.5t-133 -100.5zM256 229
q29 -85 99 -131t173 -47q56 -1 106.5 12t92.5 38q37 23 72 62.5t68 97.5q47 82 60.5 173.5t-11.5 167.5q-27 87 -98 133.5t-176 46.5q-53 0 -102.5 -12.5t-87.5 -35.5q-42 -25 -77.5 -65t-72.5 -104q-47 -81 -59 -171t13 -165zM586 899q-2 -4 -6.5 -1.5t-0.5 6.5
q31 48 64 73.5t63 25.5q11 0 26.5 -2.5t50.5 -10.5q34 -8 49.5 -10.5t25.5 -2.5q19 0 33 16.5t28 53.5q2 5 7 3.5t3 -6.5q-21 -58 -56 -94t-69 -36q-15 0 -34.5 3.5t-57.5 13.5q-30 8 -43 10.5t-22 2.5q-18 0 -31.5 -10t-29.5 -35z" />
    <glyph glyph-name="Odieresis" unicode="&#xd6;" horiz-adv-x="1027" 
d="M135 0zM735 94q-83 -50 -158 -75t-142 -25q-106 0 -179 46.5t-103 132.5q-27 78 -14 170.5t62 172.5q39 62 103 121t142 105q74 44 146 67.5t134 23.5q108 1 182.5 -45t105.5 -132q28 -78 15.5 -171.5t-63.5 -175.5q-35 -56 -98 -114.5t-133 -100.5zM256 229
q29 -85 99 -131t173 -47q56 -1 106.5 12t92.5 38q37 23 72 62.5t68 97.5q47 82 60.5 173.5t-11.5 167.5q-27 87 -98 133.5t-176 46.5q-53 0 -102.5 -12.5t-87.5 -35.5q-42 -25 -77.5 -65t-72.5 -104q-47 -81 -59 -171t13 -165zM840 915q-16 0 -23 1.5t-13 6.5
q-5 17 13.5 55.5t34.5 46.5q6 3 19 5.5t26 2.5q15 0 29 -3.5t18 -9.5q1 -22 -26 -57t-46 -43q-6 -3 -14 -4t-18 -1zM641 915q-16 0 -23 1.5t-12 6.5q-5 16 12.5 55t34.5 47q6 4 19 6t27 2q15 0 29 -4t17 -9q1 -22 -26 -56.5t-46 -43.5q-5 -2 -13 -3.5t-19 -1.5z" />
    <glyph glyph-name="multiply" unicode="&#xd7;" 
d="M452 499q7 0 13.5 -5t10.5 -14q-18 -13 -39 -31t-111 -107q34 -34 75 -70t72 -60q0 -6 -6.5 -13t-14.5 -11q-13 19 -32.5 41t-101.5 104q-39 -38 -74.5 -77.5t-62.5 -73.5q-7 1 -14 7t-11 15q34 27 73 61.5t80 75.5q-25 25 -54.5 51.5t-91.5 77.5q-1 5 5.5 13t14.5 12
q26 -32 59.5 -68t74.5 -77q26 25 55.5 57.5t79.5 91.5z" />
    <glyph glyph-name="Oslash" unicode="&#xd8;" horiz-adv-x="1027" 
d="M735 94q-83 -50 -158 -75t-142 -25t-121 18.5t-93 55.5q-50 -49 -73 -72l-42 -42q-11 -4 -19 0.5t-7 15.5q45 41 73 66.5t52 47.5q-70 77 -70.5 200t66.5 232q37 62 101 120t144 106q74 44 146 67.5t134 23.5q68 1 123 -17.5t95 -54.5l62 62t36 35q11 4 18 -1t5 -18
q-10 -9 -23 -20.5t-38 -34.5l-27 -24t-17 -15q72 -78 73.5 -201t-67.5 -235q-35 -56 -98 -114.5t-133 -100.5zM452 734q-42 -25 -77.5 -65t-72.5 -104q-60 -105 -62.5 -219t55.5 -191q149 135 192 174.5t78 73.5q29 28 104.5 100t198.5 189q-39 45 -96 67.5t-130 22.5
q-53 0 -102.5 -12.5t-87.5 -35.5zM306 140q38 -43 94.5 -65.5t127.5 -23.5q56 -1 106.5 12t92.5 38q37 23 72 62.5t68 97.5q61 107 65 223t-53 194q-63 -57 -137.5 -126.5t-165.5 -156.5q-29 -28 -64 -61.5t-109 -102.5q-40 -37 -60 -56t-37 -35z" />
    <glyph glyph-name="Ugrave" unicode="&#xd9;" horiz-adv-x="964" 
d="M99 0zM638 201q-85 -96 -191 -171t-166 -75q-72 0 -124.5 57t-57.5 139q-3 56 27.5 123.5t143.5 216.5q15 20 44.5 59t43.5 57q36 49 50 78t13 49q-1 13 -8.5 27t-20.5 27q-21 -6 -95.5 -57.5t-108.5 -80.5l-6 7q39 34 129.5 99t128.5 85q4 1 9.5 2t11.5 1q9 0 17.5 -2
t11.5 -4q16 -13 27.5 -35t14.5 -48q4 -32 -25 -86t-138 -197q-108 -143 -137.5 -203t-26.5 -104q5 -65 45 -110.5t97 -45.5q48 0 148.5 76t161.5 148q10 15 22 34t38 60q32 48 48.5 74t30.5 49q11 18 23 36.5t65 100.5q44 68 55 93.5t9 51.5q-1 13 -8.5 27.5t-20.5 26.5
q-20 -6 -94.5 -57t-107.5 -79l-6 7q40 34 128 99t126 84q5 2 10 3t10 1q10 0 18.5 -2t10.5 -4q17 -14 28.5 -36t14.5 -47q4 -36 -18 -84.5t-141 -234.5q-13 -19 -53 -80.5t-59 -92.5q-49 -77 -68 -118t-18 -66q1 -18 13 -35t25 -19q20 5 77.5 48.5t108.5 89.5l5 -7
q-131 -117 -174 -149.5t-69 -44.5q-3 -2 -7.5 -2.5t-10.5 -0.5q-10 0 -18.5 1.5t-11.5 3.5q-25 19 -38.5 40t-15.5 44q-2 27 11 64t43 89zM771 866q-1 0 -2.5 1t-3.5 2q-14 16 -34.5 34t-57.5 47q-18 14 -24 19t-9 8q-7 8 -11 21t-2 21q2 10 11.5 16.5t21.5 6.5
q10 0 19.5 -7t17.5 -21q2 -3 4.5 -8t8.5 -19q21 -42 35 -67.5t28 -44.5q1 -1 1.5 -2t0.5 -3t-1 -3t-3 -1z" />
    <glyph glyph-name="Uacute" unicode="&#xda;" horiz-adv-x="964" 
d="M99 0zM638 201q-85 -96 -191 -171t-166 -75q-72 0 -124.5 57t-57.5 139q-3 56 27.5 123.5t143.5 216.5q15 20 44.5 59t43.5 57q36 49 50 78t13 49q-1 13 -8.5 27t-20.5 27q-21 -6 -95.5 -57.5t-108.5 -80.5l-6 7q39 34 129.5 99t128.5 85q4 1 9.5 2t11.5 1q9 0 17.5 -2
t11.5 -4q16 -13 27.5 -35t14.5 -48q4 -32 -25 -86t-138 -197q-108 -143 -137.5 -203t-26.5 -104q5 -65 45 -110.5t97 -45.5q48 0 148.5 76t161.5 148q10 15 22 34t38 60q32 48 48.5 74t30.5 49q11 18 23 36.5t65 100.5q44 68 55 93.5t9 51.5q-1 13 -8.5 27.5t-20.5 26.5
q-20 -6 -94.5 -57t-107.5 -79l-6 7q40 34 128 99t126 84q5 2 10 3t10 1q10 0 18.5 -2t10.5 -4q17 -14 28.5 -36t14.5 -47q4 -36 -18 -84.5t-141 -234.5q-13 -19 -53 -80.5t-59 -92.5q-49 -77 -68 -118t-18 -66q1 -18 13 -35t25 -19q20 5 77.5 48.5t108.5 89.5l5 -7
q-131 -117 -174 -149.5t-69 -44.5q-3 -2 -7.5 -2.5t-10.5 -0.5q-10 0 -18.5 1.5t-11.5 3.5q-25 19 -38.5 40t-15.5 44q-2 27 11 64t43 89zM830 1028q8 7 17 10.5t19 3.5q11 0 20 -11.5t6 -20.5t-7.5 -16.5t-10.5 -11.5q-4 -3 -13.5 -9t-35.5 -20q-55 -32 -84 -50.5
t-51 -35.5q-1 -1 -2.5 -1.5t-3.5 -0.5t-3.5 1.5t-1.5 3.5q0 1 2 2.5t3 2.5q23 18 49.5 45.5t69.5 77.5q14 16 19 22t8 8z" />
    <glyph glyph-name="Ucircumflex" unicode="&#xdb;" horiz-adv-x="964" 
d="M99 0zM638 201q-85 -96 -191 -171t-166 -75q-72 0 -124.5 57t-57.5 139q-3 56 27.5 123.5t143.5 216.5q15 20 44.5 59t43.5 57q36 49 50 78t13 49q-1 13 -8.5 27t-20.5 27q-21 -6 -95.5 -57.5t-108.5 -80.5l-6 7q39 34 129.5 99t128.5 85q4 1 9.5 2t11.5 1q9 0 17.5 -2
t11.5 -4q16 -13 27.5 -35t14.5 -48q4 -32 -25 -86t-138 -197q-108 -143 -137.5 -203t-26.5 -104q5 -65 45 -110.5t97 -45.5q48 0 148.5 76t161.5 148q10 15 22 34t38 60q32 48 48.5 74t30.5 49q11 18 23 36.5t65 100.5q44 68 55 93.5t9 51.5q-1 13 -8.5 27.5t-20.5 26.5
q-20 -6 -94.5 -57t-107.5 -79l-6 7q40 34 128 99t126 84q5 2 10 3t10 1q10 0 18.5 -2t10.5 -4q17 -14 28.5 -36t14.5 -47q4 -36 -18 -84.5t-141 -234.5q-13 -19 -53 -80.5t-59 -92.5q-49 -77 -68 -118t-18 -66q1 -18 13 -35t25 -19q20 5 77.5 48.5t108.5 89.5l5 -7
q-131 -117 -174 -149.5t-69 -44.5q-3 -2 -7.5 -2.5t-10.5 -0.5q-10 0 -18.5 1.5t-11.5 3.5q-25 19 -38.5 40t-15.5 44q-2 27 11 64t43 89zM899 881q0 -11 -9.5 -17.5t-24.5 -6.5q-22 0 -31.5 6.5t-9.5 21.5q0 46 -3 74t-9 49q-1 3 -2.5 4t-4.5 -1q-27 -17 -50 -37.5
t-64 -67.5q-9 -11 -22.5 -16.5t-30.5 -5.5q-15 0 -23 5.5t-8 15.5q0 22 59.5 55t138.5 58q5 2 7.5 1t5.5 -4q33 -34 57 -73.5t24 -60.5z" />
    <glyph glyph-name="Udieresis" unicode="&#xdc;" horiz-adv-x="964" 
d="M99 0zM638 201q-85 -96 -191 -171t-166 -75q-72 0 -124.5 57t-57.5 139q-3 56 27.5 123.5t143.5 216.5q15 20 44.5 59t43.5 57q36 49 50 78t13 49q-1 13 -8.5 27t-20.5 27q-21 -6 -95.5 -57.5t-108.5 -80.5l-6 7q39 34 129.5 99t128.5 85q4 1 9.5 2t11.5 1q9 0 17.5 -2
t11.5 -4q16 -13 27.5 -35t14.5 -48q4 -32 -25 -86t-138 -197q-108 -143 -137.5 -203t-26.5 -104q5 -65 45 -110.5t97 -45.5q48 0 148.5 76t161.5 148q10 15 22 34t38 60q32 48 48.5 74t30.5 49q11 18 23 36.5t65 100.5q44 68 55 93.5t9 51.5q-1 13 -8.5 27.5t-20.5 26.5
q-20 -6 -94.5 -57t-107.5 -79l-6 7q40 34 128 99t126 84q5 2 10 3t10 1q10 0 18.5 -2t10.5 -4q17 -14 28.5 -36t14.5 -47q4 -36 -18 -84.5t-141 -234.5q-13 -19 -53 -80.5t-59 -92.5q-49 -77 -68 -118t-18 -66q1 -18 13 -35t25 -19q20 5 77.5 48.5t108.5 89.5l5 -7
q-131 -117 -174 -149.5t-69 -44.5q-3 -2 -7.5 -2.5t-10.5 -0.5q-10 0 -18.5 1.5t-11.5 3.5q-25 19 -38.5 40t-15.5 44q-2 27 11 64t43 89zM839 899q-16 0 -23 1.5t-13 6.5q-5 17 13.5 55.5t34.5 46.5q6 3 19 5.5t26 2.5q15 0 29 -3.5t18 -9.5q1 -22 -26 -57t-46 -43
q-6 -3 -14 -4t-18 -1zM640 899q-16 0 -23 1.5t-12 6.5q-5 16 12.5 55t34.5 47q6 4 19 6t27 2q15 0 29 -4t17 -9q1 -22 -26 -56.5t-46 -43.5q-5 -2 -13 -3.5t-19 -1.5z" />
    <glyph glyph-name="Yacute" unicode="&#xdd;" horiz-adv-x="671" 
d="M0 0zM496 5q-6 -4 -68 -2.5t-90 1.5q-49 0 -106 -1t-151 -3q-40 -1 -54.5 -1h-22.5q-9 0 -15 2.5t-9 6.5q-1 9 22.5 36t37.5 33q2 1 4 1.5t7 0.5q3 0 8 -0.5t19 -1.5q21 -2 32 -3t19 -1q37 0 68.5 7.5t57.5 22.5q35 21 64.5 59t79.5 137l13.5 27t22.5 47q12 26 18.5 39.5
t12.5 25.5q-23 105 -48 174t-53 108q-10 14 -26 23.5t-33 13.5q-25 -8 -93 -50t-101 -70l-5 7q53 41 139 100t127 81q3 2 8 3t10 1t9.5 -1t8.5 -3q13 -8 27 -22.5t21 -27.5q35 -64 61 -144t43 -179q13 11 32 27t20 17q70 57 133 113.5t112 105.5q69 66 116 112.5t75 77.5
q7 5 15.5 8t16.5 3q16 0 26 -10t10 -26q0 -14 -7 -25.5t-22 -21.5q-57 -38 -109.5 -74.5t-95.5 -67.5q-94 -70 -153.5 -116.5t-108.5 -87.5q-10 -9 -24.5 -22t-39.5 -36q-5 -10 -10 -21.5t-16 -34.5q-18 -41 -28 -62t-19 -39q-47 -88 -109 -131t-178 -70q9 -1 21 -2t26 -1
q27 0 67.5 3.5t127.5 13.5q67 8 92.5 10t38.5 2q2 0 1.5 -1.5t-0.5 -3.5q0 -18 -26.5 -51t-48.5 -36zM819 1044q8 7 17 10.5t19 3.5q11 0 20 -11.5t6 -20.5t-7.5 -16.5t-10.5 -11.5q-4 -3 -13.5 -9t-35.5 -20q-55 -32 -84 -50.5t-51 -35.5q-1 -1 -2.5 -1.5t-3.5 -0.5
t-3.5 1.5t-1.5 3.5q0 1 2 2.5t3 2.5q23 18 49.5 45.5t69.5 77.5q14 16 19 22t8 8z" />
    <glyph glyph-name="Thorn" unicode="&#xde;" horiz-adv-x="1019" 
d="M419 247q2 5 26.5 67.5t43.5 107.5q65 147 131.5 229t150.5 118l-28.5 1.5t-17.5 0.5q-38 0 -88.5 -6t-143.5 -23q-48 -8 -65.5 -10.5t-26.5 -2.5q-14 0 19 41.5t53 49.5q10 5 94.5 2.5t100.5 -2.5q37 0 99 1.5t179 5.5q39 1 51 1.5t16 0.5q23 0 38.5 -3.5t20.5 -10.5
q1 -9 -17 -32t-35 -34q-7 -2 -23 -1t-59 8q-48 7 -72 9.5t-42 2.5q-24 0 -43 -5t-34 -16q-22 -16 -39.5 -46t-46.5 -111q-26 -73 -39 -106.5t-26 -64.5q-8 -20 -15.5 -36t-15.5 -31q107 125 227 233t165 115q40 -33 62 -81.5t22 -102.5q0 -66 -29 -129.5t-81 -112.5
q-50 -47 -114.5 -72.5t-134.5 -25.5q-50 0 -97.5 14t-91.5 42q-45 -62 -95.5 -105t-105.5 -66q7 -2 17 -3t27 -1q27 0 76 4t165 16q101 10 139.5 13t56.5 3q9 0 1 -22t-26 -41q-14 -15 -30.5 -22.5t-33.5 -7.5l-227 5q-73 0 -159.5 -1.5t-207.5 -5.5q-25 -1 -32.5 -1h-10.5
q-22 0 -37.5 4t-21.5 11q-1 11 23 39.5t38 32.5q6 2 18.5 0.5t46.5 -8.5q42 -8 64 -11t40 -3q40 0 63.5 6t41.5 20q26 21 47 55t49 104zM949 449q0 58 -20.5 106t-58.5 81q-52 -35 -156 -136.5t-170 -193.5q43 -46 101.5 -74.5t112.5 -28.5q84 0 137.5 71t53.5 175z" />
    <glyph glyph-name="germandbls" unicode="&#xdf;" horiz-adv-x="648" 
d="M283 583q78 104 182.5 168.5t198.5 64.5q72 0 110.5 -41t22.5 -98q-7 -31 -29.5 -55t-65.5 -46q-20 -10 -65.5 -29t-66.5 -31q-46 -25 -62.5 -42.5t-22.5 -39.5q-6 -24 0.5 -54.5t30.5 -79.5q19 -39 28.5 -74t9.5 -65q0 -43 -19.5 -77.5t-56.5 -57.5q-30 -19 -62.5 -28.5
t-67.5 -9.5q-38 -1 -68 12.5t-43 37.5q-19 33 0 75t60 55l4 -3q3 -34 17.5 -65t36.5 -51q24 -23 51.5 -28.5t54.5 6.5q13 7 19.5 18.5t6.5 28.5q0 21 -9 50.5t-46 111.5q-13 33 -16.5 65.5t3.5 63.5q7 43 36 77t107 79q85 48 111 77t33 65q17 54 -13.5 92.5t-91.5 38.5
q-63 0 -121 -57t-132 -189q-32 -57 -64.5 -118.5t-89.5 -173.5q-57 -110 -86.5 -166t-58.5 -106q-64 -112 -155.5 -177t-175.5 -65q-52 0 -82 22t-30 61q0 34 25.5 59t65.5 30l2 -1q-2 -15 -1.5 -36.5t4.5 -39.5q8 -33 26.5 -53t43.5 -20q42 0 76.5 41t104.5 169
q13 24 34 63.5t70 135.5q58 115 86.5 169t49.5 92h-76q-6 1 -6.5 5.5t3.5 6.5l131 81q16 25 24 36t14 20z" />
    <glyph glyph-name="agrave" unicode="&#xe0;" horiz-adv-x="592" 
d="M22 0zM105 5q-6 -3 -13 -5.5t-12 -2.5q-6 0 -11.5 1t-8.5 3q-37 25 -37.5 97.5t33.5 152.5q29 66 89 125.5t134 95.5q35 19 66.5 29t55.5 10q44 0 73.5 -17t59.5 -58q10 7 30 23l55 44q5 5 8 4t2 -7q-80 -99 -154 -227.5t-70 -178.5q2 -14 12 -26t24 -16q20 8 53 34
t63 57l6 -7q-68 -68 -97.5 -91.5t-58.5 -40.5q-3 -1 -11 -2t-19 -1t-22.5 1.5t-13.5 2.5q-18 16 -28.5 37t-11.5 42q-2 20 6 45t27 57q12 20 33.5 51.5t26.5 39.5q-48 -53 -103.5 -108.5t-98.5 -94.5q-45 -40 -59.5 -51t-27.5 -18zM153 280q-23 -69 -25.5 -128.5t17.5 -80.5
q8 -1 23 7t32 22q50 39 124.5 115.5t139.5 155.5q-36 55 -68.5 81.5t-66.5 26.5q-12 0 -22.5 -3t-21.5 -9q-39 -21 -75.5 -72.5t-56.5 -114.5zM472 558q-1 0 -2.5 1t-3.5 2q-14 16 -34.5 34t-57.5 47q-18 14 -24 19t-9 8q-7 8 -11 21t-2 21q2 10 11.5 16.5t21.5 6.5
q10 0 19.5 -7t17.5 -21q2 -3 4.5 -8t8.5 -19q21 -42 35 -67.5t28 -44.5q1 -1 1.5 -2t0.5 -3t-1 -3t-3 -1z" />
    <glyph glyph-name="aacute" unicode="&#xe1;" horiz-adv-x="592" 
d="M22 0zM105 5q-6 -3 -13 -5.5t-12 -2.5q-6 0 -11.5 1t-8.5 3q-37 25 -37.5 97.5t33.5 152.5q29 66 89 125.5t134 95.5q35 19 66.5 29t55.5 10q44 0 73.5 -17t59.5 -58q10 7 30 23l55 44q5 5 8 4t2 -7q-80 -99 -154 -227.5t-70 -178.5q2 -14 12 -26t24 -16q20 8 53 34
t63 57l6 -7q-68 -68 -97.5 -91.5t-58.5 -40.5q-3 -1 -11 -2t-19 -1t-22.5 1.5t-13.5 2.5q-18 16 -28.5 37t-11.5 42q-2 20 6 45t27 57q12 20 33.5 51.5t26.5 39.5q-48 -53 -103.5 -108.5t-98.5 -94.5q-45 -40 -59.5 -51t-27.5 -18zM153 280q-23 -69 -25.5 -128.5t17.5 -80.5
q8 -1 23 7t32 22q50 39 124.5 115.5t139.5 155.5q-36 55 -68.5 81.5t-66.5 26.5q-12 0 -22.5 -3t-21.5 -9q-39 -21 -75.5 -72.5t-56.5 -114.5zM531 720q8 7 17 10.5t19 3.5q11 0 20 -11.5t6 -20.5t-7.5 -16.5t-10.5 -11.5q-4 -3 -13.5 -9t-35.5 -20q-55 -32 -84 -50.5
t-51 -35.5q-1 -1 -2.5 -1.5t-3.5 -0.5t-3.5 1.5t-1.5 3.5q0 1 2 2.5t3 2.5q23 18 49.5 45.5t69.5 77.5q14 16 19 22t8 8z" />
    <glyph glyph-name="acircumflex" unicode="&#xe2;" horiz-adv-x="592" 
d="M22 0zM105 5q-6 -3 -13 -5.5t-12 -2.5q-6 0 -11.5 1t-8.5 3q-37 25 -37.5 97.5t33.5 152.5q29 66 89 125.5t134 95.5q35 19 66.5 29t55.5 10q44 0 73.5 -17t59.5 -58q10 7 30 23l55 44q5 5 8 4t2 -7q-80 -99 -154 -227.5t-70 -178.5q2 -14 12 -26t24 -16q20 8 53 34
t63 57l6 -7q-68 -68 -97.5 -91.5t-58.5 -40.5q-3 -1 -11 -2t-19 -1t-22.5 1.5t-13.5 2.5q-18 16 -28.5 37t-11.5 42q-2 20 6 45t27 57q12 20 33.5 51.5t26.5 39.5q-48 -53 -103.5 -108.5t-98.5 -94.5q-45 -40 -59.5 -51t-27.5 -18zM153 280q-23 -69 -25.5 -128.5t17.5 -80.5
q8 -1 23 7t32 22q50 39 124.5 115.5t139.5 155.5q-36 55 -68.5 81.5t-66.5 26.5q-12 0 -22.5 -3t-21.5 -9q-39 -21 -75.5 -72.5t-56.5 -114.5zM600 573q0 -11 -9.5 -17.5t-24.5 -6.5q-22 0 -31.5 6.5t-9.5 21.5q0 46 -3 74t-9 49q-1 3 -2.5 4t-4.5 -1q-27 -17 -50 -37.5
t-64 -67.5q-9 -11 -22.5 -16.5t-30.5 -5.5q-15 0 -23 5.5t-8 15.5q0 22 59.5 55t138.5 58q5 2 7.5 1t5.5 -4q33 -34 57 -73.5t24 -60.5z" />
    <glyph glyph-name="atilde" unicode="&#xe3;" horiz-adv-x="592" 
d="M22 0zM105 5q-6 -3 -13 -5.5t-12 -2.5q-6 0 -11.5 1t-8.5 3q-37 25 -37.5 97.5t33.5 152.5q29 66 89 125.5t134 95.5q35 19 66.5 29t55.5 10q44 0 73.5 -17t59.5 -58q10 7 30 23l55 44q5 5 8 4t2 -7q-80 -99 -154 -227.5t-70 -178.5q2 -14 12 -26t24 -16q20 8 53 34
t63 57l6 -7q-68 -68 -97.5 -91.5t-58.5 -40.5q-3 -1 -11 -2t-19 -1t-22.5 1.5t-13.5 2.5q-18 16 -28.5 37t-11.5 42q-2 20 6 45t27 57q12 20 33.5 51.5t26.5 39.5q-48 -53 -103.5 -108.5t-98.5 -94.5q-45 -40 -59.5 -51t-27.5 -18zM153 280q-23 -69 -25.5 -128.5t17.5 -80.5
q8 -1 23 7t32 22q50 39 124.5 115.5t139.5 155.5q-36 55 -68.5 81.5t-66.5 26.5q-12 0 -22.5 -3t-21.5 -9q-39 -21 -75.5 -72.5t-56.5 -114.5zM286 575q-2 -4 -6.5 -1.5t-0.5 6.5q31 48 64 73.5t63 25.5q11 0 26.5 -2.5t50.5 -10.5q34 -8 49.5 -10.5t25.5 -2.5q19 0 33 16.5
t28 53.5q2 5 7 3.5t3 -6.5q-21 -58 -56 -94t-69 -36q-15 0 -34.5 3.5t-57.5 13.5q-30 8 -43 10.5t-22 2.5q-18 0 -31.5 -10t-29.5 -35z" />
    <glyph glyph-name="adieresis" unicode="&#xe4;" horiz-adv-x="592" 
d="M22 0zM105 5q-6 -3 -13 -5.5t-12 -2.5q-6 0 -11.5 1t-8.5 3q-37 25 -37.5 97.5t33.5 152.5q29 66 89 125.5t134 95.5q35 19 66.5 29t55.5 10q44 0 73.5 -17t59.5 -58q10 7 30 23l55 44q5 5 8 4t2 -7q-80 -99 -154 -227.5t-70 -178.5q2 -14 12 -26t24 -16q20 8 53 34
t63 57l6 -7q-68 -68 -97.5 -91.5t-58.5 -40.5q-3 -1 -11 -2t-19 -1t-22.5 1.5t-13.5 2.5q-18 16 -28.5 37t-11.5 42q-2 20 6 45t27 57q12 20 33.5 51.5t26.5 39.5q-48 -53 -103.5 -108.5t-98.5 -94.5q-45 -40 -59.5 -51t-27.5 -18zM153 280q-23 -69 -25.5 -128.5t17.5 -80.5
q8 -1 23 7t32 22q50 39 124.5 115.5t139.5 155.5q-36 55 -68.5 81.5t-66.5 26.5q-12 0 -22.5 -3t-21.5 -9q-39 -21 -75.5 -72.5t-56.5 -114.5zM541 591q-16 0 -23 1.5t-13 6.5q-5 17 13.5 55.5t34.5 46.5q6 3 19 5.5t26 2.5q15 0 29 -3.5t18 -9.5q1 -22 -26 -57t-46 -43
q-6 -3 -14 -4t-18 -1zM342 591q-16 0 -23 1.5t-12 6.5q-5 16 12.5 55t34.5 47q6 4 19 6t27 2q15 0 29 -4t17 -9q1 -22 -26 -56.5t-46 -43.5q-5 -2 -13 -3.5t-19 -1.5z" />
    <glyph glyph-name="aring" unicode="&#xe5;" horiz-adv-x="592" 
d="M22 0zM105 5q-6 -3 -13 -5.5t-12 -2.5q-6 0 -11.5 1t-8.5 3q-37 25 -37.5 97.5t33.5 152.5q29 66 89 125.5t134 95.5q35 19 66.5 29t55.5 10q44 0 73.5 -17t59.5 -58q10 7 30 23l55 44q5 5 8 4t2 -7q-80 -99 -154 -227.5t-70 -178.5q2 -14 12 -26t24 -16q20 8 53 34
t63 57l6 -7q-68 -68 -97.5 -91.5t-58.5 -40.5q-3 -1 -11 -2t-19 -1t-22.5 1.5t-13.5 2.5q-18 16 -28.5 37t-11.5 42q-2 20 6 45t27 57q12 20 33.5 51.5t26.5 39.5q-48 -53 -103.5 -108.5t-98.5 -94.5q-45 -40 -59.5 -51t-27.5 -18zM153 280q-23 -69 -25.5 -128.5t17.5 -80.5
q8 -1 23 7t32 22q50 39 124.5 115.5t139.5 155.5q-36 55 -68.5 81.5t-66.5 26.5q-12 0 -22.5 -3t-21.5 -9q-39 -21 -75.5 -72.5t-56.5 -114.5zM457 556q-39 0 -66 27t-27 65q0 39 27.5 66.5t65.5 27.5q39 0 66.5 -27.5t27.5 -66.5q0 -38 -27.5 -65t-66.5 -27zM457 728
q-32 0 -54.5 -23.5t-22.5 -56.5q0 -32 22.5 -55t54.5 -23q33 0 55.5 22.5t22.5 55.5t-22.5 56.5t-55.5 23.5z" />
    <glyph glyph-name="ae" unicode="&#xe6;" horiz-adv-x="784" 
d="M60 1q-37 25 -37.5 97.5t33.5 152.5q29 66 89 125.5t134 95.5q35 19 66.5 29t55.5 10q40 0 67.5 -15.5t56.5 -53.5q9 7 18 13t18 11q42 25 75.5 36.5t62.5 11.5q42 0 65.5 -17t23.5 -46q0 -41 -51.5 -90t-170.5 -121q-31 -20 -63.5 -39.5t-67.5 -38.5q0 -5 0.5 -10.5
t1.5 -17.5q9 -38 31 -57.5t56 -19.5q22 0 46 6.5t44 18.5q22 12 55 42t54 57l9 -5q-30 -37 -71.5 -74.5t-77.5 -58.5q-48 -29 -78 -39.5t-59 -10.5q-35 0 -66 23.5t-42 59.5q-11 39 -6 79t26 86q-34 -38 -77 -81t-90 -86q-29 -26 -49 -42.5t-36 -28.5q-4 -3 -10.5 -4.5
t-13.5 -1.5q-6 0 -13 1t-9 3zM199 100q53 42 127.5 125t123.5 154q-30 51 -60 75.5t-61 24.5q-12 0 -22.5 -3t-21.5 -9q-39 -21 -75.5 -72.5t-56.5 -114.5q-23 -69 -25.5 -128.5t17.5 -80.5q8 -1 22.5 7t31.5 22zM575 464q-20 -13 -44 -45.5t-46 -75.5q-22 -38 -35 -83
t-14 -88q39 23 69.5 41.5t54.5 34.5q61 40 88 65t36 49q3 5 4.5 13t1.5 15q1 33 -24 57t-59 24q-7 0 -15.5 -2t-16.5 -5z" />
    <glyph glyph-name="ccedilla" unicode="&#xe7;" horiz-adv-x="485" 
d="M157 -7h-5h-5q-41 0 -72.5 22t-41.5 59q-14 54 -4.5 103.5t41.5 105.5q26 48 82 98.5t124 89.5q40 23 74 34t67 11q43 0 68 -19.5t25 -52.5q0 -29 -24.5 -51t-55.5 -24q-13 52 -39 78.5t-64 26.5q-12 0 -22.5 -2t-23.5 -7q-28 -19 -53 -47.5t-46 -65.5
q-30 -52 -43.5 -109.5t-5.5 -108.5q5 -32 24.5 -51t51.5 -24q24 -3 53 2.5t53 18.5q23 13 55 40.5t52 54.5l9 -5q-29 -37 -67.5 -70.5t-76.5 -56.5q-41 -25 -66.5 -35t-50.5 -13q-21 -21 -35 -36t-28 -31q-1 -2 -0.5 -3t6.5 -1q58 3 87.5 -23.5t17.5 -70.5q-12 -42 -57 -72
t-97 -30q-33 0 -54 11.5t-19 28.5q1 12 19.5 22t36.5 10q10 0 17.5 -4t16.5 -18q11 -15 20 -19.5t22 -4.5q18 0 34.5 12.5t20.5 29.5q9 37 -24 59t-94 12q-5 -1 -9 -3.5t-9 -8.5q-4 -4 -6.5 -5.5t-5.5 -1.5q-8 0 -7 5.5t11 15.5q12 11 28 27t95 97z" />
    <glyph glyph-name="egrave" unicode="&#xe8;" horiz-adv-x="486" 
d="M23 0zM281 43q-46 -28 -77.5 -39t-62.5 -11q-36 0 -68 23.5t-43 59.5q-13 48 -2.5 97.5t43.5 109.5q26 47 79 98.5t109 84.5q44 25 78 36.5t64 11.5q42 0 65.5 -17t23.5 -46q0 -41 -51.5 -90t-170.5 -121q-30 -19 -65.5 -40t-74.5 -43q0 -5 0.5 -9.5l1.5 -13.5
q7 -38 31 -57.5t62 -19.5q21 0 44.5 6.5t45.5 18.5q23 13 57.5 42.5t54.5 56.5l9 -5q-29 -36 -71 -72.5t-82 -60.5zM274 464q-22 -14 -48 -46.5t-48 -74.5q-23 -42 -36 -88.5t-14 -88.5q40 23 73.5 43.5t60.5 38.5q58 38 86.5 65t38.5 52q3 5 4 11t1 14q0 33 -25.5 57
t-60.5 24q-7 0 -15 -1.5t-17 -5.5zM448 558q-1 0 -2.5 1t-3.5 2q-14 16 -34.5 34t-57.5 47q-18 14 -24 19t-9 8q-7 8 -11 21t-2 21q2 10 11.5 16.5t21.5 6.5q10 0 19.5 -7t17.5 -21q2 -3 4.5 -8t8.5 -19q21 -42 35 -67.5t28 -44.5q1 -1 1.5 -2t0.5 -3t-1 -3t-3 -1z" />
    <glyph glyph-name="eacute" unicode="&#xe9;" horiz-adv-x="486" 
d="M23 0zM281 43q-46 -28 -77.5 -39t-62.5 -11q-36 0 -68 23.5t-43 59.5q-13 48 -2.5 97.5t43.5 109.5q26 47 79 98.5t109 84.5q44 25 78 36.5t64 11.5q42 0 65.5 -17t23.5 -46q0 -41 -51.5 -90t-170.5 -121q-30 -19 -65.5 -40t-74.5 -43q0 -5 0.5 -9.5l1.5 -13.5
q7 -38 31 -57.5t62 -19.5q21 0 44.5 6.5t45.5 18.5q23 13 57.5 42.5t54.5 56.5l9 -5q-29 -36 -71 -72.5t-82 -60.5zM274 464q-22 -14 -48 -46.5t-48 -74.5q-23 -42 -36 -88.5t-14 -88.5q40 23 73.5 43.5t60.5 38.5q58 38 86.5 65t38.5 52q3 5 4 11t1 14q0 33 -25.5 57
t-60.5 24q-7 0 -15 -1.5t-17 -5.5zM522 720q8 7 17 10.5t19 3.5q11 0 20 -11.5t6 -20.5t-7.5 -16.5t-10.5 -11.5q-4 -3 -13.5 -9t-35.5 -20q-55 -32 -84 -50.5t-51 -35.5q-1 -1 -2.5 -1.5t-3.5 -0.5t-3.5 1.5t-1.5 3.5q0 1 2 2.5t3 2.5q23 18 49.5 45.5t69.5 77.5
q14 16 19 22t8 8z" />
    <glyph glyph-name="ecircumflex" unicode="&#xea;" horiz-adv-x="486" 
d="M23 0zM281 43q-46 -28 -77.5 -39t-62.5 -11q-36 0 -68 23.5t-43 59.5q-13 48 -2.5 97.5t43.5 109.5q26 47 79 98.5t109 84.5q44 25 78 36.5t64 11.5q42 0 65.5 -17t23.5 -46q0 -41 -51.5 -90t-170.5 -121q-30 -19 -65.5 -40t-74.5 -43q0 -5 0.5 -9.5l1.5 -13.5
q7 -38 31 -57.5t62 -19.5q21 0 44.5 6.5t45.5 18.5q23 13 57.5 42.5t54.5 56.5l9 -5q-29 -36 -71 -72.5t-82 -60.5zM274 464q-22 -14 -48 -46.5t-48 -74.5q-23 -42 -36 -88.5t-14 -88.5q40 23 73.5 43.5t60.5 38.5q58 38 86.5 65t38.5 52q3 5 4 11t1 14q0 33 -25.5 57
t-60.5 24q-7 0 -15 -1.5t-17 -5.5zM589 573q0 -11 -9.5 -17.5t-24.5 -6.5q-22 0 -31.5 6.5t-9.5 21.5q0 46 -3 74t-9 49q-1 3 -2.5 4t-4.5 -1q-27 -17 -50 -37.5t-64 -67.5q-9 -11 -22.5 -16.5t-30.5 -5.5q-15 0 -23 5.5t-8 15.5q0 22 59.5 55t138.5 58q5 2 7.5 1t5.5 -4
q33 -34 57 -73.5t24 -60.5z" />
    <glyph glyph-name="edieresis" unicode="&#xeb;" horiz-adv-x="486" 
d="M23 0zM281 43q-46 -28 -77.5 -39t-62.5 -11q-36 0 -68 23.5t-43 59.5q-13 48 -2.5 97.5t43.5 109.5q26 47 79 98.5t109 84.5q44 25 78 36.5t64 11.5q42 0 65.5 -17t23.5 -46q0 -41 -51.5 -90t-170.5 -121q-30 -19 -65.5 -40t-74.5 -43q0 -5 0.5 -9.5l1.5 -13.5
q7 -38 31 -57.5t62 -19.5q21 0 44.5 6.5t45.5 18.5q23 13 57.5 42.5t54.5 56.5l9 -5q-29 -36 -71 -72.5t-82 -60.5zM274 464q-22 -14 -48 -46.5t-48 -74.5q-23 -42 -36 -88.5t-14 -88.5q40 23 73.5 43.5t60.5 38.5q58 38 86.5 65t38.5 52q3 5 4 11t1 14q0 33 -25.5 57
t-60.5 24q-7 0 -15 -1.5t-17 -5.5zM525 591q-16 0 -23 1.5t-13 6.5q-5 17 13.5 55.5t34.5 46.5q6 3 19 5.5t26 2.5q15 0 29 -3.5t18 -9.5q1 -22 -26 -57t-46 -43q-6 -3 -14 -4t-18 -1zM326 591q-16 0 -23 1.5t-12 6.5q-5 16 12.5 55t34.5 47q6 4 19 6t27 2q15 0 29 -4t17 -9
q1 -22 -26 -56.5t-46 -43.5q-5 -2 -13 -3.5t-19 -1.5z" />
    <glyph glyph-name="igrave" unicode="&#xec;" horiz-adv-x="319" 
d="M14 0zM125 3q-4 -3 -11.5 -4t-20.5 -1t-21.5 1.5t-12.5 4.5q-19 13 -31.5 34t-13.5 41q-1 19 13 51t76 128q10 16 26.5 41.5t23.5 35.5q20 32 29 49.5t13 31.5q2 14 -6.5 26.5t-21.5 15.5q-20 -7 -55 -33t-63 -55l-7 5q28 30 75.5 68.5t84.5 61.5q10 7 20.5 9.5t23.5 0.5
q20 -5 39.5 -34.5t20.5 -55.5q0 -14 -10.5 -36.5t-35.5 -58.5q-9 -13 -30 -42.5t-31 -45.5q-59 -90 -70 -115t-10 -41q1 -12 11.5 -22t26.5 -15q21 7 54 33t66 61l6 -7q-65 -65 -97 -91t-61 -42zM346 558q-1 0 -2.5 1t-3.5 2q-14 16 -34.5 34t-57.5 47q-18 14 -24 19t-9 8
q-7 8 -11 21t-2 21q2 10 11.5 16.5t21.5 6.5q10 0 19.5 -7t17.5 -21q2 -3 4.5 -8t8.5 -19q21 -42 35 -67.5t28 -44.5q1 -1 1.5 -2t0.5 -3t-1 -3t-3 -1z" />
    <glyph glyph-name="iacute" unicode="&#xed;" horiz-adv-x="319" 
d="M14 0zM125 3q-4 -3 -11.5 -4t-20.5 -1t-21.5 1.5t-12.5 4.5q-19 13 -31.5 34t-13.5 41q-1 19 13 51t76 128q10 16 26.5 41.5t23.5 35.5q20 32 29 49.5t13 31.5q2 14 -6.5 26.5t-21.5 15.5q-20 -7 -55 -33t-63 -55l-7 5q28 30 75.5 68.5t84.5 61.5q10 7 20.5 9.5t23.5 0.5
q20 -5 39.5 -34.5t20.5 -55.5q0 -14 -10.5 -36.5t-35.5 -58.5q-9 -13 -30 -42.5t-31 -45.5q-59 -90 -70 -115t-10 -41q1 -12 11.5 -22t26.5 -15q21 7 54 33t66 61l6 -7q-65 -65 -97 -91t-61 -42zM405 720q8 7 17 10.5t19 3.5q11 0 20 -11.5t6 -20.5t-7.5 -16.5t-10.5 -11.5
q-4 -3 -13.5 -9t-35.5 -20q-55 -32 -84 -50.5t-51 -35.5q-1 -1 -2.5 -1.5t-3.5 -0.5t-3.5 1.5t-1.5 3.5q0 1 2 2.5t3 2.5q23 18 49.5 45.5t69.5 77.5q14 16 19 22t8 8z" />
    <glyph glyph-name="icircumflex" unicode="&#xee;" horiz-adv-x="319" 
d="M14 0zM125 3q-4 -3 -11.5 -4t-20.5 -1t-21.5 1.5t-12.5 4.5q-19 13 -31.5 34t-13.5 41q-1 19 13 51t76 128q10 16 26.5 41.5t23.5 35.5q20 32 29 49.5t13 31.5q2 14 -6.5 26.5t-21.5 15.5q-20 -7 -55 -33t-63 -55l-7 5q28 30 75.5 68.5t84.5 61.5q10 7 20.5 9.5t23.5 0.5
q20 -5 39.5 -34.5t20.5 -55.5q0 -14 -10.5 -36.5t-35.5 -58.5q-9 -13 -30 -42.5t-31 -45.5q-59 -90 -70 -115t-10 -41q1 -12 11.5 -22t26.5 -15q21 7 54 33t66 61l6 -7q-65 -65 -97 -91t-61 -42zM474 573q0 -11 -9.5 -17.5t-24.5 -6.5q-22 0 -31.5 6.5t-9.5 21.5q0 46 -3 74
t-9 49q-1 3 -2.5 4t-4.5 -1q-27 -17 -50 -37.5t-64 -67.5q-9 -11 -22.5 -16.5t-30.5 -5.5q-15 0 -23 5.5t-8 15.5q0 22 59.5 55t138.5 58q5 2 7.5 1t5.5 -4q33 -34 57 -73.5t24 -60.5z" />
    <glyph glyph-name="idieresis" unicode="&#xef;" horiz-adv-x="319" 
d="M14 0zM125 3q-4 -3 -11.5 -4t-20.5 -1t-21.5 1.5t-12.5 4.5q-19 13 -31.5 34t-13.5 41q-1 19 13 51t76 128q10 16 26.5 41.5t23.5 35.5q20 32 29 49.5t13 31.5q2 14 -6.5 26.5t-21.5 15.5q-20 -7 -55 -33t-63 -55l-7 5q28 30 75.5 68.5t84.5 61.5q10 7 20.5 9.5t23.5 0.5
q20 -5 39.5 -34.5t20.5 -55.5q0 -14 -10.5 -36.5t-35.5 -58.5q-9 -13 -30 -42.5t-31 -45.5q-59 -90 -70 -115t-10 -41q1 -12 11.5 -22t26.5 -15q21 7 54 33t66 61l6 -7q-65 -65 -97 -91t-61 -42zM414 591q-16 0 -23 1.5t-13 6.5q-5 17 13.5 55.5t34.5 46.5q6 3 19 5.5
t26 2.5q15 0 29 -3.5t18 -9.5q1 -22 -26 -57t-46 -43q-6 -3 -14 -4t-18 -1zM215 591q-16 0 -23 1.5t-12 6.5q-5 16 12.5 55t34.5 47q6 4 19 6t27 2q15 0 29 -4t17 -9q1 -22 -26 -56.5t-46 -43.5q-5 -2 -13 -3.5t-19 -1.5z" />
    <glyph glyph-name="eth" unicode="&#xf0;" horiz-adv-x="526" 
d="M280 50q-61 -38 -87 -47.5t-48 -9.5q-42 0 -74.5 24.5t-42.5 63.5q-11 49 1 101.5t48 113.5q23 40 65 83.5t87 75.5q39 28 73.5 43.5t57.5 15.5q28 0 47 -12t29 -36q6 74 2.5 133t-16.5 106q-15 -8 -32 -17.5t-48 -26.5q-20 -12 -29.5 -17.5t-17.5 -9.5q-7 1 -11.5 10
t-0.5 15q34 12 71 26.5t65 27.5q-17 55 -48.5 93t-78.5 58q-4 2 -0.5 6.5t7.5 2.5q52 -26 93.5 -62t71.5 -80q17 9 36.5 20t55.5 31q15 9 22 13t13 7q7 -2 12 -10.5t1 -14.5q-50 -18 -81 -30t-54 -23q32 -49 49 -105t17 -113q0 -145 -72 -268.5t-183 -187.5zM125 132
q9 -36 27 -56t44 -24q22 -3 46.5 1t48.5 14q35 24 77.5 124.5t53.5 176.5q-4 38 -29.5 60.5t-71.5 30.5q-19 4 -40.5 2t-40.5 -10q-47 -43 -85.5 -142t-29.5 -177z" />
    <glyph glyph-name="ntilde" unicode="&#xf1;" horiz-adv-x="634" 
d="M0 0zM172 156q-17 -26 -38 -59t-53 -87q-9 -4 -20 -6t-24 -3q-29 0 -41 12t-3 35q77 106 131.5 209.5t52.5 151.5q-1 16 -8.5 26.5t-21.5 14.5q-22 -6 -52 -29.5t-58 -55.5l-7 6q33 36 74.5 71.5t78.5 59.5q12 8 18.5 10.5t12.5 2.5q23 0 45 -34.5t24 -65.5
q1 -27 -17.5 -72t-73.5 -141q91 121 195.5 213t163.5 101q57 -17 49 -81.5t-82 -182.5q-58 -95 -68.5 -120.5t-9.5 -41.5q1 -15 8.5 -25t20.5 -14q22 7 56 33.5t65 59.5l6 -7q-62 -62 -95 -88.5t-63 -44.5q-6 -2 -14 -3.5t-17 -1.5q-10 0 -18.5 1.5t-12.5 4.5
q-18 12 -30 34.5t-13 43.5q-1 17 12 46.5t79 137.5q53 87 66 129.5t-13 62.5q-50 -17 -139.5 -105t-165.5 -198zM269 575q-2 -4 -6.5 -1.5t-0.5 6.5q31 48 64 73.5t63 25.5q11 0 26.5 -2.5t50.5 -10.5q34 -8 49.5 -10.5t25.5 -2.5q19 0 33 16.5t28 53.5q2 5 7 3.5t3 -6.5
q-21 -58 -56 -94t-69 -36q-15 0 -34.5 3.5t-57.5 13.5q-30 8 -43 10.5t-22 2.5q-18 0 -31.5 -10t-29.5 -35z" />
    <glyph glyph-name="ograve" unicode="&#xf2;" horiz-adv-x="530" 
d="M22 0zM213 13q-20 -10 -38 -15t-34 -5q-41 0 -73 24.5t-41 63.5q-11 48 2 100t49 112q30 48 78.5 95.5t97.5 76.5q47 28 80.5 40t63.5 12q39 0 68.5 -24t39.5 -64q10 -44 -3.5 -102t-49.5 -117q-25 -42 -71.5 -84t-102.5 -75q-1 -1 -25.5 -16t-40.5 -22zM128 132
q6 -40 28.5 -61.5t58.5 -21.5q17 0 36 4t40 13q13 9 28.5 31t33.5 57q27 55 43 118.5t11 105.5q-5 49 -29 73t-68 24q-7 0 -14.5 -1t-23.5 -6q-17 -12 -37.5 -37.5t-41.5 -60.5q-37 -62 -54.5 -125.5t-10.5 -112.5zM398 558q-1 0 -2.5 1t-3.5 2q-14 16 -34.5 34t-57.5 47
q-18 14 -24 19t-9 8q-7 8 -11 21t-2 21q2 10 11.5 16.5t21.5 6.5q10 0 19.5 -7t17.5 -21q2 -3 4.5 -8t8.5 -19q21 -42 35 -67.5t28 -44.5q1 -1 1.5 -2t0.5 -3t-1 -3t-3 -1z" />
    <glyph glyph-name="oacute" unicode="&#xf3;" horiz-adv-x="530" 
d="M22 0zM213 13q-20 -10 -38 -15t-34 -5q-41 0 -73 24.5t-41 63.5q-11 48 2 100t49 112q30 48 78.5 95.5t97.5 76.5q47 28 80.5 40t63.5 12q39 0 68.5 -24t39.5 -64q10 -44 -3.5 -102t-49.5 -117q-25 -42 -71.5 -84t-102.5 -75q-1 -1 -25.5 -16t-40.5 -22zM128 132
q6 -40 28.5 -61.5t58.5 -21.5q17 0 36 4t40 13q13 9 28.5 31t33.5 57q27 55 43 118.5t11 105.5q-5 49 -29 73t-68 24q-7 0 -14.5 -1t-23.5 -6q-17 -12 -37.5 -37.5t-41.5 -60.5q-37 -62 -54.5 -125.5t-10.5 -112.5zM457 720q8 7 17 10.5t19 3.5q11 0 20 -11.5t6 -20.5
t-7.5 -16.5t-10.5 -11.5q-4 -3 -13.5 -9t-35.5 -20q-55 -32 -84 -50.5t-51 -35.5q-1 -1 -2.5 -1.5t-3.5 -0.5t-3.5 1.5t-1.5 3.5q0 1 2 2.5t3 2.5q23 18 49.5 45.5t69.5 77.5q14 16 19 22t8 8z" />
    <glyph glyph-name="ocircumflex" unicode="&#xf4;" horiz-adv-x="530" 
d="M22 0zM213 13q-20 -10 -38 -15t-34 -5q-41 0 -73 24.5t-41 63.5q-11 48 2 100t49 112q30 48 78.5 95.5t97.5 76.5q47 28 80.5 40t63.5 12q39 0 68.5 -24t39.5 -64q10 -44 -3.5 -102t-49.5 -117q-25 -42 -71.5 -84t-102.5 -75q-1 -1 -25.5 -16t-40.5 -22zM128 132
q6 -40 28.5 -61.5t58.5 -21.5q17 0 36 4t40 13q13 9 28.5 31t33.5 57q27 55 43 118.5t11 105.5q-5 49 -29 73t-68 24q-7 0 -14.5 -1t-23.5 -6q-17 -12 -37.5 -37.5t-41.5 -60.5q-37 -62 -54.5 -125.5t-10.5 -112.5zM526 573q0 -11 -9.5 -17.5t-24.5 -6.5q-22 0 -31.5 6.5
t-9.5 21.5q0 46 -3 74t-9 49q-1 3 -2.5 4t-4.5 -1q-27 -17 -50 -37.5t-64 -67.5q-9 -11 -22.5 -16.5t-30.5 -5.5q-15 0 -23 5.5t-8 15.5q0 22 59.5 55t138.5 58q5 2 7.5 1t5.5 -4q33 -34 57 -73.5t24 -60.5z" />
    <glyph glyph-name="otilde" unicode="&#xf5;" horiz-adv-x="530" 
d="M22 0zM213 13q-20 -10 -38 -15t-34 -5q-41 0 -73 24.5t-41 63.5q-11 48 2 100t49 112q30 48 78.5 95.5t97.5 76.5q47 28 80.5 40t63.5 12q39 0 68.5 -24t39.5 -64q10 -44 -3.5 -102t-49.5 -117q-25 -42 -71.5 -84t-102.5 -75q-1 -1 -25.5 -16t-40.5 -22zM128 132
q6 -40 28.5 -61.5t58.5 -21.5q17 0 36 4t40 13q13 9 28.5 31t33.5 57q27 55 43 118.5t11 105.5q-5 49 -29 73t-68 24q-7 0 -14.5 -1t-23.5 -6q-17 -12 -37.5 -37.5t-41.5 -60.5q-37 -62 -54.5 -125.5t-10.5 -112.5zM212 575q-2 -4 -6.5 -1.5t-0.5 6.5q31 48 64 73.5t63 25.5
q11 0 26.5 -2.5t50.5 -10.5q34 -8 49.5 -10.5t25.5 -2.5q19 0 33 16.5t28 53.5q2 5 7 3.5t3 -6.5q-21 -58 -56 -94t-69 -36q-15 0 -34.5 3.5t-57.5 13.5q-30 8 -43 10.5t-22 2.5q-18 0 -31.5 -10t-29.5 -35z" />
    <glyph glyph-name="odieresis" unicode="&#xf6;" horiz-adv-x="530" 
d="M22 0zM213 13q-20 -10 -38 -15t-34 -5q-41 0 -73 24.5t-41 63.5q-11 48 2 100t49 112q30 48 78.5 95.5t97.5 76.5q47 28 80.5 40t63.5 12q39 0 68.5 -24t39.5 -64q10 -44 -3.5 -102t-49.5 -117q-25 -42 -71.5 -84t-102.5 -75q-1 -1 -25.5 -16t-40.5 -22zM128 132
q6 -40 28.5 -61.5t58.5 -21.5q17 0 36 4t40 13q13 9 28.5 31t33.5 57q27 55 43 118.5t11 105.5q-5 49 -29 73t-68 24q-7 0 -14.5 -1t-23.5 -6q-17 -12 -37.5 -37.5t-41.5 -60.5q-37 -62 -54.5 -125.5t-10.5 -112.5zM466 591q-16 0 -23 1.5t-13 6.5q-5 17 13.5 55.5
t34.5 46.5q6 3 19 5.5t26 2.5q15 0 29 -3.5t18 -9.5q1 -22 -26 -57t-46 -43q-6 -3 -14 -4t-18 -1zM267 591q-16 0 -23 1.5t-12 6.5q-5 16 12.5 55t34.5 47q6 4 19 6t27 2q15 0 29 -4t17 -9q1 -22 -26 -56.5t-46 -43.5q-5 -2 -13 -3.5t-19 -1.5z" />
    <glyph glyph-name="divide" unicode="&#xf7;" 
d="M358 475q0 -17 -13 -29.5t-30 -12.5q-18 0 -30 12t-12 30t12 30.5t30 12.5q17 0 30 -13t13 -30zM313 341q42 1 79 3t91 7q7 -5 7 -15.5t-7 -14.5q-61 5 -103 7t-66 2t-66.5 -2t-104.5 -7q-7 5 -7 15t7 15q55 -5 92 -7t78 -3zM358 197q0 -17 -13 -30t-30 -13
q-18 0 -30 12.5t-12 30.5t12 30t30 12q17 0 30 -12.5t13 -29.5z" />
    <glyph glyph-name="oslash" unicode="&#xf8;" horiz-adv-x="530" 
d="M47 38q-13 -13 -29.5 -28t-35.5 -34q-11 -4 -21.5 -1.5t-12.5 10.5q9 8 19 16.5t29 25.5q16 14 24 20.5t14 12.5q-2 4 -3.5 8t-3.5 13q-11 48 2 100t49 112q30 48 78.5 95.5t97.5 76.5q47 28 80.5 40t63.5 12q28 0 51 -12t38 -34q16 15 31 29.5t30 28.5q11 2 20.5 -1
t11.5 -10q-28 -24 -47 -40t-34 -29q2 -3 3.5 -7t3.5 -13q11 -42 -3 -100t-50 -119q-27 -43 -74.5 -86t-99.5 -73q-64 -40 -89.5 -49t-48.5 -9q-28 0 -52.5 12t-41.5 33zM193 370q-34 -58 -52 -122t-13 -116v0q31 28 61.5 57t67.5 66q31 30 62 61t84 85q-9 37 -32 55.5
t-61 18.5q-7 0 -14.5 -1t-23.5 -6q-17 -12 -37.5 -37.5t-41.5 -60.5zM134 112q11 -31 31.5 -47t49.5 -16q17 0 36 4t40 13q14 10 30 32.5t32 55.5q27 52 42.5 116t11.5 108v2q-51 -48 -80.5 -77t-58.5 -58q-14 -14 -47.5 -47t-86.5 -86z" />
    <glyph glyph-name="ugrave" unicode="&#xf9;" horiz-adv-x="625" 
d="M12 0zM434 309q-99 -133 -193 -220.5t-148 -93.5q-27 4 -51.5 23t-29.5 46q-2 28 48.5 110.5t53.5 86.5q44 74 58.5 106t13.5 51q-1 13 -9 22t-22 13q-23 -7 -54.5 -31.5t-60.5 -56.5l-7 7q37 39 80 74.5t77 55.5q10 6 18.5 8.5t18.5 2.5q24 -1 43.5 -32.5t20.5 -62.5
q0 -16 -14.5 -49t-67.5 -124q-5 -8 -41.5 -68t-43.5 -84q-1 -15 9 -25.5t28 -15.5q38 6 122.5 93.5t172.5 211.5q12 17 24.5 37t33.5 59q12 20 17 28.5t9 14.5q13 5 27 8.5t27 4.5q27 0 38.5 -12.5t2.5 -34.5q-21 -29 -52 -76t-60 -96q-50 -83 -71 -129t-22 -71
q0 -12 11 -23t27 -16q22 8 56 34.5t64 58.5l6 -7q-49 -50 -86 -81t-71 -51q-5 -2 -14 -4t-17 -2q-12 0 -23 2t-15 4q-17 12 -28.5 34t-13.5 44q-1 21 16.5 62t91.5 164zM468 558q-1 0 -2.5 1t-3.5 2q-14 16 -34.5 34t-57.5 47q-18 14 -24 19t-9 8q-7 8 -11 21t-2 21
q2 10 11.5 16.5t21.5 6.5q10 0 19.5 -7t17.5 -21q2 -3 4.5 -8t8.5 -19q21 -42 35 -67.5t28 -44.5q1 -1 1.5 -2t0.5 -3t-1 -3t-3 -1z" />
    <glyph glyph-name="uacute" unicode="&#xfa;" horiz-adv-x="625" 
d="M12 0zM434 309q-99 -133 -193 -220.5t-148 -93.5q-27 4 -51.5 23t-29.5 46q-2 28 48.5 110.5t53.5 86.5q44 74 58.5 106t13.5 51q-1 13 -9 22t-22 13q-23 -7 -54.5 -31.5t-60.5 -56.5l-7 7q37 39 80 74.5t77 55.5q10 6 18.5 8.5t18.5 2.5q24 -1 43.5 -32.5t20.5 -62.5
q0 -16 -14.5 -49t-67.5 -124q-5 -8 -41.5 -68t-43.5 -84q-1 -15 9 -25.5t28 -15.5q38 6 122.5 93.5t172.5 211.5q12 17 24.5 37t33.5 59q12 20 17 28.5t9 14.5q13 5 27 8.5t27 4.5q27 0 38.5 -12.5t2.5 -34.5q-21 -29 -52 -76t-60 -96q-50 -83 -71 -129t-22 -71
q0 -12 11 -23t27 -16q22 8 56 34.5t64 58.5l6 -7q-49 -50 -86 -81t-71 -51q-5 -2 -14 -4t-17 -2q-12 0 -23 2t-15 4q-17 12 -28.5 34t-13.5 44q-1 21 16.5 62t91.5 164zM528 720q8 7 17 10.5t19 3.5q11 0 20 -11.5t6 -20.5t-7.5 -16.5t-10.5 -11.5q-4 -3 -13.5 -9t-35.5 -20
q-55 -32 -84 -50.5t-51 -35.5q-1 -1 -2.5 -1.5t-3.5 -0.5t-3.5 1.5t-1.5 3.5q0 1 2 2.5t3 2.5q23 18 49.5 45.5t69.5 77.5q14 16 19 22t8 8z" />
    <glyph glyph-name="ucircumflex" unicode="&#xfb;" horiz-adv-x="625" 
d="M12 0zM434 309q-99 -133 -193 -220.5t-148 -93.5q-27 4 -51.5 23t-29.5 46q-2 28 48.5 110.5t53.5 86.5q44 74 58.5 106t13.5 51q-1 13 -9 22t-22 13q-23 -7 -54.5 -31.5t-60.5 -56.5l-7 7q37 39 80 74.5t77 55.5q10 6 18.5 8.5t18.5 2.5q24 -1 43.5 -32.5t20.5 -62.5
q0 -16 -14.5 -49t-67.5 -124q-5 -8 -41.5 -68t-43.5 -84q-1 -15 9 -25.5t28 -15.5q38 6 122.5 93.5t172.5 211.5q12 17 24.5 37t33.5 59q12 20 17 28.5t9 14.5q13 5 27 8.5t27 4.5q27 0 38.5 -12.5t2.5 -34.5q-21 -29 -52 -76t-60 -96q-50 -83 -71 -129t-22 -71
q0 -12 11 -23t27 -16q22 8 56 34.5t64 58.5l6 -7q-49 -50 -86 -81t-71 -51q-5 -2 -14 -4t-17 -2q-12 0 -23 2t-15 4q-17 12 -28.5 34t-13.5 44q-1 21 16.5 62t91.5 164zM596 573q0 -11 -9.5 -17.5t-24.5 -6.5q-22 0 -31.5 6.5t-9.5 21.5q0 46 -3 74t-9 49q-1 3 -2.5 4
t-4.5 -1q-27 -17 -50 -37.5t-64 -67.5q-9 -11 -22.5 -16.5t-30.5 -5.5q-15 0 -23 5.5t-8 15.5q0 22 59.5 55t138.5 58q5 2 7.5 1t5.5 -4q33 -34 57 -73.5t24 -60.5z" />
    <glyph glyph-name="udieresis" unicode="&#xfc;" horiz-adv-x="625" 
d="M12 0zM434 309q-99 -133 -193 -220.5t-148 -93.5q-27 4 -51.5 23t-29.5 46q-2 28 48.5 110.5t53.5 86.5q44 74 58.5 106t13.5 51q-1 13 -9 22t-22 13q-23 -7 -54.5 -31.5t-60.5 -56.5l-7 7q37 39 80 74.5t77 55.5q10 6 18.5 8.5t18.5 2.5q24 -1 43.5 -32.5t20.5 -62.5
q0 -16 -14.5 -49t-67.5 -124q-5 -8 -41.5 -68t-43.5 -84q-1 -15 9 -25.5t28 -15.5q38 6 122.5 93.5t172.5 211.5q12 17 24.5 37t33.5 59q12 20 17 28.5t9 14.5q13 5 27 8.5t27 4.5q27 0 38.5 -12.5t2.5 -34.5q-21 -29 -52 -76t-60 -96q-50 -83 -71 -129t-22 -71
q0 -12 11 -23t27 -16q22 8 56 34.5t64 58.5l6 -7q-49 -50 -86 -81t-71 -51q-5 -2 -14 -4t-17 -2q-12 0 -23 2t-15 4q-17 12 -28.5 34t-13.5 44q-1 21 16.5 62t91.5 164zM537 591q-16 0 -23 1.5t-13 6.5q-5 17 13.5 55.5t34.5 46.5q6 3 19 5.5t26 2.5q15 0 29 -3.5t18 -9.5
q1 -22 -26 -57t-46 -43q-6 -3 -14 -4t-18 -1zM338 591q-16 0 -23 1.5t-12 6.5q-5 16 12.5 55t34.5 47q6 4 19 6t27 2q15 0 29 -4t17 -9q1 -22 -26 -56.5t-46 -43.5q-5 -2 -13 -3.5t-19 -1.5z" />
    <glyph glyph-name="yacute" unicode="&#xfd;" horiz-adv-x="575" 
d="M0 0zM68 -122q-91 -81 -183 -119t-192 -38q-22 0 -38.5 2.5t-24.5 7.5q-3 2 -4.5 4.5t-1.5 6.5q0 17 23.5 44t41.5 34q11 0 25 -1.5t44 -6.5q35 -6 54 -8t36 -2q67 0 115 18t99 63q23 21 33 30.5t20 20.5q26 69 41.5 186.5t15.5 226.5q0 33 -5.5 57t-15.5 36
q-5 6 -11 8.5t-15 1.5q-14 -5 -44 -25t-52 -40l-6 5q27 24 76 59.5t82 54.5q7 4 14 6t13 2q9 0 17 -3.5t14 -9.5q18 -17 26.5 -48.5t8.5 -79.5q0 -75 -13 -170.5t-33 -157.5q46 47 70 72t26 27q86 90 128 148.5t44 92.5q-1 22 -12.5 38t-31.5 23q-17 -5 -38 -18t-50 -38
l-5 5q26 25 68.5 57t69.5 47q10 6 20 10.5t21 7.5q19 2 36 -22t13 -51q-11 -34 -51 -85t-205 -221q-59 -60 -96.5 -98t-53.5 -54q-3 -3 -44 -42t-69 -64zM477 720q8 7 17 10.5t19 3.5q11 0 20 -11.5t6 -20.5t-7.5 -16.5t-10.5 -11.5q-4 -3 -13.5 -9t-35.5 -20
q-55 -32 -84 -50.5t-51 -35.5q-1 -1 -2.5 -1.5t-3.5 -0.5t-3.5 1.5t-1.5 3.5q0 1 2 2.5t3 2.5q23 18 49.5 45.5t69.5 77.5q14 16 19 22t8 8z" />
    <glyph glyph-name="thorn" unicode="&#xfe;" horiz-adv-x="597" 
d="M-186 -222q22 21 53.5 69t112.5 188q36 62 79.5 140.5t123.5 224.5q55 101 75 137t30 52q41 66 108.5 122t162.5 103q79 40 136 55.5t114 15.5q26 0 52.5 -1.5t40.5 -3.5q5 -1 8 -4t3 -8q0 -20 -26 -48t-43 -28q-10 0 -25 2.5t-51 10.5q-47 12 -71 15.5t-42 3.5
q-35 0 -56.5 -5t-42.5 -16q-34 -19 -69.5 -64t-92.5 -142q-17 -29 -37 -64.5t-61 -108.5q-54 -95 -81 -142t-50 -86q38 48 82 96.5t87 90.5q61 61 108.5 95.5t71.5 35.5q21 -1 39.5 -20t27.5 -47q12 -38 1 -90.5t-41 -105.5q-31 -53 -86.5 -106t-123.5 -94
q-62 -33 -94 -44.5t-59 -11.5t-49.5 15t-42.5 46q-20 -34 -59.5 -104t-73.5 -129q-6 -10 -12 -21t-16 -28q-6 -11 -8 -14.5t-2 -4.5q8 -8 45 -14t76 -7q8 0 8 -4t-11 -4q-5 0 -18.5 0.5t-50.5 1.5q-47 2 -66 2.5t-28 0.5t-33 -1t-83 -4q-39 -3 -52 -3.5t-17 -0.5
q-7 0 -6.5 3.5t6.5 4.5q55 6 80.5 16t48.5 32zM444 453q-11 -1 -37.5 -21t-64.5 -56q-59 -56 -115.5 -120t-90.5 -116q30 -52 60 -75t66 -23q18 0 32.5 4t32.5 13q39 31 63.5 64.5t46.5 80.5q26 57 37.5 115.5t4.5 90.5q-6 19 -13.5 29t-21.5 14z" />
    <glyph glyph-name="ydieresis" unicode="&#xff;" horiz-adv-x="575" 
d="M0 0zM68 -122q-91 -81 -183 -119t-192 -38q-22 0 -38.5 2.5t-24.5 7.5q-3 2 -4.5 4.5t-1.5 6.5q0 17 23.5 44t41.5 34q11 0 25 -1.5t44 -6.5q35 -6 54 -8t36 -2q67 0 115 18t99 63q23 21 33 30.5t20 20.5q26 69 41.5 186.5t15.5 226.5q0 33 -5.5 57t-15.5 36
q-5 6 -11 8.5t-15 1.5q-14 -5 -44 -25t-52 -40l-6 5q27 24 76 59.5t82 54.5q7 4 14 6t13 2q9 0 17 -3.5t14 -9.5q18 -17 26.5 -48.5t8.5 -79.5q0 -75 -13 -170.5t-33 -157.5q46 47 70 72t26 27q86 90 128 148.5t44 92.5q-1 22 -12.5 38t-31.5 23q-17 -5 -38 -18t-50 -38
l-5 5q26 25 68.5 57t69.5 47q10 6 20 10.5t21 7.5q19 2 36 -22t13 -51q-11 -34 -51 -85t-205 -221q-59 -60 -96.5 -98t-53.5 -54q-3 -3 -44 -42t-69 -64zM486 591q-16 0 -23 1.5t-13 6.5q-5 17 13.5 55.5t34.5 46.5q6 3 19 5.5t26 2.5q15 0 29 -3.5t18 -9.5q1 -22 -26 -57
t-46 -43q-6 -3 -14 -4t-18 -1zM287 591q-16 0 -23 1.5t-12 6.5q-5 16 12.5 55t34.5 47q6 4 19 6t27 2q15 0 29 -4t17 -9q1 -22 -26 -56.5t-46 -43.5q-5 -2 -13 -3.5t-19 -1.5z" />
    <glyph glyph-name="Amacron" unicode="&#x100;" horiz-adv-x="1346" 
d="M36 0zM567 176q-151 -166 -206.5 -205t-121.5 -39q-50 0 -93.5 24t-72.5 67q-31 45 -36 96t18 89q24 40 72.5 79.5t109.5 67.5q48 22 98.5 34t98.5 12q29 0 74 -0.5t222 -3.5q34 40 75.5 90t124.5 149q48 58 70 84.5t39 46.5q-38 0 -76 -2t-71 -5q-31 -3 -64 -8t-87 -13
q-35 -6 -46.5 -7.5t-16.5 -1.5q-7 0 2.5 13t44.5 49q12 13 16.5 17.5t5.5 6.5q7 4 45.5 6t117.5 2h170q66 0 135 1t172 3q39 1 53 1h22q12 0 20 -1t12 -2q0 -11 -20 -39t-37 -38q-10 -3 -46.5 -1t-135.5 10q-61 5 -84.5 6.5t-35.5 1.5q-12 -64 -29 -159.5t-38 -216.5
q98 -1 125 -1.5t47 -0.5q59 0 84 -0.5t38 -1.5q6 0 8.5 -1t2.5 -4t-2.5 -6.5t-7.5 -8.5q-14 -16 -35.5 -32t-32.5 -18q-21 -4 -51.5 -3.5t-35.5 0.5q-25 0 -60.5 1.5t-91.5 5.5q-6 -37 -10.5 -65t-6.5 -47q-5 -40 -4.5 -76t5.5 -55q3 -13 14 -21.5t29 -11.5q23 9 77.5 49
t82.5 68l6 -6q-44 -42 -110 -95t-104 -75q-9 -5 -28.5 -5t-24.5 4q-15 11 -24.5 30.5t-11.5 39.5q-5 43 -4 70t7 61q5 36 11 71.5t13 69.5q-64 5 -131 11t-130 12q-78 -93 -107.5 -128.5t-37.5 -44.5zM1056 765l-309 -369q46 -1 101 -2t137 -3q20 108 39 210.5t32 163.5z
M240 348q-30 -15 -52.5 -42t-41.5 -68q-17 -36 -12.5 -80t30.5 -81q25 -37 62.5 -57t81.5 -20q43 0 70 13.5t65 48.5q19 19 44.5 46.5t60.5 66.5q7 8 18 21t38 45q34 41 54 64.5t38 44.5q-134 12 -212.5 17t-128.5 5q-33 0 -61.5 -6t-53.5 -18zM1096 959q18 -1 30 -1h24
h63.5t39.5 1t24.5 0.5t6.5 -2.5t-13 -16t-39 -40h-8h-17q-23 1 -36.5 1h-25.5q-26 0 -57.5 -1t-32.5 -1q-19 -1 -26 -1t-7 3q0 2 2.5 5t13.5 13q14 14 21.5 22.5t14.5 16.5h7.5h14.5z" />
    <glyph glyph-name="amacron" unicode="&#x101;" horiz-adv-x="592" 
d="M22 0zM105 5q-6 -3 -13 -5.5t-12 -2.5q-6 0 -11.5 1t-8.5 3q-37 25 -37.5 97.5t33.5 152.5q29 66 89 125.5t134 95.5q35 19 66.5 29t55.5 10q44 0 73.5 -17t59.5 -58q10 7 30 23l55 44q5 5 8 4t2 -7q-80 -99 -154 -227.5t-70 -178.5q2 -14 12 -26t24 -16q20 8 53 34
t63 57l6 -7q-68 -68 -97.5 -91.5t-58.5 -40.5q-3 -1 -11 -2t-19 -1t-22.5 1.5t-13.5 2.5q-18 16 -28.5 37t-11.5 42q-2 20 6 45t27 57q12 20 33.5 51.5t26.5 39.5q-48 -53 -103.5 -108.5t-98.5 -94.5q-45 -40 -59.5 -51t-27.5 -18zM153 280q-23 -69 -25.5 -128.5t17.5 -80.5
q8 -1 23 7t32 22q50 39 124.5 115.5t139.5 155.5q-36 55 -68.5 81.5t-66.5 26.5q-12 0 -22.5 -3t-21.5 -9q-39 -21 -75.5 -72.5t-56.5 -114.5zM405 635q18 -1 30 -1h24h63.5t39.5 1t24.5 0.5t6.5 -2.5t-13 -16t-39 -40h-8h-17q-23 1 -36.5 1h-25.5q-26 0 -57.5 -1t-32.5 -1
q-19 -1 -26 -1t-7 3q0 2 2.5 5t13.5 13q14 14 21.5 22.5t14.5 16.5h7.5h14.5z" />
    <glyph glyph-name="Abreve" unicode="&#x102;" horiz-adv-x="1346" 
d="M36 0zM567 176q-151 -166 -206.5 -205t-121.5 -39q-50 0 -93.5 24t-72.5 67q-31 45 -36 96t18 89q24 40 72.5 79.5t109.5 67.5q48 22 98.5 34t98.5 12q29 0 74 -0.5t222 -3.5q34 40 75.5 90t124.5 149q48 58 70 84.5t39 46.5q-38 0 -76 -2t-71 -5q-31 -3 -64 -8t-87 -13
q-35 -6 -46.5 -7.5t-16.5 -1.5q-7 0 2.5 13t44.5 49q12 13 16.5 17.5t5.5 6.5q7 4 45.5 6t117.5 2h170q66 0 135 1t172 3q39 1 53 1h22q12 0 20 -1t12 -2q0 -11 -20 -39t-37 -38q-10 -3 -46.5 -1t-135.5 10q-61 5 -84.5 6.5t-35.5 1.5q-12 -64 -29 -159.5t-38 -216.5
q98 -1 125 -1.5t47 -0.5q59 0 84 -0.5t38 -1.5q6 0 8.5 -1t2.5 -4t-2.5 -6.5t-7.5 -8.5q-14 -16 -35.5 -32t-32.5 -18q-21 -4 -51.5 -3.5t-35.5 0.5q-25 0 -60.5 1.5t-91.5 5.5q-6 -37 -10.5 -65t-6.5 -47q-5 -40 -4.5 -76t5.5 -55q3 -13 14 -21.5t29 -11.5q23 9 77.5 49
t82.5 68l6 -6q-44 -42 -110 -95t-104 -75q-9 -5 -28.5 -5t-24.5 4q-15 11 -24.5 30.5t-11.5 39.5q-5 43 -4 70t7 61q5 36 11 71.5t13 69.5q-64 5 -131 11t-130 12q-78 -93 -107.5 -128.5t-37.5 -44.5zM1056 765l-309 -369q46 -1 101 -2t137 -3q20 108 39 210.5t32 163.5z
M240 348q-30 -15 -52.5 -42t-41.5 -68q-17 -36 -12.5 -80t30.5 -81q25 -37 62.5 -57t81.5 -20q43 0 70 13.5t65 48.5q19 19 44.5 46.5t60.5 66.5q7 8 18 21t38 45q34 41 54 64.5t38 44.5q-134 12 -212.5 17t-128.5 5q-33 0 -61.5 -6t-53.5 -18zM1286 995q-24 -45 -64 -70
t-91 -25q-45 0 -75 19t-39 53q-3 11 4.5 19.5t24.5 13.5q19 6 29 4t12 -11q5 -40 24 -59.5t52 -19.5q37 0 66.5 23t39.5 58q2 5 4 7t6 2q6 0 8 -4.5t-1 -9.5z" />
    <glyph glyph-name="abreve" unicode="&#x103;" horiz-adv-x="592" 
d="M22 0zM105 5q-6 -3 -13 -5.5t-12 -2.5q-6 0 -11.5 1t-8.5 3q-37 25 -37.5 97.5t33.5 152.5q29 66 89 125.5t134 95.5q35 19 66.5 29t55.5 10q44 0 73.5 -17t59.5 -58q10 7 30 23l55 44q5 5 8 4t2 -7q-80 -99 -154 -227.5t-70 -178.5q2 -14 12 -26t24 -16q20 8 53 34
t63 57l6 -7q-68 -68 -97.5 -91.5t-58.5 -40.5q-3 -1 -11 -2t-19 -1t-22.5 1.5t-13.5 2.5q-18 16 -28.5 37t-11.5 42q-2 20 6 45t27 57q12 20 33.5 51.5t26.5 39.5q-48 -53 -103.5 -108.5t-98.5 -94.5q-45 -40 -59.5 -51t-27.5 -18zM153 280q-23 -69 -25.5 -128.5t17.5 -80.5
q8 -1 23 7t32 22q50 39 124.5 115.5t139.5 155.5q-36 55 -68.5 81.5t-66.5 26.5q-12 0 -22.5 -3t-21.5 -9q-39 -21 -75.5 -72.5t-56.5 -114.5zM596 671q-24 -45 -64 -70t-91 -25q-45 0 -75 19t-39 53q-3 11 4.5 19.5t24.5 13.5q19 6 29 4t12 -11q5 -40 24 -59.5t52 -19.5
q37 0 66.5 23t39.5 58q2 5 4 7t6 2q6 0 8 -4.5t-1 -9.5z" />
    <glyph glyph-name="Aogonek" unicode="&#x104;" horiz-adv-x="1346" 
d="M567 176q-147 -163 -203.5 -203.5t-124.5 -40.5q-50 0 -93.5 24t-72.5 67q-30 45 -35 96t18 89q24 41 72 80t109 67q48 22 98.5 34t98.5 12q30 0 76 -0.5t221 -3.5q10 12 131 157.5t177 212.5q-38 0 -76 -2t-71 -5q-31 -3 -64 -8t-87 -13q-35 -6 -46.5 -7.5t-16.5 -1.5
q-7 0 2.5 13t44.5 49q12 13 16.5 17.5t5.5 6.5q7 4 45.5 6t117.5 2h170q66 0 135 1t172 3q39 1 53 1h22q12 0 20 -1t12 -2q0 -11 -20 -39t-37 -38q-10 -3 -47 -1t-135 10q-61 5 -84 6.5t-35 1.5h-1q-12 -64 -29 -159.5t-38 -216.5q98 -1 125 -1.5t47 -0.5q59 0 84 -0.5
t38 -1.5q6 0 8.5 -1t2.5 -4q0 -2 -2 -5t-7 -10q-16 -16 -37.5 -32t-31.5 -18q-21 -4 -51.5 -3.5t-35.5 0.5q-25 0 -60.5 1.5t-91.5 5.5q-6 -37 -10.5 -65t-6.5 -47q-5 -40 -4.5 -76t5.5 -55q3 -13 14 -21.5t29 -11.5q23 9 77.5 49t82.5 68l6 -6q-47 -44 -112.5 -97
t-103.5 -75q-45 -24 -69.5 -51.5t-27.5 -57.5q-4 -26 10.5 -41t42.5 -15q18 0 34 5t29 15q7 3 -12 -34.5t-32 -46.5q-12 -8 -23.5 -11.5t-25.5 -3.5q-45 -1 -65.5 27t-9.5 72q8 35 42 72.5t84 66.5q-9 0 -17.5 1t-10.5 3q-15 11 -24.5 30.5t-11.5 39.5q-5 43 -4 70t7 61
q5 36 11 71.5t13 69.5q-64 5 -131 11t-130 12q-25 -29 -80.5 -96.5t-64.5 -76.5zM1056 765l-308 -369q46 -1 100.5 -2t136.5 -3q20 108 39 210.5t32 163.5zM241 348q-30 -15 -53 -41.5t-42 -68.5q-17 -37 -12 -80.5t30 -80.5t63 -57t82 -20q42 0 69.5 13.5t64.5 49.5
q20 18 45.5 45.5t59.5 66.5q7 8 18 21t38 45q34 41 54 64.5t38 44.5q-134 12 -212.5 17t-127.5 5q-33 0 -62 -6t-53 -18z" />
    <glyph glyph-name="aogonek" unicode="&#x105;" horiz-adv-x="592" 
d="M457 -145q7 3 -12 -34.5t-32 -46.5q-15 -9 -26 -12t-23 -3q-45 -1 -65.5 27t-9.5 73q8 34 35.5 71.5t69.5 71.5q-3 -1 -6.5 -1h-10.5q-14 0 -22.5 1.5t-13.5 4.5q-18 12 -28.5 32t-11.5 45q-2 20 6 45.5t28 57.5q12 21 34 52.5t27 38.5q-45 -49 -100.5 -104.5
t-104.5 -99.5q-29 -26 -49 -42.5t-36 -28.5q-4 -3 -10.5 -4.5t-13.5 -1.5q-6 0 -13 1t-9 3q-37 25 -37.5 97.5t34.5 152.5q29 67 89 126t133 95q35 19 67 29t56 10q43 0 72.5 -17t59.5 -58q7 5 18 13.5t38 29.5q13 11 19 15.5t11 8.5q5 5 7.5 4t1.5 -7q-79 -98 -153 -227
t-70 -179q1 -14 11 -26t25 -16q19 8 52.5 34t62.5 57l6 -7q-60 -60 -82 -78.5t-43 -33.5q-45 -32 -68.5 -63.5t-27.5 -65.5q-4 -28 10 -44t42 -16q18 0 34 5t29 15zM153 280q-23 -70 -25 -129t17 -80q8 -1 22.5 7t32.5 22q50 40 125.5 117.5t138.5 153.5q-36 55 -68.5 81.5
t-66.5 26.5q-12 0 -22.5 -3t-21.5 -9q-39 -21 -75.5 -72.5t-56.5 -114.5z" />
    <glyph glyph-name="Cacute" unicode="&#x106;" horiz-adv-x="811" 
d="M85 0zM766 144q-107 -125 -205.5 -189t-184.5 -64q-112 0 -186.5 59.5t-96.5 164.5q-18 87 5.5 186t84.5 188q99 144 267.5 242.5t337.5 98.5q53 0 106 -13t142 -55q3 -2 4 -3.5t1 -3.5q0 -10 -37.5 -37t-51.5 -27q-5 0 -9.5 0.5t-11.5 2.5q-19 7 -64.5 30t-72.5 34
q-38 15 -74.5 22.5t-74.5 7.5q-96 0 -188 -66t-170 -190q-52 -83 -74 -175t-10 -173q16 -104 80.5 -162t166.5 -58q76 0 151 45t158 142q3 3 6.5 0t0.5 -7zM831 1044q8 7 17 10.5t19 3.5q11 0 20 -11.5t6 -20.5t-7.5 -16.5t-10.5 -11.5q-4 -3 -13.5 -9t-35.5 -20
q-55 -32 -84 -50.5t-51 -35.5q-1 -1 -2.5 -1.5t-3.5 -0.5t-3.5 1.5t-1.5 3.5q0 1 2 2.5t3 2.5q23 18 49.5 45.5t69.5 77.5q14 16 19 22t8 8z" />
    <glyph glyph-name="cacute" unicode="&#x107;" horiz-adv-x="485" 
d="M25 0zM287 43q-49 -30 -79.5 -40t-60.5 -10q-41 0 -72 22t-42 59q-14 56 -4.5 105t41.5 104q26 48 82 98.5t124 89.5q40 23 74 34t67 11q43 0 68 -19.5t25 -52.5q0 -29 -24.5 -51t-55.5 -24q-13 52 -39 78.5t-64 26.5q-12 0 -22.5 -2t-23.5 -7q-28 -19 -53 -47.5
t-46 -65.5q-28 -49 -41.5 -107t-7.5 -111q7 -33 26.5 -52.5t49.5 -22.5q23 -4 51 1.5t55 19.5q25 14 56 41.5t51 53.5l9 -5q-29 -37 -67.5 -70.5t-76.5 -56.5zM481 720q8 7 17 10.5t19 3.5q11 0 20 -11.5t6 -20.5t-7.5 -16.5t-10.5 -11.5q-4 -3 -13.5 -9t-35.5 -20
q-55 -32 -84 -50.5t-51 -35.5q-1 -1 -2.5 -1.5t-3.5 -0.5t-3.5 1.5t-1.5 3.5q0 1 2 2.5t3 2.5q23 18 49.5 45.5t69.5 77.5q14 16 19 22t8 8z" />
    <glyph glyph-name="Ccircumflex" unicode="&#x108;" horiz-adv-x="811" 
d="M85 0zM766 144q-107 -125 -205.5 -189t-184.5 -64q-112 0 -186.5 59.5t-96.5 164.5q-18 87 5.5 186t84.5 188q99 144 267.5 242.5t337.5 98.5q53 0 106 -13t142 -55q3 -2 4 -3.5t1 -3.5q0 -10 -37.5 -37t-51.5 -27q-5 0 -9.5 0.5t-11.5 2.5q-19 7 -64.5 30t-72.5 34
q-38 15 -74.5 22.5t-74.5 7.5q-96 0 -188 -66t-170 -190q-52 -83 -74 -175t-10 -173q16 -104 80.5 -162t166.5 -58q76 0 151 45t158 142q3 3 6.5 0t0.5 -7zM900 897q0 -11 -9.5 -17.5t-24.5 -6.5q-22 0 -31.5 6.5t-9.5 21.5q0 46 -3 74t-9 49q-1 3 -2.5 4t-4.5 -1
q-27 -17 -50 -37.5t-64 -67.5q-9 -11 -22.5 -16.5t-30.5 -5.5q-15 0 -23 5.5t-8 15.5q0 22 59.5 55t138.5 58q5 2 7.5 1t5.5 -4q33 -34 57 -73.5t24 -60.5z" />
    <glyph glyph-name="ccircumflex" unicode="&#x109;" horiz-adv-x="485" 
d="M25 0zM287 43q-49 -30 -79.5 -40t-60.5 -10q-41 0 -72 22t-42 59q-14 56 -4.5 105t41.5 104q26 48 82 98.5t124 89.5q40 23 74 34t67 11q43 0 68 -19.5t25 -52.5q0 -29 -24.5 -51t-55.5 -24q-13 52 -39 78.5t-64 26.5q-12 0 -22.5 -2t-23.5 -7q-28 -19 -53 -47.5
t-46 -65.5q-28 -49 -41.5 -107t-7.5 -111q7 -33 26.5 -52.5t49.5 -22.5q23 -4 51 1.5t55 19.5q25 14 56 41.5t51 53.5l9 -5q-29 -37 -67.5 -70.5t-76.5 -56.5zM549 573q0 -11 -9.5 -17.5t-24.5 -6.5q-22 0 -31.5 6.5t-9.5 21.5q0 46 -3 74t-9 49q-1 3 -2.5 4t-4.5 -1
q-27 -17 -50 -37.5t-64 -67.5q-9 -11 -22.5 -16.5t-30.5 -5.5q-15 0 -23 5.5t-8 15.5q0 22 59.5 55t138.5 58q5 2 7.5 1t5.5 -4q33 -34 57 -73.5t24 -60.5z" />
    <glyph glyph-name="Cdotaccent" unicode="&#x10a;" horiz-adv-x="811" 
d="M85 0zM766 144q-107 -125 -205.5 -189t-184.5 -64q-112 0 -186.5 59.5t-96.5 164.5q-18 87 5.5 186t84.5 188q99 144 267.5 242.5t337.5 98.5q53 0 106 -13t142 -55q3 -2 4 -3.5t1 -3.5q0 -10 -37.5 -37t-51.5 -27q-5 0 -9.5 0.5t-11.5 2.5q-19 7 -64.5 30t-72.5 34
q-38 15 -74.5 22.5t-74.5 7.5q-96 0 -188 -66t-170 -190q-52 -83 -74 -175t-10 -173q16 -104 80.5 -162t166.5 -58q76 0 151 45t158 142q3 3 6.5 0t0.5 -7zM754 920q-16 0 -24.5 2t-14.5 7q-5 18 14 59.5t38 51.5q6 3 21 5.5t27 2.5q15 0 30.5 -4.5t20.5 -9.5
q0 -26 -28.5 -63t-49.5 -45q-6 -3 -14.5 -4.5t-19.5 -1.5z" />
    <glyph glyph-name="cdotaccent" unicode="&#x10b;" horiz-adv-x="485" 
d="M25 0zM287 43q-49 -30 -79.5 -40t-60.5 -10q-41 0 -72 22t-42 59q-14 56 -4.5 105t41.5 104q26 48 82 98.5t124 89.5q40 23 74 34t67 11q43 0 68 -19.5t25 -52.5q0 -29 -24.5 -51t-55.5 -24q-13 52 -39 78.5t-64 26.5q-12 0 -22.5 -2t-23.5 -7q-28 -19 -53 -47.5
t-46 -65.5q-28 -49 -41.5 -107t-7.5 -111q7 -33 26.5 -52.5t49.5 -22.5q23 -4 51 1.5t55 19.5q25 14 56 41.5t51 53.5l9 -5q-29 -37 -67.5 -70.5t-76.5 -56.5zM390 596q-16 0 -24.5 2t-14.5 7q-5 18 14 59.5t38 51.5q6 3 21 5.5t27 2.5q15 0 30.5 -4.5t20.5 -9.5
q0 -26 -28.5 -63t-49.5 -45q-6 -3 -14.5 -4.5t-19.5 -1.5z" />
    <glyph glyph-name="Ccaron" unicode="&#x10c;" horiz-adv-x="811" 
d="M85 0zM766 144q-107 -125 -205.5 -189t-184.5 -64q-112 0 -186.5 59.5t-96.5 164.5q-18 87 5.5 186t84.5 188q99 144 267.5 242.5t337.5 98.5q53 0 106 -13t142 -55q3 -2 4 -3.5t1 -3.5q0 -10 -37.5 -37t-51.5 -27q-5 0 -9.5 0.5t-11.5 2.5q-19 7 -64.5 30t-72.5 34
q-38 15 -74.5 22.5t-74.5 7.5q-96 0 -188 -66t-170 -190q-52 -83 -74 -175t-10 -173q16 -104 80.5 -162t166.5 -58q76 0 151 45t158 142q3 3 6.5 0t0.5 -7zM660 1016q0 11 9 18t24 7q22 0 32 -7t10 -21q0 -46 3 -74.5t9 -49.5q1 -4 3 -4.5t5 1.5q27 17 50.5 38.5t62.5 67.5
q9 10 22.5 15.5t30.5 5.5q15 0 23 -5.5t8 -14.5q0 -22 -59 -55.5t-138 -58.5q-5 -2 -8 -1t-6 4q-33 35 -57 74.5t-24 59.5z" />
    <glyph glyph-name="ccaron" unicode="&#x10d;" horiz-adv-x="485" 
d="M25 0zM287 43q-49 -30 -79.5 -40t-60.5 -10q-41 0 -72 22t-42 59q-14 56 -4.5 105t41.5 104q26 48 82 98.5t124 89.5q40 23 74 34t67 11q43 0 68 -19.5t25 -52.5q0 -29 -24.5 -51t-55.5 -24q-13 52 -39 78.5t-64 26.5q-12 0 -22.5 -2t-23.5 -7q-28 -19 -53 -47.5
t-46 -65.5q-28 -49 -41.5 -107t-7.5 -111q7 -33 26.5 -52.5t49.5 -22.5q23 -4 51 1.5t55 19.5q25 14 56 41.5t51 53.5l9 -5q-29 -37 -67.5 -70.5t-76.5 -56.5zM309 692q0 11 9 18t24 7q22 0 32 -7t10 -21q0 -46 3 -74.5t9 -49.5q1 -4 3 -4.5t5 1.5q27 17 50.5 38.5
t62.5 67.5q9 10 22.5 15.5t30.5 5.5q15 0 23 -5.5t8 -14.5q0 -22 -59 -55.5t-138 -58.5q-5 -2 -8 -1t-6 4q-33 35 -57 74.5t-24 59.5z" />
    <glyph glyph-name="Dcaron" unicode="&#x10e;" horiz-adv-x="1153" 
d="M46 0zM202 -13h-67.5h-26.5q-25 0 -41 5.5t-21 15.5q-3 18 18.5 48.5t45.5 42.5q10 3 28 0.5t65 -14.5q49 -13 72.5 -17t41.5 -4q27 0 41 4t25 13q25 21 46.5 57.5t50.5 110.5q1 4 26 70t45 113q50 117 119 202.5t143 122.5l4 -2q-36 -18 -102 -179.5t-67 -162.5
q-59 -137 -129 -225t-153 -130q36 -4 143.5 -5.5t187.5 2.5q77 4 128 17t87 38q30 22 57.5 57.5t50.5 84.5q43 92 39 190.5t-55 177.5q-50 77 -135.5 118t-196.5 41q-87 0 -153 -13.5t-114 -41.5q-47 -27 -82.5 -78t-65.5 -134q-13 -37 -34 -53t-54 -16q-35 0 -41 20.5
t19 57.5q38 56 101.5 108.5t151.5 101.5q95 54 180 79t167 24q113 0 201 -42t142 -120q56 -83 62.5 -186t-39.5 -189q-25 -46 -76.5 -96.5t-120.5 -96.5q-29 -20 -54.5 -35t-56.5 -31q-41 -21 -80 -32.5t-77 -14.5q-12 -1 -91 -2.5t-123 -1.5h-101.5h-130.5zM874 993
q0 11 9 18t24 7q22 0 32 -7t10 -21q0 -46 3 -74.5t9 -49.5q1 -4 3 -4.5t5 1.5q27 17 50.5 38.5t62.5 67.5q9 10 22.5 15.5t30.5 5.5q15 0 23 -5.5t8 -14.5q0 -22 -59 -55.5t-138 -58.5q-5 -2 -8 -1t-6 4q-33 35 -57 74.5t-24 59.5z" />
    <glyph glyph-name="dcaron" unicode="&#x10f;" horiz-adv-x="602" 
d="M22 0zM153 280q-23 -69 -25.5 -128.5t16.5 -80.5q7 -1 20.5 5.5t29.5 19.5q48 39 123 118t141 160q-36 56 -66 80.5t-63 24.5q-12 0 -23.5 -3.5t-23.5 -10.5q-39 -22 -74 -72.5t-55 -112.5zM417 311q-51 -60 -109 -121t-107 -106q-45 -41 -63 -55.5t-33 -23.5
q-6 -3 -13 -5.5t-12 -2.5q-6 0 -11.5 1t-8.5 3q-37 25 -37.5 97.5t34.5 152.5q28 65 86.5 123.5t132.5 96.5q36 19 68.5 29.5t56.5 10.5q33 0 59 -12.5t49 -38.5q38 63 95 161.5t93 161.5q-2 10 -7.5 17t-15.5 13q-8 7 -25 9t-49 0q-27 -5 -67 -10.5t-71 -8.5l-2 6
q89 10 182 30t172 47q10 -2 15.5 -6t7.5 -13q-11 -20 -24 -42t-38 -66q-37 -66 -56 -98.5t-37 -61.5q-134 -221 -177.5 -296.5t-69.5 -126.5q-14 -29 -20.5 -49t-5.5 -32q1 -19 9.5 -31.5t22.5 -14.5q20 8 54 34.5t64 57.5l6 -7q-52 -53 -87 -81.5t-69 -48.5q-3 -1 -11 -2
t-19 -1t-22 1t-13 3q-17 14 -28.5 38t-11.5 43t9.5 45.5t31.5 64.5q6 10 24 38.5t48 76.5zM876 834q4 18 23.5 30.5t39.5 12.5q15 0 18.5 -14.5t-3.5 -49.5q-12 -55 -62.5 -110t-114.5 -86q-5 -4 -7.5 0.5t2.5 7.5q42 22 65.5 49.5t27.5 58.5q4 13 5.5 27t2.5 39q0 16 1 23
t2 12z" />
    <glyph glyph-name="Dcroat" unicode="&#x110;" horiz-adv-x="1153" 
d="M46 0zM202 -13h-67.5h-26.5q-25 0 -41 5.5t-21 15.5q-3 18 18.5 48.5t45.5 42.5q10 3 28 0.5t65 -14.5q49 -13 72.5 -17t41.5 -4q27 0 41 4t25 13q23 20 43 52.5t45 92.5q8 20 28 74t34 87q-44 -1 -91.5 -3t-82.5 -4q-6 3 -3.5 13.5t9.5 12.5q29 -2 77.5 -4t94.5 -3
q58 139 126.5 228.5t149.5 129.5l4 -2q-18 -9 -41 -48t-58 -123q-9 -22 -34.5 -86t-41.5 -100q45 1 98.5 3t106.5 5q6 -4 4 -14t-9 -12q-64 4 -114 5.5t-91 2.5q-57 -126 -124.5 -208t-146.5 -122q36 -4 143.5 -5.5t187.5 2.5q77 4 128 17t87 38q30 22 57.5 57.5t50.5 84.5
q43 92 39 190.5t-55 177.5q-50 77 -135.5 118t-196.5 41q-87 0 -153 -13.5t-114 -41.5q-44 -26 -79 -75.5t-69 -136.5q-14 -37 -34.5 -53t-53.5 -16q-35 0 -41 20.5t19 57.5q38 56 101.5 108.5t151.5 101.5q95 54 180 79t167 24q113 0 201 -42t142 -120q56 -83 62.5 -186
t-39.5 -189q-25 -46 -76.5 -96.5t-120.5 -96.5q-29 -20 -54.5 -35t-56.5 -31q-39 -20 -78 -31.5t-79 -15.5q-12 -1 -91 -2.5t-123 -1.5h-101.5h-130.5z" />
    <glyph glyph-name="dcroat" unicode="&#x111;" horiz-adv-x="602" 
d="M106 3q-4 -3 -10 -4.5t-15 -1.5q-6 0 -12.5 1t-8.5 3q-37 25 -37.5 97.5t33.5 152.5q28 66 87 124t133 96q36 19 68.5 29.5t56.5 10.5q33 0 58.5 -12t47.5 -37q50 76 73.5 111t42.5 60q-50 -1 -100 -3t-82 -5q-5 3 -4.5 13.5t6.5 12.5q39 -3 92.5 -5t96.5 -3
q41 49 100 91.5t133 78.5q80 39 149 55.5t152 16.5q32 0 64 -1.5t50 -3.5q6 -1 9 -4t3 -8q0 -18 -28.5 -47t-45.5 -29q-16 0 -37.5 3t-69.5 12q-59 11 -89 14.5t-54 3.5q-32 0 -54.5 -4.5t-42.5 -14.5q-32 -17 -68.5 -56t-83.5 -106q37 1 76.5 3t67.5 4q5 -2 4 -13t-6 -13
q-29 3 -69.5 5t-80.5 3q-31 -45 -43.5 -63.5t-23.5 -36.5q-71 -112 -125 -204t-84 -153q-14 -29 -20.5 -49t-5.5 -32q1 -19 9.5 -31.5t22.5 -14.5q20 8 54 34.5t64 57.5l6 -7q-60 -60 -92 -86t-64 -44q-3 -1 -11.5 -2t-19.5 -1t-21.5 1t-12.5 3q-17 14 -28.5 38t-11.5 43
q-1 18 8.5 43.5t32.5 66.5q16 27 34.5 57t37.5 57q-44 -51 -102 -111.5t-114 -114.5q-24 -23 -50 -45t-45 -36zM153 280q-23 -69 -25.5 -128.5t16.5 -80.5q7 -1 20.5 5.5t29.5 19.5q48 39 123 118t141 160q-36 56 -66 80.5t-63 24.5q-12 0 -23.5 -3.5t-23.5 -10.5
q-39 -22 -74 -72.5t-55 -112.5z" />
    <glyph glyph-name="Emacron" unicode="&#x112;" horiz-adv-x="1066" 
d="M52 0zM178 -2q-34 -1 -45 -1.5t-16 -0.5q-26 0 -43 5t-22 15q-3 18 16.5 43.5t44.5 38.5q8 2 24 0t61 -13q52 -13 78 -17.5t46 -4.5q24 0 42 5.5t31 17.5q24 20 45.5 55t47.5 100q9 23 31 80t36 91q-63 9 -117 15t-99 9q-4 0 -6.5 1t-2.5 3t2 2.5t10 0.5q49 0 108.5 1
t119.5 2q43 107 106 184.5t135 114.5q-70 19 -129 28.5t-109 9.5q-52 0 -91.5 -8.5t-71.5 -25.5q-56 -30 -99.5 -93.5t-85.5 -174.5q-16 -42 -35.5 -59t-50.5 -17q-36 0 -43 22.5t17 59.5q54 85 129.5 154.5t163.5 114.5q71 36 146 54t153 18q58 0 133 -12t198 -41
q95 -23 132.5 -35.5t40.5 -20.5q4 -9 -19.5 -35t-36.5 -29q-12 0 -65.5 13t-129.5 35q-57 17 -92 27t-48 13q-16 -11 -36 -44.5t-48 -97.5q-13 -30 -35.5 -84.5t-28.5 -68.5q145 3 176.5 3.5t50.5 0.5q42 0 71.5 -2t42.5 -6q13 -3 -15 -36.5t-45 -37.5q-18 -4 -36.5 -4.5
t-56.5 3.5q-18 2 -45.5 5.5t-163.5 23.5q-57 -127 -124 -210.5t-143 -120.5q22 -1 40.5 -1.5t38.5 -0.5q81 0 153.5 4t124.5 11q19 2 108 14t102 12q3 0 4.5 -1.5t0.5 -5.5q-2 -11 -28 -43t-43 -44q-7 -3 -47 -5t-122 -2h-188q-69 0 -149 -1.5t-199 -5.5zM923 934
q18 -1 30 -1h24h63.5t39.5 1t24.5 0.5t6.5 -2.5t-13 -16t-39 -40h-8h-17q-23 1 -36.5 1h-25.5q-26 0 -57.5 -1t-32.5 -1q-19 -1 -26 -1t-7 3q0 2 2.5 5t13.5 13q14 14 21.5 22.5t14.5 16.5h7.5h14.5z" />
    <glyph glyph-name="emacron" unicode="&#x113;" horiz-adv-x="486" 
d="M23 0zM281 43q-46 -28 -77.5 -39t-62.5 -11q-36 0 -68 23.5t-43 59.5q-13 48 -2.5 97.5t43.5 109.5q26 47 79 98.5t109 84.5q44 25 78 36.5t64 11.5q42 0 65.5 -17t23.5 -46q0 -41 -51.5 -90t-170.5 -121q-30 -19 -65.5 -40t-74.5 -43q0 -5 0.5 -9.5l1.5 -13.5
q7 -38 31 -57.5t62 -19.5q21 0 44.5 6.5t45.5 18.5q23 13 57.5 42.5t54.5 56.5l9 -5q-29 -36 -71 -72.5t-82 -60.5zM274 464q-22 -14 -48 -46.5t-48 -74.5q-23 -42 -36 -88.5t-14 -88.5q40 23 73.5 43.5t60.5 38.5q58 38 86.5 65t38.5 52q3 5 4 11t1 14q0 33 -25.5 57
t-60.5 24q-7 0 -15 -1.5t-17 -5.5zM386 635q18 -1 30 -1h24h63.5t39.5 1t24.5 0.5t6.5 -2.5t-13 -16t-39 -40h-8h-17q-23 1 -36.5 1h-25.5q-26 0 -57.5 -1t-32.5 -1q-19 -1 -26 -1t-7 3q0 2 2.5 5t13.5 13q14 14 21.5 22.5t14.5 16.5h7.5h14.5z" />
    <glyph glyph-name="Ebreve" unicode="&#x114;" horiz-adv-x="1066" 
d="M52 0zM178 -2q-34 -1 -45 -1.5t-16 -0.5q-26 0 -43 5t-22 15q-3 18 16.5 43.5t44.5 38.5q8 2 24 0t61 -13q52 -13 78 -17.5t46 -4.5q24 0 42 5.5t31 17.5q24 20 45.5 55t47.5 100q9 23 31 80t36 91q-63 9 -117 15t-99 9q-4 0 -6.5 1t-2.5 3t2 2.5t10 0.5q49 0 108.5 1
t119.5 2q43 107 106 184.5t135 114.5q-70 19 -129 28.5t-109 9.5q-52 0 -91.5 -8.5t-71.5 -25.5q-56 -30 -99.5 -93.5t-85.5 -174.5q-16 -42 -35.5 -59t-50.5 -17q-36 0 -43 22.5t17 59.5q54 85 129.5 154.5t163.5 114.5q71 36 146 54t153 18q58 0 133 -12t198 -41
q95 -23 132.5 -35.5t40.5 -20.5q4 -9 -19.5 -35t-36.5 -29q-12 0 -65.5 13t-129.5 35q-57 17 -92 27t-48 13q-16 -11 -36 -44.5t-48 -97.5q-13 -30 -35.5 -84.5t-28.5 -68.5q145 3 176.5 3.5t50.5 0.5q42 0 71.5 -2t42.5 -6q13 -3 -15 -36.5t-45 -37.5q-18 -4 -36.5 -4.5
t-56.5 3.5q-18 2 -45.5 5.5t-163.5 23.5q-57 -127 -124 -210.5t-143 -120.5q22 -1 40.5 -1.5t38.5 -0.5q81 0 153.5 4t124.5 11q19 2 108 14t102 12q3 0 4.5 -1.5t0.5 -5.5q-2 -11 -28 -43t-43 -44q-7 -3 -47 -5t-122 -2h-188q-69 0 -149 -1.5t-199 -5.5zM1113 970
q-24 -45 -64 -70t-91 -25q-45 0 -75 19t-39 53q-3 11 4.5 19.5t24.5 13.5q19 6 29 4t12 -11q5 -40 24 -59.5t52 -19.5q37 0 66.5 23t39.5 58q2 5 4 7t6 2q6 0 8 -4.5t-1 -9.5z" />
    <glyph glyph-name="ebreve" unicode="&#x115;" horiz-adv-x="486" 
d="M23 0zM281 43q-46 -28 -77.5 -39t-62.5 -11q-36 0 -68 23.5t-43 59.5q-13 48 -2.5 97.5t43.5 109.5q26 47 79 98.5t109 84.5q44 25 78 36.5t64 11.5q42 0 65.5 -17t23.5 -46q0 -41 -51.5 -90t-170.5 -121q-30 -19 -65.5 -40t-74.5 -43q0 -5 0.5 -9.5l1.5 -13.5
q7 -38 31 -57.5t62 -19.5q21 0 44.5 6.5t45.5 18.5q23 13 57.5 42.5t54.5 56.5l9 -5q-29 -36 -71 -72.5t-82 -60.5zM274 464q-22 -14 -48 -46.5t-48 -74.5q-23 -42 -36 -88.5t-14 -88.5q40 23 73.5 43.5t60.5 38.5q58 38 86.5 65t38.5 52q3 5 4 11t1 14q0 33 -25.5 57
t-60.5 24q-7 0 -15 -1.5t-17 -5.5zM551 669q-24 -45 -64 -70t-91 -25q-45 0 -75 19t-39 53q-3 11 4.5 19.5t24.5 13.5q19 6 29 4t12 -11q5 -40 24 -59.5t52 -19.5q37 0 66.5 23t39.5 58q2 5 4 7t6 2q6 0 8 -4.5t-1 -9.5z" />
    <glyph glyph-name="Edotaccent" unicode="&#x116;" horiz-adv-x="1066" 
d="M52 0zM178 -2q-34 -1 -45 -1.5t-16 -0.5q-26 0 -43 5t-22 15q-3 18 16.5 43.5t44.5 38.5q8 2 24 0t61 -13q52 -13 78 -17.5t46 -4.5q24 0 42 5.5t31 17.5q24 20 45.5 55t47.5 100q9 23 31 80t36 91q-63 9 -117 15t-99 9q-4 0 -6.5 1t-2.5 3t2 2.5t10 0.5q49 0 108.5 1
t119.5 2q43 107 106 184.5t135 114.5q-70 19 -129 28.5t-109 9.5q-52 0 -91.5 -8.5t-71.5 -25.5q-56 -30 -99.5 -93.5t-85.5 -174.5q-16 -42 -35.5 -59t-50.5 -17q-36 0 -43 22.5t17 59.5q54 85 129.5 154.5t163.5 114.5q71 36 146 54t153 18q58 0 133 -12t198 -41
q95 -23 132.5 -35.5t40.5 -20.5q4 -9 -19.5 -35t-36.5 -29q-12 0 -65.5 13t-129.5 35q-57 17 -92 27t-48 13q-16 -11 -36 -44.5t-48 -97.5q-13 -30 -35.5 -84.5t-28.5 -68.5q145 3 176.5 3.5t50.5 0.5q42 0 71.5 -2t42.5 -6q13 -3 -15 -36.5t-45 -37.5q-18 -4 -36.5 -4.5
t-56.5 3.5q-18 2 -45.5 5.5t-163.5 23.5q-57 -127 -124 -210.5t-143 -120.5q22 -1 40.5 -1.5t38.5 -0.5q81 0 153.5 4t124.5 11q19 2 108 14t102 12q3 0 4.5 -1.5t0.5 -5.5q-2 -11 -28 -43t-43 -44q-7 -3 -47 -5t-122 -2h-188q-69 0 -149 -1.5t-199 -5.5zM972 895
q-16 0 -24.5 2t-14.5 7q-5 18 14 59.5t38 51.5q6 3 21 5.5t27 2.5q15 0 30.5 -4.5t20.5 -9.5q0 -26 -28.5 -63t-49.5 -45q-6 -3 -14.5 -4.5t-19.5 -1.5z" />
    <glyph glyph-name="edotaccent" unicode="&#x117;" horiz-adv-x="486" 
d="M23 0zM281 43q-46 -28 -77.5 -39t-62.5 -11q-36 0 -68 23.5t-43 59.5q-13 48 -2.5 97.5t43.5 109.5q26 47 79 98.5t109 84.5q44 25 78 36.5t64 11.5q42 0 65.5 -17t23.5 -46q0 -41 -51.5 -90t-170.5 -121q-30 -19 -65.5 -40t-74.5 -43q0 -5 0.5 -9.5l1.5 -13.5
q7 -38 31 -57.5t62 -19.5q21 0 44.5 6.5t45.5 18.5q23 13 57.5 42.5t54.5 56.5l9 -5q-29 -36 -71 -72.5t-82 -60.5zM274 464q-22 -14 -48 -46.5t-48 -74.5q-23 -42 -36 -88.5t-14 -88.5q40 23 73.5 43.5t60.5 38.5q58 38 86.5 65t38.5 52q3 5 4 11t1 14q0 33 -25.5 57
t-60.5 24q-7 0 -15 -1.5t-17 -5.5zM440 596q-16 0 -24.5 2t-14.5 7q-5 18 14 59.5t38 51.5q6 3 21 5.5t27 2.5q15 0 30.5 -4.5t20.5 -9.5q0 -26 -28.5 -63t-49.5 -45q-6 -3 -14.5 -4.5t-19.5 -1.5z" />
    <glyph glyph-name="Eogonek" unicode="&#x118;" horiz-adv-x="1066" 
d="M178 -2q-34 -1 -45 -1.5t-16 -0.5q-26 0 -43 5t-22 15q-3 18 16.5 43.5t44.5 38.5q8 2 24 0t61 -13q52 -13 78 -17.5t46 -4.5q24 0 42 5.5t31 17.5q24 20 45.5 55t47.5 100q9 23 31 80t36 91q-63 9 -116.5 15t-98.5 9q-4 0 -7 1t-3 3t2 2.5t10 0.5q49 0 108.5 1t119.5 2
q44 107 106 184t135 115q-70 19 -129 28.5t-109 9.5q-52 0 -91.5 -8.5t-71.5 -25.5q-59 -32 -104.5 -97.5t-80.5 -170.5q-14 -41 -33.5 -58.5t-52.5 -17.5q-36 0 -43 22.5t17 59.5q54 85 129.5 154.5t163.5 114.5q71 36 146 54t153 18q58 0 133 -12t198 -41
q95 -23 132.5 -35.5t40.5 -20.5q4 -9 -19.5 -35t-36.5 -29q-12 0 -65.5 13t-129.5 35q-57 17 -92 27t-48 13q-16 -11 -36 -44.5t-48 -97.5q-13 -30 -35.5 -84.5t-28.5 -68.5q145 3 176.5 3.5t50.5 0.5q42 0 71.5 -2t42.5 -6q13 -3 -15 -36.5t-45 -37.5q-18 -4 -36.5 -4.5
t-56.5 3.5q-18 2 -45.5 5.5t-163.5 23.5q-57 -127 -124 -210.5t-143 -120.5q22 -1 40.5 -1.5t38.5 -0.5q82 0 154 4t124 11q19 2 108 14t102 12q3 0 4.5 -1.5t1.5 -5.5q-3 -11 -29.5 -43t-42.5 -44q-7 -3 -44.5 -5t-86.5 -2q-48 -27 -74 -56t-29 -58q-3 -27 11 -42t42 -15
q18 0 34.5 5t28.5 15q7 4 -11.5 -34t-32.5 -47q-11 -7 -23 -10.5t-25 -3.5q-45 -1 -66 27t-10 72q8 36 45.5 75.5t92.5 71.5h-10.5h-10.5h-188q-69 0 -149 -1.5t-199 -5.5z" />
    <glyph glyph-name="eogonek" unicode="&#x119;" horiz-adv-x="486" 
d="M263 -227q-14 -8 -25 -11t-24 -3q-45 -1 -65.5 28.5t-9.5 76.5q9 39 41.5 82t86.5 88q-37 -22 -67 -31.5t-59 -9.5q-36 0 -68 24t-42 59q-14 48 -4 97.5t44 109.5q27 48 80 99t109 84q42 25 77 36.5t65 11.5q42 0 65.5 -17t23.5 -46q0 -41 -52 -90t-171 -121
q-35 -23 -69.5 -43.5t-70.5 -39.5v-4t1 -5v-9t1 -5q9 -38 32.5 -57.5t60.5 -19.5q21 0 44.5 6.5t45.5 18.5q23 13 57.5 42.5t54.5 56.5l9 -5q-20 -26 -49.5 -54.5t-57.5 -49.5q-63 -45 -97.5 -88.5t-38.5 -83.5q-5 -30 9.5 -48t43.5 -18q18 0 34 5t29 15q7 4 -12 -34
t-32 -47zM274 464q-21 -14 -47 -46.5t-49 -74.5q-22 -39 -35.5 -86t-14.5 -90q38 21 71.5 41.5t62.5 39.5q59 39 87.5 65t37.5 52q3 5 4 11t1 14q0 33 -25.5 57t-60.5 24q-7 0 -15.5 -2t-16.5 -5z" />
    <glyph glyph-name="Ecaron" unicode="&#x11a;" horiz-adv-x="1066" 
d="M52 0zM178 -2q-34 -1 -45 -1.5t-16 -0.5q-26 0 -43 5t-22 15q-3 18 16.5 43.5t44.5 38.5q8 2 24 0t61 -13q52 -13 78 -17.5t46 -4.5q24 0 42 5.5t31 17.5q24 20 45.5 55t47.5 100q9 23 31 80t36 91q-63 9 -117 15t-99 9q-4 0 -6.5 1t-2.5 3t2 2.5t10 0.5q49 0 108.5 1
t119.5 2q43 107 106 184.5t135 114.5q-70 19 -129 28.5t-109 9.5q-52 0 -91.5 -8.5t-71.5 -25.5q-56 -30 -99.5 -93.5t-85.5 -174.5q-16 -42 -35.5 -59t-50.5 -17q-36 0 -43 22.5t17 59.5q54 85 129.5 154.5t163.5 114.5q71 36 146 54t153 18q58 0 133 -12t198 -41
q95 -23 132.5 -35.5t40.5 -20.5q4 -9 -19.5 -35t-36.5 -29q-12 0 -65.5 13t-129.5 35q-57 17 -92 27t-48 13q-16 -11 -36 -44.5t-48 -97.5q-13 -30 -35.5 -84.5t-28.5 -68.5q145 3 176.5 3.5t50.5 0.5q42 0 71.5 -2t42.5 -6q13 -3 -15 -36.5t-45 -37.5q-18 -4 -36.5 -4.5
t-56.5 3.5q-18 2 -45.5 5.5t-163.5 23.5q-57 -127 -124 -210.5t-143 -120.5q22 -1 40.5 -1.5t38.5 -0.5q81 0 153.5 4t124.5 11q19 2 108 14t102 12q3 0 4.5 -1.5t0.5 -5.5q-2 -11 -28 -43t-43 -44q-7 -3 -47 -5t-122 -2h-188q-69 0 -149 -1.5t-199 -5.5zM878 991q0 11 9 18
t24 7q22 0 32 -7t10 -21q0 -46 3 -74.5t9 -49.5q1 -4 3 -4.5t5 1.5q27 17 50.5 38.5t62.5 67.5q9 10 22.5 15.5t30.5 5.5q15 0 23 -5.5t8 -14.5q0 -22 -59 -55.5t-138 -58.5q-5 -2 -8 -1t-6 4q-33 35 -57 74.5t-24 59.5z" />
    <glyph glyph-name="ecaron" unicode="&#x11b;" horiz-adv-x="486" 
d="M23 0zM281 43q-46 -28 -77.5 -39t-62.5 -11q-36 0 -68 23.5t-43 59.5q-13 48 -2.5 97.5t43.5 109.5q26 47 79 98.5t109 84.5q44 25 78 36.5t64 11.5q42 0 65.5 -17t23.5 -46q0 -41 -51.5 -90t-170.5 -121q-30 -19 -65.5 -40t-74.5 -43q0 -5 0.5 -9.5l1.5 -13.5
q7 -38 31 -57.5t62 -19.5q21 0 44.5 6.5t45.5 18.5q23 13 57.5 42.5t54.5 56.5l9 -5q-29 -36 -71 -72.5t-82 -60.5zM274 464q-22 -14 -48 -46.5t-48 -74.5q-23 -42 -36 -88.5t-14 -88.5q40 23 73.5 43.5t60.5 38.5q58 38 86.5 65t38.5 52q3 5 4 11t1 14q0 33 -25.5 57
t-60.5 24q-7 0 -15 -1.5t-17 -5.5zM313 692q0 11 9 18t24 7q22 0 32 -7t10 -21q0 -46 3 -74.5t9 -49.5q1 -4 3 -4.5t5 1.5q27 17 50.5 38.5t62.5 67.5q9 10 22.5 15.5t30.5 5.5q15 0 23 -5.5t8 -14.5q0 -22 -59 -55.5t-138 -58.5q-5 -2 -8 -1t-6 4q-33 35 -57 74.5t-24 59.5
z" />
    <glyph glyph-name="Gcircumflex" unicode="&#x11c;" horiz-adv-x="1053" 
d="M125 0zM576 -216q-24 -9 -59.5 -20.5t-42.5 -13.5q-6 -1 -7 2.5t4 5.5q64 22 94.5 44.5t56.5 60.5q31 48 87 141t90 156q-98 -77 -200 -120.5t-185 -43.5q-105 0 -176.5 49.5t-98.5 139.5q-24 80 -6.5 172.5t71.5 171.5q45 66 122.5 128.5t168.5 103.5q74 34 152 51.5
t158 17.5q72 0 144.5 -12.5t152.5 -39.5q2 -1 3.5 -2.5t1.5 -3.5q0 -12 -39.5 -43.5t-55.5 -31.5q-6 0 -12.5 1.5t-17.5 4.5q-23 7 -76 27t-83 29q-48 15 -88 22t-78 7q-41 0 -80 -9t-77 -27q-55 -26 -103 -71t-85 -103q-53 -84 -71 -174.5t2 -166.5q24 -88 94.5 -136.5
t177.5 -49.5q126 -2 222 77t166 241q-90 5 -111.5 5.5t-44.5 0.5q-46 0 -100 -3.5t-140 -14.5q-29 -4 -39 -5t-15 -1q-2 0 -3 1t-1 3q0 4 4 11t12 17q15 18 31.5 31.5t27.5 16.5q5 2 25.5 3.5t139.5 1.5q42 0 90.5 1t120.5 3q20 1 26 1h9q20 0 51.5 -29.5t25.5 -45.5
q-29 -43 -62.5 -100t-72.5 -131q-29 -52 -71 -134t-54 -103q-11 -19 -31 -36.5t-48 -33.5q-19 -12 -43.5 -23t-53.5 -21zM947 897q0 -11 -9.5 -17.5t-24.5 -6.5q-22 0 -31.5 6.5t-9.5 21.5q0 46 -3 74t-9 49q-1 3 -2.5 4t-4.5 -1q-27 -17 -50 -37.5t-64 -67.5
q-9 -11 -22.5 -16.5t-30.5 -5.5q-15 0 -23 5.5t-8 15.5q0 22 59.5 55t138.5 58q5 2 7.5 1t5.5 -4q33 -34 57 -73.5t24 -60.5z" />
    <glyph glyph-name="gcircumflex" unicode="&#x11d;" horiz-adv-x="581" 
d="M0 0zM292 -265q-34 -58 -128.5 -93.5t-196.5 -34.5q-90 1 -147 21t-74 57q-7 18 -7.5 34t6.5 32q12 30 48 61t101 67q85 49 124 74t74 52q-4 -1 -9 -2t-9 -1q-5 0 -9.5 1.5t-7.5 3.5q-35 24 -36.5 96t32.5 147q29 67 90 127t136 97q35 18 67 28t55 10q39 0 65.5 -17
t60.5 -65q6 5 16 12.5t34 24.5q20 15 29.5 22.5t16.5 12.5q2 1 4 0t4 -4q-28 -33 -50.5 -64.5t-40.5 -59.5q-64 -101 -107.5 -194t-69.5 -185q-8 -26 -14.5 -54t-16.5 -76q-12 -62 -20.5 -87t-19.5 -43zM149 279q-23 -70 -23 -127t23 -83q48 29 144.5 121t164.5 179
q-39 60 -68.5 85t-61.5 25q-11 0 -21 -3t-22 -9q-41 -23 -78.5 -74.5t-57.5 -113.5zM-140 -310q15 -36 51.5 -54.5t92.5 -18.5q52 0 98.5 29t82.5 84q13 20 23.5 48.5t27.5 98.5q15 64 26 101t23 71q22 63 49.5 120.5t63.5 113.5q-68 -70 -147 -145.5t-123 -112.5
q-109 -86 -141.5 -114t-54.5 -51q-27 -27 -45 -50.5t-27 -45.5q-8 -18 -8 -37t8 -37zM582 573q0 -11 -9.5 -17.5t-24.5 -6.5q-22 0 -31.5 6.5t-9.5 21.5q0 46 -3 74t-9 49q-1 3 -2.5 4t-4.5 -1q-27 -17 -50 -37.5t-64 -67.5q-9 -11 -22.5 -16.5t-30.5 -5.5q-15 0 -23 5.5
t-8 15.5q0 22 59.5 55t138.5 58q5 2 7.5 1t5.5 -4q33 -34 57 -73.5t24 -60.5z" />
    <glyph glyph-name="Gbreve" unicode="&#x11e;" horiz-adv-x="1053" 
d="M125 0zM576 -216q-24 -9 -59.5 -20.5t-42.5 -13.5q-6 -1 -7 2.5t4 5.5q64 22 94.5 44.5t56.5 60.5q31 48 87 141t90 156q-98 -77 -200 -120.5t-185 -43.5q-105 0 -176.5 49.5t-98.5 139.5q-24 80 -6.5 172.5t71.5 171.5q45 66 122.5 128.5t168.5 103.5q74 34 152 51.5
t158 17.5q72 0 144.5 -12.5t152.5 -39.5q2 -1 3.5 -2.5t1.5 -3.5q0 -12 -39.5 -43.5t-55.5 -31.5q-6 0 -12.5 1.5t-17.5 4.5q-23 7 -76 27t-83 29q-48 15 -88 22t-78 7q-41 0 -80 -9t-77 -27q-55 -26 -103 -71t-85 -103q-53 -84 -71 -174.5t2 -166.5q24 -88 94.5 -136.5
t177.5 -49.5q126 -2 222 77t166 241q-90 5 -111.5 5.5t-44.5 0.5q-46 0 -100 -3.5t-140 -14.5q-29 -4 -39 -5t-15 -1q-2 0 -3 1t-1 3q0 4 4 11t12 17q15 18 31.5 31.5t27.5 16.5q5 2 25.5 3.5t139.5 1.5q42 0 90.5 1t120.5 3q20 1 26 1h9q20 0 51.5 -29.5t25.5 -45.5
q-29 -43 -62.5 -100t-72.5 -131q-29 -52 -71 -134t-54 -103q-11 -19 -31 -36.5t-48 -33.5q-19 -12 -43.5 -23t-53.5 -21zM942 995q-24 -45 -64 -70t-91 -25q-45 0 -75 19t-39 53q-3 11 4.5 19.5t24.5 13.5q19 6 29 4t12 -11q5 -40 24 -59.5t52 -19.5q37 0 66.5 23t39.5 58
q2 5 4 7t6 2q6 0 8 -4.5t-1 -9.5z" />
    <glyph glyph-name="gbreve" unicode="&#x11f;" horiz-adv-x="581" 
d="M0 0zM292 -265q-34 -58 -128.5 -93.5t-196.5 -34.5q-90 1 -147 21t-74 57q-7 18 -7.5 34t6.5 32q12 30 48 61t101 67q85 49 124 74t74 52q-4 -1 -9 -2t-9 -1q-5 0 -9.5 1.5t-7.5 3.5q-35 24 -36.5 96t32.5 147q29 67 90 127t136 97q35 18 67 28t55 10q39 0 65.5 -17
t60.5 -65q6 5 16 12.5t34 24.5q20 15 29.5 22.5t16.5 12.5q2 1 4 0t4 -4q-28 -33 -50.5 -64.5t-40.5 -59.5q-64 -101 -107.5 -194t-69.5 -185q-8 -26 -14.5 -54t-16.5 -76q-12 -62 -20.5 -87t-19.5 -43zM149 279q-23 -70 -23 -127t23 -83q48 29 144.5 121t164.5 179
q-39 60 -68.5 85t-61.5 25q-11 0 -21 -3t-22 -9q-41 -23 -78.5 -74.5t-57.5 -113.5zM-140 -310q15 -36 51.5 -54.5t92.5 -18.5q52 0 98.5 29t82.5 84q13 20 23.5 48.5t27.5 98.5q15 64 26 101t23 71q22 63 49.5 120.5t63.5 113.5q-68 -70 -147 -145.5t-123 -112.5
q-109 -86 -141.5 -114t-54.5 -51q-27 -27 -45 -50.5t-27 -45.5q-8 -18 -8 -37t8 -37zM578 671q-24 -45 -64 -70t-91 -25q-45 0 -75 19t-39 53q-3 11 4.5 19.5t24.5 13.5q19 6 29 4t12 -11q5 -40 24 -59.5t52 -19.5q37 0 66.5 23t39.5 58q2 5 4 7t6 2q6 0 8 -4.5t-1 -9.5z
" />
    <glyph glyph-name="Gdotaccent" unicode="&#x120;" horiz-adv-x="1053" 
d="M125 0zM576 -216q-24 -9 -59.5 -20.5t-42.5 -13.5q-6 -1 -7 2.5t4 5.5q64 22 94.5 44.5t56.5 60.5q31 48 87 141t90 156q-98 -77 -200 -120.5t-185 -43.5q-105 0 -176.5 49.5t-98.5 139.5q-24 80 -6.5 172.5t71.5 171.5q45 66 122.5 128.5t168.5 103.5q74 34 152 51.5
t158 17.5q72 0 144.5 -12.5t152.5 -39.5q2 -1 3.5 -2.5t1.5 -3.5q0 -12 -39.5 -43.5t-55.5 -31.5q-6 0 -12.5 1.5t-17.5 4.5q-23 7 -76 27t-83 29q-48 15 -88 22t-78 7q-41 0 -80 -9t-77 -27q-55 -26 -103 -71t-85 -103q-53 -84 -71 -174.5t2 -166.5q24 -88 94.5 -136.5
t177.5 -49.5q126 -2 222 77t166 241q-90 5 -111.5 5.5t-44.5 0.5q-46 0 -100 -3.5t-140 -14.5q-29 -4 -39 -5t-15 -1q-2 0 -3 1t-1 3q0 4 4 11t12 17q15 18 31.5 31.5t27.5 16.5q5 2 25.5 3.5t139.5 1.5q42 0 90.5 1t120.5 3q20 1 26 1h9q20 0 51.5 -29.5t25.5 -45.5
q-29 -43 -62.5 -100t-72.5 -131q-29 -52 -71 -134t-54 -103q-11 -19 -31 -36.5t-48 -33.5q-19 -12 -43.5 -23t-53.5 -21zM801 920q-16 0 -24.5 2t-14.5 7q-5 18 14 59.5t38 51.5q6 3 21 5.5t27 2.5q15 0 30.5 -4.5t20.5 -9.5q0 -26 -28.5 -63t-49.5 -45q-6 -3 -14.5 -4.5
t-19.5 -1.5z" />
    <glyph glyph-name="gdotaccent" unicode="&#x121;" horiz-adv-x="581" 
d="M0 0zM292 -265q-34 -58 -128.5 -93.5t-196.5 -34.5q-90 1 -147 21t-74 57q-7 18 -7.5 34t6.5 32q12 30 48 61t101 67q85 49 124 74t74 52q-4 -1 -9 -2t-9 -1q-5 0 -9.5 1.5t-7.5 3.5q-35 24 -36.5 96t32.5 147q29 67 90 127t136 97q35 18 67 28t55 10q39 0 65.5 -17
t60.5 -65q6 5 16 12.5t34 24.5q20 15 29.5 22.5t16.5 12.5q2 1 4 0t4 -4q-28 -33 -50.5 -64.5t-40.5 -59.5q-64 -101 -107.5 -194t-69.5 -185q-8 -26 -14.5 -54t-16.5 -76q-12 -62 -20.5 -87t-19.5 -43zM149 279q-23 -70 -23 -127t23 -83q48 29 144.5 121t164.5 179
q-39 60 -68.5 85t-61.5 25q-11 0 -21 -3t-22 -9q-41 -23 -78.5 -74.5t-57.5 -113.5zM-140 -310q15 -36 51.5 -54.5t92.5 -18.5q52 0 98.5 29t82.5 84q13 20 23.5 48.5t27.5 98.5q15 64 26 101t23 71q22 63 49.5 120.5t63.5 113.5q-68 -70 -147 -145.5t-123 -112.5
q-109 -86 -141.5 -114t-54.5 -51q-27 -27 -45 -50.5t-27 -45.5q-8 -18 -8 -37t8 -37zM437 596q-16 0 -24.5 2t-14.5 7q-5 18 14 59.5t38 51.5q6 3 21 5.5t27 2.5q15 0 30.5 -4.5t20.5 -9.5q0 -26 -28.5 -63t-49.5 -45q-6 -3 -14.5 -4.5t-19.5 -1.5z" />
    <glyph glyph-name="uni0122" unicode="&#x122;" horiz-adv-x="1053" 
d="M125 0zM576 -216q-24 -9 -59.5 -20.5t-42.5 -13.5q-6 -1 -7 2.5t4 5.5q64 22 94.5 44.5t56.5 60.5q31 48 87 141t90 156q-98 -77 -200 -120.5t-185 -43.5q-105 0 -176.5 49.5t-98.5 139.5q-24 80 -6.5 172.5t71.5 171.5q45 66 122.5 128.5t168.5 103.5q74 34 152 51.5
t158 17.5q72 0 144.5 -12.5t152.5 -39.5q2 -1 3.5 -2.5t1.5 -3.5q0 -12 -39.5 -43.5t-55.5 -31.5q-6 0 -12.5 1.5t-17.5 4.5q-23 7 -76 27t-83 29q-48 15 -88 22t-78 7q-41 0 -80 -9t-77 -27q-55 -26 -103 -71t-85 -103q-53 -84 -71 -174.5t2 -166.5q24 -88 94.5 -136.5
t177.5 -49.5q126 -2 222 77t166 241q-90 5 -111.5 5.5t-44.5 0.5q-46 0 -100 -3.5t-140 -14.5q-29 -4 -39 -5t-15 -1q-2 0 -3 1t-1 3q0 4 4 11t12 17q15 18 31.5 31.5t27.5 16.5q5 2 25.5 3.5t139.5 1.5q42 0 90.5 1t120.5 3q20 1 26 1h9q20 0 51.5 -29.5t25.5 -45.5
q-29 -43 -62.5 -100t-72.5 -131q-29 -52 -71 -134t-54 -103q-11 -19 -31 -36.5t-48 -33.5q-19 -12 -43.5 -23t-53.5 -21zM411 -153h-2q-8 -12 -19.5 -18.5t-22.5 -6.5q-9 0 -17 4.5t-12 11.5q-6 11 3 40t22 40q6 6 19.5 9.5t28.5 3.5q12 0 23.5 -4.5t16.5 -11.5
q2 -4 3.5 -11t1.5 -16q0 -57 -43.5 -101.5t-121.5 -68.5q-2 -1 -3 1.5t1 3.5q43 14 76.5 47.5t45.5 76.5z" />
    <glyph glyph-name="uni0123" unicode="&#x123;" horiz-adv-x="581" 
d="M0 0zM292 -265q-34 -58 -128.5 -93.5t-196.5 -34.5q-90 1 -147 21t-74 57q-7 18 -7.5 34t6.5 32q12 30 48 61t101 67q85 49 124 74t74 52q-4 -1 -9 -2t-9 -1q-5 0 -9.5 1.5t-7.5 3.5q-35 24 -36.5 96t32.5 147q29 67 90 127t136 97q35 18 67 28t55 10q39 0 65.5 -17
t60.5 -65q6 5 16 12.5t34 24.5q20 15 29.5 22.5t16.5 12.5q2 1 4 0t4 -4q-28 -33 -50.5 -64.5t-40.5 -59.5q-64 -101 -107.5 -194t-69.5 -185q-8 -26 -14.5 -54t-16.5 -76q-12 -62 -20.5 -87t-19.5 -43zM149 279q-23 -70 -23 -127t23 -83q48 29 144.5 121t164.5 179
q-39 60 -68.5 85t-61.5 25q-11 0 -21 -3t-22 -9q-41 -23 -78.5 -74.5t-57.5 -113.5zM-140 -310q15 -36 51.5 -54.5t92.5 -18.5q52 0 98.5 29t82.5 84q13 20 23.5 48.5t27.5 98.5q15 64 26 101t23 71q22 63 49.5 120.5t63.5 113.5q-68 -70 -147 -145.5t-123 -112.5
q-109 -86 -141.5 -114t-54.5 -51q-27 -27 -45 -50.5t-27 -45.5q-8 -18 -8 -37t8 -37zM436 672h2q8 11 19 17.5t22 6.5q10 0 18 -4t12 -11q6 -11 -3 -40.5t-22 -40.5q-6 -6 -20.5 -9.5t-28.5 -3.5q-11 0 -22 4.5t-17 11.5q-3 3 -4 9.5t-1 18.5q0 57 43.5 101.5t121.5 68.5
q2 1 3 -2t-1 -4q-44 -14 -77.5 -47.5t-44.5 -75.5z" />
    <glyph glyph-name="Hcircumflex" unicode="&#x124;" horiz-adv-x="1343" 
d="M43 0zM418 -36q-48 -26 -83.5 -38.5t-62.5 -12.5q-56 0 -108 30t-85 81q-34 54 -35.5 112t30.5 108q52 82 168.5 138.5t247.5 56.5h58t182 -2q21 37 40.5 72.5t36.5 64.5q31 56 45 92t13 57q0 14 -8.5 24.5t-22.5 14.5q-21 -8 -72 -46t-91 -74l-6 6q66 60 121.5 104
t89.5 63q9 5 28.5 4.5t26.5 -4.5q16 -9 27 -30.5t12 -42.5q2 -23 -12.5 -59.5t-55.5 -109.5q-15 -27 -44.5 -78.5t-33.5 -58.5q121 -1 184 -1.5t110 -0.5q22 38 43 72.5t36 57.5q76 116 219.5 198.5t266.5 89.5q40 2 153 -15t160 -29q4 -1 6 -3.5t2 -5.5q-3 -15 -36 -37.5
t-54 -22.5q-15 0 -42 5t-97 21q-93 22 -135.5 29t-69.5 7q-84 0 -145.5 -52t-136.5 -178q-15 -25 -31.5 -53t-48.5 -84q68 0 125 -0.5t81 -1.5q3 0 4.5 -1.5t1.5 -5.5q0 -7 -16 -22.5t-38 -29.5q-8 -5 -18 -7t-27 -3q-14 -1 -32.5 -1t-120.5 1q-13 -23 -27 -49l-35 -65
q-32 -58 -45.5 -93.5t-12.5 -57.5q0 -14 9 -25t23 -15q21 7 76.5 48t85.5 71l6 -7q-47 -45 -109 -94.5t-101 -72.5q-10 -6 -30 -5.5t-28 5.5q-15 10 -26 32t-12 42q-1 21 13 57t56 112q14 25 30 54t37 66q-56 3 -125.5 8t-157.5 13q-59 -99 -88 -147t-42 -67
q-39 -59 -100 -111t-147 -98zM392 414q-80 0 -136.5 -37t-92.5 -113q-22 -45 -19 -99.5t30 -103.5q28 -50 73.5 -78.5t98.5 -28.5q20 0 36 4t31 12q32 18 68.5 63t89.5 134q49 82 79 133.5t55 94.5q-135 11 -202 15t-111 4zM1379 887q0 -11 -9.5 -17.5t-24.5 -6.5
q-22 0 -31.5 6.5t-9.5 21.5q0 46 -3 74t-9 49q-1 3 -2.5 4t-4.5 -1q-27 -17 -50 -37.5t-64 -67.5q-9 -11 -22.5 -16.5t-30.5 -5.5q-15 0 -23 5.5t-8 15.5q0 22 59.5 55t138.5 58q5 2 7.5 1t5.5 -4q33 -34 57 -73.5t24 -60.5z" />
    <glyph glyph-name="hcircumflex" unicode="&#x125;" horiz-adv-x="613" 
d="M0 0zM56 10q-11 -4 -21.5 -6t-20.5 -2q-28 0 -39.5 12t-2.5 35q22 37 56 96.5t110 194.5q73 130 100.5 178t40.5 68q40 66 109 124t161 103q78 38 147.5 55t141.5 17q32 0 64.5 -1.5t50.5 -3.5q6 -1 9 -4.5t3 -8.5q0 -20 -26.5 -47.5t-43.5 -27.5q-16 0 -37.5 2.5
t-70.5 11.5q-59 11 -89 14.5t-54 3.5q-33 0 -53 -4t-38 -14q-35 -17 -77 -69t-93 -140q-20 -34 -46 -80t-84 -151q-35 -65 -54 -98.5t-35 -62.5q93 122 200.5 214.5t164.5 96.5q57 -17 49 -82t-81 -182q-54 -86 -66.5 -115t-11.5 -47q1 -15 8.5 -25t20.5 -14q23 8 58 35
t64 58l6 -7q-49 -50 -87 -81.5t-72 -51.5q-7 -2 -15 -3.5t-15 -1.5q-10 0 -18.5 1.5t-13.5 4.5q-18 12 -30 34.5t-13 43.5q-1 18 13 50t77 134q53 86 66.5 131t-13.5 66q-50 -15 -143.5 -106t-170.5 -204q-12 -18 -25 -39.5t-36 -63.5q-11 -18 -15.5 -26.5t-8.5 -14.5z
M669 911q0 -11 -9.5 -17.5t-24.5 -6.5q-22 0 -31.5 6.5t-9.5 21.5q0 46 -3 74t-9 49q-1 3 -2.5 4t-4.5 -1q-27 -17 -50 -37.5t-64 -67.5q-9 -11 -22.5 -16.5t-30.5 -5.5q-15 0 -23 5.5t-8 15.5q0 22 59.5 55t138.5 58q5 2 7.5 1t5.5 -4q33 -34 57 -73.5t24 -60.5z" />
    </font>
</defs>
</svg>
