<svg xmlns="http://www.w3.org/2000/svg">
<defs>
<font id="OggThin" horiz-adv-x="558" >
  <font-face 
    font-family="Ogg"
    font-weight="260"
    font-stretch="normal"
    units-per-em="1000"
    panose-1="2 9 3 4 8 7 6 3 2 3"
    ascent="800"
    descent="-200"
    x-height="500"
    cap-height="693"
    bbox="-251 -316.727 1334 1000"
    underline-thickness="50"
    underline-position="-150"
    unicode-range="U+000D-FB01"
  />
<missing-glyph horiz-adv-x="1414" 
d="M1229 695q53 -55 79 -152t26 -236q0 -126 -32.5 -230.5t-84.5 -158.5q-62 -62 -199.5 -107t-293.5 -45q-185 0 -342 46t-215 113q-45 51 -66 142t-21 237q0 114 28.5 216.5t75.5 155.5q67 77 202.5 117.5t327.5 40.5q189 0 322.5 -36t192.5 -103zM253 -6
q-18 -19 -32.5 -25.5t-32.5 -6.5q-3 0 -9 1.5t-15 4.5q4 -9 8.5 -16.5t10.5 -14.5q46 -51 196.5 -84t340.5 -33q162 0 299.5 33t181.5 76q37 38 56 134.5t19 245.5q0 182 -13 259.5t-48 114.5q-44 52 -172 78.5t-331 26.5q-176 0 -322 -34.5t-194 -87.5q-31 -36 -46.5 -127
t-15.5 -232v-64q44 31 62.5 39.5t35.5 8.5t35 -2.5t52 -11.5q32 -8 48 -10.5t31 -2.5q12 0 20.5 6.5t9.5 16.5q-18 -2 -37.5 6.5t-26.5 24.5q25 -9 47.5 -1.5t29.5 26.5q22 -11 40 -3t24 30q26 -2 42 7.5t22 31.5q29 -6 50 16.5t22 23.5q17 -1 39.5 6.5t43.5 22.5q5 2 10 5
l15 9l15 9t10 5q8 1 14 0t8 -4q-3 2 -12 -1.5t-13 -9.5q-32 -30 -46 -40.5t-29 -18.5q-26 -15 -40.5 -35.5t-21.5 -51.5q-4 -16 -11 -31t-18 -31q-5 -6 -10.5 -8.5t-13.5 -3.5q-21 -3 -25 -5t-5 -5q-1 -7 6 -12t17 -5q9 -1 25.5 -0.5t19.5 0.5q7 0 11 6t4 17q0 3 3.5 7
t15.5 13q15 11 20.5 17t7.5 12q2 9 0.5 16t-6.5 13q7 9 17 15t28 10q20 5 32.5 13t21.5 22q18 22 27.5 49t4.5 46q17 -10 33.5 -15t37.5 -5q17 0 26.5 4t14.5 12q18 -2 29.5 3t15.5 17q3 5 1.5 10t-6.5 6q19 -1 35 5.5t16 14.5q0 1 -3 1.5t-8 0.5q-6 0 -12.5 0.5t-17.5 3.5
q-10 2 -15 2.5t-10 0.5q-11 0 -20 -2.5t-15 -6.5l-2 2q5 8 14 11.5t28 3.5q4 0 8.5 -0.5t15.5 -1.5q14 -2 21.5 -2.5t14.5 -0.5q14 0 25 4.5t18 12.5q-15 0 -30 1t-41 5q-22 3 -32.5 4t-20.5 1q-17 0 -30.5 -10t-20.5 -28q-9 -17 -26.5 -20t-35.5 8q-7 5 -14 8t-14 3

<glyph glyph-name="uniFB01" unicode="fi" horiz-adv-x="424" 
d="M71 1q-20 -1 -30.5 -1h-19.5q-6 0 -6 4.5t6 4.5q35 0 46.5 7.5t11.5 43.5v412v7h-27.5h-27.5q-8 0 -10 1t-2 4l11 15h57q6 119 63 185.5t152 66.5q29 0 46.5 -4t17.5 -12q0 -11 -9.5 -21t-22.5 -10q-6 0 -13 1.5t-22 7.5q-19 8 -31 10.5t-25 2.5q-56 0 -89 -60.5
t-33 -165.5h98q4 0 4.5 -0.5t0.5 -1.5q0 -4 -4.5 -10.5t-9.5 -9.5h-49.5t-39.5 1v-419q1 -36 11.5 -43.5t62.5 -7.5q6 0 6 -4.5t-6 -4.5h-21t-37 1q-16 1 -22.5 1h-9.5h-8.5t-18.5 -1zM304 1q-21 -1 -32 -1h-20q-6 0 -6 4.5t6 4.5q41 0 51 9t10 52v334q0 35 -12 43t-52 -2
q-6 -1 -7.5 3t4.5 5q44 11 61.5 22t30.5 31q2 2 6 1.5t4 -4.5v-433q0 -42 10 -51.5t51 -9.5q6 0 6 -4.5t-6 -4.5h-19.5t-30.5 1q-13 1 -18.5 1h-8.5h-8.5t-19.5 -1z" />
    <glyph glyph-name="f_b" unicode="fb" horiz-adv-x="841" 
d="M79 479h-27.5h-27.5q-8 0 -10 1t-2 4l11 15h57q5 136 61 209t154 73q11 0 21.5 -1.5t20.5 -3.5q8 6 13 13t9 19q1 3 6 2t5 -4v-408q46 57 99 84.5t117 27.5q91 0 153.5 -66.5t62.5 -168.5q0 -119 -81 -202t-192 -83q-45 0 -87 11t-82 34l-13 -34q-1 -5 -6.5 -5t-5.5 4
v699v18v18q-23 11 -44 16t-44 5q-65 0 -99 -65.5t-34 -190.5h138q4 0 4.5 -0.5t0.5 -1.5q0 -4 -4.5 -10.5t-9.5 -9.5h-70t-59 1v-419q1 -36 11.5 -43.5t62.5 -7.5q6 0 6 -4.5t-6 -4.5h-21t-37 1q-16 1 -22.5 1h-9.5h-8.5t-18.5 -1q-20 -1 -30.5 -1h-19.5q-6 0 -6 4.5t6 4.5
q35 0 46.5 7.5t11.5 43.5v412v3.5v3.5zM768 246q0 103 -56 170t-146 67q-58 0 -107.5 -24t-88.5 -72v-314q45 -30 94.5 -45.5t96.5 -15.5q86 0 146.5 67t60.5 167z" />
    <glyph glyph-name="f_h" unicode="fh" horiz-adv-x="823" 
d="M79 479h-27.5h-27.5q-8 0 -10 1t-2 4l11 15h57q5 136 61 209t154 73q11 0 22 -1t22 -4q6 5 11 12.5t8 18.5q2 4 7 3.5t5 -4.5v-436q51 71 104.5 105.5t112.5 34.5q83 0 126 -54t43 -160v-198q0 -23 1 -37.5t3 -23.5q3 -16 10.5 -22t33.5 -6q6 0 6 -4.5t-6 -4.5h-6.5
t-17.5 1q-21 0 -30.5 0.5t-14.5 0.5h-7.5t-14.5 -1q-16 -1 -25 -1h-18q-6 0 -6 4.5t6 4.5q34 0 42.5 18t8.5 77v188q0 99 -36.5 147t-112.5 48q-53 0 -103.5 -32t-98.5 -97v-349h52q6 0 6 -4.5t-6 -4.5h-7t-20 1q-24 0 -34 0.5t-15 0.5h-7t-12 -1q-12 -1 -20 -1h-17
q-6 0 -6 4.5t6 4.5q30 0 37.5 16t7.5 94v616q-23 11 -44 16t-44 5q-65 0 -99 -65.5t-34 -190.5h138q4 0 4.5 -0.5t0.5 -1.5q0 -4 -4.5 -10.5t-9.5 -9.5h-70t-59 1v-419q1 -36 11.5 -43.5t62.5 -7.5q6 0 6 -4.5t-6 -4.5h-21t-37 1q-16 1 -22.5 1h-9.5h-8.5t-18.5 -1
q-20 -1 -30.5 -1h-19.5q-6 0 -6 4.5t6 4.5q35 0 46.5 7.5t11.5 43.5v412v3.5v3.5z" />
    <glyph glyph-name="f_hbar" unicode="f&#x127;" horiz-adv-x="823" 
d="M79 479h-27.5h-27.5q-8 0 -10 1t-2 4l11 15h57q5 136 61 209t154 73q11 0 22 -1t22 -4q6 5 11 12.5t8 18.5q2 4 7 3.5t5 -4.5v-171h20h20q38 0 80.5 1.5t69.5 3.5q3 -3 3 -12.5t-3 -10.5q-31 2 -72 3.5t-77 1.5h-20.5h-20.5v-252q51 71 104.5 105.5t112.5 34.5
q83 0 126 -54t43 -160v-198q0 -23 1 -37.5t3 -23.5q3 -16 10.5 -22t33.5 -6q6 0 6 -4.5t-6 -4.5h-6.5t-17.5 1q-21 0 -30.5 0.5t-14.5 0.5h-7.5t-14.5 -1q-16 -1 -25 -1h-18q-6 0 -6 4.5t6 4.5q34 0 42.5 18t8.5 77v188q0 99 -36.5 147t-112.5 48q-53 0 -103.5 -32
t-98.5 -97v-349h52q6 0 6 -4.5t-6 -4.5h-7t-20 1q-24 0 -34 0.5t-15 0.5h-7t-12 -1q-12 -1 -20 -1h-17q-6 0 -6 4.5t6 4.5q30 0 37.5 16t7.5 94v502q-30 -1 -45.5 -2t-26.5 -2q-3 1 -3 10.5t3 12.5q10 -1 25 -2t47 -2v99q-23 11 -44 16t-44 5q-65 0 -99 -65.5t-34 -190.5
h138q4 0 4.5 -0.5t0.5 -1.5q0 -4 -4.5 -10.5t-9.5 -9.5h-70t-59 1v-419q1 -36 11.5 -43.5t62.5 -7.5q6 0 6 -4.5t-6 -4.5h-21t-37 1q-16 1 -22.5 1h-9.5h-8.5t-18.5 -1q-20 -1 -30.5 -1h-19.5q-6 0 -6 4.5t6 4.5q35 0 46.5 7.5t11.5 43.5v412v3.5v3.5z" />
    <glyph glyph-name="f_iacute" unicode="f&#xed;" horiz-adv-x="454" 
d="M71 1q-20 -1 -30.5 -1h-19.5q-6 0 -6 4.5t6 4.5q35 0 46.5 7.5t11.5 43.5v419h-55q-8 0 -10 1t-2 4l11 15h57q6 119 63 185.5t152 66.5q29 0 46.5 -4t17.5 -12q0 -11 -9.5 -21t-22.5 -10q-6 0 -13 1.5t-22 7.5q-19 8 -31 10.5t-25 2.5q-56 0 -89 -60.5t-33 -165.5h98
q4 0 4.5 -0.5t0.5 -1.5q0 -4 -4.5 -10.5t-9.5 -9.5h-49.5t-39.5 1v-419q1 -36 11.5 -43.5t62.5 -7.5q6 0 6 -4.5t-6 -4.5h-21t-37 1q-16 1 -22.5 1h-9.5h-8.5t-18.5 -1zM450 670q-45 -35 -74 -60.5t-54 -50.5q-1 -1 -2 -1.5t-2 -0.5q-2 0 -3 1.5t-1 2.5t0.5 1.5l2.5 2.5
q23 23 48 52t61 75q10 14 13.5 18t5.5 6q4 4 7.5 5.5t8.5 1.5q6 0 12 -5.5t6 -11.5q0 -5 -2 -9.5t-7 -9.5q-2 -2 -5.5 -5t-14.5 -12zM334 1q-21 -1 -32 -1h-20q-6 0 -6 4.5t6 4.5q41 0 51 9t10 52v334q0 35 -12 43t-52 -2q-6 -1 -7.5 3t4.5 5q44 11 61.5 22t30.5 31
q2 2 6 1.5t4 -4.5v-433q0 -42 10 -51.5t51 -9.5q6 0 6 -4.5t-6 -4.5h-19.5t-30.5 1q-13 1 -18.5 1h-8.5h-8.5t-19.5 -1z" />
    <glyph glyph-name="f_imacron" unicode="f&#x12b;" horiz-adv-x="454" 
d="M71 1q-20 -1 -30.5 -1h-19.5q-6 0 -6 4.5t6 4.5q35 0 46.5 7.5t11.5 43.5v419h-55q-8 0 -10 1t-2 4l11 15h57q6 119 63 185.5t152 66.5q29 0 46.5 -4t17.5 -12q0 -11 -9.5 -21t-22.5 -10q-6 0 -13 1.5t-22 7.5q-19 8 -31 10.5t-25 2.5q-56 0 -89 -60.5t-33 -165.5h98
q4 0 4.5 -0.5t0.5 -1.5q0 -4 -4.5 -10.5t-9.5 -9.5h-49.5t-39.5 1v-419q1 -36 11.5 -43.5t62.5 -7.5q6 0 6 -4.5t-6 -4.5h-21t-37 1q-16 1 -22.5 1h-9.5h-8.5t-18.5 -1zM283 591q-5 0 -17.5 -1t-12.5 1q0 5 4 13t11 17h67q36 0 55.5 0.5t39.5 1.5q10 0 20 1t10 -1
q0 -5 -4 -13t-11 -17h-83q-32 0 -46.5 -0.5t-32.5 -1.5zM334 1q-21 -1 -32 -1h-20q-6 0 -6 4.5t6 4.5q41 0 51 9t10 52v334q0 35 -12 43t-52 -2q-6 -1 -7.5 3t4.5 5q44 11 61.5 22t30.5 31q2 2 6 1.5t4 -4.5v-433q0 -42 10 -51.5t51 -9.5q6 0 6 -4.5t-6 -4.5h-19.5t-30.5 1
q-13 1 -18.5 1h-8.5h-8.5t-19.5 -1z" />
    <glyph glyph-name="f_j" unicode="fj" horiz-adv-x="422" 
d="M71 1q-20 -1 -30.5 -1h-19.5q-6 0 -6 4.5t6 4.5q35 0 46.5 7.5t11.5 43.5v412v7h-27.5h-27.5q-8 0 -10 1t-2 4l11 15h57q6 119 63 185.5t152 66.5q29 0 46.5 -4t17.5 -12q0 -11 -9.5 -21t-22.5 -10q-6 0 -13 1.5t-22 7.5q-19 8 -31 10.5t-25 2.5q-56 0 -89 -60.5
t-33 -165.5h98q4 0 4.5 -0.5t0.5 -1.5q0 -4 -4.5 -10.5t-9.5 -9.5h-49.5t-39.5 1v-419q1 -36 11.5 -43.5t62.5 -7.5q6 0 6 -4.5t-6 -4.5h-21t-37 1q-16 1 -22.5 1h-9.5h-8.5t-18.5 -1zM286 -186q-31 -37 -54 -55t-41 -18q-13 0 -23 4.5t-10 10.5q0 12 12.5 25t25.5 13
q33 0 52.5 5t28.5 16q16 21 22 40.5t9 48.5q3 20 4 44.5t1 52.5v403q0 35 -12 43t-52 -2q-6 -1 -7.5 3t4.5 5q44 11 61.5 22t30.5 31q2 2 6 1.5t4 -4.5v-471q0 -87 -14 -131.5t-48 -86.5z" />
    <glyph glyph-name="f_k" unicode="fk" horiz-adv-x="804" 
d="M79 479h-27.5h-27.5q-8 0 -10 1t-2 4l11 15h57q5 136 61 209t154 73q11 0 22 -1t22 -4q6 5 11 12.5t8 18.5q2 4 7 3.5t5 -4.5v-647l220 223q36 37 48.5 54t12.5 29q0 15 -14.5 20t-57.5 5q-5 0 -5 4.5t5 4.5q8 0 22 -0.5t44 -0.5q18 -1 24.5 -1h9.5q4 0 18.5 0.5
t51.5 0.5q23 1 30 1h9q5 0 5 -4.5t-5 -4.5q-52 0 -85.5 -21t-105.5 -93l-47 -48l95 -152q66 -107 97.5 -137t69.5 -30q6 0 6.5 -4.5t-6.5 -4.5h-42q-20 0 -31 2t-19 8q-15 10 -33.5 34t-64.5 99l-98 159l-154 -155v-138h52q6 0 6 -4.5t-6 -4.5h-7t-20 1q-24 0 -34 0.5
t-15 0.5h-7t-12 -1q-12 -1 -20 -1h-17q-6 0 -6 4.5t6 4.5q30 0 37.5 16t7.5 94v616q-23 11 -44 16t-44 5q-65 0 -99 -65.5t-34 -190.5h138q4 0 4.5 -0.5t0.5 -1.5q0 -4 -4.5 -10.5t-9.5 -9.5h-70t-59 1v-419q1 -36 11.5 -43.5t62.5 -7.5q6 0 6 -4.5t-6 -4.5h-21t-37 1
q-16 1 -22.5 1h-9.5h-8.5t-18.5 -1q-20 -1 -30.5 -1h-19.5q-6 0 -6 4.5t6 4.5q35 0 46.5 7.5t11.5 43.5v412v3.5v3.5z" />
    <glyph glyph-name="f_l" unicode="fl" horiz-adv-x="434" 
d="M79 479h-27.5h-27.5q-8 0 -10 1t-2 4l11 15h57q5 136 61 209t154 73q11 0 22 -1t22 -4q6 5 11 12.5t8 18.5q2 4 7 3.5t5 -4.5v-687q0 -31 0.5 -49t0.5 -24q3 -22 13 -29.5t37 -7.5q6 0 6 -4.5t-6 -4.5h-18.5t-26.5 1q-11 1 -16 1h-8h-7.5t-13.5 -1q-14 -1 -23 -1h-18
q-6 0 -6 4.5t6 4.5q30 0 37.5 16t7.5 94v616q-23 11 -44 16t-44 5q-65 0 -99 -65.5t-34 -190.5h138q4 0 4.5 -0.5t0.5 -1.5q0 -4 -4.5 -10.5t-9.5 -9.5h-70t-59 1v-419q1 -36 11.5 -43.5t62.5 -7.5q6 0 6 -4.5t-6 -4.5h-21t-37 1q-16 1 -22.5 1h-9.5h-8.5t-18.5 -1
q-20 -1 -30.5 -1h-19.5q-6 0 -6 4.5t6 4.5q35 0 46.5 7.5t11.5 43.5v412v3.5v3.5z" />
    <glyph glyph-name="f_lcaron" unicode="f&#x13e;" horiz-adv-x="434" 
d="M12 0zM79 479h-27.5h-27.5q-8 0 -10 1t-2 4l11 15h57q5 136 61 209t154 73q11 0 22 -1t22 -4q6 5 11 12.5t8 18.5q2 4 7 3.5t5 -4.5v-687q0 -31 0.5 -49t0.5 -24q3 -22 13 -29.5t37 -7.5q6 0 6 -4.5t-6 -4.5h-18.5t-26.5 1q-11 1 -16 1h-8h-7.5t-13.5 -1q-14 -1 -23 -1
h-18q-6 0 -6 4.5t6 4.5q30 0 37.5 16t7.5 94v616q-23 11 -44 16t-44 5q-65 0 -99 -65.5t-34 -190.5h138q4 0 4.5 -0.5t0.5 -1.5q0 -4 -4.5 -10.5t-9.5 -9.5h-70t-59 1v-419q1 -36 11.5 -43.5t62.5 -7.5q6 0 6 -4.5t-6 -4.5h-21t-37 1q-16 1 -22.5 1h-9.5h-8.5t-18.5 -1
q-20 -1 -30.5 -1h-19.5q-6 0 -6 4.5t6 4.5q35 0 46.5 7.5t11.5 43.5v412v3.5v3.5zM458 765q-6 11 -8 15.5t-2 7.5q0 7 7.5 16t13.5 9q14 0 24 -27.5t10 -68.5q0 -24 -5 -49t-26 -85q-1 -4 -5.5 -3t-2.5 5q14 43 17.5 60t3.5 36t-5.5 38t-21.5 46z" />
    <glyph glyph-name="g_g" unicode="gg" horiz-adv-x="962" 
d="M490 524q0 -11 -10 -20.5t-25 -9.5q-6 0 -17 0.5t-40 2.5q-50 3 -78 4t-50 1v-2q71 -11 116.5 -58.5t45.5 -112.5q0 -77 -58.5 -124.5t-152.5 -47.5h-8.5h-8.5q-51 -4 -94.5 -29.5t-43.5 -55.5q0 -25 28.5 -35.5t93.5 -10.5h153q61 0 93.5 -25.5t32.5 -73.5
q0 -47 -29 -91t-83 -78q-45 -29 -97.5 -45.5t-101.5 -16.5q-74 0 -116 31t-42 85q0 57 47.5 107.5t119.5 76.5h-12q-60 0 -90.5 15.5t-30.5 45.5q0 32 42.5 61t105.5 42q-70 10 -108.5 54t-38.5 113q0 76 60.5 128.5t148.5 52.5q33 0 72 4.5t101 16.5q25 4 33.5 5.5
t13.5 1.5q13 0 20.5 -3t7.5 -9zM970 524q0 -11 -10 -20.5t-25 -9.5q-6 0 -17 0.5t-40 2.5q-50 3 -78 4t-50 1v-2q71 -11 116.5 -58.5t45.5 -112.5q0 -77 -58.5 -124.5t-152.5 -47.5h-8.5h-8.5q-48 -4 -88 -29.5t-40 -55.5q0 -25 28.5 -35.5t93.5 -10.5h165q61 0 93.5 -27
t32.5 -77q0 -46 -28.5 -89t-80.5 -76q-43 -29 -94.5 -45t-99.5 -16q-74 0 -116 31t-42 85q0 56 45 106.5t115 77.5h-25q-60 0 -90.5 15.5t-30.5 45.5q0 32 40 61.5t98 41.5q-70 10 -108.5 54t-38.5 113q0 76 60.5 128.5t148.5 52.5q33 0 72 4.5t101 16.5q25 4 33.5 5.5
t13.5 1.5q13 0 20.5 -3t7.5 -9zM72 331q0 -76 43.5 -120t113.5 -44q75 0 119.5 42.5t44.5 119.5q0 71 -47 120t-110 49q-73 0 -118.5 -45t-45.5 -122zM552 331q0 -76 43.5 -120t113.5 -44q75 0 119.5 42.5t44.5 119.5q0 71 -47 120t-110 49q-73 0 -118.5 -45t-45.5 -122z
M539 -168q0 -47 45 -77.5t115 -30.5h2q97 0 171.5 54t74.5 127q0 51 -29.5 71t-100.5 20h-128q-65 -19 -107.5 -65.5t-42.5 -98.5zM29 -171q0 -48 43 -76.5t117 -28.5h2q100 0 177 55.5t77 130.5q0 48 -29.5 67t-100.5 19h-128q-69 -19 -113.5 -66.5t-44.5 -100.5z" />
    <glyph glyph-name="g_gdotaccent" unicode="g&#x121;" horiz-adv-x="993" 
d="M0 0zM490 524q0 -11 -10 -20.5t-25 -9.5q-6 0 -17 0.5t-40 2.5q-50 3 -78 4t-50 1v-2q71 -11 116.5 -58.5t45.5 -112.5q0 -77 -58.5 -124.5t-152.5 -47.5h-8.5h-8.5q-51 -4 -94.5 -29.5t-43.5 -55.5q0 -25 28.5 -35.5t93.5 -10.5h153q61 0 93.5 -25.5t32.5 -73.5
q0 -47 -29 -91t-83 -78q-45 -29 -97.5 -45.5t-101.5 -16.5q-74 0 -116 31t-42 85q0 57 47.5 107.5t119.5 76.5h-12q-60 0 -90.5 15.5t-30.5 45.5q0 32 42.5 61t105.5 42q-70 10 -108.5 54t-38.5 113q0 76 60.5 128.5t148.5 52.5q33 0 72 4.5t101 16.5q25 4 33.5 5.5
t13.5 1.5q13 0 20.5 -3t7.5 -9zM970 524q0 -11 -10 -20.5t-25 -9.5q-6 0 -17 0.5t-40 2.5q-50 3 -78 4t-50 1v-2q71 -11 116.5 -58.5t45.5 -112.5q0 -77 -58.5 -124.5t-152.5 -47.5h-8.5h-8.5q-48 -4 -88 -29.5t-40 -55.5q0 -25 28.5 -35.5t93.5 -10.5h165q61 0 93.5 -27
t32.5 -77q0 -46 -28.5 -89t-80.5 -76q-43 -29 -94.5 -45t-99.5 -16q-74 0 -116 31t-42 85q0 56 45 106.5t115 77.5h-25q-60 0 -90.5 15.5t-30.5 45.5q0 32 40 61.5t98 41.5q-70 10 -108.5 54t-38.5 113q0 76 60.5 128.5t148.5 52.5q33 0 72 4.5t101 16.5q25 4 33.5 5.5
t13.5 1.5q13 0 20.5 -3t7.5 -9zM72 331q0 -76 43.5 -120t113.5 -44q75 0 119.5 42.5t44.5 119.5q0 71 -47 120t-110 49q-73 0 -118.5 -45t-45.5 -122zM552 331q0 -76 43.5 -120t113.5 -44q75 0 119.5 42.5t44.5 119.5q0 71 -47 120t-110 49q-73 0 -118.5 -45t-45.5 -122z
M539 -168q0 -47 45 -77.5t115 -30.5h2q97 0 171.5 54t74.5 127q0 51 -29.5 71t-100.5 20h-128q-65 -19 -107.5 -65.5t-42.5 -98.5zM29 -171q0 -48 43 -76.5t117 -28.5h2q100 0 177 55.5t77 130.5q0 48 -29.5 67t-100.5 19h-128q-69 -19 -113.5 -66.5t-44.5 -100.5zM713 639
q-13 0 -22 9t-9 22t9 22t22 9t22 -9t9 -22t-9 -22t-22 -9z" />
    <glyph glyph-name="gbreve_g" unicode="&#x11f;g" horiz-adv-x="993" 
d="M0 0zM490 524q0 -11 -10 -20.5t-25 -9.5q-6 0 -17 0.5t-40 2.5q-50 3 -78 4t-50 1v-2q71 -11 116.5 -58.5t45.5 -112.5q0 -77 -58.5 -124.5t-152.5 -47.5h-8.5h-8.5q-51 -4 -94.5 -29.5t-43.5 -55.5q0 -25 28.5 -35.5t93.5 -10.5h153q61 0 93.5 -25.5t32.5 -73.5
q0 -47 -29 -91t-83 -78q-45 -29 -97.5 -45.5t-101.5 -16.5q-74 0 -116 31t-42 85q0 57 47.5 107.5t119.5 76.5h-12q-60 0 -90.5 15.5t-30.5 45.5q0 32 42.5 61t105.5 42q-70 10 -108.5 54t-38.5 113q0 76 60.5 128.5t148.5 52.5q33 0 72 4.5t101 16.5q25 4 33.5 5.5
t13.5 1.5q13 0 20.5 -3t7.5 -9zM970 524q0 -11 -10 -20.5t-25 -9.5q-6 0 -17 0.5t-40 2.5q-50 3 -78 4t-50 1v-2q71 -11 116.5 -58.5t45.5 -112.5q0 -77 -58.5 -124.5t-152.5 -47.5h-8.5h-8.5q-48 -4 -88 -29.5t-40 -55.5q0 -25 28.5 -35.5t93.5 -10.5h165q61 0 93.5 -27
t32.5 -77q0 -46 -28.5 -89t-80.5 -76q-43 -29 -94.5 -45t-99.5 -16q-74 0 -116 31t-42 85q0 56 45 106.5t115 77.5h-25q-60 0 -90.5 15.5t-30.5 45.5q0 32 40 61.5t98 41.5q-70 10 -108.5 54t-38.5 113q0 76 60.5 128.5t148.5 52.5q33 0 72 4.5t101 16.5q25 4 33.5 5.5
t13.5 1.5q13 0 20.5 -3t7.5 -9zM72 331q0 -76 43.5 -120t113.5 -44q75 0 119.5 42.5t44.5 119.5q0 71 -47 120t-110 49q-73 0 -118.5 -45t-45.5 -122zM552 331q0 -76 43.5 -120t113.5 -44q75 0 119.5 42.5t44.5 119.5q0 71 -47 120t-110 49q-73 0 -118.5 -45t-45.5 -122z
M539 -168q0 -47 45 -77.5t115 -30.5h2q97 0 171.5 54t74.5 127q0 51 -29.5 71t-100.5 20h-128q-65 -19 -107.5 -65.5t-42.5 -98.5zM29 -171q0 -48 43 -76.5t117 -28.5h2q100 0 177 55.5t77 130.5q0 48 -29.5 67t-100.5 19h-128q-69 -19 -113.5 -66.5t-44.5 -100.5zM354 665
q-18 -44 -49.5 -69t-72.5 -26q-40 0 -73 21.5t-50 58.5q-4 8 -1 14t13 10q9 3 14 1.5t8 -7.5q17 -39 44 -61t56 -22q38 0 61.5 21.5t30.5 62.5q1 3 3.5 5t6.5 2q5 0 7.5 -3.5t1.5 -7.5z" />
    <glyph glyph-name="gdotaccent_g" unicode="&#x121;g" horiz-adv-x="993" 
d="M0 0zM490 524q0 -11 -10 -20.5t-25 -9.5q-6 0 -17 0.5t-40 2.5q-50 3 -78 4t-50 1v-2q71 -11 116.5 -58.5t45.5 -112.5q0 -77 -58.5 -124.5t-152.5 -47.5h-8.5h-8.5q-51 -4 -94.5 -29.5t-43.5 -55.5q0 -25 28.5 -35.5t93.5 -10.5h153q61 0 93.5 -25.5t32.5 -73.5
q0 -47 -29 -91t-83 -78q-45 -29 -97.5 -45.5t-101.5 -16.5q-74 0 -116 31t-42 85q0 57 47.5 107.5t119.5 76.5h-12q-60 0 -90.5 15.5t-30.5 45.5q0 32 42.5 61t105.5 42q-70 10 -108.5 54t-38.5 113q0 76 60.5 128.5t148.5 52.5q33 0 72 4.5t101 16.5q25 4 33.5 5.5
t13.5 1.5q13 0 20.5 -3t7.5 -9zM970 524q0 -11 -10 -20.5t-25 -9.5q-6 0 -17 0.5t-40 2.5q-50 3 -78 4t-50 1v-2q71 -11 116.5 -58.5t45.5 -112.5q0 -77 -58.5 -124.5t-152.5 -47.5h-8.5h-8.5q-48 -4 -88 -29.5t-40 -55.5q0 -25 28.5 -35.5t93.5 -10.5h165q61 0 93.5 -27
t32.5 -77q0 -46 -28.5 -89t-80.5 -76q-43 -29 -94.5 -45t-99.5 -16q-74 0 -116 31t-42 85q0 56 45 106.5t115 77.5h-25q-60 0 -90.5 15.5t-30.5 45.5q0 32 40 61.5t98 41.5q-70 10 -108.5 54t-38.5 113q0 76 60.5 128.5t148.5 52.5q33 0 72 4.5t101 16.5q25 4 33.5 5.5
t13.5 1.5q13 0 20.5 -3t7.5 -9zM72 331q0 -76 43.5 -120t113.5 -44q75 0 119.5 42.5t44.5 119.5q0 71 -47 120t-110 49q-73 0 -118.5 -45t-45.5 -122zM552 331q0 -76 43.5 -120t113.5 -44q75 0 119.5 42.5t44.5 119.5q0 71 -47 120t-110 49q-73 0 -118.5 -45t-45.5 -122z
M539 -168q0 -47 45 -77.5t115 -30.5h2q97 0 171.5 54t74.5 127q0 51 -29.5 71t-100.5 20h-128q-65 -19 -107.5 -65.5t-42.5 -98.5zM29 -171q0 -48 43 -76.5t117 -28.5h2q100 0 177 55.5t77 130.5q0 48 -29.5 67t-100.5 19h-128q-69 -19 -113.5 -66.5t-44.5 -100.5zM230 639
q-13 0 -22 9t-9 22t9 22t22 9t22 -9t9 -22t-9 -22t-22 -9z" />
    <glyph glyph-name="gdotaccent_gdotaccent" unicode="&#x121;&#x121;" horiz-adv-x="993" 
d="M0 0zM490 524q0 -11 -10 -20.5t-25 -9.5q-6 0 -17 0.5t-40 2.5q-50 3 -78 4t-50 1v-2q71 -11 116.5 -58.5t45.5 -112.5q0 -77 -58.5 -124.5t-152.5 -47.5h-8.5h-8.5q-51 -4 -94.5 -29.5t-43.5 -55.5q0 -25 28.5 -35.5t93.5 -10.5h153q61 0 93.5 -25.5t32.5 -73.5
q0 -47 -29 -91t-83 -78q-45 -29 -97.5 -45.5t-101.5 -16.5q-74 0 -116 31t-42 85q0 57 47.5 107.5t119.5 76.5h-12q-60 0 -90.5 15.5t-30.5 45.5q0 32 42.5 61t105.5 42q-70 10 -108.5 54t-38.5 113q0 76 60.5 128.5t148.5 52.5q33 0 72 4.5t101 16.5q25 4 33.5 5.5
t13.5 1.5q13 0 20.5 -3t7.5 -9zM970 524q0 -11 -10 -20.5t-25 -9.5q-6 0 -17 0.5t-40 2.5q-50 3 -78 4t-50 1v-2q71 -11 116.5 -58.5t45.5 -112.5q0 -77 -58.5 -124.5t-152.5 -47.5h-8.5h-8.5q-48 -4 -88 -29.5t-40 -55.5q0 -25 28.5 -35.5t93.5 -10.5h165q61 0 93.5 -27
t32.5 -77q0 -46 -28.5 -89t-80.5 -76q-43 -29 -94.5 -45t-99.5 -16q-74 0 -116 31t-42 85q0 56 45 106.5t115 77.5h-25q-60 0 -90.5 15.5t-30.5 45.5q0 32 40 61.5t98 41.5q-70 10 -108.5 54t-38.5 113q0 76 60.5 128.5t148.5 52.5q33 0 72 4.5t101 16.5q25 4 33.5 5.5
t13.5 1.5q13 0 20.5 -3t7.5 -9zM72 331q0 -76 43.5 -120t113.5 -44q75 0 119.5 42.5t44.5 119.5q0 71 -47 120t-110 49q-73 0 -118.5 -45t-45.5 -122zM552 331q0 -76 43.5 -120t113.5 -44q75 0 119.5 42.5t44.5 119.5q0 71 -47 120t-110 49q-73 0 -118.5 -45t-45.5 -122z
M539 -168q0 -47 45 -77.5t115 -30.5h2q97 0 171.5 54t74.5 127q0 51 -29.5 71t-100.5 20h-128q-65 -19 -107.5 -65.5t-42.5 -98.5zM29 -171q0 -48 43 -76.5t117 -28.5h2q100 0 177 55.5t77 130.5q0 48 -29.5 67t-100.5 19h-128q-69 -19 -113.5 -66.5t-44.5 -100.5zM230 639
q-13 0 -22 9t-9 22t9 22t22 9t22 -9t9 -22t-9 -22t-22 -9zM713 639q-13 0 -22 9t-9 22t9 22t22 9t22 -9t9 -22t-9 -22t-22 -9z" />
    <glyph glyph-name=".notdef" horiz-adv-x="1414" 
d="M1229 695q53 -55 79 -152t26 -236q0 -126 -32.5 -230.5t-84.5 -158.5q-62 -62 -199.5 -107t-293.5 -45q-185 0 -342 46t-215 113q-45 51 -66 142t-21 237q0 114 28.5 216.5t75.5 155.5q67 77 202.5 117.5t327.5 40.5q189 0 322.5 -36t192.5 -103zM253 -6
q-18 -19 -32.5 -25.5t-32.5 -6.5q-3 0 -9 1.5t-15 4.5q4 -9 8.5 -16.5t10.5 -14.5q46 -51 196.5 -84t340.5 -33q162 0 299.5 33t181.5 76q37 38 56 134.5t19 245.5q0 182 -13 259.5t-48 114.5q-44 52 -172 78.5t-331 26.5q-176 0 -322 -34.5t-194 -87.5q-31 -36 -46.5 -127
t-15.5 -232v-64q44 31 62.5 39.5t35.5 8.5t35 -2.5t52 -11.5q32 -8 48 -10.5t31 -2.5q12 0 20.5 6.5t9.5 16.5q-18 -2 -37.5 6.5t-26.5 24.5q25 -9 47.5 -1.5t29.5 26.5q22 -11 40 -3t24 30q26 -2 42 7.5t22 31.5q29 -6 50 16.5t22 23.5q17 -1 39.5 6.5t43.5 22.5q5 2 10 5
l15 9l15 9t10 5q8 1 14 0t8 -4q-3 2 -12 -1.5t-13 -9.5q-32 -30 -46 -40.5t-29 -18.5q-26 -15 -40.5 -35.5t-21.5 -51.5q-4 -16 -11 -31t-18 -31q-5 -6 -10.5 -8.5t-13.5 -3.5q-21 -3 -25 -5t-5 -5q-1 -7 6 -12t17 -5q9 -1 25.5 -0.5t19.5 0.5q7 0 11 6t4 17q0 3 3.5 7
t15.5 13q15 11 20.5 17t7.5 12q2 9 0.5 16t-6.5 13q7 9 17 15t28 10q20 5 32.5 13t21.5 22q18 22 27.5 49t4.5 46q17 -10 33.5 -15t37.5 -5q17 0 26.5 4t14.5 12q18 -2 29.5 3t15.5 17q3 5 1.5 10t-6.5 6q19 -1 35 5.5t16 14.5q0 1 -3 1.5t-8 0.5q-6 0 -12.5 0.5t-17.5 3.5
q-10 2 -15 2.5t-10 0.5q-11 0 -20 -2.5t-15 -6.5l-2 2q5 8 14 11.5t28 3.5q4 0 8.5 -0.5t15.5 -1.5q14 -2 21.5 -2.5t14.5 -0.5q14 0 25 4.5t18 12.5q-15 0 -30 1t-41 5q-22 3 -32.5 4t-20.5 1q-17 0 -30.5 -10t-20.5 -28q-9 -17 -26.5 -20t-35.5 8q-7 5 -14 8t-14 3
q-5 0 -9.5 -1.5t-20.5 -11.5q-16 -13 -35 -26.5t-36 -22.5q-2 -1 -5 -2t-9 -2q-7 -1 -10.5 -2.5t-5.5 -2.5q-9 -3 -12.5 -8.5t-4.5 -17.5q-26 -6 -58 -20t-97 -51q-58 -32 -83 -43t-43 -14q-5 -1 -10.5 -1t-13.5 2q-3 1 -5 1h-4t-5.5 -1t-13.5 -4q-18 -7 -27.5 -9t-16.5 -2
q-8 0 -13 10.5t-5 26.5q-13 5 -23 32t-10 52q0 11 9.5 25t26.5 27q17 12 30.5 27t21.5 28l7 14t8 15q5 8 11 13.5t13 9.5q5 7 14 32t19 38q11 15 27 25t39 15q-14 -14 -13 -26t15 -12q11 0 23 1t37 4q-11 -11 6.5 -19.5t45.5 0.5q-7 -27 1 -35.5t35 -2.5q-9 -25 -1 -35.5
t32 -1.5q-8 -21 -2 -30.5t27 -13.5q-13 -26 -2 -33t45 6q-8 53 -14.5 77.5t-14.5 37.5t-19.5 23t-33.5 22q-35 16 -45 26t-10 24q0 15 9.5 24.5t24.5 9.5q13 0 22 -6t19 -21q2 -3 4 -7.5t6 -15.5q5 -14 8 -21t7 -13q11 -17 28 -27t48 -19l-17 -16l-35 22q15 -37 18 -47
t5 -18q14 1 24.5 -2.5t17.5 -11.5q12 0 19.5 3t12.5 12q2 5 4 6t4 1q7 0 13.5 -1t23.5 -7q6 -3 18.5 -4.5t17.5 -2.5q9 8 14.5 22.5t5.5 28.5q0 25 -10.5 37t-32.5 12q-12 0 -21.5 -5.5t-12.5 -15.5q-3 -6 -2 -9.5t5 -3.5q12 0 17.5 -2.5t5.5 -7.5q0 -4 -1.5 -5t-7.5 -1
q-3 0 -6 1t-8 4q-1 0 -2 0.5l-1 0.5q-2 0 -4 -1t-5 -3q-4 -3 -6 -4t-4 -1q-4 0 -6.5 1t-2.5 3q0 4 4 9t7 6q1 2 2 3.5t1 5.5t1 7l2 6q6 13 20 21t29 8q23 0 39.5 -12t22.5 -33q6 13 15.5 23.5t22.5 17.5q8 5 18.5 7.5t32.5 3.5q25 2 38.5 5t26.5 9l4 -6q-10 -13 -20 -19
t-22 -6q4 -12 0.5 -22.5t-13.5 -15.5q4 -6 -3.5 -16t-17.5 -10q25 -4 55 -5t59 0l1 -5q-6 -15 -24.5 -24.5t-40.5 -10.5q4 -13 -13 -24t-36 -8q0 -17 -15.5 -27t-40.5 -10q-3 -7 -15.5 -11t-28.5 -4q-10 0 -22.5 2.5t-30.5 7.5q-6 -26 -5 -36t9 -12q5 -2 12.5 -1.5t25.5 5.5
q19 5 28.5 6.5t18.5 1.5q23 0 42 -9t35 -27q5 -6 10.5 -13t15.5 -21l19.5 -25.5t13.5 -16.5q22 -24 39 -34.5t33 -10.5q26 0 40.5 20t14.5 56q0 20 -5 37.5t-31 58.5q-8 14 -11.5 27t-3.5 25q0 31 24.5 79t26.5 54h11q2 -16 2.5 -36t-0.5 -61q-2 -30 -2 -44t1 -25
q1 -5 9.5 -43.5t8.5 -65.5q0 -45 -23 -72t-60 -27q-17 0 -32.5 5t-61.5 34v-48q0 -47 13 -58t69 -7q40 1 54.5 -13.5t10.5 -51.5q-3 -46 -8 -86.5t-11 -74.5q-4 -25 -37 -44t-78 -19q-12 0 -19 1.5t-7 4.5q-2 9 -0.5 18t5.5 10l6 6t7 6q4 4 7.5 5.5t7.5 1.5h5t9 -1
q5 -1 7.5 -1h4.5q19 1 26.5 7.5t7.5 22.5q-4 24 -5.5 41t-1.5 54q0 22 -6 30.5t-23 8.5q-5 0 -12 -0.5t-22 -2.5q-16 -2 -24 -2.5t-15 -0.5q-39 0 -60 27t-21 75q0 21 -1.5 29.5t-4.5 10.5q-7 -11 -11.5 -24t-4.5 -26q0 -44 15.5 -70.5t48.5 -39.5q2 -2 2 -11.5t-2 -14.5
q-5 -6 -11.5 -13.5t-19.5 -21.5q-20 -24 -30.5 -36t-18.5 -23q-16 -27 -53 -42t-80 -14q-5 0 -14.5 3t-9.5 6q-1 10 -0.5 19.5t2.5 12.5q1 1 12.5 9t18.5 8h7.5t10.5 -1q5 -1 7.5 -1h4.5q21 0 30.5 3.5t17.5 12.5q2 4 5 8t8 11q6 9 9 13t5 8q20 30 16 46t-33 27
q-37 14 -49 35t0 51q10 26 27 44t54 38q-21 6 -47 -7t-47 -42q-11 -16 -31 -47t-29 -44q-21 -28 -42 -39.5t-48 -11.5q-20 0 -41 7.5t-47 23.5q12 20 14 46.5t-7 42.5q-17 -68 -34 -88t-57 -13q-11 -23 -35 -32.5t-58 -4.5q-9 -22 -34.5 -38t-51.5 -15q-6 0 -12 -3t-16 -14z
M626 670q4 -2 5.5 -3t2.5 -1q-3 4 -5.5 8.5l-7.5 13.5q-4 9 -7 14t-6 9q-8 9 -10.5 10.5t-6.5 1.5q-5 0 -8.5 -4.5t-3.5 -9.5q0 -8 7.5 -15.5t22.5 -16.5q3 -1 6.5 -2.5zM771 582q0 3 2.5 5.5t8.5 4.5q5 2 9.5 0.5t4.5 -5.5q0 -3 -2 -4.5t-9 -2.5q-7 0 -10.5 0.5t-3.5 1.5z
M448 548q0 -10 -2 -15.5t-7 -9.5v-7q15 8 22.5 19t7.5 27q0 12 -10 21t-23 9q-12 0 -22.5 -8t-22.5 -25l3 -5q10 9 16.5 13t12.5 4q10 0 17.5 -6.5t7.5 -16.5zM725 539q-2 5 -9.5 7t-16.5 1q-4 -4 -1 -16t7 -12q7 0 15.5 8t4.5 12zM314 492q1 -4 1 -6v-3q0 -2 -0.5 -4
t-3.5 -6l-1.5 -3t-0.5 -2q0 -3 1 -4t3 -1l1 1t4 5q4 8 6.5 10.5t4.5 3.5q7 5 12 10t10 12h-4.5t-7.5 1q-7 1 -10 1h-6q-5 0 -7 -1.5t-2 -5.5v-3v-5zM228 442l-0.5 -2t-0.5 -6q0 -16 3 -25.5t9 -9.5q1 0 2 1.5t1 4.5v14t1 6q2 2 4.5 3.5t6.5 3.5q5 2 6 3.5t1 3.5q0 4 -1.5 5
t-3.5 -2q-7 -5 -17.5 -2.5zM324 371q-39 -4 -51 -2t-22 8l-3 -2q8 -12 17 -17.5t25 -3.5q2 3 10 5t15 2q3 0 5.5 -1t7.5 -4q2 -2 3 -2.5t2 -0.5q3 0 4 1t1 4q0 6 -4 9.5t-10 3.5zM153 161q-11 -5 -14 -11t-3 -17q1 -24 4 -50t7 -50q9 5 17.5 8t23.5 4q42 7 74 22t57 39
q7 7 17 14t30 20q32 20 43 32.5t14 27.5q-16 -14 -28.5 -18.5t-30.5 -4.5q-16 0 -27.5 7.5t-17.5 22.5q-19 -16 -41.5 -12.5t-31.5 24.5q-4 10 -7.5 12.5t-9.5 2.5q-4 0 -8 -3t-12 -14q-10 -14 -17.5 -19.5t-15.5 -6.5q-2 -11 -7 -18t-16 -12z" />
    <glyph glyph-name=".null" horiz-adv-x="0" 
 />
    <glyph glyph-name="nonmarkingreturn" horiz-adv-x="333" 
 />
    <glyph glyph-name="NULL" horiz-adv-x="0" 
 />
    <glyph glyph-name="NULL" horiz-adv-x="0" 
 />
    <glyph glyph-name="CR" unicode="&#xd;" horiz-adv-x="212" 
 />
    <glyph glyph-name="space" unicode=" " horiz-adv-x="212" 
 />
    <glyph glyph-name="exclam" unicode="!" horiz-adv-x="202" 
d="M86 642v5q0 10 13 26.5t18 16.5q6 0 8.5 -3.5t2.5 -12.5v-4q0 -5 -1 -19.5t-3 -62.5q-11 -177 -15 -284.5t-4 -186.5q0 -4 -3 -4t-3 4q0 77 -2 176t-8 260q-2 50 -2.5 66.5t-0.5 22.5zM101 -6q-14 0 -23.5 9.5t-9.5 23.5t9.5 24t23.5 10t23.5 -10t9.5 -24t-9.5 -23.5
t-23.5 -9.5z" />
    <glyph glyph-name="quotedbl" unicode="&#x22;" horiz-adv-x="231" 
d="M53 451zM53 690q0 8 6 13.5t13 5.5t13 -5.5t6 -13.5q0 -2 -0.5 -7t-2.5 -20q-7 -64 -10 -112t-3 -94q0 -6 -5 -6t-5 6q0 46 -2 94t-8 112q-1 15 -1.5 20t-0.5 7zM140 690q0 8 6 13.5t13 5.5t13 -5.5t6 -13.5q0 -2 -0.5 -7t-2.5 -20q-7 -64 -10 -112t-3 -94q0 -6 -5 -6
t-5 6q0 46 -2 94t-8 112q-1 15 -1.5 20t-0.5 7z" />
    <glyph glyph-name="numbersign" unicode="#" horiz-adv-x="809" 
d="M539 477q-1 -36 -1.5 -65.5t-0.5 -60.5v-61.5v-61.5q24 0 49.5 0.5t71.5 1.5q33 1 50 1.5t32 0.5q5 -7 6.5 -10.5t-0.5 -16.5q-67 6 -113 8.5t-96 3.5q0 -1 1 -66.5t3 -136.5q-2 -1 -8.5 -6.5t-16.5 -3.5q1 30 2.5 58.5t3.5 73.5q2 34 3 50.5t1 31.5q-19 1 -42.5 1h-78.5
h-86.5t-44.5 -1q0 -1 1 -67.5t3 -136.5q-2 -1 -8.5 -6.5t-16.5 -3.5q1 30 2.5 58t3.5 73l3 51t1 32q-36 -1 -72.5 -2.5t-122.5 -4.5q-1 2 -6.5 8.5t-3.5 16.5q60 -4 106 -5.5t100 -2.5v16.5v29.5q1 28 1 44v32v85.5t-1 42.5q-35 -1 -70.5 -2t-125.5 -4q-1 2 -6.5 8.5
t-3.5 16.5q53 -3 98 -5t108 -4v38.5t-1 59.5q-1 35 -1.5 55t-0.5 40q7 5 10.5 6.5t16.5 -0.5q-1 -16 -6 -86t-6 -113q19 -1 44 -1h84h80t43 1v38.5t-1 59.5q-1 35 -1.5 55t-0.5 40q7 5 10.5 6.5t16.5 -0.5q-1 -16 -6 -86t-6 -113q23 0 48 0.5t69 1.5q35 1 52 1.5t32 0.5
q5 -7 6.5 -10.5t-0.5 -16.5q-64 5 -110.5 8t-96.5 4zM276 478q-1 -38 -1.5 -67t-0.5 -60v-61.5v-61.5q20 -1 45 -1h85h79t43 1q1 36 1.5 64t0.5 58v85.5t-1 42.5q-19 1 -43 1h-79h-85t-44 -1z" />
    <glyph glyph-name="dollar" unicode="$" horiz-adv-x="538" 
d="M487 452q0 -10 -5 -10t-5 10q0 92 -5 126t-17 56q-18 31 -56.5 45t-108.5 14q-2 -59 -3 -127.5t-2 -195.5q126 -45 169.5 -87t43.5 -101q0 -81 -59.5 -134.5t-152.5 -57.5q0 -8 0.5 -18t0.5 -30t0.5 -29.5t0.5 -18.5q-4 -8 -9.5 -10t-14.5 0q1 19 2 41t2 65
q-52 0 -103.5 7.5t-107.5 22.5q-6 1 -8 3t-2 7v32v68q-1 50 -1 71.5v34.5q0 10 5.5 10t5.5 -10q0 -73 9 -114t28 -66q23 -29 65 -42.5t109 -13.5q3 76 4 156.5t1 179.5q-86 32 -107 41.5t-37 18.5q-44 25 -65 54t-21 66q0 83 61.5 133t166.5 54v15t-1 24v24v15q8 6 10.5 7
t13.5 -1q0 -7 -1.5 -36.5t-1.5 -47.5q41 0 83.5 -5.5t107.5 -20.5q7 -2 8.5 -4t2.5 -7v-11t-1 -27q-3 -47 -4 -88t-1 -88zM271 693q-90 -4 -146 -45.5t-56 -102.5q0 -35 18 -63t55 -51q20 -12 47 -24t84 -33q0 63 -0.5 130.5t-1.5 188.5zM286 0q84 3 133 45.5t49 113.5
q0 54 -40 94t-143 79q-1 -98 -0.5 -177t1.5 -155z" />
    <glyph glyph-name="percent" unicode="%" horiz-adv-x="777" 
d="M194 351q-72 0 -113 42t-41 115q0 46 20 86.5t53 65.5q21 16 54 27.5t61 11.5q70 0 108 -42.5t38 -120.5q0 -42 -19 -80.5t-50 -62.5q-25 -20 -54 -31t-57 -11zM690 690q-60 -64 -145 -161.5t-161 -188.5q-24 -28 -92.5 -113.5t-181.5 -227.5q-15 -3 -25 -3t-16 3
q59 65 132.5 148t170.5 195q51 61 123 150.5t160 199.5q11 2 19 1.5t16 -3.5zM297 397q22 21 33.5 55t11.5 76q0 73 -33.5 111.5t-98.5 38.5q-26 0 -49.5 -6t-41.5 -18q-22 -19 -34.5 -53t-12.5 -77q0 -70 36 -111t99 -41q26 0 51.5 7t38.5 18zM554 -8q-72 0 -113 42
t-41 115q0 46 20 86.5t53 65.5q21 16 54 27.5t61 11.5q70 0 108 -42.5t38 -120.5q0 -42 -19 -80.5t-50 -62.5q-25 -20 -54 -31t-57 -11zM657 38q22 21 33.5 55t11.5 76q0 73 -33.5 111.5t-98.5 38.5q-26 0 -49.5 -6t-41.5 -18q-22 -19 -34.5 -53t-12.5 -77q0 -70 36 -111
t99 -41q26 0 51.5 7t38.5 18z" />
    <glyph glyph-name="ampersand" unicode="&#x26;" horiz-adv-x="776" 
d="M745 191q0 -60 -51 -126.5t-98 -66.5q-26 0 -68.5 33.5t-121.5 117.5q-30 -58 -93 -106t-118 -48q-52 0 -98.5 49.5t-46.5 104.5q0 63 57.5 119.5t133.5 66.5q-52 65 -77 110.5t-25 76.5q0 76 46 124t122 49q36 1 96.5 -13t75.5 -25q-5 -45 -7.5 -88t-2.5 -84
q0 -12 -5.5 -12t-5.5 12q0 54 -6.5 88t-21.5 54q-21 31 -51.5 45.5t-72.5 14.5q-60 0 -100.5 -39.5t-40.5 -97.5q0 -40 38.5 -101t147.5 -186q111 -127 174.5 -184t93.5 -57q35 0 61.5 55t26.5 119q0 54 -9.5 95.5t-26.5 62.5l-104 1q-5 0 -42 0.5t-53 -2.5q-4 -1 -5.5 0.5
t1.5 4.5q2 3 10 14t15 11h13t34 -1q35 -1 49.5 -1h22.5q26 0 49 1t31 2q9 1 10.5 0t-2.5 -5q-6 -6 -13 -14t-9 -10q34 -33 50.5 -74t16.5 -90zM245 330q-67 -10 -114 -53t-50 -98q3 -57 48 -106t87 -49q48 0 101 38t82 94q-8 8 -17 18.5t-29 31.5q-12 14 -18.5 21.5
t-12.5 13.5q-20 22 -39.5 44.5t-37.5 44.5z" />
    <glyph glyph-name="quotesingle" unicode="'" horiz-adv-x="144" 
d="M53 690q0 8 6 13.5t13 5.5t13 -5.5t6 -13.5q0 -2 -0.5 -7t-2.5 -20q-7 -64 -10 -112t-3 -94q0 -6 -5 -6t-5 6q0 46 -2 94t-8 112q-1 15 -1.5 20t-0.5 7z" />
    <glyph glyph-name="parenleft" unicode="(" horiz-adv-x="400" 
d="M357 -271q-114 77 -184.5 225t-70.5 308q0 156 72 302t188 225q7 5 11.5 0.5t-1.5 -9.5q-108 -77 -173.5 -219.5t-65.5 -298.5q0 -160 64 -304.5t169 -219.5q7 -5 2 -9t-11 0z" />
    <glyph glyph-name="parenright" unicode=")" horiz-adv-x="400" 
d="M43 789q114 -77 184.5 -225t70.5 -308q0 -156 -72 -302t-188 -225q-7 -5 -11.5 -0.5t1.5 9.5q108 77 173.5 219.5t65.5 298.5q0 160 -64 304.5t-169 219.5q-7 5 -2 9t11 0z" />
    <glyph glyph-name="asterisk" unicode="*" horiz-adv-x="351" 
d="M173 385q-6 0 -13 7.5t-7 15.5q0 1 0.5 4.5t2.5 16.5q8 51 11.5 76.5t3.5 36.5q-13 -7 -37 -26t-64 -51q-4 -4 -5.5 -5l-1.5 -1q-6 -4 -16.5 -1.5t-13.5 8.5t0.5 15.5t10.5 12.5q1 1 6 3t24 9q45 17 65.5 26t28.5 14q-12 7 -38 18t-73 29q-9 3 -11.5 4l-2.5 1
q-6 4 -9 13.5t0 15.5q3 5 13 7t16 -2q1 0 6 -4t23 -18q37 -30 54 -42.5t25 -17.5q0 14 -3.5 40.5t-11.5 74.5l-2.5 15t-0.5 4q0 8 7 15.5t13 7.5t13 -7.5t7 -15.5q0 -1 -0.5 -5t-3.5 -19q-8 -50 -11 -74.5t-3 -35.5q11 7 31.5 22.5t59.5 46.5q10 9 13 11.5t4 2.5q7 4 17 1
t12 -8q3 -6 0 -15t-10 -13l-4 -1.5t-17 -6.5q-48 -19 -71 -29t-32 -15q11 -6 34 -16t67 -27q15 -5 19 -7t5 -2q6 -4 9 -13.5t0 -14.5q-3 -6 -13 -8t-16 2q-1 0 -4.5 3t-17.5 14q-39 31 -58 45.5t-28 19.5q0 -14 3.5 -39t11.5 -73q2 -13 2.5 -17t0.5 -5q0 -8 -7 -15.5
t-13 -7.5z" />
    <glyph glyph-name="plus" unicode="+" 
d="M448 347q5 -4 5 -12.5t-5 -11.5q-66 5 -96 6t-67 1q0 -40 1 -71t6 -93q-3 -5 -11.5 -5t-12.5 5q2 28 2.5 57t0.5 107q-39 0 -70 -1t-93 -6q-5 3 -5 11.5t5 12.5q69 -4 99 -5t64 -1q0 81 -0.5 109.5t-2.5 55.5q4 5 12.5 5t11.5 -5q-5 -66 -6 -96.5t-1 -68.5q36 0 67 1
t96 5z" />
    <glyph glyph-name="comma" unicode="," horiz-adv-x="209" 
d="M151 -2q0 -31 -17 -58.5t-46 -44.5q-4 -2 -5.5 0t2.5 4q24 15 36 36t12 51q0 8 -1.5 14t-5.5 11q-2 -8 -8.5 -12t-15.5 -4q-13 0 -22 8.5t-9 21.5q0 15 10 25t26 10q19 0 31.5 -17.5t12.5 -44.5z" />
    <glyph glyph-name="hyphen" unicode="-" horiz-adv-x="375" 
d="M69 264q27 -2 56 -2.5t62 -0.5t63 1t55 2q6 -3 5.5 -13.5t-5.5 -12.5q-27 2 -54.5 3t-63.5 1q-23 0 -47.5 -1t-70.5 -3q-5 3 -5 13t5 13z" />
    <glyph glyph-name="period" unicode="." horiz-adv-x="202" 
d="M101 -6q-14 0 -23.5 9.5t-9.5 23.5t9.5 24t23.5 10t23.5 -10t9.5 -24t-9.5 -23.5t-23.5 -9.5z" />
    <glyph glyph-name="slash" unicode="/" horiz-adv-x="356" 
d="M415 778q-39 -81 -94 -209.5t-133 -321.5q-84 -204 -129 -317t-79 -201q-1 0 -9.5 -3t-18.5 4q33 71 71 159.5t152 361.5q81 203 131.5 329t80.5 202q10 2 13 2t15 -6z" />
    <glyph glyph-name="zero" unicode="0" horiz-adv-x="706" 
d="M515 48q-37 -26 -83 -42t-88 -16q-145 0 -217 87.5t-72 263.5q0 100 32.5 174.5t95.5 121.5q34 25 89 45.5t94 20.5q146 0 217 -86t71 -264q0 -94 -40 -179t-99 -126zM618 351q0 166 -69.5 247.5t-210.5 81.5q-34 0 -76 -13.5t-75 -34.5q-46 -37 -71.5 -111.5
t-25.5 -174.5q0 -162 73.5 -247.5t214.5 -85.5q30 0 68.5 12t64.5 28q52 38 79.5 115t27.5 183z" />
    <glyph glyph-name="one" unicode="1" horiz-adv-x="217" 
d="M15 9h15q38 0 50 24t12 128v437q0 34 -18 41t-57 -12q-6 -2 -8 3t4 7q40 14 63 28t39 35q2 3 6.5 2t4.5 -5v-536q0 -104 12.5 -128t52.5 -24h17q4 0 4 -4.5t-4 -4.5q-9 0 -21.5 0.5t-38.5 1.5q-17 1 -23.5 1.5t-9.5 0.5t-10 -0.5t-25 -1.5q-29 -1 -42.5 -1.5t-22.5 -0.5
q-5 0 -5 4.5t5 4.5z" />
    <glyph glyph-name="two" unicode="2" horiz-adv-x="602" 
d="M382 -2q-82 1 -115.5 1h-47.5q-24 0 -56 -0.5t-88 -1.5q-17 -1 -22.5 -1h-7.5q0 1 -0.5 4.5t-0.5 8.5t1 8t2 4q110 98 160.5 143.5t103.5 95.5q99 93 135 157t36 133q0 76 -44 111.5t-135 35.5q-72 0 -124 -20t-74 -57q-11 -18 -16.5 -40.5t-6.5 -54.5q-1 -18 -0.5 -53
t0.5 -47q0 -5 -4.5 -5.5t-4.5 5.5q0 39 -3 78t-11 92q-3 20 -4 27t-1 11q0 10 2.5 15t8.5 7q19 5 59.5 17.5t63.5 18.5q34 9 65 13t63 4q101 0 154.5 -40.5t53.5 -116.5q0 -62 -47 -132.5t-159 -167.5q-81 -71 -138.5 -124.5t-107.5 -103.5q144 0 227.5 0.5t105.5 0.5
q72 1 97.5 24t38.5 93l13 68q1 5 6.5 4.5t4.5 -5.5l-13 -69q-5 -25 -14 -79t-14 -59q-2 -2 -13 -3t-31 -1h-24.5t-73.5 1z" />
    <glyph glyph-name="three" unicode="3" 
d="M239 -15q-33 0 -83 5t-83 12q-10 2 -9.5 6t7.5 3q49 -8 81.5 -11t61.5 -3q132 0 196.5 53.5t64.5 162.5q0 71 -41 111.5t-105 40.5q-29 0 -58 -10.5t-70 -40.5q-16 -12 -22 -15t-10 -3q-12 0 -14 12t2 21q133 44 202 104t69 130q0 61 -44.5 98t-118.5 37q-52 0 -91 -16
t-64 -48q-20 -26 -28 -57t-8 -103q0 -7 -4.5 -7t-4.5 7q0 38 -1.5 71t-5.5 71q-1 9 -1 12.5v5.5q0 11 2.5 16t8.5 6q69 27 122 40t99 13q88 0 132.5 -35t44.5 -103q0 -52 -49 -103t-154 -106q29 11 47.5 15.5t33.5 4.5q74 0 123 -49t49 -126q0 -100 -74 -161t-203 -61z" />
    <glyph glyph-name="four" unicode="4" horiz-adv-x="578" 
d="M302 28q9 10 12 29.5t3 73.5v86h-243q-11 0 -23.5 -0.5t-29.5 -2.5q-12 -1 -11 5.5t26 38.5q94 120 155 208.5t144 225.5q6 9 11 13t15 6q14 3 19 -3.5t-5 -17.5q-18 -22 -23 -35.5t-5 -32.5v-379h77q67 1 91.5 22.5t35.5 86.5l5 31q1 5 6 4.5t4 -5.5l-6 -39
q-8 -50 -14.5 -82.5t-10.5 -38.5q-1 -2 -17 -3.5t-40 -1.5h-131v-86q0 -54 2 -71t6 -27q7 -13 22.5 -18t67.5 -5q5 0 5 -4.5t-5 -4.5h-23.5t-47.5 1q-21 1 -29 1h-12h-12t-35 -1q-40 -1 -57.5 -1h-26.5q-4 0 -4 4.5t4 4.5q55 0 73 4t27 14zM35 243h282v366
q-111 -145 -181.5 -236.5t-100.5 -129.5z" />
    <glyph glyph-name="five" unicode="5" horiz-adv-x="540" 
d="M198 -1q127 0 190 47.5t63 144.5q0 89 -50 145.5t-131 56.5q-52 0 -98 -19t-106 -68q-4 -2 -6.5 0.5t-2.5 6.5l3 352q0 4 13 15t16 11h15.5t45.5 -1q58 0 85 -0.5t41 -0.5h156q24 0 33.5 -1t9.5 -3q0 -3 -1 -8.5t-3 -19.5q-6 -31 -8.5 -51t-3.5 -39l-5 -71
q0 -5 -4.5 -5.5t-4.5 4.5l5 72q4 55 -11 75.5t-65 21.5h-288l-7 -339q58 45 109.5 66.5t99.5 21.5q91 0 146 -57.5t55 -149.5q0 -100 -70 -160.5t-191 -60.5q-32 0 -78 5t-81 12q-10 2 -9.5 6t7.5 3q34 -5 70 -8.5t61 -3.5z" />
    <glyph glyph-name="six" unicode="6" horiz-adv-x="571" 
d="M281 -13q-104 0 -172.5 74t-68.5 194q0 62 27.5 134.5t75.5 135.5q46 59 104.5 103t128.5 70q5 2 7 -1t-3 -5q-65 -25 -119 -67.5t-95 -100.5q-41 -60 -64.5 -128.5t-23.5 -128.5q0 -117 63 -189.5t165 -72.5q30 0 59 8.5t57 26.5q41 39 58 75.5t17 81.5
q0 91 -53.5 148.5t-138.5 57.5q-37 0 -75.5 -16.5t-69.5 -44.5q-4 -2 -6 -0.5t1 4.5q33 33 80.5 56t83.5 23q97 0 153.5 -54.5t56.5 -150.5q0 -50 -21.5 -94.5t-60.5 -78.5q-44 -27 -89 -43.5t-77 -16.5z" />
    <glyph glyph-name="seven" unicode="7" horiz-adv-x="542" 
d="M285 0q-34 1 -45.5 1h-15.5h-12.5t-36.5 -1q-39 -1 -56 -1h-24q-6 0 -5.5 4.5t6.5 4.5h18q40 0 62 16t47 57q12 21 27 51t36 75l70 153q63 140 85.5 193.5t39.5 100.5h-298q-80 -1 -99.5 -18t-22.5 -78l-6 -104q-1 -8 -6 -7.5t-4 8.5l7 103q1 20 2.5 42.5t2.5 57.5
q0 12 0.5 16.5t0.5 7.5q0 2 9 3t32 1h134q13 0 49 0.5t123 0.5q51 1 67 1h20q3 0 5.5 -18t0.5 -20q-9 -19 -21.5 -46t-41.5 -93q-26 -60 -41 -92.5t-28 -62.5l-70 -154q-31 -69 -38.5 -94.5t-7.5 -45.5q0 -27 20 -41t57 -14q5 0 11 0.5t14 1.5q3 1 4 1h2q3 0 4.5 -1.5
t1.5 -4.5t-2.5 -4t-9.5 -1h-18t-49 1z" />
    <glyph glyph-name="eight" unicode="8" horiz-adv-x="574" 
d="M505 180q0 -37 -23.5 -73t-68.5 -68q-27 -19 -73.5 -34t-84.5 -15q-94 0 -152.5 50t-58.5 124q0 62 53.5 121.5t132.5 92.5q-80 42 -112 80.5t-32 85.5q0 37 20.5 68.5t61.5 58.5q24 16 61 27t68 11q85 0 133.5 -40t48.5 -107q0 -47 -41 -96t-117 -95q108 -54 146 -96.5
t38 -94.5zM169 666q-30 -24 -42 -48t-12 -57t18 -61.5t56 -55.5q17 -12 39 -24.5t87 -45.5q59 36 93.5 84t34.5 97q0 60 -47.5 97.5t-120.5 37.5q-32 0 -60 -6.5t-46 -17.5zM289 12q29 0 62.5 9t58.5 23q36 29 50 55.5t14 60.5q0 39 -21.5 72t-66.5 63q-31 21 -89.5 50
t-60.5 30q-71 -31 -114 -80t-43 -101q0 -80 58.5 -131t151.5 -51z" />
    <glyph glyph-name="nine" unicode="9" horiz-adv-x="578" 
d="M422 152q-46 -58 -105 -101.5t-128 -69.5q-5 -2 -7 1t3 5q65 25 119.5 67.5t95.5 100.5q43 60 67 129t24 128q0 122 -64 196t-168 74q-24 0 -45.5 -5t-57.5 -21q-40 -27 -64.5 -71t-24.5 -93q0 -95 49.5 -150.5t134.5 -55.5q37 0 75.5 15.5t67.5 42.5q4 2 6 0.5t-1 -4.5
q-33 -33 -80.5 -57t-83.5 -24q-95 0 -147.5 54t-52.5 154q0 51 23.5 97.5t66.5 82.5q45 26 87 39.5t77 13.5q102 0 171 -78t69 -204q0 -60 -28.5 -131.5t-78.5 -134.5z" />
    <glyph glyph-name="colon" unicode=":" horiz-adv-x="202" 
d="M101 349q-14 0 -23.5 9.5t-9.5 23.5t9.5 24t23.5 10t23.5 -10t9.5 -24t-9.5 -23.5t-23.5 -9.5zM101 -6q-14 0 -23.5 9.5t-9.5 23.5t9.5 24t23.5 10t23.5 -10t9.5 -24t-9.5 -23.5t-23.5 -9.5z" />
    <glyph glyph-name="semicolon" unicode=";" horiz-adv-x="212" 
d="M101 349q-14 0 -23.5 9.5t-9.5 23.5t9.5 24t23.5 10t23.5 -10t9.5 -24t-9.5 -23.5t-23.5 -9.5zM151 -2q0 -31 -17 -58.5t-46 -44.5q-4 -2 -5.5 0t2.5 4q24 15 36 36t12 51q0 8 -1.5 14t-5.5 11q-2 -8 -8.5 -12t-15.5 -4q-13 0 -22 8.5t-9 21.5q0 15 10 25t26 10
q19 0 31.5 -17.5t12.5 -44.5z" />
    <glyph glyph-name="less" unicode="&#x3c;" 
d="M428 212q2 -6 -0.5 -12t-6.5 -8q-14 8 -51.5 25t-98.5 43q-41 19 -67.5 31t-80.5 36q-1 0 -1 6t1 6q11 5 21.5 10t30.5 13q33 15 53.5 24.5t44.5 20.5q57 25 85 38.5t58 29.5q5 -3 7 -8.5t1 -11.5q-33 -11 -80 -31.5t-66 -28.5q-28 -12 -50.5 -22t-85.5 -40q10 -5 21 -10
t31 -14q29 -12 46.5 -20.5t37.5 -17.5q63 -27 90.5 -38t59.5 -21z" />
    <glyph glyph-name="equal" unicode="=" 
d="M279 421q60 0 96.5 1t74.5 3q4 -5 5 -11t-2 -13q-41 7 -106.5 6.5t-66.5 -0.5q-25 0 -78.5 1t-93.5 -2q-4 3 -5.5 9.5t0.5 12.5q38 -4 67.5 -5.5t108.5 -1.5zM279 266q60 0 96.5 1t74.5 3q5 -3 5.5 -10t-2.5 -14q-41 7 -106.5 6.5t-66.5 -0.5q-25 0 -78.5 1t-93.5 -2
q-5 1 -6.5 8.5t1.5 13.5q38 -4 67.5 -5.5t108.5 -1.5z" />
    <glyph glyph-name="greater" unicode="&#x3e;" 
d="M291 261q-61 -26 -98.5 -43t-51.5 -25q-4 2 -6.5 8t-0.5 12q32 10 59.5 21t90.5 38q20 9 37.5 17.5t46.5 20.5q20 9 31 14t21 10q-63 30 -85.5 40t-50.5 22q-19 8 -66 28.5t-80 31.5q-1 6 1 11.5t7 8.5q30 -16 58 -29.5t85 -38.5q24 -11 44.5 -20.5t53.5 -24.5
q20 -8 30.5 -13t21.5 -10q1 0 1 -6t-1 -6q-54 -24 -80.5 -36t-67.5 -31z" />
    <glyph glyph-name="question" unicode="?" horiz-adv-x="381" 
d="M118 132q0 3 -0.5 57t-0.5 152q0 5 2 7t6 4q92 45 129.5 90.5t37.5 107.5q0 59 -54.5 91.5t-153.5 32.5q-3 0 -5 1.5t-1 4.5q0 2 1 5.5t4 14.5q8 28 12 43t6 26q1 4 4 3.5t2 -4.5q-6 -26 -8.5 -40t-1.5 -17q0 -2 2.5 -3t15.5 -1q94 0 150.5 -40.5t56.5 -103.5
q0 -59 -46 -114.5t-131 -99.5q0 -7 0.5 -23t2.5 -61q2 -68 3 -91t0 -26q-1 -4 -16.5 -12t-16.5 -4zM137 -6q-14 0 -23.5 9.5t-9.5 23.5t9.5 24t23.5 10t23.5 -10t9.5 -24t-9.5 -23.5t-23.5 -9.5z" />
    <glyph glyph-name="at" unicode="@" horiz-adv-x="977" 
d="M790 -83l3 -2q-63 -62 -146 -98.5t-167 -36.5q-191 0 -309.5 106.5t-118.5 283.5q0 100 39.5 189t114.5 159q73 69 166.5 107.5t185.5 38.5q76 0 139.5 -21t112.5 -61q55 -45 86 -109t32 -126q0 -145 -94 -245.5t-229 -100.5q-8 0 -29 6.5t-25 10.5q-11 11 -20 33.5
t-10 38.5q-2 33 19.5 82t64.5 112q-64 -74 -134 -145.5t-127 -120.5q-5 -4 -17.5 -4t-16.5 3q-29 27 -34.5 92t19.5 125q17 40 46 77.5t67 68.5q43 35 89 55.5t79 20.5q31 0 51 -12t59 -55q10 10 29.5 29t30.5 32q5 4 7.5 4t3.5 -5q-110 -140 -153 -221t-42 -132
q1 -22 16.5 -51t29.5 -33q129 2 215.5 91.5t86.5 233.5q0 59 -31 122t-84 108q-48 42 -110.5 63t-136.5 21q-85 0 -173 -36t-157 -100q-72 -66 -110 -149t-38 -174q0 -186 114.5 -292t308.5 -106q75 0 150 31t147 92zM333 241q-18 -57 -14.5 -117.5t25.5 -81.5
q25 6 125.5 109t189.5 208q-42 49 -63 64.5t-46 15.5q-55 0 -123.5 -60t-93.5 -138z" />
    <glyph glyph-name="A" unicode="A" horiz-adv-x="711" 
d="M509 249l-126 -3q-34 0 -109.5 1t-103.5 2l-33 -79q-25 -60 -31.5 -82t-6.5 -36q0 -23 16 -33.5t50 -10.5q5 0 11 0.5t16 1.5q4 1 5.5 1h2.5q3 0 5 -1.5t2 -3.5q0 -3 -3 -4.5t-9 -1.5q-11 0 -28 0.5t-54 0.5q-23 1 -31 1h-12h-8t-17 -1q-20 -1 -29.5 -1h-17.5
q-3 0 -4.5 1.5t-1.5 3.5q0 1 2 2.5t4 1.5h4q17 0 30 7.5t27 26.5q15 20 30.5 51t35.5 80l215 519q1 2 3 2.5t5 0.5h6q3 0 5 -1t3 -3l228 -544q38 -90 57.5 -114.5t56.5 -24.5h8q3 0 5 -1t2 -3t-1.5 -3.5t-4.5 -1.5q-9 0 -22 0.5t-41 1.5q-17 1 -24 1h-10h-10.5t-26.5 -1
q-31 -1 -45 -1.5t-23 -0.5q-6 0 -5.5 4.5t6.5 4.5h41q36 0 34.5 27.5t-36.5 112.5zM173 257l204 1h129l-167 401z" />
    <glyph glyph-name="B" unicode="B" horiz-adv-x="605" 
d="M90 2q-33 -1 -48 -1.5t-23 -0.5q-6 0 -6 4.5t6 4.5h18q32 0 40.5 11.5t11.5 45.5q1 15 1.5 36t0.5 57v385q0 34 -0.5 54.5t-1.5 33.5q-3 31 -11.5 41.5t-40.5 10.5h-18q-6 0 -6 4.5t6 4.5q8 0 23 -0.5t48 -1.5q21 -1 29 -1h11t17.5 0.5t57.5 0.5q51 1 69.5 1.5t23.5 0.5
q134 0 197.5 -40t63.5 -123q0 -70 -57.5 -112.5t-167.5 -55.5q119 -7 183.5 -51.5t64.5 -121.5q0 -94 -70.5 -141.5t-210.5 -47.5q-19 0 -48.5 0.5t-84.5 1.5q-21 1 -28 1h-10h-11t-29 -1zM297 681h-117q-39 0 -46 -11.5t-7 -75.5v-227h159q109 0 170 42.5t61 121.5
q0 78 -51.5 114t-168.5 36zM130 47q3 -19 12 -26t49 -10q16 -1 43.5 -1.5t74.5 -0.5q112 0 171.5 46.5t59.5 133.5q0 79 -63.5 123t-177.5 44h-172v-228q0 -37 0.5 -54t2.5 -27z" />
    <glyph glyph-name="C" unicode="C" horiz-adv-x="754" 
d="M432 -11q-172 0 -280.5 99t-108.5 258t108.5 258t280.5 99q59 0 131 -13t112 -31l12 -213q1 -6 -3.5 -7t-5.5 6q-9 94 -18 131t-23 54q-24 29 -80.5 46t-128.5 17q-152 0 -247.5 -95t-95.5 -252t95.5 -252t247.5 -95q72 0 128.5 17t80.5 46q14 17 23.5 56t17.5 129
q1 7 5.5 6t3.5 -7l-12 -213q-40 -18 -112 -31t-131 -13z" />
    <glyph glyph-name="D" unicode="D" horiz-adv-x="733" 
d="M157 3q-15 0 -50 -0.5t-91 -2.5q-8 0 -8 3.5t8 3.5q48 0 59.5 18.5t14.5 83.5q1 25 1.5 96t0.5 188v200q0 33 -1.5 48t-4.5 23q-5 12 -15.5 16t-47.5 4q-6 0 -6 4.5t6 4.5h10.5t35.5 -1q40 -1 55.5 -1h20.5h14.5t44.5 1q52 1 73.5 1h30.5q168 0 275 -92t107 -245
q0 -162 -103 -259t-275 -97q-7 0 -21.5 0.5t-50.5 0.5q-40 1 -57 1.5t-26 0.5zM314 10q154 0 244 93t90 253q0 150 -95 239t-247 89h-108q-40 0 -51.5 -7t-14.5 -28q-2 -10 -3 -27t-1 -58v-423q0 -50 -2.5 -80.5t-7.5 -46.5q7 0 22.5 -0.5t56.5 -1.5q56 -1 80 -1.5t37 -0.5z
" />
    <glyph glyph-name="E" unicode="E" horiz-adv-x="618" 
d="M65 1q-16 0 -24.5 -0.5t-15.5 -0.5t-7 4.5t7 4.5q42 0 52.5 11.5t12.5 62.5q1 91 1 261v192q0 36 -0.5 57t-1.5 35q-3 33 -11 44.5t-41 11.5h-18q-6 0 -6 4.5t6 4.5q8 0 22.5 -0.5t46.5 -1.5q21 -1 28.5 -1h10.5h23.5t89.5 1q130 1 180.5 1.5t61.5 0.5q18 0 30.5 -1
t16.5 -3t11 -44.5t13 -99.5l4 -36q1 -5 -4 -5t-6 5l-5 36q-11 76 -42 106t-113 30h-219q-22 0 -30.5 -7.5t-9.5 -28.5q-1 -10 -1 -35v-29v-216h187q52 0 72 27t20 88v21q0 6 5 6t5 -6q0 -9 -0.5 -27.5t-2.5 -63.5q-1 -28 -1.5 -38t-0.5 -13q0 -4 0.5 -17t1.5 -50
q2 -38 2.5 -52t0.5 -18q0 -6 -5 -6t-5 6v15q0 62 -20 89t-72 27h-187v-263q0 -22 -1.5 -41t-5.5 -35h33.5t97.5 -1q66 -1 95 -1.5t46 -0.5q87 0 121.5 36t45.5 136l6 53q1 5 6.5 5t4.5 -5l-6 -54q-2 -16 -5 -47t-4 -44q-5 -46 -8 -66.5t-6 -22.5q-3 -3 -65.5 -2.5t-71.5 0.5
q-18 0 -47 0.5t-98 0.5q-70 1 -100 1.5t-48 0.5q-8 0 -18 -0.5t-34 -1.5z" />
    <glyph glyph-name="F" unicode="F" horiz-adv-x="608" 
d="M79 2q-23 -1 -35 -1.5t-20 -0.5q-6 0 -6 4.5t6 4.5h13q32 0 40.5 11.5t11.5 45.5q1 15 1.5 36t0.5 57v377q0 36 -0.5 57t-1.5 35q-3 33 -11 44.5t-41 11.5h-18q-6 0 -6 4.5t6 4.5q8 0 22.5 -0.5t46.5 -1.5q21 -1 28.5 -1h10.5h24.5t91.5 1q134 1 186 1.5t63 0.5
q18 0 30.5 -1t16.5 -3q3 -2 9 -37t15 -107l10 -74q1 -5 -4 -5t-6 5l-11 74q-11 74 -45.5 105t-109.5 31h-229q-22 0 -30.5 -7.5t-9.5 -28.5q-1 -10 -1 -35v-29v-235h184q52 0 72 27t20 88v21q0 6 5 6t5 -6q0 -9 -0.5 -27.5t-2.5 -63.5q-1 -28 -1.5 -38t-0.5 -13
q0 -4 0.5 -17t1.5 -50q2 -38 2.5 -52t0.5 -18q0 -6 -5 -6t-5 6v15q0 62 -20 89t-72 27h-184v-175q0 -43 1 -65t2 -36q4 -29 16 -39t55 -10h20q6 0 6 -4.5t-6 -4.5q-9 0 -24 0.5t-48 1.5q-21 1 -28.5 1h-10.5h-9t-22 -1z" />
    <glyph glyph-name="G" unicode="G" horiz-adv-x="770" 
d="M545 3q-30 -6 -61 -9.5t-62 -3.5q-170 0 -274.5 98t-104.5 258q0 159 108.5 258t280.5 99q59 0 131 -13t112 -31l12 -213q1 -6 -3.5 -7t-5.5 6q-8 90 -17.5 129t-23.5 56q-24 29 -80.5 46t-128.5 17q-152 0 -247.5 -95t-95.5 -252t94.5 -251.5t249.5 -94.5q60 0 122.5 17
t109.5 46q2 6 2.5 24.5t0.5 98.5q0 36 -0.5 70.5t-1.5 44.5q-15 2 -35.5 3t-42.5 2q-40 2 -94 3t-103 1q-5 0 -4.5 3.5t5.5 3.5q96 0 163 2.5t143 8.5q2 0 4 -2.5t2 -5.5q-1 -51 -1 -115.5v-206.5q0 -3 -3 -3.5t-5 2.5q-4 5 -11 15t-17 25q-7 -2 -46.5 -14.5t-71.5 -19.5z
" />
    <glyph glyph-name="H" unicode="H" horiz-adv-x="696" 
d="M569 344l-217 -2q-46 0 -111 1t-114 2v-186q0 -36 0.5 -57t1.5 -36q3 -34 11.5 -45.5t40.5 -11.5h20q6 0 6 -4.5t-6 -4.5q-9 0 -21.5 0.5t-38.5 1.5q-16 1 -22 1h-9h-9t-22 -1q-23 -1 -35 -1.5t-20 -0.5q-6 0 -6 4.5t6 4.5h13q32 0 40.5 11.5t11.5 45.5q1 15 1.5 36
t0.5 57v375q0 36 -0.5 57t-1.5 36q-3 34 -11.5 45.5t-40.5 11.5h-13q-6 0 -6 4.5t6 4.5q8 0 20 -0.5t35 -1.5q16 -1 22 -1h9h9t22 1q26 1 38.5 1.5t21.5 0.5q6 0 6 -4.5t-6 -4.5h-20q-32 0 -40.5 -11.5t-11.5 -45.5q-1 -15 -1.5 -36t-0.5 -57v-180l224 2l218 -3v181
q0 36 -0.5 57t-1.5 36q-3 34 -11.5 45.5t-40.5 11.5h-21q-6 0 -6 4.5t6 4.5q9 0 21.5 -0.5t38.5 -1.5q16 -1 22.5 -1h9.5h9t22 1l36 1.5t21 0.5q6 0 6 -4.5t-6 -4.5h-16q-32 0 -40 -11.5t-11 -46.5q-1 -14 -1.5 -35t-0.5 -57v-375q0 -36 0.5 -57t1.5 -35q3 -35 11 -46.5
t40 -11.5h16q6 0 6 -4.5t-6 -4.5q-9 0 -21 0.5l-36 1.5q-16 1 -22 1h-9h-9.5t-22.5 -1q-26 -1 -38.5 -1.5t-21.5 -0.5q-6 0 -6 4.5t6 4.5h21q32 0 40.5 11.5t11.5 45.5q1 15 1.5 36t0.5 57v185z" />
    <glyph glyph-name="I" unicode="I" horiz-adv-x="237" 
d="M97 159v375q0 44 -0.5 63t-1.5 32q-2 33 -10.5 44t-44.5 11h-13q-6 0 -6 4.5t6 4.5q8 0 20 -0.5l36 -1.5q16 -1 22.5 -1h9.5h9.5t23.5 1q27 1 40 1.5t22 0.5q6 0 6 -4.5t-6 -4.5h-20q-36 0 -44.5 -11t-10.5 -44q-1 -13 -1.5 -32t-0.5 -63v-375q0 -42 0.5 -61.5t1.5 -32.5
q2 -34 11 -45t44 -11h20q6 0 6 -4.5t-6 -4.5q-9 0 -22 0.5t-40 1.5q-17 1 -23.5 1h-9.5h-9.5t-22.5 -1l-36 -1.5t-20 -0.5q-6 0 -6 4.5t6 4.5h13q35 0 44 11t11 45q1 13 1.5 32.5t0.5 61.5z" />
    <glyph glyph-name="J" unicode="J" horiz-adv-x="249" 
d="M51 -119q-36 -36 -65.5 -55t-65.5 -27q-16 0 -24.5 4.5t-8.5 12.5q0 16 13 29.5t33 14.5q46 2 73.5 10t45.5 29q31 34 42.5 70t15.5 103q2 32 3 76.5t1 110.5v275v38v25q-1 24 -2 38.5t-3 23.5q-4 14 -11.5 19.5t-37.5 5.5h-26q-6 0 -6 4.5t6 4.5q9 0 22.5 -0.5
t42.5 -1.5q19 -1 25.5 -1h9.5h9.5t24.5 1l39 1.5t21 0.5q6 0 6 -4.5t-6 -4.5h-20q-36 0 -44 -11t-11 -44q0 -13 -0.5 -32t-0.5 -63v-215v-17v-34q1 -25 1 -36v-19q0 -120 -23.5 -198t-78.5 -134z" />
    <glyph glyph-name="K" unicode="K" horiz-adv-x="662" 
d="M52 1q-19 -1 -25 -1h-8q-6 0 -6 4.5t6 4.5q16 0 28 0.5t18 1.5q11 9 15.5 22.5t5.5 44.5q1 27 1.5 81t0.5 142v233q0 36 -0.5 57t-1.5 36q-3 34 -11.5 45.5t-40.5 11.5h-13q-6 0 -6 4.5t6 4.5q8 0 20 -0.5t35 -1.5q16 -1 22 -1h9h9t22 1q26 1 38.5 1.5t21.5 0.5
q6 0 6 -4.5t-6 -4.5h-20q-32 0 -40.5 -11.5t-11.5 -45.5q-1 -15 -1.5 -36t-0.5 -57v-283l289 310q34 37 47.5 57t13.5 36q0 15 -12.5 23t-33.5 8q-5 0 -10.5 -0.5t-13.5 -2.5q-3 -1 -4 -1h-2q-4 0 -6.5 2t-2.5 4q0 3 3 4.5t8 1.5h16t40 -1q28 -1 38.5 -1h14.5q15 0 30.5 0.5
t40.5 0.5q16 1 22.5 1h12.5q5 0 5 -4.5t-5 -4.5h-2q-44 0 -70.5 -15.5t-116.5 -110.5l-174 -184q17 9 38.5 14.5t43.5 5.5q27 0 50 -8.5t40 -25.5q19 -18 34.5 -48.5t35.5 -89.5q15 -45 27 -77t23 -55q22 -49 43 -67t57 -15l12 1q6 1 5.5 -4t-7.5 -5h-31h-9.5t-12.5 -1
t-12 -1h-8q-15 0 -26 5.5t-21 20.5q-14 20 -29.5 55.5t-33.5 91.5q-15 45 -27.5 77.5t-23.5 55.5q-22 43 -44.5 60.5t-62.5 17.5q-26 0 -47 -9.5t-42 -29.5l-100 -105v-85q0 -35 0.5 -55.5t1.5 -34.5q3 -32 11.5 -43t40.5 -11h20q6 0 6 -4.5t-6 -4.5q-9 0 -21 0.5t-37 0.5
q-16 1 -22 1h-9h-16.5t-40.5 -1z" />
    <glyph glyph-name="L" unicode="L" horiz-adv-x="568" 
d="M157 3l-141 -3q-8 0 -8 3.5t8 3.5q45 0 56.5 16.5t17.5 83.5q2 21 2.5 56.5t0.5 86.5q0 33 -0.5 83.5t-0.5 59.5v30v62q-1 49 -1 71v37q0 34 -1.5 48.5t-4.5 22.5q-4 12 -14.5 16t-47.5 4q-6 0 -6 4.5t6 4.5h8t24 -1q27 -1 38 -1h16h10.5t28.5 1q32 1 46.5 1h23.5
q6 0 6 -4.5t-6 -4.5h-28q-44 0 -53 -13.5t-9 -77.5v-432q0 -51 -2.5 -91.5t-5.5 -55.5h18.5t46.5 -1q68 -2 97.5 -2h42.5q77 2 107.5 12.5t46.5 36.5q12 20 21 55t20 111l12 84q1 5 5.5 5t3.5 -6l-10 -83q-20 -168 -24.5 -193t-7.5 -28t-35.5 -4t-97.5 -1q-35 0 -87.5 1
t-121.5 2z" />
    <glyph glyph-name="M" unicode="M" horiz-adv-x="825" 
d="M68 2q-21 -1 -32.5 -1.5t-19.5 -0.5q-6 0 -6 4.5t7 4.5h6q39 1 56 26.5t18 81.5v179t1 218v63.5v26.5q0 21 -4 34.5t-12 22.5q-12 13 -25 18.5t-37 5.5h-5q-5 0 -5 4t5 4q14 0 29 1t35 5q6 0 8 0.5t3 0.5q5 0 10 -1.5t6 -4.5q5 -9 16.5 -27t23.5 -35l266 -390l217 351
q20 32 31 50t18 28q5 7 7 9.5t3 4.5q5 6 7 8t6 2h13.5t34.5 -1q27 -1 37.5 -1h15.5q6 0 6 -4.5t-6 -4.5h-15q-31 0 -39.5 -8t-11.5 -31q-2 -11 -2.5 -28t-0.5 -47v-401q0 -38 0.5 -60t1.5 -37q3 -38 11 -50.5t41 -12.5h15q6 0 6 -4.5t-6 -4.5q-9 0 -23.5 0.5t-46.5 1.5
q-20 1 -27 1h-10h-8t-17 -1q-19 -1 -29 -1.5t-18 -0.5q-6 0 -6 4.5t6 4.5h20q33 0 41 12.5t11 50.5q1 15 1.5 37t0.5 60v476q0 4 -2.5 6.5t-6.5 2.5q-3 0 -6 -1.5t-4 -4.5l-266 -430q-3 -5 -5.5 -7t-5.5 -2h-3q-3 0 -6 2.5t-6 6.5l-275 401l-1 -507q-1 -53 21.5 -78
t83.5 -25h14q5 0 5 -4.5t-5 -4.5h-30.5t-66.5 2q-19 1 -25.5 1h-9.5h-9t-20 -1z" />
    <glyph glyph-name="N" unicode="N" horiz-adv-x="696" 
d="M597 -3q-5 0 -9 3.5t-15 18.5l-462 605l-1 -515q0 -31 5.5 -51t17.5 -31q10 -10 27 -14t55 -4h14q5 0 5 -4.5t-5 -4.5h-29.5t-61.5 2q-19 1 -25 1h-9h-9.5t-22.5 -1l-36 -1.5t-20 -0.5q-6 0 -6 4.5t7 4.5h6q43 1 58 23.5t16 76.5l1 509q0 10 -3.5 18t-10.5 15
q-18 18 -37 26t-44 8h-4q-5 0 -5 4t5 4q28 0 50 1t40 2q3 1 4.5 1h2.5q4 0 6 -1.5t4 -4.5q5 -10 15.5 -24.5t22.5 -28.5l449 -582v488q0 46 -3 71t-11 39q-8 17 -26.5 23.5t-73.5 6.5h-14q-6 0 -6 4.5t6 4.5q9 0 26.5 -0.5t59.5 -1.5q26 -1 35.5 -1h12.5h8t18 1q21 1 32 1.5
t20 0.5q6 0 6 -4.5t-6 -4.5h-7q-34 0 -44.5 -11t-14.5 -39q-3 -15 -4 -37t-1 -53v-537q0 -5 -2.5 -7.5t-6.5 -2.5z" />
    <glyph glyph-name="O" unicode="O" horiz-adv-x="794" 
d="M646 95q-51 -50 -116 -77.5t-135 -27.5q-151 0 -251.5 101.5t-100.5 254.5t102.5 255t252.5 102q154 0 253 -101t99 -256q0 -72 -27 -136.5t-77 -114.5zM85 346q0 -152 86.5 -249t219.5 -97q135 0 226 98.5t91 247.5q0 157 -84 252t-222 95q-137 0 -227 -98t-90 -249z
" />
    <glyph glyph-name="P" unicode="P" horiz-adv-x="613" 
d="M52 1q-17 -1 -22.5 -1h-7.5q-6 0 -6 4.5t6 4.5l46 2q10 10 14.5 29.5t6.5 60.5q1 28 1.5 74.5t0.5 125.5v237q0 35 -0.5 56t-1.5 35q-3 33 -11.5 44t-40.5 11h-18q-6 0 -6 4.5t6 4.5q8 0 23 -0.5t48 -1.5q21 -1 29 -1h11q4 0 23 0.5t71 1.5q36 1 47 1h13q138 0 213.5 -50
t75.5 -142q0 -93 -77.5 -149.5t-205.5 -56.5h-24h-47q-38 1 -57.5 1h-34.5v-174q0 -67 7.5 -90t39.5 -23h51q6 0 6 -4.5t-6 -4.5h-25t-53 1q-23 1 -31.5 1h-11.5h-15.5t-36.5 -1zM277 683h-111q-26 0 -32.5 -22t-6.5 -128v-227h149q120 0 187.5 52t67.5 144
q0 90 -63.5 135.5t-190.5 45.5z" />
    <glyph glyph-name="Q" unicode="Q" horiz-adv-x="795" 
d="M644 -92q-27 -47 -67 -75t-83 -28q-64 0 -94.5 45.5t-30.5 140.5q-142 9 -234 109t-92 246q0 153 102.5 255t252.5 102q154 0 253 -101t99 -256q0 -143 -98.5 -245.5t-238.5 -110.5q1 -84 27 -127.5t73 -43.5q35 0 65.5 24.5t53.5 70.5q3 6 9.5 3.5t2.5 -9.5zM85 346
q0 -152 86.5 -249t219.5 -97q135 0 226 98.5t91 247.5q0 157 -84 252t-222 95q-137 0 -227 -98t-90 -249z" />
    <glyph glyph-name="R" unicode="R" horiz-adv-x="620" 
d="M55 1q-19 -1 -25 -1h-8q-6 0 -6 4.5t6 4.5q16 0 28 0.5t18 1.5q11 9 15.5 22.5t5.5 44.5q1 27 1.5 81t0.5 142v233q0 36 -0.5 57t-1.5 36q-3 34 -11.5 45.5t-40.5 11.5h-18q-6 0 -6 4.5t6 4.5q8 0 20.5 -0.5l37.5 -1.5q17 -1 23.5 -1h9.5q4 0 16.5 0.5t49.5 0.5
q42 1 57 1.5t20 0.5q121 0 185 -40.5t64 -115.5q0 -68 -59 -112.5t-168 -60.5q72 -3 108 -31.5t77 -115.5q29 -64 40.5 -87t20.5 -39q25 -48 46.5 -65t54.5 -17h7q7 0 7 -4.5t-7 -4.5h-36h-7h-11q-8 -1 -12.5 -1h-8.5q-12 0 -21 5.5t-19 18.5q-12 16 -27.5 46.5t-46.5 101.5
q-32 74 -47 101.5t-31 44.5q-23 24 -57.5 33.5t-96.5 9.5h-82v-207q0 -34 0.5 -55t1.5 -35q3 -32 12 -43t41 -11h20q6 0 6 -4.5t-6 -4.5q-9 0 -21 0.5t-37 0.5q-16 1 -22 1h-9h-16.5t-40.5 -1zM127 621q0 -14 -0.5 -34t-0.5 -54v-163h19h34q23 1 34 1h19q101 0 164.5 42.5
t63.5 118.5q0 74 -50.5 113t-148.5 39h-95q-25 0 -31 -12.5t-8 -50.5z" />
    <glyph glyph-name="S" unicode="S" horiz-adv-x="538" 
d="M492 627q-3 -47 -4 -87.5t-1 -86.5v-2q0 -10 -5 -10t-5 10v1q0 91 -5.5 126t-18.5 57q-19 31 -58.5 44.5t-109.5 13.5q-92 0 -154 -42.5t-62 -105.5q0 -41 18.5 -70.5t59.5 -53.5q18 -10 43 -20.5t102 -38.5q57 -21 86 -33.5t49 -25.5q37 -24 54 -53t17 -68
q0 -84 -63.5 -138t-161.5 -54q-48 0 -98.5 7.5t-117.5 25.5q-6 1 -8 3t-2 7v32v68q-1 50 -1 71.5v34.5q0 11 5.5 11t5.5 -11q0 -75 9.5 -116.5t30.5 -66.5q24 -29 66.5 -42.5t110.5 -13.5q89 0 141.5 43t52.5 116q0 39 -18 67t-58 51q-19 11 -46.5 23t-91.5 35t-91.5 35
t-47.5 24q-38 23 -55 52t-17 70q0 85 68 136t176 51q40 0 81 -5t114 -22q7 -2 8.5 -4t2.5 -7v-11t-1 -27z" />
    <glyph glyph-name="T" unicode="T" horiz-adv-x="618" 
d="M277 2l-37.5 -1.5t-20.5 -0.5q-6 0 -6 4.5t6 4.5h18q31 0 39.5 7.5t11.5 28.5q2 11 2.5 27.5t0.5 46.5v571h-15h-24q-18 -1 -26.5 -1h-16.5q-56 0 -83 -7.5t-43 -26.5q-13 -17 -22.5 -46.5t-16.5 -81.5l-8 -57q-1 -5 -6 -5t-4 5l8 57q5 34 7 66t2 72q0 17 0.5 21.5
t1.5 5.5q4 3 32.5 4t89.5 1h284q65 0 91.5 -1t30.5 -4q1 -1 2 -6.5t1 -25.5q1 -40 3 -70.5t6 -62.5l7 -57q1 -5 -3 -5t-6 5l-9 57q-8 50 -18 80t-24 47q-16 19 -41.5 27t-82.5 9h-80v-571q0 -30 0.5 -46.5t2.5 -27.5q3 -21 11.5 -28.5t39.5 -7.5h18q6 0 6 -4.5t-6 -4.5
q-9 0 -21 0.5t-38 1.5q-16 1 -22 1h-9h-9.5t-23.5 -1z" />
    <glyph glyph-name="U" unicode="U" horiz-adv-x="665" 
d="M337 -10q-123 0 -186.5 74t-63.5 218v262q0 35 -0.5 54.5t-1.5 32.5q-2 32 -10.5 42.5t-39.5 10.5h-14q-6 0 -6 4.5t6 4.5q8 0 20 -0.5t35 -1.5q16 -1 22 -1h9h9t22 1q26 1 38 1.5t21 0.5q6 0 6 -4.5t-6 -4.5h-18q-32 0 -40.5 -10.5t-11.5 -41.5q-1 -13 -2 -33t-1 -55
l-1 -235q0 -150 57.5 -223.5t174.5 -73.5q105 0 158.5 74t53.5 218v250q0 42 -3.5 66t-12.5 37q-9 15 -27 21t-69 6h-9q-6 0 -6 4.5t6 4.5q9 0 26 -0.5t55 -1.5q25 -1 34 -1h12h8.5t19.5 1l33 1.5t19 0.5q6 0 6 -4.5t-6 -4.5h-7q-33 0 -44 -10t-16 -35q-2 -14 -3.5 -34.5
t-1.5 -50.5v-250q0 -154 -62 -234t-182 -80z" />
    <glyph glyph-name="V" unicode="V" horiz-adv-x="685" 
d="M353 -3h-2q-4 0 -6.5 0.5t-3.5 2.5l-218 544q-35 87 -56 113.5t-59 26.5h-8q-9 0 -8 4.5t7 4.5q9 0 22 -0.5t41 -1.5q17 -1 24 -1h10h9t21 1l34.5 1.5t20.5 0.5q6 0 5.5 -4.5t-6.5 -4.5h-21q-31 0 -35.5 -12t6.5 -46q4 -14 11 -33.5t19 -48.5l198 -495q0 -1 1.5 -4
t2.5 -3q2 0 3 1t2 5l190 503q15 40 19.5 58t4.5 29q0 24 -17 35.5t-54 11.5q-2 0 -6 -0.5l-12 -1.5q-5 -1 -7 -1h-3q-3 0 -5 1.5t-2 3.5q0 3 3 4.5t9 1.5h16.5t41.5 -1t41 -1h15h8.5t20.5 1q24 1 35 1h19q3 0 4.5 -1t1.5 -3t-2 -3.5t-4 -1.5h-4q-28 0 -43 -9t-28 -35
q-8 -15 -16.5 -34.5t-17.5 -44.5l-214 -561q-1 -2 -3 -2.5t-5 -0.5z" />
    <glyph glyph-name="W" unicode="W" horiz-adv-x="982" 
d="M346 -3h-8q-4 0 -5.5 0.5t-2.5 2.5l-224 563q-31 78 -52 99.5t-56 21.5h-2q-9 0 -8 4.5t7 4.5q9 0 21.5 -0.5t38.5 -1.5q17 -1 23.5 -1h9.5h10t25 1q29 1 42.5 1.5t22.5 0.5q6 0 6.5 -4.5t-5.5 -4.5h-26q-26 0 -36 -6.5t-11 -22.5q0 -16 17.5 -66.5t60.5 -154.5l156 -381
q1 -3 2 -4t2 -1q2 0 4 1.5t3 3.5l126 293l-80 187q-16 38 -26 59.5t-17 35.5q-17 33 -30 44.5t-46 11.5h-8q-8 0 -7.5 4.5t6.5 4.5q9 0 22.5 -0.5t41.5 -1.5q18 -1 25 -1h10h8t16 1q18 1 28 1.5t19 0.5q6 0 6 -4.5t-6 -4.5h-8q-23 0 -31.5 -6t-8.5 -20q0 -13 10 -40.5
t38 -95.5l59 -141l56 142q17 44 25.5 74t8.5 50q0 19 -10.5 28.5t-33.5 9.5q-5 0 -10 -0.5t-13 -1.5q-4 -1 -5 -1h-2q-3 0 -4.5 1t-1.5 4t2.5 4.5t8.5 1.5h15t34 -1q22 -1 31 -1h13h10t27 1q31 1 44.5 1h20.5q6 0 5.5 -4.5t-5.5 -4.5h-26q-32 0 -47 -13t-33 -51l-17.5 -40
t-25.5 -62l-60 -151l137 -326q1 -4 2 -5t2 -1q2 0 3.5 1.5t2.5 3.5l174 447q26 67 34 96t8 47q0 27 -13.5 41t-40.5 14q-5 0 -10.5 -0.5t-15.5 -2.5q-4 -1 -5.5 -1h-2.5q-3 0 -5 1.5t-2 4.5t3 4.5t9 1.5h16.5t40.5 -1t40 -1h15h9t21 1q24 1 35.5 1h19.5q6 0 5.5 -4.5
t-5.5 -4.5h-3q-32 0 -50.5 -17.5t-40.5 -63.5q-10 -20 -22.5 -49.5t-28.5 -71.5l-187 -483q-1 -2 -2.5 -2.5t-4.5 -0.5h-10q-4 0 -5.5 0.5t-2.5 2.5l-142 332l-141 -331q-1 -2 -2 -2.5t-4 -0.5z" />
    <glyph glyph-name="X" unicode="X" horiz-adv-x="669" 
d="M544 1q-28 -1 -41.5 -1.5t-22.5 -0.5q-7 0 -6.5 4.5t6.5 4.5h22q18 0 25.5 4t7.5 12q0 10 -11.5 31.5t-104.5 159.5l-90 134l-150 -210q-23 -31 -32 -50.5t-9 -37.5q0 -20 15 -31t42 -11q4 0 10.5 0.5t20.5 1.5q7 1 9.5 1h3.5q4 0 6 -1.5t2 -4.5t-4 -5t-11 -2h-19t-51 1
q-35 1 -47.5 1h-16.5h-10t-26 -1q-29 -1 -42.5 -1h-21.5q-6 0 -5.5 4.5t6.5 4.5h7q33 0 65.5 25.5t95.5 111.5l156 214l-83 123q-30 45 -49.5 73t-33.5 47q-35 48 -56 64.5t-55 16.5h-8q-10 0 -9.5 4.5t7.5 4.5q9 0 23 -0.5t43 -1.5q19 -1 26 -1h11h8.5t18.5 1
q21 1 32.5 1.5t20.5 0.5q6 0 6 -4.5t-6 -4.5h-18q-15 0 -23 -5.5t-8 -15.5q0 -8 9.5 -25t88.5 -136l79 -117l78 110q57 79 74.5 110.5t17.5 47.5t-11 23.5t-36 7.5h-8.5t-12.5 -1q-6 -1 -9 -1h-5q-4 0 -6 1.5t-2 3.5q0 3 3.5 4.5t10.5 1.5h15.5t42.5 -1t42.5 -1h15.5h10
t25 1q26 1 38.5 1h19.5q6 0 6 -4.5t-6 -4.5h-2q-31 0 -54 -10.5t-41 -31.5q-14 -15 -31.5 -36.5t-85.5 -115.5l-83 -115l112 -166q27 -40 47 -68.5t36 -49.5q35 -47 57 -64.5t53 -17.5h9q9 0 8 -4.5t-7 -4.5q-9 0 -21.5 0.5l-37.5 1.5q-14 1 -20 1h-9h-10.5t-25.5 -1z" />
    <glyph glyph-name="Y" unicode="Y" horiz-adv-x="593" 
d="M383 9h18q6 0 6 -4.5t-6 -4.5q-8 0 -20 0.5t-37 1.5q-16 1 -22.5 1h-9.5h-9t-22 -1q-26 -1 -38 -1.5t-21 -0.5q-6 0 -6 4.5t6 4.5h18q31 0 39.5 7.5t11.5 28.5q2 11 2.5 27.5t0.5 46.5v203l-145 240q-50 84 -73.5 103t-63.5 19h-8q-3 0 -5 1t-2 3t1.5 3.5t4.5 1.5
q9 0 23.5 -0.5t46.5 -1.5q21 -1 28.5 -1h10.5h10.5t29.5 1q32 1 47 1.5t24 0.5q6 0 6 -4.5t-7 -4.5h-17q-46 0 -57.5 -9t-2.5 -33q5 -13 15 -32t31 -53l131 -216l144 250q27 46 16 70t-58 24q-7 0 -14 -0.5t-16 -2.5q-4 -1 -5.5 -1h-2.5q-3 0 -5 1.5t-2 4.5t3 4.5t9 1.5
h17.5t46.5 -1q33 -1 45 -1h16h9t23 1q25 1 37 1h20q6 0 5 -4.5t-6 -4.5h-3q-45 0 -67.5 -18t-56.5 -78l-148 -258v-211q0 -30 0.5 -46.5t2.5 -27.5q3 -21 11.5 -28.5t39.5 -7.5z" />
    <glyph glyph-name="Z" unicode="Z" horiz-adv-x="614" 
d="M136 3l-98 -6q-6 0 -6 4t6 12l471 668h-254q-98 0 -134.5 -34t-47.5 -142l-6 -60q-1 -5 -7 -4.5t-5 5.5l7 59q3 23 5.5 47.5t6.5 65.5q5 46 6.5 58t3.5 13q4 2 17.5 3t30.5 1q11 0 56.5 -0.5t160.5 -1.5q61 -1 79.5 -1h21.5q9 0 18.5 0.5t29.5 1.5q19 0 28.5 0.5
t17.5 0.5q6 0 8.5 -3.5t-0.5 -6.5l-469 -669q10 0 39.5 -0.5t107.5 -1.5q69 0 92.5 -0.5t31.5 -0.5q113 0 152 40.5t52 161.5l6 57q1 5 6 4.5t4 -5.5l-5 -58q-11 -130 -15.5 -166.5t-8.5 -40.5q-2 -2 -27 -3t-106 -1q-35 0 -104 1t-172 2z" />
    <glyph glyph-name="bracketleft" unicode="[" horiz-adv-x="400" 
d="M111 -270l3 516l-3 525q0 4 1.5 6t5.5 2h26h44q31 -1 47 -1h30h26h43q28 1 42 1h26q5 0 5 -5t-5 -5h-31.5h-53.5q-23 1 -34.5 1h-20.5h-115q-3 0 -5 -1t-2 -2l1 -521l-1 -512q0 -1 2 -2t5 -1h115h20.5t34.5 1h53.5h31.5q5 0 5 -5t-5 -5h-26h-42q-29 1 -43 1h-26h-30
t-47 -1h-44h-26q-4 0 -5.5 2t-1.5 6z" />
    <glyph glyph-name="backslash" unicode="\" horiz-adv-x="356" 
d="M387 -271q-34 88 -79 201t-129 317q-78 193 -133 321.5t-94 209.5q12 6 15 6t13 -2q30 -76 80.5 -202t131.5 -329q114 -273 152 -361.5t71 -159.5q-10 -7 -18.5 -4t-9.5 3z" />
    <glyph glyph-name="bracketright" unicode="]" horiz-adv-x="400" 
d="M289 771l-3 -516l3 -525q0 -4 -1.5 -6t-5.5 -2h-26h-44q-31 1 -47 1h-30h-26h-43q-28 -1 -42 -1h-26q-5 0 -5 5t5 5h31.5h53.5q23 -1 34.5 -1h20.5h115q3 0 5 1t2 2l-1 521l1 512q0 1 -2 2t-5 1h-115h-20.5t-34.5 -1h-53.5h-31.5q-5 0 -5 5t5 5h26h42q29 -1 43 -1h26h30
t47 1h44h26q4 0 5.5 -2t1.5 -6z" />
    <glyph glyph-name="asciicircum" unicode="^" horiz-adv-x="396" 
d="M281 486l-84 194q-1 2 -2.5 2t-2.5 -2l-82 -199q-6 -15 -10.5 -18.5t-11.5 -3.5q-9 0 -15 5t-6 13q0 6 2 11.5t6 11.5l115 189q2 2 4.5 2t4.5 -2l116 -180q6 -8 8.5 -15t2.5 -13q0 -10 -5 -14.5t-16 -4.5q-7 0 -12 4.5t-12 19.5z" />
    <glyph glyph-name="underscore" unicode="_" horiz-adv-x="500" 
d="M-31 -73h564q6 0 7 -12t-6 -12h-566q-8 0 -7.5 12t8.5 12z" />
    <glyph glyph-name="grave" unicode="`" horiz-adv-x="809" 
d="M483 535q-1 0 -2 0.5t-2 1.5q-25 25 -54 50.5t-74 60.5q-11 9 -14.5 12t-5.5 5q-5 5 -7 9.5t-2 9.5q0 6 6 11.5t12 5.5q5 0 8.5 -1.5t7.5 -5.5q2 -2 5.5 -6t13.5 -18q36 -46 61 -75t48 -52l2.5 -2.5t0.5 -1.5t-1.5 -2.5t-2.5 -1.5z" />
    <glyph glyph-name="a" unicode="a" horiz-adv-x="511" 
d="M296 54q-35 -32 -68.5 -48.5t-61.5 -16.5q-58 0 -96 33t-38 82q0 59 50.5 104t164.5 88l148 55q-2 80 -33.5 115t-100.5 35q-23 0 -43 -5t-42 -15q-21 -10 -38 -28t-30 -43q-10 -20 -18 -26t-23 -6q-11 0 -16 4t-5 12q0 9 5.5 17.5t20.5 21.5q33 30 87.5 53.5t102.5 23.5
q80 0 124.5 -43t44.5 -119q0 -24 -0.5 -54.5t-3.5 -93.5q-2 -57 -2.5 -82.5t-0.5 -44.5q0 -30 8 -46t23 -16q18 0 39.5 21.5t29.5 46.5q2 7 9 3t3 -11q-20 -31 -49.5 -56t-50.5 -25q-26 0 -38.5 17.5t-12.5 53.5q0 20 1.5 56t3.5 54q-10 -22 -37 -55.5t-57 -61.5zM71 124
q0 -50 33.5 -81.5t85.5 -31.5q25 0 55.5 17t63.5 49q29 29 53.5 62t28.5 49q1 10 2.5 64t1.5 85v3v3l-151 -57q-92 -35 -132.5 -74t-40.5 -88z" />
    <glyph glyph-name="b" unicode="b" horiz-adv-x="573" 
d="M453 79q-40 -42 -90.5 -65.5t-101.5 -23.5q-45 0 -87 11t-82 34l-13 -34q-1 -5 -6.5 -5t-5.5 4v699q0 44 -10 56t-54 4q-6 -1 -6 3.5t6 5.5q43 8 59.5 16t28.5 24q2 3 6.5 2t4.5 -4v-408q46 57 99 84.5t117 27.5q91 0 153.5 -66.5t62.5 -168.5q0 -54 -21 -105t-60 -91z
M102 387v-314q45 -30 94.5 -45.5t96.5 -15.5q86 0 146.5 67t60.5 167q0 104 -56.5 172t-145.5 68q-57 0 -106.5 -25t-89.5 -74z" />
    <glyph glyph-name="c" unicode="c" horiz-adv-x="542" 
d="M548 180q-48 -89 -119 -139.5t-152 -50.5q-106 0 -174.5 67.5t-68.5 172.5q0 116 87 198t201 82q24 0 47.5 -4.5t44.5 -12.5q30 -12 50.5 -29t20.5 -28q0 -7 -8 -13t-16 -6q-7 0 -14 4t-21 18q-33 32 -62.5 43t-67.5 11q-98 0 -162 -69t-64 -180q0 -100 64.5 -164.5
t165.5 -64.5q75 0 133.5 40.5t106.5 127.5q1 3 3 4t4 0t2 -3t-1 -4z" />
    <glyph glyph-name="d" unicode="d" horiz-adv-x="581" 
d="M252 -10q-91 0 -153.5 66.5t-62.5 168.5q0 119 84 202t201 83q44 0 84.5 -18.5t62.5 -47.5v237q0 25 -2 40.5t-6 24.5q-5 12 -16 15t-42 -3q-6 -1 -6 3.5t6 5.5q43 8 59.5 16.5t30.5 26.5q2 2 6.5 1t4.5 -5v-687q0 -47 0.5 -57.5t1.5 -17.5q3 -21 13 -28t41 -7
q6 0 6 -4.5t-6 -4.5q-15 0 -25.5 -0.5t-18.5 -1.5q-10 -1 -23.5 -4t-18.5 -4q-6 -1 -9 1t-3 8v3t1 7q3 29 4.5 52t1.5 45v15q-48 -68 -100 -99.5t-116 -31.5zM288 488q-96 0 -157 -64.5t-61 -169.5q0 -104 56.5 -172t145.5 -68q57 0 105.5 29t90.5 89v265q-40 49 -81.5 70
t-98.5 21z" />
    <glyph glyph-name="e" unicode="e" horiz-adv-x="515" 
d="M439 34q-35 -22 -72 -33t-77 -11q-118 0 -187 66t-69 176q0 116 78.5 197t190.5 81q80 0 127 -35t47 -86q0 -22 -15 -33.5t-45 -11.5h-334q-6 -23 -9.5 -48t-3.5 -51q0 -101 65 -166t172 -65q95 0 165.5 57t114.5 171q3 6 6 5t1 -7q-26 -70 -65.5 -122.5t-89.5 -83.5z
M433 397q0 41 -40 70t-106 29q-73 0 -126 -38t-75 -107q148 1 207 2t93 3q14 1 24.5 4.5t14.5 8.5q4 6 6 12.5t2 15.5z" />
    <glyph glyph-name="f" unicode="f" horiz-adv-x="218" 
d="M71 1q-20 -1 -30.5 -1h-19.5q-6 0 -6 4.5t6 4.5q35 0 46.5 7.5t11.5 43.5v412v3.5v3.5h-27.5h-27.5q-8 0 -10 1t-2 4l11 15h57q5 138 62.5 210t162.5 72q37 0 55.5 -4t18.5 -12q0 -11 -9.5 -21t-22.5 -10q-6 0 -14.5 1.5t-27.5 6.5q-26 7 -40 9t-27 2q-59 0 -91.5 -66
t-32.5 -187h168q4 0 4.5 -0.5t0.5 -1.5q0 -4 -4.5 -10.5t-9.5 -9.5h-17.5h-34.5q-39 1 -62 1h-45v-419q1 -36 11.5 -43.5t62.5 -7.5q6 0 6 -4.5t-6 -4.5h-21t-37 1q-16 1 -22.5 1h-9.5h-8.5t-18.5 -1z" />
    <glyph glyph-name="g" unicode="g" horiz-adv-x="501" 
d="M384 -245q-48 -28 -102.5 -43.5t-104.5 -15.5q-84 0 -131.5 34t-47.5 92q0 55 46.5 102t122.5 72h-14q-60 0 -90.5 15.5t-30.5 45.5q0 32 42.5 61t105.5 42q-70 10 -108.5 54t-38.5 113q0 76 60.5 128.5t148.5 52.5q33 0 72 4.5t101 16.5q25 4 33.5 5.5t13.5 1.5
q13 0 20.5 -3t7.5 -9q0 -11 -10 -20.5t-25 -9.5q-6 0 -17 0.5t-40 2.5q-50 3 -78 4t-50 1v-2q71 -11 116.5 -58.5t45.5 -112.5q0 -77 -58.5 -124.5t-152.5 -47.5h-8.5h-8.5q-51 -4 -94.5 -29.5t-43.5 -55.5q0 -23 27.5 -34.5t94.5 -11.5h195q61 0 93.5 -27t32.5 -77
q0 -44 -33 -88t-92 -79zM72 331q0 -76 43.5 -120t113.5 -44q75 0 119.5 42.5t44.5 119.5q0 71 -47 120t-110 49q-73 0 -118.5 -45t-45.5 -122zM29 -158q0 -51 51 -84.5t133 -33.5q109 0 191.5 53.5t82.5 127.5q0 51 -29.5 71t-100.5 20h-171q-71 -19 -114 -61t-43 -93z" />
    <glyph glyph-name="h" unicode="h" 
d="M62 1q-12 -1 -20 -1h-17q-6 0 -6 4.5t6 4.5q30 0 37.5 16t7.5 94v580q0 44 -10 56t-54 4q-6 -1 -6 3.5t6 5.5q43 8 59.5 16t28.5 24q2 3 6.5 2t4.5 -4v-436q51 71 104.5 105.5t112.5 34.5q83 0 126 -54t43 -160v-198q0 -23 1 -37.5t3 -23.5q3 -16 10.5 -22t33.5 -6
q6 0 6 -4.5t-6 -4.5h-6.5t-17.5 1q-21 0 -30.5 0.5t-14.5 0.5h-7.5t-14.5 -1q-16 -1 -25 -1h-18q-6 0 -6 4.5t6 4.5q34 0 42.5 18t8.5 77v188q0 99 -36.5 147t-112.5 48q-53 0 -103.5 -32t-98.5 -97v-349h52q6 0 6 -4.5t-6 -4.5h-7t-20 1q-24 0 -34 0.5t-15 0.5h-7t-12 -1z
" />
    <glyph glyph-name="i" unicode="i" horiz-adv-x="186" 
d="M120 670q0 -13 -9 -22t-22 -9t-22 9t-9 22t9 22t22 9t22 -9t9 -22zM66 1q-21 -1 -32 -1h-20q-6 0 -6 4.5t6 4.5q41 0 51 9t10 52v342q0 40 -10.5 47t-53.5 -5q-6 -2 -7 2t5 6q27 7 48.5 16.5t44.5 26.5q2 1 5 0.5t3 -2.5v-433q0 -42 10 -51.5t51 -9.5q6 0 6 -4.5t-6 -4.5
h-19.5t-30.5 1q-13 1 -18.5 1h-8.5h-8.5t-19.5 -1z" />
    <glyph glyph-name="j" unicode="j" horiz-adv-x="184" 
d="M120 670q0 -13 -9 -22t-22 -9t-22 9t-9 22t9 22t22 9t22 -9t9 -22zM48 -186q-31 -37 -54 -55t-41 -18q-13 0 -23 4.5t-10 10.5q0 12 12.5 25t25.5 13q33 0 52.5 5t28.5 16q24 28 30.5 67.5t6.5 118.5v411q0 39 -11 46.5t-54 -4.5q-6 -2 -7 2t5 6q27 7 48.5 16.5
t44.5 26.5q2 1 5 0.5t3 -2.5v-471q0 -87 -14 -131.5t-48 -86.5z" />
    <glyph glyph-name="k" unicode="k" horiz-adv-x="539" 
d="M141 1q-22 0 -31.5 0.5t-14.5 0.5h-8t-16 -1q-18 -1 -27.5 -1h-18.5q-6 0 -6 4.5t6 4.5q30 0 37.5 16t7.5 94v580q0 44 -10 56t-54 4q-6 -1 -6 3.5t6 5.5q43 8 59.5 16t28.5 24q2 3 6.5 2t4.5 -4v-647l220 223q36 37 48.5 54t12.5 29q0 15 -14.5 20t-57.5 5q-5 0 -5 4.5
t5 4.5q8 0 22 -0.5t44 -0.5q18 -1 24.5 -1h9.5q4 0 18.5 0.5t51.5 0.5q23 1 30 1h9q5 0 5 -4.5t-5 -4.5q-52 0 -85.5 -21t-105.5 -93l-47 -48l95 -152q66 -107 97.5 -137t69.5 -30q6 0 6.5 -4.5t-6.5 -4.5h-42q-20 0 -31 2t-19 8q-15 10 -33.5 34t-64.5 99l-98 159
l-154 -155v-138h61q6 0 6 -4.5t-6 -4.5h-6.5t-18.5 1z" />
    <glyph glyph-name="l" unicode="l" horiz-adv-x="183" 
d="M66 1q-14 -1 -23 -1h-18q-6 0 -6 4.5t6 4.5q30 0 37.5 16t7.5 94v584q0 41 -10 52.5t-54 3.5q-6 -1 -6 3.5t6 5.5q41 7 59.5 15.5t27.5 23.5q2 4 7 3.5t5 -4.5v-687q0 -31 0.5 -49t0.5 -24q3 -22 13 -29.5t37 -7.5q6 0 6 -4.5t-6 -4.5h-18.5t-26.5 1q-11 1 -16 1h-8h-7.5
t-13.5 -1z" />
    <glyph glyph-name="m" unicode="m" horiz-adv-x="876" 
d="M63 1q-12 -1 -20 -1h-17q-6 0 -6 4.5t6 4.5q30 0 37.5 16t7.5 94v220q0 35 -11 69t-28 49q-2 2 -2 3.5t2 2.5q16 9 21 12.5t11 9.5q2 2 3 1.5t3 -2.5q16 -18 25.5 -48t10.5 -66q48 73 96.5 106.5t105.5 33.5q58 0 96.5 -35t50.5 -99q43 66 93.5 100t103.5 34
q82 0 121.5 -53t39.5 -161l-1 -198q0 -23 1 -37.5t3 -23.5q3 -16 10.5 -22t33.5 -6q6 0 6 -4.5t-6 -4.5h-6.5t-17.5 1q-21 0 -30.5 0.5t-14.5 0.5h-7.5t-14.5 -1q-16 -1 -25 -1h-18q-6 0 -6 4.5t6 4.5q34 0 42.5 18t8.5 77v188q0 98 -35.5 147t-105.5 49q-48 0 -93.5 -31
t-84.5 -92v-267q0 -23 1 -37.5t3 -23.5q3 -16 10.5 -22t33.5 -6q6 0 6 -4.5t-6 -4.5h-6.5t-17.5 1q-21 0 -30.5 0.5t-14.5 0.5h-7.5t-14.5 -1q-16 -1 -25 -1h-18q-6 0 -6 4.5t6 4.5q34 0 42.5 18t8.5 77v193q0 94 -34 141.5t-101 47.5q-51 0 -93.5 -30.5t-88.5 -98.5v-348
h52q6 0 6 -4.5t-6 -4.5h-7t-20 1q-24 0 -34 0.5t-15 0.5h-7t-12 -1z" />
    <glyph glyph-name="n" unicode="n" horiz-adv-x="562" 
d="M65 1q-12 -1 -20 -1h-17q-6 0 -6 4.5t6 4.5q30 0 37.5 16t7.5 94v220q0 35 -11 69t-28 49q-2 2 -2 3.5t2 2.5q16 9 21 12.5t11 9.5q2 2 3 1.5t3 -2.5q16 -18 25.5 -49t10.5 -67q51 72 104.5 107t113.5 35q83 0 126 -54t43 -160v-198q0 -23 1 -37.5t3 -23.5
q3 -16 10.5 -22t33.5 -6q6 0 6 -4.5t-6 -4.5h-6.5t-17.5 1q-21 0 -30.5 0.5t-14.5 0.5h-7.5t-14.5 -1q-16 -1 -25 -1h-18q-6 0 -6 4.5t6 4.5q34 0 42.5 18t8.5 77v188q0 99 -36.5 147t-112.5 48q-54 0 -104.5 -32.5t-98.5 -98.5v-347h52q6 0 6 -4.5t-6 -4.5h-7t-20 1
q-24 0 -34 0.5t-15 0.5h-7t-12 -1z" />
    <glyph glyph-name="o" unicode="o" horiz-adv-x="581" 
d="M546 257q0 -110 -75.5 -188.5t-186.5 -78.5q-110 0 -179 69t-69 181t76 191t188 79q110 0 178 -69.5t68 -183.5zM72 257q0 -106 65 -181t162 -75q90 0 150.5 67.5t60.5 172.5q0 113 -61.5 186t-160.5 73q-92 0 -154 -69t-62 -174z" />
    <glyph glyph-name="p" unicode="p" horiz-adv-x="576" 
d="M455 79q-40 -42 -90.5 -65.5t-100.5 -23.5q-43 0 -82.5 8.5t-72.5 23.5v-285h89q6 0 6 -4.5t-6 -4.5h-10t-34 1q-42 0 -58 0.5t-21 0.5h-8t-18 -1q-19 -1 -29.5 -1h-19.5q-6 0 -6 4.5t6 4.5q52 0 63 18t11 99v558q0 40 -10.5 47t-53.5 -5q-6 -2 -7 2t5 6q27 7 48.5 16.5
t44.5 26.5q2 1 5 0.5t3 -2.5v-103q51 57 102 83.5t110 26.5q91 0 153.5 -66.5t62.5 -168.5q0 -53 -21 -104t-61 -92zM503 246q0 103 -56 170t-146 67q-52 0 -99.5 -22.5t-92.5 -69.5v-327q41 -25 89 -38.5t98 -13.5q86 0 146.5 67t60.5 167z" />
    <glyph glyph-name="q" unicode="q" horiz-adv-x="596" 
d="M591 -207q-27 -5 -58.5 -19.5t-48.5 -31.5q-2 -2 -9.5 -1t-7.5 4v376q-48 -68 -100 -99.5t-116 -31.5q-91 0 -153.5 66.5t-62.5 168.5q0 115 86 200t199 85q41 0 80 -16.5t68 -45.5q13 28 20.5 42t9.5 14t3 -1.5t1 -5.5v-660q0 -31 15.5 -38t73.5 3q6 1 6 -3.5t-6 -5.5z
M287 488q-93 0 -155.5 -66.5t-62.5 -167.5q0 -103 56 -170t146 -67q59 0 107 28t89 87v269q-36 46 -78 66.5t-102 20.5z" />
    <glyph glyph-name="r" unicode="r" horiz-adv-x="288" 
d="M66 1q-16 -1 -25.5 -1h-18.5q-6 0 -6 4.5t6 4.5q37 0 46 15t9 95v220q0 35 -11 69t-28 49q-2 2 -2 3.5t2 2.5q16 9 21 12.5t11 9.5q2 2 3 1.5t3 -2.5q13 -16 21.5 -42t10.5 -57q4 22 14.5 41t30.5 39q17 17 41 26t50 9q20 0 27 -2.5t7 -8.5q0 -12 -10.5 -20t-23.5 -8
h-6.5t-11.5 1q-9 1 -13.5 1h-8.5q-22 0 -37.5 -6.5t-26.5 -19.5q-13 -16 -20.5 -41.5t-7.5 -56.5v-330h59q6 0 6 -4.5t-6 -4.5h-7.5t-22.5 1q-26 0 -37 0.5t-16 0.5h-7.5t-14.5 -1z" />
    <glyph glyph-name="s" unicode="s" horiz-adv-x="435" 
d="M398 136q0 -65 -48 -105.5t-126 -40.5q-22 0 -44.5 2.5t-45.5 8.5q-21 5 -50 14.5t-37 11.5q-4 1 -5.5 3.5t-1.5 7.5v5.5v11.5q-1 34 -1 67.5v74.5q0 5 4 5t4 -5q0 -44 8.5 -80.5t24.5 -59.5q19 -27 59 -42.5t87 -15.5q68 0 106.5 31.5t38.5 84.5q0 29 -13 50.5t-41 36.5
q-13 7 -31.5 14t-71.5 22q-58 16 -79 24t-36 16q-30 17 -44.5 40.5t-14.5 57.5q0 61 49.5 97.5t129.5 36.5q32 0 64.5 -4t93.5 -17q4 -1 5.5 -2.5t1.5 -5.5q0 -8 -0.5 -23t-0.5 -51q-1 -38 -1.5 -54.5t-0.5 -25.5q0 -5 -4 -5t-4 5q0 46 -6 77.5t-18 49.5q-16 23 -51.5 35.5
t-83.5 12.5q-65 0 -107 -29.5t-42 -77.5q0 -28 14 -48.5t43 -36.5q15 -8 35.5 -15.5t67.5 -20.5q60 -17 80 -24.5t35 -15.5q30 -16 44 -39.5t14 -58.5z" />
    <glyph glyph-name="t" unicode="t" horiz-adv-x="309" 
d="M305 112q-27 -53 -66 -87.5t-74 -34.5q-50 0 -74 30t-24 90v369h-55q-1 0 -1 2t1 3l88 74q2 2 3 1.5t1 -2.5v-58h18.5h40.5q47 1 70.5 1h41.5q5 0 7 -1t2 -4t-5 -7.5t-14 -9.5h-17.5h-47.5q-48 1 -68 1h-30v-362q0 -59 19 -87t59 -28q27 0 59 32t53 83q4 6 9.5 4t3.5 -9z
" />
    <glyph glyph-name="u" unicode="u" horiz-adv-x="561" 
d="M248 -10q-89 0 -134 51t-45 152v219q0 40 -10.5 47t-53.5 -5q-6 -2 -7 2t5 6q27 7 48.5 16.5t44.5 26.5q2 1 5 0.5t3 -2.5v-306q0 -87 42 -134t117 -47q56 0 105 31t87 91v274q0 40 -10.5 47t-53.5 -5q-6 -2 -7 2t5 6q27 7 48.5 16.5t44.5 26.5q2 1 5 0.5t3 -2.5v-434
q0 -41 9.5 -50.5t43.5 -9.5q5 0 5 -4.5t-5 -4.5q-34 0 -51 -1.5t-37 -7.5q-3 -1 -6 0.5t-2 4.5q5 15 6.5 38.5t1.5 71.5v19q-41 -63 -97 -99t-110 -36z" />
    <glyph glyph-name="v" unicode="v" horiz-adv-x="524" 
d="M268 -4h-6q-3 0 -5 1t-3 4l-179 406q-24 55 -40 70t-52 14q-5 0 -5 4.5t5 4.5h8.5t27.5 -1q33 0 46.5 -0.5t17.5 -0.5h7.5h14.5q16 1 24.5 1h15.5q6 0 6 -4t-6 -4q-48 0 -54 -12.5t13 -54.5l174 -389l156 358q25 58 12 78t-71 20q-6 0 -6 4.5t6 4.5h20t38 -1q19 -1 26 -1
h11h11.5t29.5 1q16 1 21 1h7q5 0 5 -4.5t-5 -4.5q-26 1 -45.5 -18t-47.5 -82l-171 -390q-1 -3 -2.5 -4t-4.5 -1z" />
    <glyph glyph-name="w" unicode="w" horiz-adv-x="773" 
d="M233 -4h-8q-2 0 -2.5 0.5l-1.5 1.5l-127 365q-18 51 -23 65t-10 24q-11 23 -25.5 31t-50.5 8q-4 0 -4 4.5t4 4.5h6.5t22.5 -1q32 0 44.5 -0.5t16.5 -0.5h8.5t20.5 1q21 1 31 1h17q5 0 5 -4.5t-5 -4.5q-35 0 -43.5 -6.5t-6.5 -23.5q1 -10 5.5 -26t13.5 -42l120 -351
l133 339q4 11 4.5 17.5t-0.5 12.5q-1 9 -4 18.5t-9 21.5q-11 24 -23 32t-38 8q-5 0 -5.5 4.5t4.5 4.5q7 0 17 -0.5t30 -0.5q13 -1 17.5 -1h7.5h8.5t19.5 1q20 1 29.5 1h15.5t6.5 -4.5t-5.5 -4.5q-42 0 -47 -16t21 -81l141 -358l102 315q27 85 17.5 112.5t-64.5 27.5
q-5 0 -5.5 4.5t4.5 4.5q7 0 19.5 -0.5t40.5 -0.5q17 -1 23 -1h9h13.5t33.5 1q17 1 22.5 1h7.5q5 0 5 -4.5t-4 -4.5q-42 0 -61 -24t-52 -123l-113 -346q-1 -1 -2 -1.5t-4 -0.5h-10q-2 0 -2.5 0.5l-1.5 1.5l-154 393l-152 -393q-1 0 -1.5 -1t-1.5 -1z" />
    <glyph glyph-name="x" unicode="x" horiz-adv-x="510" 
d="M35 1q-16 -1 -21 -1h-7q-5 0 -5 4t5 5q35 4 57.5 21t67.5 76l110 145l-85 114q-71 95 -89.5 110.5t-50.5 15.5q-5 0 -6 4.5t4 4.5h6.5t21.5 -1q28 0 40 -0.5t16 -0.5h8.5t19.5 1q20 1 30.5 1h17.5q6 0 6.5 -4.5t-6.5 -4.5q-36 0 -43 -7.5t3 -27.5q5 -11 15 -26t26 -37
l90 -120l92 125q24 33 30 44.5t6 20.5q0 15 -14 21.5t-55 6.5q-5 0 -5 4.5t5 4.5h14.5t22.5 -1q21 -1 32.5 -1h22.5q12 0 28 0.5t43 1.5h12h4q5 0 5 -4.5t-5 -4.5q-39 0 -67.5 -21t-70.5 -78l-94 -127l144 -192q34 -44 51.5 -54.5t42.5 -9.5q5 0 6 -4.5t-4 -4.5h-8.5
t-26.5 1q-30 1 -42 1h-16h-8t-19 -1q-21 0 -31.5 -0.5t-19.5 -0.5q-4 0 -4.5 4.5t5.5 4.5q41 0 47.5 18t-22.5 56l-119 159l-110 -145q-17 -22 -22.5 -33.5t-5.5 -23.5q0 -16 16 -23.5t54 -7.5q6 0 6 -4.5t-6 -4.5q-8 0 -21 0.5t-42 0.5q-17 1 -23 1h-9q-4 0 -14.5 -0.5
t-35.5 -0.5z" />
    <glyph glyph-name="y" unicode="y" horiz-adv-x="537" 
d="M53 -199q-36 0 -59.5 11.5t-23.5 25.5q0 12 11 21.5t25 9.5q8 0 17 -3.5t26 -15.5q21 -15 33 -19.5t24 -4.5q37 0 75 41t71 116l11 25l-159 352q-46 99 -62 115.5t-55 15.5q-5 0 -5 4.5t5 4.5h9t28 -1q32 -1 44.5 -1h17.5h7.5t15.5 1q17 1 26.5 1h17.5q6 0 6 -4.5
t-6 -4.5q-30 0 -40.5 -5.5t-10.5 -19.5q0 -11 4.5 -25t21.5 -51l154 -338l153 343q23 51 8.5 73.5t-76.5 22.5q-6 0 -6 4.5t6 4.5q9 0 21.5 -0.5t39.5 -0.5q17 -1 23.5 -1h9.5h16.5t40.5 1q19 1 25 1h8q5 0 5 -4.5t-5 -4.5q-35 1 -58 -21t-49 -81l-182 -408
q-42 -95 -91.5 -137.5t-117.5 -42.5z" />
    <glyph glyph-name="z" unicode="z" horiz-adv-x="487" 
d="M117 1l-95 -1q-3 0 -4.5 3t0.5 6l369 480h-203q-72 0 -100.5 -29t-32.5 -121l-3 -62q0 -5 -4.5 -5t-4.5 5l3 62q2 36 5 96t4 61q4 2 16.5 3t30.5 1q11 0 46.5 -0.5t122.5 -0.5q48 -1 63.5 -1h18.5q9 0 18 0.5t23 1.5q12 0 18.5 0.5t12.5 0.5q8 0 9.5 -5.5t-6.5 -15.5
l-358 -468h31t63 -1q54 -1 81 -1h47q79 0 109.5 35.5t37.5 127.5l5 69q0 5 5 4.5t4 -5.5l-5 -69q-6 -77 -11 -120.5t-9 -47.5q-3 -3 -14.5 -3.5t-72.5 -0.5h-90t-130 1z" />
    <glyph glyph-name="braceleft" unicode="{" horiz-adv-x="445" 
d="M122 258q40 0 68 29t28 74q0 20 -6 43t-25 72q-24 59 -31.5 92t-7.5 63q0 70 61 117.5t154 47.5q15 0 13.5 -8.5t-12.5 -8.5q-91 0 -141.5 -34t-50.5 -93q0 -27 7 -58.5t28 -92.5q19 -54 25 -80t6 -47q0 -42 -24 -74.5t-66 -48.5q43 -18 66.5 -50.5t23.5 -73.5
q0 -21 -6 -47t-25 -80q-21 -61 -28 -92.5t-7 -58.5q0 -64 45 -95.5t137 -31.5q13 0 14 -9.5t-15 -9.5q-98 0 -151.5 44t-53.5 123q0 30 7.5 63t31.5 92q19 49 25 72t6 43q0 45 -28 74t-68 29q-5 0 -6.5 1.5t-1.5 5.5q0 6 1.5 7t6.5 1z" />
    <glyph glyph-name="bar" unicode="|" horiz-adv-x="267" 
d="M154 780q-6 -92 -9 -235.5t-3 -297.5q0 -127 1.5 -262.5t4.5 -250.5q-13 -10 -17.5 -11t-11.5 1q5 115 7.5 251.5t2.5 270.5q0 59 -0.5 138.5t-5.5 389.5q7 5 12 6.5t19 -0.5z" />
    <glyph glyph-name="braceright" unicode="}" horiz-adv-x="445" 
d="M323 241q-40 0 -68 -29t-28 -74q0 -20 6 -43t25 -72q24 -59 31.5 -92t7.5 -63q0 -70 -61 -117.5t-154 -47.5q-15 0 -13.5 8.5t12.5 8.5q91 0 141.5 34t50.5 93q0 27 -7 58.5t-28 92.5q-19 54 -25 80t-6 47q0 42 24 74.5t66 48.5q-43 18 -66.5 50.5t-23.5 73.5q0 21 6 47
t25 80q21 61 28 92.5t7 58.5q0 64 -45 95.5t-137 31.5q-13 0 -14 9.5t15 9.5q98 0 151.5 -44t53.5 -123q0 -30 -7.5 -63t-31.5 -92q-19 -49 -25 -72t-6 -43q0 -45 28 -74t68 -29q5 0 6.5 -1.5t1.5 -5.5q0 -6 -1.5 -7t-6.5 -1z" />
    <glyph glyph-name="asciitilde" unicode="~" horiz-adv-x="466" 
d="M221 349q-45 19 -66 24.5t-36 5.5q-18 0 -30 -15t-24 -50q-1 -5 -5 -4t-2 9q13 48 34 69.5t57 21.5q15 0 35.5 -6t67.5 -24q46 -19 66.5 -25t35.5 -6q18 0 29.5 15t24.5 55q1 5 5 4t2 -9q-14 -50 -34.5 -73t-54.5 -23q-16 0 -37.5 6t-67.5 25z" />
    <glyph glyph-name="exclamdown" unicode="&#xa1;" horiz-adv-x="202" 
d="M116 -133v-5q0 -10 -13 -26.5t-18 -16.5q-6 0 -8.5 3.5t-2.5 12.5v4q0 5 1 19.5t3 62.5q11 177 15 284.5t4 186.5q0 4 3 4t3 -4q0 -77 2 -176t8 -260q2 -50 2.5 -66.5t0.5 -22.5zM101 515q14 0 23.5 -9.5t9.5 -23.5t-9.5 -24t-23.5 -10t-23.5 10t-9.5 24t9.5 23.5
t23.5 9.5z" />
    <glyph glyph-name="cent" unicode="&#xa2;" horiz-adv-x="523" 
d="M289 493q-2 -43 -3 -94t-2 -149q-1 -62 -1 -119.5t1 -115.5h8h8q75 0 133.5 40.5t106.5 127.5q1 3 3 4t4 0t2 -3t-1 -4q-47 -88 -116 -138t-148 -52q0 -47 0.5 -96t2.5 -101q-13 -10 -17 -11t-11 1q5 118 6 149t2 58q-102 4 -166 70.5t-64 169.5q0 104 66.5 180.5
t167.5 94.5q0 31 -0.5 66.5t-1.5 108.5q7 5 11 6.5t17 -0.5q-1 -15 -1.5 -33t-2.5 -53q-1 -38 -2 -57t-2 -35q14 1 20.5 1.5t12.5 0.5q60 0 111.5 -25.5t51.5 -51.5q0 -10 -8.5 -16.5t-18.5 -6.5t-20.5 5.5t-31.5 25.5q-33 31 -57 41.5t-53 10.5h-3.5h-3.5zM272 492
q-88 -10 -144.5 -78.5t-56.5 -169.5q0 -91 54.5 -153.5t142.5 -73.5q3 68 4 124.5t1 107.5v51t-1 79v70.5v42.5z" />
    <glyph glyph-name="sterling" unicode="&#xa3;" horiz-adv-x="618" 
d="M188 343q-32 -1 -64.5 -2.5t-79.5 -4.5q-4 3 -4 10t4 10q13 -1 49 -1.5t96 -0.5q1 6 2 13.5t2 20.5q12 114 41.5 183t81.5 101q24 15 51.5 22.5t55.5 7.5q38 0 62 -16t24 -40q0 -14 -7.5 -22t-20.5 -8q-12 0 -21.5 8.5t-13.5 22.5q-5 18 -19 27.5t-37 9.5q-20 0 -38.5 -5
t-31.5 -15q-41 -31 -64 -96t-36 -181q-1 -14 -2 -20.5t-2 -12.5h11.5h11.5q51 0 102 1.5t99 4.5q6 -3 6 -12t-6 -12q-48 4 -97.5 5.5t-102.5 1.5h-12.5h-12.5q-14 -135 -30.5 -204.5t-39.5 -107.5q10 -2 62 -14.5t85 -19.5q47 -9 83.5 -13.5t66.5 -4.5q25 0 44 11t33 33
q10 16 19.5 45.5t23.5 87.5l10 44q1 5 6.5 4.5t4.5 -5.5l-10 -45q-15 -64 -24 -102t-13 -50q-9 -25 -27 -37t-46 -12q-32 0 -75 8t-135 34q-47 14 -70 20t-42 10l-7 -10.5t-6 -7.5q-12 -14 -26.5 -21t-30.5 -7t-25.5 8t-9.5 21q0 15 12 24t32 9q7 0 17.5 -1.5t42.5 -7.5
q12 24 20.5 75.5t27.5 235.5z" />
    <glyph glyph-name="yen" unicode="&#xa5;" horiz-adv-x="593" 
d="M383 9h18q6 0 6 -4.5t-6 -4.5q-8 0 -20 0.5t-37 1.5q-16 1 -22.5 1h-9.5h-9t-22 -1q-26 -1 -38 -1.5t-21 -0.5q-6 0 -6 4.5t6 4.5h18q31 0 39.5 7.5t11.5 28.5q2 11 2.5 27.5t0.5 46.5v56q-54 0 -95 -1.5t-84 -5.5q-4 2 -5 9t2 13q33 -4 67.5 -5.5t114.5 -1.5v139l-1 1
q-58 0 -97.5 -2t-80.5 -7q-4 3 -5 9.5t2 12.5q32 -3 65.5 -4t110.5 -1l-139 231q-50 84 -73.5 103t-63.5 19h-8q-3 0 -5 1t-2 3t1.5 3.5t4.5 1.5q9 0 23.5 -0.5t46.5 -1.5q21 -1 28.5 -1h10.5h10.5t29.5 1q32 1 47 1.5t24 0.5q6 0 6 -4.5t-7 -4.5h-17q-46 0 -57.5 -9
t-2.5 -33q5 -13 15 -32t31 -53l131 -216l144 250q27 46 16 70t-58 24q-7 0 -14 -0.5t-16 -2.5q-4 -1 -5.5 -1h-2.5q-3 0 -5 1.5t-2 4.5t3 4.5t9 1.5h17.5t46.5 -1q33 -1 45 -1h16h9t23 1q25 1 37 1h20q6 0 5 -4.5t-6 -4.5h-3q-45 0 -67.5 -18t-56.5 -78l-148 -257
q56 1 102 3t80 6q4 -4 4 -10t-3 -14q-23 4 -53 5.5t-130 1.5v-140q59 1 103.5 3.5t76.5 6.5q5 -3 5.5 -10t-2.5 -14q-31 3 -73 4.5t-110 1.5v-56q0 -30 0.5 -46.5t2.5 -27.5q3 -21 11.5 -28.5t39.5 -7.5z" />
    <glyph glyph-name="brokenbar" unicode="&#xa6;" horiz-adv-x="267" 
d="M148 299q-7 -7 -11.5 -8t-10.5 2q0 9 0.5 34t1.5 91q0 63 0.5 86t0.5 32l-6 238q4 8 11 9.5t14 -3.5q0 -9 -0.5 -34t-2.5 -91q-2 -64 -2.5 -87t-0.5 -32t0.5 -33t2.5 -87q2 -62 2.5 -85t0.5 -32zM147 -278q-6 -6 -12.5 -7.5t-12.5 1.5q0 9 0.5 34t3.5 91q2 63 2.5 86
t0.5 32l-3 238q3 6 9.5 7.5t12.5 -1.5q0 -9 -0.5 -34t-2.5 -91q-2 -64 -2.5 -87t-0.5 -32t0.5 -33t2.5 -87q1 -62 1.5 -85t0.5 -32z" />
    <glyph glyph-name="section" unicode="&#xa7;" horiz-adv-x="540" 
d="M368 -54q-7 -59 -49.5 -99t-98.5 -40q-52 0 -91.5 17t-39.5 38q0 11 6.5 18t16.5 7q7 0 12.5 -4.5t15.5 -19.5q20 -29 39 -39t46 -10q53 0 86 35.5t33 89.5q0 41 -25 86t-108 134q-90 97 -118.5 149.5t-28.5 102.5q0 51 28 97t72 66q7 54 43 88.5t87 34.5q52 0 91.5 -17
t39.5 -38q0 -11 -6.5 -18t-16.5 -7q-7 0 -12.5 4.5t-15.5 19.5q-20 29 -39 39t-46 10q-48 0 -77.5 -31t-29.5 -74q0 -40 24.5 -83.5t106.5 -127.5q94 -97 123.5 -152.5t29.5 -110.5q0 -48 -27 -93.5t-71 -71.5zM236 187q83 -89 108 -134.5t25 -87.5v-5v-5q35 21 55.5 55.5
t20.5 68.5q0 55 -30 111.5t-124 156.5q-80 84 -104 126.5t-24 80.5v9t1 5q-33 -15 -55.5 -51t-22.5 -71q0 -52 29 -106.5t121 -152.5z" />
    <glyph glyph-name="dieresis" unicode="&#xa8;" horiz-adv-x="809" 
d="M498 627q-12 0 -21 9t-9 21t9 21t21 9t21 -9t9 -21t-9 -21t-21 -9zM300 627q-12 0 -21 9t-9 21t9 21t21 9t21 -9t9 -21t-9 -21t-21 -9z" />
    <glyph glyph-name="copyright" unicode="&#xa9;" horiz-adv-x="816" 
d="M653 95q-55 -52 -123 -81.5t-133 -29.5q-148 0 -249 102t-101 255q0 69 30 134.5t87 118.5q55 52 123 81.5t133 29.5q148 0 248 -102t100 -255q0 -70 -30 -135t-85 -118zM164 103q49 -50 112 -77.5t131 -27.5q66 0 129 26.5t112 74.5q49 49 75.5 111t26.5 130
q0 70 -25 133.5t-72 113.5q-48 50 -111 77.5t-131 27.5q-66 0 -129.5 -26.5t-113.5 -74.5q-50 -49 -76.5 -111t-26.5 -131q0 -70 25.5 -133.5t73.5 -112.5zM600 246q-50 -60 -98 -86.5t-99 -25.5q-87 0 -143 56t-56 144q0 91 66 154t157 63q40 0 74.5 -6.5t64.5 -19.5l2 -4
l7 -151q0 -4 -4 -4.5t-4 3.5q-4 109 -32.5 141t-108.5 32q-91 0 -141.5 -52t-50.5 -146q0 -81 51.5 -135t132.5 -54q46 0 89 23t87 74q2 2 5 -0.5t1 -5.5z" />
    <glyph glyph-name="ordfeminine" unicode="&#xaa;" horiz-adv-x="363" 
d="M247 485q-25 -30 -65.5 -59t-60.5 -29q-32 0 -52 18t-20 46q0 33 37 63t109 55l55 19q-2 50 -16.5 71.5t-48.5 21.5q-26 0 -45 -10.5t-39 -42.5q-5 -8 -9.5 -10.5t-12.5 -2.5t-12 2t-4 7q0 6 5 12.5t16 14.5q28 19 52 27.5t50 8.5q48 0 70 -24.5t22 -77.5
q0 -11 -0.5 -28.5t-1.5 -53.5q-1 -24 -1 -33v-14q0 -36 2.5 -46t12.5 -10q7 0 17.5 10.5t17.5 24.5q2 5 7 2t1 -8q-27 -30 -38 -36t-21 -6q-15 0 -22 9.5t-7 31.5q0 8 0.5 17.5t1.5 29.5zM76 474q0 -25 17.5 -43t40.5 -18q20 0 61.5 32.5t53.5 52.5q1 15 1 33v51v4.5v4.5
l-42 -15q-68 -24 -100 -48.5t-32 -53.5z" />
    <glyph glyph-name="guillemotleft" unicode="&#xab;" horiz-adv-x="613" 
d="M57 26zM285 39q-21 21 -106.5 100t-119.5 108q-2 2 -2 5.5t2 5.5q34 29 119.5 108t106.5 100q9 8 13.5 10.5t8.5 2.5t6.5 -4.5t2.5 -12.5q0 -6 -3 -12t-8 -11q-6 -4 -15 -11t-33 -25q-72 -53 -113 -85.5t-73 -60.5q-3 -2 -3 -4.5t3 -4.5q32 -28 73 -60.5t113 -85.5
q24 -18 33 -25t15 -11q5 -5 8 -11t3 -12q0 -8 -2.5 -12.5t-6.5 -4.5t-8.5 2.5t-13.5 10.5zM505 39q-21 21 -106.5 100t-119.5 108q-2 2 -2 5.5t2 5.5q34 29 119.5 108t106.5 100q9 8 13.5 10.5t8.5 2.5t6.5 -4.5t2.5 -12.5q0 -6 -3 -12t-8 -11q-6 -4 -15 -11t-33 -25
q-72 -53 -113 -85.5t-73 -60.5q-3 -2 -3 -4.5t3 -4.5q32 -28 73 -60.5t113 -85.5q24 -18 33 -25t15 -11q5 -5 8 -11t3 -12q0 -8 -2.5 -12.5t-6.5 -4.5t-8.5 2.5t-13.5 10.5z" />
    <glyph glyph-name="logicalnot" unicode="&#xac;" 
d="M464 220q-3 -5 -11.5 -5t-12.5 5q2 35 3 83.5t0 106.5h-165q-46 0 -84 -1.5t-96 -5.5q-5 3 -5 11.5t5 12.5q60 -4 98 -5t81 -1q84 0 114.5 1t58.5 4q2 0 5 -3t3 -5q-1 -46 0 -91t6 -107z" />
    <glyph glyph-name="uni00AD" unicode="&#xad;" horiz-adv-x="375" 
d="M64 238zM69 264q27 -2 56 -2.5t62 -0.5t63 1t55 2q6 -3 5.5 -13.5t-5.5 -12.5q-27 2 -54.5 3t-63.5 1q-23 0 -47.5 -1t-70.5 -3q-5 3 -5 13t5 13z" />
    <glyph glyph-name="registered" unicode="&#xae;" horiz-adv-x="804" 
d="M756 354q0 -87 -43.5 -166.5t-93.5 -79.5q-28 0 -48.5 19.5t-65.5 110.5q-34 68 -64 92.5t-90 24.5h-48v-61v-51.5t1 -33.5q1 -40 6 -53t26 -13h12q3 0 3 -3.5t-3 -3.5h-12.5t-21.5 1h-12h-5h-12.5t-35.5 -1h-18.5h-5.5q-4 0 -4 3.5t4 3.5q19 0 25 1t9 3q6 4 8.5 15.5
t3.5 36.5q1 17 1.5 45t0.5 76v80v51.5t-1 33.5q-1 40 -6 53t-25 13h-11q-4 0 -4 4t4 4h15.5t34.5 -1q16 -1 21.5 -1h7.5h9t26 1q22 1 30.5 1h11.5q84 0 123 -23t39 -73q0 -40 -38 -69t-95 -34q36 -2 60 -24t56 -80q6 -12 20 -38.5t21 -39.5q17 -29 32 -42t32 -13
q40 0 71 70.5t31 154.5q0 146 -98 245t-239 99q-66 0 -128 -26.5t-110 -75.5q-47 -48 -72.5 -110t-25.5 -131q0 -148 96 -249.5t234 -101.5q57 0 102 12.5t81 37.5q4 3 5.5 1t-2.5 -5q-43 -29 -93.5 -44.5t-102.5 -15.5q-146 0 -242 101t-96 256q0 69 29 134t82 118
q54 52 120.5 82t131.5 30q148 0 247 -99.5t99 -251.5zM303 460v-97h15t29 1h23h10q61 0 96.5 24.5t35.5 69.5q0 48 -25.5 70.5t-80.5 22.5h-79q-18 0 -21 -13t-3 -78z" />
    <glyph glyph-name="macron" unicode="&#xaf;" horiz-adv-x="809" 
d="M329 591q-5 0 -17.5 -1t-12.5 1q0 5 4 13t11 17h67q36 0 55.5 0.5t39.5 1.5q10 0 20 1t10 -1q0 -5 -4 -13t-11 -17h-83q-32 0 -46.5 -0.5t-32.5 -1.5z" />
    <glyph glyph-name="degree" unicode="&#xb0;" horiz-adv-x="376" 
d="M188 447q-54 0 -92 38t-38 92t38 92t92 38t92 -38t38 -92t-38 -92t-92 -38zM188 693q-47 0 -81 -34.5t-34 -81.5t34 -81.5t81 -34.5t81 34.5t34 81.5t-34 81.5t-81 34.5z" />
    <glyph glyph-name="plusminus" unicode="&#xb1;" 
d="M438 467q5 -4 5 -12.5t-5 -11.5q-75 6 -98.5 6.5t-54.5 0.5q0 -33 1 -58t6 -96q-3 -5 -11.5 -5t-12.5 5q2 29 2.5 55t0.5 99q-33 0 -58 -1t-95 -6q-5 3 -5 11.5t5 12.5q79 -5 102 -5.5t51 -0.5q0 76 -0.5 102t-2.5 53q4 5 12.5 5t11.5 -5q-6 -75 -6.5 -99t-0.5 -56
q30 0 54.5 0.5t98.5 5.5zM277 216q31 0 55.5 0.5t103.5 5.5q5 -4 5 -12.5t-5 -11.5q-75 6 -100 6.5t-58 0.5t-58 -0.5t-100 -6.5q-5 3 -5 11.5t5 12.5q79 -5 103 -5.5t54 -0.5z" />
    <glyph glyph-name="two.sup" unicode="&#xb2;" horiz-adv-x="371" 
d="M44 496zM229 496q-48 1 -67.5 1h-26.5h-28.5t-45.5 -1h-12h-4q-1 8 -0.5 12t1.5 5q12 10 41.5 33.5t51.5 42.5q100 85 121 115.5t21 68.5q0 31 -27 50.5t-71 19.5q-64 0 -91.5 -39.5t-19.5 -121.5q0 -4 -4.5 -4t-4.5 4q0 20 -2 44t-8 64q-2 15 -2.5 19.5t-0.5 6.5
q0 7 1 9t4 2q54 17 79 21t50 4q58 0 96 -24.5t38 -66.5q0 -24 -15 -46.5t-55 -53.5q-7 -5 -42 -31.5t-58 -46.5q-6 -5 -11.5 -9.5l-16.5 -13.5q-16 -13 -24.5 -20.5t-17.5 -15.5h108.5t57.5 1q44 0 55 7.5t14 28.5l6 42q1 8 5.5 8t3.5 -8l-6 -43q-1 -5 -4.5 -32t-6.5 -30
q-1 -1 -8 -1.5t-18 -0.5h-13.5h-42.5z" />
    <glyph glyph-name="three.sup" unicode="&#xb3;" horiz-adv-x="345" 
d="M40 490zM308 600q0 -50 -41 -80t-111 -30q-23 0 -45.5 4t-64.5 17q-7 2 -6 6.5t8 2.5q3 -1 20 -6.5t30 -7.5q12 -3 25 -4t28 -1q54 0 89.5 29t35.5 71q0 36 -22 56.5t-58 20.5q-20 0 -35.5 -5.5t-30.5 -19.5q-5 -4 -7.5 -5.5t-4.5 -1.5q-4 0 -6 3.5t-1 7.5q0 3 0.5 5
t1.5 5q70 22 105 52.5t35 68.5q0 25 -22 40.5t-57 15.5q-58 0 -85.5 -33.5t-27.5 -105.5q0 -4 -4.5 -4.5t-4.5 3.5q0 12 -1 29t-4 51q-1 16 -1.5 21.5t-0.5 7.5q0 7 1 9t4 2q8 3 28.5 10t33.5 10q16 5 32 7t33 2q53 0 81.5 -17.5t28.5 -50.5q0 -21 -11.5 -37t-36.5 -31
q-14 -8 -42 -20.5t-38 -17.5q15 4 27 6t22 2q50 0 75 -22t25 -65z" />
    <glyph glyph-name="acute" unicode="&#xb4;" horiz-adv-x="809" 
d="M445 648q-45 -35 -74 -60.5t-54 -50.5q-1 -1 -2 -1.5t-2 -0.5t-2.5 1.5t-1.5 2.5t0.5 1.5l2.5 2.5q23 23 48 52t61 75q10 14 13.5 18t5.5 6q4 4 7.5 5.5t8.5 1.5q6 0 12 -5.5t6 -11.5q0 -5 -2 -9.5t-7 -9.5q-2 -2 -5.5 -5t-14.5 -12z" />
    <glyph glyph-name="paragraph" unicode="&#xb6;" horiz-adv-x="644" 
d="M334 -149v502h-81q-91 0 -144 43.5t-53 117.5q0 77 49.5 117.5t143.5 40.5h25.5h85.5q63 -1 84.5 -1h25.5h11t29 1q33 1 48 1h23q6 0 6 -4.5t-6 -4.5h-18q-30 0 -38 -13t-12 -49q-1 -16 -2 -38.5t-2 -55.5v-40.5v-53.5v-563q0 -8 -5.5 -8t-5.5 8v563v53v37
q0 31 -0.5 52.5t-1.5 36.5q-2 40 -8 54t-29 14h-113v-810q0 -8 -6 -8t-6 8z" />
    <glyph glyph-name="periodcentered" unicode="&#xb7;" horiz-adv-x="202" 
d="M101 221q-14 0 -23.5 9.5t-9.5 23.5t9.5 24t23.5 10t23.5 -10t9.5 -24t-9.5 -23.5t-23.5 -9.5z" />
    <glyph glyph-name="cedilla" unicode="&#xb8;" horiz-adv-x="809" 
d="M487 -172q0 -41 -40.5 -70.5t-95.5 -29.5q-23 0 -37.5 9t-14.5 21q0 7 8 12.5t17 5.5q7 0 13 -3t16 -12q11 -10 19 -13.5t17 -3.5q28 0 53 18.5t25 45.5q0 37 -37 54.5t-94 8.5q-5 -1 -8 -3.5t-6 -8.5t-5 -7.5t-5 -1.5q-6 0 -6 4.5t6 12.5q4 5 30 40t74 101q3 5 7 2t0 -7
q-22 -30 -43 -59.5t-31 -43.5q-1 -2 0 -2.5t3 -0.5q62 6 98.5 -13.5t36.5 -55.5z" />
    <glyph glyph-name="one.sup" unicode="&#xb9;" horiz-adv-x="213" 
d="M32 498zM34 507h18q25 0 34.5 13.5t9.5 46.5v202q0 24 -12 28t-45 -10q-3 -1 -4.5 2t1.5 5q23 10 43 24t38 34q1 1 4.5 0.5t3.5 -2.5v-283q0 -33 9.5 -46.5t35.5 -13.5h19q2 0 2 -4.5t-2 -4.5l-78 1h-10.5h-25.5q-20 -1 -28.5 -1h-12.5q-2 0 -2 4.5t2 4.5z" />
    <glyph glyph-name="ordmasculine" unicode="&#xba;" horiz-adv-x="376" 
d="M335 551q0 -60 -45 -107t-106 -47q-63 0 -103 40t-40 104q0 65 43.5 110.5t108.5 45.5q63 0 102.5 -40.5t39.5 -105.5zM73 551q0 -65 30.5 -105.5t83.5 -40.5q50 0 83 38t33 99q0 62 -32 105t-83 43q-52 0 -83.5 -38t-31.5 -101z" />
    <glyph glyph-name="guillemotright" unicode="&#xbb;" horiz-adv-x="613" 
d="M77 26zM108 466q21 -21 106.5 -100t119.5 -108q2 -2 2 -5.5t-2 -5.5q-34 -29 -119.5 -108t-106.5 -100q-9 -8 -13.5 -10.5t-8.5 -2.5t-6.5 4.5t-2.5 12.5q0 6 3 12t8 11q6 4 15 11t33 25q72 53 113 85.5t73 60.5q3 2 3 4.5t-3 4.5q-32 28 -73 60.5t-113 85.5
q-24 18 -33 25t-15 11q-5 5 -8 11t-3 12q0 8 2.5 12.5t6.5 4.5t8.5 -2.5t13.5 -10.5zM328 466q21 -21 106.5 -100t119.5 -108q2 -2 2 -5.5t-2 -5.5q-34 -29 -119.5 -108t-106.5 -100q-9 -8 -13.5 -10.5t-8.5 -2.5t-6.5 4.5t-2.5 12.5q0 6 3 12t8 11q6 4 15 11t33 25
q72 53 113 85.5t73 60.5q3 2 3 4.5t-3 4.5q-32 28 -73 60.5t-113 85.5q-24 18 -33 25t-15 11q-5 5 -8 11t-3 12q0 8 2.5 12.5t6.5 4.5t8.5 -2.5t13.5 -10.5z" />
    <glyph glyph-name="onequarter" unicode="&#xbc;" horiz-adv-x="636" 
d="M53 0zM58 354q33 -2 123.5 -4t135.5 -2t136.5 2t124.5 4q5 -4 5 -12.5t-5 -11.5q-35 3 -124 5t-136 2t-136 -2t-124 -5q-5 3 -5 11.5t5 12.5zM235 429zM237 438h18q25 0 34.5 13.5t9.5 46.5v202q0 24 -12 28t-45 -10q-3 -1 -4.5 2t1.5 5q23 10 43 24t38 34q1 1 4.5 0.5
t3.5 -2.5v-283q0 -33 9.5 -46.5t35.5 -13.5h19q2 0 2 -4.5t-2 -4.5l-78 1h-10.5h-25.5q-20 -1 -28.5 -1h-12.5q-2 0 -2 4.5t2 4.5zM242 -83q46 1 57.5 11.5t11.5 41.5v42h-114q-7 0 -24 -0.5t-24 -1.5q-8 -1 -5.5 6.5t16.5 25.5q78 95 104.5 130t56.5 78q4 5 8 8t9 4
q10 1 12 -3t-4 -11q-5 -6 -7 -12.5t-2 -30.5v-171h38q39 0 50.5 9.5t16.5 39.5l4 24q1 5 5.5 5t3.5 -5l-3 -20q-2 -11 -6 -41t-6 -32q-1 -1 -12 -1.5t-23 -0.5h-68v-42q0 -31 11 -41.5t54 -11.5q4 0 4 -4.5t-4 -4.5h-15t-36 1h-21.5h-7.5h-7h-20q-27 -1 -37.5 -1h-15.5
q-4 0 -4 4.5t4 4.5zM229 110q-25 -29 -38.5 -45t-26.5 -31h147v174q-15 -19 -32 -39t-50 -59z" />
    <glyph glyph-name="onehalf" unicode="&#xbd;" horiz-adv-x="636" 
d="M53 0zM58 354q33 -2 123.5 -4t135.5 -2t136.5 2t124.5 4q5 -4 5 -12.5t-5 -11.5q-35 3 -124 5t-136 2t-136 -2t-124 -5q-5 3 -5 11.5t5 12.5zM235 429zM237 438h18q25 0 34.5 13.5t9.5 46.5v202q0 24 -12 28t-45 -10q-3 -1 -4.5 2t1.5 5q23 10 43 24t38 34q1 1 4.5 0.5
t3.5 -2.5v-283q0 -33 9.5 -46.5t35.5 -13.5h19q2 0 2 -4.5t-2 -4.5l-78 1h-10.5h-25.5q-20 -1 -28.5 -1h-12.5q-2 0 -2 4.5t2 4.5zM357 -97q-48 1 -67.5 1h-26.5h-28.5t-45.5 -1h-12h-4q-1 8 -0.5 12t1.5 5q12 10 41.5 33.5t51.5 42.5q100 85 121 115.5t21 68.5
q0 31 -27 50.5t-71 19.5q-64 0 -91.5 -39.5t-19.5 -121.5q0 -4 -4.5 -4t-4.5 4q0 20 -2 44t-8 64q-2 15 -2.5 19.5t-0.5 6.5q0 7 1 9t4 2q54 17 79 21t50 4q58 0 96 -24.5t38 -66.5q0 -24 -15 -46.5t-55 -53.5q-7 -5 -42 -31.5t-58 -46.5q-6 -5 -11.5 -9.5l-16.5 -13.5
q-16 -13 -24.5 -20.5t-17.5 -15.5h108.5t57.5 1q44 0 55 7.5t14 28.5l6 42q1 8 5.5 8t3.5 -8l-6 -43q-1 -5 -4.5 -32t-6.5 -30q-1 -1 -8 -1.5t-18 -0.5h-13.5h-42.5z" />
    <glyph glyph-name="threequarters" unicode="&#xbe;" horiz-adv-x="636" 
d="M53 0zM58 354q33 -2 123.5 -4t135.5 -2t136.5 2t124.5 4q5 -4 5 -12.5t-5 -11.5q-35 3 -124 5t-136 2t-136 -2t-124 -5q-5 3 -5 11.5t5 12.5zM183 421zM451 531q0 -50 -41 -80t-111 -30q-23 0 -45.5 4t-64.5 17q-7 2 -6 6.5t8 2.5q3 -1 20 -6.5t30 -7.5q12 -3 25 -4
t28 -1q54 0 89.5 29t35.5 71q0 36 -22 56.5t-58 20.5q-20 0 -35.5 -5.5t-30.5 -19.5q-5 -4 -7.5 -5.5t-4.5 -1.5q-4 0 -6 3.5t-1 7.5q0 3 0.5 5t1.5 5q70 22 105 52.5t35 68.5q0 25 -22 40.5t-57 15.5q-58 0 -85.5 -33.5t-27.5 -105.5q0 -4 -4.5 -4.5t-4.5 3.5q0 12 -1 29
t-4 51q-1 16 -1.5 21.5t-0.5 7.5q0 7 1 9t4 2q8 3 28.5 10t33.5 10q16 5 32 7t33 2q53 0 81.5 -17.5t28.5 -50.5q0 -21 -11.5 -37t-36.5 -31q-14 -8 -42 -20.5t-38 -17.5q15 4 27 6t22 2q50 0 75 -22t25 -65zM242 -83q46 1 57.5 11.5t11.5 41.5v42h-114q-7 0 -24 -0.5
t-24 -1.5q-8 -1 -5.5 6.5t16.5 25.5q78 95 104.5 130t56.5 78q4 5 8 8t9 4q10 1 12 -3t-4 -11q-5 -6 -7 -12.5t-2 -30.5v-171h38q39 0 50.5 9.5t16.5 39.5l4 24q1 5 5.5 5t3.5 -5l-3 -20q-2 -11 -6 -41t-6 -32q-1 -1 -12 -1.5t-23 -0.5h-68v-42q0 -31 11 -41.5t54 -11.5
q4 0 4 -4.5t-4 -4.5h-15t-36 1h-21.5h-7.5h-7h-20q-27 -1 -37.5 -1h-15.5q-4 0 -4 4.5t4 4.5zM229 110q-25 -29 -38.5 -45t-26.5 -31h147v174q-15 -19 -32 -39t-50 -59z" />
    <glyph glyph-name="questiondown" unicode="&#xbf;" horiz-adv-x="365" 
d="M260 377q0 -3 0.5 -57t0.5 -152q0 -5 -2 -7t-6 -4q-92 -45 -129.5 -90.5t-37.5 -107.5q0 -59 54.5 -91.5t153.5 -32.5q3 0 5 -1.5t1 -4.5q0 -2 -1 -5.5t-4 -14.5q-8 -28 -12 -43t-6 -26q-1 -4 -4 -3.5t-2 4.5q6 26 8.5 40t1.5 17q0 2 -2.5 3t-15.5 1q-94 0 -150.5 40.5
t-56.5 103.5q0 59 46 114.5t131 99.5q0 7 -0.5 23t-2.5 61q-2 68 -3 91t0 26q1 4 16.5 12t16.5 4zM241 515q14 0 23.5 -9.5t9.5 -23.5t-9.5 -24t-23.5 -10t-23.5 10t-9.5 24t9.5 23.5t23.5 9.5z" />
    <glyph glyph-name="Agrave" unicode="&#xc0;" horiz-adv-x="711" 
d="M0 0zM509 249l-126 -3q-34 0 -109.5 1t-103.5 2l-33 -79q-25 -60 -31.5 -82t-6.5 -36q0 -23 16 -33.5t50 -10.5q5 0 11 0.5t16 1.5q4 1 5.5 1h2.5q3 0 5 -1.5t2 -3.5q0 -3 -3 -4.5t-9 -1.5q-11 0 -28 0.5t-54 0.5q-23 1 -31 1h-12h-8t-17 -1q-20 -1 -29.5 -1h-17.5
q-3 0 -4.5 1.5t-1.5 3.5q0 1 2 2.5t4 1.5h4q17 0 30 7.5t27 26.5q15 20 30.5 51t35.5 80l215 519q1 2 3 2.5t5 0.5h6q3 0 5 -1t3 -3l228 -544q38 -90 57.5 -114.5t56.5 -24.5h8q3 0 5 -1t2 -3t-1.5 -3.5t-4.5 -1.5q-9 0 -22 0.5t-41 1.5q-17 1 -24 1h-10h-10.5t-26.5 -1
q-31 -1 -45 -1.5t-23 -0.5q-6 0 -5.5 4.5t6.5 4.5h41q36 0 34.5 27.5t-36.5 112.5zM173 257l204 1h129l-167 401zM389 729q-1 0 -2 0.5t-2 1.5q-25 25 -54 50.5t-74 60.5q-11 9 -14.5 12t-5.5 5q-5 5 -7 9.5t-2 9.5q0 6 6 11.5t12 5.5q5 0 8.5 -1.5t7.5 -5.5q2 -2 5.5 -6
t13.5 -18q36 -46 61 -75t48 -52l2.5 -2.5t0.5 -1.5t-1.5 -2.5t-2.5 -1.5z" />
    <glyph glyph-name="Aacute" unicode="&#xc1;" horiz-adv-x="711" 
d="M0 0zM509 249l-126 -3q-34 0 -109.5 1t-103.5 2l-33 -79q-25 -60 -31.5 -82t-6.5 -36q0 -23 16 -33.5t50 -10.5q5 0 11 0.5t16 1.5q4 1 5.5 1h2.5q3 0 5 -1.5t2 -3.5q0 -3 -3 -4.5t-9 -1.5q-11 0 -28 0.5t-54 0.5q-23 1 -31 1h-12h-8t-17 -1q-20 -1 -29.5 -1h-17.5
q-3 0 -4.5 1.5t-1.5 3.5q0 1 2 2.5t4 1.5h4q17 0 30 7.5t27 26.5q15 20 30.5 51t35.5 80l215 519q1 2 3 2.5t5 0.5h6q3 0 5 -1t3 -3l228 -544q38 -90 57.5 -114.5t56.5 -24.5h8q3 0 5 -1t2 -3t-1.5 -3.5t-4.5 -1.5q-9 0 -22 0.5t-41 1.5q-17 1 -24 1h-10h-10.5t-26.5 -1
q-31 -1 -45 -1.5t-23 -0.5q-6 0 -5.5 4.5t6.5 4.5h41q36 0 34.5 27.5t-36.5 112.5zM173 257l204 1h129l-167 401zM443 842q-45 -35 -74 -60.5t-54 -50.5q-1 -1 -2 -1.5t-2 -0.5t-2.5 1.5t-1.5 2.5t0.5 1.5l2.5 2.5q23 23 48 52t61 75q10 14 13.5 18t5.5 6q4 4 7.5 5.5
t8.5 1.5q6 0 12 -5.5t6 -11.5q0 -5 -2 -9.5t-7 -9.5q-2 -2 -5.5 -5t-14.5 -12z" />
    <glyph glyph-name="Acircumflex" unicode="&#xc2;" horiz-adv-x="711" 
d="M0 0zM509 249l-126 -3q-34 0 -109.5 1t-103.5 2l-33 -79q-25 -60 -31.5 -82t-6.5 -36q0 -23 16 -33.5t50 -10.5q5 0 11 0.5t16 1.5q4 1 5.5 1h2.5q3 0 5 -1.5t2 -3.5q0 -3 -3 -4.5t-9 -1.5q-11 0 -28 0.5t-54 0.5q-23 1 -31 1h-12h-8t-17 -1q-20 -1 -29.5 -1h-17.5
q-3 0 -4.5 1.5t-1.5 3.5q0 1 2 2.5t4 1.5h4q17 0 30 7.5t27 26.5q15 20 30.5 51t35.5 80l215 519q1 2 3 2.5t5 0.5h6q3 0 5 -1t3 -3l228 -544q38 -90 57.5 -114.5t56.5 -24.5h8q3 0 5 -1t2 -3t-1.5 -3.5t-4.5 -1.5q-9 0 -22 0.5t-41 1.5q-17 1 -24 1h-10h-10.5t-26.5 -1
q-31 -1 -45 -1.5t-23 -0.5q-6 0 -5.5 4.5t6.5 4.5h41q36 0 34.5 27.5t-36.5 112.5zM173 257l204 1h129l-167 401zM350 876q-2 2 -4 2t-3 -2q-15 -16 -32 -39t-57 -83q-8 -11 -14 -15t-13 -4q-8 0 -13 3.5t-5 9.5t5 13.5t16 18.5q47 46 69 66t43 39q2 1 5 1t4 -1
q15 -12 30.5 -25.5t43.5 -37.5q18 -17 27 -24.5t16 -13.5q11 -9 16 -16.5t5 -13.5t-5 -11t-12 -5q-8 0 -14 4t-16 17q-33 46 -54 72t-38 45z" />
    <glyph glyph-name="Atilde" unicode="&#xc3;" horiz-adv-x="711" 
d="M0 0zM509 249l-126 -3q-34 0 -109.5 1t-103.5 2l-33 -79q-25 -60 -31.5 -82t-6.5 -36q0 -23 16 -33.5t50 -10.5q5 0 11 0.5t16 1.5q4 1 5.5 1h2.5q3 0 5 -1.5t2 -3.5q0 -3 -3 -4.5t-9 -1.5q-11 0 -28 0.5t-54 0.5q-23 1 -31 1h-12h-8t-17 -1q-20 -1 -29.5 -1h-17.5
q-3 0 -4.5 1.5t-1.5 3.5q0 1 2 2.5t4 1.5h4q17 0 30 7.5t27 26.5q15 20 30.5 51t35.5 80l215 519q1 2 3 2.5t5 0.5h6q3 0 5 -1t3 -3l228 -544q38 -90 57.5 -114.5t56.5 -24.5h8q3 0 5 -1t2 -3t-1.5 -3.5t-4.5 -1.5q-9 0 -22 0.5t-41 1.5q-17 1 -24 1h-10h-10.5t-26.5 -1
q-31 -1 -45 -1.5t-23 -0.5q-6 0 -5.5 4.5t6.5 4.5h41q36 0 34.5 27.5t-36.5 112.5zM173 257l204 1h129l-167 401zM219 756q-2 -4 -5.5 -2t-0.5 6q25 42 40.5 56.5t35.5 14.5q14 0 29.5 -3.5t44.5 -13.5q28 -10 42 -13t27 -3q19 0 32 13t24 42q2 3 5.5 1.5t1.5 -6.5
q-21 -42 -40 -60t-42 -18q-13 0 -27.5 3t-41.5 14q-27 10 -41 13t-26 3q-18 0 -32.5 -12t-25.5 -35z" />
    <glyph glyph-name="Adieresis" unicode="&#xc4;" horiz-adv-x="711" 
d="M0 0zM509 249l-126 -3q-34 0 -109.5 1t-103.5 2l-33 -79q-25 -60 -31.5 -82t-6.5 -36q0 -23 16 -33.5t50 -10.5q5 0 11 0.5t16 1.5q4 1 5.5 1h2.5q3 0 5 -1.5t2 -3.5q0 -3 -3 -4.5t-9 -1.5q-11 0 -28 0.5t-54 0.5q-23 1 -31 1h-12h-8t-17 -1q-20 -1 -29.5 -1h-17.5
q-3 0 -4.5 1.5t-1.5 3.5q0 1 2 2.5t4 1.5h4q17 0 30 7.5t27 26.5q15 20 30.5 51t35.5 80l215 519q1 2 3 2.5t5 0.5h6q3 0 5 -1t3 -3l228 -544q38 -90 57.5 -114.5t56.5 -24.5h8q3 0 5 -1t2 -3t-1.5 -3.5t-4.5 -1.5q-9 0 -22 0.5t-41 1.5q-17 1 -24 1h-10h-10.5t-26.5 -1
q-31 -1 -45 -1.5t-23 -0.5q-6 0 -5.5 4.5t6.5 4.5h41q36 0 34.5 27.5t-36.5 112.5zM173 257l204 1h129l-167 401zM449 789q-12 0 -21 9t-9 21t9 21t21 9t21 -9t9 -21t-9 -21t-21 -9zM251 789q-12 0 -21 9t-9 21t9 21t21 9t21 -9t9 -21t-9 -21t-21 -9z" />
    <glyph glyph-name="Aring" unicode="&#xc5;" horiz-adv-x="711" 
d="M0 0zM509 249l-126 -3q-34 0 -109.5 1t-103.5 2l-33 -79q-25 -60 -31.5 -82t-6.5 -36q0 -23 16 -33.5t50 -10.5q5 0 11 0.5t16 1.5q4 1 5.5 1h2.5q3 0 5 -1.5t2 -3.5q0 -3 -3 -4.5t-9 -1.5q-11 0 -28 0.5t-54 0.5q-23 1 -31 1h-12h-8t-17 -1q-20 -1 -29.5 -1h-17.5
q-3 0 -4.5 1.5t-1.5 3.5q0 1 2 2.5t4 1.5h4q17 0 30 7.5t27 26.5q15 20 30.5 51t35.5 80l215 519q1 2 3 2.5t5 0.5h6q3 0 5 -1t3 -3l228 -544q38 -90 57.5 -114.5t56.5 -24.5h8q3 0 5 -1t2 -3t-1.5 -3.5t-4.5 -1.5q-9 0 -22 0.5t-41 1.5q-17 1 -24 1h-10h-10.5t-26.5 -1
q-31 -1 -45 -1.5t-23 -0.5q-6 0 -5.5 4.5t6.5 4.5h41q36 0 34.5 27.5t-36.5 112.5zM173 257l204 1h129l-167 401zM349 731q-39 0 -65 26t-26 64t26.5 65t64.5 27t65 -27t27 -65q0 -37 -27 -63.5t-65 -26.5zM349 903q-33 0 -56.5 -24t-23.5 -58q0 -33 23.5 -56.5t56.5 -23.5
q34 0 57.5 23.5t23.5 56.5q0 34 -23.5 58t-57.5 24z" />
    <glyph glyph-name="AE" unicode="&#xc6;" horiz-adv-x="982" 
d="M474 249l-140 -4q-14 0 -37 0.5t-107 3.5l-42 -90q-22 -47 -30 -71t-8 -39q0 -21 15.5 -31t47.5 -10q2 0 6 0.5l12 1.5q5 1 7 1h3q3 0 5 -1.5t2 -3.5q0 -3 -3 -4.5t-9 -1.5h-16.5t-41.5 1t-41 1h-15h-8.5t-20.5 -1q-24 -1 -35 -1h-19q-3 0 -4.5 1.5t-1.5 3.5q0 1 2 2.5
t4 1.5h4q25 0 42 10.5t34 35.5q11 16 24 41t33 67l225 480q-8 22 -20 31.5t-36 9.5h-7q-6 0 -6 4.5t6 4.5q8 0 24 -0.5t52 -1.5q23 -1 31.5 -1h11.5h15t58 1q136 1 196.5 1.5t80.5 0.5h64q18 0 30.5 -1t16.5 -3t11 -44.5t13 -99.5l4 -36q1 -5 -4 -5t-6 5l-5 36
q-11 76 -42 106t-113 30h-333q-8 0 -10.5 -2.5t0.5 -12.5l80 -284h182q52 0 72 27t20 88v21q0 6 5 6t5 -6q0 -9 -0.5 -27.5t-2.5 -63.5q-1 -28 -1.5 -38t-0.5 -13q0 -4 0.5 -17t1.5 -50q2 -38 2.5 -52t0.5 -18q0 -6 -5 -6t-5 6v15q0 62 -20 89t-72 27h-179l33 -117
q12 -43 22.5 -77t19.5 -59q20 -58 37 -82t43 -24h125q87 0 121.5 36t45.5 136l6 53q1 5 6.5 4.5t4.5 -5.5l-6 -54q-2 -15 -5 -45.5t-4 -44.5q-5 -45 -8 -65.5t-6 -23.5t-57 -2.5t-67 0.5h-13q-17 0 -38.5 0.5t-67.5 0.5q-48 1 -70 1.5t-40 0.5h-15t-26 -1q-24 -1 -36.5 -1.5
t-23.5 -0.5q-7 0 -6.5 4.5t6.5 4.5h2q51 0 63 16.5t0 57.5zM194 257l134 1h144l-106 368z" />
    <glyph glyph-name="Ccedilla" unicode="&#xc7;" horiz-adv-x="754" 
d="M510 -172q0 -41 -40.5 -70.5t-95.5 -29.5q-23 0 -37.5 9t-14.5 21q0 7 8 12.5t17 5.5q7 0 13 -3t16 -12q11 -10 19 -13.5t17 -3.5q28 0 53 18.5t25 45.5q0 37 -37 54.5t-94 8.5q-5 -1 -8 -3.5t-6 -8.5t-5 -7.5t-5 -1.5q-6 0 -6 4.5t6 12.5q17 22 53 71t38 51
q-170 2 -276.5 100.5t-106.5 256.5q0 159 108.5 258t280.5 99q59 0 131 -13t112 -31l12 -213q1 -6 -3.5 -7t-5.5 6q-9 94 -18 131t-23 54q-24 29 -80.5 46t-128.5 17q-152 0 -247.5 -95t-95.5 -252t95.5 -252t247.5 -95q72 0 128.5 17t80.5 46q14 17 23.5 56t17.5 129
q1 7 5.5 6t3.5 -7l-12 -213q-40 -18 -111.5 -31t-127.5 -13q-12 -16 -29.5 -40.5t-34.5 -48.5q-1 -2 0 -2.5t3 -0.5q62 6 98.5 -13.5t36.5 -55.5z" />
    <glyph glyph-name="Egrave" unicode="&#xc8;" horiz-adv-x="618" 
d="M13 0zM65 1q-16 0 -24.5 -0.5t-15.5 -0.5t-7 4.5t7 4.5q42 0 52.5 11.5t12.5 62.5q1 91 1 261v192q0 36 -0.5 57t-1.5 35q-3 33 -11 44.5t-41 11.5h-18q-6 0 -6 4.5t6 4.5q8 0 22.5 -0.5t46.5 -1.5q21 -1 28.5 -1h10.5h23.5t89.5 1q130 1 180.5 1.5t61.5 0.5
q18 0 30.5 -1t16.5 -3t11 -44.5t13 -99.5l4 -36q1 -5 -4 -5t-6 5l-5 36q-11 76 -42 106t-113 30h-219q-22 0 -30.5 -7.5t-9.5 -28.5q-1 -10 -1 -35v-29v-216h187q52 0 72 27t20 88v21q0 6 5 6t5 -6q0 -9 -0.5 -27.5t-2.5 -63.5q-1 -28 -1.5 -38t-0.5 -13q0 -4 0.5 -17
t1.5 -50q2 -38 2.5 -52t0.5 -18q0 -6 -5 -6t-5 6v15q0 62 -20 89t-72 27h-187v-263q0 -22 -1.5 -41t-5.5 -35h33.5t97.5 -1q66 -1 95 -1.5t46 -0.5q87 0 121.5 36t45.5 136l6 53q1 5 6.5 5t4.5 -5l-6 -54q-2 -16 -5 -47t-4 -44q-5 -46 -8 -66.5t-6 -22.5q-3 -3 -65.5 -2.5
t-71.5 0.5q-18 0 -47 0.5t-98 0.5q-70 1 -100 1.5t-48 0.5q-8 0 -18 -0.5t-34 -1.5zM350 750q-1 0 -2 0.5t-2 1.5q-25 25 -54 50.5t-74 60.5q-11 9 -14.5 12t-5.5 5q-5 5 -7 9.5t-2 9.5q0 6 6 11.5t12 5.5q5 0 8.5 -1.5t7.5 -5.5q2 -2 5.5 -6t13.5 -18q36 -46 61 -75t48 -52
l2.5 -2.5t0.5 -1.5t-1.5 -2.5t-2.5 -1.5z" />
    <glyph glyph-name="Eacute" unicode="&#xc9;" horiz-adv-x="618" 
d="M13 0zM65 1q-16 0 -24.5 -0.5t-15.5 -0.5t-7 4.5t7 4.5q42 0 52.5 11.5t12.5 62.5q1 91 1 261v192q0 36 -0.5 57t-1.5 35q-3 33 -11 44.5t-41 11.5h-18q-6 0 -6 4.5t6 4.5q8 0 22.5 -0.5t46.5 -1.5q21 -1 28.5 -1h10.5h23.5t89.5 1q130 1 180.5 1.5t61.5 0.5
q18 0 30.5 -1t16.5 -3t11 -44.5t13 -99.5l4 -36q1 -5 -4 -5t-6 5l-5 36q-11 76 -42 106t-113 30h-219q-22 0 -30.5 -7.5t-9.5 -28.5q-1 -10 -1 -35v-29v-216h187q52 0 72 27t20 88v21q0 6 5 6t5 -6q0 -9 -0.5 -27.5t-2.5 -63.5q-1 -28 -1.5 -38t-0.5 -13q0 -4 0.5 -17
t1.5 -50q2 -38 2.5 -52t0.5 -18q0 -6 -5 -6t-5 6v15q0 62 -20 89t-72 27h-187v-263q0 -22 -1.5 -41t-5.5 -35h33.5t97.5 -1q66 -1 95 -1.5t46 -0.5q87 0 121.5 36t45.5 136l6 53q1 5 6.5 5t4.5 -5l-6 -54q-2 -16 -5 -47t-4 -44q-5 -46 -8 -66.5t-6 -22.5q-3 -3 -65.5 -2.5
t-71.5 0.5q-18 0 -47 0.5t-98 0.5q-70 1 -100 1.5t-48 0.5q-8 0 -18 -0.5t-34 -1.5zM404 863q-45 -35 -74 -60.5t-54 -50.5q-1 -1 -2 -1.5t-2 -0.5t-2.5 1.5t-1.5 2.5t0.5 1.5l2.5 2.5q23 23 48 52t61 75q10 14 13.5 18t5.5 6q4 4 7.5 5.5t8.5 1.5q6 0 12 -5.5t6 -11.5
q0 -5 -2 -9.5t-7 -9.5q-2 -2 -5.5 -5t-14.5 -12z" />
    <glyph glyph-name="Ecircumflex" unicode="&#xca;" horiz-adv-x="618" 
d="M13 0zM65 1q-16 0 -24.5 -0.5t-15.5 -0.5t-7 4.5t7 4.5q42 0 52.5 11.5t12.5 62.5q1 91 1 261v192q0 36 -0.5 57t-1.5 35q-3 33 -11 44.5t-41 11.5h-18q-6 0 -6 4.5t6 4.5q8 0 22.5 -0.5t46.5 -1.5q21 -1 28.5 -1h10.5h23.5t89.5 1q130 1 180.5 1.5t61.5 0.5
q18 0 30.5 -1t16.5 -3t11 -44.5t13 -99.5l4 -36q1 -5 -4 -5t-6 5l-5 36q-11 76 -42 106t-113 30h-219q-22 0 -30.5 -7.5t-9.5 -28.5q-1 -10 -1 -35v-29v-216h187q52 0 72 27t20 88v21q0 6 5 6t5 -6q0 -9 -0.5 -27.5t-2.5 -63.5q-1 -28 -1.5 -38t-0.5 -13q0 -4 0.5 -17
t1.5 -50q2 -38 2.5 -52t0.5 -18q0 -6 -5 -6t-5 6v15q0 62 -20 89t-72 27h-187v-263q0 -22 -1.5 -41t-5.5 -35h33.5t97.5 -1q66 -1 95 -1.5t46 -0.5q87 0 121.5 36t45.5 136l6 53q1 5 6.5 5t4.5 -5l-6 -54q-2 -16 -5 -47t-4 -44q-5 -46 -8 -66.5t-6 -22.5q-3 -3 -65.5 -2.5
t-71.5 0.5q-18 0 -47 0.5t-98 0.5q-70 1 -100 1.5t-48 0.5q-8 0 -18 -0.5t-34 -1.5zM311 897q-2 2 -4 2t-3 -2q-15 -16 -32 -39t-57 -83q-8 -11 -14 -15t-13 -4q-8 0 -13 3.5t-5 9.5t5 13.5t16 18.5q47 46 69 66t43 39q2 1 5 1t4 -1q15 -12 30.5 -25.5t43.5 -37.5
q18 -17 27 -24.5t16 -13.5q11 -9 16 -16.5t5 -13.5t-5 -11t-12 -5q-8 0 -14 4t-16 17q-33 46 -54 72t-38 45z" />
    <glyph glyph-name="Edieresis" unicode="&#xcb;" horiz-adv-x="618" 
d="M13 0zM65 1q-16 0 -24.5 -0.5t-15.5 -0.5t-7 4.5t7 4.5q42 0 52.5 11.5t12.5 62.5q1 91 1 261v192q0 36 -0.5 57t-1.5 35q-3 33 -11 44.5t-41 11.5h-18q-6 0 -6 4.5t6 4.5q8 0 22.5 -0.5t46.5 -1.5q21 -1 28.5 -1h10.5h23.5t89.5 1q130 1 180.5 1.5t61.5 0.5
q18 0 30.5 -1t16.5 -3t11 -44.5t13 -99.5l4 -36q1 -5 -4 -5t-6 5l-5 36q-11 76 -42 106t-113 30h-219q-22 0 -30.5 -7.5t-9.5 -28.5q-1 -10 -1 -35v-29v-216h187q52 0 72 27t20 88v21q0 6 5 6t5 -6q0 -9 -0.5 -27.5t-2.5 -63.5q-1 -28 -1.5 -38t-0.5 -13q0 -4 0.5 -17
t1.5 -50q2 -38 2.5 -52t0.5 -18q0 -6 -5 -6t-5 6v15q0 62 -20 89t-72 27h-187v-263q0 -22 -1.5 -41t-5.5 -35h33.5t97.5 -1q66 -1 95 -1.5t46 -0.5q87 0 121.5 36t45.5 136l6 53q1 5 6.5 5t4.5 -5l-6 -54q-2 -16 -5 -47t-4 -44q-5 -46 -8 -66.5t-6 -22.5q-3 -3 -65.5 -2.5
t-71.5 0.5q-18 0 -47 0.5t-98 0.5q-70 1 -100 1.5t-48 0.5q-8 0 -18 -0.5t-34 -1.5zM410 810q-12 0 -21 9t-9 21t9 21t21 9t21 -9t9 -21t-9 -21t-21 -9zM212 810q-12 0 -21 9t-9 21t9 21t21 9t21 -9t9 -21t-9 -21t-21 -9z" />
    <glyph glyph-name="Igrave" unicode="&#xcc;" horiz-adv-x="237" 
d="M0 0zM97 159v375q0 44 -0.5 63t-1.5 32q-2 33 -10.5 44t-44.5 11h-13q-6 0 -6 4.5t6 4.5q8 0 20 -0.5l36 -1.5q16 -1 22.5 -1h9.5h9.5t23.5 1q27 1 40 1.5t22 0.5q6 0 6 -4.5t-6 -4.5h-20q-36 0 -44.5 -11t-10.5 -44q-1 -13 -1.5 -32t-0.5 -63v-375q0 -42 0.5 -61.5
t1.5 -32.5q2 -34 11 -45t44 -11h20q6 0 6 -4.5t-6 -4.5q-9 0 -22 0.5t-40 1.5q-17 1 -23.5 1h-9.5h-9.5t-22.5 -1l-36 -1.5t-20 -0.5q-6 0 -6 4.5t6 4.5h13q35 0 44 11t11 45q1 13 1.5 32.5t0.5 61.5zM157 750q-1 0 -2 0.5t-2 1.5q-25 25 -54 50.5t-74 60.5q-11 9 -14.5 12
t-5.5 5q-5 5 -7 9.5t-2 9.5q0 6 6 11.5t12 5.5q5 0 8.5 -1.5t7.5 -5.5q2 -2 5.5 -6t13.5 -18q36 -46 61 -75t48 -52l2.5 -2.5t0.5 -1.5t-1.5 -2.5t-2.5 -1.5z" />
    <glyph glyph-name="Iacute" unicode="&#xcd;" horiz-adv-x="237" 
d="M21 0zM97 159v375q0 44 -0.5 63t-1.5 32q-2 33 -10.5 44t-44.5 11h-13q-6 0 -6 4.5t6 4.5q8 0 20 -0.5l36 -1.5q16 -1 22.5 -1h9.5h9.5t23.5 1q27 1 40 1.5t22 0.5q6 0 6 -4.5t-6 -4.5h-20q-36 0 -44.5 -11t-10.5 -44q-1 -13 -1.5 -32t-0.5 -63v-375q0 -42 0.5 -61.5
t1.5 -32.5q2 -34 11 -45t44 -11h20q6 0 6 -4.5t-6 -4.5q-9 0 -22 0.5t-40 1.5q-17 1 -23.5 1h-9.5h-9.5t-22.5 -1l-36 -1.5t-20 -0.5q-6 0 -6 4.5t6 4.5h13q35 0 44 11t11 45q1 13 1.5 32.5t0.5 61.5zM211 863q-45 -35 -74 -60.5t-54 -50.5q-1 -1 -2 -1.5t-2 -0.5t-2.5 1.5
t-1.5 2.5t0.5 1.5l2.5 2.5q23 23 48 52t61 75q10 14 13.5 18t5.5 6q4 4 7.5 5.5t8.5 1.5q6 0 12 -5.5t6 -11.5q0 -5 -2 -9.5t-7 -9.5q-2 -2 -5.5 -5t-14.5 -12z" />
    <glyph glyph-name="Icircumflex" unicode="&#xce;" horiz-adv-x="237" 
d="M0 0zM97 159v375q0 44 -0.5 63t-1.5 32q-2 33 -10.5 44t-44.5 11h-13q-6 0 -6 4.5t6 4.5q8 0 20 -0.5l36 -1.5q16 -1 22.5 -1h9.5h9.5t23.5 1q27 1 40 1.5t22 0.5q6 0 6 -4.5t-6 -4.5h-20q-36 0 -44.5 -11t-10.5 -44q-1 -13 -1.5 -32t-0.5 -63v-375q0 -42 0.5 -61.5
t1.5 -32.5q2 -34 11 -45t44 -11h20q6 0 6 -4.5t-6 -4.5q-9 0 -22 0.5t-40 1.5q-17 1 -23.5 1h-9.5h-9.5t-22.5 -1l-36 -1.5t-20 -0.5q-6 0 -6 4.5t6 4.5h13q35 0 44 11t11 45q1 13 1.5 32.5t0.5 61.5zM118 897q-2 2 -4 2t-3 -2q-15 -16 -32 -39t-57 -83q-8 -11 -14 -15
t-13 -4q-8 0 -13 3.5t-5 9.5t5 13.5t16 18.5q47 46 69 66t43 39q2 1 5 1t4 -1q15 -12 30.5 -25.5t43.5 -37.5q18 -17 27 -24.5t16 -13.5q11 -9 16 -16.5t5 -13.5t-5 -11t-12 -5q-8 0 -14 4t-16 17q-33 46 -54 72t-38 45z" />
    <glyph glyph-name="Idieresis" unicode="&#xcf;" horiz-adv-x="237" 
d="M0 0zM97 159v375q0 44 -0.5 63t-1.5 32q-2 33 -10.5 44t-44.5 11h-13q-6 0 -6 4.5t6 4.5q8 0 20 -0.5l36 -1.5q16 -1 22.5 -1h9.5h9.5t23.5 1q27 1 40 1.5t22 0.5q6 0 6 -4.5t-6 -4.5h-20q-36 0 -44.5 -11t-10.5 -44q-1 -13 -1.5 -32t-0.5 -63v-375q0 -42 0.5 -61.5
t1.5 -32.5q2 -34 11 -45t44 -11h20q6 0 6 -4.5t-6 -4.5q-9 0 -22 0.5t-40 1.5q-17 1 -23.5 1h-9.5h-9.5t-22.5 -1l-36 -1.5t-20 -0.5q-6 0 -6 4.5t6 4.5h13q35 0 44 11t11 45q1 13 1.5 32.5t0.5 61.5zM217 810q-12 0 -21 9t-9 21t9 21t21 9t21 -9t9 -21t-9 -21t-21 -9z
M19 810q-12 0 -21 9t-9 21t9 21t21 9t21 -9t9 -21t-9 -21t-21 -9z" />
    <glyph glyph-name="Eth" unicode="&#xd0;" horiz-adv-x="733" 
d="M157 3q-15 0 -50 -0.5t-91 -2.5q-8 0 -8 3.5t8 3.5q48 0 59.5 18.5t14.5 83.5q2 49 2.5 113.5t-0.5 122.5q-6 0 -24 -0.5t-50 -2.5q-3 2 -3 11t3 12q28 -1 47 -2t27 -1v15.5v15.5v200q0 33 -1.5 48t-4.5 23q-5 12 -15.5 16t-47.5 4q-6 0 -6 4.5t6 4.5h10.5t35.5 -1
q40 -1 55.5 -1h20.5h14.5t44.5 1q52 1 73.5 1h30.5q168 0 275 -92t107 -245q0 -162 -103 -259t-275 -97q-7 0 -21.5 0.5t-50.5 0.5q-40 1 -57 1.5t-26 0.5zM314 10q154 0 244 93t90 253q0 150 -95 239t-247 89h-108q-40 0 -51.5 -7t-14.5 -28q-2 -10 -3 -27t-1 -58v-203
q10 -1 22.5 -1h34.5q43 0 91.5 1.5t78.5 3.5q3 -3 3 -12t-3 -11q-35 2 -81.5 3.5t-87.5 1.5h-35.5t-22.5 -1v-205q0 -50 -2.5 -80.5t-7.5 -46.5q7 0 22.5 -0.5t56.5 -1.5q56 -1 80 -1.5t37 -0.5z" />
    <glyph glyph-name="Ntilde" unicode="&#xd1;" horiz-adv-x="696" 
d="M0 0zM597 -3q-5 0 -9 3.5t-15 18.5l-462 605l-1 -515q0 -31 5.5 -51t17.5 -31q10 -10 27 -14t55 -4h14q5 0 5 -4.5t-5 -4.5h-29.5t-61.5 2q-19 1 -25 1h-9h-9.5t-22.5 -1l-36 -1.5t-20 -0.5q-6 0 -6 4.5t7 4.5h6q43 1 58 23.5t16 76.5l1 509q0 10 -3.5 18t-10.5 15
q-18 18 -37 26t-44 8h-4q-5 0 -5 4t5 4q28 0 50 1t40 2q3 1 4.5 1h2.5q4 0 6 -1.5t4 -4.5q5 -10 15.5 -24.5t22.5 -28.5l449 -582v488q0 46 -3 71t-11 39q-8 17 -26.5 23.5t-73.5 6.5h-14q-6 0 -6 4.5t6 4.5q9 0 26.5 -0.5t59.5 -1.5q26 -1 35.5 -1h12.5h8t18 1q21 1 32 1.5
t20 0.5q6 0 6 -4.5t-6 -4.5h-7q-34 0 -44.5 -11t-14.5 -39q-3 -15 -4 -37t-1 -53v-537q0 -5 -2.5 -7.5t-6.5 -2.5zM230 777q-2 -4 -5.5 -2t-0.5 6q25 42 40.5 56.5t35.5 14.5q14 0 29.5 -3.5t44.5 -13.5q28 -10 42 -13t27 -3q19 0 32 13t24 42q2 3 5.5 1.5t1.5 -6.5
q-21 -42 -40 -60t-42 -18q-13 0 -27.5 3t-41.5 14q-27 10 -41 13t-26 3q-18 0 -32.5 -12t-25.5 -35z" />
    <glyph glyph-name="Ograve" unicode="&#xd2;" horiz-adv-x="794" 
d="M43 0zM646 95q-51 -50 -116 -77.5t-135 -27.5q-151 0 -251.5 101.5t-100.5 254.5t102.5 255t252.5 102q154 0 253 -101t99 -256q0 -72 -27 -136.5t-77 -114.5zM85 346q0 -152 86.5 -249t219.5 -97q135 0 226 98.5t91 247.5q0 157 -84 252t-222 95q-137 0 -227 -98
t-90 -249zM436 750q-1 0 -2 0.5t-2 1.5q-25 25 -54 50.5t-74 60.5q-11 9 -14.5 12t-5.5 5q-5 5 -7 9.5t-2 9.5q0 6 6 11.5t12 5.5q5 0 8.5 -1.5t7.5 -5.5q2 -2 5.5 -6t13.5 -18q36 -46 61 -75t48 -52l2.5 -2.5t0.5 -1.5t-1.5 -2.5t-2.5 -1.5z" />
    <glyph glyph-name="Oacute" unicode="&#xd3;" horiz-adv-x="794" 
d="M43 0zM646 95q-51 -50 -116 -77.5t-135 -27.5q-151 0 -251.5 101.5t-100.5 254.5t102.5 255t252.5 102q154 0 253 -101t99 -256q0 -72 -27 -136.5t-77 -114.5zM85 346q0 -152 86.5 -249t219.5 -97q135 0 226 98.5t91 247.5q0 157 -84 252t-222 95q-137 0 -227 -98
t-90 -249zM490 863q-45 -35 -74 -60.5t-54 -50.5q-1 -1 -2 -1.5t-2 -0.5t-2.5 1.5t-1.5 2.5t0.5 1.5l2.5 2.5q23 23 48 52t61 75q10 14 13.5 18t5.5 6q4 4 7.5 5.5t8.5 1.5q6 0 12 -5.5t6 -11.5q0 -5 -2 -9.5t-7 -9.5q-2 -2 -5.5 -5t-14.5 -12z" />
    <glyph glyph-name="Ocircumflex" unicode="&#xd4;" horiz-adv-x="794" 
d="M43 0zM646 95q-51 -50 -116 -77.5t-135 -27.5q-151 0 -251.5 101.5t-100.5 254.5t102.5 255t252.5 102q154 0 253 -101t99 -256q0 -72 -27 -136.5t-77 -114.5zM85 346q0 -152 86.5 -249t219.5 -97q135 0 226 98.5t91 247.5q0 157 -84 252t-222 95q-137 0 -227 -98
t-90 -249zM397 897q-2 2 -4 2t-3 -2q-15 -16 -32 -39t-57 -83q-8 -11 -14 -15t-13 -4q-8 0 -13 3.5t-5 9.5t5 13.5t16 18.5q47 46 69 66t43 39q2 1 5 1t4 -1q15 -12 30.5 -25.5t43.5 -37.5q18 -17 27 -24.5t16 -13.5q11 -9 16 -16.5t5 -13.5t-5 -11t-12 -5q-8 0 -14 4
t-16 17q-33 46 -54 72t-38 45z" />
    <glyph glyph-name="Otilde" unicode="&#xd5;" horiz-adv-x="794" 
d="M43 0zM646 95q-51 -50 -116 -77.5t-135 -27.5q-151 0 -251.5 101.5t-100.5 254.5t102.5 255t252.5 102q154 0 253 -101t99 -256q0 -72 -27 -136.5t-77 -114.5zM85 346q0 -152 86.5 -249t219.5 -97q135 0 226 98.5t91 247.5q0 157 -84 252t-222 95q-137 0 -227 -98
t-90 -249zM266 777q-2 -4 -5.5 -2t-0.5 6q25 42 40.5 56.5t35.5 14.5q14 0 29.5 -3.5t44.5 -13.5q28 -10 42 -13t27 -3q19 0 32 13t24 42q2 3 5.5 1.5t1.5 -6.5q-21 -42 -40 -60t-42 -18q-13 0 -27.5 3t-41.5 14q-27 10 -41 13t-26 3q-18 0 -32.5 -12t-25.5 -35z" />
    <glyph glyph-name="Odieresis" unicode="&#xd6;" horiz-adv-x="794" 
d="M43 0zM646 95q-51 -50 -116 -77.5t-135 -27.5q-151 0 -251.5 101.5t-100.5 254.5t102.5 255t252.5 102q154 0 253 -101t99 -256q0 -72 -27 -136.5t-77 -114.5zM85 346q0 -152 86.5 -249t219.5 -97q135 0 226 98.5t91 247.5q0 157 -84 252t-222 95q-137 0 -227 -98
t-90 -249zM496 810q-12 0 -21 9t-9 21t9 21t21 9t21 -9t9 -21t-9 -21t-21 -9zM298 810q-12 0 -21 9t-9 21t9 21t21 9t21 -9t9 -21t-9 -21t-21 -9z" />
    <glyph glyph-name="multiply" unicode="&#xd7;" 
d="M358 415q-11 -11 -35 -35.5t-37 -37.5l-1 -1v0q39 -39 75.5 -72t70.5 -60q0 -5 -4.5 -10t-13.5 -10q-11 16 -26.5 33t-38.5 41q-10 10 -34 33.5t-37 36.5q-58 -58 -88 -90.5t-50 -59.5q-5 1 -11 5.5t-12 13.5q33 26 69.5 59.5t82.5 79.5q-24 24 -49.5 47.5t-94.5 83.5
q-1 4 4 10t12 11q18 -23 41 -47.5t95 -95.5h1q13 14 47.5 50.5t89.5 96.5q6 0 11 -4t9 -11q-16 -11 -33.5 -27t-42.5 -40z" />
    <glyph glyph-name="Oslash" unicode="&#xd8;" horiz-adv-x="794" 
d="M646 95q-51 -50 -116 -77.5t-135 -27.5q-56 0 -108 16t-97 46q-26 -35 -38.5 -51.5t-23.5 -30.5q-13 -5 -17 -3.5t-8 7.5q30 38 47.5 60.5t23.5 29.5q-63 50 -97 123t-34 159q0 153 102.5 255t252.5 102q60 0 114 -17t99 -49q23 32 35 48t22 29q8 1 13 -1.5t9 -9.5
q-19 -25 -34 -44t-28 -35q58 -49 90 -121.5t32 -156.5q0 -72 -27 -136.5t-77 -114.5zM402 693q-137 0 -227 -98t-90 -249q0 -80 26.5 -148.5t75.5 -116.5q17 22 99.5 126.5t112.5 143.5q26 35 60.5 81t140.5 190q-40 35 -90 53t-108 18zM202 68q39 -33 87 -50.5t102 -17.5
q135 0 226 98.5t91 247.5q0 80 -24 147t-69 115q-112 -143 -145.5 -186.5t-59.5 -78.5q-70 -92 -119 -156.5t-89 -118.5z" />
    <glyph glyph-name="Ugrave" unicode="&#xd9;" horiz-adv-x="665" 
d="M15 0zM337 -10q-123 0 -186.5 74t-63.5 218v262q0 35 -0.5 54.5t-1.5 32.5q-2 32 -10.5 42.5t-39.5 10.5h-14q-6 0 -6 4.5t6 4.5q8 0 20 -0.5t35 -1.5q16 -1 22 -1h9h9t22 1q26 1 38 1.5t21 0.5q6 0 6 -4.5t-6 -4.5h-18q-32 0 -40.5 -10.5t-11.5 -41.5q-1 -13 -2 -33
t-1 -55l-1 -235q0 -150 57.5 -223.5t174.5 -73.5q105 0 158.5 74t53.5 218v250q0 42 -3.5 66t-12.5 37q-9 15 -27 21t-69 6h-9q-6 0 -6 4.5t6 4.5q9 0 26 -0.5t55 -1.5q25 -1 34 -1h12h8.5t19.5 1l33 1.5t19 0.5q6 0 6 -4.5t-6 -4.5h-7q-33 0 -44 -10t-16 -35
q-2 -14 -3.5 -34.5t-1.5 -50.5v-250q0 -154 -62 -234t-182 -80zM383 750q-1 0 -2 0.5t-2 1.5q-25 25 -54 50.5t-74 60.5q-11 9 -14.5 12t-5.5 5q-5 5 -7 9.5t-2 9.5q0 6 6 11.5t12 5.5q5 0 8.5 -1.5t7.5 -5.5q2 -2 5.5 -6t13.5 -18q36 -46 61 -75t48 -52l2.5 -2.5t0.5 -1.5
t-1.5 -2.5t-2.5 -1.5z" />
    <glyph glyph-name="Uacute" unicode="&#xda;" horiz-adv-x="665" 
d="M15 0zM337 -10q-123 0 -186.5 74t-63.5 218v262q0 35 -0.5 54.5t-1.5 32.5q-2 32 -10.5 42.5t-39.5 10.5h-14q-6 0 -6 4.5t6 4.5q8 0 20 -0.5t35 -1.5q16 -1 22 -1h9h9t22 1q26 1 38 1.5t21 0.5q6 0 6 -4.5t-6 -4.5h-18q-32 0 -40.5 -10.5t-11.5 -41.5q-1 -13 -2 -33
t-1 -55l-1 -235q0 -150 57.5 -223.5t174.5 -73.5q105 0 158.5 74t53.5 218v250q0 42 -3.5 66t-12.5 37q-9 15 -27 21t-69 6h-9q-6 0 -6 4.5t6 4.5q9 0 26 -0.5t55 -1.5q25 -1 34 -1h12h8.5t19.5 1l33 1.5t19 0.5q6 0 6 -4.5t-6 -4.5h-7q-33 0 -44 -10t-16 -35
q-2 -14 -3.5 -34.5t-1.5 -50.5v-250q0 -154 -62 -234t-182 -80zM437 863q-45 -35 -74 -60.5t-54 -50.5q-1 -1 -2 -1.5t-2 -0.5t-2.5 1.5t-1.5 2.5t0.5 1.5l2.5 2.5q23 23 48 52t61 75q10 14 13.5 18t5.5 6q4 4 7.5 5.5t8.5 1.5q6 0 12 -5.5t6 -11.5q0 -5 -2 -9.5t-7 -9.5
q-2 -2 -5.5 -5t-14.5 -12z" />
    <glyph glyph-name="Ucircumflex" unicode="&#xdb;" horiz-adv-x="665" 
d="M15 0zM337 -10q-123 0 -186.5 74t-63.5 218v262q0 35 -0.5 54.5t-1.5 32.5q-2 32 -10.5 42.5t-39.5 10.5h-14q-6 0 -6 4.5t6 4.5q8 0 20 -0.5t35 -1.5q16 -1 22 -1h9h9t22 1q26 1 38 1.5t21 0.5q6 0 6 -4.5t-6 -4.5h-18q-32 0 -40.5 -10.5t-11.5 -41.5q-1 -13 -2 -33
t-1 -55l-1 -235q0 -150 57.5 -223.5t174.5 -73.5q105 0 158.5 74t53.5 218v250q0 42 -3.5 66t-12.5 37q-9 15 -27 21t-69 6h-9q-6 0 -6 4.5t6 4.5q9 0 26 -0.5t55 -1.5q25 -1 34 -1h12h8.5t19.5 1l33 1.5t19 0.5q6 0 6 -4.5t-6 -4.5h-7q-33 0 -44 -10t-16 -35
q-2 -14 -3.5 -34.5t-1.5 -50.5v-250q0 -154 -62 -234t-182 -80zM344 897q-2 2 -4 2t-3 -2q-15 -16 -32 -39t-57 -83q-8 -11 -14 -15t-13 -4q-8 0 -13 3.5t-5 9.5t5 13.5t16 18.5q47 46 69 66t43 39q2 1 5 1t4 -1q15 -12 30.5 -25.5t43.5 -37.5q18 -17 27 -24.5t16 -13.5
q11 -9 16 -16.5t5 -13.5t-5 -11t-12 -5q-8 0 -14 4t-16 17q-33 46 -54 72t-38 45z" />
    <glyph glyph-name="Udieresis" unicode="&#xdc;" horiz-adv-x="665" 
d="M15 0zM337 -10q-123 0 -186.5 74t-63.5 218v262q0 35 -0.5 54.5t-1.5 32.5q-2 32 -10.5 42.5t-39.5 10.5h-14q-6 0 -6 4.5t6 4.5q8 0 20 -0.5t35 -1.5q16 -1 22 -1h9h9t22 1q26 1 38 1.5t21 0.5q6 0 6 -4.5t-6 -4.5h-18q-32 0 -40.5 -10.5t-11.5 -41.5q-1 -13 -2 -33
t-1 -55l-1 -235q0 -150 57.5 -223.5t174.5 -73.5q105 0 158.5 74t53.5 218v250q0 42 -3.5 66t-12.5 37q-9 15 -27 21t-69 6h-9q-6 0 -6 4.5t6 4.5q9 0 26 -0.5t55 -1.5q25 -1 34 -1h12h8.5t19.5 1l33 1.5t19 0.5q6 0 6 -4.5t-6 -4.5h-7q-33 0 -44 -10t-16 -35
q-2 -14 -3.5 -34.5t-1.5 -50.5v-250q0 -154 -62 -234t-182 -80zM443 810q-12 0 -21 9t-9 21t9 21t21 9t21 -9t9 -21t-9 -21t-21 -9zM245 810q-12 0 -21 9t-9 21t9 21t21 9t21 -9t9 -21t-9 -21t-21 -9z" />
    <glyph glyph-name="Yacute" unicode="&#xdd;" horiz-adv-x="593" 
d="M0 0zM383 9h18q6 0 6 -4.5t-6 -4.5q-8 0 -20 0.5t-37 1.5q-16 1 -22.5 1h-9.5h-9t-22 -1q-26 -1 -38 -1.5t-21 -0.5q-6 0 -6 4.5t6 4.5h18q31 0 39.5 7.5t11.5 28.5q2 11 2.5 27.5t0.5 46.5v203l-145 240q-50 84 -73.5 103t-63.5 19h-8q-3 0 -5 1t-2 3t1.5 3.5t4.5 1.5
q9 0 23.5 -0.5t46.5 -1.5q21 -1 28.5 -1h10.5h10.5t29.5 1q32 1 47 1.5t24 0.5q6 0 6 -4.5t-7 -4.5h-17q-46 0 -57.5 -9t-2.5 -33q5 -13 15 -32t31 -53l131 -216l144 250q27 46 16 70t-58 24q-7 0 -14 -0.5t-16 -2.5q-4 -1 -5.5 -1h-2.5q-3 0 -5 1.5t-2 4.5t3 4.5t9 1.5
h17.5t46.5 -1q33 -1 45 -1h16h9t23 1q25 1 37 1h20q6 0 5 -4.5t-6 -4.5h-3q-45 0 -67.5 -18t-56.5 -78l-148 -258v-211q0 -30 0.5 -46.5t2.5 -27.5q3 -21 11.5 -28.5t39.5 -7.5zM411 863q-45 -35 -74 -60.5t-54 -50.5q-1 -1 -2 -1.5t-2 -0.5t-2.5 1.5t-1.5 2.5t0.5 1.5
l2.5 2.5q23 23 48 52t61 75q10 14 13.5 18t5.5 6q4 4 7.5 5.5t8.5 1.5q6 0 12 -5.5t6 -11.5q0 -5 -2 -9.5t-7 -9.5q-2 -2 -5.5 -5t-14.5 -12z" />
    <glyph glyph-name="Thorn" unicode="&#xde;" horiz-adv-x="599" 
d="M89 66q1 15 1.5 36t0.5 57v375q0 36 -0.5 57t-1.5 36q-3 34 -11.5 45.5t-40.5 11.5h-13q-6 0 -6 4.5t6 4.5q8 0 20 -0.5t35 -1.5q16 -1 22 -1h9h9t22 1q26 1 38.5 1.5t21.5 0.5q6 0 6 -4.5t-6 -4.5h-20q-32 0 -40.5 -10.5t-11.5 -41.5q-1 -13 -1.5 -33t-0.5 -54
q54 1 88.5 1.5t63.5 0.5q138 0 212.5 -50t74.5 -142q0 -93 -76.5 -149.5t-204.5 -56.5h-22t-39 1q-37 1 -57.5 1h-39.5q0 -34 0.5 -54.5t1.5 -34.5q3 -31 11.5 -42t40.5 -11h20q6 0 6 -4.5t-6 -4.5q-9 0 -21.5 0.5t-38.5 1.5q-16 1 -22 1h-9h-9t-22 -1q-23 -1 -35 -1.5
t-20 -0.5q-6 0 -6 4.5t6 4.5h13q32 0 40.5 11.5t11.5 45.5zM524 356q0 91 -63 136t-189 45h-145v-3v-374h144q120 0 186.5 52t66.5 144z" />
    <glyph glyph-name="germandbls" unicode="&#xdf;" horiz-adv-x="567" 
d="M380 525q-47 -39 -61.5 -62.5t-14.5 -48.5q0 -31 21.5 -57.5t93.5 -67.5q80 -47 105.5 -80t25.5 -73q0 -57 -38.5 -100.5t-94.5 -43.5q-28 0 -53.5 5.5t-47.5 16.5q-29 14 -48 35t-19 37q0 8 5 12t15 4q14 0 21.5 -3.5t11.5 -11.5q2 -3 8.5 -20t13.5 -27q8 -11 18.5 -19
t24.5 -13q10 -3 23.5 -5t28.5 -2q46 0 76.5 31t30.5 79q0 41 -24.5 73t-103.5 76q-73 41 -95 69t-22 63q0 33 16.5 61.5t69.5 72.5q48 41 62.5 65t14.5 51q0 54 -36.5 89t-96.5 35q-90 0 -143.5 -74t-53.5 -200v-432q0 -36 11 -43.5t63 -7.5q6 0 6 -4.5t-6 -4.5h-21t-37 1
q-16 1 -22.5 1h-9.5h-8.5t-18.5 -1q-20 -1 -30.5 -1h-19.5q-6 0 -6 4.5t6 4.5q35 0 46.5 7.5t11.5 43.5v412v7h-55q-8 0 -10 1t-2 4l11 15h57q7 127 79 205t178 78q61 0 96.5 -31t35.5 -84q0 -35 -17.5 -65.5t-71.5 -76.5z" />
    <glyph glyph-name="agrave" unicode="&#xe0;" horiz-adv-x="511" 
d="M32 0zM296 54q-35 -32 -68.5 -48.5t-61.5 -16.5q-58 0 -96 33t-38 82q0 59 50.5 104t164.5 88l148 55q-2 80 -33.5 115t-100.5 35q-23 0 -43 -5t-42 -15q-21 -10 -38 -28t-30 -43q-10 -20 -18 -26t-23 -6q-11 0 -16 4t-5 12q0 9 5.5 17.5t20.5 21.5q33 30 87.5 53.5
t102.5 23.5q80 0 124.5 -43t44.5 -119q0 -24 -0.5 -54.5t-3.5 -93.5q-2 -57 -2.5 -82.5t-0.5 -44.5q0 -30 8 -46t23 -16q18 0 39.5 21.5t29.5 46.5q2 7 9 3t3 -11q-20 -31 -49.5 -56t-50.5 -25q-26 0 -38.5 17.5t-12.5 53.5q0 20 1.5 56t3.5 54q-10 -22 -37 -55.5t-57 -61.5
zM71 124q0 -50 33.5 -81.5t85.5 -31.5q25 0 55.5 17t63.5 49q29 29 53.5 62t28.5 49q1 10 2.5 64t1.5 85v3v3l-151 -57q-92 -35 -132.5 -74t-40.5 -88zM292 557q-1 0 -2 0.5t-2 1.5q-25 25 -54 50.5t-74 60.5q-11 9 -14.5 12t-5.5 5q-5 5 -7 9.5t-2 9.5q0 6 6 11.5t12 5.5
q5 0 8.5 -1.5t7.5 -5.5q2 -2 5.5 -6t13.5 -18q36 -46 61 -75t48 -52l2.5 -2.5t0.5 -1.5t-1.5 -2.5t-2.5 -1.5z" />
    <glyph glyph-name="aacute" unicode="&#xe1;" horiz-adv-x="511" 
d="M32 0zM296 54q-35 -32 -68.5 -48.5t-61.5 -16.5q-58 0 -96 33t-38 82q0 59 50.5 104t164.5 88l148 55q-2 80 -33.5 115t-100.5 35q-23 0 -43 -5t-42 -15q-21 -10 -38 -28t-30 -43q-10 -20 -18 -26t-23 -6q-11 0 -16 4t-5 12q0 9 5.5 17.5t20.5 21.5q33 30 87.5 53.5
t102.5 23.5q80 0 124.5 -43t44.5 -119q0 -24 -0.5 -54.5t-3.5 -93.5q-2 -57 -2.5 -82.5t-0.5 -44.5q0 -30 8 -46t23 -16q18 0 39.5 21.5t29.5 46.5q2 7 9 3t3 -11q-20 -31 -49.5 -56t-50.5 -25q-26 0 -38.5 17.5t-12.5 53.5q0 20 1.5 56t3.5 54q-10 -22 -37 -55.5t-57 -61.5
zM71 124q0 -50 33.5 -81.5t85.5 -31.5q25 0 55.5 17t63.5 49q29 29 53.5 62t28.5 49q1 10 2.5 64t1.5 85v3v3l-151 -57q-92 -35 -132.5 -74t-40.5 -88zM346 670q-45 -35 -74 -60.5t-54 -50.5q-1 -1 -2 -1.5t-2 -0.5t-2.5 1.5t-1.5 2.5t0.5 1.5l2.5 2.5q23 23 48 52t61 75
q10 14 13.5 18t5.5 6q4 4 7.5 5.5t8.5 1.5q6 0 12 -5.5t6 -11.5q0 -5 -2 -9.5t-7 -9.5q-2 -2 -5.5 -5t-14.5 -12z" />
    <glyph glyph-name="acircumflex" unicode="&#xe2;" horiz-adv-x="511" 
d="M32 0zM296 54q-35 -32 -68.5 -48.5t-61.5 -16.5q-58 0 -96 33t-38 82q0 59 50.5 104t164.5 88l148 55q-2 80 -33.5 115t-100.5 35q-23 0 -43 -5t-42 -15q-21 -10 -38 -28t-30 -43q-10 -20 -18 -26t-23 -6q-11 0 -16 4t-5 12q0 9 5.5 17.5t20.5 21.5q33 30 87.5 53.5
t102.5 23.5q80 0 124.5 -43t44.5 -119q0 -24 -0.5 -54.5t-3.5 -93.5q-2 -57 -2.5 -82.5t-0.5 -44.5q0 -30 8 -46t23 -16q18 0 39.5 21.5t29.5 46.5q2 7 9 3t3 -11q-20 -31 -49.5 -56t-50.5 -25q-26 0 -38.5 17.5t-12.5 53.5q0 20 1.5 56t3.5 54q-10 -22 -37 -55.5t-57 -61.5
zM71 124q0 -50 33.5 -81.5t85.5 -31.5q25 0 55.5 17t63.5 49q29 29 53.5 62t28.5 49q1 10 2.5 64t1.5 85v3v3l-151 -57q-92 -35 -132.5 -74t-40.5 -88zM253 704q-2 2 -4 2t-3 -2q-15 -16 -32 -39t-57 -83q-8 -11 -14 -15t-13 -4q-8 0 -13 3.5t-5 9.5t5 13.5t16 18.5
q47 46 69 66t43 39q2 1 5 1t4 -1q15 -12 30.5 -25.5t43.5 -37.5q18 -17 27 -24.5t16 -13.5q11 -9 16 -16.5t5 -13.5t-5 -11t-12 -5q-8 0 -14 4t-16 17q-33 46 -54 72t-38 45z" />
    <glyph glyph-name="atilde" unicode="&#xe3;" horiz-adv-x="511" 
d="M32 0zM296 54q-35 -32 -68.5 -48.5t-61.5 -16.5q-58 0 -96 33t-38 82q0 59 50.5 104t164.5 88l148 55q-2 80 -33.5 115t-100.5 35q-23 0 -43 -5t-42 -15q-21 -10 -38 -28t-30 -43q-10 -20 -18 -26t-23 -6q-11 0 -16 4t-5 12q0 9 5.5 17.5t20.5 21.5q33 30 87.5 53.5
t102.5 23.5q80 0 124.5 -43t44.5 -119q0 -24 -0.5 -54.5t-3.5 -93.5q-2 -57 -2.5 -82.5t-0.5 -44.5q0 -30 8 -46t23 -16q18 0 39.5 21.5t29.5 46.5q2 7 9 3t3 -11q-20 -31 -49.5 -56t-50.5 -25q-26 0 -38.5 17.5t-12.5 53.5q0 20 1.5 56t3.5 54q-10 -22 -37 -55.5t-57 -61.5
zM71 124q0 -50 33.5 -81.5t85.5 -31.5q25 0 55.5 17t63.5 49q29 29 53.5 62t28.5 49q1 10 2.5 64t1.5 85v3v3l-151 -57q-92 -35 -132.5 -74t-40.5 -88zM136 584q-2 -4 -5.5 -2t-0.5 6q25 42 40.5 56.5t35.5 14.5q14 0 29.5 -3.5t44.5 -13.5q28 -10 42 -13t27 -3q19 0 32 13
t24 42q2 3 5.5 1.5t1.5 -6.5q-21 -42 -40 -60t-42 -18q-13 0 -27.5 3t-41.5 14q-27 10 -41 13t-26 3q-18 0 -32.5 -12t-25.5 -35z" />
    <glyph glyph-name="adieresis" unicode="&#xe4;" horiz-adv-x="511" 
d="M32 0zM296 54q-35 -32 -68.5 -48.5t-61.5 -16.5q-58 0 -96 33t-38 82q0 59 50.5 104t164.5 88l148 55q-2 80 -33.5 115t-100.5 35q-23 0 -43 -5t-42 -15q-21 -10 -38 -28t-30 -43q-10 -20 -18 -26t-23 -6q-11 0 -16 4t-5 12q0 9 5.5 17.5t20.5 21.5q33 30 87.5 53.5
t102.5 23.5q80 0 124.5 -43t44.5 -119q0 -24 -0.5 -54.5t-3.5 -93.5q-2 -57 -2.5 -82.5t-0.5 -44.5q0 -30 8 -46t23 -16q18 0 39.5 21.5t29.5 46.5q2 7 9 3t3 -11q-20 -31 -49.5 -56t-50.5 -25q-26 0 -38.5 17.5t-12.5 53.5q0 20 1.5 56t3.5 54q-10 -22 -37 -55.5t-57 -61.5
zM71 124q0 -50 33.5 -81.5t85.5 -31.5q25 0 55.5 17t63.5 49q29 29 53.5 62t28.5 49q1 10 2.5 64t1.5 85v3v3l-151 -57q-92 -35 -132.5 -74t-40.5 -88zM352 627q-12 0 -21 9t-9 21t9 21t21 9t21 -9t9 -21t-9 -21t-21 -9zM154 627q-12 0 -21 9t-9 21t9 21t21 9t21 -9t9 -21
t-9 -21t-21 -9z" />
    <glyph glyph-name="aring" unicode="&#xe5;" horiz-adv-x="511" 
d="M32 0zM296 54q-35 -32 -68.5 -48.5t-61.5 -16.5q-58 0 -96 33t-38 82q0 59 50.5 104t164.5 88l148 55q-2 80 -33.5 115t-100.5 35q-23 0 -43 -5t-42 -15q-21 -10 -38 -28t-30 -43q-10 -20 -18 -26t-23 -6q-11 0 -16 4t-5 12q0 9 5.5 17.5t20.5 21.5q33 30 87.5 53.5
t102.5 23.5q80 0 124.5 -43t44.5 -119q0 -24 -0.5 -54.5t-3.5 -93.5q-2 -57 -2.5 -82.5t-0.5 -44.5q0 -30 8 -46t23 -16q18 0 39.5 21.5t29.5 46.5q2 7 9 3t3 -11q-20 -31 -49.5 -56t-50.5 -25q-26 0 -38.5 17.5t-12.5 53.5q0 20 1.5 56t3.5 54q-10 -22 -37 -55.5t-57 -61.5
zM71 124q0 -50 33.5 -81.5t85.5 -31.5q25 0 55.5 17t63.5 49q29 29 53.5 62t28.5 49q1 10 2.5 64t1.5 85v3v3l-151 -57q-92 -35 -132.5 -74t-40.5 -88zM253 558q-39 0 -65 26t-26 64t26.5 65t64.5 27t65 -27t27 -65q0 -37 -27 -63.5t-65 -26.5zM253 730q-33 0 -56.5 -24
t-23.5 -58q0 -33 23.5 -56.5t56.5 -23.5q34 0 57.5 23.5t23.5 56.5q0 34 -23.5 58t-57.5 24z" />
    <glyph glyph-name="ae" unicode="&#xe6;" horiz-adv-x="874" 
d="M299 58q-36 -34 -70 -51.5t-63 -17.5q-58 0 -96 33t-38 82q0 59 50.5 104t164.5 88l147 54q-2 82 -33 116.5t-103 34.5q-48 0 -91 -25t-62 -65q-10 -20 -18 -26t-23 -6q-11 0 -16 4t-5 12q0 9 5.5 17.5t20.5 21.5q32 30 86.5 53t103.5 23q76 0 119.5 -34t50.5 -100
q37 62 99 98t134 36q78 0 126 -36t48 -85q0 -22 -15 -33.5t-45 -11.5h-334q-6 -23 -9.5 -48t-3.5 -51q0 -101 65 -166t172 -65q95 0 165.5 57t114.5 171q3 6 6 5t1 -7q-26 -70 -65.5 -122.5t-89.5 -83.5q-35 -22 -72 -33t-77 -11q-102 0 -168.5 49.5t-86.5 140.5
q-10 -23 -37 -58t-58 -64zM794 397q0 39 -42 69t-106 30q-73 0 -125.5 -38t-75.5 -107q149 1 208.5 2t92.5 3q15 1 25.5 4.5t14.5 8.5q4 6 6 12.5t2 15.5zM71 124q0 -50 33.5 -81.5t85.5 -31.5q25 0 55.5 17.5t63.5 49.5q28 27 52 59.5t33 53.5v146v6l-150 -57
q-92 -35 -132.5 -74t-40.5 -88z" />
    <glyph glyph-name="ccedilla" unicode="&#xe7;" horiz-adv-x="542" 
d="M279 -10h-2q-106 0 -174.5 67.5t-68.5 172.5q0 116 87 198t201 82q24 0 47.5 -4.5t44.5 -12.5q30 -12 50.5 -29t20.5 -28q0 -7 -8 -13t-16 -6q-7 0 -14 4t-21 18q-33 32 -62.5 43t-67.5 11q-98 0 -162 -69t-64 -180q0 -100 64.5 -164.5t165.5 -64.5q75 0 133.5 40.5
t106.5 127.5q1 3 3 4t4 0t2 -3t-1 -4q-46 -86 -113.5 -136t-144.5 -54q-19 -26 -37.5 -51t-27.5 -39q-1 -2 0 -2.5t3 -0.5q62 6 98.5 -13.5t36.5 -55.5q0 -41 -40.5 -70.5t-95.5 -29.5q-23 0 -37.5 9t-14.5 21q0 7 8 12.5t17 5.5q7 0 13 -3t16 -12q11 -10 19 -13.5t17 -3.5
q28 0 53 18.5t25 45.5q0 37 -37 54.5t-94 8.5q-5 -1 -8 -3.5t-6 -8.5t-5 -7.5t-5 -1.5q-6 0 -6 4.5t6 12.5q13 15 31 39.5t60 83.5z" />
    <glyph glyph-name="egrave" unicode="&#xe8;" horiz-adv-x="515" 
d="M34 0zM439 34q-35 -22 -72 -33t-77 -11q-118 0 -187 66t-69 176q0 116 78.5 197t190.5 81q80 0 127 -35t47 -86q0 -22 -15 -33.5t-45 -11.5h-334q-6 -23 -9.5 -48t-3.5 -51q0 -101 65 -166t172 -65q95 0 165.5 57t114.5 171q3 6 6 5t1 -7q-26 -70 -65.5 -122.5
t-89.5 -83.5zM433 397q0 41 -40 70t-106 29q-73 0 -126 -38t-75 -107q148 1 207 2t93 3q14 1 24.5 4.5t14.5 8.5q4 6 6 12.5t2 15.5zM329 557q-1 0 -2 0.5t-2 1.5q-25 25 -54 50.5t-74 60.5q-11 9 -14.5 12t-5.5 5q-5 5 -7 9.5t-2 9.5q0 6 6 11.5t12 5.5q5 0 8.5 -1.5
t7.5 -5.5q2 -2 5.5 -6t13.5 -18q36 -46 61 -75t48 -52l2.5 -2.5t0.5 -1.5t-1.5 -2.5t-2.5 -1.5z" />
    <glyph glyph-name="eacute" unicode="&#xe9;" horiz-adv-x="515" 
d="M34 0zM439 34q-35 -22 -72 -33t-77 -11q-118 0 -187 66t-69 176q0 116 78.5 197t190.5 81q80 0 127 -35t47 -86q0 -22 -15 -33.5t-45 -11.5h-334q-6 -23 -9.5 -48t-3.5 -51q0 -101 65 -166t172 -65q95 0 165.5 57t114.5 171q3 6 6 5t1 -7q-26 -70 -65.5 -122.5
t-89.5 -83.5zM433 397q0 41 -40 70t-106 29q-73 0 -126 -38t-75 -107q148 1 207 2t93 3q14 1 24.5 4.5t14.5 8.5q4 6 6 12.5t2 15.5zM383 670q-45 -35 -74 -60.5t-54 -50.5q-1 -1 -2 -1.5t-2 -0.5t-2.5 1.5t-1.5 2.5t0.5 1.5l2.5 2.5q23 23 48 52t61 75q10 14 13.5 18t5.5 6
q4 4 7.5 5.5t8.5 1.5q6 0 12 -5.5t6 -11.5q0 -5 -2 -9.5t-7 -9.5q-2 -2 -5.5 -5t-14.5 -12z" />
    <glyph glyph-name="ecircumflex" unicode="&#xea;" horiz-adv-x="515" 
d="M34 0zM439 34q-35 -22 -72 -33t-77 -11q-118 0 -187 66t-69 176q0 116 78.5 197t190.5 81q80 0 127 -35t47 -86q0 -22 -15 -33.5t-45 -11.5h-334q-6 -23 -9.5 -48t-3.5 -51q0 -101 65 -166t172 -65q95 0 165.5 57t114.5 171q3 6 6 5t1 -7q-26 -70 -65.5 -122.5
t-89.5 -83.5zM433 397q0 41 -40 70t-106 29q-73 0 -126 -38t-75 -107q148 1 207 2t93 3q14 1 24.5 4.5t14.5 8.5q4 6 6 12.5t2 15.5zM290 704q-2 2 -4 2t-3 -2q-15 -16 -32 -39t-57 -83q-8 -11 -14 -15t-13 -4q-8 0 -13 3.5t-5 9.5t5 13.5t16 18.5q47 46 69 66t43 39
q2 1 5 1t4 -1q15 -12 30.5 -25.5t43.5 -37.5q18 -17 27 -24.5t16 -13.5q11 -9 16 -16.5t5 -13.5t-5 -11t-12 -5q-8 0 -14 4t-16 17q-33 46 -54 72t-38 45z" />
    <glyph glyph-name="edieresis" unicode="&#xeb;" horiz-adv-x="515" 
d="M34 0zM439 34q-35 -22 -72 -33t-77 -11q-118 0 -187 66t-69 176q0 116 78.5 197t190.5 81q80 0 127 -35t47 -86q0 -22 -15 -33.5t-45 -11.5h-334q-6 -23 -9.5 -48t-3.5 -51q0 -101 65 -166t172 -65q95 0 165.5 57t114.5 171q3 6 6 5t1 -7q-26 -70 -65.5 -122.5
t-89.5 -83.5zM433 397q0 41 -40 70t-106 29q-73 0 -126 -38t-75 -107q148 1 207 2t93 3q14 1 24.5 4.5t14.5 8.5q4 6 6 12.5t2 15.5zM389 627q-12 0 -21 9t-9 21t9 21t21 9t21 -9t9 -21t-9 -21t-21 -9zM191 627q-12 0 -21 9t-9 21t9 21t21 9t21 -9t9 -21t-9 -21t-21 -9z" />
    <glyph glyph-name="igrave" unicode="&#xec;" horiz-adv-x="186" 
d="M0 0zM66 1q-21 -1 -32 -1h-20q-6 0 -6 4.5t6 4.5q41 0 51 9t10 52v342q0 40 -10.5 47t-53.5 -5q-6 -2 -7 2t5 6q27 7 48.5 16.5t44.5 26.5q2 1 5 0.5t3 -2.5v-433q0 -42 10 -51.5t51 -9.5q6 0 6 -4.5t-6 -4.5h-19.5t-30.5 1q-13 1 -18.5 1h-8.5h-8.5t-19.5 -1zM128 557
q-1 0 -2 0.5t-2 1.5q-25 25 -54 50.5t-74 60.5q-11 9 -14.5 12t-5.5 5q-5 5 -7 9.5t-2 9.5q0 6 6 11.5t12 5.5q5 0 8.5 -1.5t7.5 -5.5q2 -2 5.5 -6t13.5 -18q36 -46 61 -75t48 -52l2.5 -2.5t0.5 -1.5t-1.5 -2.5t-2.5 -1.5z" />
    <glyph glyph-name="iacute" unicode="&#xed;" horiz-adv-x="186" 
d="M4 0zM66 1q-21 -1 -32 -1h-20q-6 0 -6 4.5t6 4.5q41 0 51 9t10 52v342q0 40 -10.5 47t-53.5 -5q-6 -2 -7 2t5 6q27 7 48.5 16.5t44.5 26.5q2 1 5 0.5t3 -2.5v-433q0 -42 10 -51.5t51 -9.5q6 0 6 -4.5t-6 -4.5h-19.5t-30.5 1q-13 1 -18.5 1h-8.5h-8.5t-19.5 -1zM182 670
q-45 -35 -74 -60.5t-54 -50.5q-1 -1 -2 -1.5t-2 -0.5t-2.5 1.5t-1.5 2.5t0.5 1.5l2.5 2.5q23 23 48 52t61 75q10 14 13.5 18t5.5 6q4 4 7.5 5.5t8.5 1.5q6 0 12 -5.5t6 -11.5q0 -5 -2 -9.5t-7 -9.5q-2 -2 -5.5 -5t-14.5 -12z" />
    <glyph glyph-name="icircumflex" unicode="&#xee;" horiz-adv-x="186" 
d="M0 0zM66 1q-21 -1 -32 -1h-20q-6 0 -6 4.5t6 4.5q41 0 51 9t10 52v342q0 40 -10.5 47t-53.5 -5q-6 -2 -7 2t5 6q27 7 48.5 16.5t44.5 26.5q2 1 5 0.5t3 -2.5v-433q0 -42 10 -51.5t51 -9.5q6 0 6 -4.5t-6 -4.5h-19.5t-30.5 1q-13 1 -18.5 1h-8.5h-8.5t-19.5 -1zM89 704
q-2 2 -4 2t-3 -2q-15 -16 -32 -39t-57 -83q-8 -11 -14 -15t-13 -4q-8 0 -13 3.5t-5 9.5t5 13.5t16 18.5q47 46 69 66t43 39q2 1 5 1t4 -1q15 -12 30.5 -25.5t43.5 -37.5q18 -17 27 -24.5t16 -13.5q11 -9 16 -16.5t5 -13.5t-5 -11t-12 -5q-8 0 -14 4t-16 17q-33 46 -54 72
t-38 45z" />
    <glyph glyph-name="idieresis" unicode="&#xef;" horiz-adv-x="186" 
d="M0 0zM66 1q-21 -1 -32 -1h-20q-6 0 -6 4.5t6 4.5q41 0 51 9t10 52v342q0 40 -10.5 47t-53.5 -5q-6 -2 -7 2t5 6q27 7 48.5 16.5t44.5 26.5q2 1 5 0.5t3 -2.5v-433q0 -42 10 -51.5t51 -9.5q6 0 6 -4.5t-6 -4.5h-19.5t-30.5 1q-13 1 -18.5 1h-8.5h-8.5t-19.5 -1zM188 627
q-12 0 -21 9t-9 21t9 21t21 9t21 -9t9 -21t-9 -21t-21 -9zM-10 627q-12 0 -21 9t-9 21t9 21t21 9t21 -9t9 -21t-9 -21t-21 -9z" />
    <glyph glyph-name="eth" unicode="&#xf0;" horiz-adv-x="584" 
d="M363 679q87 -75 133.5 -171t46.5 -203q0 -145 -70.5 -230t-188.5 -85q-110 0 -179 69t-69 181q0 54 18.5 101.5t54.5 85.5q37 39 85.5 61t96.5 22q76 0 132 -36t84 -104q-23 104 -61 177t-96 125q-8 -5 -18.5 -10.5l-31.5 -16.5q-41 -22 -59 -32t-31 -17q-6 -1 -9 4.5
t0 12.5q62 27 97.5 43t45.5 21q-32 28 -73.5 53t-96.5 49q-5 2 -3 6.5t7 2.5q48 -19 93 -45t86 -59q24 12 53 28t74 43q6 -1 9.5 -7t-0.5 -11q-30 -12 -63.5 -27t-66.5 -31zM75 257q0 -105 63.5 -180.5t160.5 -75.5q91 0 152.5 73t61.5 187q0 104 -58.5 171.5t-157.5 67.5
q-96 0 -159 -68t-63 -175z" />
    <glyph glyph-name="ntilde" unicode="&#xf1;" horiz-adv-x="562" 
d="M22 0zM65 1q-12 -1 -20 -1h-17q-6 0 -6 4.5t6 4.5q30 0 37.5 16t7.5 94v220q0 35 -11 69t-28 49q-2 2 -2 3.5t2 2.5q16 9 21 12.5t11 9.5q2 2 3 1.5t3 -2.5q16 -18 25.5 -49t10.5 -67q51 72 104.5 107t113.5 35q83 0 126 -54t43 -160v-198q0 -23 1 -37.5t3 -23.5
q3 -16 10.5 -22t33.5 -6q6 0 6 -4.5t-6 -4.5h-6.5t-17.5 1q-21 0 -30.5 0.5t-14.5 0.5h-7.5t-14.5 -1q-16 -1 -25 -1h-18q-6 0 -6 4.5t6 4.5q34 0 42.5 18t8.5 77v188q0 99 -36.5 147t-112.5 48q-54 0 -104.5 -32.5t-98.5 -98.5v-347h52q6 0 6 -4.5t-6 -4.5h-7t-20 1
q-24 0 -34 0.5t-15 0.5h-7t-12 -1zM161 584q-2 -4 -5.5 -2t-0.5 6q25 42 40.5 56.5t35.5 14.5q14 0 29.5 -3.5t44.5 -13.5q28 -10 42 -13t27 -3q19 0 32 13t24 42q2 3 5.5 1.5t1.5 -6.5q-21 -42 -40 -60t-42 -18q-13 0 -27.5 3t-41.5 14q-27 10 -41 13t-26 3
q-18 0 -32.5 -12t-25.5 -35z" />
    <glyph glyph-name="ograve" unicode="&#xf2;" horiz-adv-x="581" 
d="M36 0zM546 257q0 -110 -75.5 -188.5t-186.5 -78.5q-110 0 -179 69t-69 181t76 191t188 79q110 0 178 -69.5t68 -183.5zM72 257q0 -106 65 -181t162 -75q90 0 150.5 67.5t60.5 172.5q0 113 -61.5 186t-160.5 73q-92 0 -154 -69t-62 -174zM328 557q-1 0 -2 0.5t-2 1.5
q-25 25 -54 50.5t-74 60.5q-11 9 -14.5 12t-5.5 5q-5 5 -7 9.5t-2 9.5q0 6 6 11.5t12 5.5q5 0 8.5 -1.5t7.5 -5.5q2 -2 5.5 -6t13.5 -18q36 -46 61 -75t48 -52l2.5 -2.5t0.5 -1.5t-1.5 -2.5t-2.5 -1.5z" />
    <glyph glyph-name="oacute" unicode="&#xf3;" horiz-adv-x="581" 
d="M36 0zM546 257q0 -110 -75.5 -188.5t-186.5 -78.5q-110 0 -179 69t-69 181t76 191t188 79q110 0 178 -69.5t68 -183.5zM72 257q0 -106 65 -181t162 -75q90 0 150.5 67.5t60.5 172.5q0 113 -61.5 186t-160.5 73q-92 0 -154 -69t-62 -174zM382 670q-45 -35 -74 -60.5
t-54 -50.5q-1 -1 -2 -1.5t-2 -0.5t-2.5 1.5t-1.5 2.5t0.5 1.5l2.5 2.5q23 23 48 52t61 75q10 14 13.5 18t5.5 6q4 4 7.5 5.5t8.5 1.5q6 0 12 -5.5t6 -11.5q0 -5 -2 -9.5t-7 -9.5q-2 -2 -5.5 -5t-14.5 -12z" />
    <glyph glyph-name="ocircumflex" unicode="&#xf4;" horiz-adv-x="581" 
d="M36 0zM546 257q0 -110 -75.5 -188.5t-186.5 -78.5q-110 0 -179 69t-69 181t76 191t188 79q110 0 178 -69.5t68 -183.5zM72 257q0 -106 65 -181t162 -75q90 0 150.5 67.5t60.5 172.5q0 113 -61.5 186t-160.5 73q-92 0 -154 -69t-62 -174zM289 704q-2 2 -4 2t-3 -2
q-15 -16 -32 -39t-57 -83q-8 -11 -14 -15t-13 -4q-8 0 -13 3.5t-5 9.5t5 13.5t16 18.5q47 46 69 66t43 39q2 1 5 1t4 -1q15 -12 30.5 -25.5t43.5 -37.5q18 -17 27 -24.5t16 -13.5q11 -9 16 -16.5t5 -13.5t-5 -11t-12 -5q-8 0 -14 4t-16 17q-33 46 -54 72t-38 45z" />
    <glyph glyph-name="otilde" unicode="&#xf5;" horiz-adv-x="581" 
d="M36 0zM546 257q0 -110 -75.5 -188.5t-186.5 -78.5q-110 0 -179 69t-69 181t76 191t188 79q110 0 178 -69.5t68 -183.5zM72 257q0 -106 65 -181t162 -75q90 0 150.5 67.5t60.5 172.5q0 113 -61.5 186t-160.5 73q-92 0 -154 -69t-62 -174zM158 584q-2 -4 -5.5 -2t-0.5 6
q25 42 40.5 56.5t35.5 14.5q14 0 29.5 -3.5t44.5 -13.5q28 -10 42 -13t27 -3q19 0 32 13t24 42q2 3 5.5 1.5t1.5 -6.5q-21 -42 -40 -60t-42 -18q-13 0 -27.5 3t-41.5 14q-27 10 -41 13t-26 3q-18 0 -32.5 -12t-25.5 -35z" />
    <glyph glyph-name="odieresis" unicode="&#xf6;" horiz-adv-x="581" 
d="M36 0zM546 257q0 -110 -75.5 -188.5t-186.5 -78.5q-110 0 -179 69t-69 181t76 191t188 79q110 0 178 -69.5t68 -183.5zM72 257q0 -106 65 -181t162 -75q90 0 150.5 67.5t60.5 172.5q0 113 -61.5 186t-160.5 73q-92 0 -154 -69t-62 -174zM388 627q-12 0 -21 9t-9 21t9 21
t21 9t21 -9t9 -21t-9 -21t-21 -9zM190 627q-12 0 -21 9t-9 21t9 21t21 9t21 -9t9 -21t-9 -21t-21 -9z" />
    <glyph glyph-name="divide" unicode="&#xf7;" 
d="M318 473q0 -15 -11.5 -26.5t-26.5 -11.5q-16 0 -27 11t-11 27t11 27t27 11q15 0 26.5 -11.5t11.5 -26.5zM277 341q38 0 70.5 1t100.5 5q5 -4 5 -12.5t-5 -11.5q-65 5 -97 6t-73 1t-73 -1t-97 -6q-5 3 -5 11.5t5 12.5q69 -4 100.5 -5t68.5 -1zM318 199q0 -15 -11.5 -26.5
t-26.5 -11.5q-16 0 -27 11t-11 27t11 27t27 11q15 0 26.5 -11.5t11.5 -26.5z" />
    <glyph glyph-name="oslash" unicode="&#xf8;" horiz-adv-x="581" 
d="M139 31q-8 -12 -18 -25.5t-22 -30.5q-1 0 -5 -1t-6 -1q-2 1 -3.5 2t-5.5 5q8 11 17.5 23.5l28.5 37.5q-43 33 -66 85t-23 114q0 112 76 191t188 79q41 0 77 -10.5t66 -30.5q17 24 27 38.5t14 19.5q6 1 9 0.5t9 -6.5l-46 -61q44 -34 67 -86.5t23 -116.5
q0 -110 -75.5 -188.5t-186.5 -78.5q-41 0 -78 10.5t-67 30.5zM288 500q-92 0 -154 -69t-62 -174q0 -53 19.5 -103.5t53.5 -86.5q58 75 87 113.5t54 71.5q25 34 53 73t89 124q-28 25 -63.5 38t-76.5 13zM157 55q30 -27 66 -40.5t76 -13.5q90 0 150.5 67.5t60.5 172.5
q0 59 -18.5 109.5t-52.5 86.5q-58 -77 -94 -125t-49 -67l-72 -98t-67 -92z" />
    <glyph glyph-name="ugrave" unicode="&#xf9;" horiz-adv-x="561" 
d="M0 0zM248 -10q-89 0 -134 51t-45 152v219q0 40 -10.5 47t-53.5 -5q-6 -2 -7 2t5 6q27 7 48.5 16.5t44.5 26.5q2 1 5 0.5t3 -2.5v-306q0 -87 42 -134t117 -47q56 0 105 31t87 91v274q0 40 -10.5 47t-53.5 -5q-6 -2 -7 2t5 6q27 7 48.5 16.5t44.5 26.5q2 1 5 0.5t3 -2.5
v-434q0 -41 9.5 -50.5t43.5 -9.5q5 0 5 -4.5t-5 -4.5q-34 0 -51 -1.5t-37 -7.5q-3 -1 -6 0.5t-2 4.5q5 15 6.5 38.5t1.5 71.5v19q-41 -63 -97 -99t-110 -36zM315 557q-1 0 -2 0.5t-2 1.5q-25 25 -54 50.5t-74 60.5q-11 9 -14.5 12t-5.5 5q-5 5 -7 9.5t-2 9.5q0 6 6 11.5
t12 5.5q5 0 8.5 -1.5t7.5 -5.5q2 -2 5.5 -6t13.5 -18q36 -46 61 -75t48 -52l2.5 -2.5t0.5 -1.5t-1.5 -2.5t-2.5 -1.5z" />
    <glyph glyph-name="uacute" unicode="&#xfa;" horiz-adv-x="561" 
d="M0 0zM248 -10q-89 0 -134 51t-45 152v219q0 40 -10.5 47t-53.5 -5q-6 -2 -7 2t5 6q27 7 48.5 16.5t44.5 26.5q2 1 5 0.5t3 -2.5v-306q0 -87 42 -134t117 -47q56 0 105 31t87 91v274q0 40 -10.5 47t-53.5 -5q-6 -2 -7 2t5 6q27 7 48.5 16.5t44.5 26.5q2 1 5 0.5t3 -2.5
v-434q0 -41 9.5 -50.5t43.5 -9.5q5 0 5 -4.5t-5 -4.5q-34 0 -51 -1.5t-37 -7.5q-3 -1 -6 0.5t-2 4.5q5 15 6.5 38.5t1.5 71.5v19q-41 -63 -97 -99t-110 -36zM369 670q-45 -35 -74 -60.5t-54 -50.5q-1 -1 -2 -1.5t-2 -0.5t-2.5 1.5t-1.5 2.5t0.5 1.5l2.5 2.5q23 23 48 52
t61 75q10 14 13.5 18t5.5 6q4 4 7.5 5.5t8.5 1.5q6 0 12 -5.5t6 -11.5q0 -5 -2 -9.5t-7 -9.5q-2 -2 -5.5 -5t-14.5 -12z" />
    <glyph glyph-name="ucircumflex" unicode="&#xfb;" horiz-adv-x="561" 
d="M0 0zM248 -10q-89 0 -134 51t-45 152v219q0 40 -10.5 47t-53.5 -5q-6 -2 -7 2t5 6q27 7 48.5 16.5t44.5 26.5q2 1 5 0.5t3 -2.5v-306q0 -87 42 -134t117 -47q56 0 105 31t87 91v274q0 40 -10.5 47t-53.5 -5q-6 -2 -7 2t5 6q27 7 48.5 16.5t44.5 26.5q2 1 5 0.5t3 -2.5
v-434q0 -41 9.5 -50.5t43.5 -9.5q5 0 5 -4.5t-5 -4.5q-34 0 -51 -1.5t-37 -7.5q-3 -1 -6 0.5t-2 4.5q5 15 6.5 38.5t1.5 71.5v19q-41 -63 -97 -99t-110 -36zM276 704q-2 2 -4 2t-3 -2q-15 -16 -32 -39t-57 -83q-8 -11 -14 -15t-13 -4q-8 0 -13 3.5t-5 9.5t5 13.5t16 18.5
q47 46 69 66t43 39q2 1 5 1t4 -1q15 -12 30.5 -25.5t43.5 -37.5q18 -17 27 -24.5t16 -13.5q11 -9 16 -16.5t5 -13.5t-5 -11t-12 -5q-8 0 -14 4t-16 17q-33 46 -54 72t-38 45z" />
    <glyph glyph-name="udieresis" unicode="&#xfc;" horiz-adv-x="561" 
d="M0 0zM248 -10q-89 0 -134 51t-45 152v219q0 40 -10.5 47t-53.5 -5q-6 -2 -7 2t5 6q27 7 48.5 16.5t44.5 26.5q2 1 5 0.5t3 -2.5v-306q0 -87 42 -134t117 -47q56 0 105 31t87 91v274q0 40 -10.5 47t-53.5 -5q-6 -2 -7 2t5 6q27 7 48.5 16.5t44.5 26.5q2 1 5 0.5t3 -2.5
v-434q0 -41 9.5 -50.5t43.5 -9.5q5 0 5 -4.5t-5 -4.5q-34 0 -51 -1.5t-37 -7.5q-3 -1 -6 0.5t-2 4.5q5 15 6.5 38.5t1.5 71.5v19q-41 -63 -97 -99t-110 -36zM375 627q-12 0 -21 9t-9 21t9 21t21 9t21 -9t9 -21t-9 -21t-21 -9zM177 627q-12 0 -21 9t-9 21t9 21t21 9t21 -9
t9 -21t-9 -21t-21 -9z" />
    <glyph glyph-name="yacute" unicode="&#xfd;" horiz-adv-x="537" 
d="M0 0zM53 -199q-36 0 -59.5 11.5t-23.5 25.5q0 12 11 21.5t25 9.5q8 0 17 -3.5t26 -15.5q21 -15 33 -19.5t24 -4.5q37 0 75 41t71 116l11 25l-159 352q-46 99 -62 115.5t-55 15.5q-5 0 -5 4.5t5 4.5h9t28 -1q32 -1 44.5 -1h17.5h7.5t15.5 1q17 1 26.5 1h17.5q6 0 6 -4.5
t-6 -4.5q-30 0 -40.5 -5.5t-10.5 -19.5q0 -11 4.5 -25t21.5 -51l154 -338l153 343q23 51 8.5 73.5t-76.5 22.5q-6 0 -6 4.5t6 4.5q9 0 21.5 -0.5t39.5 -0.5q17 -1 23.5 -1h9.5h16.5t40.5 1q19 1 25 1h8q5 0 5 -4.5t-5 -4.5q-35 1 -58 -21t-49 -81l-182 -408
q-42 -95 -91.5 -137.5t-117.5 -42.5zM368 670q-45 -35 -74 -60.5t-54 -50.5q-1 -1 -2 -1.5t-2 -0.5t-2.5 1.5t-1.5 2.5t0.5 1.5l2.5 2.5q23 23 48 52t61 75q10 14 13.5 18t5.5 6q4 4 7.5 5.5t8.5 1.5q6 0 12 -5.5t6 -11.5q0 -5 -2 -9.5t-7 -9.5q-2 -2 -5.5 -5t-14.5 -12z
" />
    <glyph glyph-name="thorn" unicode="&#xfe;" horiz-adv-x="576" 
d="M537 275q0 -119 -81 -202t-192 -83q-43 0 -82.5 8.5t-72.5 23.5v-285h89q6 0 6 -4.5t-6 -4.5h-10t-34 1q-42 0 -58 0.5t-21 0.5h-8t-18 -1q-19 -1 -29.5 -1h-19.5q-6 0 -6 4.5t6 4.5q52 0 63 18t11 99v845q0 44 -10 56t-54 4q-6 -1 -6 3.5t6 5.5q43 8 59.5 16t28.5 24
q2 3 6.5 2t4.5 -4v-406q51 57 102 83.5t110 26.5q91 0 153.5 -66.5t62.5 -168.5zM503 246q0 103 -56 170t-146 67q-52 0 -99.5 -22.5t-92.5 -69.5v-327q41 -25 89 -38.5t98 -13.5q86 0 146.5 67t60.5 167z" />
    <glyph glyph-name="ydieresis" unicode="&#xff;" horiz-adv-x="537" 
d="M0 0zM53 -199q-36 0 -59.5 11.5t-23.5 25.5q0 12 11 21.5t25 9.5q8 0 17 -3.5t26 -15.5q21 -15 33 -19.5t24 -4.5q37 0 75 41t71 116l11 25l-159 352q-46 99 -62 115.5t-55 15.5q-5 0 -5 4.5t5 4.5h9t28 -1q32 -1 44.5 -1h17.5h7.5t15.5 1q17 1 26.5 1h17.5q6 0 6 -4.5
t-6 -4.5q-30 0 -40.5 -5.5t-10.5 -19.5q0 -11 4.5 -25t21.5 -51l154 -338l153 343q23 51 8.5 73.5t-76.5 22.5q-6 0 -6 4.5t6 4.5q9 0 21.5 -0.5t39.5 -0.5q17 -1 23.5 -1h9.5h16.5t40.5 1q19 1 25 1h8q5 0 5 -4.5t-5 -4.5q-35 1 -58 -21t-49 -81l-182 -408
q-42 -95 -91.5 -137.5t-117.5 -42.5zM374 627q-12 0 -21 9t-9 21t9 21t21 9t21 -9t9 -21t-9 -21t-21 -9zM176 627q-12 0 -21 9t-9 21t9 21t21 9t21 -9t9 -21t-9 -21t-21 -9z" />
    <glyph glyph-name="Amacron" unicode="&#x100;" horiz-adv-x="711" 
d="M0 0zM509 249l-126 -3q-34 0 -109.5 1t-103.5 2l-33 -79q-25 -60 -31.5 -82t-6.5 -36q0 -23 16 -33.5t50 -10.5q5 0 11 0.5t16 1.5q4 1 5.5 1h2.5q3 0 5 -1.5t2 -3.5q0 -3 -3 -4.5t-9 -1.5q-11 0 -28 0.5t-54 0.5q-23 1 -31 1h-12h-8t-17 -1q-20 -1 -29.5 -1h-17.5
q-3 0 -4.5 1.5t-1.5 3.5q0 1 2 2.5t4 1.5h4q17 0 30 7.5t27 26.5q15 20 30.5 51t35.5 80l215 519q1 2 3 2.5t5 0.5h6q3 0 5 -1t3 -3l228 -544q38 -90 57.5 -114.5t56.5 -24.5h8q3 0 5 -1t2 -3t-1.5 -3.5t-4.5 -1.5q-9 0 -22 0.5t-41 1.5q-17 1 -24 1h-10h-10.5t-26.5 -1
q-31 -1 -45 -1.5t-23 -0.5q-6 0 -5.5 4.5t6.5 4.5h41q36 0 34.5 27.5t-36.5 112.5zM173 257l204 1h129l-167 401zM277 763q-5 0 -17.5 -1t-12.5 1q0 5 4 13t11 17h67q36 0 55.5 0.5t39.5 1.5q10 0 20 1t10 -1q0 -5 -4 -13t-11 -17h-83q-32 0 -46.5 -0.5t-32.5 -1.5z" />
    <glyph glyph-name="amacron" unicode="&#x101;" horiz-adv-x="511" 
d="M32 0zM296 54q-35 -32 -68.5 -48.5t-61.5 -16.5q-58 0 -96 33t-38 82q0 59 50.5 104t164.5 88l148 55q-2 80 -33.5 115t-100.5 35q-23 0 -43 -5t-42 -15q-21 -10 -38 -28t-30 -43q-10 -20 -18 -26t-23 -6q-11 0 -16 4t-5 12q0 9 5.5 17.5t20.5 21.5q33 30 87.5 53.5
t102.5 23.5q80 0 124.5 -43t44.5 -119q0 -24 -0.5 -54.5t-3.5 -93.5q-2 -57 -2.5 -82.5t-0.5 -44.5q0 -30 8 -46t23 -16q18 0 39.5 21.5t29.5 46.5q2 7 9 3t3 -11q-20 -31 -49.5 -56t-50.5 -25q-26 0 -38.5 17.5t-12.5 53.5q0 20 1.5 56t3.5 54q-10 -22 -37 -55.5t-57 -61.5
zM71 124q0 -50 33.5 -81.5t85.5 -31.5q25 0 55.5 17t63.5 49q29 29 53.5 62t28.5 49q1 10 2.5 64t1.5 85v3v3l-151 -57q-92 -35 -132.5 -74t-40.5 -88zM180 591q-5 0 -17.5 -1t-12.5 1q0 5 4 13t11 17h67q36 0 55.5 0.5t39.5 1.5q10 0 20 1t10 -1q0 -5 -4 -13t-11 -17h-83
q-32 0 -46.5 -0.5t-32.5 -1.5z" />
    <glyph glyph-name="Abreve" unicode="&#x102;" horiz-adv-x="711" 
d="M0 0zM509 249l-126 -3q-34 0 -109.5 1t-103.5 2l-33 -79q-25 -60 -31.5 -82t-6.5 -36q0 -23 16 -33.5t50 -10.5q5 0 11 0.5t16 1.5q4 1 5.5 1h2.5q3 0 5 -1.5t2 -3.5q0 -3 -3 -4.5t-9 -1.5q-11 0 -28 0.5t-54 0.5q-23 1 -31 1h-12h-8t-17 -1q-20 -1 -29.5 -1h-17.5
q-3 0 -4.5 1.5t-1.5 3.5q0 1 2 2.5t4 1.5h4q17 0 30 7.5t27 26.5q15 20 30.5 51t35.5 80l215 519q1 2 3 2.5t5 0.5h6q3 0 5 -1t3 -3l228 -544q38 -90 57.5 -114.5t56.5 -24.5h8q3 0 5 -1t2 -3t-1.5 -3.5t-4.5 -1.5q-9 0 -22 0.5t-41 1.5q-17 1 -24 1h-10h-10.5t-26.5 -1
q-31 -1 -45 -1.5t-23 -0.5q-6 0 -5.5 4.5t6.5 4.5h41q36 0 34.5 27.5t-36.5 112.5zM173 257l204 1h129l-167 401zM474 837q-18 -44 -49.5 -69t-72.5 -26q-40 0 -73 21.5t-50 58.5q-4 8 -1 14t13 10q9 3 14 1.5t8 -7.5q17 -39 44 -61t56 -22q38 0 61.5 21.5t30.5 62.5
q1 3 3.5 5t6.5 2q5 0 7.5 -3.5t1.5 -7.5z" />
    <glyph glyph-name="abreve" unicode="&#x103;" horiz-adv-x="511" 
d="M32 0zM296 54q-35 -32 -68.5 -48.5t-61.5 -16.5q-58 0 -96 33t-38 82q0 59 50.5 104t164.5 88l148 55q-2 80 -33.5 115t-100.5 35q-23 0 -43 -5t-42 -15q-21 -10 -38 -28t-30 -43q-10 -20 -18 -26t-23 -6q-11 0 -16 4t-5 12q0 9 5.5 17.5t20.5 21.5q33 30 87.5 53.5
t102.5 23.5q80 0 124.5 -43t44.5 -119q0 -24 -0.5 -54.5t-3.5 -93.5q-2 -57 -2.5 -82.5t-0.5 -44.5q0 -30 8 -46t23 -16q18 0 39.5 21.5t29.5 46.5q2 7 9 3t3 -11q-20 -31 -49.5 -56t-50.5 -25q-26 0 -38.5 17.5t-12.5 53.5q0 20 1.5 56t3.5 54q-10 -22 -37 -55.5t-57 -61.5
zM71 124q0 -50 33.5 -81.5t85.5 -31.5q25 0 55.5 17t63.5 49q29 29 53.5 62t28.5 49q1 10 2.5 64t1.5 85v3v3l-151 -57q-92 -35 -132.5 -74t-40.5 -88zM377 665q-18 -44 -49.5 -69t-72.5 -26q-40 0 -73 21.5t-50 58.5q-4 8 -1 14t13 10q9 3 14 1.5t8 -7.5q17 -39 44 -61
t56 -22q38 0 61.5 21.5t30.5 62.5q1 3 3.5 5t6.5 2q5 0 7.5 -3.5t1.5 -7.5z" />
    <glyph glyph-name="Aogonek" unicode="&#x104;" horiz-adv-x="711" 
d="M509 249l-126 -3q-34 0 -109.5 1t-103.5 2l-33 -79q-25 -60 -31.5 -82t-6.5 -36q0 -23 16 -33.5t50 -10.5q5 0 11 0.5t16 1.5q4 1 5.5 1h2.5q3 0 5 -1.5t2 -3.5q0 -3 -3 -4.5t-9 -1.5q-11 0 -28 0.5t-54 0.5q-23 1 -31 1h-12h-8t-17 -1q-20 -1 -29.5 -1h-17.5
q-3 0 -4.5 1.5t-1.5 3.5q0 1 2 2.5t4 1.5h4q17 0 30 7.5t27 26.5q15 20 30.5 51t35.5 80l215 519q1 2 3 2.5t5 0.5h3q5 0 7.5 -1t3.5 -2l228 -544q37 -90 58 -115t56 -25h8q3 0 5 -1t2 -3t-1.5 -3.5t-4.5 -1.5q-9 0 -22 0.5t-41 1.5q-17 1 -24 1h-10q-25 0 -43.5 -5.5
t-34.5 -18.5q-23 -19 -35 -43t-12 -51q0 -33 18 -52.5t48 -19.5q18 0 31.5 4t27.5 15q4 3 -2.5 -15.5t-13.5 -23.5q-8 -7 -22 -10.5t-30 -3.5q-38 0 -60 22.5t-22 59.5t20.5 72t60.5 64q28 21 32.5 27.5t4.5 15.5q0 15 -7 38.5t-26 70.5zM173 257l204 1h129l-167 401z" />
    <glyph glyph-name="aogonek" unicode="&#x105;" horiz-adv-x="511" 
d="M500 -207q-8 -7 -22 -10.5t-30 -3.5q-38 0 -60 22.5t-22 59.5q0 34 19 65t59 65q-1 -1 -2.5 -1h-5.5q-26 0 -38.5 17.5t-12.5 53.5q0 20 1.5 56t3.5 54q-10 -22 -37 -55.5t-57 -61.5q-35 -32 -68.5 -48.5t-61.5 -16.5q-58 0 -96 33t-38 82q0 59 50.5 104t164.5 88l148 55
q-2 81 -33.5 115.5t-103.5 34.5q-22 0 -41.5 -4.5t-41.5 -15.5q-23 -11 -40.5 -29t-29.5 -41q-10 -20 -18 -26t-23 -6q-11 0 -16 4t-5 12q0 9 5.5 17.5t20.5 21.5q32 30 86.5 53t103.5 23q83 0 127.5 -41.5t44.5 -120.5q0 -24 -0.5 -54.5t-3.5 -93.5q-2 -57 -2.5 -82.5
t-0.5 -44.5q0 -30 8 -46t23 -16q18 0 39.5 21.5t29.5 46.5q2 7 9 3t3 -11q-10 -15 -25.5 -32t-30.5 -29q-3 -3 -6.5 -5.5t-11.5 -7.5q-12 -8 -18.5 -13.5t-12.5 -11.5q-21 -21 -30.5 -42t-9.5 -45q0 -33 18 -52.5t48 -19.5q18 0 31.5 4t27.5 15q4 3 -2.5 -15.5t-13.5 -23.5z
M71 124q0 -50 33.5 -81.5t85.5 -31.5q25 0 55.5 17t63.5 49q29 29 53.5 62t28.5 49q1 10 2.5 64t1.5 85v6l-151 -57q-92 -35 -132.5 -74t-40.5 -88z" />
    <glyph glyph-name="Cacute" unicode="&#x106;" horiz-adv-x="754" 
d="M43 0zM432 -11q-172 0 -280.5 99t-108.5 258t108.5 258t280.5 99q59 0 131 -13t112 -31l12 -213q1 -6 -3.5 -7t-5.5 6q-9 94 -18 131t-23 54q-24 29 -80.5 46t-128.5 17q-152 0 -247.5 -95t-95.5 -252t95.5 -252t247.5 -95q72 0 128.5 17t80.5 46q14 17 23.5 56t17.5 129
q1 7 5.5 6t3.5 -7l-12 -213q-40 -18 -112 -31t-131 -13zM515 863q-45 -35 -74 -60.5t-54 -50.5q-1 -1 -2 -1.5t-2 -0.5t-2.5 1.5t-1.5 2.5t0.5 1.5l2.5 2.5q23 23 48 52t61 75q10 14 13.5 18t5.5 6q4 4 7.5 5.5t8.5 1.5q6 0 12 -5.5t6 -11.5q0 -5 -2 -9.5t-7 -9.5
q-2 -2 -5.5 -5t-14.5 -12z" />
    <glyph glyph-name="cacute" unicode="&#x107;" horiz-adv-x="542" 
d="M34 0zM548 180q-48 -89 -119 -139.5t-152 -50.5q-106 0 -174.5 67.5t-68.5 172.5q0 116 87 198t201 82q24 0 47.5 -4.5t44.5 -12.5q30 -12 50.5 -29t20.5 -28q0 -7 -8 -13t-16 -6q-7 0 -14 4t-21 18q-33 32 -62.5 43t-67.5 11q-98 0 -162 -69t-64 -180
q0 -100 64.5 -164.5t165.5 -64.5q75 0 133.5 40.5t106.5 127.5q1 3 3 4t4 0t2 -3t-1 -4zM385 670q-45 -35 -74 -60.5t-54 -50.5q-1 -1 -2 -1.5t-2 -0.5t-2.5 1.5t-1.5 2.5t0.5 1.5l2.5 2.5q23 23 48 52t61 75q10 14 13.5 18t5.5 6q4 4 7.5 5.5t8.5 1.5q6 0 12 -5.5t6 -11.5
q0 -5 -2 -9.5t-7 -9.5q-2 -2 -5.5 -5t-14.5 -12z" />
    <glyph glyph-name="Ccircumflex" unicode="&#x108;" horiz-adv-x="754" 
d="M43 0zM432 -11q-172 0 -280.5 99t-108.5 258t108.5 258t280.5 99q59 0 131 -13t112 -31l12 -213q1 -6 -3.5 -7t-5.5 6q-9 94 -18 131t-23 54q-24 29 -80.5 46t-128.5 17q-152 0 -247.5 -95t-95.5 -252t95.5 -252t247.5 -95q72 0 128.5 17t80.5 46q14 17 23.5 56t17.5 129
q1 7 5.5 6t3.5 -7l-12 -213q-40 -18 -112 -31t-131 -13zM422 897q-2 2 -4 2t-3 -2q-15 -16 -32 -39t-57 -83q-8 -11 -14 -15t-13 -4q-8 0 -13 3.5t-5 9.5t5 13.5t16 18.5q47 46 69 66t43 39q2 1 5 1t4 -1q15 -12 30.5 -25.5t43.5 -37.5q18 -17 27 -24.5t16 -13.5
q11 -9 16 -16.5t5 -13.5t-5 -11t-12 -5q-8 0 -14 4t-16 17q-33 46 -54 72t-38 45z" />
    <glyph glyph-name="ccircumflex" unicode="&#x109;" horiz-adv-x="542" 
d="M34 0zM548 180q-48 -89 -119 -139.5t-152 -50.5q-106 0 -174.5 67.5t-68.5 172.5q0 116 87 198t201 82q24 0 47.5 -4.5t44.5 -12.5q30 -12 50.5 -29t20.5 -28q0 -7 -8 -13t-16 -6q-7 0 -14 4t-21 18q-33 32 -62.5 43t-67.5 11q-98 0 -162 -69t-64 -180
q0 -100 64.5 -164.5t165.5 -64.5q75 0 133.5 40.5t106.5 127.5q1 3 3 4t4 0t2 -3t-1 -4zM292 704q-2 2 -4 2t-3 -2q-15 -16 -32 -39t-57 -83q-8 -11 -14 -15t-13 -4q-8 0 -13 3.5t-5 9.5t5 13.5t16 18.5q47 46 69 66t43 39q2 1 5 1t4 -1q15 -12 30.5 -25.5t43.5 -37.5
q18 -17 27 -24.5t16 -13.5q11 -9 16 -16.5t5 -13.5t-5 -11t-12 -5q-8 0 -14 4t-16 17q-33 46 -54 72t-38 45z" />
    <glyph glyph-name="Cdotaccent" unicode="&#x10a;" horiz-adv-x="754" 
d="M43 0zM432 -11q-172 0 -280.5 99t-108.5 258t108.5 258t280.5 99q59 0 131 -13t112 -31l12 -213q1 -6 -3.5 -7t-5.5 6q-9 94 -18 131t-23 54q-24 29 -80.5 46t-128.5 17q-152 0 -247.5 -95t-95.5 -252t95.5 -252t247.5 -95q72 0 128.5 17t80.5 46q14 17 23.5 56t17.5 129
q1 7 5.5 6t3.5 -7l-12 -213q-40 -18 -112 -31t-131 -13zM422 812q-13 0 -22 9t-9 22t9 22t22 9t22 -9t9 -22t-9 -22t-22 -9z" />
    <glyph glyph-name="cdotaccent" unicode="&#x10b;" horiz-adv-x="542" 
d="M34 0zM548 180q-48 -89 -119 -139.5t-152 -50.5q-106 0 -174.5 67.5t-68.5 172.5q0 116 87 198t201 82q24 0 47.5 -4.5t44.5 -12.5q30 -12 50.5 -29t20.5 -28q0 -7 -8 -13t-16 -6q-7 0 -14 4t-21 18q-33 32 -62.5 43t-67.5 11q-98 0 -162 -69t-64 -180
q0 -100 64.5 -164.5t165.5 -64.5q75 0 133.5 40.5t106.5 127.5q1 3 3 4t4 0t2 -3t-1 -4zM292 639q-13 0 -22 9t-9 22t9 22t22 9t22 -9t9 -22t-9 -22t-22 -9z" />
    <glyph glyph-name="Ccaron" unicode="&#x10c;" horiz-adv-x="754" 
d="M43 0zM432 -11q-172 0 -280.5 99t-108.5 258t108.5 258t280.5 99q59 0 131 -13t112 -31l12 -213q1 -6 -3.5 -7t-5.5 6q-9 94 -18 131t-23 54q-24 29 -80.5 46t-128.5 17q-152 0 -247.5 -95t-95.5 -252t95.5 -252t247.5 -95q72 0 128.5 17t80.5 46q14 17 23.5 56t17.5 129
q1 7 5.5 6t3.5 -7l-12 -213q-40 -18 -112 -31t-131 -13zM422 759q2 -2 4 -2t3 2q15 16 32 39t57 83q8 11 14 15t13 4q8 0 13 -3.5t5 -9.5t-5 -13.5t-16 -18.5q-47 -46 -69 -66t-43 -39q-2 -1 -5 -1t-4 1q-15 12 -30.5 25.5t-43.5 37.5q-18 17 -27 24.5t-16 13.5
q-11 9 -16 16.5t-5 13.5t5 11t12 5q8 0 14 -4t16 -17q33 -46 54 -72t38 -45z" />
    <glyph glyph-name="ccaron" unicode="&#x10d;" horiz-adv-x="542" 
d="M34 0zM548 180q-48 -89 -119 -139.5t-152 -50.5q-106 0 -174.5 67.5t-68.5 172.5q0 116 87 198t201 82q24 0 47.5 -4.5t44.5 -12.5q30 -12 50.5 -29t20.5 -28q0 -7 -8 -13t-16 -6q-7 0 -14 4t-21 18q-33 32 -62.5 43t-67.5 11q-98 0 -162 -69t-64 -180
q0 -100 64.5 -164.5t165.5 -64.5q75 0 133.5 40.5t106.5 127.5q1 3 3 4t4 0t2 -3t-1 -4zM292 566q2 -2 4 -2t3 2q15 16 32 39t57 83q8 11 14 15t13 4q8 0 13 -3.5t5 -9.5t-5 -13.5t-16 -18.5q-47 -46 -69 -66t-43 -39q-2 -1 -5 -1t-4 1q-15 12 -30.5 25.5t-43.5 37.5
q-18 17 -27 24.5t-16 13.5q-11 9 -16 16.5t-5 13.5t5 11t12 5q8 0 14 -4t16 -17q33 -46 54 -72t38 -45z" />
    <glyph glyph-name="Dcaron" unicode="&#x10e;" horiz-adv-x="733" 
d="M8 0zM157 3q-15 0 -50 -0.5t-91 -2.5q-8 0 -8 3.5t8 3.5q48 0 59.5 18.5t14.5 83.5q1 25 1.5 96t0.5 188v200q0 33 -1.5 48t-4.5 23q-5 12 -15.5 16t-47.5 4q-6 0 -6 4.5t6 4.5h10.5t35.5 -1q40 -1 55.5 -1h20.5h14.5t44.5 1q52 1 73.5 1h30.5q168 0 275 -92t107 -245
q0 -162 -103 -259t-275 -97q-7 0 -21.5 0.5t-50.5 0.5q-40 1 -57 1.5t-26 0.5zM314 10q154 0 244 93t90 253q0 150 -95 239t-247 89h-108q-40 0 -51.5 -7t-14.5 -28q-2 -10 -3 -27t-1 -58v-423q0 -50 -2.5 -80.5t-7.5 -46.5q7 0 22.5 -0.5t56.5 -1.5q56 -1 80 -1.5t37 -0.5z
M363 759q2 -2 4 -2t3 2q15 16 32 39t57 83q8 11 14 15t13 4q8 0 13 -3.5t5 -9.5t-5 -13.5t-16 -18.5q-47 -46 -69 -66t-43 -39q-2 -1 -5 -1t-4 1q-15 12 -30.5 25.5t-43.5 37.5q-18 17 -27 24.5t-16 13.5q-11 9 -16 16.5t-5 13.5t5 11t12 5q8 0 14 -4t16 -17q33 -46 54 -72
t38 -45z" />
    <glyph glyph-name="dcaron" unicode="&#x10f;" horiz-adv-x="581" 
d="M36 0zM252 -10q-91 0 -153.5 66.5t-62.5 168.5q0 119 84 202t201 83q44 0 84.5 -18.5t62.5 -47.5v237q0 25 -2 40.5t-6 24.5q-5 12 -16 15t-42 -3q-6 -1 -6 3.5t6 5.5q43 8 59.5 16.5t30.5 26.5q2 2 6.5 1t4.5 -5v-687q0 -47 0.5 -57.5t1.5 -17.5q3 -21 13 -28t41 -7
q6 0 6 -4.5t-6 -4.5q-15 0 -25.5 -0.5t-18.5 -1.5q-10 -1 -23.5 -4t-18.5 -4q-6 -1 -9 1t-3 8v3t1 7q3 29 4.5 52t1.5 45v15q-48 -68 -100 -99.5t-116 -31.5zM288 488q-96 0 -157 -64.5t-61 -169.5q0 -104 56.5 -172t145.5 -68q57 0 105.5 29t90.5 89v265q-40 49 -81.5 70
t-98.5 21zM591 765q-6 11 -8 15.5t-2 7.5q0 7 7.5 16t13.5 9q14 0 24 -27.5t10 -68.5q0 -24 -5 -49t-26 -85q-1 -4 -5.5 -3t-2.5 5q14 43 17.5 60t3.5 36t-5.5 38t-21.5 46z" />
    <glyph glyph-name="Dcroat" unicode="&#x110;" horiz-adv-x="733" 
d="M8 0zM157 3q-15 0 -50 -0.5t-91 -2.5q-8 0 -8 3.5t8 3.5q48 0 59.5 18.5t14.5 83.5q2 49 2.5 113.5t-0.5 122.5q-6 0 -24 -0.5t-50 -2.5q-3 2 -3 11t3 12q28 -1 47 -2t27 -1v15.5v15.5v200q0 33 -1.5 48t-4.5 23q-5 12 -15.5 16t-47.5 4q-6 0 -6 4.5t6 4.5h10.5t35.5 -1
q40 -1 55.5 -1h20.5h14.5t44.5 1q52 1 73.5 1h30.5q168 0 275 -92t107 -245q0 -162 -103 -259t-275 -97q-7 0 -21.5 0.5t-50.5 0.5q-40 1 -57 1.5t-26 0.5zM314 10q154 0 244 93t90 253q0 150 -95 239t-247 89h-108q-40 0 -51.5 -7t-14.5 -28q-2 -10 -3 -27t-1 -58v-203
q10 -1 22.5 -1h34.5q43 0 91.5 1.5t78.5 3.5q3 -3 3 -12t-3 -11q-35 2 -81.5 3.5t-87.5 1.5h-35.5t-22.5 -1v-205q0 -50 -2.5 -80.5t-7.5 -46.5q7 0 22.5 -0.5t56.5 -1.5q56 -1 80 -1.5t37 -0.5z" />
    <glyph glyph-name="dcroat" unicode="&#x111;" horiz-adv-x="596" 
d="M252 -10q-91 0 -153.5 66.5t-62.5 168.5q0 119 84 202t201 83q44 0 84.5 -18.5t62.5 -47.5v178h-3h-3q-40 0 -84 -1.5t-74 -3.5q-3 1 -3 10.5t3 12.5q28 -2 73 -3.5t84 -1.5h3.5h3.5v46q0 25 -2 40.5t-6 24.5q-5 12 -16 15t-42 -3q-6 -1 -6 3.5t6 5.5q43 8 59.5 16.5
t30.5 26.5q2 2 6.5 1t4.5 -5v-171q25 1 51.5 2t46.5 3q3 -3 3 -12.5t-3 -10.5q-23 2 -48.5 3t-49.5 2v-503q0 -47 0.5 -57.5t1.5 -17.5q3 -21 13 -28t41 -7q6 0 6 -4.5t-6 -4.5q-15 0 -25.5 -0.5t-18.5 -1.5q-10 -1 -23.5 -4t-18.5 -4q-6 -1 -9 1t-3 8v3t1 7q3 29 4.5 52
t1.5 45v15q-48 -68 -100 -99.5t-116 -31.5zM288 488q-96 0 -157 -64.5t-61 -169.5q0 -104 56.5 -172t145.5 -68q57 0 105.5 29t90.5 89v265q-40 49 -81.5 70t-98.5 21z" />
    <glyph glyph-name="Emacron" unicode="&#x112;" horiz-adv-x="618" 
d="M13 0zM65 1q-16 0 -24.5 -0.5t-15.5 -0.5t-7 4.5t7 4.5q42 0 52.5 11.5t12.5 62.5q1 91 1 261v192q0 36 -0.5 57t-1.5 35q-3 33 -11 44.5t-41 11.5h-18q-6 0 -6 4.5t6 4.5q8 0 22.5 -0.5t46.5 -1.5q21 -1 28.5 -1h10.5h23.5t89.5 1q130 1 180.5 1.5t61.5 0.5
q18 0 30.5 -1t16.5 -3t11 -44.5t13 -99.5l4 -36q1 -5 -4 -5t-6 5l-5 36q-11 76 -42 106t-113 30h-219q-22 0 -30.5 -7.5t-9.5 -28.5q-1 -10 -1 -35v-29v-216h187q52 0 72 27t20 88v21q0 6 5 6t5 -6q0 -9 -0.5 -27.5t-2.5 -63.5q-1 -28 -1.5 -38t-0.5 -13q0 -4 0.5 -17
t1.5 -50q2 -38 2.5 -52t0.5 -18q0 -6 -5 -6t-5 6v15q0 62 -20 89t-72 27h-187v-263q0 -22 -1.5 -41t-5.5 -35h33.5t97.5 -1q66 -1 95 -1.5t46 -0.5q87 0 121.5 36t45.5 136l6 53q1 5 6.5 5t4.5 -5l-6 -54q-2 -16 -5 -47t-4 -44q-5 -46 -8 -66.5t-6 -22.5q-3 -3 -65.5 -2.5
t-71.5 0.5q-18 0 -47 0.5t-98 0.5q-70 1 -100 1.5t-48 0.5q-8 0 -18 -0.5t-34 -1.5zM238 784q-5 0 -17.5 -1t-12.5 1q0 5 4 13t11 17h67q36 0 55.5 0.5t39.5 1.5q10 0 20 1t10 -1q0 -5 -4 -13t-11 -17h-83q-32 0 -46.5 -0.5t-32.5 -1.5z" />
    <glyph glyph-name="emacron" unicode="&#x113;" horiz-adv-x="515" 
d="M34 0zM439 34q-35 -22 -72 -33t-77 -11q-118 0 -187 66t-69 176q0 116 78.5 197t190.5 81q80 0 127 -35t47 -86q0 -22 -15 -33.5t-45 -11.5h-334q-6 -23 -9.5 -48t-3.5 -51q0 -101 65 -166t172 -65q95 0 165.5 57t114.5 171q3 6 6 5t1 -7q-26 -70 -65.5 -122.5
t-89.5 -83.5zM433 397q0 41 -40 70t-106 29q-73 0 -126 -38t-75 -107q148 1 207 2t93 3q14 1 24.5 4.5t14.5 8.5q4 6 6 12.5t2 15.5zM217 591q-5 0 -17.5 -1t-12.5 1q0 5 4 13t11 17h67q36 0 55.5 0.5t39.5 1.5q10 0 20 1t10 -1q0 -5 -4 -13t-11 -17h-83q-32 0 -46.5 -0.5
t-32.5 -1.5z" />
    <glyph glyph-name="Ebreve" unicode="&#x114;" horiz-adv-x="618" 
d="M13 0zM65 1q-16 0 -24.5 -0.5t-15.5 -0.5t-7 4.5t7 4.5q42 0 52.5 11.5t12.5 62.5q1 91 1 261v192q0 36 -0.5 57t-1.5 35q-3 33 -11 44.5t-41 11.5h-18q-6 0 -6 4.5t6 4.5q8 0 22.5 -0.5t46.5 -1.5q21 -1 28.5 -1h10.5h23.5t89.5 1q130 1 180.5 1.5t61.5 0.5
q18 0 30.5 -1t16.5 -3t11 -44.5t13 -99.5l4 -36q1 -5 -4 -5t-6 5l-5 36q-11 76 -42 106t-113 30h-219q-22 0 -30.5 -7.5t-9.5 -28.5q-1 -10 -1 -35v-29v-216h187q52 0 72 27t20 88v21q0 6 5 6t5 -6q0 -9 -0.5 -27.5t-2.5 -63.5q-1 -28 -1.5 -38t-0.5 -13q0 -4 0.5 -17
t1.5 -50q2 -38 2.5 -52t0.5 -18q0 -6 -5 -6t-5 6v15q0 62 -20 89t-72 27h-187v-263q0 -22 -1.5 -41t-5.5 -35h33.5t97.5 -1q66 -1 95 -1.5t46 -0.5q87 0 121.5 36t45.5 136l6 53q1 5 6.5 5t4.5 -5l-6 -54q-2 -16 -5 -47t-4 -44q-5 -46 -8 -66.5t-6 -22.5q-3 -3 -65.5 -2.5
t-71.5 0.5q-18 0 -47 0.5t-98 0.5q-70 1 -100 1.5t-48 0.5q-8 0 -18 -0.5t-34 -1.5zM435 858q-18 -44 -49.5 -69t-72.5 -26q-40 0 -73 21.5t-50 58.5q-4 8 -1 14t13 10q9 3 14 1.5t8 -7.5q17 -39 44 -61t56 -22q38 0 61.5 21.5t30.5 62.5q1 3 3.5 5t6.5 2q5 0 7.5 -3.5
t1.5 -7.5z" />
    <glyph glyph-name="ebreve" unicode="&#x115;" horiz-adv-x="515" 
d="M34 0zM439 34q-35 -22 -72 -33t-77 -11q-118 0 -187 66t-69 176q0 116 78.5 197t190.5 81q80 0 127 -35t47 -86q0 -22 -15 -33.5t-45 -11.5h-334q-6 -23 -9.5 -48t-3.5 -51q0 -101 65 -166t172 -65q95 0 165.5 57t114.5 171q3 6 6 5t1 -7q-26 -70 -65.5 -122.5
t-89.5 -83.5zM433 397q0 41 -40 70t-106 29q-73 0 -126 -38t-75 -107q148 1 207 2t93 3q14 1 24.5 4.5t14.5 8.5q4 6 6 12.5t2 15.5zM414 665q-18 -44 -49.5 -69t-72.5 -26q-40 0 -73 21.5t-50 58.5q-4 8 -1 14t13 10q9 3 14 1.5t8 -7.5q17 -39 44 -61t56 -22
q38 0 61.5 21.5t30.5 62.5q1 3 3.5 5t6.5 2q5 0 7.5 -3.5t1.5 -7.5z" />
    <glyph glyph-name="Edotaccent" unicode="&#x116;" horiz-adv-x="618" 
d="M13 0zM65 1q-16 0 -24.5 -0.5t-15.5 -0.5t-7 4.5t7 4.5q42 0 52.5 11.5t12.5 62.5q1 91 1 261v192q0 36 -0.5 57t-1.5 35q-3 33 -11 44.5t-41 11.5h-18q-6 0 -6 4.5t6 4.5q8 0 22.5 -0.5t46.5 -1.5q21 -1 28.5 -1h10.5h23.5t89.5 1q130 1 180.5 1.5t61.5 0.5
q18 0 30.5 -1t16.5 -3t11 -44.5t13 -99.5l4 -36q1 -5 -4 -5t-6 5l-5 36q-11 76 -42 106t-113 30h-219q-22 0 -30.5 -7.5t-9.5 -28.5q-1 -10 -1 -35v-29v-216h187q52 0 72 27t20 88v21q0 6 5 6t5 -6q0 -9 -0.5 -27.5t-2.5 -63.5q-1 -28 -1.5 -38t-0.5 -13q0 -4 0.5 -17
t1.5 -50q2 -38 2.5 -52t0.5 -18q0 -6 -5 -6t-5 6v15q0 62 -20 89t-72 27h-187v-263q0 -22 -1.5 -41t-5.5 -35h33.5t97.5 -1q66 -1 95 -1.5t46 -0.5q87 0 121.5 36t45.5 136l6 53q1 5 6.5 5t4.5 -5l-6 -54q-2 -16 -5 -47t-4 -44q-5 -46 -8 -66.5t-6 -22.5q-3 -3 -65.5 -2.5
t-71.5 0.5q-18 0 -47 0.5t-98 0.5q-70 1 -100 1.5t-48 0.5q-8 0 -18 -0.5t-34 -1.5zM311 812q-13 0 -22 9t-9 22t9 22t22 9t22 -9t9 -22t-9 -22t-22 -9z" />
    <glyph glyph-name="edotaccent" unicode="&#x117;" horiz-adv-x="515" 
d="M34 0zM439 34q-35 -22 -72 -33t-77 -11q-118 0 -187 66t-69 176q0 116 78.5 197t190.5 81q80 0 127 -35t47 -86q0 -22 -15 -33.5t-45 -11.5h-334q-6 -23 -9.5 -48t-3.5 -51q0 -101 65 -166t172 -65q95 0 165.5 57t114.5 171q3 6 6 5t1 -7q-26 -70 -65.5 -122.5
t-89.5 -83.5zM433 397q0 41 -40 70t-106 29q-73 0 -126 -38t-75 -107q148 1 207 2t93 3q14 1 24.5 4.5t14.5 8.5q4 6 6 12.5t2 15.5zM290 639q-13 0 -22 9t-9 22t9 22t22 9t22 -9t9 -22t-9 -22t-22 -9z" />
    <glyph glyph-name="Eogonek" unicode="&#x118;" horiz-adv-x="618" 
d="M65 1q-16 0 -24.5 -0.5t-15.5 -0.5t-7 4.5t7 4.5q42 0 52.5 11.5t12.5 62.5q1 91 1 261v192q0 36 -0.5 57t-1.5 35q-3 33 -11 44.5t-41 11.5h-18q-6 0 -6 4.5t6 4.5q8 0 22.5 -0.5t46.5 -1.5q21 -1 28.5 -1h10.5h23.5t89.5 1q130 1 180.5 1.5t61.5 0.5q18 0 30.5 -1
t16.5 -3t11 -44.5t13 -99.5l4 -36q1 -5 -4 -5t-6 5l-5 36q-11 76 -42 106t-113 30h-219q-22 0 -30.5 -7.5t-9.5 -28.5q-1 -10 -1 -35v-29v-216h187q52 0 72 27t20 88v21q0 6 5 6t5 -6q0 -9 -0.5 -27.5t-2.5 -63.5q-1 -28 -1.5 -38t-0.5 -13q0 -4 0.5 -17t1.5 -50
q2 -38 2.5 -52t0.5 -18q0 -6 -5 -6t-5 6v15q0 62 -20 89t-72 27h-187v-263q0 -22 -1.5 -41t-5.5 -35h33.5t97.5 -1q66 -1 95 -1.5t46 -0.5q87 0 121.5 36t45.5 136l6 53q1 5 6.5 5t4.5 -5l-6 -54q-2 -16 -5 -47t-4 -44q-5 -46 -8 -66.5t-6 -22.5q-2 -2 -19 -2.5t-53 0.5
q-39 -27 -56.5 -54.5t-17.5 -60.5t18 -52.5t48 -19.5q18 0 31.5 4t27.5 15q4 3 -2.5 -15.5t-13.5 -23.5q-8 -7 -22 -10.5t-30 -3.5q-38 0 -60 22.5t-22 59.5q0 36 22 72.5t63 66.5h-25.5h-25.5q-18 0 -47 0.5t-98 0.5q-70 1 -100 1.5t-48 0.5q-8 0 -18 -0.5t-34 -1.5z" />
    <glyph glyph-name="eogonek" unicode="&#x119;" horiz-adv-x="515" 
d="M419 -207q-8 -7 -22 -10.5t-30 -3.5q-38 0 -60 22.5t-22 59.5q0 35 22.5 72t65.5 70q-22 -7 -42 -10t-41 -3q-118 0 -187 66t-69 176q0 116 78.5 197t190.5 81q80 0 127 -35t47 -86q0 -22 -15 -33.5t-45 -11.5h-334q-6 -23 -9.5 -48t-3.5 -51q0 -101 65 -166t172 -65
q95 0 165.5 57t114.5 171q3 6 6 5t1 -7q-17 -44 -39.5 -82t-49.5 -68q-18 -19 -37.5 -34.5t-55.5 -36.5q-22 -14 -32.5 -21t-19.5 -15q-26 -24 -38 -47.5t-12 -50.5q0 -33 18 -52.5t48 -19.5q18 0 31.5 4t27.5 15q4 3 -2.5 -15.5t-13.5 -23.5zM433 397q0 41 -40 70t-106 29
q-73 0 -126 -38t-75 -107q148 1 207 2t93 3q14 1 24.5 4.5t14.5 8.5q4 6 6 12.5t2 15.5z" />
    <glyph glyph-name="Ecaron" unicode="&#x11a;" horiz-adv-x="618" 
d="M13 0zM65 1q-16 0 -24.5 -0.5t-15.5 -0.5t-7 4.5t7 4.5q42 0 52.5 11.5t12.5 62.5q1 91 1 261v192q0 36 -0.5 57t-1.5 35q-3 33 -11 44.5t-41 11.5h-18q-6 0 -6 4.5t6 4.5q8 0 22.5 -0.5t46.5 -1.5q21 -1 28.5 -1h10.5h23.5t89.5 1q130 1 180.5 1.5t61.5 0.5
q18 0 30.5 -1t16.5 -3t11 -44.5t13 -99.5l4 -36q1 -5 -4 -5t-6 5l-5 36q-11 76 -42 106t-113 30h-219q-22 0 -30.5 -7.5t-9.5 -28.5q-1 -10 -1 -35v-29v-216h187q52 0 72 27t20 88v21q0 6 5 6t5 -6q0 -9 -0.5 -27.5t-2.5 -63.5q-1 -28 -1.5 -38t-0.5 -13q0 -4 0.5 -17
t1.5 -50q2 -38 2.5 -52t0.5 -18q0 -6 -5 -6t-5 6v15q0 62 -20 89t-72 27h-187v-263q0 -22 -1.5 -41t-5.5 -35h33.5t97.5 -1q66 -1 95 -1.5t46 -0.5q87 0 121.5 36t45.5 136l6 53q1 5 6.5 5t4.5 -5l-6 -54q-2 -16 -5 -47t-4 -44q-5 -46 -8 -66.5t-6 -22.5q-3 -3 -65.5 -2.5
t-71.5 0.5q-18 0 -47 0.5t-98 0.5q-70 1 -100 1.5t-48 0.5q-8 0 -18 -0.5t-34 -1.5zM311 759q2 -2 4 -2t3 2q15 16 32 39t57 83q8 11 14 15t13 4q8 0 13 -3.5t5 -9.5t-5 -13.5t-16 -18.5q-47 -46 -69 -66t-43 -39q-2 -1 -5 -1t-4 1q-15 12 -30.5 25.5t-43.5 37.5
q-18 17 -27 24.5t-16 13.5q-11 9 -16 16.5t-5 13.5t5 11t12 5q8 0 14 -4t16 -17q33 -46 54 -72t38 -45z" />
    <glyph glyph-name="ecaron" unicode="&#x11b;" horiz-adv-x="515" 
d="M34 0zM439 34q-35 -22 -72 -33t-77 -11q-118 0 -187 66t-69 176q0 116 78.5 197t190.5 81q80 0 127 -35t47 -86q0 -22 -15 -33.5t-45 -11.5h-334q-6 -23 -9.5 -48t-3.5 -51q0 -101 65 -166t172 -65q95 0 165.5 57t114.5 171q3 6 6 5t1 -7q-26 -70 -65.5 -122.5
t-89.5 -83.5zM433 397q0 41 -40 70t-106 29q-73 0 -126 -38t-75 -107q148 1 207 2t93 3q14 1 24.5 4.5t14.5 8.5q4 6 6 12.5t2 15.5zM290 566q2 -2 4 -2t3 2q15 16 32 39t57 83q8 11 14 15t13 4q8 0 13 -3.5t5 -9.5t-5 -13.5t-16 -18.5q-47 -46 -69 -66t-43 -39q-2 -1 -5 -1
t-4 1q-15 12 -30.5 25.5t-43.5 37.5q-18 17 -27 24.5t-16 13.5q-11 9 -16 16.5t-5 13.5t5 11t12 5q8 0 14 -4t16 -17q33 -46 54 -72t38 -45z" />
    <glyph glyph-name="Gcircumflex" unicode="&#x11c;" horiz-adv-x="770" 
d="M43 0zM545 3q-30 -6 -61 -9.5t-62 -3.5q-170 0 -274.5 98t-104.5 258q0 159 108.5 258t280.5 99q59 0 131 -13t112 -31l12 -213q1 -6 -3.5 -7t-5.5 6q-8 90 -17.5 129t-23.5 56q-24 29 -80.5 46t-128.5 17q-152 0 -247.5 -95t-95.5 -252t94.5 -251.5t249.5 -94.5
q60 0 122.5 17t109.5 46q2 6 2.5 24.5t0.5 98.5q0 36 -0.5 70.5t-1.5 44.5q-15 2 -35.5 3t-42.5 2q-40 2 -94 3t-103 1q-5 0 -4.5 3.5t5.5 3.5q96 0 163 2.5t143 8.5q2 0 4 -2.5t2 -5.5q-1 -51 -1 -115.5v-206.5q0 -3 -3 -3.5t-5 2.5q-4 5 -11 15t-17 25q-7 -2 -46.5 -14.5
t-71.5 -19.5zM429 897q-2 2 -4 2t-3 -2q-15 -16 -32 -39t-57 -83q-8 -11 -14 -15t-13 -4q-8 0 -13 3.5t-5 9.5t5 13.5t16 18.5q47 46 69 66t43 39q2 1 5 1t4 -1q15 -12 30.5 -25.5t43.5 -37.5q18 -17 27 -24.5t16 -13.5q11 -9 16 -16.5t5 -13.5t-5 -11t-12 -5q-8 0 -14 4
t-16 17q-33 46 -54 72t-38 45z" />
    <glyph glyph-name="gcircumflex" unicode="&#x11d;" horiz-adv-x="501" 
d="M0 0zM384 -245q-48 -28 -102.5 -43.5t-104.5 -15.5q-84 0 -131.5 34t-47.5 92q0 55 46.5 102t122.5 72h-14q-60 0 -90.5 15.5t-30.5 45.5q0 32 42.5 61t105.5 42q-70 10 -108.5 54t-38.5 113q0 76 60.5 128.5t148.5 52.5q33 0 72 4.5t101 16.5q25 4 33.5 5.5t13.5 1.5
q13 0 20.5 -3t7.5 -9q0 -11 -10 -20.5t-25 -9.5q-6 0 -17 0.5t-40 2.5q-50 3 -78 4t-50 1v-2q71 -11 116.5 -58.5t45.5 -112.5q0 -77 -58.5 -124.5t-152.5 -47.5h-8.5h-8.5q-51 -4 -94.5 -29.5t-43.5 -55.5q0 -23 27.5 -34.5t94.5 -11.5h195q61 0 93.5 -27t32.5 -77
q0 -44 -33 -88t-92 -79zM72 331q0 -76 43.5 -120t113.5 -44q75 0 119.5 42.5t44.5 119.5q0 71 -47 120t-110 49q-73 0 -118.5 -45t-45.5 -122zM29 -158q0 -51 51 -84.5t133 -33.5q109 0 191.5 53.5t82.5 127.5q0 51 -29.5 71t-100.5 20h-171q-71 -19 -114 -61t-43 -93z
M230 704q-2 2 -4 2t-3 -2q-15 -16 -32 -39t-57 -83q-8 -11 -14 -15t-13 -4q-8 0 -13 3.5t-5 9.5t5 13.5t16 18.5q47 46 69 66t43 39q2 1 5 1t4 -1q15 -12 30.5 -25.5t43.5 -37.5q18 -17 27 -24.5t16 -13.5q11 -9 16 -16.5t5 -13.5t-5 -11t-12 -5q-8 0 -14 4t-16 17
q-33 46 -54 72t-38 45z" />
    <glyph glyph-name="Gbreve" unicode="&#x11e;" horiz-adv-x="770" 
d="M43 0zM545 3q-30 -6 -61 -9.5t-62 -3.5q-170 0 -274.5 98t-104.5 258q0 159 108.5 258t280.5 99q59 0 131 -13t112 -31l12 -213q1 -6 -3.5 -7t-5.5 6q-8 90 -17.5 129t-23.5 56q-24 29 -80.5 46t-128.5 17q-152 0 -247.5 -95t-95.5 -252t94.5 -251.5t249.5 -94.5
q60 0 122.5 17t109.5 46q2 6 2.5 24.5t0.5 98.5q0 36 -0.5 70.5t-1.5 44.5q-15 2 -35.5 3t-42.5 2q-40 2 -94 3t-103 1q-5 0 -4.5 3.5t5.5 3.5q96 0 163 2.5t143 8.5q2 0 4 -2.5t2 -5.5q-1 -51 -1 -115.5v-206.5q0 -3 -3 -3.5t-5 2.5q-4 5 -11 15t-17 25q-7 -2 -46.5 -14.5
t-71.5 -19.5zM553 858q-18 -44 -49.5 -69t-72.5 -26q-40 0 -73 21.5t-50 58.5q-4 8 -1 14t13 10q9 3 14 1.5t8 -7.5q17 -39 44 -61t56 -22q38 0 61.5 21.5t30.5 62.5q1 3 3.5 5t6.5 2q5 0 7.5 -3.5t1.5 -7.5z" />
    <glyph glyph-name="gbreve" unicode="&#x11f;" horiz-adv-x="501" 
d="M0 0zM384 -245q-48 -28 -102.5 -43.5t-104.5 -15.5q-84 0 -131.5 34t-47.5 92q0 55 46.5 102t122.5 72h-14q-60 0 -90.5 15.5t-30.5 45.5q0 32 42.5 61t105.5 42q-70 10 -108.5 54t-38.5 113q0 76 60.5 128.5t148.5 52.5q33 0 72 4.5t101 16.5q25 4 33.5 5.5t13.5 1.5
q13 0 20.5 -3t7.5 -9q0 -11 -10 -20.5t-25 -9.5q-6 0 -17 0.5t-40 2.5q-50 3 -78 4t-50 1v-2q71 -11 116.5 -58.5t45.5 -112.5q0 -77 -58.5 -124.5t-152.5 -47.5h-8.5h-8.5q-51 -4 -94.5 -29.5t-43.5 -55.5q0 -23 27.5 -34.5t94.5 -11.5h195q61 0 93.5 -27t32.5 -77
q0 -44 -33 -88t-92 -79zM72 331q0 -76 43.5 -120t113.5 -44q75 0 119.5 42.5t44.5 119.5q0 71 -47 120t-110 49q-73 0 -118.5 -45t-45.5 -122zM29 -158q0 -51 51 -84.5t133 -33.5q109 0 191.5 53.5t82.5 127.5q0 51 -29.5 71t-100.5 20h-171q-71 -19 -114 -61t-43 -93z
M354 665q-18 -44 -49.5 -69t-72.5 -26q-40 0 -73 21.5t-50 58.5q-4 8 -1 14t13 10q9 3 14 1.5t8 -7.5q17 -39 44 -61t56 -22q38 0 61.5 21.5t30.5 62.5q1 3 3.5 5t6.5 2q5 0 7.5 -3.5t1.5 -7.5z" />
    <glyph glyph-name="Gdotaccent" unicode="&#x120;" horiz-adv-x="770" 
d="M43 0zM545 3q-30 -6 -61 -9.5t-62 -3.5q-170 0 -274.5 98t-104.5 258q0 159 108.5 258t280.5 99q59 0 131 -13t112 -31l12 -213q1 -6 -3.5 -7t-5.5 6q-8 90 -17.5 129t-23.5 56q-24 29 -80.5 46t-128.5 17q-152 0 -247.5 -95t-95.5 -252t94.5 -251.5t249.5 -94.5
q60 0 122.5 17t109.5 46q2 6 2.5 24.5t0.5 98.5q0 36 -0.5 70.5t-1.5 44.5q-15 2 -35.5 3t-42.5 2q-40 2 -94 3t-103 1q-5 0 -4.5 3.5t5.5 3.5q96 0 163 2.5t143 8.5q2 0 4 -2.5t2 -5.5q-1 -51 -1 -115.5v-206.5q0 -3 -3 -3.5t-5 2.5q-4 5 -11 15t-17 25q-7 -2 -46.5 -14.5
t-71.5 -19.5zM429 812q-13 0 -22 9t-9 22t9 22t22 9t22 -9t9 -22t-9 -22t-22 -9z" />
    <glyph glyph-name="gdotaccent" unicode="&#x121;" horiz-adv-x="501" 
d="M0 0zM384 -245q-48 -28 -102.5 -43.5t-104.5 -15.5q-84 0 -131.5 34t-47.5 92q0 55 46.5 102t122.5 72h-14q-60 0 -90.5 15.5t-30.5 45.5q0 32 42.5 61t105.5 42q-70 10 -108.5 54t-38.5 113q0 76 60.5 128.5t148.5 52.5q33 0 72 4.5t101 16.5q25 4 33.5 5.5t13.5 1.5
q13 0 20.5 -3t7.5 -9q0 -11 -10 -20.5t-25 -9.5q-6 0 -17 0.5t-40 2.5q-50 3 -78 4t-50 1v-2q71 -11 116.5 -58.5t45.5 -112.5q0 -77 -58.5 -124.5t-152.5 -47.5h-8.5h-8.5q-51 -4 -94.5 -29.5t-43.5 -55.5q0 -23 27.5 -34.5t94.5 -11.5h195q61 0 93.5 -27t32.5 -77
q0 -44 -33 -88t-92 -79zM72 331q0 -76 43.5 -120t113.5 -44q75 0 119.5 42.5t44.5 119.5q0 71 -47 120t-110 49q-73 0 -118.5 -45t-45.5 -122zM29 -158q0 -51 51 -84.5t133 -33.5q109 0 191.5 53.5t82.5 127.5q0 51 -29.5 71t-100.5 20h-171q-71 -19 -114 -61t-43 -93z
M230 639q-13 0 -22 9t-9 22t9 22t22 9t22 -9t9 -22t-9 -22t-22 -9z" />
    <glyph glyph-name="uni0122" unicode="&#x122;" horiz-adv-x="770" 
d="M43 0zM545 3q-30 -6 -61 -9.5t-62 -3.5q-170 0 -274.5 98t-104.5 258q0 159 108.5 258t280.5 99q59 0 131 -13t112 -31l12 -213q1 -6 -3.5 -7t-5.5 6q-8 90 -17.5 129t-23.5 56q-24 29 -80.5 46t-128.5 17q-152 0 -247.5 -95t-95.5 -252t94.5 -251.5t249.5 -94.5
q60 0 122.5 17t109.5 46q2 6 2.5 24.5t0.5 98.5q0 36 -0.5 70.5t-1.5 44.5q-15 2 -35.5 3t-42.5 2q-40 2 -94 3t-103 1q-5 0 -4.5 3.5t5.5 3.5q96 0 163 2.5t143 8.5q2 0 4 -2.5t2 -5.5q-1 -51 -1 -115.5v-206.5q0 -3 -3 -3.5t-5 2.5q-4 5 -11 15t-17 25q-7 -2 -46.5 -14.5
t-71.5 -19.5zM454 -128q0 -29 -14 -52t-38 -35q-3 -1 -4 1t2 4q21 11 30.5 28t9.5 44q0 6 -1.5 11.5t-4.5 9.5q-3 -6 -8 -9t-12 -3q-11 0 -18.5 7t-7.5 17q0 12 8.5 20.5t21.5 8.5q15 0 25.5 -14.5t10.5 -37.5z" />
    <glyph glyph-name="uni0123" unicode="&#x123;" horiz-adv-x="501" 
d="M0 0zM384 -245q-48 -28 -102.5 -43.5t-104.5 -15.5q-84 0 -131.5 34t-47.5 92q0 55 46.5 102t122.5 72h-14q-60 0 -90.5 15.5t-30.5 45.5q0 32 42.5 61t105.5 42q-70 10 -108.5 54t-38.5 113q0 76 60.5 128.5t148.5 52.5q33 0 72 4.5t101 16.5q25 4 33.5 5.5t13.5 1.5
q13 0 20.5 -3t7.5 -9q0 -11 -10 -20.5t-25 -9.5q-6 0 -17 0.5t-40 2.5q-50 3 -78 4t-50 1v-2q71 -11 116.5 -58.5t45.5 -112.5q0 -77 -58.5 -124.5t-152.5 -47.5h-8.5h-8.5q-51 -4 -94.5 -29.5t-43.5 -55.5q0 -23 27.5 -34.5t94.5 -11.5h195q61 0 93.5 -27t32.5 -77
q0 -44 -33 -88t-92 -79zM72 331q0 -76 43.5 -120t113.5 -44q75 0 119.5 42.5t44.5 119.5q0 71 -47 120t-110 49q-73 0 -118.5 -45t-45.5 -122zM29 -158q0 -51 51 -84.5t133 -33.5q109 0 191.5 53.5t82.5 127.5q0 51 -29.5 71t-100.5 20h-171q-71 -19 -114 -61t-43 -93z
M198 646q0 29 14 52t38 35q3 1 4 -1t-2 -4q-21 -11 -30.5 -28t-9.5 -44q0 -6 1.5 -11.5t4.5 -9.5q3 6 8 9t12 3q11 0 18.5 -7t7.5 -17q0 -12 -8.5 -20.5t-21.5 -8.5q-15 0 -25.5 14.5t-10.5 37.5z" />
    <glyph glyph-name="Hcircumflex" unicode="&#x124;" horiz-adv-x="696" 
d="M18 0zM569 344l-217 -2q-46 0 -111 1t-114 2v-186q0 -36 0.5 -57t1.5 -36q3 -34 11.5 -45.5t40.5 -11.5h20q6 0 6 -4.5t-6 -4.5q-9 0 -21.5 0.5t-38.5 1.5q-16 1 -22 1h-9h-9t-22 -1q-23 -1 -35 -1.5t-20 -0.5q-6 0 -6 4.5t6 4.5h13q32 0 40.5 11.5t11.5 45.5
q1 15 1.5 36t0.5 57v375q0 36 -0.5 57t-1.5 36q-3 34 -11.5 45.5t-40.5 11.5h-13q-6 0 -6 4.5t6 4.5q8 0 20 -0.5t35 -1.5q16 -1 22 -1h9h9t22 1q26 1 38.5 1.5t21.5 0.5q6 0 6 -4.5t-6 -4.5h-20q-32 0 -40.5 -11.5t-11.5 -45.5q-1 -15 -1.5 -36t-0.5 -57v-180l224 2l218 -3
v181q0 36 -0.5 57t-1.5 36q-3 34 -11.5 45.5t-40.5 11.5h-21q-6 0 -6 4.5t6 4.5q9 0 21.5 -0.5t38.5 -1.5q16 -1 22.5 -1h9.5h9t22 1l36 1.5t21 0.5q6 0 6 -4.5t-6 -4.5h-16q-32 0 -40 -11.5t-11 -46.5q-1 -14 -1.5 -35t-0.5 -57v-375q0 -36 0.5 -57t1.5 -35q3 -35 11 -46.5
t40 -11.5h16q6 0 6 -4.5t-6 -4.5q-9 0 -21 0.5l-36 1.5q-16 1 -22 1h-9h-9.5t-22.5 -1q-26 -1 -38.5 -1.5t-21.5 -0.5q-6 0 -6 4.5t6 4.5h21q32 0 40.5 11.5t11.5 45.5q1 15 1.5 36t0.5 57v185zM348 897q-2 2 -4 2t-3 -2q-15 -16 -32 -39t-57 -83q-8 -11 -14 -15t-13 -4
q-8 0 -13 3.5t-5 9.5t5 13.5t16 18.5q47 46 69 66t43 39q2 1 5 1t4 -1q15 -12 30.5 -25.5t43.5 -37.5q18 -17 27 -24.5t16 -13.5q11 -9 16 -16.5t5 -13.5t-5 -11t-12 -5q-8 0 -14 4t-16 17q-33 46 -54 72t-38 45z" />
    <glyph glyph-name="hcircumflex" unicode="&#x125;" 
d="M0 0zM62 1q-12 -1 -20 -1h-17q-6 0 -6 4.5t6 4.5q30 0 37.5 16t7.5 94v580q0 44 -10 56t-54 4q-6 -1 -6 3.5t6 5.5q43 8 59.5 16t28.5 24q2 3 6.5 2t4.5 -4v-436q51 71 104.5 105.5t112.5 34.5q83 0 126 -54t43 -160v-198q0 -23 1 -37.5t3 -23.5q3 -16 10.5 -22t33.5 -6
q6 0 6 -4.5t-6 -4.5h-6.5t-17.5 1q-21 0 -30.5 0.5t-14.5 0.5h-7.5t-14.5 -1q-16 -1 -25 -1h-18q-6 0 -6 4.5t6 4.5q34 0 42.5 18t8.5 77v188q0 99 -36.5 147t-112.5 48q-53 0 -103.5 -32t-98.5 -97v-349h52q6 0 6 -4.5t-6 -4.5h-7t-20 1q-24 0 -34 0.5t-15 0.5h-7t-12 -1z
M88 971q-2 2 -4 2t-3 -2q-15 -16 -32 -39t-57 -83q-8 -11 -14 -15t-13 -4q-8 0 -13 3.5t-5 9.5t5 13.5t16 18.5q47 46 69 66t43 39q2 1 5 1t4 -1q15 -12 30.5 -25.5t43.5 -37.5q18 -17 27 -24.5t16 -13.5q11 -9 16 -16.5t5 -13.5t-5 -11t-12 -5q-8 0 -14 4t-16 17
q-33 46 -54 72t-38 45z" />
    <glyph glyph-name="Hbar" unicode="&#x126;" horiz-adv-x="696" 
d="M569 344l-217 -2q-46 0 -111 1t-114 2v-186q0 -36 0.5 -57t1.5 -36q3 -34 11.5 -45.5t40.5 -11.5h20q6 0 6 -4.5t-6 -4.5q-9 0 -21.5 0.5t-38.5 1.5q-16 1 -22 1h-9h-9t-22 -1q-23 -1 -35 -1.5t-20 -0.5q-6 0 -6 4.5t6 4.5h13q32 0 40.5 11.5t11.5 45.5q1 15 1.5 36
t0.5 57v375v4q-6 0 -13.5 -0.5t-21.5 -0.5q-15 0 -22 -0.5t-13 -0.5q-5 2 -5 11t5 12q6 0 13 -0.5t22 -0.5q14 0 21.5 -0.5t13.5 -0.5q0 30 -1 49t-2 32q-4 27 -12.5 36.5t-38.5 9.5h-13q-6 0 -6 4.5t6 4.5q8 0 20 -0.5t35 -1.5q16 -1 22 -1h9h9t22 1q26 1 38.5 1.5
t21.5 0.5q6 0 6 -4.5t-6 -4.5h-20q-30 0 -39 -9.5t-12 -37.5q-1 -12 -2 -31t-1 -50q75 -1 127.5 -1.5t91.5 -0.5q40 0 94 0.5t129 1.5q0 31 -1 50t-2 31q-3 28 -12 37.5t-39 9.5h-21q-6 0 -6 4.5t6 4.5q9 0 21.5 -0.5t38.5 -1.5q16 -1 22.5 -1h9.5h9t22 1l36 1.5t21 0.5
q6 0 6 -4.5t-6 -4.5h-16q-30 0 -38.5 -9.5t-11.5 -36.5q-1 -13 -2 -32t-1 -49q6 0 13.5 0.5t21.5 0.5q15 0 22 0.5t13 0.5q5 -3 5 -12t-5 -11q-6 0 -13 0.5t-22 0.5q-14 0 -21.5 0.5t-13.5 0.5v-4v-375q0 -36 0.5 -57t1.5 -35q3 -35 11 -46.5t40 -11.5h16q6 0 6 -4.5
t-6 -4.5q-9 0 -21 0.5l-36 1.5q-16 1 -22 1h-9h-9.5t-22.5 -1q-26 -1 -38.5 -1.5t-21.5 -0.5q-6 0 -6 4.5t6 4.5h21q32 0 40.5 11.5t11.5 45.5q1 15 1.5 36t0.5 57v185zM569 353v181v5q-80 1 -131.5 1.5t-90.5 0.5q-40 0 -92 -0.5t-128 -1.5v-5v-180l224 2z" />
    <glyph glyph-name="hbar" unicode="&#x127;" 
d="M62 1q-12 -1 -20 -1h-17q-6 0 -6 4.5t6 4.5q30 0 37.5 16t7.5 94v502q-30 -1 -45.5 -2t-26.5 -2q-3 1 -3 10.5t3 12.5q10 -1 25 -2t47 -2v63q0 44 -10 56t-54 4q-6 -1 -6 3.5t6 5.5q43 8 59.5 16t28.5 24q2 3 6.5 2t4.5 -4v-171h20h20q38 0 80.5 1.5t69.5 3.5
q3 -3 3 -12.5t-3 -10.5q-31 2 -72 3.5t-77 1.5h-20.5h-20.5v-252q51 71 104.5 105.5t112.5 34.5q83 0 126 -54t43 -160v-198q0 -23 1 -37.5t3 -23.5q3 -16 10.5 -22t33.5 -6q6 0 6 -4.5t-6 -4.5h-6.5t-17.5 1q-21 0 -30.5 0.5t-14.5 0.5h-7.5t-14.5 -1q-16 -1 -25 -1h-18
q-6 0 -6 4.5t6 4.5q34 0 42.5 18t8.5 77v188q0 99 -36.5 147t-112.5 48q-53 0 -103.5 -32t-98.5 -97v-349h52q6 0 6 -4.5t-6 -4.5h-7t-20 1q-24 0 -34 0.5t-15 0.5h-7t-12 -1z" />
    <glyph glyph-name="Itilde" unicode="&#x128;" horiz-adv-x="237" 
d="M0 0zM97 159v375q0 44 -0.5 63t-1.5 32q-2 33 -10.5 44t-44.5 11h-13q-6 0 -6 4.5t6 4.5q8 0 20 -0.5l36 -1.5q16 -1 22.5 -1h9.5h9.5t23.5 1q27 1 40 1.5t22 0.5q6 0 6 -4.5t-6 -4.5h-20q-36 0 -44.5 -11t-10.5 -44q-1 -13 -1.5 -32t-0.5 -63v-375q0 -42 0.5 -61.5
t1.5 -32.5q2 -34 11 -45t44 -11h20q6 0 6 -4.5t-6 -4.5q-9 0 -22 0.5t-40 1.5q-17 1 -23.5 1h-9.5h-9.5t-22.5 -1l-36 -1.5t-20 -0.5q-6 0 -6 4.5t6 4.5h13q35 0 44 11t11 45q1 13 1.5 32.5t0.5 61.5zM-13 777q-2 -4 -5.5 -2t-0.5 6q25 42 40.5 56.5t35.5 14.5
q14 0 29.5 -3.5t44.5 -13.5q28 -10 42 -13t27 -3q19 0 32 13t24 42q2 3 5.5 1.5t1.5 -6.5q-21 -42 -40 -60t-42 -18q-13 0 -27.5 3t-41.5 14q-27 10 -41 13t-26 3q-18 0 -32.5 -12t-25.5 -35z" />
    <glyph glyph-name="itilde" unicode="&#x129;" horiz-adv-x="186" 
d="M0 0zM66 1q-21 -1 -32 -1h-20q-6 0 -6 4.5t6 4.5q41 0 51 9t10 52v342q0 40 -10.5 47t-53.5 -5q-6 -2 -7 2t5 6q27 7 48.5 16.5t44.5 26.5q2 1 5 0.5t3 -2.5v-433q0 -42 10 -51.5t51 -9.5q6 0 6 -4.5t-6 -4.5h-19.5t-30.5 1q-13 1 -18.5 1h-8.5h-8.5t-19.5 -1zM-42 584
q-2 -4 -5.5 -2t-0.5 6q25 42 40.5 56.5t35.5 14.5q14 0 29.5 -3.5t44.5 -13.5q28 -10 42 -13t27 -3q19 0 32 13t24 42q2 3 5.5 1.5t1.5 -6.5q-21 -42 -40 -60t-42 -18q-13 0 -27.5 3t-41.5 14q-27 10 -41 13t-26 3q-18 0 -32.5 -12t-25.5 -35z" />
    <glyph glyph-name="Imacron" unicode="&#x12a;" horiz-adv-x="237" 
d="M15 0zM97 159v375q0 44 -0.5 63t-1.5 32q-2 33 -10.5 44t-44.5 11h-13q-6 0 -6 4.5t6 4.5q8 0 20 -0.5l36 -1.5q16 -1 22.5 -1h9.5h9.5t23.5 1q27 1 40 1.5t22 0.5q6 0 6 -4.5t-6 -4.5h-20q-36 0 -44.5 -11t-10.5 -44q-1 -13 -1.5 -32t-0.5 -63v-375q0 -42 0.5 -61.5
t1.5 -32.5q2 -34 11 -45t44 -11h20q6 0 6 -4.5t-6 -4.5q-9 0 -22 0.5t-40 1.5q-17 1 -23.5 1h-9.5h-9.5t-22.5 -1l-36 -1.5t-20 -0.5q-6 0 -6 4.5t6 4.5h13q35 0 44 11t11 45q1 13 1.5 32.5t0.5 61.5zM45 784q-5 0 -17.5 -1t-12.5 1q0 5 4 13t11 17h67q36 0 55.5 0.5
t39.5 1.5q10 0 20 1t10 -1q0 -5 -4 -13t-11 -17h-83q-32 0 -46.5 -0.5t-32.5 -1.5z" />
    <glyph glyph-name="imacron" unicode="&#x12b;" horiz-adv-x="186" 
d="M0 0zM66 1q-21 -1 -32 -1h-20q-6 0 -6 4.5t6 4.5q41 0 51 9t10 52v342q0 40 -10.5 47t-53.5 -5q-6 -2 -7 2t5 6q27 7 48.5 16.5t44.5 26.5q2 1 5 0.5t3 -2.5v-433q0 -42 10 -51.5t51 -9.5q6 0 6 -4.5t-6 -4.5h-19.5t-30.5 1q-13 1 -18.5 1h-8.5h-8.5t-19.5 -1zM16 591
q-5 0 -17.5 -1t-12.5 1q0 5 4 13t11 17h67q36 0 55.5 0.5t39.5 1.5q10 0 20 1t10 -1q0 -5 -4 -13t-11 -17h-83q-32 0 -46.5 -0.5t-32.5 -1.5z" />
    <glyph glyph-name="Ibreve" unicode="&#x12c;" horiz-adv-x="237" 
d="M0 0zM97 159v375q0 44 -0.5 63t-1.5 32q-2 33 -10.5 44t-44.5 11h-13q-6 0 -6 4.5t6 4.5q8 0 20 -0.5l36 -1.5q16 -1 22.5 -1h9.5h9.5t23.5 1q27 1 40 1.5t22 0.5q6 0 6 -4.5t-6 -4.5h-20q-36 0 -44.5 -11t-10.5 -44q-1 -13 -1.5 -32t-0.5 -63v-375q0 -42 0.5 -61.5
t1.5 -32.5q2 -34 11 -45t44 -11h20q6 0 6 -4.5t-6 -4.5q-9 0 -22 0.5t-40 1.5q-17 1 -23.5 1h-9.5h-9.5t-22.5 -1l-36 -1.5t-20 -0.5q-6 0 -6 4.5t6 4.5h13q35 0 44 11t11 45q1 13 1.5 32.5t0.5 61.5zM242 858q-18 -44 -49.5 -69t-72.5 -26q-40 0 -73 21.5t-50 58.5
q-4 8 -1 14t13 10q9 3 14 1.5t8 -7.5q17 -39 44 -61t56 -22q38 0 61.5 21.5t30.5 62.5q1 3 3.5 5t6.5 2q5 0 7.5 -3.5t1.5 -7.5z" />
    <glyph glyph-name="ibreve" unicode="&#x12d;" horiz-adv-x="186" 
d="M0 0zM66 1q-21 -1 -32 -1h-20q-6 0 -6 4.5t6 4.5q41 0 51 9t10 52v342q0 40 -10.5 47t-53.5 -5q-6 -2 -7 2t5 6q27 7 48.5 16.5t44.5 26.5q2 1 5 0.5t3 -2.5v-433q0 -42 10 -51.5t51 -9.5q6 0 6 -4.5t-6 -4.5h-19.5t-30.5 1q-13 1 -18.5 1h-8.5h-8.5t-19.5 -1zM213 665
q-18 -44 -49.5 -69t-72.5 -26q-40 0 -73 21.5t-50 58.5q-4 8 -1 14t13 10q9 3 14 1.5t8 -7.5q17 -39 44 -61t56 -22q38 0 61.5 21.5t30.5 62.5q1 3 3.5 5t6.5 2q5 0 7.5 -3.5t1.5 -7.5z" />
    <glyph glyph-name="Iogonek" unicode="&#x12e;" horiz-adv-x="237" 
d="M75 -115q0 -33 18 -52.5t48 -19.5q18 0 31.5 4t27.5 15q4 3 -2.5 -15.5t-13.5 -23.5q-8 -7 -22 -10.5t-30 -3.5q-38 0 -60 22.5t-22 59.5t23 73.5t66 67.5q-6 1 -11.5 1h-12.5h-9.5t-22.5 -1l-36 -1.5t-20 -0.5q-6 0 -6 4.5t6 4.5h13q35 0 44 11t11 45q1 13 1.5 32.5
t0.5 61.5v375q0 44 -0.5 63t-1.5 32q-2 33 -10.5 44t-44.5 11h-13q-6 0 -6 4.5t6 4.5q8 0 20 -0.5l36 -1.5q16 -1 22.5 -1h9.5h9.5t23.5 1q27 1 40 1.5t22 0.5q6 0 6 -4.5t-6 -4.5h-20q-36 0 -44.5 -11t-10.5 -44q-1 -13 -1.5 -32t-0.5 -63v-375q0 -42 0.5 -61.5t1.5 -32.5
q2 -34 11 -45t44 -11h20q6 0 6 -4.5t-6 -4.5q-9 0 -23.5 0.5t-34.5 1.5q-40 -28 -58.5 -55.5t-18.5 -61.5z" />
    <glyph glyph-name="iogonek" unicode="&#x12f;" horiz-adv-x="186" 
d="M120 670q0 -13 -9 -22t-22 -9t-22 9t-9 22t9 22t22 9t22 -9t9 -22zM66 1q-21 -1 -32 -1h-20q-6 0 -6 4.5t6 4.5q41 0 51 9t10 52v342q0 40 -10.5 47t-53.5 -5q-6 -2 -7 2t5 6q27 7 48.5 16.5t44.5 26.5q2 1 5 0.5t3 -2.5v-433q0 -42 10 -51.5t51 -9.5q6 0 6 -4.5t-6 -4.5
h-9.5t-15.5 1h-13.5h-8.5q-40 -29 -58 -56t-18 -60t18 -52.5t48 -19.5q18 0 31.5 4t27.5 15q4 3 -2.5 -15.5t-13.5 -23.5q-8 -7 -22 -10.5t-30 -3.5q-38 0 -60 22.5t-22 59.5t22.5 74t65.5 67h-8.5h-8.5h-8.5t-19.5 -1z" />
    <glyph glyph-name="Idotaccent" unicode="&#x130;" horiz-adv-x="237" 
d="M21 0zM97 159v375q0 44 -0.5 63t-1.5 32q-2 33 -10.5 44t-44.5 11h-13q-6 0 -6 4.5t6 4.5q8 0 20 -0.5l36 -1.5q16 -1 22.5 -1h9.5h9.5t23.5 1q27 1 40 1.5t22 0.5q6 0 6 -4.5t-6 -4.5h-20q-36 0 -44.5 -11t-10.5 -44q-1 -13 -1.5 -32t-0.5 -63v-375q0 -42 0.5 -61.5
t1.5 -32.5q2 -34 11 -45t44 -11h20q6 0 6 -4.5t-6 -4.5q-9 0 -22 0.5t-40 1.5q-17 1 -23.5 1h-9.5h-9.5t-22.5 -1l-36 -1.5t-20 -0.5q-6 0 -6 4.5t6 4.5h13q35 0 44 11t11 45q1 13 1.5 32.5t0.5 61.5zM118 812q-13 0 -22 9t-9 22t9 22t22 9t22 -9t9 -22t-9 -22t-22 -9z" />
    <glyph glyph-name="dotlessi" unicode="&#x131;" horiz-adv-x="186" 
d="M66 1q-21 -1 -32 -1h-20q-6 0 -6 4.5t6 4.5q41 0 51 9t10 52v342q0 40 -10.5 47t-53.5 -5q-6 -2 -7 2t5 6q27 7 48.5 16.5t44.5 26.5q2 1 5 0.5t3 -2.5v-433q0 -42 10 -51.5t51 -9.5q6 0 6 -4.5t-6 -4.5h-19.5t-30.5 1q-13 1 -18.5 1h-8.5h-8.5t-19.5 -1z" />
    <glyph glyph-name="IJ" unicode="&#x132;" horiz-adv-x="490" 
d="M21 0zM97 159v375q0 44 -0.5 63t-1.5 32q-2 33 -10.5 44t-44.5 11h-13q-6 0 -6 4.5t6 4.5q8 0 20 -0.5l36 -1.5q16 -1 22.5 -1h9.5h9.5t23.5 1q27 1 40 1.5t22 0.5q6 0 6 -4.5t-6 -4.5h-20q-36 0 -44.5 -11t-10.5 -44q-1 -13 -1.5 -32t-0.5 -63v-375q0 -42 0.5 -61.5
t1.5 -32.5q2 -34 11 -45t44 -11h20q6 0 6 -4.5t-6 -4.5q-9 0 -22 0.5t-40 1.5q-17 1 -23.5 1h-9.5h-9.5t-22.5 -1l-36 -1.5t-20 -0.5q-6 0 -6 4.5t6 4.5h13q35 0 44 11t11 45q1 13 1.5 32.5t0.5 61.5zM288 -119q-36 -36 -65.5 -55t-65.5 -27q-16 0 -24.5 4.5t-8.5 12.5
q0 16 13 29.5t33 14.5q46 2 73.5 10t45.5 29q31 34 42.5 70t15.5 103q2 32 3 76.5t1 110.5v275v38v25q-1 24 -2 38.5t-3 23.5q-4 14 -11.5 19.5t-37.5 5.5h-26q-6 0 -6 4.5t6 4.5q9 0 22.5 -0.5t42.5 -1.5q19 -1 25.5 -1h9.5h9.5t24.5 1l39 1.5t21 0.5q6 0 6 -4.5t-6 -4.5
h-20q-36 0 -44 -11t-11 -44q0 -13 -0.5 -32t-0.5 -63v-215v-17v-34q1 -25 1 -36v-19q0 -120 -23.5 -198t-78.5 -134z" />
    <glyph glyph-name="ij" unicode="&#x133;" horiz-adv-x="365" 
d="M4 0zM120 670q0 -13 -9 -22t-22 -9t-22 9t-9 22t9 22t22 9t22 -9t9 -22zM66 1q-21 -1 -32 -1h-20q-6 0 -6 4.5t6 4.5q41 0 51 9t10 52v342q0 40 -10.5 47t-53.5 -5q-6 -2 -7 2t5 6q27 7 48.5 16.5t44.5 26.5q2 1 5 0.5t3 -2.5v-433q0 -42 10 -51.5t51 -9.5q6 0 6 -4.5
t-6 -4.5h-19.5t-30.5 1q-13 1 -18.5 1h-8.5h-8.5t-19.5 -1zM301 670q0 -13 -9 -22t-22 -9t-22 9t-9 22t9 22t22 9t22 -9t9 -22zM229 -186q-31 -37 -54 -55t-41 -18q-13 0 -23 4.5t-10 10.5q0 12 12.5 25t25.5 13q33 0 52.5 5t28.5 16q24 28 30.5 67.5t6.5 118.5v411
q0 39 -11 46.5t-54 -4.5q-6 -2 -7 2t5 6q27 7 48.5 16.5t44.5 26.5q2 1 5 0.5t3 -2.5v-471q0 -87 -14 -131.5t-48 -86.5z" />
    <glyph glyph-name="Jcircumflex" unicode="&#x134;" horiz-adv-x="249" 
d="M0 0zM51 -119q-36 -36 -65.5 -55t-65.5 -27q-16 0 -24.5 4.5t-8.5 12.5q0 16 13 29.5t33 14.5q46 2 73.5 10t45.5 29q31 34 42.5 70t15.5 103q2 32 3 76.5t1 110.5v275v38v25q-1 24 -2 38.5t-3 23.5q-4 14 -11.5 19.5t-37.5 5.5h-26q-6 0 -6 4.5t6 4.5q9 0 22.5 -0.5
t42.5 -1.5q19 -1 25.5 -1h9.5h9.5t24.5 1l39 1.5t21 0.5q6 0 6 -4.5t-6 -4.5h-20q-36 0 -44 -11t-11 -44q0 -13 -0.5 -32t-0.5 -63v-215v-17v-34q1 -25 1 -36v-19q0 -120 -23.5 -198t-78.5 -134zM138 897q-2 2 -4 2t-3 -2q-15 -16 -32 -39t-57 -83q-8 -11 -14 -15t-13 -4
q-8 0 -13 3.5t-5 9.5t5 13.5t16 18.5q47 46 69 66t43 39q2 1 5 1t4 -1q15 -12 30.5 -25.5t43.5 -37.5q18 -17 27 -24.5t16 -13.5q11 -9 16 -16.5t5 -13.5t-5 -11t-12 -5q-8 0 -14 4t-16 17q-33 46 -54 72t-38 45z" />
    <glyph glyph-name="jcircumflex" unicode="&#x135;" horiz-adv-x="184" 
d="M0 0zM48 -186q-31 -37 -54 -55t-41 -18q-13 0 -23 4.5t-10 10.5q0 12 12.5 25t25.5 13q33 0 52.5 5t28.5 16q24 28 30.5 67.5t6.5 118.5v411q0 39 -11 46.5t-54 -4.5q-6 -2 -7 2t5 6q27 7 48.5 16.5t44.5 26.5q2 1 5 0.5t3 -2.5v-471q0 -87 -14 -131.5t-48 -86.5zM89 704
q-2 2 -4 2t-3 -2q-15 -16 -32 -39t-57 -83q-8 -11 -14 -15t-13 -4q-8 0 -13 3.5t-5 9.5t5 13.5t16 18.5q47 46 69 66t43 39q2 1 5 1t4 -1q15 -12 30.5 -25.5t43.5 -37.5q18 -17 27 -24.5t16 -13.5q11 -9 16 -16.5t5 -13.5t-5 -11t-12 -5q-8 0 -14 4t-16 17q-33 46 -54 72
t-38 45z" />
    <glyph glyph-name="uni0136" unicode="&#x136;" horiz-adv-x="662" 
d="M13 0zM52 1q-19 -1 -25 -1h-8q-6 0 -6 4.5t6 4.5q16 0 28 0.5t18 1.5q11 9 15.5 22.5t5.5 44.5q1 27 1.5 81t0.5 142v233q0 36 -0.5 57t-1.5 36q-3 34 -11.5 45.5t-40.5 11.5h-13q-6 0 -6 4.5t6 4.5q8 0 20 -0.5t35 -1.5q16 -1 22 -1h9h9t22 1q26 1 38.5 1.5t21.5 0.5
q6 0 6 -4.5t-6 -4.5h-20q-32 0 -40.5 -11.5t-11.5 -45.5q-1 -15 -1.5 -36t-0.5 -57v-283l289 310q34 37 47.5 57t13.5 36q0 15 -12.5 23t-33.5 8q-5 0 -10.5 -0.5t-13.5 -2.5q-3 -1 -4 -1h-2q-4 0 -6.5 2t-2.5 4q0 3 3 4.5t8 1.5h16t40 -1q28 -1 38.5 -1h14.5q15 0 30.5 0.5
t40.5 0.5q16 1 22.5 1h12.5q5 0 5 -4.5t-5 -4.5h-2q-44 0 -70.5 -15.5t-116.5 -110.5l-174 -184q17 9 38.5 14.5t43.5 5.5q27 0 50 -8.5t40 -25.5q19 -18 34.5 -48.5t35.5 -89.5q15 -45 27 -77t23 -55q22 -49 43 -67t57 -15l12 1q6 1 5.5 -4t-7.5 -5h-31h-9.5t-12.5 -1
t-12 -1h-8q-15 0 -26 5.5t-21 20.5q-14 20 -29.5 55.5t-33.5 91.5q-15 45 -27.5 77.5t-23.5 55.5q-22 43 -44.5 60.5t-62.5 17.5q-26 0 -47 -9.5t-42 -29.5l-100 -105v-85q0 -35 0.5 -55.5t1.5 -34.5q3 -32 11.5 -43t40.5 -11h20q6 0 6 -4.5t-6 -4.5q-9 0 -21 0.5t-37 0.5
q-16 1 -22 1h-9h-16.5t-40.5 -1zM397 -128q0 -29 -14 -52t-38 -35q-3 -1 -4 1t2 4q21 11 30.5 28t9.5 44q0 6 -1.5 11.5t-4.5 9.5q-3 -6 -8 -9t-12 -3q-11 0 -18.5 7t-7.5 17q0 12 8.5 20.5t21.5 8.5q15 0 25.5 -14.5t10.5 -37.5z" />
    <glyph glyph-name="uni0137" unicode="&#x137;" horiz-adv-x="539" 
d="M0 0zM141 1q-22 0 -31.5 0.5t-14.5 0.5h-8t-16 -1q-18 -1 -27.5 -1h-18.5q-6 0 -6 4.5t6 4.5q30 0 37.5 16t7.5 94v580q0 44 -10 56t-54 4q-6 -1 -6 3.5t6 5.5q43 8 59.5 16t28.5 24q2 3 6.5 2t4.5 -4v-647l220 223q36 37 48.5 54t12.5 29q0 15 -14.5 20t-57.5 5
q-5 0 -5 4.5t5 4.5q8 0 22 -0.5t44 -0.5q18 -1 24.5 -1h9.5q4 0 18.5 0.5t51.5 0.5q23 1 30 1h9q5 0 5 -4.5t-5 -4.5q-52 0 -85.5 -21t-105.5 -93l-47 -48l95 -152q66 -107 97.5 -137t69.5 -30q6 0 6.5 -4.5t-6.5 -4.5h-42q-20 0 -31 2t-19 8q-15 10 -33.5 34t-64.5 99
l-98 159l-154 -155v-138h61q6 0 6 -4.5t-6 -4.5h-6.5t-18.5 1zM325 -128q0 -29 -14 -52t-38 -35q-3 -1 -4 1t2 4q21 11 30.5 28t9.5 44q0 6 -1.5 11.5t-4.5 9.5q-3 -6 -8 -9t-12 -3q-11 0 -18.5 7t-7.5 17q0 12 8.5 20.5t21.5 8.5q15 0 25.5 -14.5t10.5 -37.5z" />
    <glyph glyph-name="kgreenlandic" unicode="&#x138;" horiz-adv-x="541" 
d="M73 119v285q0 35 -12 43t-52 -2q-6 -1 -7.5 3t4.5 5q44 11 61.5 22t30.5 31q2 2 6 1.5t4 -4.5v-344l220 223q36 37 48.5 54t12.5 29q0 15 -14.5 20t-57.5 5q-5 0 -5 4.5t5 4.5q8 0 22 -0.5t44 -0.5q18 -1 24.5 -1h9.5q4 0 18.5 0.5t51.5 0.5q23 1 30 1h9q5 0 5 -4.5
t-5 -4.5q-52 0 -85.5 -21t-105.5 -93l-47 -48l95 -152q66 -107 97.5 -137t69.5 -30q6 0 6.5 -4.5t-6.5 -4.5h-42q-20 0 -31 2t-19 8q-15 10 -33.5 34t-64.5 99l-98 159l-154 -155v-138h63q6 0 6 -4.5t-6 -4.5h-7t-20 1q-23 1 -32.5 1h-14.5h-8.5t-14.5 -1q-15 0 -25 -0.5
t-21 -0.5q-6 0 -6 4.5t6 4.5q30 0 37.5 16t7.5 94z" />
    <glyph glyph-name="Lacute" unicode="&#x139;" horiz-adv-x="568" 
d="M8 0zM157 3l-141 -3q-8 0 -8 3.5t8 3.5q45 0 56.5 16.5t17.5 83.5q2 21 2.5 56.5t0.5 86.5q0 33 -0.5 83.5t-0.5 59.5v30v62q-1 49 -1 71v37q0 34 -1.5 48.5t-4.5 22.5q-4 12 -14.5 16t-47.5 4q-6 0 -6 4.5t6 4.5h8t24 -1q27 -1 38 -1h16h10.5t28.5 1q32 1 46.5 1h23.5
q6 0 6 -4.5t-6 -4.5h-28q-44 0 -53 -13.5t-9 -77.5v-432q0 -51 -2.5 -91.5t-5.5 -55.5h18.5t46.5 -1q68 -2 97.5 -2h42.5q77 2 107.5 12.5t46.5 36.5q12 20 21 55t20 111l12 84q1 5 5.5 5t3.5 -6l-10 -83q-20 -168 -24.5 -193t-7.5 -28t-35.5 -4t-97.5 -1q-35 0 -87.5 1
t-121.5 2zM204 863q-45 -35 -74 -60.5t-54 -50.5q-1 -1 -2 -1.5t-2 -0.5t-2.5 1.5t-1.5 2.5t0.5 1.5l2.5 2.5q23 23 48 52t61 75q10 14 13.5 18t5.5 6q4 4 7.5 5.5t8.5 1.5q6 0 12 -5.5t6 -11.5q0 -5 -2 -9.5t-7 -9.5q-2 -2 -5.5 -5t-14.5 -12z" />
    <glyph glyph-name="lacute" unicode="&#x13a;" horiz-adv-x="183" 
d="M0 0zM66 1q-14 -1 -23 -1h-18q-6 0 -6 4.5t6 4.5q30 0 37.5 16t7.5 94v584q0 41 -10 52.5t-54 3.5q-6 -1 -6 3.5t6 5.5q41 7 59.5 15.5t27.5 23.5q2 4 7 3.5t5 -4.5v-687q0 -31 0.5 -49t0.5 -24q3 -22 13 -29.5t37 -7.5q6 0 6 -4.5t-6 -4.5h-18.5t-26.5 1q-11 1 -16 1h-8
h-7.5t-13.5 -1zM181 947q-45 -35 -74 -60.5t-54 -50.5q-1 -1 -2 -1.5t-2 -0.5t-2.5 1.5t-1.5 2.5t0.5 1.5l2.5 2.5q23 23 48 52t61 75q10 14 13.5 18t5.5 6q4 4 7.5 5.5t8.5 1.5q6 0 12 -5.5t6 -11.5q0 -5 -2 -9.5t-7 -9.5q-2 -2 -5.5 -5t-14.5 -12z" />
    <glyph glyph-name="uni013B" unicode="&#x13b;" horiz-adv-x="568" 
d="M8 0zM157 3l-141 -3q-8 0 -8 3.5t8 3.5q45 0 56.5 16.5t17.5 83.5q2 21 2.5 56.5t0.5 86.5q0 33 -0.5 83.5t-0.5 59.5v30v62q-1 49 -1 71v37q0 34 -1.5 48.5t-4.5 22.5q-4 12 -14.5 16t-47.5 4q-6 0 -6 4.5t6 4.5h8t24 -1q27 -1 38 -1h16h10.5t28.5 1q32 1 46.5 1h23.5
q6 0 6 -4.5t-6 -4.5h-28q-44 0 -53 -13.5t-9 -77.5v-432q0 -51 -2.5 -91.5t-5.5 -55.5h18.5t46.5 -1q68 -2 97.5 -2h42.5q77 2 107.5 12.5t46.5 36.5q12 20 21 55t20 111l12 84q1 5 5.5 5t3.5 -6l-10 -83q-20 -168 -24.5 -193t-7.5 -28t-35.5 -4t-97.5 -1q-35 0 -87.5 1
t-121.5 2zM344 -128q0 -29 -14 -52t-38 -35q-3 -1 -4 1t2 4q21 11 30.5 28t9.5 44q0 6 -1.5 11.5t-4.5 9.5q-3 -6 -8 -9t-12 -3q-11 0 -18.5 7t-7.5 17q0 12 8.5 20.5t21.5 8.5q15 0 25.5 -14.5t10.5 -37.5z" />
    <glyph glyph-name="uni013C" unicode="&#x13c;" horiz-adv-x="183" 
d="M0 0zM66 1q-14 -1 -23 -1h-18q-6 0 -6 4.5t6 4.5q30 0 37.5 16t7.5 94v584q0 41 -10 52.5t-54 3.5q-6 -1 -6 3.5t6 5.5q41 7 59.5 15.5t27.5 23.5q2 4 7 3.5t5 -4.5v-687q0 -31 0.5 -49t0.5 -24q3 -22 13 -29.5t37 -7.5q6 0 6 -4.5t-6 -4.5h-18.5t-26.5 1q-11 1 -16 1h-8
h-7.5t-13.5 -1zM129 -128q0 -29 -14 -52t-38 -35q-3 -1 -4 1t2 4q21 11 30.5 28t9.5 44q0 6 -1.5 11.5t-4.5 9.5q-3 -6 -8 -9t-12 -3q-11 0 -18.5 7t-7.5 17q0 12 8.5 20.5t21.5 8.5q15 0 25.5 -14.5t10.5 -37.5z" />
    <glyph glyph-name="Lcaron" unicode="&#x13d;" horiz-adv-x="568" 
d="M8 0zM157 3l-141 -3q-8 0 -8 3.5t8 3.5q45 0 56.5 16.5t17.5 83.5q2 21 2.5 56.5t0.5 86.5q0 33 -0.5 83.5t-0.5 59.5v30v62q-1 49 -1 71v37q0 34 -1.5 48.5t-4.5 22.5q-4 12 -14.5 16t-47.5 4q-6 0 -6 4.5t6 4.5h8t24 -1q27 -1 38 -1h16h10.5t28.5 1q32 1 46.5 1h23.5
q6 0 6 -4.5t-6 -4.5h-28q-44 0 -53 -13.5t-9 -77.5v-432q0 -51 -2.5 -91.5t-5.5 -55.5h18.5t46.5 -1q68 -2 97.5 -2h42.5q77 2 107.5 12.5t46.5 36.5q12 20 21 55t20 111l12 84q1 5 5.5 5t3.5 -6l-10 -83q-20 -168 -24.5 -193t-7.5 -28t-35.5 -4t-97.5 -1q-35 0 -87.5 1
t-121.5 2zM332 654q-6 11 -8 15.5t-2 7.5q0 7 7.5 16t13.5 9q14 0 24 -27.5t10 -68.5q0 -24 -5 -49t-26 -85q-1 -4 -5.5 -3t-2.5 5q14 43 17.5 60t3.5 36t-5.5 38t-21.5 46z" />
    <glyph glyph-name="lcaron" unicode="&#x13e;" horiz-adv-x="183" 
d="M0 0zM66 1q-14 -1 -23 -1h-18q-6 0 -6 4.5t6 4.5q30 0 37.5 16t7.5 94v584q0 41 -10 52.5t-54 3.5q-6 -1 -6 3.5t6 5.5q41 7 59.5 15.5t27.5 23.5q2 4 7 3.5t5 -4.5v-687q0 -31 0.5 -49t0.5 -24q3 -22 13 -29.5t37 -7.5q6 0 6 -4.5t-6 -4.5h-18.5t-26.5 1q-11 1 -16 1h-8
h-7.5t-13.5 -1zM193 765q-6 11 -8 15.5t-2 7.5q0 7 7.5 16t13.5 9q14 0 24 -27.5t10 -68.5q0 -24 -5 -49t-26 -85q-1 -4 -5.5 -3t-2.5 5q14 43 17.5 60t3.5 36t-5.5 38t-21.5 46z" />
    <glyph glyph-name="Ldot" unicode="&#x13f;" horiz-adv-x="568" 
d="M157 3l-141 -3q-8 0 -8 3.5t8 3.5q45 0 56.5 16.5t17.5 83.5q2 21 2.5 56.5t0.5 86.5q0 33 -0.5 83.5t-0.5 59.5q0 12 -0.5 30t-0.5 62q-1 49 -1.5 71t-0.5 37q0 66 -8.5 78.5t-57.5 12.5q-6 0 -6 4.5t6 4.5h8t24 -1q27 -1 38 -1h16h10.5t28.5 1q32 1 46.5 1h23.5
q6 0 6 -4.5t-6 -4.5h-28q-42 0 -50.5 -12t-8.5 -79v-432q0 -51 -2.5 -91.5t-5.5 -55.5h19t48 -1q63 -2 88.5 -2h35.5q71 1 106.5 14t54.5 42q15 22 24.5 59t20.5 114l10 71q1 5 6.5 4.5t4.5 -5.5l-9 -72q-4 -32 -16 -130t-17 -102q-3 -3 -39.5 -4.5t-93.5 -1.5
q-35 0 -87.5 1t-121.5 2zM396 356q-14 0 -23.5 9.5t-9.5 23.5t9.5 24t23.5 10t23.5 -10t9.5 -24t-9.5 -23.5t-23.5 -9.5z" />
    <glyph glyph-name="ldot" unicode="&#x140;" horiz-adv-x="279" 
d="M0 0zM66 1q-14 -1 -23 -1h-18q-6 0 -6 4.5t6 4.5q30 0 37.5 16t7.5 94v584q0 41 -10 52.5t-54 3.5q-6 -1 -6 3.5t6 5.5q41 7 59.5 15.5t27.5 23.5q2 4 7 3.5t5 -4.5v-687q0 -31 0.5 -49t0.5 -24q3 -22 13 -29.5t37 -7.5q6 0 6 -4.5t-6 -4.5h-18.5t-26.5 1q-11 1 -16 1h-8
h-7.5t-13.5 -1zM227 340q-14 0 -23.5 9.5t-9.5 23.5t9.5 24t23.5 10t23.5 -10t9.5 -24t-9.5 -23.5t-23.5 -9.5z" />
    <glyph glyph-name="Lslash" unicode="&#x141;" horiz-adv-x="568" 
d="M157 3l-141 -3q-8 0 -8 3.5t8 3.5q45 0 56.5 16.5t17.5 83.5q2 28 3 83t0 124q-37 -22 -55.5 -33.5t-34.5 -21.5q-2 5 -2 12.5t2 8.5q20 10 43.5 21.5t46.5 23.5q-1 15 -1 31v37v30v62q-1 49 -1 71v37q0 34 -1.5 48.5t-4.5 22.5q-4 12 -14.5 16t-47.5 4q-6 0 -6 4.5
t6 4.5h8t24 -1q27 -1 38 -1h16h10.5t28.5 1q32 1 46.5 1h23.5q6 0 6 -4.5t-6 -4.5h-28q-44 0 -53 -13.5t-9 -77.5v-252q6 3 12.5 6.5t31.5 18.5q91 53 124 73.5t64 41.5q4 -2 4.5 -9t-3.5 -12q-38 -19 -105 -55.5t-73 -39.5q-22 -14 -33.5 -20.5t-21.5 -12.5v-171
q0 -51 -2.5 -91.5t-5.5 -55.5h18.5t46.5 -1q68 -2 97.5 -2h42.5q77 2 107.5 12.5t46.5 36.5q12 20 21 55t20 111l12 84q1 5 5.5 5t3.5 -6l-10 -83q-20 -168 -24.5 -193t-7.5 -28t-35.5 -4t-97.5 -1q-35 0 -87.5 1t-121.5 2z" />
    <glyph glyph-name="lslash" unicode="&#x142;" horiz-adv-x="245" 
d="M101 1q-14 -1 -23 -1h-18q-6 0 -6 4.5t6 4.5q30 0 37.5 16t7.5 94v253q-39 -25 -63.5 -41.5t-44.5 -32.5q-5 3 -4.5 11.5t5.5 14.5q31 15 56.5 28.5t50.5 27.5v323q0 41 -10 52.5t-54 3.5q-6 -1 -6 3.5t6 5.5q41 7 59.5 15.5t27.5 23.5q2 4 7 3.5t5 -4.5v-409
q32 21 58.5 39t51.5 37q5 -3 4.5 -11.5t-5.5 -14.5q-9 -5 -19 -10t-30 -16q-24 -12 -36.5 -18.5t-23.5 -12.5v-271q0 -31 0.5 -49t0.5 -24q3 -22 13 -29.5t37 -7.5q6 0 6 -4.5t-6 -4.5h-18.5t-26.5 1q-11 1 -16 1h-8h-7.5t-13.5 -1z" />
    <glyph glyph-name="Nacute" unicode="&#x143;" horiz-adv-x="696" 
d="M0 0zM597 -3q-5 0 -9 3.5t-15 18.5l-462 605l-1 -515q0 -31 5.5 -51t17.5 -31q10 -10 27 -14t55 -4h14q5 0 5 -4.5t-5 -4.5h-29.5t-61.5 2q-19 1 -25 1h-9h-9.5t-22.5 -1l-36 -1.5t-20 -0.5q-6 0 -6 4.5t7 4.5h6q43 1 58 23.5t16 76.5l1 509q0 10 -3.5 18t-10.5 15
q-18 18 -37 26t-44 8h-4q-5 0 -5 4t5 4q28 0 50 1t40 2q3 1 4.5 1h2.5q4 0 6 -1.5t4 -4.5q5 -10 15.5 -24.5t22.5 -28.5l449 -582v488q0 46 -3 71t-11 39q-8 17 -26.5 23.5t-73.5 6.5h-14q-6 0 -6 4.5t6 4.5q9 0 26.5 -0.5t59.5 -1.5q26 -1 35.5 -1h12.5h8t18 1q21 1 32 1.5
t20 0.5q6 0 6 -4.5t-6 -4.5h-7q-34 0 -44.5 -11t-14.5 -39q-3 -15 -4 -37t-1 -53v-537q0 -5 -2.5 -7.5t-6.5 -2.5zM454 863q-45 -35 -74 -60.5t-54 -50.5q-1 -1 -2 -1.5t-2 -0.5t-2.5 1.5t-1.5 2.5t0.5 1.5l2.5 2.5q23 23 48 52t61 75q10 14 13.5 18t5.5 6q4 4 7.5 5.5
t8.5 1.5q6 0 12 -5.5t6 -11.5q0 -5 -2 -9.5t-7 -9.5q-2 -2 -5.5 -5t-14.5 -12z" />
    <glyph glyph-name="nacute" unicode="&#x144;" horiz-adv-x="562" 
d="M22 0zM65 1q-12 -1 -20 -1h-17q-6 0 -6 4.5t6 4.5q30 0 37.5 16t7.5 94v220q0 35 -11 69t-28 49q-2 2 -2 3.5t2 2.5q16 9 21 12.5t11 9.5q2 2 3 1.5t3 -2.5q16 -18 25.5 -49t10.5 -67q51 72 104.5 107t113.5 35q83 0 126 -54t43 -160v-198q0 -23 1 -37.5t3 -23.5
q3 -16 10.5 -22t33.5 -6q6 0 6 -4.5t-6 -4.5h-6.5t-17.5 1q-21 0 -30.5 0.5t-14.5 0.5h-7.5t-14.5 -1q-16 -1 -25 -1h-18q-6 0 -6 4.5t6 4.5q34 0 42.5 18t8.5 77v188q0 99 -36.5 147t-112.5 48q-54 0 -104.5 -32.5t-98.5 -98.5v-347h52q6 0 6 -4.5t-6 -4.5h-7t-20 1
q-24 0 -34 0.5t-15 0.5h-7t-12 -1zM385 670q-45 -35 -74 -60.5t-54 -50.5q-1 -1 -2 -1.5t-2 -0.5t-2.5 1.5t-1.5 2.5t0.5 1.5l2.5 2.5q23 23 48 52t61 75q10 14 13.5 18t5.5 6q4 4 7.5 5.5t8.5 1.5q6 0 12 -5.5t6 -11.5q0 -5 -2 -9.5t-7 -9.5q-2 -2 -5.5 -5t-14.5 -12z" />
    <glyph glyph-name="uni0145" unicode="&#x145;" horiz-adv-x="696" 
d="M0 0zM597 -3q-5 0 -9 3.5t-15 18.5l-462 605l-1 -515q0 -31 5.5 -51t17.5 -31q10 -10 27 -14t55 -4h14q5 0 5 -4.5t-5 -4.5h-29.5t-61.5 2q-19 1 -25 1h-9h-9.5t-22.5 -1l-36 -1.5t-20 -0.5q-6 0 -6 4.5t7 4.5h6q43 1 58 23.5t16 76.5l1 509q0 10 -3.5 18t-10.5 15
q-18 18 -37 26t-44 8h-4q-5 0 -5 4t5 4q28 0 50 1t40 2q3 1 4.5 1h2.5q4 0 6 -1.5t4 -4.5q5 -10 15.5 -24.5t22.5 -28.5l449 -582v488q0 46 -3 71t-11 39q-8 17 -26.5 23.5t-73.5 6.5h-14q-6 0 -6 4.5t6 4.5q9 0 26.5 -0.5t59.5 -1.5q26 -1 35.5 -1h12.5h8t18 1q21 1 32 1.5
t20 0.5q6 0 6 -4.5t-6 -4.5h-7q-34 0 -44.5 -11t-14.5 -39q-3 -15 -4 -37t-1 -53v-537q0 -5 -2.5 -7.5t-6.5 -2.5zM413 -128q0 -29 -14 -52t-38 -35q-3 -1 -4 1t2 4q21 11 30.5 28t9.5 44q0 6 -1.5 11.5t-4.5 9.5q-3 -6 -8 -9t-12 -3q-11 0 -18.5 7t-7.5 17q0 12 8.5 20.5
t21.5 8.5q15 0 25.5 -14.5t10.5 -37.5z" />
    <glyph glyph-name="uni0146" unicode="&#x146;" horiz-adv-x="562" 
d="M22 0zM65 1q-12 -1 -20 -1h-17q-6 0 -6 4.5t6 4.5q30 0 37.5 16t7.5 94v220q0 35 -11 69t-28 49q-2 2 -2 3.5t2 2.5q16 9 21 12.5t11 9.5q2 2 3 1.5t3 -2.5q16 -18 25.5 -49t10.5 -67q51 72 104.5 107t113.5 35q83 0 126 -54t43 -160v-198q0 -23 1 -37.5t3 -23.5
q3 -16 10.5 -22t33.5 -6q6 0 6 -4.5t-6 -4.5h-6.5t-17.5 1q-21 0 -30.5 0.5t-14.5 0.5h-7.5t-14.5 -1q-16 -1 -25 -1h-18q-6 0 -6 4.5t6 4.5q34 0 42.5 18t8.5 77v188q0 99 -36.5 147t-112.5 48q-54 0 -104.5 -32.5t-98.5 -98.5v-347h52q6 0 6 -4.5t-6 -4.5h-7t-20 1
q-24 0 -34 0.5t-15 0.5h-7t-12 -1zM325 -128q0 -29 -14 -52t-38 -35q-3 -1 -4 1t2 4q21 11 30.5 28t9.5 44q0 6 -1.5 11.5t-4.5 9.5q-3 -6 -8 -9t-12 -3q-11 0 -18.5 7t-7.5 17q0 12 8.5 20.5t21.5 8.5q15 0 25.5 -14.5t10.5 -37.5z" />
    <glyph glyph-name="Ncaron" unicode="&#x147;" horiz-adv-x="696" 
d="M0 0zM597 -3q-5 0 -9 3.5t-15 18.5l-462 605l-1 -515q0 -31 5.5 -51t17.5 -31q10 -10 27 -14t55 -4h14q5 0 5 -4.5t-5 -4.5h-29.5t-61.5 2q-19 1 -25 1h-9h-9.5t-22.5 -1l-36 -1.5t-20 -0.5q-6 0 -6 4.5t7 4.5h6q43 1 58 23.5t16 76.5l1 509q0 10 -3.5 18t-10.5 15
q-18 18 -37 26t-44 8h-4q-5 0 -5 4t5 4q28 0 50 1t40 2q3 1 4.5 1h2.5q4 0 6 -1.5t4 -4.5q5 -10 15.5 -24.5t22.5 -28.5l449 -582v488q0 46 -3 71t-11 39q-8 17 -26.5 23.5t-73.5 6.5h-14q-6 0 -6 4.5t6 4.5q9 0 26.5 -0.5t59.5 -1.5q26 -1 35.5 -1h12.5h8t18 1q21 1 32 1.5
t20 0.5q6 0 6 -4.5t-6 -4.5h-7q-34 0 -44.5 -11t-14.5 -39q-3 -15 -4 -37t-1 -53v-537q0 -5 -2.5 -7.5t-6.5 -2.5zM361 759q2 -2 4 -2t3 2q15 16 32 39t57 83q8 11 14 15t13 4q8 0 13 -3.5t5 -9.5t-5 -13.5t-16 -18.5q-47 -46 -69 -66t-43 -39q-2 -1 -5 -1t-4 1
q-15 12 -30.5 25.5t-43.5 37.5q-18 17 -27 24.5t-16 13.5q-11 9 -16 16.5t-5 13.5t5 11t12 5q8 0 14 -4t16 -17q33 -46 54 -72t38 -45z" />
    <glyph glyph-name="ncaron" unicode="&#x148;" horiz-adv-x="562" 
d="M22 0zM65 1q-12 -1 -20 -1h-17q-6 0 -6 4.5t6 4.5q30 0 37.5 16t7.5 94v220q0 35 -11 69t-28 49q-2 2 -2 3.5t2 2.5q16 9 21 12.5t11 9.5q2 2 3 1.5t3 -2.5q16 -18 25.5 -49t10.5 -67q51 72 104.5 107t113.5 35q83 0 126 -54t43 -160v-198q0 -23 1 -37.5t3 -23.5
q3 -16 10.5 -22t33.5 -6q6 0 6 -4.5t-6 -4.5h-6.5t-17.5 1q-21 0 -30.5 0.5t-14.5 0.5h-7.5t-14.5 -1q-16 -1 -25 -1h-18q-6 0 -6 4.5t6 4.5q34 0 42.5 18t8.5 77v188q0 99 -36.5 147t-112.5 48q-54 0 -104.5 -32.5t-98.5 -98.5v-347h52q6 0 6 -4.5t-6 -4.5h-7t-20 1
q-24 0 -34 0.5t-15 0.5h-7t-12 -1zM292 566q2 -2 4 -2t3 2q15 16 32 39t57 83q8 11 14 15t13 4q8 0 13 -3.5t5 -9.5t-5 -13.5t-16 -18.5q-47 -46 -69 -66t-43 -39q-2 -1 -5 -1t-4 1q-15 12 -30.5 25.5t-43.5 37.5q-18 17 -27 24.5t-16 13.5q-11 9 -16 16.5t-5 13.5t5 11
t12 5q8 0 14 -4t16 -17q33 -46 54 -72t38 -45z" />
    <glyph glyph-name="Eng" unicode="&#x14a;" horiz-adv-x="696" 
d="M530 -119q-36 -36 -65.5 -55t-65.5 -27q-16 0 -24.5 4.5t-8.5 12.5q0 16 13 29.5t33 14.5q46 2 75 10.5t47 29.5q19 21 30 47t11 45q0 12 -5 24.5t-26 40.5l-433 567l-1 -515q0 -31 5.5 -51t17.5 -31q10 -10 27 -14t55 -4h14q5 0 5 -4.5t-5 -4.5h-29.5t-61.5 2
q-19 1 -25 1h-9h-9.5t-22.5 -1l-36 -1.5t-20 -0.5q-6 0 -6 4.5t7 4.5h6q43 1 58.5 24t15.5 76l1 509q0 10 -3.5 18t-10.5 15q-18 18 -37 26t-44 8h-4q-5 0 -5 4t5 4q28 0 50 1t40 2q3 1 4.5 1h2.5q4 0 6 -1.5t4 -4.5q5 -10 15 -24t22 -28l445 -577q3 34 4 74.5t1 92.5v315
q0 46 -3 71t-11 39q-8 17 -26.5 23.5t-73.5 6.5h-14q-6 0 -6 4.5t6 4.5q9 0 26.5 -0.5t59.5 -1.5q26 -1 35.5 -1h12.5h8t18 1q21 1 32 1.5t20 0.5q6 0 6 -4.5t-6 -4.5h-7q-34 0 -44.5 -11t-14.5 -39q-3 -15 -4 -37t-1 -53v-383q-2 -120 -19 -180t-57 -100z" />
    <glyph glyph-name="eng" unicode="&#x14b;" horiz-adv-x="562" 
d="M65 1q-12 -1 -20 -1h-17q-6 0 -6 4.5t6 4.5q30 0 37.5 16t7.5 94v220q0 35 -11 69t-28 49q-2 2 -2 3.5t2 2.5q16 9 21 12.5t11 9.5q2 2 3 1.5t3 -2.5q16 -18 25.5 -49t10.5 -67q51 72 104.5 107t113.5 35q83 0 126 -54t43 -160v-202q0 -87 -14 -131.5t-48 -86.5
q-31 -37 -54 -55t-41 -18q-13 0 -23 4.5t-10 10.5q0 12 12.5 25t25.5 13q33 0 52.5 5t28.5 16q16 21 22 40.5t9 48.5q3 20 4 44.5t1 52.5v229q0 99 -36.5 147t-112.5 48q-54 0 -104.5 -32.5t-98.5 -98.5v-347h52q6 0 6 -4.5t-6 -4.5h-7t-20 1q-24 0 -34 0.5t-15 0.5h-7
t-12 -1z" />
    <glyph glyph-name="Omacron" unicode="&#x14c;" horiz-adv-x="794" 
d="M43 0zM646 95q-51 -50 -116 -77.5t-135 -27.5q-151 0 -251.5 101.5t-100.5 254.5t102.5 255t252.5 102q154 0 253 -101t99 -256q0 -72 -27 -136.5t-77 -114.5zM85 346q0 -152 86.5 -249t219.5 -97q135 0 226 98.5t91 247.5q0 157 -84 252t-222 95q-137 0 -227 -98
t-90 -249zM324 784q-5 0 -17.5 -1t-12.5 1q0 5 4 13t11 17h67q36 0 55.5 0.5t39.5 1.5q10 0 20 1t10 -1q0 -5 -4 -13t-11 -17h-83q-32 0 -46.5 -0.5t-32.5 -1.5z" />
    <glyph glyph-name="omacron" unicode="&#x14d;" horiz-adv-x="581" 
d="M36 0zM546 257q0 -110 -75.5 -188.5t-186.5 -78.5q-110 0 -179 69t-69 181t76 191t188 79q110 0 178 -69.5t68 -183.5zM72 257q0 -106 65 -181t162 -75q90 0 150.5 67.5t60.5 172.5q0 113 -61.5 186t-160.5 73q-92 0 -154 -69t-62 -174zM216 591q-5 0 -17.5 -1t-12.5 1
q0 5 4 13t11 17h67q36 0 55.5 0.5t39.5 1.5q10 0 20 1t10 -1q0 -5 -4 -13t-11 -17h-83q-32 0 -46.5 -0.5t-32.5 -1.5z" />
    <glyph glyph-name="Obreve" unicode="&#x14e;" horiz-adv-x="794" 
d="M43 0zM646 95q-51 -50 -116 -77.5t-135 -27.5q-151 0 -251.5 101.5t-100.5 254.5t102.5 255t252.5 102q154 0 253 -101t99 -256q0 -72 -27 -136.5t-77 -114.5zM85 346q0 -152 86.5 -249t219.5 -97q135 0 226 98.5t91 247.5q0 157 -84 252t-222 95q-137 0 -227 -98
t-90 -249zM521 858q-18 -44 -49.5 -69t-72.5 -26q-40 0 -73 21.5t-50 58.5q-4 8 -1 14t13 10q9 3 14 1.5t8 -7.5q17 -39 44 -61t56 -22q38 0 61.5 21.5t30.5 62.5q1 3 3.5 5t6.5 2q5 0 7.5 -3.5t1.5 -7.5z" />
    <glyph glyph-name="obreve" unicode="&#x14f;" horiz-adv-x="581" 
d="M36 0zM546 257q0 -110 -75.5 -188.5t-186.5 -78.5q-110 0 -179 69t-69 181t76 191t188 79q110 0 178 -69.5t68 -183.5zM72 257q0 -106 65 -181t162 -75q90 0 150.5 67.5t60.5 172.5q0 113 -61.5 186t-160.5 73q-92 0 -154 -69t-62 -174zM413 665q-18 -44 -49.5 -69
t-72.5 -26q-40 0 -73 21.5t-50 58.5q-4 8 -1 14t13 10q9 3 14 1.5t8 -7.5q17 -39 44 -61t56 -22q38 0 61.5 21.5t30.5 62.5q1 3 3.5 5t6.5 2q5 0 7.5 -3.5t1.5 -7.5z" />
    <glyph glyph-name="Ohungarumlaut" unicode="&#x150;" horiz-adv-x="794" 
d="M43 0zM646 95q-51 -50 -116 -77.5t-135 -27.5q-151 0 -251.5 101.5t-100.5 254.5t102.5 255t252.5 102q154 0 253 -101t99 -256q0 -72 -27 -136.5t-77 -114.5zM85 346q0 -152 86.5 -249t219.5 -97q135 0 226 98.5t91 247.5q0 157 -84 252t-222 95q-137 0 -227 -98
t-90 -249zM460 875q-22 -17 -61.5 -56t-60.5 -67q-1 -1 -2 -1.5t-2 -0.5q-2 0 -3 1t-1 3q0 1 0.5 2t1.5 2q11 11 24 28t28 40q13 19 28.5 45.5t16.5 27.5q4 6 10 10t11 4q6 0 13 -6t7 -12t-2.5 -11t-7.5 -9zM569 874q-23 -18 -60.5 -55t-60.5 -67q-1 -1 -2 -1.5t-2 -0.5
q-2 0 -3 1t-1 3q0 1 0.5 2t1.5 2q12 12 25 29t27 38q13 20 28 45.5t16 27.5q4 6 10 10t11 4q6 0 13 -6t7 -12t-2.5 -11t-7.5 -9z" />
    <glyph glyph-name="ohungarumlaut" unicode="&#x151;" horiz-adv-x="581" 
d="M36 0zM546 257q0 -110 -75.5 -188.5t-186.5 -78.5q-110 0 -179 69t-69 181t76 191t188 79q110 0 178 -69.5t68 -183.5zM72 257q0 -106 65 -181t162 -75q90 0 150.5 67.5t60.5 172.5q0 113 -61.5 186t-160.5 73q-92 0 -154 -69t-62 -174zM352 682q-22 -17 -61.5 -56
t-60.5 -67q-1 -1 -2 -1.5t-2 -0.5q-2 0 -3 1t-1 3q0 1 0.5 2t1.5 2q11 11 24 28t28 40q13 19 28.5 45.5t16.5 27.5q4 6 10 10t11 4q6 0 13 -6t7 -12t-2.5 -11t-7.5 -9zM461 681q-23 -18 -60.5 -55t-60.5 -67q-1 -1 -2 -1.5t-2 -0.5q-2 0 -3 1t-1 3q0 1 0.5 2t1.5 2
q12 12 25 29t27 38q13 20 28 45.5t16 27.5q4 6 10 10t11 4q6 0 13 -6t7 -12t-2.5 -11t-7.5 -9z" />
    <glyph glyph-name="OE" unicode="&#x152;" horiz-adv-x="902" 
d="M547 -1q-73 -1 -103.5 -1.5t-48.5 -0.5q-152 0 -252 98.5t-100 250.5q0 153 102.5 255t252.5 102h24.5t92.5 1q136 1 188 1.5t63 0.5q18 0 30.5 -1t16.5 -3t11 -44.5t13 -99.5l4 -36q1 -5 -4 -5t-6 5l-5 36q-11 76 -42 106t-113 30h-189q122 -26 195 -121t73 -227
q0 -121 -73 -213.5t-190 -123.5h41t69 1q37 1 52.5 1h26.5q87 0 121.5 36t45.5 136l6 53q1 5 6.5 4.5t4.5 -5.5l-6 -54q-2 -16 -5 -46.5t-4 -43.5q-5 -46 -8 -66.5t-6 -22.5q-3 -3 -65.5 -2.5t-71.5 0.5q-18 0 -47.5 -0.5t-99.5 -0.5zM580 222q0 -6 -5 -6t-5 6v15
q0 62 -20 89t-72 27h-67v-244q0 -38 -3 -63t-10 -39q134 3 222 98t88 241q0 147 -75 241.5t-202 104.5q-12 -4 -16 -15t-4 -83v-229h67q52 0 72 27t20 88v21q0 6 5 6t5 -6q0 -9 -0.5 -27.5t-2.5 -63.5q-1 -28 -1.5 -38t-0.5 -13q0 -4 0.5 -17t1.5 -50q2 -38 2.5 -52t0.5 -18
zM341 687q-115 -22 -185.5 -115t-70.5 -226q0 -140 75.5 -232.5t197.5 -104.5q7 7 11 24t5 44q1 91 1 260.5v191.5q0 111 -6.5 134t-27.5 24z" />
    <glyph glyph-name="oe" unicode="&#x153;" horiz-adv-x="985" 
d="M518 142q-37 -72 -99 -112t-135 -40q-109 0 -178.5 70t-69.5 180q0 112 76 191t188 79q81 0 141.5 -40t88.5 -114q37 73 101 113.5t142 40.5t126 -36t48 -85q0 -22 -15 -33.5t-45 -11.5h-334q-6 -23 -9.5 -48t-3.5 -51q0 -101 65 -166t172 -65q95 0 165.5 57t114.5 171
q3 6 6 5t1 -7q-26 -70 -65.5 -122.5t-89.5 -83.5q-35 -22 -72 -33t-77 -11q-91 0 -153 39t-89 113zM72 257q0 -107 65 -181.5t164 -74.5q86 0 146 68t60 172q0 113 -60.5 186t-158.5 73q-92 0 -154 -69t-62 -174zM905 397q0 39 -42 69t-106 30q-73 0 -125.5 -38t-75.5 -107
q149 1 208.5 2t92.5 3q15 1 25.5 4.5t14.5 8.5q4 6 6 12.5t2 15.5z" />
    </font>
</defs>
</svg>
