<svg width="365" height="91" viewBox="0 0 365 91" fill="none" xmlns="http://www.w3.org/2000/svg">
<path fill-rule="evenodd" clip-rule="evenodd" d="M119.169 30.8224C119.425 30.7371 119.425 30.8651 119.169 31.2064C119.09 31.3254 118.955 31.5088 118.765 31.7568C118.859 31.4791 118.951 31.2135 119.041 30.96C119.172 30.8683 119.257 30.8224 119.297 30.8224H119.169ZM110.209 24.6784C109.526 25.3611 108.886 25.3611 108.289 24.6784C108.033 24.5077 107.905 24.1664 107.905 23.6544C107.905 22.2891 108.46 21.6917 109.569 21.8624C110.337 22.2037 110.721 22.7584 110.721 23.5264C110.721 23.9531 110.55 24.3371 110.209 24.6784Z" fill="black"/>
<path fill-rule="evenodd" clip-rule="evenodd" d="M198.669 30.8224C198.925 30.7371 198.925 30.8651 198.669 31.2064C198.579 31.3407 198.42 31.5571 198.189 31.8556L198.363 31.3344C198.413 31.2171 198.462 31.0998 198.509 30.9825C198.658 30.8758 198.754 30.8224 198.797 30.8224H198.669ZM189.709 24.6784C189.026 25.3611 188.386 25.3611 187.789 24.6784C187.533 24.5077 187.405 24.1664 187.405 23.6544C187.405 22.2891 187.96 21.6917 189.069 21.8624C189.837 22.2037 190.221 22.7584 190.221 23.5264C190.221 23.9531 190.05 24.3371 189.709 24.6784Z" fill="black"/>
<path d="M290.895 59.4944C297.722 59.4944 303.567 59.6651 308.431 60.0064C313.38 60.4331 317.178 61.0304 319.823 61.7984C321.786 62.3957 322.98 63.0357 323.407 63.7184C323.578 63.9744 323.578 64.1024 323.407 64.1024C323.236 63.9317 322.895 63.7611 322.383 63.5904C321.188 62.9077 319.396 62.3531 317.007 61.9264C314.618 61.5851 311.162 61.2864 306.639 61.0304C304.676 60.9451 302.202 60.8597 299.215 60.7744C296.314 60.7744 293.284 60.7744 290.127 60.7744C287.055 60.8597 284.026 60.9451 281.039 61.0304C278.052 61.2011 275.535 61.4144 273.487 61.6704C272.975 61.7557 272.036 61.8411 270.671 61.9264C269.391 62.0117 268.154 62.1397 266.959 62.3104C264.484 62.4811 262.948 62.5664 262.351 62.5664C261.839 62.6517 261.54 62.7797 261.455 62.9504C261.455 63.0357 261.327 63.5051 261.071 64.3584C260.9 65.2971 260.644 66.4064 260.303 67.6864C260.047 68.9664 259.791 70.2891 259.535 71.6544C259.279 73.0197 259.066 74.2144 258.895 75.2384C258.383 77.7131 257.999 79.7611 257.743 81.3824C257.487 83.0037 257.274 84.6251 257.103 86.2464C257.018 87.0997 257.018 87.6544 257.103 87.9104C257.188 88.1664 257.316 88.2517 257.487 88.1664C257.914 88.0811 258.127 88.2944 258.127 88.8064C258.127 89.3184 257.956 89.7451 257.615 90.0864C257.188 90.6837 256.634 90.8117 255.951 90.4704C255.268 90.1291 254.927 88.8064 254.927 86.5024C254.927 84.7957 255.183 81.9797 255.695 78.0544C256.207 74.1291 256.89 69.7771 257.743 64.9984L257.999 63.2064H255.311C253.007 63.3771 251.258 63.2917 250.063 62.9504C248.954 62.6944 248.186 62.1824 247.759 61.4144C247.162 60.3051 247.247 58.9824 248.015 57.4464C248.783 55.9957 250.404 54.0331 252.879 51.5584C254.074 50.3637 255.268 49.2117 256.463 48.1024C257.658 46.9931 259.108 45.7131 260.815 44.2624C261.327 43.8357 261.754 43.4517 262.095 43.1104C262.522 42.7691 262.778 42.5557 262.863 42.4704L263.119 41.7024C263.546 40.3371 263.972 38.9291 264.399 37.4784C264.826 35.9424 265.21 34.5344 265.551 33.2544C265.978 31.8891 266.319 30.6944 266.575 29.6704C266.916 28.6464 267.13 27.9637 267.215 27.6224C267.812 25.6597 268.324 23.9957 268.751 22.6304C269.178 21.1797 269.604 19.7291 270.031 18.2784C270.628 16.5717 270.927 15.5904 270.927 15.3344C271.012 14.9931 270.97 14.7371 270.799 14.5664C270.714 14.3957 270.671 14.1824 270.671 13.9264C270.671 13.7557 270.756 13.4571 270.927 13.0304C271.098 12.6037 271.652 11.4091 272.591 9.4464C272.847 8.76373 273.103 8.0384 273.359 7.2704C273.7 6.5024 273.956 5.90507 274.127 5.4784C274.724 3.9424 275.108 2.96107 275.279 2.5344C275.535 2.0224 275.876 1.68107 276.303 1.5104C276.559 1.33973 276.9 1.29707 277.327 1.3824C277.754 1.3824 278.095 1.46773 278.351 1.6384C278.863 2.06507 279.162 2.57707 279.247 3.1744C279.332 3.77173 279.204 4.7104 278.863 5.9904C278.778 6.33173 278.564 6.97173 278.223 7.9104C277.967 8.84907 277.626 9.9584 277.199 11.2384C276.858 12.4331 276.431 13.7557 275.919 15.2064C275.492 16.5717 275.023 17.8944 274.511 19.1744C273.999 20.5397 273.572 21.7344 273.231 22.7584C272.89 23.6971 272.548 24.6357 272.207 25.5744C271.951 26.5131 271.652 27.4944 271.311 28.5184C270.97 29.4571 270.586 30.5664 270.159 31.8464C269.22 34.7477 268.623 36.5397 268.367 37.2224C268.196 37.9051 268.196 38.1611 268.367 37.9904C270.586 36.1984 272.847 34.4491 275.151 32.7424C277.54 30.9504 279.802 29.2864 281.935 27.7504C284.154 26.1291 286.244 24.6784 288.207 23.3984C290.17 22.1184 291.876 21.0517 293.327 20.1984C297.082 17.8944 300.239 16.4011 302.799 15.7184C305.359 15.0357 306.98 15.2491 307.663 16.3584C308.09 16.7851 308.132 17.4251 307.791 18.2784C307.706 18.6197 306.81 19.5157 305.103 20.9664C303.823 21.9051 303.055 22.4597 302.799 22.6304C302.628 22.7157 302.372 22.7584 302.031 22.7584C301.519 22.6731 301.092 22.4597 300.751 22.1184C300.41 21.6917 300.324 21.2224 300.495 20.7104V20.1984C300.324 20.1984 299.77 20.4117 298.831 20.8384C297.978 21.1797 297.167 21.5637 296.399 21.9904C293.924 23.1851 291.023 24.8491 287.695 26.9824C284.452 29.0304 280.911 31.4197 277.071 34.1504C276.132 34.8331 275.108 35.6011 273.999 36.4544C272.89 37.2224 271.823 37.9904 270.799 38.7584C269.86 39.5264 269.05 40.2091 268.367 40.8064C267.684 41.3184 267.3 41.6171 267.215 41.7024C267.044 41.7877 266.831 42.2571 266.575 43.1104C266.404 43.8784 266.148 44.8171 265.807 45.9264C265.551 46.9504 265.167 48.2731 264.655 49.8944C264.228 51.5157 263.802 53.0944 263.375 54.6304C263.034 56.2517 262.692 57.6597 262.351 58.8544C262.095 60.0491 261.967 60.6891 261.967 60.7744C261.967 60.9451 262.138 61.0304 262.479 61.0304C262.906 61.0304 264.356 60.9024 266.831 60.6464C269.22 60.3904 271.354 60.1771 273.231 60.0064C275.194 59.9211 277.071 59.8357 278.863 59.7504C280.655 59.6651 282.49 59.5797 284.367 59.4944C286.33 59.4944 288.506 59.4944 290.895 59.4944ZM261.199 49.3824C261.455 48.4437 261.668 47.6331 261.839 46.9504C262.01 46.2677 262.052 45.8837 261.967 45.7984C261.37 46.3104 260.73 46.8651 260.047 47.4624C259.535 47.8891 258.938 48.4011 258.255 48.9984C257.658 49.5957 257.018 50.1504 256.335 50.6624C253.69 53.1371 251.77 55.2277 250.575 56.9344C249.38 58.6411 249.039 59.8357 249.551 60.5184C249.807 60.7744 250.49 60.9877 251.599 61.1584C252.794 61.3291 254.031 61.4144 255.311 61.4144C255.652 61.3291 256.036 61.2864 256.463 61.2864C256.89 61.2864 257.231 61.2864 257.487 61.2864H258.511L258.639 60.3904C258.724 60.0491 258.852 59.4517 259.023 58.5984C259.194 57.7451 259.407 56.7637 259.663 55.6544C259.919 54.6304 260.175 53.5637 260.431 52.4544C260.687 51.3451 260.943 50.3211 261.199 49.3824Z" fill="black"/>
<path fill-rule="evenodd" clip-rule="evenodd" d="M347.738 31.3344L347.628 31.6651C348.033 30.9458 348.175 30.5702 348.054 30.5385C347.957 30.8038 347.852 31.0691 347.738 31.3344Z" fill="black"/>
<path d="M0 25.3184C0 27.5371 1.32267 29.1157 3.968 30.0544C5.07733 30.3957 6.74133 30.7371 8.96 31.0784C11.1787 31.3344 14.0373 31.5477 17.536 31.7184C21.632 31.9744 25.1733 32.3584 28.16 32.8704C31.1467 33.2971 33.8347 33.8944 36.224 34.6624C36.9067 34.9184 37.632 35.2171 38.4 35.5584C39.2533 35.8997 40.0213 36.2837 40.704 36.7104C41.472 37.0517 42.112 37.3931 42.624 37.7344C43.136 37.9904 43.392 38.1611 43.392 38.2464C43.392 38.3317 42.9227 38.6304 41.984 39.1424C38.0587 41.1051 34.0053 43.4091 29.824 46.0544C25.728 48.6997 21.9307 51.3877 18.432 54.1184C15.9573 56.0811 13.568 58.1291 11.264 60.2624C9.04533 62.3957 7.33867 64.1877 6.144 65.6384C2.98667 69.5637 1.06667 73.4464 0.384 77.2864C0.213334 78.2251 0.128 79.2917 0.128 80.4864C0.213333 81.6811 0.384 82.6197 0.64 83.3024C1.408 85.5211 2.816 87.1424 4.864 88.1664C6.05867 88.8491 7.38133 89.2331 8.832 89.3184C10.9653 89.5744 13.2693 89.4464 15.744 88.9344C18.2187 88.4224 20.736 87.5691 23.296 86.3744C25.856 85.2651 28.416 83.8571 30.976 82.1504C33.536 80.4437 35.9253 78.4811 38.144 76.2624C41.3867 73.1051 44.0747 69.7344 46.208 66.1504C48.4267 62.5664 49.92 59.0251 50.688 55.5264C51.5413 51.4304 51.2853 47.5904 49.92 44.0064C49.5787 43.2384 49.1093 42.3851 48.512 41.4464C47.9147 40.4224 47.36 39.6971 46.848 39.2704C46.336 38.7584 46.08 38.4597 46.08 38.3744L46.592 38.1184C46.7627 38.0331 47.104 37.8197 47.616 37.4784C56.9959 32.9923 62.2439 30.7672 63.3598 30.803C62.6133 31.3506 61.887 32.0398 61.181 32.8704C59.7303 34.4917 58.7063 36.2837 58.109 38.2464C57.5117 40.0384 57.5543 41.4464 58.237 42.4704C59.005 43.4944 60.1143 43.6651 61.565 42.9824C62.2477 42.6411 63.229 41.7877 64.509 40.4224C65.8743 39.0571 67.2823 37.4357 68.733 35.5584C69.1597 35.0464 69.4157 34.6624 69.501 34.4064L69.885 34.0224C69.885 34.1077 69.7997 34.4917 69.629 35.1744C68.9463 37.9051 68.733 40.2091 68.989 42.0864C69.245 43.9637 69.885 45.1157 70.909 45.5424C71.5063 45.7984 72.317 45.5424 73.341 44.7744C73.9383 44.2624 74.8343 43.2384 76.029 41.7024C76.855 40.5814 77.6605 39.4401 78.4457 38.2783C78.5846 37.5651 78.7502 36.8146 78.9424 36.0267C77.7648 37.66 76.623 39.1679 75.517 40.5504C73.8957 42.5984 72.7437 43.7931 72.061 44.1344C71.4637 44.3904 71.0797 44.2197 70.909 43.6224C70.8237 43.3664 70.7383 43.0677 70.653 42.7264V40.8064C70.653 39.5264 70.7383 38.3317 70.909 37.2224C71.165 36.1131 71.549 34.6197 72.061 32.7424C72.2317 32.1451 72.4023 31.6331 72.573 31.2064C72.7437 30.6944 72.829 30.3531 72.829 30.1824C72.829 29.5851 72.5303 29.2864 71.933 29.2864C71.5917 29.2864 71.2077 29.5424 70.781 30.0544L70.141 30.6944L69.885 30.4384C69.0317 29.2437 67.6663 28.9451 65.789 29.5424C65.21 29.7253 64.6418 29.9843 64.0845 30.3195C64.0739 30.1969 63.9604 30.1085 63.744 30.0544C63.488 29.9691 62.9333 30.0544 62.08 30.3104C61.2267 30.5664 60.1173 30.9504 58.752 31.4624C57.472 31.9744 55.936 32.6144 54.144 33.3824C52.4373 34.1504 50.6027 35.0037 48.64 35.9424C47.9573 36.1984 47.3173 36.4544 46.72 36.7104L45.696 37.2224L45.056 37.4784L44.032 36.7104C41.8133 35.0891 39.04 33.8091 35.712 32.8704C32.4693 31.8464 28.416 31.0357 23.552 30.4384L19.456 29.9264C18.176 29.7557 17.1947 29.6704 16.512 29.6704C15.8293 29.4997 15.0187 29.4144 14.08 29.4144C13.6533 29.3291 13.2267 29.2864 12.8 29.2864C12.3733 29.2011 12.032 29.1157 11.776 29.0304C10.6667 28.9451 9.42933 28.7744 8.064 28.5184C6.784 28.2624 5.80267 27.9637 5.12 27.6224C4.69333 27.4517 4.26667 27.2384 3.84 26.9824C3.41333 26.6411 3.11467 26.3851 2.944 26.2144C2.77333 25.8731 2.688 25.5317 2.688 25.1904C2.688 24.2517 3.15733 23.1851 4.096 21.9904C5.12 20.7104 6.44267 19.3877 8.064 18.0224C9.77067 16.5717 11.6907 15.1637 13.824 13.7984C16.0427 12.3477 18.3467 11.0251 20.736 9.8304C22.784 8.8064 24.4907 8.0384 25.856 7.5264C27.3067 6.92907 29.0133 6.33174 30.976 5.7344C35.328 4.4544 39.168 3.8144 42.496 3.8144C43.6053 3.8144 44.3307 3.85707 44.672 3.9424C45.0987 3.9424 45.312 4.02773 45.312 4.1984C45.312 4.36907 44.8427 4.8384 43.904 5.6064C42.9653 6.28907 42.0267 6.8864 41.088 7.3984C40.064 7.9104 39.68 8.46507 39.936 9.0624C40.2773 9.5744 40.7893 9.74507 41.472 9.5744C41.8987 9.40374 42.5813 9.10507 43.52 8.6784C44.544 8.1664 45.3973 7.6544 46.08 7.1424C48.2133 5.8624 49.28 4.62507 49.28 3.4304C49.28 2.83307 49.024 2.23573 48.512 1.6384C47.8293 0.955733 46.7627 0.486399 45.312 0.2304C43.8613 -0.025599 42.1547 -0.0682664 40.192 0.102398C35.6693 0.614399 30.8053 1.85173 25.6 3.8144C22.9547 4.8384 20.3093 6.1184 17.664 7.6544C15.0187 9.10507 12.544 10.6837 10.24 12.3904C8.02133 14.0117 6.05867 15.6757 4.352 17.3824C2.73067 19.0891 1.57867 20.6677 0.896 22.1184C0.469333 22.8011 0.213333 23.3557 0.128 23.7824C0.0426668 24.1237 0 24.6357 0 25.3184ZM41.6 40.5504L44.544 39.0144L45.44 40.0384C46.3787 40.9771 47.104 41.9584 47.616 42.9824C48.128 43.9211 48.5973 45.1157 49.024 46.5664C49.1947 47.1637 49.28 47.6331 49.28 47.9744C49.3653 48.4011 49.408 49.2117 49.408 50.4064V52.8384C49.408 53.3504 49.3227 53.9051 49.152 54.5024C48.384 57.9157 46.9333 61.3717 44.8 64.8704C42.752 68.3691 40.1067 71.6971 36.864 74.8544C33.6213 77.9264 30.208 80.4864 26.624 82.5344C23.04 84.5824 19.456 85.9904 15.872 86.7584C15.1893 86.9291 14.592 87.0144 14.08 87.0144C13.568 87.0997 12.8 87.1424 11.776 87.1424C10.4107 87.2277 9.55733 87.2277 9.216 87.1424C8.87467 87.1424 8.32 87.0144 7.552 86.7584C4.90667 86.1611 3.2 84.4971 2.432 81.7664C2.26133 81.1691 2.176 80.3584 2.176 79.3344C2.26133 78.3104 2.38933 77.4144 2.56 76.6464C2.73067 75.5371 3.072 74.3424 3.584 73.0624C4.18133 71.8677 4.82133 70.7157 5.504 69.6064C6.86933 67.4731 8.704 65.1691 11.008 62.6944C13.3973 60.2197 16.1707 57.7024 19.328 55.1424C22.4853 52.6677 25.9413 50.1931 29.696 47.7184C33.4507 45.2437 37.4187 42.8544 41.6 40.5504ZM68.605 32.3584C68.6903 32.4437 68.5197 32.7424 68.093 33.2544C67.2397 34.1931 66.3863 35.0891 65.533 35.9424C64.765 36.7957 64.0397 37.5211 63.357 38.1184C62.6743 38.8011 62.205 39.2277 61.949 39.3984C61.7783 39.4837 61.693 39.4411 61.693 39.2704C61.693 39.0997 61.9063 38.6731 62.333 37.9904C62.7597 37.2224 63.1437 36.5824 63.485 36.0704C64.3383 34.8757 65.277 33.8944 66.301 33.1264C67.325 32.3584 68.093 32.1024 68.605 32.3584Z" fill="black"/>
<path fill-rule="evenodd" clip-rule="evenodd" d="M155.475 40.0384C155.452 40.2474 155.438 40.4437 155.434 40.6274C155.422 41.1188 155.479 41.5198 155.603 41.8304C155.859 42.5984 156.371 43.1531 157.139 43.4944C157.992 43.8357 158.974 43.7504 160.083 43.2384C161.192 42.6411 162.6 41.5744 164.307 40.0384C164.99 39.4411 165.331 39.1851 165.331 39.2704C165.416 39.2704 165.374 39.7397 165.203 40.6784C165.032 41.7877 164.862 42.9397 164.691 44.1344C164.52 45.4144 164.392 46.6091 164.307 47.7184V50.7904C164.307 51.7291 164.35 52.4544 164.435 52.9664C164.691 54.4171 165.203 55.3131 165.971 55.6544C167.08 56.2517 168.531 55.6544 170.323 53.8624C171.176 53.0091 172.158 51.8144 173.267 50.2784C174.376 48.7424 175.784 46.6517 177.491 44.0064C177.918 43.3237 178.558 42.3424 179.411 41.0624C180.264 39.6971 181.118 38.3744 181.971 37.0944C182.716 35.9772 183.363 34.99 183.913 34.1328C183.925 34.0536 183.937 33.9741 183.949 33.8944C184.082 33.3184 184.238 32.7654 184.417 32.2354C184.333 32.353 184.243 32.4793 184.147 32.6144C183.72 33.1264 183.123 33.9371 182.355 35.0464C181.587 36.1557 180.563 37.6064 179.283 39.3984C178.003 41.2757 176.936 42.7691 176.083 43.8784C175.315 44.9877 174.675 45.8837 174.163 46.5664C173.651 47.3344 173.224 47.9317 172.883 48.3584C172.542 48.7851 172.158 49.2544 171.731 49.7664C169.427 52.8384 167.806 54.3744 166.867 54.3744C166.611 54.3744 166.44 54.3317 166.355 54.2464C166.27 54.1611 166.142 53.9477 165.971 53.6064C165.459 52.3264 165.331 50.1504 165.587 47.0784C165.587 46.5664 165.63 45.9264 165.715 45.1584C165.886 44.3904 166.014 43.6224 166.099 42.8544C166.27 42.0011 166.44 41.1904 166.611 40.4224C166.782 39.6544 166.91 39.0144 166.995 38.5024C167.166 37.8197 167.294 37.3931 167.379 37.2224C167.55 37.0517 167.848 36.7104 168.275 36.1984C169.299 35.0891 170.366 33.8517 171.475 32.4864C172.67 31.0357 173.779 29.5851 174.803 28.1344C175.912 26.5984 176.894 25.1051 177.747 23.6544C178.686 22.2037 179.454 20.9237 180.051 19.8144C181.075 17.8517 181.8 16.1451 182.227 14.6944C182.654 13.1584 182.696 12.0491 182.355 11.3664C182.014 10.5984 181.502 10.2144 180.819 10.2144C180.307 10.2144 179.539 10.5984 178.515 11.3664C177.576 12.1344 176.68 13.0304 175.827 14.0544C174.376 16.0171 172.926 18.4491 171.475 21.3504C170.024 24.1664 168.787 27.1531 167.763 30.3104L167.251 31.7184L166.867 31.0784C166.696 30.5664 166.398 30.2251 165.971 30.0544C165.715 29.8837 165.502 29.7557 165.331 29.6704C165.16 29.5851 164.819 29.5424 164.307 29.5424C163.71 29.5424 163.283 29.5851 163.027 29.6704C162.856 29.7557 162.472 29.9264 161.875 30.1824C159.315 31.4624 157.352 33.9797 155.987 37.7344C155.914 37.9285 155.848 38.1295 155.789 38.3374C155.641 38.8607 155.536 39.4277 155.475 40.0384ZM168.403 33.1264C168.403 32.9557 168.616 32.2304 169.043 30.9504L170.195 27.8784C172.243 22.4171 174.632 18.1504 177.363 15.0784C178.046 14.2251 178.686 13.5424 179.283 13.0304C179.88 12.5184 180.392 12.2624 180.819 12.2624C180.99 12.2624 181.075 12.5184 181.075 13.0304C181.075 14.7371 180.264 17.0837 178.643 20.0704C177.022 22.9717 174.846 26.0437 172.115 29.2864C171.432 30.1397 170.622 31.0357 169.683 31.9744C168.83 32.8277 168.403 33.2117 168.403 33.1264ZM165.971 35.6864C165.715 36.0277 165.032 36.6677 163.923 37.6064C163.07 38.2891 162.216 38.9291 161.363 39.5264C160.51 40.1237 159.827 40.5504 159.315 40.8064C158.547 41.1477 158.078 41.1904 157.907 40.9344C157.822 40.7637 157.864 40.4224 158.035 39.9104C158.206 39.3131 158.376 38.7584 158.547 38.2464C159.059 36.8811 159.87 35.6437 160.979 34.5344C162.088 33.4251 163.07 32.7851 163.923 32.6144C164.35 32.5291 164.734 32.6144 165.075 32.8704C165.587 33.2117 165.971 33.3397 166.227 33.2544C166.568 33.2544 166.739 33.2971 166.739 33.3824V33.6384C166.654 33.8091 166.611 34.0651 166.611 34.4064C166.44 34.9184 166.227 35.3451 165.971 35.6864Z" fill="black"/>
<path d="M198.189 31.8556L198.363 31.3344C198.413 31.2171 198.462 31.0998 198.509 30.9825C198.701 30.5025 198.866 30.0224 199.003 29.5424C199.515 28.2624 199.771 27.4091 199.771 26.9824C199.856 26.4704 199.686 26.1291 199.259 25.9584C198.662 25.6171 198.15 25.7451 197.723 26.3424C197.382 26.7691 196.998 27.4944 196.571 28.5184C196.144 29.5424 195.718 30.6944 195.291 31.9744C195.03 32.8879 194.769 33.8263 194.508 34.7897C193.817 35.4883 193.199 36.0859 192.653 36.5824C191.714 37.3504 190.861 37.9904 190.093 38.5024C189.496 38.9291 188.856 39.3131 188.173 39.6544C187.576 39.9957 187.064 40.2091 186.637 40.2944C186.296 40.2944 186.04 40.1664 185.869 39.9104L185.613 39.3984C185.613 39.2277 185.656 38.9291 185.741 38.5024C185.741 38.0757 185.784 37.4784 185.869 36.7104L186.381 34.4064C186.637 33.6384 186.893 32.9131 187.149 32.2304C187.405 31.5477 187.618 31.0784 187.789 30.8224C188.045 30.3957 188.045 29.9691 187.789 29.5424C187.618 29.0304 187.277 28.7744 186.765 28.7744C186.168 28.7744 185.57 29.4571 184.973 30.8224C184.768 31.2737 184.582 31.7446 184.417 32.2354C184.238 32.7654 184.082 33.3184 183.949 33.8944C183.937 33.9741 183.925 34.0536 183.913 34.1328C183.76 35.1568 183.644 36.144 183.565 37.0944V38.6304C183.565 38.8864 183.65 39.1851 183.821 39.5264C184.162 40.6357 184.802 41.3184 185.741 41.5744C186.082 41.6597 186.338 41.7024 186.509 41.7024C186.68 41.7024 187.021 41.6171 187.533 41.4464C188.472 41.1051 189.752 40.2517 191.373 38.8864C192.196 38.1935 193.118 37.3357 194.138 36.3131C193.953 37.2573 193.825 38.1151 193.755 38.8864C193.755 40.0811 193.968 40.7637 194.395 40.9344C195.078 41.2757 195.632 40.8064 196.059 39.5264C196.315 38.6731 196.784 37.6917 197.467 36.5824C198.15 35.3877 198.918 34.2784 199.771 33.2544C200.71 32.2304 201.264 31.7611 201.435 31.8464C201.52 31.9317 201.563 32.2304 201.563 32.7424C201.648 33.1691 201.734 34.0651 201.819 35.4304C201.99 37.3077 202.16 38.7157 202.331 39.6544C202.587 40.5077 202.971 41.1477 203.483 41.5744C203.91 41.9157 204.294 42.0864 204.635 42.0864C205.062 42.0864 205.488 42.0011 205.915 41.8304C206.342 41.5744 206.854 41.1477 207.451 40.5504C208.134 39.9531 208.902 39.1424 209.755 38.1184C210.694 37.0091 211.846 35.6011 213.211 33.8944C214.32 32.5291 214.96 31.7184 215.131 31.4624C215.302 31.2064 215.302 30.9931 215.131 30.8224H215.259C215.174 30.7371 214.918 30.8651 214.491 31.2064C214.235 31.4624 213.467 32.3157 212.187 33.7664C210.907 35.2171 209.712 36.5824 208.603 37.8624C206.726 39.9104 205.446 40.9344 204.763 40.9344C204.507 40.9344 204.294 40.8064 204.123 40.5504C203.867 40.2091 203.696 39.7397 203.611 39.1424C203.526 38.4597 203.398 37.2651 203.227 35.5584C203.142 34.6197 203.056 33.7664 202.971 32.9984C202.971 32.2304 202.928 31.7611 202.843 31.5904C202.758 31.2491 202.544 30.9504 202.203 30.6944C201.947 30.3531 201.734 30.1824 201.563 30.1824C200.795 30.1824 199.643 31.0784 198.107 32.8704L197.595 33.5104L197.979 32.4864L198.189 31.8556Z" fill="black"/>
<path fill-rule="evenodd" clip-rule="evenodd" d="M131.548 38.3072C131.395 38.8389 131.287 39.4159 131.225 40.0384C131.14 40.8064 131.182 41.4037 131.353 41.8304C131.609 42.5984 132.121 43.1531 132.889 43.4944C133.742 43.8357 134.724 43.7504 135.833 43.2384C136.942 42.6411 138.35 41.5744 140.057 40.0384C140.74 39.4411 141.081 39.1851 141.081 39.2704C141.166 39.2704 141.124 39.7397 140.953 40.6784C140.782 41.7877 140.612 42.9397 140.441 44.1344C140.27 45.4144 140.142 46.6091 140.057 47.7184V50.7904C140.057 51.7291 140.1 52.4544 140.185 52.9664C140.441 54.4171 140.953 55.3131 141.721 55.6544C142.83 56.2517 144.281 55.6544 146.073 53.8624C146.926 53.0091 147.908 51.8144 149.017 50.2784C150.126 48.7424 151.534 46.6517 153.241 44.0064C153.668 43.3237 154.308 42.3424 155.161 41.0624C155.252 40.9169 155.343 40.7719 155.434 40.6274C155.438 40.4437 155.452 40.2474 155.475 40.0384C155.536 39.4277 155.641 38.8607 155.789 38.3374C155.548 38.6766 155.296 39.0303 155.033 39.3984C153.753 41.2757 152.686 42.7691 151.833 43.8784C151.065 44.9877 150.425 45.8837 149.913 46.5664C149.401 47.3344 148.974 47.9317 148.633 48.3584C148.292 48.7851 147.908 49.2544 147.481 49.7664C145.177 52.8384 143.556 54.3744 142.617 54.3744C142.361 54.3744 142.19 54.3317 142.105 54.2464C142.02 54.1611 141.892 53.9477 141.721 53.6064C141.209 52.3264 141.081 50.1504 141.337 47.0784C141.337 46.5664 141.38 45.9264 141.465 45.1584C141.636 44.3904 141.764 43.6224 141.849 42.8544C142.02 42.0011 142.19 41.1904 142.361 40.4224C142.532 39.6544 142.66 39.0144 142.745 38.5024C142.916 37.8197 143.044 37.3931 143.129 37.2224C143.3 37.0517 143.598 36.7104 144.025 36.1984C145.049 35.0891 146.116 33.8517 147.225 32.4864C148.42 31.0357 149.529 29.5851 150.553 28.1344C151.662 26.5984 152.644 25.1051 153.497 23.6544C154.436 22.2037 155.204 20.9237 155.801 19.8144C156.825 17.8517 157.55 16.1451 157.977 14.6944C158.404 13.1584 158.446 12.0491 158.105 11.3664C157.764 10.5984 157.252 10.2144 156.569 10.2144C156.057 10.2144 155.289 10.5984 154.265 11.3664C153.326 12.1344 152.43 13.0304 151.577 14.0544C150.126 16.0171 148.676 18.4491 147.225 21.3504C145.774 24.1664 144.537 27.1531 143.513 30.3104L143.001 31.7184L142.617 31.0784C142.446 30.5664 142.148 30.2251 141.721 30.0544C141.465 29.8837 141.252 29.7557 141.081 29.6704C140.91 29.5851 140.569 29.5424 140.057 29.5424C139.46 29.5424 139.033 29.5851 138.777 29.6704C138.606 29.7557 138.222 29.9264 137.625 30.1824C135.458 31.2661 133.718 33.2367 132.407 36.0942C132.152 36.3524 131.775 36.7712 131.279 37.3504C130.767 37.9477 130.212 38.5451 129.615 39.1424C129.103 39.7397 128.591 40.2944 128.079 40.8064L126.927 41.9584C125.903 43.1531 125.092 43.7504 124.495 43.7504C124.239 43.7504 123.983 43.0251 123.727 41.5744C123.642 41.0624 123.599 40.6357 123.599 40.2944C123.599 39.8677 123.684 39.1851 123.855 38.2464C124.111 36.2837 124.452 34.4491 124.879 32.7424C125.135 31.8037 125.263 31.2064 125.263 30.9504C125.348 30.6944 125.306 30.4811 125.135 30.3104C124.964 30.1397 124.751 30.0971 124.495 30.1824C124.324 30.2677 123.727 30.9077 122.703 32.1024C121.679 33.2117 120.612 34.4491 119.503 35.8144C119.247 36.1557 118.948 36.4971 118.607 36.8384C118.351 37.1797 118.095 37.4784 117.839 37.7344L117.071 38.5024V37.8624C117.242 37.0944 117.54 35.8997 117.967 34.2784C118.246 33.3494 118.512 32.5088 118.765 31.7568C118.859 31.4791 118.951 31.2135 119.041 30.96C119.155 30.6387 119.266 30.3369 119.375 30.0544C119.802 28.9451 119.972 28.3051 119.887 28.1344C119.716 27.5371 119.332 27.2384 118.735 27.2384C118.223 27.2384 117.754 27.5371 117.327 28.1344C116.9 28.7317 116.431 29.6704 115.919 30.9504C115.407 32.2304 114.98 33.5531 114.639 34.9184C114.616 35.02 114.595 35.1223 114.574 35.2254C114.055 35.7401 113.582 36.1924 113.153 36.5824C112.214 37.3504 111.361 37.9904 110.593 38.5024C109.996 38.9291 109.356 39.3131 108.673 39.6544C108.076 39.9957 107.564 40.2091 107.137 40.2944C106.796 40.2944 106.54 40.1664 106.369 39.9104L106.113 39.3984C106.113 39.2277 106.156 38.9291 106.241 38.5024C106.241 38.0757 106.284 37.4784 106.369 36.7104L106.881 34.4064C107.137 33.6384 107.393 32.9131 107.649 32.2304C107.905 31.5477 108.118 31.0784 108.289 30.8224C108.545 30.3957 108.545 29.9691 108.289 29.5424C108.118 29.0304 107.777 28.7744 107.265 28.7744C106.668 28.7744 106.07 29.4571 105.473 30.8224C105.325 31.1483 105.187 31.4846 105.059 31.8311C104.796 32.1602 104.482 32.5493 104.117 32.9984C103.008 34.2784 101.386 36.2411 99.253 38.8864C98.9117 39.3131 98.5277 39.7824 98.101 40.2944L96.949 41.4464C96.0103 42.3851 95.413 42.8117 95.157 42.7264C94.901 42.6411 94.7303 41.9157 94.645 40.5504C94.5597 39.8677 94.5597 39.1851 94.645 38.5024C94.7303 37.7344 94.8583 36.7531 95.029 35.5584C95.3703 34.1077 95.5837 33.1264 95.669 32.6144C95.7543 32.0171 95.797 31.5051 95.797 31.0784C95.797 29.7984 95.285 29.2437 94.261 29.4144C93.9197 29.5851 93.237 30.2677 92.213 31.4624C91.189 32.6571 90.1223 34.0224 89.013 35.5584L88.501 36.3264L88.245 36.8384L87.861 37.3504C87.6903 37.3504 87.6903 37.1371 87.861 36.7104C87.9463 36.1131 88.0317 35.2597 88.117 34.1504C88.2023 33.0411 88.2023 32.3584 88.117 32.1024C87.9463 31.5051 87.605 31.1211 87.093 30.9504C86.6663 30.7797 86.197 30.9077 85.685 31.3344L84.661 32.3584C84.2343 32.8704 83.8077 33.4251 83.381 34.0224L83.125 34.5344L83.253 33.8944C83.509 33.2117 84.1063 31.7611 85.045 29.5424C85.4717 28.4331 85.685 27.6651 85.685 27.2384C85.685 26.8117 85.3863 26.5131 84.789 26.3424C83.6797 26.0864 82.5277 27.1104 81.333 29.4144C80.565 30.9504 79.8397 32.8704 79.157 35.1744C79.0821 35.4632 79.0106 35.7473 78.9424 36.0267C78.7502 36.8146 78.5846 37.5651 78.4457 38.2783C78.2409 39.3302 78.094 40.3009 78.005 41.1904C77.9197 42.9824 78.389 43.8784 79.413 43.8784C80.181 43.8784 80.8637 43.0677 81.461 41.4464C81.8877 40.3371 82.4423 39.1424 83.125 37.8624C83.8077 36.5824 84.405 35.5584 84.917 34.7904C85.941 33.3397 86.453 32.6997 86.453 32.8704C86.5383 32.9557 86.5383 33.2544 86.453 33.7664V35.4304C86.2823 37.1371 86.2397 38.3744 86.325 39.1424C86.4103 39.8251 86.6237 40.1664 86.965 40.1664C87.3917 40.1664 87.989 39.4837 88.757 38.1184C89.525 36.9237 90.2503 35.8571 90.933 34.9184C91.6157 33.9797 92.5117 32.9131 93.621 31.7184C93.9623 31.2064 94.133 31.0357 94.133 31.2064C94.3037 31.3771 94.1757 32.4011 93.749 34.2784C93.1517 37.0091 92.9383 39.2277 93.109 40.9344C93.2797 42.6411 93.7917 43.7077 94.645 44.1344C95.413 44.3904 96.437 43.8784 97.717 42.5984C98.1437 42.0864 98.741 41.3184 99.509 40.2944C100.362 39.2704 101.77 37.3931 103.733 34.6624C104.015 34.2108 104.297 33.778 104.58 33.3637C104.534 33.5384 104.49 33.7153 104.449 33.8944C104.278 35.0037 104.15 36.0704 104.065 37.0944V38.6304C104.065 38.8864 104.15 39.1851 104.321 39.5264C104.662 40.6357 105.302 41.3184 106.241 41.5744C106.582 41.6597 106.838 41.7024 107.009 41.7024C107.18 41.7024 107.521 41.6171 108.033 41.4464C108.972 41.1051 110.252 40.2517 111.873 38.8864C112.615 38.2613 113.438 37.5021 114.341 36.6087C114.309 36.8522 114.28 37.0995 114.255 37.3504C114.17 38.1184 114.212 38.7584 114.383 39.2704C114.554 39.9531 114.852 40.5077 115.279 40.9344C115.791 41.2757 116.346 41.3611 116.943 41.1904C117.37 41.0197 117.967 40.5077 118.735 39.6544C119.503 38.8011 120.484 37.4784 121.679 35.6864C122.106 35.0037 122.447 34.5344 122.703 34.2784L123.087 33.6384V34.2784C122.916 34.6197 122.746 35.2171 122.575 36.0704C122.404 36.9237 122.276 37.6917 122.191 38.3744C122.106 38.9717 122.106 39.8251 122.191 40.9344C122.276 42.0437 122.404 42.8117 122.575 43.2384C122.746 43.7504 123.002 44.1344 123.343 44.3904C123.599 44.7317 123.77 44.9024 123.855 44.9024C124.026 44.9877 124.239 45.0304 124.495 45.0304C124.836 45.0304 125.178 44.9451 125.519 44.7744C125.946 44.6037 126.586 44.0491 127.439 43.1104C128.242 42.2271 129.612 40.6261 131.548 38.3072ZM144.793 30.9504C144.366 32.2304 144.153 32.9557 144.153 33.1264C144.153 33.2117 144.58 32.8277 145.433 31.9744C146.372 31.0357 147.182 30.1397 147.865 29.2864C150.596 26.0437 152.772 22.9717 154.393 20.0704C156.014 17.0837 156.825 14.7371 156.825 13.0304C156.825 12.5184 156.74 12.2624 156.569 12.2624C156.142 12.2624 155.63 12.5184 155.033 13.0304C154.436 13.5424 153.796 14.2251 153.113 15.0784C150.382 18.1504 147.993 22.4171 145.945 27.8784L144.793 30.9504ZM139.673 37.6064C140.782 36.6677 141.465 36.0277 141.721 35.6864C141.977 35.3451 142.19 34.9184 142.361 34.4064C142.361 34.0651 142.404 33.8091 142.489 33.6384V33.3824C142.489 33.2971 142.318 33.2544 141.977 33.2544C141.721 33.3397 141.337 33.2117 140.825 32.8704C140.484 32.6144 140.1 32.5291 139.673 32.6144C138.82 32.7851 137.838 33.4251 136.729 34.5344C135.62 35.6437 134.809 36.8811 134.297 38.2464C134.126 38.7584 133.956 39.3131 133.785 39.9104C133.614 40.4224 133.572 40.7637 133.657 40.9344C133.828 41.1904 134.297 41.1477 135.065 40.8064C135.577 40.5504 136.26 40.1237 137.113 39.5264C137.966 38.9291 138.82 38.2891 139.673 37.6064Z" fill="black"/>
<path fill-rule="evenodd" clip-rule="evenodd" d="M348.054 30.5385C348.175 30.5702 348.033 30.9458 347.628 31.6651L347.738 31.3344C347.852 31.0691 347.957 30.8038 348.054 30.5385Z" fill="black"/>
<path fill-rule="evenodd" clip-rule="evenodd" d="M310.494 32.4864C310.665 32.3157 311.006 32.1451 311.518 31.9744H311.39C311.902 31.8037 312.542 31.5051 313.31 31.0784C314.163 30.6517 314.931 30.2251 315.614 29.7984C316.894 28.8597 318.217 27.7504 319.582 26.4704C321.033 25.1904 322.398 23.7824 323.678 22.2464C324.958 20.7104 326.153 19.1317 327.262 17.5104C328.371 15.8891 329.267 14.3104 329.95 12.7744C330.889 10.9824 331.443 9.48907 331.614 8.2944C331.785 7.0144 331.657 5.90507 331.23 4.9664C330.547 3.51573 329.395 2.7904 327.774 2.7904C326.153 2.7904 324.446 3.51573 322.654 4.9664C320.179 6.7584 317.833 9.5744 315.614 13.4144C313.481 17.2544 311.433 21.9904 309.47 27.6224C309.129 28.5611 308.745 29.6704 308.318 30.9504L307.294 34.5344C306.953 35.6437 306.654 36.6677 306.398 37.6064C306.142 38.5451 305.929 39.2704 305.758 39.7824C305.587 40.4651 305.587 41.0197 305.758 41.4464C306.014 41.8731 306.398 42.0864 306.91 42.0864C307.593 42.0864 308.105 41.6171 308.446 40.6784C309.043 39.5691 309.897 38.3317 311.006 36.9664C312.201 35.5157 313.139 34.4491 313.822 33.7664C314.59 33.2544 315.059 33.1691 315.23 33.5104C315.23 33.6811 315.145 34.1504 314.974 34.9184C314.889 35.6864 314.761 36.4971 314.59 37.3504C314.249 38.7157 313.993 40.2091 313.822 41.8304C313.651 43.3664 313.651 44.4757 313.822 45.1584C314.163 46.4384 314.59 47.1637 315.102 47.3344C315.529 47.5051 315.827 47.5477 315.998 47.4624C316.681 47.2064 317.406 46.6517 318.174 45.7984C318.942 45.0304 320.137 43.4091 321.758 40.9344C322.165 40.3529 322.567 39.7813 322.964 39.2196C322.676 40.556 322.808 41.6396 323.362 42.4704C324.13 43.4944 325.239 43.6651 326.69 42.9824C327.373 42.6411 328.354 41.7877 329.634 40.4224C330.999 39.0571 332.407 37.4357 333.858 35.5584C334.285 35.0464 334.541 34.6624 334.626 34.4064L335.01 34.0224C335.01 34.1077 334.925 34.4917 334.754 35.1744C334.071 37.9051 333.858 40.2091 334.114 42.0864C334.37 43.9637 335.01 45.1157 336.034 45.5424C336.631 45.7984 337.442 45.5424 338.466 44.7744C339.063 44.2624 339.959 43.2384 341.154 41.7024C341.826 40.7901 342.485 39.8643 343.13 38.925C343.135 40.0958 343.348 40.7656 343.77 40.9344C344.453 41.2757 345.007 40.8064 345.434 39.5264C345.69 38.6731 346.159 37.6917 346.842 36.5824C347.525 35.3877 348.293 34.2784 349.146 33.2544C350.085 32.2304 350.639 31.7611 350.81 31.8464C350.895 31.9317 350.938 32.2304 350.938 32.7424C351.023 33.1691 351.109 34.0651 351.194 35.4304C351.365 37.3077 351.535 38.7157 351.706 39.6544C351.962 40.5077 352.346 41.1477 352.858 41.5744C353.285 41.9157 353.669 42.0864 354.01 42.0864C354.437 42.0864 354.863 42.0011 355.29 41.8304C355.717 41.5744 356.229 41.1477 356.826 40.5504C357.509 39.9531 358.277 39.1424 359.13 38.1184C360.069 37.0091 361.221 35.6011 362.586 33.8944C363.695 32.5291 364.335 31.7184 364.506 31.4624C364.677 31.2064 364.677 30.9931 364.506 30.8224H364.634C364.549 30.7371 364.293 30.8651 363.866 31.2064C363.61 31.4624 362.842 32.3157 361.562 33.7664C360.282 35.2171 359.087 36.5824 357.978 37.8624C356.101 39.9104 354.821 40.9344 354.138 40.9344C353.882 40.9344 353.669 40.8064 353.498 40.5504C353.242 40.2091 353.071 39.7397 352.986 39.1424C352.901 38.4597 352.773 37.2651 352.602 35.5584C352.517 34.6197 352.431 33.7664 352.346 32.9984C352.346 32.2304 352.303 31.7611 352.218 31.5904C352.133 31.2491 351.919 30.9504 351.578 30.6944C351.322 30.3531 351.109 30.1824 350.938 30.1824C350.17 30.1824 349.018 31.0784 347.482 32.8704L346.97 33.5104L347.354 32.4864L347.628 31.6651L347.738 31.3344C347.852 31.0691 347.957 30.8038 348.054 30.5385C348.175 30.2065 348.283 29.8744 348.378 29.5424C348.89 28.2624 349.146 27.4091 349.146 26.9824C349.231 26.4704 349.061 26.1291 348.634 25.9584C348.037 25.6171 347.525 25.7451 347.098 26.3424C346.757 26.7691 346.373 27.4944 345.946 28.5184C345.519 29.5424 345.093 30.6944 344.666 31.9744C344.325 33.1691 343.983 34.4064 343.642 35.6864C343.548 36.1256 343.465 36.5474 343.394 36.952C342.453 38.2334 341.536 39.4329 340.642 40.5504C339.021 42.5984 337.869 43.7931 337.186 44.1344C336.589 44.3904 336.205 44.2197 336.034 43.6224C335.949 43.3664 335.863 43.0677 335.778 42.7264V40.8064C335.778 39.5264 335.863 38.3317 336.034 37.2224C336.29 36.1131 336.674 34.6197 337.186 32.7424C337.357 32.1451 337.527 31.6331 337.698 31.2064C337.869 30.6944 337.954 30.3531 337.954 30.1824C337.954 29.5851 337.655 29.2864 337.058 29.2864C336.717 29.2864 336.333 29.5424 335.906 30.0544L335.266 30.6944L335.01 30.4384C334.157 29.2437 332.791 28.9451 330.914 29.5424C329.293 30.0544 327.757 31.1637 326.306 32.8704C325.526 33.7426 324.869 34.6641 324.335 35.635C324.125 35.8959 323.906 36.1691 323.678 36.4544C323.081 37.2224 322.355 38.1184 321.502 39.1424L319.582 41.7024C318.558 43.0677 317.705 44.0917 317.022 44.7744C316.425 45.5424 316.041 45.8837 315.87 45.7984C315.699 45.7984 315.571 45.5851 315.486 45.1584C315.401 44.7317 315.358 44.2624 315.358 43.7504C315.358 43.1531 315.401 42.4277 315.486 41.5744C315.657 40.6357 315.913 39.2704 316.254 37.4784C316.595 35.8571 316.766 34.7051 316.766 34.0224C316.851 33.2544 316.809 32.6571 316.638 32.2304C316.126 31.2917 315.315 31.0357 314.206 31.4624C313.609 31.7184 313.054 32.0171 312.542 32.3584C312.115 32.6997 311.561 33.2117 310.878 33.8944C310.11 34.6624 309.726 34.9611 309.726 34.7904L309.982 33.5104C310.153 32.9984 310.323 32.6571 310.494 32.4864ZM312.926 24.5504C313.267 23.5264 313.566 22.7584 313.822 22.2464C315.273 18.4917 316.723 15.4197 318.174 13.0304C319.625 10.6411 321.203 8.63573 322.91 7.0144C324.361 5.56373 325.811 4.7104 327.262 4.4544C328.201 4.1984 328.926 4.3264 329.438 4.8384C330.035 5.26507 330.377 5.94773 330.462 6.8864C330.633 8.9344 329.822 11.4944 328.03 14.5664C326.238 17.6384 323.763 20.7957 320.606 24.0384C317.619 27.1104 314.846 29.3291 312.286 30.6944C311.177 31.2917 310.622 31.5051 310.622 31.3344C310.622 31.2491 310.75 30.8224 311.006 30.0544C311.262 29.2864 311.561 28.4331 311.902 27.4944C312.243 26.4704 312.585 25.4891 312.926 24.5504ZM333.218 33.2544C333.645 32.7424 333.815 32.4437 333.73 32.3584C333.218 32.1024 332.45 32.3584 331.426 33.1264C330.402 33.8944 329.463 34.8757 328.61 36.0704C328.269 36.5824 327.885 37.2224 327.458 37.9904C327.031 38.6731 326.818 39.0997 326.818 39.2704C326.818 39.4411 326.903 39.4837 327.074 39.3984C327.33 39.2277 327.799 38.8011 328.482 38.1184C329.165 37.5211 329.89 36.7957 330.658 35.9424C331.511 35.0891 332.365 34.1931 333.218 33.2544Z" fill="black"/>
</svg>
