<svg xmlns="http://www.w3.org/2000/svg">
<defs>
<font id="OggBold" horiz-adv-x="534" >
  <font-face 
    font-family="Ogg"
    font-weight="700"
    font-stretch="normal"
    units-per-em="1000"
    panose-1="2 9 8 4 8 7 6 3 2 3"
    ascent="800"
    descent="-200"
    x-height="500"
    cap-height="693"
    bbox="-256 -328.5 1334 1018"
    underline-thickness="50"
    underline-position="-150"
    unicode-range="U+000D-FB01"
  />
<missing-glyph horiz-adv-x="1414" 
d="M1229 695q53 -55 79 -152t26 -236q0 -126 -32.5 -230.5t-84.5 -158.5q-62 -62 -199.5 -107t-293.5 -45q-185 0 -342 46t-215 113q-45 51 -66 142t-21 237q0 114 28.5 216.5t75.5 155.5q67 77 202.5 117.5t327.5 40.5q189 0 322.5 -36t192.5 -103zM253 -6
q-18 -19 -32.5 -25.5t-32.5 -6.5q-3 0 -9 1.5t-15 4.5q4 -9 8.5 -16.5t10.5 -14.5q46 -51 196.5 -84t340.5 -33q162 0 299.5 33t181.5 76q37 38 56 134.5t19 245.5q0 182 -13 259.5t-48 114.5q-44 52 -172 78.5t-331 26.5q-176 0 -322 -34.5t-194 -87.5q-31 -36 -46.5 -127
t-15.5 -232v-64q44 31 62.5 39.5t35.5 8.5t35 -2.5t52 -11.5q32 -8 48 -10.5t31 -2.5q12 0 20.5 6.5t9.5 16.5q-18 -2 -37.5 6.5t-26.5 24.5q25 -9 47.5 -1.5t29.5 26.5q22 -11 40 -3t24 30q26 -2 42 7.5t22 31.5q29 -6 50 16.5t22 23.5q17 -1 39.5 6.5t43.5 22.5q5 2 10 5
l15 9l15 9t10 5q8 1 14 0t8 -4q-3 2 -12 -1.5t-13 -9.5q-32 -30 -46 -40.5t-29 -18.5q-26 -15 -40.5 -35.5t-21.5 -51.5q-4 -16 -11 -31t-18 -31q-5 -6 -10.5 -8.5t-13.5 -3.5q-21 -3 -25 -5t-5 -5q-1 -7 6 -12t17 -5q9 -1 25.5 -0.5t19.5 0.5q7 0 11 6t4 17q0 3 3.5 7
t15.5 13q15 11 20.5 17t7.5 12q2 9 0.5 16t-6.5 13q7 9 17 15t28 10q20 5 32.5 13t21.5 22q18 22 27.5 49t4.5 46q17 -10 33.5 -15t37.5 -5q17 0 26.5 4t14.5 12q18 -2 29.5 3t15.5 17q3 5 1.5 10t-6.5 6q19 -1 35 5.5t16 14.5q0 1 -3 1.5t-8 0.5q-6 0 -12.5 0.5t-17.5 3.5
q-10 2 -15 2.5t-10 0.5q-11 0 -20 -2.5t-15 -6.5l-2 2q5 8 14 11.5t28 3.5q4 0 8.5 -0.5t15.5 -1.5q14 -2 21.5 -2.5t14.5 -0.5q14 0 25 4.5t18 12.5q-15 0 -30 1t-41 5q-22 3 -32.5 4t-20.5 1q-17 0 -30.5 -10t-20.5 -28q-9 -17 -26.5 -20t-35.5 8q-7 5 -14 8t-14 3

<glyph glyph-name="uniFB01" unicode="fi" horiz-adv-x="559" 
d="M91 1q-37 -1 -53.5 -1h-25.5q-6 0 -6 4.5t6 4.5q39 0 48.5 14t9.5 87v29.5v83.5q-1 100 -1 144.5v67.5h-58q-7 0 -9.5 2t-1.5 6l26 57h49q11 49 43.5 98t81.5 89q51 42 106 65.5t102 23.5t75 -10t28 -27q0 -28 -25 -54t-57 -26q-14 0 -30 5t-47 22q-32 17 -48.5 22
t-31.5 5q-44 0 -62.5 -42t-18.5 -138v-33h101h11.5t1.5 -1q0 -2 -14.5 -30t-19.5 -34h-80q0 -63 0.5 -144.5t0.5 -180.5q0 -27 1 -43t3 -26q4 -19 12.5 -25.5t38.5 -6.5q6 0 6 -4.5t-6 -4.5h-16.5t-42.5 1q-28 1 -38.5 1h-14.5h-11.5t-32.5 -1zM374 1q-31 -1 -42.5 -1h-15.5
q-6 0 -6 4.5t6 4.5q31 0 39.5 16t8.5 85v257q0 46 -7.5 62.5t-32.5 10.5q-5 -2 -6.5 2t3.5 5q39 11 83 28.5t69 34.5q3 2 10.5 -1t7.5 -6v-393q0 -70 10.5 -85.5t49.5 -15.5q6 0 6 -4.5t-6 -4.5h-25t-53 1q-24 1 -32.5 1h-11.5h-14.5t-40.5 -1z" />
    <glyph glyph-name="f_b" unicode="fb" horiz-adv-x="912" 
d="M69 435h-58q-7 0 -9.5 2t-1.5 6l26 57h48q11 49 41 96.5t76 88.5q47 43 100 68t97 25q12 0 23 -1.5t22 -3.5q14 7 27 16.5t26 22.5q3 2 9 -0.5t6 -5.5v-399q41 52 87.5 77.5t100.5 25.5q84 0 135.5 -59.5t51.5 -153.5q0 -138 -77.5 -222.5t-202.5 -84.5q-41 0 -79 14.5
t-68 42.5q-22 -21 -42 -35t-25 -14q-2 0 -3.5 2.5t-1.5 6.5v651q-24 31 -50.5 46.5t-55.5 15.5q-41 0 -60.5 -43.5t-19.5 -132.5v-44h97h12t2 -1q0 -2 -14.5 -30t-19.5 -34h-77q1 -65 1 -146v-179q0 -31 1.5 -48t4.5 -27q4 -15 15 -20.5t46 -5.5q6 0 6 -4.5t-6 -4.5h-25.5
t-54.5 1q-24 1 -32.5 1h-11.5h-11.5t-32.5 -1q-37 -1 -53.5 -1h-25.5q-6 0 -6 4.5t6 4.5q39 0 48.5 14t9.5 87v29.5v83.5q-1 100 -1 144.5v67.5zM748 242q0 103 -35 162t-98 59q-31 0 -59.5 -17t-54.5 -51v-301q22 -42 55 -66t69 -24q61 0 92 60t31 178z" />
    <glyph glyph-name="f_h" unicode="fh" horiz-adv-x="902" 
d="M69 435h-58q-7 0 -9.5 2t-1.5 6l26 57h48q11 49 41 96.5t76 88.5q47 43 100 68t97 25q12 0 23.5 -1t22.5 -4q16 9 29 19t23 20q3 2 9 -0.5t6 -5.5v-406q43 56 88.5 83t94.5 27q79 0 119 -51t40 -151v-228q0 -42 8 -57t40 -14q6 0 6 -4.5t-6 -4.5h-11.5t-38.5 1
q-48 0 -66 0.5t-23 0.5h-9t-21 -1q-24 -1 -36 -1h-21q-6 0 -6 4.5t6 4.5q37 0 45 18t8 82v203q0 74 -25 111.5t-73 37.5q-34 0 -61.5 -17t-57.5 -57v-378h60q6 0 6 -4.5t-6 -4.5h-18.5t-43.5 1q-25 1 -34 1h-13h-11.5t-31.5 -1q-36 -1 -52 -1h-25q-6 0 -6 4.5t6 4.5
q30 0 37.5 16t7.5 94v539q-24 31 -50.5 46.5t-55.5 15.5q-41 0 -60.5 -43.5t-19.5 -132.5v-44h97h12t2 -1q0 -2 -14.5 -30t-19.5 -34h-77q1 -65 1 -146v-179q0 -31 1.5 -48t4.5 -27q4 -15 15 -20.5t46 -5.5q6 0 6 -4.5t-6 -4.5h-25.5t-54.5 1q-24 1 -32.5 1h-11.5h-11.5
t-32.5 -1q-37 -1 -53.5 -1h-25.5q-6 0 -6 4.5t6 4.5q39 0 48.5 14t9.5 87v29.5v83.5q-1 100 -1 144.5v67.5z" />
    <glyph glyph-name="f_hbar" unicode="f&#x127;" horiz-adv-x="902" 
d="M69 435h-58q-7 0 -9.5 2t-1.5 6l26 57h48q11 49 41 96.5t76 88.5q47 43 100 68t97 25q12 0 23.5 -1t22.5 -4q16 9 29 19t23 20q3 2 9 -0.5t6 -5.5v-190q43 1 77.5 2.5t58.5 4.5q5 -5 5 -15.5t-5 -13.5q-27 3 -61 4.5t-75 2.5v-201q43 56 88.5 83t94.5 27q79 0 119 -51
t40 -151v-228q0 -42 8 -57t40 -14q6 0 6 -4.5t-6 -4.5h-11.5t-38.5 1q-48 0 -66 0.5t-23 0.5h-9t-21 -1q-24 -1 -36 -1h-21q-6 0 -6 4.5t6 4.5q37 0 45 18t8 82v203q0 74 -25 111.5t-73 37.5q-34 0 -61.5 -17t-57.5 -57v-378h60q6 0 6 -4.5t-6 -4.5h-18.5t-43.5 1
q-25 1 -34 1h-13h-11.5t-31.5 -1q-36 -1 -52 -1h-25q-6 0 -6 4.5t6 4.5q30 0 37.5 16t7.5 94v481q-30 -2 -48 -3.5t-31 -2.5q-4 3 -4 13.5t4 15.5q11 -2 27 -3.5t52 -3.5v42q-24 31 -50.5 46.5t-55.5 15.5q-41 0 -60.5 -43.5t-19.5 -132.5v-44h97h12t2 -1q0 -2 -14.5 -30
t-19.5 -34h-77q1 -65 1 -146v-179q0 -31 1.5 -48t4.5 -27q4 -15 15 -20.5t46 -5.5q6 0 6 -4.5t-6 -4.5h-25.5t-54.5 1q-24 1 -32.5 1h-11.5h-11.5t-32.5 -1q-37 -1 -53.5 -1h-25.5q-6 0 -6 4.5t6 4.5q39 0 48.5 14t9.5 87v29.5v83.5q-1 100 -1 144.5v67.5z" />
    <glyph glyph-name="f_iacute" unicode="f&#xed;" horiz-adv-x="559" 
d="M91 1q-37 -1 -53.5 -1h-25.5q-6 0 -6 4.5t6 4.5q39 0 48.5 14t9.5 87v29.5v83.5q-1 100 -1 144.5v67.5h-58q-7 0 -9.5 2t-1.5 6l26 57h48q10 47 36 93.5t66 86.5q43 44 91.5 70t87.5 26q41 0 65.5 -9.5t24.5 -25.5q0 -26 -21 -49t-48 -23q-12 0 -25.5 4.5t-39.5 19.5
q-28 15 -43 20t-28 5q-26 0 -37.5 -44.5t-11.5 -140.5v-33h101h11.5t1.5 -1q0 -2 -14.5 -30t-19.5 -34h-80q0 -63 0.5 -144.5t0.5 -180.5q0 -27 1 -43t3 -26q4 -19 12.5 -25.5t38.5 -6.5q6 0 6 -4.5t-6 -4.5h-16.5t-42.5 1q-28 1 -38.5 1h-14.5h-11.5t-32.5 -1zM499 630
q-46 -31 -67.5 -46.5t-35.5 -27.5q-4 -3 -5 -3.5t-2 -0.5t-2.5 2t-1.5 4q0 1 1 2l4 4q13 15 30 38.5t48 72.5q16 24 21.5 32t8.5 12q7 8 17 13t19 5q13 0 24 -11.5t11 -23.5q0 -8 -3.5 -17.5t-9.5 -15.5q-6 -5 -17 -12.5t-40 -26.5zM374 1q-31 -1 -42.5 -1h-15.5
q-6 0 -6 4.5t6 4.5q31 0 39.5 16t8.5 85v257q0 46 -7.5 62.5t-32.5 10.5q-5 -2 -6.5 2t3.5 5q39 11 83 28.5t69 34.5q3 2 10.5 -1t7.5 -6v-393q0 -70 10.5 -85.5t49.5 -15.5q6 0 6 -4.5t-6 -4.5h-25t-53 1q-24 1 -32.5 1h-11.5h-14.5t-40.5 -1z" />
    <glyph glyph-name="f_imacron" unicode="f&#x12b;" horiz-adv-x="559" 
d="M91 1q-37 -1 -53.5 -1h-25.5q-6 0 -6 4.5t6 4.5q39 0 48.5 14t9.5 87v29.5v83.5q-1 100 -1 144.5v67.5h-58q-7 0 -9.5 2t-1.5 6l26 57h48q10 47 38 94.5t70 87.5q46 43 96.5 68.5t91.5 25.5t65.5 -9.5t24.5 -25.5q0 -26 -21 -49t-49 -23q-12 0 -25.5 4.5t-39.5 19.5
q-27 15 -41.5 20t-27.5 5q-34 0 -49.5 -44.5t-15.5 -140.5v-33h101h11.5t1.5 -1q0 -2 -14.5 -30t-19.5 -34h-80q0 -63 0.5 -144.5t0.5 -180.5q0 -27 1 -43t3 -26q4 -19 12.5 -25.5t38.5 -6.5q6 0 6 -4.5t-6 -4.5h-16.5t-42.5 1q-28 1 -38.5 1h-14.5h-11.5t-32.5 -1zM373 627
q15 -1 28 -1h27h1h63.5t38.5 1q29 1 34.5 0.5t5.5 -1.5q0 -5 -10 -16t-46 -45h-4.5h-11.5q-24 1 -39.5 1h-29.5q-26 0 -53 -1t-32 -1q-22 -1 -31 -0.5t-9 2.5q0 4 8.5 13.5t47.5 47.5h4h8zM374 1q-31 -1 -42.5 -1h-15.5q-6 0 -6 4.5t6 4.5q31 0 39.5 16t8.5 85v257
q0 46 -7.5 62.5t-32.5 10.5q-5 -2 -6.5 2t3.5 5q39 11 83 28.5t69 34.5q3 2 10.5 -1t7.5 -6v-393q0 -70 10.5 -85.5t49.5 -15.5q6 0 6 -4.5t-6 -4.5h-25t-53 1q-24 1 -32.5 1h-11.5h-14.5t-40.5 -1z" />
    <glyph glyph-name="f_j" unicode="fj" horiz-adv-x="547" 
d="M91 1q-37 -1 -53.5 -1h-25.5q-6 0 -6 4.5t6 4.5q39 0 48.5 14t9.5 87v29.5v83.5q-1 100 -1 144.5v67.5h-58q-7 0 -9.5 2t-1.5 6l26 57h49q11 49 43.5 98t81.5 89q51 42 106 65.5t102 23.5t75 -10t28 -27q0 -28 -25 -54t-57 -26q-14 0 -30 5t-47 22q-32 17 -48.5 22
t-31.5 5q-44 0 -62.5 -42t-18.5 -138v-33h101h11.5t1.5 -1q0 -2 -14.5 -30t-19.5 -34h-80q0 -63 0.5 -144.5t0.5 -180.5q0 -32 1.5 -48.5t4.5 -26.5q4 -15 15 -20.5t46 -5.5q6 0 6 -4.5t-6 -4.5h-25.5t-54.5 1q-24 1 -32.5 1h-11.5h-11.5t-32.5 -1zM354 -161
q-54 -54 -92 -77.5t-70 -23.5q-20 0 -30.5 8t-10.5 23q0 26 26.5 52.5t54.5 26.5q10 0 20.5 -1t29.5 -4q23 -3 33 -3t17 2q22 4 29 39.5t7 117.5v368q0 45 -8 62t-34 11q-5 -1 -6.5 2.5t3.5 4.5q26 7 74.5 26.5t77.5 36.5q3 2 10.5 -1t7.5 -6v-118t1 -196v-86.5v-33.5
q-1 -50 -31 -100.5t-109 -129.5z" />
    <glyph glyph-name="f_k" unicode="fk" horiz-adv-x="900" 
d="M69 435h-58q-7 0 -9.5 2t-1.5 6l26 57h48q11 49 41 96.5t76 88.5q47 43 100 68t97 25q12 0 23.5 -1t22.5 -4q16 9 29 19t23 20q3 2 9 -0.5t6 -5.5v-626l154 159q25 26 37.5 50t13.5 46q1 26 -16.5 41t-47.5 15q-5 0 -5 4t5 4q8 0 28 -0.5t68 -0.5q29 -1 38.5 -1h12.5
q4 0 17 0.5t46 0.5q21 1 27.5 1h8.5q5 0 5 -4t-5 -4q-36 0 -93.5 -40t-130.5 -116l73 -132q60 -109 96.5 -151.5t75.5 -42.5q6 0 6 -4.5t-5 -4.5h-127q-22 0 -35.5 2.5t-23.5 8.5q-20 10 -39 37.5t-52 96.5l-54 103l-78 -79v-160h60q6 0 6 -4.5t-6 -4.5h-18.5t-43.5 1
q-25 1 -34 1h-13h-11.5t-31.5 -1q-36 -1 -52 -1h-25q-6 0 -6 4.5t6 4.5q30 0 37.5 16t7.5 94v539q-24 31 -50.5 46.5t-55.5 15.5q-41 0 -60.5 -43.5t-19.5 -132.5v-44h97h12t2 -1q0 -2 -14.5 -30t-19.5 -34h-77q1 -65 1 -146v-179q0 -31 1.5 -48t4.5 -27q4 -15 15 -20.5
t46 -5.5q6 0 6 -4.5t-6 -4.5h-25.5t-54.5 1q-24 1 -32.5 1h-11.5h-11.5t-32.5 -1q-37 -1 -53.5 -1h-25.5q-6 0 -6 4.5t6 4.5q39 0 48.5 14t9.5 87v29.5v83.5q-1 100 -1 144.5v67.5z" />
    <glyph glyph-name="f_l" unicode="fl" horiz-adv-x="566" 
d="M69 435h-58q-7 0 -9.5 2t-1.5 6l26 57h48q11 49 41 96.5t76 88.5q47 43 100 68t97 25q12 0 23.5 -1t22.5 -4q16 9 29 19t23 20q3 2 9 -0.5t6 -5.5v-687q0 -77 8.5 -93.5t50.5 -16.5q6 0 6 -4.5t-6 -4.5h-23.5t-46.5 1q-20 1 -27.5 1h-10.5h-11.5t-31.5 -1q-36 -1 -52 -1
h-25q-6 0 -6 4.5t6 4.5q30 0 37.5 16t7.5 94v539q-24 31 -50.5 46.5t-55.5 15.5q-41 0 -60.5 -43.5t-19.5 -132.5v-44h97h12t2 -1q0 -2 -14.5 -30t-19.5 -34h-77q1 -65 1 -146v-179q0 -31 1.5 -48t4.5 -27q4 -15 15 -20.5t46 -5.5q6 0 6 -4.5t-6 -4.5h-25.5t-54.5 1
q-24 1 -32.5 1h-11.5h-11.5t-32.5 -1q-37 -1 -53.5 -1h-25.5q-6 0 -6 4.5t6 4.5q39 0 48.5 14t9.5 87v29.5v83.5q-1 100 -1 144.5v67.5z" />
    <glyph glyph-name="f_lcaron" unicode="f&#x13e;" horiz-adv-x="566" 
d="M0 0zM69 435h-58q-7 0 -9.5 2t-1.5 6l26 57h48q11 49 41 96.5t76 88.5q47 43 100 68t97 25q12 0 23.5 -1t22.5 -4q16 9 29 19t23 20q3 2 9 -0.5t6 -5.5v-687q0 -77 8.5 -93.5t50.5 -16.5q6 0 6 -4.5t-6 -4.5h-23.5t-46.5 1q-20 1 -27.5 1h-10.5h-11.5t-31.5 -1
q-36 -1 -52 -1h-25q-6 0 -6 4.5t6 4.5q30 0 37.5 16t7.5 94v539q-24 31 -50.5 46.5t-55.5 15.5q-41 0 -60.5 -43.5t-19.5 -132.5v-44h97h12t2 -1q0 -2 -14.5 -30t-19.5 -34h-77q1 -65 1 -146v-179q0 -31 1.5 -48t4.5 -27q4 -15 15 -20.5t46 -5.5q6 0 6 -4.5t-6 -4.5h-25.5
t-54.5 1q-24 1 -32.5 1h-11.5h-11.5t-32.5 -1q-37 -1 -53.5 -1h-25.5q-6 0 -6 4.5t6 4.5q39 0 48.5 14t9.5 87v29.5v83.5q-1 100 -1 144.5v67.5zM574 731q-10 17 -13 24t-3 13q0 14 20.5 29.5t38.5 15.5q19 0 31 -26t12 -66t-19 -88t-59 -105q-3 -5 -7.5 -2t-0.5 7
q21 35 26.5 54.5t5.5 44.5q0 23 -6.5 45t-25.5 54z" />
    <glyph glyph-name="g_g" unicode="gg" horiz-adv-x="1040" 
d="M1068 526q0 -17 -17 -33t-37 -16q-5 0 -16 1.5t-44 5.5q-64 9 -97 12.5t-56 3.5v-2q88 -13 135 -56.5t47 -110.5q0 -79 -63.5 -127t-166.5 -48q-21 0 -39.5 2t-33.5 5q-33 -9 -48 -20t-15 -27q0 -20 23 -28t81 -8h130q88 0 131.5 -26.5t43.5 -80.5q0 -49 -30.5 -98.5
t-84.5 -87.5q-46 -33 -101 -51t-111 -18q-78 0 -120.5 30t-42.5 83q0 42 39.5 80t112.5 66q-70 1 -106 21t-36 58q0 34 32.5 63t89.5 47q-59 16 -89 56.5t-30 101.5q0 75 62.5 126t161.5 55q33 1 77.5 7.5t122.5 22.5q32 6 43.5 8t16.5 2q13 2 24 -3.5t11 -15.5zM555 526
q0 -17 -17 -33t-38 -16q-5 0 -16 1.5t-43 5.5q-64 9 -97 12.5t-56 3.5v-2q87 -13 134 -56.5t47 -110.5q0 -79 -63 -127t-165 -48q-20 0 -38.5 2t-37.5 6q-37 -9 -53.5 -20.5t-16.5 -27.5q0 -19 23 -27.5t80 -8.5h134q82 0 122.5 -27t40.5 -81q0 -48 -30 -97.5t-82 -87.5
q-46 -33 -100 -51t-109 -18q-85 -1 -129.5 28t-44.5 85q0 42 39.5 80t111.5 66q-63 3 -95 22.5t-32 56.5q0 35 34 64.5t95 46.5q-58 16 -88 56t-30 101q0 76 63 126.5t162 54.5q34 1 78.5 7.5t122.5 22.5q31 6 42 8t16 2q13 2 24.5 -3.5t11.5 -15.5zM164 335q0 -81 23 -126
t65 -45q45 0 67.5 42t22.5 125q0 80 -22.5 122.5t-64.5 42.5q-46 0 -68.5 -39.5t-22.5 -121.5zM677 335q0 -80 23 -125.5t64 -45.5q46 0 69 42t23 125q0 80 -22.5 122.5t-65.5 42.5q-46 0 -68.5 -39.5t-22.5 -121.5zM76 -108q0 -43 45 -65.5t133 -22.5h2q94 0 151.5 31.5
t57.5 78.5q0 34 -34 48.5t-114 14.5h-154q-42 -17 -64.5 -38.5t-22.5 -46.5zM613 -108q0 -43 42 -65.5t125 -22.5h1q95 0 155 31.5t60 79.5q0 34 -37 48t-125 14h-134q-42 -17 -64.5 -38.5t-22.5 -46.5z" />
    <glyph glyph-name="g_gdotaccent" unicode="g&#x121;" horiz-adv-x="1040" 
d="M0 0zM1068 526q0 -17 -17 -33t-37 -16q-5 0 -16 1.5t-44 5.5q-64 9 -97 12.5t-56 3.5v-2q88 -13 135 -56.5t47 -110.5q0 -79 -63.5 -127t-166.5 -48q-21 0 -39.5 2t-33.5 5q-33 -9 -48 -20t-15 -27q0 -20 23 -28t81 -8h130q88 0 131.5 -26.5t43.5 -80.5
q0 -49 -30.5 -98.5t-84.5 -87.5q-46 -33 -101 -51t-111 -18q-78 0 -120.5 30t-42.5 83q0 42 39.5 80t112.5 66q-70 1 -106 21t-36 58q0 34 32.5 63t89.5 47q-59 16 -89 56.5t-30 101.5q0 75 62.5 126t161.5 55q33 1 77.5 7.5t122.5 22.5q32 6 43.5 8t16.5 2q13 2 24 -3.5
t11 -15.5zM555 526q0 -17 -17 -33t-38 -16q-5 0 -16 1.5t-43 5.5q-64 9 -97 12.5t-56 3.5v-2q87 -13 134 -56.5t47 -110.5q0 -79 -63 -127t-165 -48q-20 0 -38.5 2t-37.5 6q-37 -9 -53.5 -20.5t-16.5 -27.5q0 -19 23 -27.5t80 -8.5h134q82 0 122.5 -27t40.5 -81
q0 -48 -30 -97.5t-82 -87.5q-46 -33 -100 -51t-109 -18q-85 -1 -129.5 28t-44.5 85q0 42 39.5 80t111.5 66q-63 3 -95 22.5t-32 56.5q0 35 34 64.5t95 46.5q-58 16 -88 56t-30 101q0 76 63 126.5t162 54.5q34 1 78.5 7.5t122.5 22.5q31 6 42 8t16 2q13 2 24.5 -3.5
t11.5 -15.5zM164 335q0 -81 23 -126t65 -45q45 0 67.5 42t22.5 125q0 80 -22.5 122.5t-64.5 42.5q-46 0 -68.5 -39.5t-22.5 -121.5zM677 335q0 -80 23 -125.5t64 -45.5q46 0 69 42t23 125q0 80 -22.5 122.5t-65.5 42.5q-46 0 -68.5 -39.5t-22.5 -121.5zM76 -108
q0 -43 45 -65.5t133 -22.5h2q94 0 151.5 31.5t57.5 78.5q0 34 -34 48.5t-114 14.5h-154q-42 -17 -64.5 -38.5t-22.5 -46.5zM613 -108q0 -43 42 -65.5t125 -22.5h1q95 0 155 31.5t60 79.5q0 34 -37 48t-125 14h-134q-42 -17 -64.5 -38.5t-22.5 -46.5zM775 585q-33 0 -57 24
t-24 57q0 34 24 58t57 24q34 0 58 -24t24 -58t-24 -57.5t-58 -23.5z" />
    <glyph glyph-name="gbreve_g" unicode="&#x11f;g" horiz-adv-x="1040" 
d="M0 0zM1068 526q0 -17 -17 -33t-37 -16q-5 0 -16 1.5t-44 5.5q-64 9 -97 12.5t-56 3.5v-2q88 -13 135 -56.5t47 -110.5q0 -79 -63.5 -127t-166.5 -48q-21 0 -39.5 2t-33.5 5q-33 -9 -48 -20t-15 -27q0 -20 23 -28t81 -8h130q88 0 131.5 -26.5t43.5 -80.5
q0 -49 -30.5 -98.5t-84.5 -87.5q-46 -33 -101 -51t-111 -18q-78 0 -120.5 30t-42.5 83q0 42 39.5 80t112.5 66q-70 1 -106 21t-36 58q0 34 32.5 63t89.5 47q-59 16 -89 56.5t-30 101.5q0 75 62.5 126t161.5 55q33 1 77.5 7.5t122.5 22.5q32 6 43.5 8t16.5 2q13 2 24 -3.5
t11 -15.5zM555 526q0 -17 -17 -33t-38 -16q-5 0 -16 1.5t-43 5.5q-64 9 -97 12.5t-56 3.5v-2q87 -13 134 -56.5t47 -110.5q0 -79 -63 -127t-165 -48q-20 0 -38.5 2t-37.5 6q-37 -9 -53.5 -20.5t-16.5 -27.5q0 -19 23 -27.5t80 -8.5h134q82 0 122.5 -27t40.5 -81
q0 -48 -30 -97.5t-82 -87.5q-46 -33 -100 -51t-109 -18q-85 -1 -129.5 28t-44.5 85q0 42 39.5 80t111.5 66q-63 3 -95 22.5t-32 56.5q0 35 34 64.5t95 46.5q-58 16 -88 56t-30 101q0 76 63 126.5t162 54.5q34 1 78.5 7.5t122.5 22.5q31 6 42 8t16 2q13 2 24.5 -3.5
t11.5 -15.5zM164 335q0 -81 23 -126t65 -45q45 0 67.5 42t22.5 125q0 80 -22.5 122.5t-64.5 42.5q-46 0 -68.5 -39.5t-22.5 -121.5zM677 335q0 -80 23 -125.5t64 -45.5q46 0 69 42t23 125q0 80 -22.5 122.5t-65.5 42.5q-46 0 -68.5 -39.5t-22.5 -121.5zM76 -108
q0 -43 45 -65.5t133 -22.5h2q94 0 151.5 31.5t57.5 78.5q0 34 -34 48.5t-114 14.5h-154q-42 -17 -64.5 -38.5t-22.5 -46.5zM613 -108q0 -43 42 -65.5t125 -22.5h1q95 0 155 31.5t60 79.5q0 34 -37 48t-125 14h-134q-42 -17 -64.5 -38.5t-22.5 -46.5zM390 669
q-16 -43 -51 -69t-82 -27q-42 0 -72.5 16.5t-45.5 48.5q-6 13 -0.5 22.5t22.5 15.5q19 7 31 5t17 -13q20 -42 39 -58t46 -16q29 0 47 19t25 59q1 5 3.5 7t8.5 2t10 -3.5t2 -8.5z" />
    <glyph glyph-name="gdotaccent_g" unicode="&#x121;g" horiz-adv-x="1040" 
d="M0 0zM1068 526q0 -17 -17 -33t-37 -16q-5 0 -16 1.5t-44 5.5q-64 9 -97 12.5t-56 3.5v-2q88 -13 135 -56.5t47 -110.5q0 -79 -63.5 -127t-166.5 -48q-21 0 -39.5 2t-33.5 5q-33 -9 -48 -20t-15 -27q0 -20 23 -28t81 -8h130q88 0 131.5 -26.5t43.5 -80.5
q0 -49 -30.5 -98.5t-84.5 -87.5q-46 -33 -101 -51t-111 -18q-78 0 -120.5 30t-42.5 83q0 42 39.5 80t112.5 66q-70 1 -106 21t-36 58q0 34 32.5 63t89.5 47q-59 16 -89 56.5t-30 101.5q0 75 62.5 126t161.5 55q33 1 77.5 7.5t122.5 22.5q32 6 43.5 8t16.5 2q13 2 24 -3.5
t11 -15.5zM555 526q0 -17 -17 -33t-38 -16q-5 0 -16 1.5t-43 5.5q-64 9 -97 12.5t-56 3.5v-2q87 -13 134 -56.5t47 -110.5q0 -79 -63 -127t-165 -48q-20 0 -38.5 2t-37.5 6q-37 -9 -53.5 -20.5t-16.5 -27.5q0 -19 23 -27.5t80 -8.5h134q82 0 122.5 -27t40.5 -81
q0 -48 -30 -97.5t-82 -87.5q-46 -33 -100 -51t-109 -18q-85 -1 -129.5 28t-44.5 85q0 42 39.5 80t111.5 66q-63 3 -95 22.5t-32 56.5q0 35 34 64.5t95 46.5q-58 16 -88 56t-30 101q0 76 63 126.5t162 54.5q34 1 78.5 7.5t122.5 22.5q31 6 42 8t16 2q13 2 24.5 -3.5
t11.5 -15.5zM164 335q0 -81 23 -126t65 -45q45 0 67.5 42t22.5 125q0 80 -22.5 122.5t-64.5 42.5q-46 0 -68.5 -39.5t-22.5 -121.5zM677 335q0 -80 23 -125.5t64 -45.5q46 0 69 42t23 125q0 80 -22.5 122.5t-65.5 42.5q-46 0 -68.5 -39.5t-22.5 -121.5zM76 -108
q0 -43 45 -65.5t133 -22.5h2q94 0 151.5 31.5t57.5 78.5q0 34 -34 48.5t-114 14.5h-154q-42 -17 -64.5 -38.5t-22.5 -46.5zM613 -108q0 -43 42 -65.5t125 -22.5h1q95 0 155 31.5t60 79.5q0 34 -37 48t-125 14h-134q-42 -17 -64.5 -38.5t-22.5 -46.5zM267 585q-33 0 -57 24
t-24 57q0 34 24 58t57 24q34 0 58 -24t24 -58t-24 -57.5t-58 -23.5z" />
    <glyph glyph-name="gdotaccent_gdotaccent" unicode="&#x121;&#x121;" horiz-adv-x="1040" 
d="M0 0zM1068 526q0 -17 -17 -33t-37 -16q-5 0 -16 1.5t-44 5.5q-64 9 -97 12.5t-56 3.5v-2q88 -13 135 -56.5t47 -110.5q0 -79 -63.5 -127t-166.5 -48q-21 0 -39.5 2t-33.5 5q-33 -9 -48 -20t-15 -27q0 -20 23 -28t81 -8h130q88 0 131.5 -26.5t43.5 -80.5
q0 -49 -30.5 -98.5t-84.5 -87.5q-46 -33 -101 -51t-111 -18q-78 0 -120.5 30t-42.5 83q0 42 39.5 80t112.5 66q-70 1 -106 21t-36 58q0 34 32.5 63t89.5 47q-59 16 -89 56.5t-30 101.5q0 75 62.5 126t161.5 55q33 1 77.5 7.5t122.5 22.5q32 6 43.5 8t16.5 2q13 2 24 -3.5
t11 -15.5zM555 526q0 -17 -17 -33t-38 -16q-5 0 -16 1.5t-43 5.5q-64 9 -97 12.5t-56 3.5v-2q87 -13 134 -56.5t47 -110.5q0 -79 -63 -127t-165 -48q-20 0 -38.5 2t-37.5 6q-37 -9 -53.5 -20.5t-16.5 -27.5q0 -19 23 -27.5t80 -8.5h134q82 0 122.5 -27t40.5 -81
q0 -48 -30 -97.5t-82 -87.5q-46 -33 -100 -51t-109 -18q-85 -1 -129.5 28t-44.5 85q0 42 39.5 80t111.5 66q-63 3 -95 22.5t-32 56.5q0 35 34 64.5t95 46.5q-58 16 -88 56t-30 101q0 76 63 126.5t162 54.5q34 1 78.5 7.5t122.5 22.5q31 6 42 8t16 2q13 2 24.5 -3.5
t11.5 -15.5zM164 335q0 -81 23 -126t65 -45q45 0 67.5 42t22.5 125q0 80 -22.5 122.5t-64.5 42.5q-46 0 -68.5 -39.5t-22.5 -121.5zM677 335q0 -80 23 -125.5t64 -45.5q46 0 69 42t23 125q0 80 -22.5 122.5t-65.5 42.5q-46 0 -68.5 -39.5t-22.5 -121.5zM76 -108
q0 -43 45 -65.5t133 -22.5h2q94 0 151.5 31.5t57.5 78.5q0 34 -34 48.5t-114 14.5h-154q-42 -17 -64.5 -38.5t-22.5 -46.5zM613 -108q0 -43 42 -65.5t125 -22.5h1q95 0 155 31.5t60 79.5q0 34 -37 48t-125 14h-134q-42 -17 -64.5 -38.5t-22.5 -46.5zM267 585q-33 0 -57 24
t-24 57q0 34 24 58t57 24q34 0 58 -24t24 -58t-24 -57.5t-58 -23.5zM781 585q-33 0 -57 24t-24 57q0 34 24 58t57 24q34 0 58 -24t24 -58t-24 -57.5t-58 -23.5z" />
    <glyph glyph-name=".notdef" horiz-adv-x="1414" 
d="M1229 695q53 -55 79 -152t26 -236q0 -126 -32.5 -230.5t-84.5 -158.5q-62 -62 -199.5 -107t-293.5 -45q-185 0 -342 46t-215 113q-45 51 -66 142t-21 237q0 114 28.5 216.5t75.5 155.5q67 77 202.5 117.5t327.5 40.5q189 0 322.5 -36t192.5 -103zM253 -6
q-18 -19 -32.5 -25.5t-32.5 -6.5q-3 0 -9 1.5t-15 4.5q4 -9 8.5 -16.5t10.5 -14.5q46 -51 196.5 -84t340.5 -33q162 0 299.5 33t181.5 76q37 38 56 134.5t19 245.5q0 182 -13 259.5t-48 114.5q-44 52 -172 78.5t-331 26.5q-176 0 -322 -34.5t-194 -87.5q-31 -36 -46.5 -127
t-15.5 -232v-64q44 31 62.5 39.5t35.5 8.5t35 -2.5t52 -11.5q32 -8 48 -10.5t31 -2.5q12 0 20.5 6.5t9.5 16.5q-18 -2 -37.5 6.5t-26.5 24.5q25 -9 47.5 -1.5t29.5 26.5q22 -11 40 -3t24 30q26 -2 42 7.5t22 31.5q29 -6 50 16.5t22 23.5q17 -1 39.5 6.5t43.5 22.5q5 2 10 5
l15 9l15 9t10 5q8 1 14 0t8 -4q-3 2 -12 -1.5t-13 -9.5q-32 -30 -46 -40.5t-29 -18.5q-26 -15 -40.5 -35.5t-21.5 -51.5q-4 -16 -11 -31t-18 -31q-5 -6 -10.5 -8.5t-13.5 -3.5q-21 -3 -25 -5t-5 -5q-1 -7 6 -12t17 -5q9 -1 25.5 -0.5t19.5 0.5q7 0 11 6t4 17q0 3 3.5 7
t15.5 13q15 11 20.5 17t7.5 12q2 9 0.5 16t-6.5 13q7 9 17 15t28 10q20 5 32.5 13t21.5 22q18 22 27.5 49t4.5 46q17 -10 33.5 -15t37.5 -5q17 0 26.5 4t14.5 12q18 -2 29.5 3t15.5 17q3 5 1.5 10t-6.5 6q19 -1 35 5.5t16 14.5q0 1 -3 1.5t-8 0.5q-6 0 -12.5 0.5t-17.5 3.5
q-10 2 -15 2.5t-10 0.5q-11 0 -20 -2.5t-15 -6.5l-2 2q5 8 14 11.5t28 3.5q4 0 8.5 -0.5t15.5 -1.5q14 -2 21.5 -2.5t14.5 -0.5q14 0 25 4.5t18 12.5q-15 0 -30 1t-41 5q-22 3 -32.5 4t-20.5 1q-17 0 -30.5 -10t-20.5 -28q-9 -17 -26.5 -20t-35.5 8q-7 5 -14 8t-14 3
q-5 0 -9.5 -1.5t-20.5 -11.5q-16 -13 -35 -26.5t-36 -22.5q-2 -1 -5 -2t-9 -2q-7 -1 -10.5 -2.5t-5.5 -2.5q-9 -3 -12.5 -8.5t-4.5 -17.5q-26 -6 -58 -20t-97 -51q-58 -32 -83 -43t-43 -14q-5 -1 -10.5 -1t-13.5 2q-3 1 -5 1h-4t-5.5 -1t-13.5 -4q-18 -7 -27.5 -9t-16.5 -2
q-8 0 -13 10.5t-5 26.5q-13 5 -23 32t-10 52q0 11 9.5 25t26.5 27q17 12 30.5 27t21.5 28l7 14t8 15q5 8 11 13.5t13 9.5q5 7 14 32t19 38q11 15 27 25t39 15q-14 -14 -13 -26t15 -12q11 0 23 1t37 4q-11 -11 6.5 -19.5t45.5 0.5q-7 -27 1 -35.5t35 -2.5q-9 -25 -1 -35.5
t32 -1.5q-8 -21 -2 -30.5t27 -13.5q-13 -26 -2 -33t45 6q-8 53 -14.5 77.5t-14.5 37.5t-19.5 23t-33.5 22q-35 16 -45 26t-10 24q0 15 9.5 24.5t24.5 9.5q13 0 22 -6t19 -21q2 -3 4 -7.5t6 -15.5q5 -14 8 -21t7 -13q11 -17 28 -27t48 -19l-17 -16l-35 22q15 -37 18 -47
t5 -18q14 1 24.5 -2.5t17.5 -11.5q12 0 19.5 3t12.5 12q2 5 4 6t4 1q7 0 13.5 -1t23.5 -7q6 -3 18.5 -4.5t17.5 -2.5q9 8 14.5 22.5t5.5 28.5q0 25 -10.5 37t-32.5 12q-12 0 -21.5 -5.5t-12.5 -15.5q-3 -6 -2 -9.5t5 -3.5q12 0 17.5 -2.5t5.5 -7.5q0 -4 -1.5 -5t-7.5 -1
q-3 0 -6 1t-8 4q-1 0 -2 0.5l-1 0.5q-2 0 -4 -1t-5 -3q-4 -3 -6 -4t-4 -1q-4 0 -6.5 1t-2.5 3q0 4 4 9t7 6q1 2 2 3.5t1 5.5t1 7l2 6q6 13 20 21t29 8q23 0 39.5 -12t22.5 -33q6 13 15.5 23.5t22.5 17.5q8 5 18.5 7.5t32.5 3.5q25 2 38.5 5t26.5 9l4 -6q-10 -13 -20 -19
t-22 -6q4 -12 0.5 -22.5t-13.5 -15.5q4 -6 -3.5 -16t-17.5 -10q25 -4 55 -5t59 0l1 -5q-6 -15 -24.5 -24.5t-40.5 -10.5q4 -13 -13 -24t-36 -8q0 -17 -15.5 -27t-40.5 -10q-3 -7 -15.5 -11t-28.5 -4q-10 0 -22.5 2.5t-30.5 7.5q-6 -26 -5 -36t9 -12q5 -2 12.5 -1.5t25.5 5.5
q19 5 28.5 6.5t18.5 1.5q23 0 42 -9t35 -27q5 -6 10.5 -13t15.5 -21l19.5 -25.5t13.5 -16.5q22 -24 39 -34.5t33 -10.5q26 0 40.5 20t14.5 56q0 20 -5 37.5t-31 58.5q-8 14 -11.5 27t-3.5 25q0 31 24.5 79t26.5 54h11q2 -16 2.5 -36t-0.5 -61q-2 -30 -2 -44t1 -25
q1 -5 9.5 -43.5t8.5 -65.5q0 -45 -23 -72t-60 -27q-17 0 -32.5 5t-61.5 34v-48q0 -47 13 -58t69 -7q40 1 54.5 -13.5t10.5 -51.5q-3 -46 -8 -86.5t-11 -74.5q-4 -25 -37 -44t-78 -19q-12 0 -19 1.5t-7 4.5q-2 9 -0.5 18t5.5 10l6 6t7 6q4 4 7.5 5.5t7.5 1.5h5t9 -1
q5 -1 7.5 -1h4.5q19 1 26.5 7.5t7.5 22.5q-4 24 -5.5 41t-1.5 54q0 22 -6 30.5t-23 8.5q-5 0 -12 -0.5t-22 -2.5q-16 -2 -24 -2.5t-15 -0.5q-39 0 -60 27t-21 75q0 21 -1.5 29.5t-4.5 10.5q-7 -11 -11.5 -24t-4.5 -26q0 -44 15.5 -70.5t48.5 -39.5q2 -2 2 -11.5t-2 -14.5
q-5 -6 -11.5 -13.5t-19.5 -21.5q-20 -24 -30.5 -36t-18.5 -23q-16 -27 -53 -42t-80 -14q-5 0 -14.5 3t-9.5 6q-1 10 -0.5 19.5t2.5 12.5q1 1 12.5 9t18.5 8h7.5t10.5 -1q5 -1 7.5 -1h4.5q21 0 30.5 3.5t17.5 12.5q2 4 5 8t8 11q6 9 9 13t5 8q20 30 16 46t-33 27
q-37 14 -49 35t0 51q10 26 27 44t54 38q-21 6 -47 -7t-47 -42q-11 -16 -31 -47t-29 -44q-21 -28 -42 -39.5t-48 -11.5q-20 0 -41 7.5t-47 23.5q12 20 14 46.5t-7 42.5q-17 -68 -34 -88t-57 -13q-11 -23 -35 -32.5t-58 -4.5q-9 -22 -34.5 -38t-51.5 -15q-6 0 -12 -3t-16 -14z
M626 670q4 -2 5.5 -3t2.5 -1q-3 4 -5.5 8.5l-7.5 13.5q-4 9 -7 14t-6 9q-8 9 -10.5 10.5t-6.5 1.5q-5 0 -8.5 -4.5t-3.5 -9.5q0 -8 7.5 -15.5t22.5 -16.5q3 -1 6.5 -2.5zM771 582q0 3 2.5 5.5t8.5 4.5q5 2 9.5 0.5t4.5 -5.5q0 -3 -2 -4.5t-9 -2.5q-7 0 -10.5 0.5t-3.5 1.5z
M448 548q0 -10 -2 -15.5t-7 -9.5v-7q15 8 22.5 19t7.5 27q0 12 -10 21t-23 9q-12 0 -22.5 -8t-22.5 -25l3 -5q10 9 16.5 13t12.5 4q10 0 17.5 -6.5t7.5 -16.5zM725 539q-2 5 -9.5 7t-16.5 1q-4 -4 -1 -16t7 -12q7 0 15.5 8t4.5 12zM314 492q1 -4 1 -6v-3q0 -2 -0.5 -4
t-3.5 -6l-1.5 -3t-0.5 -2q0 -3 1 -4t3 -1l1 1t4 5q4 8 6.5 10.5t4.5 3.5q7 5 12 10t10 12h-4.5t-7.5 1q-7 1 -10 1h-6q-5 0 -7 -1.5t-2 -5.5v-3v-5zM228 442l-0.5 -2t-0.5 -6q0 -16 3 -25.5t9 -9.5q1 0 2 1.5t1 4.5v14t1 6q2 2 4.5 3.5t6.5 3.5q5 2 6 3.5t1 3.5q0 4 -1.5 5
t-3.5 -2q-7 -5 -17.5 -2.5zM324 371q-39 -4 -51 -2t-22 8l-3 -2q8 -12 17 -17.5t25 -3.5q2 3 10 5t15 2q3 0 5.5 -1t7.5 -4q2 -2 3 -2.5t2 -0.5q3 0 4 1t1 4q0 6 -4 9.5t-10 3.5zM153 161q-11 -5 -14 -11t-3 -17q1 -24 4 -50t7 -50q9 5 17.5 8t23.5 4q42 7 74 22t57 39
q7 7 17 14t30 20q32 20 43 32.5t14 27.5q-16 -14 -28.5 -18.5t-30.5 -4.5q-16 0 -27.5 7.5t-17.5 22.5q-19 -16 -41.5 -12.5t-31.5 24.5q-4 10 -7.5 12.5t-9.5 2.5q-4 0 -8 -3t-12 -14q-10 -14 -17.5 -19.5t-15.5 -6.5q-2 -11 -7 -18t-16 -12z" />
    <glyph glyph-name=".null" horiz-adv-x="0" 
 />
    <glyph glyph-name="nonmarkingreturn" horiz-adv-x="333" 
 />
    <glyph glyph-name="NULL" horiz-adv-x="0" 
 />
    <glyph glyph-name="NULL" horiz-adv-x="0" 
 />
    <glyph glyph-name="CR" unicode="&#xd;" horiz-adv-x="216" 
 />
    <glyph glyph-name="space" unicode=" " horiz-adv-x="216" 
 />
    <glyph glyph-name="exclam" unicode="!" horiz-adv-x="266" 
d="M76 591v5q0 27 32.5 65t54.5 38q20 0 31.5 -15t11.5 -40v-3q0 -19 -5.5 -54t-23.5 -125q-24 -119 -31.5 -172.5t-7.5 -88.5q0 -3 -4 -3t-4 3q0 36 -6.5 87t-26.5 157q-13 73 -17 101.5t-4 44.5zM133 -8q-32 0 -54 21.5t-22 53.5q0 33 22 55.5t54 22.5q33 0 55 -22t22 -55
q0 -32 -22.5 -54t-54.5 -22z" />
    <glyph glyph-name="quotedbl" unicode="&#x22;" horiz-adv-x="311" 
d="M42 391zM42 662q0 17 14 32t32 15t33 -15t15 -32q0 -7 -2.5 -22t-11.5 -55q-15 -73 -21.5 -114t-8.5 -74q0 -6 -4.5 -6t-5.5 6q-2 33 -8 73t-19 112q-8 42 -10.5 57t-2.5 23zM176 662q0 17 14 32t32 15t33 -15t15 -32q0 -7 -2.5 -22t-11.5 -55q-15 -73 -21.5 -114
t-8.5 -74q0 -6 -4.5 -6t-5.5 6q-2 33 -8 73t-19 112q-8 42 -10.5 57t-2.5 23z" />
    <glyph glyph-name="numbersign" unicode="#" horiz-adv-x="809" 
d="M541 475q-1 -36 -1.5 -65t-0.5 -59v-82t1 -40q16 1 33 1.5t49 2.5q49 2 73 3t45 1q5 -7 6.5 -14.5t-0.5 -22.5q-82 7 -133.5 11t-72.5 5q0 -14 0.5 -28.5t1.5 -45.5q2 -43 2.5 -71t1.5 -57q-10 -8 -18 -10t-17 0q1 35 3 66.5t5 80.5q2 27 2.5 40.5t1.5 25.5
q-38 1 -65 1.5t-53 0.5q-29 0 -58 -0.5t-70 -1.5q0 -14 0.5 -29t1.5 -47q2 -43 2.5 -70.5t1.5 -56.5q-10 -8 -18 -10t-17 0q1 35 3 67t5 81q2 26 2.5 39t1.5 25q-14 -1 -29 -1.5t-44 -2.5q-45 -3 -70 -4t-49 -2q-8 10 -10 18t0 17q21 -1 42.5 -2.5t60.5 -3.5q40 -3 60.5 -4
t39.5 -2q1 36 1.5 63.5t0.5 57.5v31t-1 45v31v18q-14 -1 -29 -1.5t-44 -1.5q-45 -3 -70.5 -4t-50.5 -2q-8 10 -10 18t0 17q25 -1 92 -5t111 -5q0 14 -0.5 29l-1.5 45q-2 41 -2.5 66t-0.5 50q7 5 14.5 6.5t22.5 -0.5q-1 -21 -3 -43t-4 -58q-4 -40 -5 -59t-2 -37q19 -1 43 -1
h82h77.5t42.5 1q0 14 -0.5 29l-1.5 45q-2 42 -2.5 67t-0.5 50q7 5 14.5 6.5t22.5 -0.5q-1 -21 -2.5 -42t-4.5 -57q-3 -40 -4.5 -59.5t-2.5 -37.5q18 0 37.5 1t54.5 2q44 2 65.5 2.5t40.5 0.5q5 -7 6.5 -14.5t-0.5 -22.5q-77 7 -128.5 10.5t-76.5 4.5zM278 475
q-1 -37 -1.5 -65.5t-0.5 -58.5v-82t1 -40q41 -1 69.5 -1.5t57.5 -0.5q26 0 53 0.5t67 1.5q1 36 1.5 63.5t0.5 57.5v31.5t-1 45.5v30.5v17.5q-40 1 -67 1.5t-53 0.5q-29 0 -57.5 -0.5t-69.5 -1.5z" />
    <glyph glyph-name="dollar" unicode="$" horiz-adv-x="561" 
d="M508 446q0 -7 -4.5 -6.5t-5.5 7.5q-5 111 -54.5 175t-138.5 72q-3 -80 -5 -148t-3 -133q86 -35 110.5 -47.5t43.5 -25.5q41 -28 61 -62.5t20 -77.5q0 -91 -67.5 -150.5t-174.5 -62.5q0 -16 0.5 -36t1.5 -63q-5 -8 -12 -10.5t-18 0.5q1 20 2 42t2 67q-43 0 -80.5 5
t-128.5 27q-8 3 -9.5 5t-1.5 7q0 6 0.5 15.5t1.5 36.5q3 62 4 102t1 76q0 7 5 7t5 -7q3 -113 58.5 -185.5t145.5 -78.5q4 133 5.5 186.5t1.5 98.5q-6 2 -45 18t-61 27q-33 15 -55.5 30.5t-38.5 32.5q-20 22 -30 48.5t-10 57.5q0 92 68.5 148.5t176.5 58.5v16t-1 26v26v16
q7 6 13 7.5t18 -1.5q0 -8 -0.5 -17t-1.5 -28t-1.5 -28t-0.5 -17q50 -1 95 -7t101 -20q7 -2 8.5 -4t2.5 -7t0.5 -17.5t-1.5 -51.5q-2 -54 -2.5 -87t-0.5 -63zM280 695q-70 -1 -109.5 -34.5t-39.5 -91.5q0 -46 33 -80.5t120 -70.5q0 29 -0.5 61t-1.5 95q-1 51 -1.5 75.5
t-0.5 45.5zM289 -4q66 1 102 35.5t36 95.5q0 47 -31 81.5t-110 68.5q0 -70 0.5 -139.5t2.5 -141.5z" />
    <glyph glyph-name="percent" unicode="%" horiz-adv-x="758" 
d="M182 350q-73 0 -110 39t-37 115q0 49 20.5 88.5t65.5 73.5q31 16 58 24.5t47 8.5q75 0 111.5 -38.5t36.5 -118.5q0 -48 -23 -88.5t-68 -70.5q-34 -17 -58 -25t-43 -8zM681 690q-60 -64 -145 -161.5t-161 -188.5q-26 -32 -57.5 -72t-94.5 -125q-45 -61 -67.5 -90.5
t-41.5 -53.5q-19 -4 -32.5 -4t-21.5 4q59 65 132.5 148t170.5 195q30 36 68 85t115 150q39 51 57 74.5t31 40.5q14 3 25.5 2.5t21.5 -4.5zM267 389q8 24 12 55.5t4 69.5q0 76 -23 116t-68 40q-15 0 -27.5 -2t-21.5 -6q-9 -27 -13 -58.5t-4 -70.5q0 -72 23.5 -112.5
t66.5 -40.5q14 0 27.5 2.5t23.5 6.5zM530 -8q-73 0 -110 39t-37 116q0 49 20.5 88.5t65.5 73.5q28 15 55.5 24t48.5 9q76 0 112.5 -38.5t36.5 -118.5q0 -48 -23.5 -89t-67.5 -71q-34 -17 -58 -25t-43 -8zM615 32q8 23 11.5 53.5t3.5 71.5q0 77 -23 116.5t-67 39.5
q-15 0 -27.5 -2t-21.5 -6q-9 -29 -13.5 -60.5t-4.5 -69.5q0 -71 24 -112t67 -41q12 0 25.5 2.5t25.5 7.5z" />
    <glyph glyph-name="ampersand" unicode="&#x26;" horiz-adv-x="849" 
d="M824 187q0 -63 -78.5 -129.5t-149.5 -66.5q-34 0 -82 32t-113 98q-44 -59 -95.5 -95t-94.5 -36q-72 0 -121.5 52t-49.5 124q0 54 52.5 108.5t120.5 64.5q-34 47 -51 83t-17 61q0 90 58 152.5t140 63.5q39 1 89.5 -7t84.5 -20q-6 -55 -9 -102.5t-3 -96.5q0 -6 -4.5 -6.5
t-4.5 6.5q-10 49 -22 83.5t-29 62.5q-20 33 -49 52.5t-59 19.5q-52 0 -82.5 -31.5t-30.5 -86.5q0 -36 44 -101.5t160 -195.5q105 -117 173.5 -173t107.5 -56q15 0 22 25.5t7 83.5q0 40 -7.5 86.5t-21.5 89.5l-118 1q-57 0 -76 -0.5t-31 -2.5q-4 -1 -5 0.5t1 4.5l10 15t18 29
q20 32 27 42t10 10h135q30 0 60.5 2t41.5 4q4 1 5.5 -1.5t-1.5 -4.5q-7 -7 -15.5 -18.5t-19.5 -29.5q-5 -8 -15.5 -25.5t-15.5 -24.5q51 -33 77.5 -69.5t26.5 -76.5zM218 332q-44 -8 -64 -29.5t-22 -65.5q6 -64 62 -117t113 -53q22 0 43.5 15t43.5 46q-19 19 -37.5 39
t-38.5 43q-30 33 -55 64t-45 58z" />
    <glyph glyph-name="quotesingle" unicode="'" horiz-adv-x="177" 
d="M42 662q0 17 14 32t32 15t33 -15t15 -32q0 -7 -2.5 -22t-11.5 -55q-15 -73 -21.5 -114t-8.5 -74q0 -6 -4.5 -6t-5.5 6q-2 33 -8 73t-19 112q-8 42 -10.5 57t-2.5 23z" />
    <glyph glyph-name="parenleft" unicode="(" horiz-adv-x="400" 
d="M357 -271q-114 77 -184.5 225t-70.5 308q0 156 72 302t188 225q7 5 11.5 0.5t-1.5 -9.5q-108 -77 -173.5 -219.5t-65.5 -298.5q0 -160 64 -304.5t169 -219.5q7 -5 2 -9t-11 0z" />
    <glyph glyph-name="parenright" unicode=")" horiz-adv-x="400" 
d="M43 789q114 -77 184.5 -225t70.5 -308q0 -156 -72 -302t-188 -225q-7 -5 -11.5 -0.5t1.5 9.5q108 77 173.5 219.5t65.5 298.5q0 160 -64 304.5t-169 219.5q-7 5 -2 9t11 0z" />
    <glyph glyph-name="asterisk" unicode="*" horiz-adv-x="354" 
d="M176 363q-13 0 -25 16t-12 38q0 3 2.5 10t10.5 29q14 37 18.5 53t4.5 24q-8 -5 -20.5 -18t-38.5 -45q-13 -15 -17.5 -20t-6.5 -6q-18 -11 -38.5 -8.5t-26.5 12.5q-7 12 1 30.5t27 29.5q2 1 9.5 3t30.5 6q38 7 54 11t23 8q-8 4 -24 8t-53 10q-23 4 -30.5 6t-9.5 3
q-18 10 -26 28.5t-2 29.5q7 11 26.5 13.5t38.5 -8.5q2 -1 7 -6.5t20 -23.5q26 -30 37.5 -42t18.5 -16q-1 10 -6 26.5t-18 51.5q-8 21 -10 28t-2 9q0 22 12 38t25 16t25 -16t12 -38q0 -2 -2 -9t-10 -28q-13 -35 -17.5 -51.5t-5.5 -25.5q8 5 19.5 17t35.5 40q14 18 19.5 23.5
t7.5 6.5q19 11 38.5 8.5t26.5 -13.5q7 -10 -1 -29t-27 -29q-2 -1 -10 -3t-32 -6q-38 -7 -53.5 -10.5t-22.5 -7.5q8 -4 25 -8.5t54 -10.5q22 -4 29.5 -6t9.5 -3q19 -11 27 -29.5t1 -29.5q-6 -11 -25.5 -13.5t-38.5 8.5q-3 1 -8.5 7.5t-21.5 25.5q-25 29 -36 40t-17 15
q1 -9 5.5 -25.5t17.5 -51.5q8 -21 10 -28.5t2 -9.5q0 -22 -12 -38t-25 -16z" />
    <glyph glyph-name="plus" unicode="+" horiz-adv-x="558" 
d="M449 353q7 -5 7 -17t-7 -17q-85 8 -112 9.5t-53 1.5q0 -23 1.5 -46.5t12.5 -126.5q-7 -8 -19 -8t-18 8q0 4 5 67t6 106q-28 0 -56 -2t-109 -9q-7 5 -7 17t7 17q98 -9 120.5 -10.5t44.5 -1.5q-1 46 -6 107.5l-5 61.5q7 9 18.5 9t18.5 -9q-7 -63 -10.5 -105.5t-3.5 -63.5
q22 0 44.5 1.5t120.5 10.5z" />
    <glyph glyph-name="comma" unicode="," horiz-adv-x="276" 
d="M227 34q0 -55 -39.5 -102.5t-96.5 -67.5q-5 -2 -7 1.5t3 5.5q42 16 64 48t22 79v10q-8 -6 -18.5 -9t-22.5 -3q-32 0 -54 21t-22 52q0 34 22.5 57t57.5 23q42 0 66.5 -31t24.5 -84z" />
    <glyph glyph-name="hyphen" unicode="-" horiz-adv-x="375" 
d="M71 272q24 -2 51.5 -3t64.5 -1t65 1t51 3q7 -4 6.5 -22t-6.5 -22q-26 3 -52 4t-64 1q-28 0 -55.5 -1t-60.5 -4q-6 4 -6 21.5t6 22.5z" />
    <glyph glyph-name="period" unicode="." horiz-adv-x="266" 
d="M133 -8q-33 0 -55.5 22.5t-22.5 55.5t22.5 56t55.5 23q34 0 56.5 -22t22.5 -56t-22.5 -56.5t-56.5 -22.5z" />
    <glyph glyph-name="slash" unicode="/" horiz-adv-x="344" 
d="M420 779q-62 -129 -115.5 -248t-112.5 -262q-60 -148 -113 -284.5t-98 -259.5q-12 -5 -22 -4.5t-20 5.5q55 118 113 249.5t127 295.5q48 116 99 245t102 266q13 4 20.5 3.5t19.5 -6.5z" />
    <glyph glyph-name="zero" unicode="0" horiz-adv-x="698" 
d="M512 68q-59 -40 -108 -59t-92 -19q-128 -1 -199 81t-71 232q0 91 37 173t107 149q62 40 113 59.5t92 19.5q129 0 197.5 -80.5t68.5 -232.5q0 -90 -36.5 -170.5t-108.5 -152.5zM532 309q0 176 -50 255.5t-160 79.5q-37 0 -67 -5.5t-52 -15.5q-18 -47 -26.5 -107t-8.5 -139
q0 -157 55.5 -241t159.5 -84q28 0 59.5 5t54.5 13q18 55 26.5 111.5t8.5 127.5z" />
    <glyph glyph-name="one" unicode="1" horiz-adv-x="293" 
d="M8 9h25q32 0 42 28.5t10 135.5v387q0 45 -15 53.5t-61 -6.5q-5 -2 -6.5 3.5t3.5 7.5q53 13 105 37t81 47q2 2 10 -1t8 -6v-522q0 -107 10 -135.5t43 -28.5h25q4 0 4 -4.5t-4 -4.5q-10 0 -28.5 0.5t-58.5 2.5q-25 0 -34 0.5t-13 0.5t-14 -0.5t-38 -1.5q-44 -1 -63.5 -1.5
t-30.5 -0.5q-4 0 -4 4.5t4 4.5z" />
    <glyph glyph-name="two" unicode="2" horiz-adv-x="595" 
d="M376 -1q-83 1 -117 1h-48q-24 0 -56 -0.5t-87 -1.5q-17 -1 -22.5 -1h-7.5q-1 21 -1 32t2 13q65 52 110.5 90t84.5 75q97 93 134.5 164.5t37.5 162.5q0 81 -32 122t-95 41q-57 0 -96 -23.5t-65 -73.5q-21 -44 -30 -97t-8 -127q0 -6 -5 -6t-5 6q0 41 -3.5 90.5t-12.5 129.5
q-3 27 -4 35.5t-1 12.5q0 8 3.5 13t11.5 7q104 29 149 36.5t90 7.5q111 0 172.5 -42.5t61.5 -118.5q0 -52 -41 -107t-202 -197q-67 -60 -97.5 -87.5t-54.5 -50.5q71 0 150 0.5t131 1.5q54 1 84 30t36 86l5 40q1 6 7.5 5.5t5.5 -7.5l-11 -76q-2 -10 -14 -93.5t-15 -89.5
q-4 -2 -14 -3t-32 -1h-25t-74 1z" />
    <glyph glyph-name="three" unicode="3" horiz-adv-x="565" 
d="M256 -15q-43 0 -96.5 12t-102.5 31q-8 3 -6.5 7.5t7.5 2.5q31 -10 61.5 -16t57.5 -6q106 0 162.5 49t56.5 139q0 65 -37.5 113.5t-81.5 48.5q-20 0 -38 -9.5t-43 -37.5q-17 -17 -24.5 -22t-14.5 -5q-14 0 -18.5 15t2.5 35q108 19 163.5 73.5t55.5 141.5q0 66 -30 103
t-84 37q-33 0 -62.5 -15.5t-53.5 -45.5q-30 -39 -46.5 -95.5t-15.5 -121.5q0 -7 -5 -7t-5 7q0 39 -2.5 82t-9.5 106q-3 21 -3.5 28t-0.5 10q0 7 3 12t8 6q57 20 121.5 33t111.5 13q96 0 149 -34.5t54 -96.5q0 -47 -47.5 -91t-174.5 -111q25 8 43.5 11t37.5 3q82 0 130.5 -48
t48.5 -128q0 -98 -76 -163.5t-195 -65.5z" />
    <glyph glyph-name="four" unicode="4" horiz-adv-x="606" 
d="M266 30q6 10 8.5 28t2.5 61v84h-166q-28 0 -52.5 -0.5t-41.5 -1.5q-13 -1 -14 14t13 32q96 120 167 217.5t148 213.5q10 13 18 19t18 9q47 10 65 -9.5t-16 -59.5q-16 -26 -19 -36.5t-3 -23.5v-295h44q66 0 100 28t44 91l6 35q1 5 6.5 4t4.5 -6l-11 -64
q-17 -97 -22.5 -127.5t-7.5 -34.5q-2 -2 -16.5 -3.5t-38.5 -1.5h-109v-79q0 -46 2 -63.5t6 -27.5q7 -13 22 -18t61 -6q5 0 5 -4.5t-5 -4.5h-29t-66 1q-29 1 -39 1h-14h-14.5t-40.5 -1q-48 -1 -68.5 -1h-29.5q-4 0 -4 4.5t4 4.5q44 1 59.5 5.5t22.5 15.5zM193 435
q-52 -59 -79.5 -91t-53.5 -62h217v248q-15 -18 -32.5 -37.5t-51.5 -57.5z" />
    <glyph glyph-name="five" unicode="5" horiz-adv-x="565" 
d="M192 16q96 0 151 50.5t55 134.5q0 75 -44.5 121.5t-116.5 46.5q-33 0 -65 -14t-83 -54q-4 -2 -16 1.5t-12 7.5l-7 312q0 11 36 41t48 30h18t39 -1q43 -1 65.5 -1h39.5h160q22 0 32.5 -1.5t10.5 -4.5t-1 -12.5t-5 -36.5q-9 -65 -12 -97.5t-4 -52.5l-3 -44q0 -5 -5 -5.5
t-5 4.5l3 44q5 65 -17.5 86t-94.5 21h-191l-20 -242q52 35 89 49.5t76 14.5q101 0 158 -52.5t57 -143.5q0 -101 -76 -167t-193 -66q-40 0 -90 11.5t-101 31.5q-8 3 -6.5 7.5t7.5 2.5q29 -10 62.5 -16t60.5 -6z" />
    <glyph glyph-name="six" unicode="6" horiz-adv-x="573" 
d="M267 -12q-101 0 -167 76.5t-66 197.5q0 137 104 261.5t267 177.5q4 1 6 -2t-2 -5q-118 -47 -180.5 -149t-62.5 -245q0 -108 51 -181.5t125 -73.5q19 0 36 3t34 9q10 23 14.5 45t4.5 52q0 106 -39 165.5t-109 59.5q-17 0 -37 -7.5t-33 -19.5q-4 -2 -6 0.5t0 5.5
q37 32 80.5 53t74.5 21q79 0 130 -50t51 -129q0 -44 -24.5 -90t-78.5 -102q-60 -39 -100 -56t-73 -17z" />
    <glyph glyph-name="seven" unicode="7" horiz-adv-x="542" 
d="M286 1q-34 1 -46 1h-16h-13t-39 -1q-41 -1 -58 -1h-25q-6 0 -6 4.5t6 4.5h25q42 -2 83 46t89 153l70 154q44 96 63 141t31 76h-258q-83 0 -106 -16.5t-26 -82.5l-3 -77q0 -8 -6.5 -7.5t-5.5 8.5l8 124q1 15 1.5 35.5l1.5 61.5q1 35 1 46.5t1 14.5q1 2 10 3t31 1h134
q13 0 49 0.5t123 0.5q51 1 67 1h20q7 0 11 -37t-2 -45q-38 -62 -71 -124.5t-64 -129.5l-69 -152q-16 -37 -24.5 -69t-8.5 -59q0 -33 17.5 -50.5t50.5 -17.5q5 0 10.5 0.5t13.5 1.5q3 1 4 1h2q4 0 5.5 -1.5t1.5 -4.5t-2.5 -4t-11.5 -1h-18.5t-50.5 1z" />
    <glyph glyph-name="eight" unicode="8" horiz-adv-x="580" 
d="M525 219q0 -45 -24 -86t-73 -80q-37 -26 -92 -44.5t-98 -18.5q-90 0 -145.5 46.5t-55.5 118.5q0 51 38.5 100t109.5 91q-62 35 -89 72.5t-27 85.5q0 41 22.5 78.5t69.5 74.5q37 23 82 37.5t83 14.5q78 0 124.5 -38t46.5 -102q0 -41 -31.5 -82t-99.5 -87q88 -46 123.5 -88
t35.5 -93zM173 654q-9 -15 -13.5 -32t-4.5 -38q0 -32 18.5 -59t59.5 -54q26 -17 75.5 -42t50.5 -26q20 33 29.5 63.5t9.5 62.5q0 69 -37 101.5t-114 32.5q-17 0 -38 -2.5t-36 -6.5zM332 45q21 0 42 2.5t38 6.5q12 18 17 32.5t5 36.5q0 42 -21 76t-68 64q-27 17 -81 43.5
t-73 36.5q-24 -30 -37.5 -65t-13.5 -68q0 -78 50.5 -121.5t141.5 -43.5z" />
    <glyph glyph-name="nine" unicode="9" horiz-adv-x="577" 
d="M539 426q0 -143 -110.5 -269t-286.5 -177q-5 -2 -6.5 2t2.5 6q133 46 199 145.5t67 257.5q1 118 -44 186t-123 68q-21 0 -39 -3t-36 -9q-12 -28 -17 -53t-5 -56q0 -102 37.5 -157t106.5 -55q17 0 36.5 7t33.5 19q4 3 6 0.5t0 -5.5q-36 -32 -79 -53.5t-72 -21.5
q-81 0 -131 49.5t-50 131.5q0 46 26 93.5t78 96.5q55 38 97.5 55.5t80.5 17.5q102 0 165.5 -75.5t63.5 -200.5z" />
    <glyph glyph-name="colon" unicode=":" horiz-adv-x="266" 
d="M133 284q-33 0 -55.5 22.5t-22.5 55.5t22.5 56t55.5 23q34 0 56.5 -22.5t22.5 -56.5q0 -33 -23 -55.5t-56 -22.5zM133 -8q-33 0 -55.5 22.5t-22.5 55.5t22.5 56t55.5 23q34 0 56.5 -22t22.5 -56t-22.5 -56.5t-56.5 -22.5z" />
    <glyph glyph-name="semicolon" unicode=";" horiz-adv-x="276" 
d="M133 284q-33 0 -55.5 22.5t-22.5 55.5t22.5 56t55.5 23q34 0 56.5 -22.5t22.5 -56.5q0 -33 -23 -55.5t-56 -22.5zM227 34q0 -55 -39.5 -102.5t-96.5 -67.5q-5 -2 -7 1.5t3 5.5q42 16 64 48t22 79v10q-8 -6 -18.5 -9t-22.5 -3q-32 0 -54 21t-22 52q0 34 22.5 57t57.5 23
q42 0 66.5 -31t24.5 -84z" />
    <glyph glyph-name="less" unicode="&#x3c;" horiz-adv-x="558" 
d="M439 218q6 -12 2 -24t-14 -15q-28 15 -60 31.5t-94 48.5q-11 5 -23 10t-35 14q-36 16 -54 23.5t-35 14.5q-4 4 -4 11.5t4 12.5q17 7 54 22.5t94 39.5q28 14 56.5 29t94.5 51q10 -4 14 -15.5t-2 -23.5q-30 -9 -61 -19.5t-99 -35.5q-6 -3 -54.5 -24.5t-77.5 -35.5
q12 -5 25 -11.5t40 -18.5q26 -12 40 -18.5t27 -12.5q68 -24 100 -34.5t62 -19.5z" />
    <glyph glyph-name="equal" unicode="=" horiz-adv-x="558" 
d="M280 420q31 0 62.5 2t100.5 9q9 -5 11 -16t-3 -18q-41 5 -80.5 7.5t-89.5 3.5q-45 -1 -83.5 -3t-83.5 -6q-9 5 -11.5 15.5t2.5 17.5q66 -8 101.5 -10t73.5 -2zM280 265q41 1 79 3.5t84 8.5q10 -5 12 -16t-4 -19q-48 6 -87.5 8.5t-82.5 2.5q-38 0 -73.5 -2t-93.5 -7
q-10 5 -12.5 16t3.5 18q65 -7 100.5 -9.5t74.5 -3.5z" />
    <glyph glyph-name="greater" unicode="&#x3e;" horiz-adv-x="558" 
d="M285 259q-60 -31 -92 -48t-59 -33q-10 4 -14.5 16t1.5 23q17 5 57 19t104 37q9 4 57 25.5t76 34.5q-12 5 -45 20.5t-88 40.5q-71 25 -101.5 35.5t-58.5 19.5q-6 12 -1.5 23.5t14.5 15.5q34 -19 69.5 -38t81.5 -43q45 -19 77.5 -32.5t69.5 -29.5q5 -4 5 -11.5t-5 -11.5
q-13 -6 -27.5 -12t-42.5 -18q-30 -12 -46 -19z" />
    <glyph glyph-name="question" unicode="?" horiz-adv-x="395" 
d="M126 267v49.5v21.5q0 5 2 7.5t7 4.5q85 37 119 69.5t33 75.5q-1 49 -60.5 75t-170.5 26q-3 0 -4.5 1.5t-1.5 4.5q0 4 4.5 21t18.5 66q12 38 16.5 54t6.5 26q1 3 3.5 2.5t2.5 -3.5q-7 -39 -8 -46t-1 -12q1 -3 3 -4t12 -1q113 0 179 -39t66 -105q0 -48 -29 -89.5t-87 -77.5
q1 -24 4.5 -66.5t7.5 -80.5q-6 -7 -64.5 -30.5t-58.5 -14.5v18.5v46.5zM191 -8q-32 0 -54 21.5t-22 53.5q0 33 22.5 55.5t54.5 22.5q33 0 54.5 -22t21.5 -55q0 -32 -22.5 -54t-54.5 -22z" />
    <glyph glyph-name="at" unicode="@" horiz-adv-x="977" 
d="M787 -77l6 -6q-69 -67 -156 -103t-181 -36q-187 0 -297.5 100t-110.5 273q0 101 40.5 194t115.5 167q75 73 170 113.5t193 40.5q162 0 262.5 -92.5t100.5 -231.5q0 -141 -91.5 -238t-223.5 -97q-24 0 -51 6t-33 13q-10 12 -17.5 32t-8.5 37q-1 22 13.5 58t49.5 94
q-66 -77 -128 -141.5t-91 -86.5q-10 -6 -32.5 -4.5t-28.5 7.5q-27 29 -29.5 88t20.5 114q17 41 48.5 80t74.5 72q46 35 96.5 58t80.5 23q35 0 59 -14.5t58 -56.5q1 1 6 4.5t20 15.5q22 16 30 22.5t10 8.5q4 3 6.5 3.5t5.5 -4.5q-78 -119 -122 -209t-42 -127q1 -13 19 -42.5
t31 -33.5q90 2 161.5 83.5t71.5 188.5q0 73 -29.5 138.5t-83.5 112.5q-50 45 -117 68t-146 23q-80 0 -156.5 -32t-136.5 -91t-92.5 -134t-32.5 -157q0 -198 109 -310t298 -112q72 0 146 32t135 89zM381 279q-17 -55 -16 -107.5t19 -89.5q46 35 112.5 104t116.5 133
q-33 53 -58.5 76t-51.5 23q-33 0 -68 -39.5t-54 -99.5z" />
    <glyph glyph-name="A" unicode="A" horiz-adv-x="718" 
d="M434 248l-123 -3q-16 0 -38 0.5t-108 3.5l-4 -10q-15 -41 -24 -82t-8 -72q0 -36 18.5 -56t52.5 -20q5 0 10.5 0.5t15.5 1.5q4 1 5.5 1h2.5q3 0 5 -1.5t2 -3.5q0 -3 -3 -5t-9 -2h-20t-58 1q-41 1 -55.5 1h-18.5h-8.5t-19.5 -1q-22 -1 -32.5 -1h-18.5q-3 0 -4.5 1.5
t-1.5 4.5q0 2 2 3t4 1h3q18 0 35.5 14t32.5 41q20 35 41 82t45 114l161 427q2 4 5 6t7 2h45q6 0 9 -1.5t5 -5.5l174 -430q18 -45 33 -79t26 -60q29 -62 47.5 -86t43.5 -24h5q3 0 5 -1.5t2 -3.5t-1.5 -3.5t-4.5 -1.5q-9 0 -21 0.5l-36 1.5q-15 1 -21 1h-9h-16t-51 -1
q-59 -1 -83 -1.5t-33 -0.5q-6 0 -7.5 4.5t4.5 4.5h21q36 0 38.5 22.5t-19.5 85.5q-8 23 -20 55t-30 76zM429 258v1l-137 335l-124 -337l137 2z" />
    <glyph glyph-name="B" unicode="B" horiz-adv-x="646" 
d="M100 2q-38 -1 -55 -1.5t-25 -0.5q-6 0 -6 4.5t6 4.5h11q29 0 37.5 11.5t11.5 42.5q2 15 3 35.5t2 51.5v37v49v216q0 51 -0.5 81t-0.5 51q-3 60 -11.5 80t-40.5 20h-12q-6 0 -6 4.5t6 4.5q8 0 25 -0.5t55 -1.5q26 -1 35 -1h12t17.5 0.5t56.5 0.5q50 1 68 1.5t23 0.5
q150 0 217.5 -38.5t67.5 -121.5q0 -72 -64.5 -114t-192.5 -55q143 -7 212 -51t69 -127q0 -94 -70.5 -140t-212.5 -46q-5 0 -26 0.5t-79 1.5q-50 0 -66.5 0.5t-19.5 0.5h-12t-35 -1zM297 682h-75q-8 -6 -10 -20t-2 -66q1 -54 1 -66.5v-24.5v-138h72q90 0 133 40.5t43 124.5
q0 79 -37 114.5t-125 35.5zM213 83q3 -44 12 -59t43 -15h49q85 0 126 44t41 134t-45 129.5t-143 39.5h-85v-164q0 -41 0.5 -66.5t1.5 -42.5z" />
    <glyph glyph-name="C" unicode="C" horiz-adv-x="739" 
d="M657 24q-53 -18 -107.5 -26t-123.5 -8q-182 0 -287 95t-105 258q0 159 109.5 259.5t281.5 100.5q57 0 119.5 -8t106.5 -21q3 0 5 -3t3 -8q1 -11 2 -28t2 -59q2 -63 4 -94t4 -54q0 -4 -3.5 -4t-4.5 4q-7 55 -24.5 102.5t-44.5 81.5q-32 41 -74.5 61.5t-93.5 20.5
q-116 0 -181 -92.5t-65 -255.5q0 -162 65 -254.5t181 -92.5q52 0 94.5 21.5t74.5 64.5q27 36 45 85.5t25 109.5q1 3 4 3t3 -3q-1 -22 -2.5 -49t-3.5 -82q-2 -58 -3.5 -82t-2.5 -39q0 -2 -1 -3t-2 -1z" />
    <glyph glyph-name="D" unicode="D" horiz-adv-x="731" 
d="M93 1q-43 -1 -57 -1h-18q-6 0 -6 4t6 4q38 0 48.5 14.5t14.5 55.5q2 18 3 44t1 68v47.5v142.5v17v46q-1 37 -1 51v20q0 45 -0.5 68t-1.5 38q-3 38 -13.5 51t-47.5 13q-6 0 -6 4.5t6 4.5h13.5t48.5 -1q56 -1 76.5 -1h25.5h12t34 1q40 1 57 1h26q171 0 277 -94.5
t106 -248.5q0 -157 -104 -253.5t-275 -96.5q-10 0 -27.5 0.5t-54.5 1.5q-21 1 -28.5 1h-10.5q-6 0 -27 -0.5t-77 -1.5zM320 10q115 0 173.5 86t58.5 254q0 162 -61.5 248t-178.5 86h-41q-34 0 -43 -12t-13 -46q-1 -16 -2 -39t-2 -57v-39.5v-56.5v-275q0 -51 -2 -90.5
t-6 -54.5q5 0 13.5 -0.5t27.5 -1.5q30 -1 46 -1.5t30 -0.5z" />
    <glyph glyph-name="E" unicode="E" horiz-adv-x="637" 
d="M198 3l-180 -3q-6 0 -6 4t6 4q38 0 48.5 14.5t14.5 55.5q1 17 2 43t2 69q1 7 1 72.5v189.5q0 49 -0.5 80t-1.5 52q-2 60 -10.5 80t-41.5 20h-12q-6 0 -6 4.5t6 4.5q8 0 21.5 -0.5t42.5 -1.5q20 -1 27 -1h10h25.5t97.5 1q141 1 195.5 1.5t65.5 0.5q18 0 30.5 -1t16.5 -3
l7 -55.5t20 -165.5l3 -20q0 -5 -4.5 -5t-6.5 5l-3 20q-12 90 -77.5 151.5t-151.5 62.5h-88q-26 0 -32 -12t-7 -51q-1 -12 -1 -28.5v-60.5v-163h47q81 0 119.5 30.5t38.5 96.5v14q0 6 5.5 6t5.5 -6q-2 -49 -3 -89t-1 -61q0 -24 1 -72t3 -83q0 -5 -5.5 -5t-5.5 5v12
q0 72 -39 106.5t-119 34.5h-47v-187q0 -71 -1.5 -107.5t-5.5 -49.5h22h49q37 -1 52.5 -1h23.5q80 0 148 71t79 164l4 35q1 5 6.5 4t4.5 -6l-4 -36q-14 -172 -18 -203t-10 -35q-4 -3 -30 -4t-109 -1q-35 0 -91 1t-133 2z" />
    <glyph glyph-name="F" unicode="F" horiz-adv-x="610" 
d="M103 1q-44 -1 -60.5 -1h-19.5q-6 0 -6 4.5t6 4.5h9q29 0 37.5 11.5t11.5 42.5q2 15 3 35.5t2 51.5v37v49v216q0 49 -0.5 80t-1.5 52q-2 60 -10.5 80t-41.5 20h-12q-6 0 -6 4.5t6 4.5h17t32 -1q26 -1 39 -1h23q35 0 96 0.5t188 1.5q58 1 77 1h25q16 0 27 -1t16 -3
l0.5 -8.5t2.5 -40.5q6 -93 9.5 -139t6.5 -68l5 -48q0 -5 -5 -5.5t-6 4.5l-6 48q-17 111 -83.5 179.5t-154.5 69.5h-80q-26 0 -31.5 -13t-6.5 -59v-33.5v-64.5v-165h44q75 0 114.5 36t39.5 103v17q0 6 5.5 6t5.5 -6q-3 -75 -4 -111.5t-1 -53.5q0 -22 1.5 -78.5t3.5 -95.5
q0 -5 -5.5 -5t-5.5 5v19q0 72 -39.5 112t-114.5 40h-44v-105q0 -50 0.5 -80.5t1.5 -50.5q4 -54 15 -72t50 -18h35q6 0 6 -4.5t-6 -4.5h-24.5t-79.5 1h-44.5h-11.5h-10.5h-39.5z" />
    <glyph glyph-name="G" unicode="G" horiz-adv-x="763" 
d="M546 10q-46 -12 -75 -16t-57 -4q-168 0 -274 97.5t-106 255.5q0 161 112.5 260.5t287.5 99.5q58 0 123 -10.5t116 -27.5q4 -1 5.5 -4t1.5 -8q2 -29 5.5 -105t5.5 -127q0 -5 -4 -5t-5 5q-8 58 -24.5 106t-40.5 82q-31 43 -75.5 64t-105.5 21q-119 0 -187.5 -93.5
t-68.5 -254.5q0 -166 60.5 -256.5t172.5 -90.5q44 0 87.5 12t71.5 32q2 5 2.5 19.5t0.5 73.5v47.5t-1 16.5q-4 43 -12.5 66t-24.5 32q-17 3 -69 5.5t-142 4.5q-3 0 -3 3.5t4 3.5q104 0 193 2.5t179 8.5q2 0 4 -2.5t2 -5.5v-323q0 -1 -4.5 -1t-5.5 1q-47 18 -63.5 22t-31.5 4
q-8 0 -18.5 -2t-35.5 -9z" />
    <glyph glyph-name="H" unicode="H" horiz-adv-x="713" 
d="M85 236v216q0 51 -0.5 81t-0.5 51q-3 60 -11.5 80t-40.5 20h-10q-6 0 -6 4.5t6 4.5q8 0 25 -0.5t55 -1.5q26 -1 35 -1h12h12t34 1q41 1 58 1.5t26 0.5q6 0 6 -4.5t-6 -4.5h-14q-33 0 -42 -20t-11 -80q-1 -22 -1.5 -53t-0.5 -79v-97l145 1l150 -2v98q0 48 -0.5 79t-1.5 53
q-3 59 -12 79.5t-42 20.5h-17q-6 0 -6 4.5t6 4.5q9 0 26.5 -0.5t59.5 -1.5q26 -1 35.5 -1h12.5h12t33 1q39 1 55.5 1.5t25.5 0.5q6 0 6 -4.5t-6 -4.5h-11q-31 0 -39.5 -20t-10.5 -81q0 -20 -0.5 -49.5t-0.5 -81.5v-216v-49v-38q1 -29 2 -49.5t2 -35.5q4 -32 12.5 -43.5
t36.5 -11.5h9q6 0 6 -4.5t-6 -4.5q-9 0 -25.5 0.5t-53.5 1.5q-24 1 -32.5 1h-11.5h-13t-38 -1q-43 -1 -61.5 -1.5t-27.5 -0.5q-6 0 -6 4.5t6 4.5h21q29 0 37.5 11.5t12.5 42.5q2 14 3 35t1 52q1 16 1 37v49v108l-149 -2q-34 0 -72 0.5t-74 1.5v-108v-49.5v-37.5
q1 -30 2 -50.5t3 -34.5q3 -32 11.5 -43.5t37.5 -11.5h20q6 0 6 -4.5t-6 -4.5q-9 0 -27 0.5t-61 1.5q-28 1 -37 1h-12h-12t-34 -1q-38 -1 -54.5 -1.5t-24.5 -0.5q-6 0 -6 4.5t6 4.5h9q29 0 37.5 11.5t11.5 42.5q2 15 3 35.5t2 51.5v37v49z" />
    <glyph glyph-name="I" unicode="I" horiz-adv-x="317" 
d="M96 259v175v53.5v40.5q-1 33 -2 55.5t-2 38.5q-4 36 -12 49t-38 13h-23q-6 0 -6 4.5t6 4.5q9 0 24.5 -0.5t50.5 -1.5q22 -1 30 -1h11h14.5t45.5 1q52 1 73.5 1.5t29.5 0.5q6 0 6 -4.5t-6 -4.5h-23q-30 0 -38 -13t-12 -49q-1 -16 -2 -38.5t-2 -55.5v-40.5v-53.5v-175
v-53.5v-40.5q1 -33 2 -55.5t2 -38.5q4 -36 12 -49t38 -13h23q6 0 6 -4.5t-6 -4.5q-8 0 -29.5 0.5t-73.5 1.5q-34 1 -45.5 1h-14.5h-11t-30 -1q-35 -1 -50.5 -1.5t-24.5 -0.5q-6 0 -6 4.5t6 4.5h23q30 0 38 13t12 49q1 16 2 38.5t2 55.5v40.5v53.5z" />
    <glyph glyph-name="J" unicode="J" horiz-adv-x="309" 
d="M57 -153q-47 -44 -86 -67t-68 -23q-22 0 -32.5 8t-10.5 25q0 28 25.5 54.5t54.5 26.5q7 0 16 -1t28 -4q30 -4 43.5 -4t22.5 3q22 12 30.5 45t11.5 107q2 31 2.5 71.5t0.5 93.5v252v53t-1 42q0 32 -1 55t-3 39q-4 35 -12.5 48t-39.5 13h-18q-6 0 -6 4.5t6 4.5q9 0 27 -0.5
t61 -1.5q28 -1 37 -1h12h12.5t37.5 1q41 1 59 1.5t26 0.5q6 0 6 -4.5t-6 -4.5h-17q-31 0 -39.5 -12.5t-12.5 -47.5q-1 -16 -2 -39t-2 -56v-40.5v-54.5v-97q0 -25 0.5 -53.5t1.5 -74.5q1 -22 1 -30v-13q0 -57 -10 -100t-31 -79q-16 -27 -41 -56t-83 -84z" />
    <glyph glyph-name="K" unicode="K" horiz-adv-x="670" 
d="M93 2q-38 -1 -52 -1.5t-20 -0.5t-6 4.5t6 4.5h16.5t5.5 1q10 4 15.5 12t9.5 23q9 20 13 62t4 146v199q0 51 -0.5 81t-0.5 51q-3 60 -11.5 80t-40.5 20h-12q-6 0 -6 4.5t6 4.5q8 0 25 -0.5t57 -1.5q26 -1 35 -1h12h12t36 1q42 1 60 1.5t27 0.5q6 0 6 -4.5t-6 -4.5h-20
q-30 0 -38 -13t-12 -49q-1 -16 -2 -38.5t-2 -55.5v-40.5v-53.5v-105l132 142q56 61 85.5 106t29.5 72q-1 18 -10.5 27t-29.5 9q-2 0 -5.5 -0.5t-9.5 -2.5q-4 0 -5.5 -0.5t-2.5 -0.5q-4 0 -6.5 2t-2.5 4q0 3 3 4.5t8 1.5h17.5t47.5 -1q34 -1 46 -1h16h11.5t33.5 1q38 1 54 1
h24q5 0 5 -4.5t-5 -4.5h-2q-47 0 -116.5 -52.5t-176.5 -166.5l-90 -96q24 19 52 28.5t58 9.5q35 0 54.5 -7t36.5 -25q20 -16 35 -45t53 -144q31 -96 57 -136.5t62 -40.5h9q7 0 6.5 -4.5t-7.5 -4.5h-29q-17 0 -34.5 -1t-45.5 -3q-15 -1 -21.5 -1.5t-10.5 -0.5q-18 0 -31 5.5
t-24 18.5q-15 18 -30.5 60t-35.5 121q-26 97 -52 138t-59 41q-19 0 -35.5 -9.5t-35.5 -29.5l1 1l-24 -25v-56v-53.5v-40.5q1 -33 2 -55.5t2 -38.5q4 -36 12 -49t38 -13h21q6 0 6 -4.5t-6 -4.5t-21.5 0.5t-56.5 1.5q-32 1 -43 1h-15t-14.5 -0.5t-41.5 -0.5z" />
    <glyph glyph-name="L" unicode="L" horiz-adv-x="602" 
d="M197 3l-179 -3q-6 0 -6 4t6 4q41 0 51 17.5t15 80.5q2 35 2 150v117v141q0 43 -0.5 66.5t-2.5 39.5q-3 38 -13.5 51t-48.5 13q-6 0 -6 4.5t6 4.5h10t34 -1q39 -1 54 -1h20h15t46 1q55 1 77 1h31q6 0 6 -4.5t-6 -4.5h-28q-39 0 -49.5 -11t-14.5 -42q-2 -15 -3 -38.5
t-2 -60.5v-36.5v-61.5v-273q0 -51 -2.5 -91.5t-5.5 -55.5q8 0 20.5 -0.5t43.5 -0.5q33 -1 47 -1.5t22 -0.5q38 0 77.5 26t75.5 73q29 39 48.5 84.5t23.5 85.5l8 85q1 5 6.5 4.5t4.5 -5.5l-8 -86q-11 -125 -20 -196.5t-13 -77.5q-4 -2 -40 -3t-99 -1q-35 0 -85.5 1t-117.5 2z
" />
    <glyph glyph-name="M" unicode="M" horiz-adv-x="843" 
d="M64 2q-20 -1 -30.5 -1.5t-18.5 -0.5q-6 0 -6 4.5t6 4.5h4q32 0 45.5 25t20.5 83q3 27 4.5 62.5t1.5 79.5v82.5t1 142.5v81.5v35.5q0 19 -4 33.5t-12 22.5q-12 14 -26.5 21t-32.5 7h-3q-5 0 -5 4t5 4q50 0 91.5 1.5t79.5 5.5q6 1 7.5 1h2.5q5 0 7.5 -2t4.5 -7
q5 -11 15 -29t24 -44l181 -308l171 293q6 10 12 21.5t17 32.5q4 7 5.5 10l2.5 5q8 13 16.5 19t18.5 6h10.5t23.5 -1q43 -2 69 -3t49 -1q6 0 6 -4.5t-6 -4.5h-11q-32 0 -40.5 -19.5t-10.5 -81.5q0 -20 -0.5 -49t-0.5 -82v-216v-49v-38q1 -29 2 -49.5t2 -35.5
q4 -32 12.5 -43.5t36.5 -11.5h10q6 0 6 -4.5t-6 -4.5q-9 0 -29 0.5t-68 1.5q-30 1 -40 1h-13h-11.5t-31.5 -1q-35 -1 -51 -1.5t-24 -0.5q-6 0 -6 4.5t6 4.5h18q33 0 42.5 12.5t14.5 45.5q2 16 3 39.5t1 56.5q1 19 1 42v54v356q0 7 -1 9.5t-4 2.5q-2 0 -5.5 -5t-14.5 -23
l-222 -377q-11 -20 -14.5 -24.5t-6.5 -4.5h-4q-2 0 -3.5 2t-7.5 11l-246 419l-1 -366q-1 -127 25 -188.5t87 -61.5h14q5 0 5 -4.5t-5 -4.5h-32t-71 2q-20 1 -26.5 1h-9.5h-8.5t-18.5 -1z" />
    <glyph glyph-name="N" unicode="N" horiz-adv-x="693" 
d="M576 -3q-17 0 -29.5 10t-34.5 40l-414 565v-316q0 -148 29 -217.5t94 -69.5h14q5 0 5 -4.5t-5 -4.5q-6 0 -22.5 0.5t-58.5 1.5q-32 1 -43 1h-15h-9t-21 -1q-22 -1 -33.5 -1.5t-19.5 -0.5q-5 0 -5 4.5t5 4.5h5q35 0 50.5 68.5t16.5 218.5v309q0 11 -6 22.5t-18 23.5
q-18 17 -35.5 25t-37.5 8h-9q-5 0 -5 4.5t5 4.5q41 0 88.5 1t108.5 4q9 1 11.5 1h3.5q4 0 6 -1.5t4 -4.5q7 -12 17.5 -28t25.5 -36l356 -477v270q0 137 -29.5 199.5t-103.5 62.5h-14q-6 0 -6 4.5t6 4.5q9 0 29 -0.5t69 -1.5q31 -1 41.5 -1h13.5h7.5t16.5 1q19 1 29.5 1.5
t19.5 0.5q5 0 5 -4.5t-5 -4.5h-3q-32 0 -43.5 -25.5t-15.5 -89.5q-2 -27 -3 -63.5t-1 -83.5v-416q-3 -4 -13.5 -6.5t-23.5 -2.5z" />
    <glyph glyph-name="O" unicode="O" horiz-adv-x="785" 
d="M643 92q-51 -49 -118 -75.5t-139 -26.5q-149 0 -250.5 102.5t-101.5 253.5q0 74 27.5 139t78.5 115t117.5 76.5t138.5 26.5q150 0 252.5 -102t102.5 -255q0 -73 -28 -138.5t-80 -115.5zM180 346q0 -167 53 -257t152 -90q104 0 162 92t58 255q0 168 -53 258t-154 90
q-103 0 -160.5 -93t-57.5 -255z" />
    <glyph glyph-name="P" unicode="P" horiz-adv-x="637" 
d="M72 1q-30 -1 -39.5 -1h-11.5q-6 0 -6 4.5t6 4.5q17 0 26.5 0.5t11.5 0.5q12 7 17 25.5t7 65.5q1 41 1.5 93t0.5 118v140q0 51 -0.5 81t-0.5 51q-3 60 -11.5 80t-40.5 20h-12q-6 0 -6 4.5t6 4.5q8 0 22 -0.5t44 -1.5q20 -1 27.5 -1h10.5h19.5t46.5 1l84 1.5t48 0.5
q139 0 210 -48.5t71 -143.5t-75 -150.5t-205 -55.5q-15 1 -38 1h-75v-36v-50t1 -42q0 -29 1.5 -51.5t2.5 -39.5q4 -38 11.5 -53t30.5 -15h51q6 0 6 -4.5t-6 -4.5h-29t-68 1q-31 1 -41.5 1h-13.5h-22t-62 -1zM314 683h-72q-21 0 -25.5 -10t-5.5 -42q-1 -10 -1 -25.5v-46.5
v-253h101q72 0 111.5 51t39.5 145q0 93 -36 137t-112 44z" />
    <glyph glyph-name="Q" unicode="Q" horiz-adv-x="785" 
d="M651 -93q-33 -55 -79.5 -86t-97.5 -31q-77 0 -115 52.5t-39 160.5q-126 22 -206 118t-80 227q0 73 27.5 138.5t78.5 114.5t117.5 75.5t138.5 26.5q150 0 252 -101.5t102 -253.5q0 -131 -84.5 -227.5t-215.5 -118.5q1 -90 26 -130t78 -40q24 0 43 17t42 64q3 6 9.5 3.5
t2.5 -9.5zM180 348q0 -166 53 -256t152 -90q104 0 162 92.5t58 253.5q0 168 -53.5 257t-154.5 89q-102 0 -159.5 -92.5t-57.5 -253.5z" />
    <glyph glyph-name="R" unicode="R" horiz-adv-x="678" 
d="M69 1q-28 -1 -37 -1h-11q-6 0 -6 4.5t6 4.5h28.5t11.5 1q11 8 15.5 29.5t6.5 78.5q1 39 1.5 85t0.5 96v153q0 51 -0.5 81t-0.5 51q-3 60 -11.5 80t-40.5 20h-12q-6 0 -6 4.5t6 4.5h24.5t52.5 -1q25 -1 33.5 -1h11.5h18.5t56.5 1q49 1 66.5 1h22.5q133 0 200 -40.5
t67 -119.5q0 -67 -65.5 -110t-189.5 -58q100 -1 145 -35t84 -132q17 -42 28.5 -69.5t20.5 -46.5q21 -42 38.5 -57.5t51.5 -15.5h6q7 0 6.5 -4.5t-7.5 -4.5h-37q-19 0 -38.5 -0.5t-47.5 -2.5q-12 -1 -16.5 -1h-7.5q-20 0 -33 5.5t-23 17.5q-12 15 -25 45.5t-38 104.5
q-14 44 -26.5 74.5t-24.5 51.5q-20 33 -43.5 47t-66.5 16h-54v-99v-53.5v-40.5q1 -33 2 -55.5t2 -38.5q4 -36 12 -49t38 -13h20q6 0 6 -4.5t-6 -4.5q-9 0 -27 0.5t-60 0.5q-27 1 -36 1h-12h-21t-59 -1zM240 683q-21 0 -25.5 -18.5t-4.5 -90.5v-205q10 1 24 1h50q67 0 108 43
t41 117q0 77 -37 115.5t-110 38.5h-30.5t-15.5 -1z" />
    <glyph glyph-name="S" unicode="S" horiz-adv-x="571" 
d="M520 612q-2 -55 -2.5 -96t-0.5 -84v-10q0 -8 -5 -8t-5 8v11q-5 129 -59.5 195t-157.5 66q-76 0 -117.5 -33t-41.5 -92q0 -33 17 -59.5t52 -49.5q17 -11 40 -22t83 -35q66 -26 94.5 -40.5t49.5 -29.5q37 -26 55 -59t18 -74q0 -91 -70.5 -150.5t-178.5 -59.5q-56 0 -99 5
t-132 29q-6 1 -8 3t-2 7q3 109 3.5 155.5t0.5 86.5q0 9 5 9t5 -9q3 -127 64 -202t163 -75q70 0 107 33.5t37 94.5q0 34 -16.5 61t-52.5 49q-16 10 -38 20.5t-86 36.5q-62 25 -90.5 39.5t-49.5 29.5q-35 26 -52 58.5t-17 73.5q0 93 72.5 150.5t184.5 57.5q58 0 111 -6.5
t109 -20.5q7 -2 8.5 -4t2.5 -7v-14t-1 -39z" />
    <glyph glyph-name="T" unicode="T" horiz-adv-x="646" 
d="M274 2q-42 -1 -60 -1.5t-26 -0.5q-6 0 -6 4.5t6 4.5h18q30 0 38 13t12 49q1 16 2 38.5t2 55.5v40.5v53.5v426h-41q-77 0 -124.5 -55.5t-57.5 -157.5l-6 -57q-1 -5 -6 -5t-4 5l6 57q3 29 4.5 63t3.5 91q1 40 1.5 50.5t2.5 11.5q5 3 40.5 5t81.5 2h17.5t43.5 -1
q46 -1 67 -1h34h18.5t27.5 1q32 0 57.5 0.5t57.5 0.5q46 0 82 -2t41 -5q2 -1 2.5 -12t1.5 -52q0 -55 1.5 -87.5t3.5 -61.5l4 -57q1 -5 -3.5 -5t-5.5 5l-6 57q-10 102 -56 156t-123 55h-41v-427v-53t1 -42q0 -32 1 -54.5t3 -38.5q3 -36 11.5 -49t38.5 -13h18q6 0 6 -4.5
t-6 -4.5q-9 0 -26.5 0.5t-60.5 1.5q-26 1 -35 1h-12h-12.5t-37.5 -1z" />
    <glyph glyph-name="U" unicode="U" horiz-adv-x="659" 
d="M320 -10q-118 0 -179.5 66.5t-61.5 194.5v183v53.5v40.5q-1 32 -2 54.5t-2 38.5q-3 36 -11.5 49.5t-37.5 13.5h-12q-5 0 -5 4.5t5 4.5q8 0 25.5 -0.5t56.5 -1.5q26 -1 35.5 -1h12.5h12.5t36.5 1q44 1 62.5 1.5t27.5 0.5q6 0 6 -4.5t-6 -4.5h-19q-31 0 -40.5 -13
t-13.5 -47q-2 -16 -3 -39t-2 -56q0 -19 -0.5 -42t-0.5 -53v-155q0 -112 49.5 -169t145.5 -57q78 0 124 55.5t46 148.5v177q0 49 -3 87.5t-9 67.5q-11 50 -32.5 72.5t-67.5 22.5h-16q-6 0 -6 4.5t6 4.5q9 0 26.5 -0.5t57.5 -1.5q26 -1 35 -1h12h8.5t18.5 1q20 1 31 1.5
t19 0.5q5 0 5 -4.5t-5 -4.5h-4q-32 0 -43.5 -23.5t-15.5 -85.5q-1 -25 -2 -59.5t-1 -81.5v-180q0 -113 -73.5 -188.5t-189.5 -75.5z" />
    <glyph glyph-name="V" unicode="V" horiz-adv-x="704" 
d="M362 -3h-15q-7 0 -11.5 2.5t-6.5 8.5l-186 475q-17 43 -29 72t-21 49q-22 46 -38 62.5t-52 16.5h-7q-7 0 -7 5t6 5q9 0 22 -0.5t41 -1.5q18 -1 25 -1h10h15t48 1q57 1 79.5 1.5t31.5 0.5q6 0 5.5 -5t-6.5 -5h-19q-31 0 -32.5 -17.5t19.5 -75.5q6 -16 14.5 -38t29.5 -76
l127 -322q3 -9 5 -11.5t4 -2.5q1 0 3 2.5t4 7.5l98 255q26 69 37 112.5t11 77.5q0 42 -19.5 66t-52.5 24q-4 0 -9.5 -0.5t-15.5 -1.5q-4 -1 -5.5 -1h-2.5q-3 0 -5 1.5t-2 3.5q0 3 3 4.5t9 1.5h21t62 -1q44 -1 59.5 -1h19.5h8.5t20.5 1q22 1 33 1h19q2 0 3.5 -1.5t1.5 -3.5
t-2 -3.5t-4 -1.5h-2q-19 0 -36.5 -14.5t-34.5 -43.5q-35 -64 -59.5 -116.5t-45.5 -107.5l-153 -394q-1 -5 -4.5 -7.5t-11.5 -2.5z" />
    <glyph glyph-name="W" unicode="W" horiz-adv-x="970" 
d="M345 -3h-19q-5 0 -7.5 1t-3.5 4l-184 483q-17 44 -28.5 72.5t-20.5 48.5q-21 46 -37 62t-52 16h-2q-9 0 -8 4.5t7 4.5q9 0 25 -0.5t52 -1.5q23 -1 31.5 -1.5t11.5 -0.5t13.5 0.5t40.5 1.5q46 1 65.5 1.5t28.5 0.5q5 0 5.5 -4.5t-5.5 -4.5h-15q-18 0 -28 -7t-11 -21
q0 -18 15.5 -64t59.5 -158l114 -295l2.5 -2.5t2.5 -1.5t2.5 1.5t2.5 3.5l90 199l-81 199q-39 95 -58 120.5t-54 25.5h-4q-6 0 -5.5 4.5t5.5 4.5q9 0 25 -0.5t53 -1.5q23 -1 31.5 -1h11.5h11t30 1q35 1 50.5 1.5t24.5 0.5q6 0 6 -4.5t-6 -4.5h-4q-16 0 -23 -6t-7 -19
q0 -17 6.5 -41.5t20.5 -59.5l42 -104l25 58q15 34 22.5 67t7.5 60q0 22 -8.5 33.5t-24.5 11.5q-2 0 -5.5 -0.5t-9.5 -0.5q-4 -1 -5.5 -1h-2.5q-3 0 -4.5 1t-1.5 4t2.5 4.5t8.5 1.5h14.5t32.5 -1q22 -1 30.5 -1h12.5h10t27 1q29 1 42.5 1h20.5q6 0 5.5 -4.5t-5.5 -4.5h-14
q-34 0 -71 -46t-73 -130l-30 -69l125 -306q1 -2 2.5 -3t2.5 -1t2 1t2 3l136 354q15 40 23.5 78t8.5 66q0 26 -13 39.5t-38 13.5q-2 0 -6 -0.5l-12 -1.5q-5 -1 -6.5 -1h-2.5q-3 0 -5 1.5t-2 4.5t3 4.5t9 1.5h16.5t41.5 -1t41 -1h15h9t21 1q24 1 35.5 1h19.5q6 0 5.5 -4.5
t-5.5 -4.5h-3q-35 0 -67.5 -46t-74.5 -156l-187 -481q-1 -3 -3 -4t-6 -1h-19q-6 0 -8 1t-3 4l-131 322l-146 -321q-1 -2 -3 -3.5t-6 -1.5z" />
    <glyph glyph-name="X" unicode="X" horiz-adv-x="686" 
d="M488 2q-36 -1 -52 -1.5t-24 -0.5q-7 0 -9 4.5t4 4.5h20q19 0 25.5 3.5t6.5 11.5q0 17 -21 58t-77 133l-60 101l-70 -96q-32 -44 -50.5 -85t-18.5 -68q0 -25 16.5 -42t39.5 -17q6 0 14 1t22 3q6 1 7.5 1h2.5q3 0 4.5 -2t0.5 -5t-4.5 -4.5t-10.5 -1.5h-23t-69 1
q-47 1 -63.5 1h-20.5h-8t-18 -1q-21 -1 -31.5 -1h-18.5q-5 0 -4.5 4.5t5.5 4.5h4q28 0 75.5 48t138.5 171l73 99l-92 155q-27 46 -44 73.5t-29 46.5q-32 49 -50.5 65.5t-52.5 16.5h-3q-7 0 -6.5 4.5t6.5 4.5q9 0 21.5 -0.5t38.5 -1.5q16 -1 22 -1h9h15.5t50.5 1
q61 1 85.5 1.5t33.5 0.5q6 0 6 -4.5t-7 -4.5h-19q-17 0 -24 -4.5t-7 -14.5q0 -15 19 -53.5t61 -109.5l53 -88l52 71q37 52 55.5 92t18.5 68q0 18 -11 29t-31 11q-3 0 -7.5 -0.5t-14.5 -1.5q-5 -1 -6.5 -1h-2.5q-3 0 -4.5 1t-1.5 4q1 3 4 4.5t10 1.5h18t53 -1t53 -1h18h9
t21 1q22 1 33 1h18t6 -4.5t-6 -4.5h-2q-20 0 -43.5 -14t-49.5 -42q-28 -28 -64.5 -71.5t-61.5 -76.5l-56 -76l116 -193q24 -39 41.5 -67.5t31.5 -49.5q32 -48 52 -66.5t47 -18.5h6q6 0 6 -4.5t-6 -4.5q-9 0 -29 0.5t-69 1.5q-29 1 -39 1h-13h-11.5t-32.5 -1z" />
    <glyph glyph-name="Y" unicode="Y" horiz-adv-x="658" 
d="M451 9h17q6 0 6 -4.5t-6 -4.5q-8 0 -26.5 0.5t-61.5 1.5q-29 1 -39 1h-13h-12.5t-36.5 -1q-44 -1 -62.5 -1.5t-27.5 -0.5q-6 0 -6 4.5t6 4.5h16q33 0 42 12.5t13 46.5q2 16 3 39t2 57v40.5v54.5v55l-108 195q-65 118 -91 146t-60 28h-8q-3 0 -5 1.5t-2 3.5t1.5 3.5
t4.5 1.5q9 0 27.5 -0.5t63.5 -1.5q28 -1 38 -1h13h14t42 1q49 1 69.5 1.5t29.5 0.5q6 0 6.5 -5t-5.5 -5h-35q-39 0 -34.5 -32t67.5 -147l92 -167l87 150q42 71 42 134.5t-58 63.5q-2 0 -7 -0.5t-15 -2.5q-7 0 -9 -0.5t-3 -0.5q-3 0 -5 1.5t-2 4.5t3 4.5t9 1.5h18t49 -1
q34 -1 47 -1h17h10.5t28.5 1q33 1 47.5 1h22.5q6 0 5.5 -5t-5.5 -5h-2q-33 0 -82 -54.5t-100 -144.5l-92 -160v-65v-55t1 -41q0 -33 1 -56t3 -39q4 -34 13 -46.5t42 -12.5z" />
    <glyph glyph-name="Z" unicode="Z" horiz-adv-x="625" 
d="M181 3l-147 -6q-5 0 -5.5 3t5.5 13l406 668h-137q-88 -1 -157.5 -69t-79.5 -164l-8 -94q-1 -5 -6.5 -4.5t-5.5 5.5l9 93q7 82 16.5 160.5t13.5 80.5t17.5 3t30.5 1q11 0 53.5 -0.5t148.5 -1.5q57 -1 74 -1h20h13t39 1q43 1 61.5 1.5t26.5 0.5q10 0 12 -2.5t-1 -7.5
l-403 -669q9 0 25 -0.5t53 -1.5q35 0 49 -0.5t21 -0.5q96 0 166 75.5t79 176.5l6 85q1 5 6 4.5t4 -5.5l-5 -86q-10 -130 -17 -191.5t-11 -65.5q-2 -2 -37.5 -3t-132.5 -1q-35 0 -85.5 1t-116.5 2z" />
    <glyph glyph-name="bracketleft" unicode="[" horiz-adv-x="400" 
d="M111 -270l3 516l-3 525q0 4 1.5 6t5.5 2h26h44q31 -1 47 -1h30h26h43q28 1 42 1h26q5 0 5 -5t-5 -5h-31.5h-53.5q-23 1 -34.5 1h-20.5h-115q-3 0 -5 -1t-2 -2l1 -521l-1 -512q0 -1 2 -2t5 -1h115h20.5t34.5 1h53.5h31.5q5 0 5 -5t-5 -5h-26h-42q-29 1 -43 1h-26h-30
t-47 -1h-44h-26q-4 0 -5.5 2t-1.5 6z" />
    <glyph glyph-name="backslash" unicode="\" horiz-adv-x="344" 
d="M380 -275q-42 112 -92 238.5t-108 266.5q-70 169 -129.5 304.5t-111.5 244.5q10 5 20 5.5t22 -3.5q54 -146 109.5 -290t102.5 -258t99.5 -231.5t127.5 -275.5q-11 -5 -18.5 -5.5t-21.5 4.5z" />
    <glyph glyph-name="bracketright" unicode="]" horiz-adv-x="400" 
d="M289 771l-3 -516l3 -525q0 -4 -1.5 -6t-5.5 -2h-26h-44q-31 1 -47 1h-30h-26h-43q-28 -1 -42 -1h-26q-5 0 -5 5t5 5h31.5h53.5q23 -1 34.5 -1h20.5h115q3 0 5 1t2 2l-1 521l1 512q0 1 -2 2t-5 1h-115h-20.5t-34.5 -1h-53.5h-31.5q-5 0 -5 5t5 5h26h42q29 -1 43 -1h26h30
t47 1h44h26q4 0 5.5 -2t1.5 -6z" />
    <glyph glyph-name="asciicircum" unicode="^" horiz-adv-x="381" 
d="M246 478l-55 203q-1 2 -2.5 2t-2.5 -2l-53 -205q-5 -22 -15.5 -33.5t-27.5 -11.5q-21 0 -36 11.5t-15 29.5q0 8 5.5 20t15.5 25l123 176q2 2 6 2t6 -2l125 -172q10 -15 15.5 -26.5t5.5 -20.5q0 -18 -15.5 -29.5t-36.5 -11.5q-16 0 -27 11.5t-16 33.5z" />
    <glyph glyph-name="underscore" unicode="_" horiz-adv-x="500" 
d="M-31 -73h564q6 0 7 -12t-6 -12h-566q-8 0 -7.5 12t8.5 12z" />
    <glyph glyph-name="grave" unicode="`" horiz-adv-x="809" 
d="M487 534q-1 0 -2 0.5t-5 3.5q-14 12 -35.5 27.5t-67.5 46.5q-29 19 -40 26.5t-17 12.5q-6 6 -9.5 15.5t-3.5 17.5q0 12 11 23.5t24 11.5q9 0 19 -5t17 -13q3 -4 8.5 -12t21.5 -32q31 -49 48 -72.5t30 -38.5l4 -4t1 -2q0 -2 -1.5 -4t-2.5 -2z" />
    <glyph glyph-name="a" unicode="a" horiz-adv-x="540" 
d="M349 140q-28 -61 -83 -106t-112 -45q-54 0 -89.5 32t-35.5 79q0 56 59 102t195 99l72 28q-1 95 -20 134t-65 39q-19 0 -35 -8t-27 -24q-7 -10 -13 -23.5t-16 -42.5q-6 -16 -8.5 -23.5t-5.5 -12.5q-8 -18 -23.5 -26t-44.5 -8q-27 0 -42.5 10.5t-15.5 27.5t11.5 34.5
t33.5 32.5q41 30 99 50.5t104 20.5q96 0 143.5 -45t47.5 -136q0 -17 -0.5 -40.5t-2.5 -74.5q-1 -44 -1.5 -63t-0.5 -32q0 -41 5.5 -57.5t18.5 -16.5q12 0 27 18.5t26 44.5q3 6 10 3t2 -11q-26 -43 -67.5 -76.5t-78.5 -33.5t-53 20t-16 64q0 15 0.5 34t1.5 32zM150 146
q0 -39 23.5 -63.5t61.5 -25.5q34 -1 65.5 29.5t49.5 73.5q2 70 3.5 109t1.5 48v4l-69 -30q-72 -30 -104 -64t-32 -81z" />
    <glyph glyph-name="b" unicode="b" horiz-adv-x="596" 
d="M561 297q0 -138 -78 -222.5t-203 -84.5q-41 0 -78 14.5t-68 42.5q-22 -21 -42.5 -35t-25.5 -14q-2 0 -3 2t-1 7v662q0 25 -2 40.5t-6 23.5q-5 10 -14.5 12.5t-42.5 -3.5q-6 -1 -6 3.5t6 5.5q34 6 88 26t83 36q3 2 10.5 -1t7.5 -6v-399q40 51 87 77t101 26
q84 0 135.5 -59.5t51.5 -153.5zM186 395v-301q23 -42 55 -66t69 -24q61 0 92 60t31 178q0 102 -35.5 161.5t-97.5 59.5q-32 0 -60.5 -17t-53.5 -51z" />
    <glyph glyph-name="c" unicode="c" horiz-adv-x="549" 
d="M553 196q-48 -98 -120.5 -152t-157.5 -54q-111 0 -178.5 66t-67.5 175q0 113 88 196t213 83q81 0 130 -27.5t49 -72.5q0 -28 -20 -47.5t-51 -19.5q-26 0 -44 14t-38 60q-19 47 -37.5 61.5t-45.5 14.5q-58 0 -93.5 -52t-35.5 -140q0 -98 59.5 -157.5t156.5 -59.5
q64 0 110 28.5t77 86.5l3 3t2 1q2 -1 2 -3t-1 -4z" />
    <glyph glyph-name="d" unicode="d" horiz-adv-x="600" 
d="M411 95q-40 -52 -88 -78.5t-102 -26.5q-85 0 -136.5 59.5t-51.5 153.5q0 135 80.5 221t201.5 86q25 0 49 -6t47 -18v176q0 25 -2 40.5t-6 24.5q-5 12 -16 15t-42 -3q-6 -1 -6 3.5t6 5.5q32 6 83.5 26t84.5 39q3 2 11.5 -1t8.5 -6v-687q0 -80 8.5 -95t42.5 -15q6 0 6 -4.5
t-6 -4.5q-54 0 -100 -2.5t-68 -7.5q-6 -1 -9 1t-3 8v3t1 8q3 26 4.5 45.5t1.5 39.5zM286 496q-65 0 -95.5 -57.5t-30.5 -178.5q0 -103 36 -163t99 -60q31 0 60 17.5t56 53.5v298q-23 41 -56 65.5t-69 24.5z" />
    <glyph glyph-name="e" unicode="e" 
d="M435 38q-38 -25 -75.5 -36.5t-81.5 -11.5q-114 0 -182.5 65.5t-68.5 174.5q0 110 90.5 195t208.5 85q86 0 134 -35t46 -90q-2 -24 -18 -31.5t-58 -7.5h-286q-2 -11 -2.5 -23t-0.5 -25q0 -96 62 -154.5t162 -58.5q84 0 144.5 55t93.5 161q2 6 5 5.5t1 -7.5
q-24 -82 -71 -152.5t-103 -108.5zM379 408q0 37 -25 61t-67 24q-56 0 -93.5 -37.5t-48.5 -103.5q45 1 87 2t93 3q13 1 24 4.5t16 7.5q7 6 10.5 15.5t3.5 23.5z" />
    <glyph glyph-name="f" unicode="f" horiz-adv-x="295" 
d="M104 1q-42 -1 -62 -1h-30q-6 0 -6 4.5t6 4.5q39 0 48.5 14t9.5 87v29.5v83.5q-1 100 -1 144.5v67.5h-58q-7 0 -9.5 2t-1.5 6l26 57h48q11 50 41.5 99t76.5 90q48 43 102 67.5t100 24.5t74.5 -10.5t28.5 -26.5q0 -27 -26 -51.5t-56 -24.5q-14 0 -30 4.5t-46 20.5
q-30 15 -46 20t-31 5q-39 0 -55 -41.5t-16 -143.5v-33h115h12t2 -1q0 -2 -14.5 -30t-19.5 -34h-95q0 -63 0.5 -144.5t0.5 -180.5q0 -32 1.5 -48.5t4.5 -26.5q4 -15 15 -20.5t46 -5.5q6 0 6 -4.5t-6 -4.5h-25.5t-54.5 1q-24 1 -32.5 1h-11.5h-8.5t-22.5 -1z" />
    <glyph glyph-name="g" unicode="g" horiz-adv-x="524" 
d="M398 -215q-49 -34 -106 -51.5t-115 -17.5q-83 -1 -128.5 30t-45.5 85q0 42 39.5 80t111.5 66q-64 3 -97 23t-33 56q0 35 34 64t94 47q-58 16 -88.5 56t-30.5 101q0 76 63 126.5t162 54.5q34 1 78.5 7.5t122.5 22.5q31 6 42 8t16 2q13 2 24.5 -3.5t11.5 -15.5
q0 -17 -17 -33t-38 -16q-5 0 -16 1.5t-43 5.5q-64 9 -97 12.5t-56 3.5v-2q87 -13 134 -56.5t47 -110.5q0 -79 -63 -127t-165 -48q-19 0 -38.5 2t-36.5 6q-36 -9 -52.5 -20.5t-16.5 -27.5q0 -19 23 -27.5t80 -8.5h156q85 0 126.5 -26t41.5 -79q0 -49 -33 -100t-91 -90z
M162 335q0 -81 23 -126t65 -45q45 0 67.5 42t22.5 125q0 80 -22.5 122.5t-64.5 42.5q-46 0 -68.5 -39.5t-22.5 -121.5zM78 -108q0 -44 46 -67t135 -23q101 0 167 33.5t66 81.5q0 33 -34.5 46.5t-119.5 13.5h-173q-42 -17 -64.5 -38.5t-22.5 -46.5z" />
    <glyph glyph-name="h" unicode="h" horiz-adv-x="590" 
d="M95 1q-38 -1 -54.5 -1h-25.5q-6 0 -6 4.5t6 4.5q33 0 41 18.5t8 91.5v550q0 25 -2 40.5t-6 24.5q-5 12 -16 15t-41 -2q-6 -1 -6 3.5t6 5.5q37 7 91 25t80 32q3 2 10.5 -1t7.5 -6v-406q44 56 88.5 83t93.5 27q79 0 119 -50.5t40 -151.5v-228q0 -42 8 -57t40 -14
q6 0 6 -4.5t-6 -4.5h-11t-39 1q-47 0 -65 0.5t-23 0.5h-9t-21 -1q-24 -1 -35.5 -1h-20.5q-6 0 -6 4.5t6 4.5q36 0 44 19t8 81v203q-1 74 -25.5 111.5t-72.5 37.5q-34 0 -61.5 -17t-57.5 -57v-378h60q6 0 6 -4.5t-6 -4.5h-18.5t-43.5 1q-24 1 -33 1h-13h-11.5t-33.5 -1z" />
    <glyph glyph-name="i" unicode="i" horiz-adv-x="263" 
d="M207 666q0 -33 -24 -57t-58 -24t-58 24t-24 57q0 34 24 58t58 24t58 -24t24 -58zM90 1q-38 -1 -54.5 -1h-25.5q-6 0 -6 4.5t6 4.5q39 0 49.5 15t10.5 86v257q0 52 -9 64.5t-50 3.5q-6 -1 -7.5 3t4.5 5q34 7 83.5 27t84.5 40q3 2 10.5 -1t7.5 -6v-393q0 -71 10.5 -86
t48.5 -15q6 0 6 -4.5t-6 -4.5h-25t-51 1q-23 1 -31.5 1h-11.5h-11.5t-32.5 -1z" />
    <glyph glyph-name="j" unicode="j" horiz-adv-x="238" 
d="M196 666q0 -33 -24 -57t-58 -24q-33 0 -57 24t-24 57q0 34 24 58t57 24q34 0 58 -24t24 -58zM45 -161q-54 -54 -92 -77.5t-70 -23.5q-20 0 -30.5 8t-10.5 23q0 26 26.5 52.5t54.5 26.5q10 0 20.5 -1t29.5 -4q23 -3 33 -3t17 2q23 4 30.5 40t7.5 117v368q0 49 -12 63.5
t-56 4.5q-6 -1 -7.5 3t4.5 5q39 9 91 28.5t85 38.5q3 2 9.5 -1t6.5 -6v-118t1 -196v-86.5v-33.5q-1 -51 -31 -102t-107 -128z" />
    <glyph glyph-name="k" unicode="k" horiz-adv-x="587" 
d="M186 1q-24 1 -33 1h-13h-11.5t-33.5 -1q-38 -1 -54.5 -1h-25.5q-6 0 -6 4.5t6 4.5q33 0 41 18.5t8 91.5v550q0 25 -2 40.5t-6 24.5q-5 12 -16 15t-41 -2q-6 -1 -6 3.5t6 5.5q37 7 91 25t80 32q3 2 10.5 -1t7.5 -6v-626l154 159q25 26 37.5 49.5t13.5 46.5q1 26 -16.5 41
t-48.5 15q-5 0 -5 4t5 4q8 0 28 -0.5t68 -0.5q30 -1 39.5 -1h12.5q4 0 17 0.5t46 0.5q21 1 27.5 1h8.5q5 0 5 -4t-5 -4q-36 0 -93 -39.5t-131 -116.5l74 -132q58 -108 95 -151t76 -43q6 0 6 -4.5t-6 -4.5h-126q-22 0 -35.5 2.5t-23.5 8.5q-20 10 -39.5 39t-51.5 95l-53 104
l-79 -80v-160h60q6 0 6 -4.5t-6 -4.5h-18.5t-43.5 1z" />
    <glyph glyph-name="l" unicode="l" horiz-adv-x="253" 
d="M95 1q-38 -1 -54.5 -1h-25.5q-6 0 -6 4.5t6 4.5q33 0 41 18.5t8 91.5v550q0 25 -2 40.5t-6 24.5q-5 12 -16 15t-41 -2q-6 -1 -6 3.5t6 5.5q37 7 91 25t80 32q3 2 10.5 -1t7.5 -6v-687q0 -27 1 -44.5t3 -28.5q4 -21 13.5 -29t38.5 -8q5 0 5 -4.5t-5 -4.5h-23t-44 1
q-19 1 -26.5 1h-10.5h-11.5t-33.5 -1z" />
    <glyph glyph-name="m" unicode="m" horiz-adv-x="922" 
d="M82 1q-28 -1 -41.5 -1h-22.5q-6 0 -6 4.5t6 4.5q32 0 40 20.5t8 89.5v239q0 17 -11 35.5t-35 40.5q-2 2 -2 3.5t2 2.5q19 7 65.5 32t58.5 36q2 2 3 1.5t3 -2.5q16 -15 28 -47.5t12 -62.5q43 58 87 85.5t94 27.5q59 0 98 -29t52 -84q43 58 88 85.5t94 27.5
q79 0 118.5 -50.5t39.5 -151.5v-228q0 -45 8 -58.5t39 -12.5q6 0 6 -4.5t-6 -4.5h-19.5t-41.5 1q-34 1 -49.5 1h-26.5h-9.5t-22.5 -1q-26 -1 -38.5 -1h-21.5q-6 0 -6 4.5t6 4.5q41 0 49.5 16.5t8.5 83.5v203q-1 74 -25.5 111.5t-71.5 37.5q-34 0 -60 -16t-57 -59v-306
q0 -43 8.5 -57.5t43.5 -13.5q6 0 6 -4.5t-6 -4.5h-11t-39 1q-47 0 -65 0.5t-23 0.5h-9.5t-22.5 -1q-25 -1 -37.5 -1h-21.5q-6 0 -6 4.5t6 4.5q39 0 47 16.5t8 83.5l-1 203q0 76 -22.5 112.5t-69.5 36.5q-34 0 -60 -16.5t-57 -58.5v-377h55q6 0 6 -4.5t-6 -4.5h-10.5t-36.5 1
q-43 0 -60 0.5t-22 0.5h-10t-25 -1z" />
    <glyph glyph-name="n" unicode="n" horiz-adv-x="594" 
d="M82 1q-28 -1 -41 -1h-22q-6 0 -6 4.5t6 4.5q31 0 39 21t8 89v239q0 17 -11 35.5t-35 40.5q-2 2 -2 3.5t2 2.5q19 7 65.5 32t58.5 36q2 2 3 1.5t3 -2.5q16 -15 28.5 -47.5t12.5 -61.5q43 57 88 84.5t95 27.5q79 0 119 -50.5t40 -151.5v-210q0 -52 8 -71t37 -18q6 0 6 -4.5
t-6 -4.5h-11t-38 1q-46 0 -63.5 0.5t-22.5 0.5h-9t-21 -1q-23 -1 -34.5 -1h-20.5q-6 0 -6 4.5t6 4.5q35 0 43.5 18.5t8.5 76.5l-1 208q-1 74 -25.5 111.5t-72.5 37.5q-34 0 -61.5 -17t-57.5 -57v-378h52q6 0 6 -4.5t-6 -4.5h-10.5t-35.5 1q-43 0 -59.5 0.5t-21.5 0.5h-10
t-25 -1z" />
    <glyph glyph-name="o" unicode="o" horiz-adv-x="599" 
d="M485 68q-39 -38 -88.5 -58t-104.5 -20q-117 0 -190 69t-73 181q0 113 79.5 191.5t199.5 78.5q117 0 189 -69.5t72 -183.5q0 -51 -22 -101t-62 -88zM171 257q0 -113 37 -184.5t101 -71.5q62 0 92 59t30 181q0 112 -36.5 185.5t-98.5 73.5q-65 0 -95 -56.5t-30 -186.5z" />
    <glyph glyph-name="p" unicode="p" horiz-adv-x="601" 
d="M566 297q0 -139 -88 -223t-231 -84q-13 0 -26.5 1.5t-29.5 5.5v-260h71q6 0 6 -4.5t-6 -4.5h-12.5t-43.5 1q-53 0 -73 0.5t-25 0.5h-11t-30 -1q-34 -1 -49.5 -1h-24.5q-6 0 -6 4.5t6 4.5q52 0 63 18t11 99v505q0 58 -11 73t-59 8q-6 -1 -6 3.5t6 5.5q32 4 87 24.5
t90 40.5q3 2 10.5 -1t7.5 -6v-100q40 52 86.5 77.5t100.5 25.5q84 0 135.5 -59.5t51.5 -153.5zM438 242q0 103 -35 162t-98 59q-31 0 -59.5 -17t-53.5 -50v-198t-1 -132q26 -31 54 -45t62 -14q65 0 98 59.5t33 175.5z" />
    <glyph glyph-name="q" unicode="q" horiz-adv-x="596" 
d="M598 -197q-43 -10 -85 -29t-87 -47q-3 -2 -11.5 1t-8.5 6q1 25 2 79.5t1 131.5v149q-39 -52 -86.5 -78t-102.5 -26q-86 0 -136.5 58.5t-50.5 154.5q0 134 82.5 220.5t203.5 86.5q43 0 79.5 -15.5t64.5 -45.5q33 33 45.5 44t18.5 11q3 0 4.5 -1.5t1.5 -5.5v-620
q0 -26 1.5 -39.5t5.5 -21.5q5 -8 14 -10t42 4q6 1 7 -2.5t-5 -4.5zM289 496q-65 0 -97 -58.5t-32 -177.5q0 -101 36 -162t98 -61q31 0 60 17t55 52v216q-9 91 -37.5 132.5t-82.5 41.5z" />
    <glyph glyph-name="r" unicode="r" horiz-adv-x="384" 
d="M97 1q-38 -1 -54.5 -1h-25.5q-6 0 -6 4.5t6 4.5q28 0 36.5 8.5t11.5 29.5q2 12 3 29.5t1 42.5v239q0 17 -11 35.5t-35 40.5q-2 2 -2 3.5t2 2.5q18 7 63.5 32t57.5 36q2 2 3 1.5t3 -2.5q16 -15 29 -59t13 -88v-23q6 42 20 74t36 55q18 23 41 33.5t52 10.5q24 0 38.5 -7
t14.5 -19q0 -22 -22.5 -55t-45.5 -33h-49q-28 0 -43 -4.5t-23 -14.5q-10 -14 -14 -41t-4 -84v-243h71q6 0 6 -4.5t-6 -4.5h-10t-34 1q-42 0 -58 0.5t-21 0.5h-11.5t-32.5 -1z" />
    <glyph glyph-name="s" unicode="s" horiz-adv-x="453" 
d="M430 165q0 -75 -59 -125t-150 -50q-26 0 -48.5 1.5t-41.5 4.5q-26 4 -55 13t-32 10q-4 1 -5.5 4t-1.5 10q0 2 0.5 7.5t1.5 21.5q4 50 5.5 82.5t1.5 61.5q0 5 3 6t3 -5q3 -46 16.5 -83.5t35.5 -63.5q24 -30 56.5 -46t71.5 -16q51 0 80.5 25t29.5 68q0 32 -26.5 55
t-120.5 55q-97 32 -130.5 64.5t-33.5 78.5q0 72 61 119t145 47q48 0 84.5 -3.5t77.5 -12.5q5 -2 6.5 -3.5t1.5 -4.5q0 -6 -0.5 -18t-1.5 -44q-1 -47 -1.5 -69.5t-0.5 -37.5q0 -6 -3.5 -6t-4.5 6q-2 38 -13 70t-30 56q-23 29 -55 43.5t-73 14.5q-50 0 -80 -20t-30 -53
q0 -24 13 -42.5t42 -34.5q12 -6 29 -13.5t63 -23.5q101 -33 135 -66.5t34 -82.5z" />
    <glyph glyph-name="t" unicode="t" horiz-adv-x="329" 
d="M349 143q-45 -75 -93.5 -114t-95.5 -39q-51 0 -74 35t-23 115v295h-76q-1 0 -1 3t1 4l190 160q4 4 6.5 3.5t2.5 -5.5v-100h137h18.5t4.5 -1q0 -3 -14 -30.5t-21 -33.5h-127v-262q0 -54 16.5 -82t48.5 -28q26 0 48 21t42 65q3 5 8.5 2.5t1.5 -8.5z" />
    <glyph glyph-name="u" unicode="u" horiz-adv-x="576" 
d="M391 109q-45 -59 -91.5 -89.5t-91.5 -30.5q-78 0 -113 44t-35 140v192q0 25 -1.5 40.5t-5.5 23.5q-5 11 -15 14t-42 -3q-6 -1 -6 3.5t6 5.5q38 7 93 25t80 32q3 2 10.5 -1t7.5 -6v-298q0 -74 23 -110.5t71 -36.5q30 0 56 15.5t54 50.5v245q0 25 -1.5 40.5t-5.5 23.5
q-5 11 -15 14t-42 -3q-6 -1 -6 3.5t6 5.5q37 7 90.5 25t79.5 32q3 2 10.5 -1t7.5 -6v-380q0 -76 7.5 -93t41.5 -17q4 0 4 -4.5t-4 -4.5q-51 0 -95.5 -2.5t-77.5 -6.5q-4 -1 -6 0.5t-2 8.5v3t1 9q4 31 5.5 54t1.5 43z" />
    <glyph glyph-name="v" unicode="v" horiz-adv-x="526" 
d="M267 -3h-10q-6 0 -9 2t-6 7l-165 359q-33 72 -53 99t-50 27q-6 0 -6 4.5t6 4.5h7t24 -1q30 0 43 -0.5t18 -0.5h15h47q50 1 70 1h28q7 0 7 -4t-7 -4q-46 0 -50.5 -17t24.5 -81l121 -274l78 182q39 88 25.5 139t-75.5 50q-7 0 -7 4.5t7 4.5h22.5t46.5 -1h26h10q4 0 17 0.5
t45 0.5q20 1 26.5 1h8.5q6 0 6 -4.5t-6 -4.5q-30 0 -63.5 -46t-79.5 -150l-127 -288q-4 -5 -7 -7.5t-7 -2.5z" />
    <glyph glyph-name="w" unicode="w" horiz-adv-x="853" 
d="M243 -3h-9q-6 0 -9 2t-5 7l-135 358q-28 75 -45.5 101t-49.5 26q-4 0 -4.5 4.5t3.5 4.5h7t23 -1q30 0 42.5 -0.5t17.5 -0.5h14.5h45.5q52 1 73 1h29q5 0 5 -4t-6 -4q-46 0 -50.5 -18t17.5 -80l95 -259l102 235q1 5 1 10v16q-1 12 -3.5 22.5t-6.5 19.5q-10 25 -29 39
t-42 14q-6 0 -6 4.5t6 4.5h26t59 -1h33.5h11.5h16.5t47.5 1h43h14q6 0 6 -4t-7 -4q-45 0 -49 -17.5t21 -80.5l100 -259l70 167q34 85 18.5 137.5t-74.5 51.5q-6 0 -6 4.5t5 4.5h23t47 -1h25h9q5 0 18.5 0.5t47.5 0.5q20 1 26.5 1h8.5q6 0 6 -4.5t-5 -4.5q-32 0 -63 -43
t-78 -153l-122 -288q-3 -7 -5.5 -8.5t-5.5 -1.5h-8q-6 0 -9 2t-5 7l-151 374l-161 -373q-2 -5 -6 -7.5t-8 -2.5z" />
    <glyph glyph-name="x" unicode="x" horiz-adv-x="565" 
d="M28 1q-15 -1 -20 -1h-6q-5 0 -5 4.5t5 4.5q21 -1 62.5 35t114.5 120l55 64l-89 135q-19 30 -32.5 49t-23.5 32q-22 28 -37 38t-43 9q-5 0 -6 4.5t4 4.5h9t34 -1q45 0 62.5 -0.5t21.5 -0.5h13t40 1q45 1 62.5 1h24.5q6 0 7 -4.5t-5 -4.5q-47 0 -50.5 -18t38.5 -80l60 -91
l34 40q27 32 40.5 60t12.5 49q-1 20 -16 30t-43 10q-5 0 -5 4.5t5 4.5q8 0 23 -0.5t50 -0.5q22 -1 29.5 -1h10.5q4 0 16 0.5t42 0.5q19 1 25 1h8q5 0 5 -4.5t-5 -4.5q-31 1 -77.5 -36.5t-114.5 -118.5l-35 -42l105 -157q51 -77 75.5 -103t55.5 -25q5 0 5.5 -4.5t-4.5 -4.5
h-11t-37 1q-43 1 -59 1h-20h-13.5t-41.5 -1q-45 -1 -63 -1h-25q-6 0 -7 4.5t5 4.5q51 0 54.5 20t-35.5 78l-74 113l-55 -63q-23 -26 -34.5 -50t-11.5 -46q0 -24 16.5 -38t44.5 -14q6 0 6 -4.5t-6 -4.5q-7 0 -24 0.5t-57 0.5q-23 1 -31 1h-10q-4 0 -14 -0.5t-35 -0.5z" />
    <glyph glyph-name="y" unicode="y" horiz-adv-x="525" 
d="M52 -192q-39 0 -66.5 12.5t-27.5 28.5t28 50t47 34q9 0 19.5 -3t33.5 -13q25 -11 38.5 -14.5t25.5 -3.5q33 0 54 19t41 65l11 25l-159 352q-39 86 -59 109t-58 22q-5 0 -5 4.5t5 4.5h9t28 -1q32 -1 44.5 -1h17.5h14t44 1q50 1 71 1h29q6 0 6 -4.5t-6 -4.5
q-29 0 -39.5 -5.5t-11.5 -18.5q-1 -10 5 -27.5t21 -49.5l107 -240l87 197q30 68 17.5 106t-63.5 38q-6 0 -6 4.5t6 4.5q9 0 21.5 -0.5t39.5 -0.5q17 -1 23.5 -1h9.5h16.5t40.5 1q19 1 25 1h8q5 0 5 -4.5t-5 -4.5q-32 1 -63 -35t-66 -115l-160 -360q-38 -88 -87.5 -130.5
t-115.5 -42.5z" />
    <glyph glyph-name="z" unicode="z" horiz-adv-x="510" 
d="M164 2l-132 -2q-9 0 -13 4t-1 10l320 475h-91q-91 -1 -143 -51t-57 -142l-3 -51q0 -5 -4.5 -5t-4.5 5l3 51q5 107 7.5 153t3.5 47q4 2 16.5 3t30.5 1q11 0 46 -0.5t120 -0.5q48 -1 63 -1h18q4 0 17 0.5t50 1.5q35 0 47 0.5t16 0.5q7 0 7 -7t-6 -15l-312 -468h23t37 -1
h22.5h10.5q90 0 145.5 55t64.5 151l5 56q1 5 5.5 4.5t3.5 -5.5l-6 -69q-6 -65 -11.5 -130.5t-7.5 -67.5q-3 -3 -14.5 -3.5t-72.5 -0.5q-35 0 -86 0.5t-117 1.5z" />
    <glyph glyph-name="braceleft" unicode="{" horiz-adv-x="445" 
d="M122 258q40 0 68 29t28 74q0 20 -6 43t-25 72q-24 59 -31.5 92t-7.5 63q0 70 61 117.5t154 47.5q15 0 13.5 -8.5t-12.5 -8.5q-91 0 -141.5 -34t-50.5 -93q0 -27 7 -58.5t28 -92.5q19 -54 25 -80t6 -47q0 -42 -24 -74.5t-66 -48.5q43 -18 66.5 -50.5t23.5 -73.5
q0 -21 -6 -47t-25 -80q-21 -61 -28 -92.5t-7 -58.5q0 -64 45 -95.5t137 -31.5q13 0 14 -9.5t-15 -9.5q-98 0 -151.5 44t-53.5 123q0 30 7.5 63t31.5 92q19 49 25 72t6 43q0 45 -28 74t-68 29q-5 0 -6.5 1.5t-1.5 5.5q0 6 1.5 7t6.5 1z" />
    <glyph glyph-name="bar" unicode="|" horiz-adv-x="257" 
d="M150 782q-7 -106 -11 -258t-4 -277q0 -113 3 -249.5t9 -266.5q-9 -8 -17 -10t-20 0q6 150 9.5 285t3.5 240q0 97 -3.5 240t-8.5 290q10 6 19.5 7.5t19.5 -1.5z" />
    <glyph glyph-name="braceright" unicode="}" horiz-adv-x="445" 
d="M323 241q-40 0 -68 -29t-28 -74q0 -20 6 -43t25 -72q24 -59 31.5 -92t7.5 -63q0 -70 -61 -117.5t-154 -47.5q-15 0 -13.5 8.5t12.5 8.5q91 0 141.5 34t50.5 93q0 27 -7 58.5t-28 92.5q-19 54 -25 80t-6 47q0 42 24 74.5t66 48.5q-43 18 -66.5 50.5t-23.5 73.5q0 21 6 47
t25 80q21 61 28 92.5t7 58.5q0 64 -45 95.5t-137 31.5q-13 0 -14 9.5t15 9.5q98 0 151.5 -44t53.5 -123q0 -30 -7.5 -63t-31.5 -92q-19 -49 -25 -72t-6 -43q0 -45 28 -74t68 -29q5 0 6.5 -1.5t1.5 -5.5q0 -6 -1.5 -7t-6.5 -1z" />
    <glyph glyph-name="asciitilde" unicode="~" horiz-adv-x="441" 
d="M191 321q-42 19 -62 25t-36 6q-17 0 -27 -14.5t-17 -48.5q-1 -5 -5 -4t-3 8q11 64 37.5 98t65.5 34q16 0 37 -6t66 -26q44 -20 64.5 -26t35.5 -6q17 0 27.5 15.5t19.5 53.5q1 5 5.5 3.5t2.5 -8.5q-16 -69 -42.5 -103t-64.5 -34q-18 0 -39.5 6.5t-64.5 26.5z" />
    <glyph glyph-name="exclamdown" unicode="&#xa1;" horiz-adv-x="266" 
d="M191 -79v-5q0 -27 -32.5 -65t-54.5 -38q-20 0 -31.5 15t-11.5 40v3q0 19 5.5 54t23.5 125q24 119 31.5 172.5t7.5 88.5q0 3 4 3t4 -3q0 -36 6.5 -87t26.5 -157q13 -73 17 -101.5t4 -44.5zM134 520q32 0 54 -21.5t22 -53.5q0 -33 -22 -55.5t-54 -22.5q-33 0 -55 22t-22 55
q0 32 22.5 54t54.5 22z" />
    <glyph glyph-name="cent" unicode="&#xa2;" horiz-adv-x="541" 
d="M276 -10h-1q-111 0 -178.5 66t-67.5 175q0 100 70.5 179t178.5 96q-1 31 -2 66.5t-2 112.5q8 6 15 7.5t17 -1.5q-4 -89 -5.5 -121.5t-2.5 -60.5h6.5t9.5 1h9.5h6.5q81 0 130 -27.5t49 -72.5q0 -28 -20 -47.5t-51 -19.5q-26 0 -44 14t-38 61q-16 38 -28.5 52t-29.5 19
q-2 -43 -3 -93t-2 -147v-156q17 -4 33.5 -6t33.5 -2q64 0 110.5 28.5t76.5 86.5q2 2 3 2.5t2 0.5q2 0 2 -2t-1 -4q-45 -93 -112 -146.5t-146 -59.5q1 -83 2 -125.5t2 -79.5q-7 -8 -14 -10.5t-18 0.5q3 67 5 118.5t4 95.5zM143 298q0 -72 36.5 -125.5t99.5 -74.5
q1 64 1.5 94.5t0.5 55.5q0 65 -0.5 126t-2.5 119h-5q-58 0 -94 -52.5t-36 -142.5z" />
    <glyph glyph-name="sterling" unicode="&#xa3;" horiz-adv-x="683" 
d="M191 338q-33 -1 -68.5 -3t-75.5 -5q-4 7 -3.5 14.5t6.5 12.5q37 -2 72.5 -3t69.5 -2q0 13 1 26.5t2 26.5q9 91 55 158t129 112q25 13 51 20t52 7q55 0 87.5 -23t32.5 -62q0 -26 -16 -42.5t-39 -16.5q-30 0 -45 15.5t-17 47.5q-2 27 -17 42.5t-39 15.5q-12 0 -24 -4.5
t-22 -12.5q-26 -20 -42.5 -75t-32.5 -190q-1 -4 -1.5 -8.5t-1.5 -14.5t-1.5 -14.5t-1.5 -8.5q44 1 92 3t113 6q4 -7 3 -15t-7 -13q-104 5 -138 6.5t-65 1.5q-12 -70 -34.5 -137t-51.5 -117q123 -19 178.5 -24.5t105.5 -5.5q22 0 49 11.5t44 28.5q21 20 35 44.5t21 52.5l8 38
q1 5 7 4.5t5 -5.5l-10 -45q-15 -65 -26 -110.5t-16 -63.5q-7 -28 -30.5 -45t-57.5 -17q-50 0 -126 30t-193 98q-10 -16 -20.5 -29.5t-21.5 -23.5q-23 -24 -43 -35t-40 -11q-29 0 -47 15.5t-18 39.5q0 31 22.5 48.5t61.5 17.5q14 0 33.5 -2t64.5 -9q0 2 -5.5 94t-3.5 156z
" />
    <glyph glyph-name="yen" unicode="&#xa5;" horiz-adv-x="659" 
d="M451 9h17q6 0 6 -4.5t-6 -4.5q-8 0 -26.5 0.5t-61.5 1.5q-29 1 -39 1h-13h-12.5t-36.5 -1q-44 -1 -62.5 -1.5t-27.5 -0.5q-6 0 -6 4.5t6 4.5h16q33 0 42.5 13.5t13.5 50.5q2 16 3 40t1 60q-47 -1 -86.5 -2.5t-78.5 -4.5q-3 7 -2.5 14t5.5 12q12 0 26.5 -1t43.5 -2
q36 -2 55.5 -2.5t36.5 -1.5v136q-50 -1 -89 -3t-76 -5q-3 7 -2.5 14t5.5 13q12 0 25.5 -1t41.5 -2q36 -2 55 -2.5t36 -1.5l-104 176q-75 129 -97.5 151.5t-53.5 22.5h-8q-3 0 -5 1.5t-2 3.5t1.5 3.5t4.5 1.5q9 0 27.5 -0.5t63.5 -1.5q28 -1 38 -1h13h14t42 1q49 1 69.5 1.5
t29.5 0.5q6 0 6.5 -5t-5.5 -5h-35q-43 0 -36 -37.5t69 -141.5l95 -159l84 142q42 71 42 134.5t-58 63.5q-2 0 -7 -0.5t-15 -2.5q-7 0 -9 -0.5t-3 -0.5q-3 0 -5 1.5t-2 4.5t3 4.5t9 1.5h18t49 -1q34 -1 47 -1h17h10.5t28.5 1q33 1 47.5 1h22.5q6 0 6 -5t-5 -5h-3
q-33 0 -77 -48t-105 -151l-89 -151q40 1 79.5 3t80.5 5q3 -7 2.5 -13.5t-5.5 -13.5q-46 3 -85 5t-75 3v-137q34 1 71 3t91 6q4 -8 3.5 -15t-5.5 -13q-9 0 -19.5 0.5t-31.5 2.5q-43 2 -66 3t-43 1q0 -36 1 -60t3 -40q4 -37 13.5 -50.5t42.5 -13.5z" />
    <glyph glyph-name="brokenbar" unicode="&#xa6;" horiz-adv-x="257" 
d="M147 302q-8 -8 -16 -9.5t-18 1.5q4 54 7 131t3 115t-4.5 125.5t-7.5 110.5q9 7 19 8.5t18 -2.5q-4 -39 -8.5 -118.5t-4.5 -122.5q0 -39 4 -113t8 -126zM146 -275q-8 -7 -16.5 -9t-17.5 1q4 64 7.5 137t3.5 109q0 37 -3.5 124.5t-6.5 111.5q7 6 17 8t18 -2
q-4 -39 -8.5 -118.5t-4.5 -122.5q0 -42 3.5 -117t7.5 -122z" />
    <glyph glyph-name="section" unicode="&#xa7;" horiz-adv-x="611" 
d="M437 -63q-12 -53 -63.5 -91.5t-116.5 -38.5q-59 0 -100.5 25t-41.5 61q0 24 14.5 39t38.5 15t39.5 -11.5t32.5 -49.5q17 -37 32.5 -48.5t38.5 -11.5q26 0 41.5 17.5t14.5 43.5q0 26 -24 64t-106 128q-112 122 -148 184.5t-36 113.5q0 57 30 102.5t90 78.5q8 62 57 101
t119 39q58 0 98.5 -25t40.5 -60q0 -23 -14 -37t-37 -14q-22 0 -37.5 11t-31.5 47q-17 37 -32.5 48t-37.5 11q-26 0 -42.5 -17t-15.5 -43q0 -31 28 -76.5t121 -149.5q106 -117 139 -172.5t33 -96.5q0 -59 -32 -106.5t-92 -80.5zM283 205q97 -109 126.5 -159t29.5 -87v-8.5
t-1 -5.5q28 19 40 39t12 50q0 32 -30 81.5t-127 162.5q-100 117 -131 169t-31 87v10t1 6q-27 -16 -38.5 -36.5t-11.5 -51.5q0 -39 31 -91.5t130 -165.5z" />
    <glyph glyph-name="dieresis" unicode="&#xa8;" horiz-adv-x="809" 
d="M508 582q-30 0 -51 20.5t-21 49.5q0 30 21 50.5t51 20.5q29 0 50 -21t21 -50t-21 -49.5t-50 -20.5zM293 582q-29 0 -49.5 20.5t-20.5 49.5q0 30 20.5 50.5t49.5 20.5q30 0 51.5 -20.5t21.5 -50.5q0 -29 -21.5 -49.5t-51.5 -20.5z" />
    <glyph glyph-name="copyright" unicode="&#xa9;" horiz-adv-x="816" 
d="M648 100q-57 -54 -125.5 -85t-132.5 -31q-143 0 -243 101.5t-100 249.5q0 69 31 136t88 121q56 53 125 83t136 30q146 0 243.5 -98.5t97.5 -252.5q0 -67 -31.5 -133t-88.5 -121zM84 349q0 -137 95.5 -233.5t227.5 -96.5q148 0 236 87t88 234t-93 241.5t-232 94.5
q-145 0 -233.5 -89.5t-88.5 -237.5zM601 258q-33 -59 -85.5 -92t-114.5 -32q-90 0 -144.5 54.5t-54.5 143.5t68 154.5t160 65.5q41 0 74.5 -4.5t62.5 -13.5q2 -1 4 -3.5t3 -6.5q0 -6 0.5 -15t1.5 -31q3 -45 4 -67.5t1 -38.5q0 -4 -3.5 -4.5t-4.5 3.5q-11 81 -48.5 126.5
t-95.5 45.5q-72 0 -113.5 -43t-41.5 -119q0 -85 50 -137t132 -52q48 0 83 17.5t56 52.5q2 2 5 0.5t1 -4.5z" />
    <glyph glyph-name="ordfeminine" unicode="&#xaa;" horiz-adv-x="362" 
d="M219 482q-15 -30 -54 -58t-67 -28q-30 0 -49.5 18t-19.5 46q0 31 28.5 54.5t105.5 52.5l58 21v15q0 49 -10 68t-34 19q-35 0 -44.5 -37t-12.5 -42q-4 -10 -15.5 -15t-30.5 -5q-17 0 -28 7t-11 18q0 9 7.5 19t22.5 22q26 18 60 29.5t64 11.5q60 0 91.5 -25t31.5 -72v-21.5
t-1 -40.5t-1 -40.5v-21.5q0 -22 3 -29.5t12 -7.5q8 0 16.5 11.5t14.5 28.5q2 6 7.5 3t1.5 -9q-20 -36 -46.5 -57.5t-52.5 -21.5q-24 0 -36.5 12.5t-12.5 37.5q0 7 0.5 18t1.5 19zM119 494q0 -22 11.5 -36.5t30.5 -14.5q14 0 32 17t24 34q1 6 2 23t2 63l-35 -14
q-37 -14 -52 -29.5t-15 -42.5z" />
    <glyph glyph-name="guillemotleft" unicode="&#xab;" horiz-adv-x="599" 
d="M46 18zM142 154q-40 39 -59 57.5t-34 32.5q-3 3 -3 7t3 7q24 23 55.5 53t141.5 138q21 21 32 28.5t18 7.5q13 0 21.5 -12.5t8.5 -31.5q0 -17 -7.5 -31.5t-20.5 -21.5q-76 -41 -142.5 -78.5t-92.5 -54.5q-2 -2 -2 -4.5t2 -3.5q14 -9 41 -24.5t93 -52.5q50 -27 70 -38
t31 -18q13 -8 20.5 -23t7.5 -33q0 -17 -8.5 -28.5t-20.5 -11.5q-7 0 -17 6.5t-34 29.5q-16 14 -37 34.5t-67 65.5zM369 154q-40 39 -59 57.5t-34 32.5q-3 3 -3 7t3 7q24 23 55.5 53t141.5 138q21 21 32 28.5t18 7.5q13 0 21.5 -12.5t8.5 -31.5q0 -17 -7.5 -31.5t-20.5 -21.5
q-76 -41 -142.5 -78.5t-92.5 -54.5q-2 -2 -2 -4.5t2 -3.5q14 -9 41 -24.5t93 -52.5q50 -27 70 -38t31 -18q13 -8 20.5 -23t7.5 -33q0 -17 -8.5 -28.5t-20.5 -11.5q-7 0 -17 6.5t-34 29.5q-16 14 -37 34.5t-67 65.5z" />
    <glyph glyph-name="logicalnot" unicode="&#xac;" horiz-adv-x="558" 
d="M471 223q-7 -8 -19 -8t-18 8q1 12 3.5 43.5t3.5 49.5q2 28 3 51t1 43h-168q-33 0 -66.5 -2t-110.5 -9q-8 5 -8 17t8 17q66 -6 110 -9t66 -3q31 0 69.5 2.5t104.5 8.5q2 0 5 -3t3 -5q0 -30 1 -62t12 -139z" />
    <glyph glyph-name="uni00AD" unicode="&#xad;" horiz-adv-x="375" 
d="M65 228zM71 272q24 -2 51.5 -3t64.5 -1t65 1t51 3q7 -4 6.5 -22t-6.5 -22q-26 3 -52 4t-64 1q-28 0 -55.5 -1t-60.5 -4q-6 4 -6 21.5t6 22.5z" />
    <glyph glyph-name="registered" unicode="&#xae;" horiz-adv-x="804" 
d="M720 203q-25 -47 -56.5 -71.5t-66.5 -24.5q-40 0 -67 30t-53 104q-26 71 -42.5 91t-49.5 21q-4 1 -11.5 1h-22.5v-60v-52t1 -33q1 -40 6 -53t26 -13h12q4 0 4 -4t-4 -4h-16t-37 1h-23h-8h-13.5t-40.5 -1h-25.5h-7.5q-3 0 -3 4t3 4q10 0 17 1t11 3q5 3 8 13t4 27t2 51.5
t1 80.5v82v51.5t-1 33.5q-1 40 -6 53t-26 13h-9q-4 0 -4 3.5t4 3.5h16t37 -1h22h8h11h35q31 1 42 1h14q83 0 123.5 -24t40.5 -74q0 -41 -38.5 -67.5t-111.5 -34.5q57 -2 85.5 -23.5t51.5 -78.5q30 -80 45.5 -100.5t37.5 -20.5q31 0 57 59.5t26 140.5q0 150 -91.5 245
t-238.5 95q-142 0 -228 -89.5t-86 -237.5q0 -142 95.5 -238.5t236.5 -96.5q54 0 94.5 11t77.5 36q4 2 5 -0.5t-1 -4.5q-45 -33 -101 -52.5t-106 -19.5q-142 0 -240 101t-98 250q0 69 30.5 135.5t86.5 120.5q55 54 123 84t135 30q149 0 244 -97.5t95 -248.5q0 -35 -11 -77.5
t-30 -78.5zM370 551q-13 0 -16 -12t-3 -54v-123q6 1 15 1h31q39 0 63.5 25.5t24.5 70.5q0 46 -22 69.5t-65 23.5h-5.5t-10.5 -1h-8.5h-3.5z" />
    <glyph glyph-name="macron" unicode="&#xaf;" horiz-adv-x="809" 
d="M349 638q15 -1 28 -1h27h1h63.5t38.5 1q29 1 34.5 0.5t5.5 -1.5q0 -5 -10 -16t-46 -45h-4.5h-11.5q-24 1 -39.5 1h-29.5q-26 0 -53 -1t-32 -1q-22 -1 -31 -0.5t-9 2.5q0 4 8.5 13.5t47.5 47.5h4h8z" />
    <glyph glyph-name="degree" unicode="&#xb0;" horiz-adv-x="376" 
d="M188 447q-55 0 -92.5 37.5t-37.5 92.5t37.5 92.5t92.5 37.5t92.5 -37.5t37.5 -92.5t-37.5 -92.5t-92.5 -37.5zM188 690q-48 0 -79.5 -32t-31.5 -81t31.5 -81t79.5 -32t79.5 32t31.5 81t-31.5 81t-79.5 32z" />
    <glyph glyph-name="plusminus" unicode="&#xb1;" horiz-adv-x="558" 
d="M445 473q7 -5 7 -17t-7 -17q-87 8 -111.5 9.5t-49.5 1.5q0 -19 3.5 -57.5t10.5 -96.5q-7 -8 -19 -8t-18 8q1 7 5.5 61t5.5 93q-25 0 -49 -1.5t-112 -9.5q-7 5 -7 17t7 17q60 -6 100.5 -9t60.5 -3q-1 41 -6 93.5t-5 57.5q7 8 18.5 8t18.5 -8q-7 -58 -10.5 -96t-3.5 -55
q20 0 60.5 3t100.5 9zM279 212q31 0 61 2t104 10q8 -5 8 -17.5t-8 -17.5q-68 7 -99 9t-65 3q-35 -1 -68 -3t-100 -9q-8 5 -8 17.5t8 17.5q80 -9 108.5 -10.5t58.5 -1.5z" />
    <glyph glyph-name="two.sup" unicode="&#xb2;" horiz-adv-x="380" 
d="M42 496zM234 496q-56 1 -76 1h-23h-29t-47 -1h-12h-4q-1 8 -1 18.5t2 11.5q8 5 40 27.5t59 45.5q42 38 64 82t22 89q0 37 -12.5 54.5t-39.5 17.5q-38 0 -71.5 -54.5t-36.5 -115.5q0 -4 -4.5 -4t-4.5 4q-1 17 -3.5 39t-7.5 62q-3 24 -4 31.5t-1 10.5q0 7 1 9t4 2
q48 15 79.5 20.5t59.5 5.5q71 0 107.5 -21.5t36.5 -62.5q0 -24 -17.5 -48t-58.5 -55q-14 -10 -51 -35.5t-58 -41.5q-2 -1 -3.5 -2.5t-5.5 -3.5q-4 -4 -6 -5.5t-4 -2.5q55 0 86.5 0.5t47.5 0.5q35 0 50.5 9t18.5 30l4 29q1 7 5.5 7t3.5 -7l-7 -53q-5 -41 -8.5 -65t-5.5 -27
q-1 -1 -8 -1.5t-18 -0.5h-12.5h-50.5z" />
    <glyph glyph-name="three.sup" unicode="&#xb3;" horiz-adv-x="350" 
d="M35 490zM321 602q0 -50 -41 -81t-107 -31q-34 0 -68 10t-65 29q-6 4 -4.5 7t7.5 1q22 -11 42.5 -15.5t41.5 -4.5q48 0 75.5 22.5t27.5 63.5q0 32 -16.5 50.5t-42.5 18.5q-10 0 -19.5 -5t-22.5 -19q-8 -9 -12 -11.5t-8 -2.5q-7 0 -11 5t-4 14q0 4 0.5 7.5t1.5 4.5
q55 12 83 42t28 77q0 29 -11.5 43t-34.5 14q-38 0 -69 -47.5t-31 -96.5q0 -4 -4.5 -4.5t-4.5 3.5q0 20 -1.5 42t-5.5 56q-1 12 -1.5 16t-0.5 6q0 6 1 8t4 3q39 14 69.5 20t60.5 6q60 0 92.5 -18t32.5 -51q0 -21 -13.5 -38t-44.5 -32q-17 -8 -51 -20.5t-38 -14.5q25 6 37 8
t22 2q53 0 79.5 -21.5t26.5 -65.5z" />
    <glyph glyph-name="acute" unicode="&#xb4;" horiz-adv-x="809" 
d="M419 612q-46 -31 -67.5 -46.5t-35.5 -27.5q-4 -3 -5 -3.5t-2 -0.5t-2.5 2t-1.5 4q0 1 1 2l4 4q13 15 30 38.5t48 72.5q16 24 21.5 32t8.5 12q7 8 17 13t19 5q13 0 24 -11.5t11 -23.5q0 -8 -3.5 -17.5t-9.5 -15.5q-6 -5 -17 -12.5t-40 -26.5z" />
    <glyph glyph-name="paragraph" unicode="&#xb6;" horiz-adv-x="644" 
d="M334 -149v502h-81q-91 0 -144 43.5t-53 117.5q0 77 49.5 117.5t143.5 40.5h25.5h85.5q63 -1 84.5 -1h25.5h11t29 1q33 1 48 1h23q6 0 6 -4.5t-6 -4.5h-18q-30 0 -38 -13t-12 -49q-1 -16 -2 -38.5t-2 -55.5v-40.5v-53.5v-563q0 -8 -5.5 -8t-5.5 8v563v53v37
q0 31 -0.5 52.5t-1.5 36.5q-2 40 -8 54t-29 14h-113v-810q0 -8 -6 -8t-6 8z" />
    <glyph glyph-name="periodcentered" unicode="&#xb7;" horiz-adv-x="266" 
d="M133 176q-33 0 -55.5 22.5t-22.5 55.5t22.5 56t55.5 23q34 0 56.5 -22.5t22.5 -56.5q0 -33 -23 -55.5t-56 -22.5z" />
    <glyph glyph-name="cedilla" unicode="&#xb8;" horiz-adv-x="809" 
d="M507 -143q0 -45 -45.5 -87t-101.5 -42q-30 0 -51.5 13t-21.5 30q0 15 18.5 27.5t40.5 12.5q9 0 17.5 -4t21.5 -16q15 -14 25.5 -18.5t22.5 -4.5q16 0 26 10.5t10 27.5q0 35 -36 52t-99 8q-4 0 -6.5 -2t-5.5 -8q-3 -5 -5.5 -6.5t-5.5 -1.5q-7 0 -8.5 5.5t5.5 13.5
q25 31 57.5 73.5t47.5 64.5q4 4 9 2t2 -6q-14 -18 -26.5 -35t-23.5 -34q-2 -3 -1 -3.5t7 0.5q58 9 92.5 -11.5t34.5 -60.5z" />
    <glyph glyph-name="one.sup" unicode="&#xb9;" horiz-adv-x="249" 
d="M27 498zM32 507h20q20 0 26 19.5t6 83.5v147q0 25 -8.5 30.5t-43.5 -4.5q-4 -1 -5 3.5t2 5.5q35 10 71.5 27t61.5 34q2 2 6 0t4 -4v-239q0 -66 6.5 -84.5t26.5 -18.5h20q3 0 3 -4.5t-3 -4.5h-18t-38 1q-20 1 -27.5 1h-10.5h-10.5t-27.5 -1q-29 -1 -42 -1h-19q-4 0 -4 4.5
t4 4.5z" />
    <glyph glyph-name="ordmasculine" unicode="&#xba;" horiz-adv-x="376" 
d="M352 554q0 -65 -49.5 -112t-119.5 -47q-72 0 -116 40.5t-44 106.5t48.5 111t121.5 45q68 0 113.5 -41t45.5 -103zM125 550q0 -73 16.5 -110t48.5 -37t46 32t14 106q0 78 -15 114t-47 36q-34 0 -48.5 -33t-14.5 -108z" />
    <glyph glyph-name="guillemotright" unicode="&#xbb;" horiz-adv-x="599" 
d="M47 18zM222 356q43 -42 63.5 -62.5t37.5 -35.5q3 -3 3 -6.5t-3 -7.5q-24 -22 -55.5 -52.5t-140.5 -137.5q-24 -23 -34 -29.5t-17 -6.5q-13 0 -21 12t-8 30t7 32.5t20 21.5q49 26 127 70t108 63q3 2 3 4t-3 4q-15 10 -44.5 27t-100.5 56q-44 24 -61.5 34t-28.5 16
q-13 8 -20 22.5t-7 31.5q0 19 8 31t21 12q7 0 17 -6.5t34 -29.5q14 -13 33.5 -32t61.5 -61zM449 356q43 -42 63.5 -62.5t37.5 -35.5q3 -3 3 -6.5t-3 -7.5q-24 -22 -55.5 -52.5t-140.5 -137.5q-24 -23 -34 -29.5t-17 -6.5q-13 0 -21 12t-8 30t7 32.5t20 21.5q49 26 127 70
t108 63q3 2 3 4t-3 4q-15 10 -44.5 27t-100.5 56q-44 24 -61.5 34t-28.5 16q-13 8 -20 22.5t-7 31.5q0 19 8 31t21 12q7 0 17 -6.5t34 -29.5q14 -13 33.5 -32t61.5 -61z" />
    <glyph glyph-name="onequarter" unicode="&#xbc;" horiz-adv-x="636" 
d="M53 0zM57 356q40 -3 125 -5.5t135 -2.5q51 0 133 2.5t127 5.5q5 -2 5.5 -13t-4.5 -15q-43 3 -122.5 5.5t-138.5 2.5q-50 0 -133 -2.5t-126 -5.5q-5 2 -5 13.5t4 14.5zM230 429zM235 438h20q20 0 26 19.5t6 83.5v147q0 25 -8.5 30.5t-43.5 -4.5q-4 -1 -5 3.5t2 5.5
q35 10 71.5 27t61.5 34q2 2 6 0t4 -4v-239q0 -66 6.5 -84.5t26.5 -18.5h20q3 0 3 -4.5t-3 -4.5h-18t-38 1q-20 1 -27.5 1h-10.5h-10.5t-27.5 -1q-29 -1 -42 -1h-19q-4 0 -4 4.5t4 4.5zM252 -83q35 0 43.5 11t8.5 54v16h-108h-22t-13 -1q-10 -1 -9.5 15t11.5 29q3 4 56 70.5
t96 126.5q8 12 20 18.5t27 7.5q21 2 30.5 -5t1.5 -18q-6 -9 -8.5 -17t-2.5 -19v-146h26q43 0 52.5 8t14.5 35l3 20q1 5 6 5t4 -5l-3 -17q-2 -10 -4 -24.5t-5 -43.5q-2 -23 -3 -30t-2 -8t-11 -1.5t-22 -0.5h-56v-15q-1 -45 7.5 -55t40.5 -10q4 0 4 -4.5t-4 -4.5h-18t-34 1
h-23.5h-10.5h-10h-24q-26 -1 -38.5 -1h-20.5q-4 0 -4 4.5t4 4.5zM192 60l112 -1v119q-9 -10 -46.5 -48.5t-65.5 -69.5z" />
    <glyph glyph-name="onehalf" unicode="&#xbd;" horiz-adv-x="636" 
d="M53 0zM57 356q40 -3 125 -5.5t135 -2.5q51 0 133 2.5t127 5.5q5 -2 5.5 -13t-4.5 -15q-43 3 -122.5 5.5t-138.5 2.5q-50 0 -133 -2.5t-126 -5.5q-5 2 -5 13.5t4 14.5zM230 429zM235 438h20q20 0 26 19.5t6 83.5v147q0 25 -8.5 30.5t-43.5 -4.5q-4 -1 -5 3.5t2 5.5
q35 10 71.5 27t61.5 34q2 2 6 0t4 -4v-239q0 -66 6.5 -84.5t26.5 -18.5h20q3 0 3 -4.5t-3 -4.5h-18t-38 1q-20 1 -27.5 1h-10.5h-10.5t-27.5 -1q-29 -1 -42 -1h-19q-4 0 -4 4.5t4 4.5zM362 -97q-56 1 -76 1h-23h-29t-47 -1h-12h-4q-1 8 -1 18.5t2 11.5q8 5 40 27.5t59 45.5
q42 38 64 82t22 89q0 37 -12.5 54.5t-39.5 17.5q-38 0 -71.5 -54.5t-36.5 -115.5q0 -4 -4.5 -4t-4.5 4q-1 17 -3.5 39t-7.5 62q-3 24 -4 31.5t-1 10.5q0 7 1 9t4 2q48 15 79.5 20.5t59.5 5.5q71 0 107.5 -21.5t36.5 -62.5q0 -24 -17.5 -48t-58.5 -55q-14 -10 -51 -35.5
t-58 -41.5q-2 -1 -3.5 -2.5t-5.5 -3.5q-4 -4 -6 -5.5t-4 -2.5q55 0 86.5 0.5t47.5 0.5q35 0 50.5 9t18.5 30l4 29q1 7 5.5 7t3.5 -7l-7 -53q-5 -41 -8.5 -65t-5.5 -27q-1 -1 -8 -1.5t-18 -0.5h-12.5h-50.5z" />
    <glyph glyph-name="threequarters" unicode="&#xbe;" horiz-adv-x="636" 
d="M53 0zM57 356q40 -3 125 -5.5t135 -2.5q51 0 133 2.5t127 5.5q5 -2 5.5 -13t-4.5 -15q-43 3 -122.5 5.5t-138.5 2.5q-50 0 -133 -2.5t-126 -5.5q-5 2 -5 13.5t4 14.5zM178 421zM464 533q0 -50 -41 -81t-107 -31q-34 0 -68 10t-65 29q-6 4 -4.5 7t7.5 1q22 -11 42.5 -15.5
t41.5 -4.5q48 0 75.5 22.5t27.5 63.5q0 32 -16.5 50.5t-42.5 18.5q-10 0 -19.5 -5t-22.5 -19q-8 -9 -12 -11.5t-8 -2.5q-7 0 -11 5t-4 14q0 4 0.5 7.5t1.5 4.5q55 12 83 42t28 77q0 29 -11.5 43t-34.5 14q-38 0 -69 -47.5t-31 -96.5q0 -4 -4.5 -4.5t-4.5 3.5q0 20 -1.5 42
t-5.5 56q-1 12 -1.5 16t-0.5 6q0 6 1 8t4 3q39 14 69.5 20t60.5 6q60 0 92.5 -18t32.5 -51q0 -21 -13.5 -38t-44.5 -32q-17 -8 -51 -20.5t-38 -14.5q25 6 37 8t22 2q53 0 79.5 -21.5t26.5 -65.5zM252 -83q35 0 43.5 11t8.5 54v16h-108h-22t-13 -1q-10 -1 -9.5 15t11.5 29
q3 4 56 70.5t96 126.5q8 12 20 18.5t27 7.5q21 2 30.5 -5t1.5 -18q-6 -9 -8.5 -17t-2.5 -19v-146h26q43 0 52.5 8t14.5 35l3 20q1 5 6 5t4 -5l-3 -17q-2 -10 -4 -24.5t-5 -43.5q-2 -23 -3 -30t-2 -8t-11 -1.5t-22 -0.5h-56v-15q-1 -45 7.5 -55t40.5 -10q4 0 4 -4.5t-4 -4.5
h-18t-34 1h-23.5h-10.5h-10h-24q-26 -1 -38.5 -1h-20.5q-4 0 -4 4.5t4 4.5zM192 60l112 -1v119q-9 -10 -46.5 -48.5t-65.5 -69.5z" />
    <glyph glyph-name="questiondown" unicode="&#xbf;" horiz-adv-x="395" 
d="M268 245v-49.5v-21.5q0 -5 -2 -7.5t-7 -4.5q-85 -37 -119 -69.5t-33 -75.5q1 -49 60.5 -75t170.5 -26q3 0 4.5 -1.5t1.5 -4.5q0 -4 -4.5 -21t-18.5 -66q-12 -38 -16.5 -54t-6.5 -26q-1 -3 -3.5 -2.5t-2.5 3.5q7 39 8 46t1 12q-1 3 -3 4t-12 1q-113 0 -179 39t-66 105
q0 48 29 89.5t87 77.5q-1 24 -4.5 66.5t-7.5 80.5q6 7 64.5 30.5t58.5 14.5v-18.5v-46.5zM203 520q32 0 54 -21.5t22 -53.5q0 -33 -22.5 -55.5t-54.5 -22.5q-33 0 -54.5 22t-21.5 55q0 32 22.5 54t54.5 22z" />
    <glyph glyph-name="Agrave" unicode="&#xc0;" horiz-adv-x="718" 
d="M0 0zM434 248l-123 -3q-16 0 -38 0.5t-108 3.5l-4 -10q-15 -41 -24 -82t-8 -72q0 -36 18.5 -56t52.5 -20q5 0 10.5 0.5t15.5 1.5q4 1 5.5 1h2.5q3 0 5 -1.5t2 -3.5q0 -3 -3 -5t-9 -2h-20t-58 1q-41 1 -55.5 1h-18.5h-8.5t-19.5 -1q-22 -1 -32.5 -1h-18.5q-3 0 -4.5 1.5
t-1.5 4.5q0 2 2 3t4 1h3q18 0 35.5 14t32.5 41q20 35 41 82t45 114l161 427q2 4 5 6t7 2h45q6 0 9 -1.5t5 -5.5l174 -430q18 -45 33 -79t26 -60q29 -62 47.5 -86t43.5 -24h5q3 0 5 -1.5t2 -3.5t-1.5 -3.5t-4.5 -1.5q-9 0 -21 0.5l-36 1.5q-15 1 -21 1h-9h-16t-51 -1
q-59 -1 -83 -1.5t-33 -0.5q-6 0 -7.5 4.5t4.5 4.5h21q36 0 38.5 22.5t-19.5 85.5q-8 23 -20 55t-30 76zM429 258v1l-137 335l-124 -337l137 2zM394 728q-1 0 -2 0.5t-5 3.5q-14 12 -35.5 27.5t-67.5 46.5q-29 19 -40 26.5t-17 12.5q-6 6 -9.5 15.5t-3.5 17.5q0 12 11 23.5
t24 11.5q9 0 19 -5t17 -13q3 -4 8.5 -12t21.5 -32q31 -49 48 -72.5t30 -38.5l4 -4t1 -2q0 -2 -1.5 -4t-2.5 -2z" />
    <glyph glyph-name="Aacute" unicode="&#xc1;" horiz-adv-x="718" 
d="M0 0zM434 248l-123 -3q-16 0 -38 0.5t-108 3.5l-4 -10q-15 -41 -24 -82t-8 -72q0 -36 18.5 -56t52.5 -20q5 0 10.5 0.5t15.5 1.5q4 1 5.5 1h2.5q3 0 5 -1.5t2 -3.5q0 -3 -3 -5t-9 -2h-20t-58 1q-41 1 -55.5 1h-18.5h-8.5t-19.5 -1q-22 -1 -32.5 -1h-18.5q-3 0 -4.5 1.5
t-1.5 4.5q0 2 2 3t4 1h3q18 0 35.5 14t32.5 41q20 35 41 82t45 114l161 427q2 4 5 6t7 2h45q6 0 9 -1.5t5 -5.5l174 -430q18 -45 33 -79t26 -60q29 -62 47.5 -86t43.5 -24h5q3 0 5 -1.5t2 -3.5t-1.5 -3.5t-4.5 -1.5q-9 0 -21 0.5l-36 1.5q-15 1 -21 1h-9h-16t-51 -1
q-59 -1 -83 -1.5t-33 -0.5q-6 0 -7.5 4.5t4.5 4.5h21q36 0 38.5 22.5t-19.5 85.5q-8 23 -20 55t-30 76zM429 258v1l-137 335l-124 -337l137 2zM418 806q-46 -31 -67.5 -46.5t-35.5 -27.5q-4 -3 -5 -3.5t-2 -0.5t-2.5 2t-1.5 4q0 1 1 2l4 4q13 15 30 38.5t48 72.5
q16 24 21.5 32t8.5 12q7 8 17 13t19 5q13 0 24 -11.5t11 -23.5q0 -8 -3.5 -17.5t-9.5 -15.5q-6 -5 -17 -12.5t-40 -26.5z" />
    <glyph glyph-name="Acircumflex" unicode="&#xc2;" horiz-adv-x="718" 
d="M0 0zM434 248l-123 -3q-16 0 -38 0.5t-108 3.5l-4 -10q-15 -41 -24 -82t-8 -72q0 -36 18.5 -56t52.5 -20q5 0 10.5 0.5t15.5 1.5q4 1 5.5 1h2.5q3 0 5 -1.5t2 -3.5q0 -3 -3 -5t-9 -2h-20t-58 1q-41 1 -55.5 1h-18.5h-8.5t-19.5 -1q-22 -1 -32.5 -1h-18.5q-3 0 -4.5 1.5
t-1.5 4.5q0 2 2 3t4 1h3q18 0 35.5 14t32.5 41q20 35 41 82t45 114l161 427q2 4 5 6t7 2h45q6 0 9 -1.5t5 -5.5l174 -430q18 -45 33 -79t26 -60q29 -62 47.5 -86t43.5 -24h5q3 0 5 -1.5t2 -3.5t-1.5 -3.5t-4.5 -1.5q-9 0 -21 0.5l-36 1.5q-15 1 -21 1h-9h-16t-51 -1
q-59 -1 -83 -1.5t-33 -0.5q-6 0 -7.5 4.5t4.5 4.5h21q36 0 38.5 22.5t-19.5 85.5q-8 23 -20 55t-30 76zM429 258v1l-137 335l-124 -337l137 2zM352 875q-1 3 -3 3t-4 -3q-5 -9 -30.5 -55.5t-37.5 -62.5q-9 -11 -19 -16.5t-23 -5.5q-14 0 -23 8t-9 17q0 8 4 15t13 15
q11 10 26 22.5t98 74.5q2 1 4.5 1t4.5 -1q13 -9 59 -42t68 -51q9 -8 13.5 -15t4.5 -15q0 -10 -10.5 -19t-26.5 -9q-15 0 -25 5.5t-18 17.5q-4 7 -10 17t-19 33q-14 27 -22 41t-15 25z" />
    <glyph glyph-name="Atilde" unicode="&#xc3;" horiz-adv-x="718" 
d="M0 0zM434 248l-123 -3q-16 0 -38 0.5t-108 3.5l-4 -10q-15 -41 -24 -82t-8 -72q0 -36 18.5 -56t52.5 -20q5 0 10.5 0.5t15.5 1.5q4 1 5.5 1h2.5q3 0 5 -1.5t2 -3.5q0 -3 -3 -5t-9 -2h-20t-58 1q-41 1 -55.5 1h-18.5h-8.5t-19.5 -1q-22 -1 -32.5 -1h-18.5q-3 0 -4.5 1.5
t-1.5 4.5q0 2 2 3t4 1h3q18 0 35.5 14t32.5 41q20 35 41 82t45 114l161 427q2 4 5 6t7 2h45q6 0 9 -1.5t5 -5.5l174 -430q18 -45 33 -79t26 -60q29 -62 47.5 -86t43.5 -24h5q3 0 5 -1.5t2 -3.5t-1.5 -3.5t-4.5 -1.5q-9 0 -21 0.5l-36 1.5q-15 1 -21 1h-9h-16t-51 -1
q-59 -1 -83 -1.5t-33 -0.5q-6 0 -7.5 4.5t4.5 4.5h21q36 0 38.5 22.5t-19.5 85.5q-8 23 -20 55t-30 76zM429 258v1l-137 335l-124 -337l137 2zM209 743q-2 -3 -5.5 -2t-2.5 5q20 53 45 81t54 28q10 0 25.5 -3.5t49.5 -15.5t49.5 -16t26.5 -4q19 0 30.5 11.5t23.5 43.5
q2 4 6 3t2 -5q-19 -60 -44.5 -90.5t-56.5 -30.5q-14 0 -32 4.5t-53 17.5q-30 12 -43.5 15.5t-23.5 3.5q-19 0 -30.5 -11t-20.5 -35z" />
    <glyph glyph-name="Adieresis" unicode="&#xc4;" horiz-adv-x="718" 
d="M0 0zM434 248l-123 -3q-16 0 -38 0.5t-108 3.5l-4 -10q-15 -41 -24 -82t-8 -72q0 -36 18.5 -56t52.5 -20q5 0 10.5 0.5t15.5 1.5q4 1 5.5 1h2.5q3 0 5 -1.5t2 -3.5q0 -3 -3 -5t-9 -2h-20t-58 1q-41 1 -55.5 1h-18.5h-8.5t-19.5 -1q-22 -1 -32.5 -1h-18.5q-3 0 -4.5 1.5
t-1.5 4.5q0 2 2 3t4 1h3q18 0 35.5 14t32.5 41q20 35 41 82t45 114l161 427q2 4 5 6t7 2h45q6 0 9 -1.5t5 -5.5l174 -430q18 -45 33 -79t26 -60q29 -62 47.5 -86t43.5 -24h5q3 0 5 -1.5t2 -3.5t-1.5 -3.5t-4.5 -1.5q-9 0 -21 0.5l-36 1.5q-15 1 -21 1h-9h-16t-51 -1
q-59 -1 -83 -1.5t-33 -0.5q-6 0 -7.5 4.5t4.5 4.5h21q36 0 38.5 22.5t-19.5 85.5q-8 23 -20 55t-30 76zM429 258v1l-137 335l-124 -337l137 2zM459 754q-30 0 -51 20.5t-21 49.5q0 30 21 50.5t51 20.5q29 0 50 -21t21 -50t-21 -49.5t-50 -20.5zM244 754q-29 0 -49.5 20.5
t-20.5 49.5q0 30 20.5 50.5t49.5 20.5q30 0 51.5 -20.5t21.5 -50.5q0 -29 -21.5 -49.5t-51.5 -20.5z" />
    <glyph glyph-name="Aring" unicode="&#xc5;" horiz-adv-x="718" 
d="M0 0zM434 248l-123 -3q-16 0 -38 0.5t-108 3.5l-4 -10q-15 -41 -24 -82t-8 -72q0 -36 18.5 -56t52.5 -20q5 0 10.5 0.5t15.5 1.5q4 1 5.5 1h2.5q3 0 5 -1.5t2 -3.5q0 -3 -3 -5t-9 -2h-20t-58 1q-41 1 -55.5 1h-18.5h-8.5t-19.5 -1q-22 -1 -32.5 -1h-18.5q-3 0 -4.5 1.5
t-1.5 4.5q0 2 2 3t4 1h3q18 0 35.5 14t32.5 41q20 35 41 82t45 114l161 427q2 4 5 6t7 2h45q6 0 9 -1.5t5 -5.5l174 -430q18 -45 33 -79t26 -60q29 -62 47.5 -86t43.5 -24h5q3 0 5 -1.5t2 -3.5t-1.5 -3.5t-4.5 -1.5q-9 0 -21 0.5l-36 1.5q-15 1 -21 1h-9h-16t-51 -1
q-59 -1 -83 -1.5t-33 -0.5q-6 0 -7.5 4.5t4.5 4.5h21q36 0 38.5 22.5t-19.5 85.5q-8 23 -20 55t-30 76zM429 258v1l-137 335l-124 -337l137 2zM350 728q-39 0 -66 26.5t-27 65.5t27.5 66.5t65.5 27.5q39 0 66.5 -27.5t27.5 -66.5q0 -38 -27.5 -65t-66.5 -27zM350 899
q-32 0 -54 -23t-22 -56q0 -32 22 -54.5t54 -22.5q33 0 55 22t22 55t-22 56t-55 23z" />
    <glyph glyph-name="AE" unicode="&#xc6;" horiz-adv-x="1006" 
d="M445 248l-123 -3q-28 -1 -69.5 0.5t-72.5 3.5l-5 -10q-20 -39 -34 -80.5t-18 -73.5q-4 -37 11 -56.5t49 -19.5q4 0 9.5 0.5l16.5 1.5q4 1 5.5 1h2.5q3 0 4.5 -1.5t1.5 -3.5q0 -3 -3 -5t-8 -2h-20.5t-57.5 1q-41 1 -56 1h-19h-8.5t-19.5 -1q-22 -1 -32.5 -1h-17.5
q-3 0 -4.5 1.5t-1.5 3.5t2 3.5t4 1.5h3q18 0 37 14t38 41q24 34 51 80t63 116l171 340q-16 53 -30 68t-44 15h-7q-6 0 -6 4.5t6 4.5q9 0 28 -0.5t65 -1.5q30 -1 40 -1h13h23.5t56.5 1q79 0 122 0.5t77 0.5h58.5t83.5 1h28.5h11.5q17 0 30 -1t17 -3l7 -55.5t20 -165.5l3 -20
q1 -5 -4 -5t-7 5l-3 20q-11 90 -77 151.5t-152 61.5h-238q-5 0 -7 -2.5t-1 -7.5l84 -297h77q81 0 119.5 30.5t38.5 96.5v14q0 5 5.5 5t5.5 -5q0 -15 -0.5 -34.5t-1.5 -57.5q-1 -27 -1.5 -38.5t-0.5 -19.5t0.5 -21t1.5 -44q1 -40 1.5 -58.5t0.5 -31.5q0 -6 -5.5 -6t-5.5 6v11
q0 73 -39 107.5t-119 34.5h-74l29 -104q17 -59 26.5 -92t16.5 -56q21 -60 38 -80.5t57 -20.5h31q68 0 131 72.5t74 163.5l4 35q1 5 6.5 4t4.5 -6l-4 -36q-8 -72 -15 -153t-13 -85q-3 -3 -27.5 -4t-103.5 -1h-51q-15 0 -34 0.5t-58 1.5q-37 0 -55 0.5t-32 0.5q-8 0 -46 -0.5
t-106 -2.5q-6 0 -6.5 4.5t5.5 4.5h21q44 0 44.5 52t-37.5 187zM442 258v1l-93 326l-165 -328l134 2z" />
    <glyph glyph-name="Ccedilla" unicode="&#xc7;" horiz-adv-x="739" 
d="M521 -143q0 -45 -45.5 -87t-101.5 -42q-30 0 -51.5 13t-21.5 30q0 15 18.5 27.5t39.5 12.5q10 0 18 -4t21 -16q15 -14 25.5 -18.5t22.5 -4.5q17 0 27 10.5t10 27.5q0 35 -36 52t-100 8q-4 0 -6.5 -2t-5.5 -8q-3 -5 -5 -6.5t-5 -1.5q-7 0 -8.5 5.5t5.5 13.5q37 47 59 76
t35 47q-178 3 -280 98t-102 255q0 159 109.5 259.5t281.5 100.5q57 0 119.5 -8t106.5 -21q3 0 5 -3t3 -8q1 -11 2 -28t2 -59q2 -63 4 -94t4 -54q0 -4 -3.5 -4t-4.5 4q-7 55 -24.5 102.5t-44.5 81.5q-32 41 -74.5 61.5t-93.5 20.5q-116 0 -181 -92.5t-65 -255.5
q0 -162 65 -254.5t181 -92.5q52 0 94.5 21.5t74.5 64.5q27 36 45 85.5t25 109.5q1 3 4 3t3 -3q-1 -22 -2.5 -49t-3.5 -82q-2 -58 -3.5 -82t-2.5 -39q0 -2 -1 -3t-2 -1q-52 -18 -106.5 -26t-121.5 -8q-7 -8 -13.5 -17t-28.5 -41q-1 -3 0 -3.5t7 0.5q58 9 92.5 -11.5
t34.5 -60.5z" />
    <glyph glyph-name="Egrave" unicode="&#xc8;" horiz-adv-x="637" 
d="M12 0zM198 3l-180 -3q-6 0 -6 4t6 4q38 0 48.5 14.5t14.5 55.5q1 17 2 43t2 69q1 7 1 72.5v189.5q0 49 -0.5 80t-1.5 52q-2 60 -10.5 80t-41.5 20h-12q-6 0 -6 4.5t6 4.5q8 0 21.5 -0.5t42.5 -1.5q20 -1 27 -1h10h25.5t97.5 1q141 1 195.5 1.5t65.5 0.5q18 0 30.5 -1
t16.5 -3l7 -55.5t20 -165.5l3 -20q0 -5 -4.5 -5t-6.5 5l-3 20q-12 90 -77.5 151.5t-151.5 62.5h-88q-26 0 -32 -12t-7 -51q-1 -12 -1 -28.5v-60.5v-163h47q81 0 119.5 30.5t38.5 96.5v14q0 6 5.5 6t5.5 -6q-2 -49 -3 -89t-1 -61q0 -24 1 -72t3 -83q0 -5 -5.5 -5t-5.5 5v12
q0 72 -39 106.5t-119 34.5h-47v-187q0 -71 -1.5 -107.5t-5.5 -49.5h22h49q37 -1 52.5 -1h23.5q80 0 148 71t79 164l4 35q1 5 6.5 4t4.5 -6l-4 -36q-14 -172 -18 -203t-10 -35q-4 -3 -30 -4t-109 -1q-35 0 -91 1t-133 2zM361 749q-1 0 -2 0.5t-5 3.5q-14 12 -35.5 27.5
t-67.5 46.5q-29 19 -40 26.5t-17 12.5q-6 6 -9.5 15.5t-3.5 17.5q0 12 11 23.5t24 11.5q9 0 19 -5t17 -13q3 -4 8.5 -12t21.5 -32q31 -49 48 -72.5t30 -38.5l4 -4t1 -2q0 -2 -1.5 -4t-2.5 -2z" />
    <glyph glyph-name="Eacute" unicode="&#xc9;" horiz-adv-x="637" 
d="M12 0zM198 3l-180 -3q-6 0 -6 4t6 4q38 0 48.5 14.5t14.5 55.5q1 17 2 43t2 69q1 7 1 72.5v189.5q0 49 -0.5 80t-1.5 52q-2 60 -10.5 80t-41.5 20h-12q-6 0 -6 4.5t6 4.5q8 0 21.5 -0.5t42.5 -1.5q20 -1 27 -1h10h25.5t97.5 1q141 1 195.5 1.5t65.5 0.5q18 0 30.5 -1
t16.5 -3l7 -55.5t20 -165.5l3 -20q0 -5 -4.5 -5t-6.5 5l-3 20q-12 90 -77.5 151.5t-151.5 62.5h-88q-26 0 -32 -12t-7 -51q-1 -12 -1 -28.5v-60.5v-163h47q81 0 119.5 30.5t38.5 96.5v14q0 6 5.5 6t5.5 -6q-2 -49 -3 -89t-1 -61q0 -24 1 -72t3 -83q0 -5 -5.5 -5t-5.5 5v12
q0 72 -39 106.5t-119 34.5h-47v-187q0 -71 -1.5 -107.5t-5.5 -49.5h22h49q37 -1 52.5 -1h23.5q80 0 148 71t79 164l4 35q1 5 6.5 4t4.5 -6l-4 -36q-14 -172 -18 -203t-10 -35q-4 -3 -30 -4t-109 -1q-35 0 -91 1t-133 2zM385 827q-46 -31 -67.5 -46.5t-35.5 -27.5
q-4 -3 -5 -3.5t-2 -0.5t-2.5 2t-1.5 4q0 1 1 2l4 4q13 15 30 38.5t48 72.5q16 24 21.5 32t8.5 12q7 8 17 13t19 5q13 0 24 -11.5t11 -23.5q0 -8 -3.5 -17.5t-9.5 -15.5q-6 -5 -17 -12.5t-40 -26.5z" />
    <glyph glyph-name="Ecircumflex" unicode="&#xca;" horiz-adv-x="637" 
d="M12 0zM198 3l-180 -3q-6 0 -6 4t6 4q38 0 48.5 14.5t14.5 55.5q1 17 2 43t2 69q1 7 1 72.5v189.5q0 49 -0.5 80t-1.5 52q-2 60 -10.5 80t-41.5 20h-12q-6 0 -6 4.5t6 4.5q8 0 21.5 -0.5t42.5 -1.5q20 -1 27 -1h10h25.5t97.5 1q141 1 195.5 1.5t65.5 0.5q18 0 30.5 -1
t16.5 -3l7 -55.5t20 -165.5l3 -20q0 -5 -4.5 -5t-6.5 5l-3 20q-12 90 -77.5 151.5t-151.5 62.5h-88q-26 0 -32 -12t-7 -51q-1 -12 -1 -28.5v-60.5v-163h47q81 0 119.5 30.5t38.5 96.5v14q0 6 5.5 6t5.5 -6q-2 -49 -3 -89t-1 -61q0 -24 1 -72t3 -83q0 -5 -5.5 -5t-5.5 5v12
q0 72 -39 106.5t-119 34.5h-47v-187q0 -71 -1.5 -107.5t-5.5 -49.5h22h49q37 -1 52.5 -1h23.5q80 0 148 71t79 164l4 35q1 5 6.5 4t4.5 -6l-4 -36q-14 -172 -18 -203t-10 -35q-4 -3 -30 -4t-109 -1q-35 0 -91 1t-133 2zM319 896q-1 3 -3 3t-4 -3q-5 -9 -30.5 -55.5
t-37.5 -62.5q-9 -11 -19 -16.5t-23 -5.5q-14 0 -23 8t-9 17q0 8 4 15t13 15q11 10 26 22.5t98 74.5q2 1 4.5 1t4.5 -1q13 -9 59 -42t68 -51q9 -8 13.5 -15t4.5 -15q0 -10 -10.5 -19t-26.5 -9q-15 0 -25 5.5t-18 17.5q-4 7 -10 17t-19 33q-14 27 -22 41t-15 25z" />
    <glyph glyph-name="Edieresis" unicode="&#xcb;" horiz-adv-x="637" 
d="M12 0zM198 3l-180 -3q-6 0 -6 4t6 4q38 0 48.5 14.5t14.5 55.5q1 17 2 43t2 69q1 7 1 72.5v189.5q0 49 -0.5 80t-1.5 52q-2 60 -10.5 80t-41.5 20h-12q-6 0 -6 4.5t6 4.5q8 0 21.5 -0.5t42.5 -1.5q20 -1 27 -1h10h25.5t97.5 1q141 1 195.5 1.5t65.5 0.5q18 0 30.5 -1
t16.5 -3l7 -55.5t20 -165.5l3 -20q0 -5 -4.5 -5t-6.5 5l-3 20q-12 90 -77.5 151.5t-151.5 62.5h-88q-26 0 -32 -12t-7 -51q-1 -12 -1 -28.5v-60.5v-163h47q81 0 119.5 30.5t38.5 96.5v14q0 6 5.5 6t5.5 -6q-2 -49 -3 -89t-1 -61q0 -24 1 -72t3 -83q0 -5 -5.5 -5t-5.5 5v12
q0 72 -39 106.5t-119 34.5h-47v-187q0 -71 -1.5 -107.5t-5.5 -49.5h22h49q37 -1 52.5 -1h23.5q80 0 148 71t79 164l4 35q1 5 6.5 4t4.5 -6l-4 -36q-14 -172 -18 -203t-10 -35q-4 -3 -30 -4t-109 -1q-35 0 -91 1t-133 2zM426 775q-30 0 -51 20.5t-21 49.5q0 30 21 50.5
t51 20.5q29 0 50 -21t21 -50t-21 -49.5t-50 -20.5zM211 775q-29 0 -49.5 20.5t-20.5 49.5q0 30 20.5 50.5t49.5 20.5q30 0 51.5 -20.5t21.5 -50.5q0 -29 -21.5 -49.5t-51.5 -20.5z" />
    <glyph glyph-name="Igrave" unicode="&#xcc;" horiz-adv-x="317" 
d="M13 0zM96 259v175v53.5v40.5q-1 33 -2 55.5t-2 38.5q-4 36 -12 49t-38 13h-23q-6 0 -6 4.5t6 4.5q9 0 24.5 -0.5t50.5 -1.5q22 -1 30 -1h11h14.5t45.5 1q52 1 73.5 1.5t29.5 0.5q6 0 6 -4.5t-6 -4.5h-23q-30 0 -38 -13t-12 -49q-1 -16 -2 -38.5t-2 -55.5v-40.5v-53.5
v-175v-53.5v-40.5q1 -33 2 -55.5t2 -38.5q4 -36 12 -49t38 -13h23q6 0 6 -4.5t-6 -4.5q-8 0 -29.5 0.5t-73.5 1.5q-34 1 -45.5 1h-14.5h-11t-30 -1q-35 -1 -50.5 -1.5t-24.5 -0.5q-6 0 -6 4.5t6 4.5h23q30 0 38 13t12 49q1 16 2 38.5t2 55.5v40.5v53.5zM201 749q-1 0 -2 0.5
t-5 3.5q-14 12 -35.5 27.5t-67.5 46.5q-29 19 -40 26.5t-17 12.5q-6 6 -9.5 15.5t-3.5 17.5q0 12 11 23.5t24 11.5q9 0 19 -5t17 -13q3 -4 8.5 -12t21.5 -32q31 -49 48 -72.5t30 -38.5l4 -4t1 -2q0 -2 -1.5 -4t-2.5 -2z" />
    <glyph glyph-name="Iacute" unicode="&#xcd;" horiz-adv-x="317" 
d="M13 0zM96 259v175v53.5v40.5q-1 33 -2 55.5t-2 38.5q-4 36 -12 49t-38 13h-23q-6 0 -6 4.5t6 4.5q9 0 24.5 -0.5t50.5 -1.5q22 -1 30 -1h11h14.5t45.5 1q52 1 73.5 1.5t29.5 0.5q6 0 6 -4.5t-6 -4.5h-23q-30 0 -38 -13t-12 -49q-1 -16 -2 -38.5t-2 -55.5v-40.5v-53.5
v-175v-53.5v-40.5q1 -33 2 -55.5t2 -38.5q4 -36 12 -49t38 -13h23q6 0 6 -4.5t-6 -4.5q-8 0 -29.5 0.5t-73.5 1.5q-34 1 -45.5 1h-14.5h-11t-30 -1q-35 -1 -50.5 -1.5t-24.5 -0.5q-6 0 -6 4.5t6 4.5h23q30 0 38 13t12 49q1 16 2 38.5t2 55.5v40.5v53.5zM225 827
q-46 -31 -67.5 -46.5t-35.5 -27.5q-4 -3 -5 -3.5t-2 -0.5t-2.5 2t-1.5 4q0 1 1 2l4 4q13 15 30 38.5t48 72.5q16 24 21.5 32t8.5 12q7 8 17 13t19 5q13 0 24 -11.5t11 -23.5q0 -8 -3.5 -17.5t-9.5 -15.5q-6 -5 -17 -12.5t-40 -26.5z" />
    <glyph glyph-name="Icircumflex" unicode="&#xce;" horiz-adv-x="317" 
d="M11 0zM96 259v175v53.5v40.5q-1 33 -2 55.5t-2 38.5q-4 36 -12 49t-38 13h-23q-6 0 -6 4.5t6 4.5q9 0 24.5 -0.5t50.5 -1.5q22 -1 30 -1h11h14.5t45.5 1q52 1 73.5 1.5t29.5 0.5q6 0 6 -4.5t-6 -4.5h-23q-30 0 -38 -13t-12 -49q-1 -16 -2 -38.5t-2 -55.5v-40.5v-53.5
v-175v-53.5v-40.5q1 -33 2 -55.5t2 -38.5q4 -36 12 -49t38 -13h23q6 0 6 -4.5t-6 -4.5q-8 0 -29.5 0.5t-73.5 1.5q-34 1 -45.5 1h-14.5h-11t-30 -1q-35 -1 -50.5 -1.5t-24.5 -0.5q-6 0 -6 4.5t6 4.5h23q30 0 38 13t12 49q1 16 2 38.5t2 55.5v40.5v53.5zM160 896q-1 3 -3 3
t-4 -3q-5 -9 -30.5 -55.5t-37.5 -62.5q-9 -11 -19 -16.5t-23 -5.5q-14 0 -23 8t-9 17q0 8 4 15t13 15q11 10 26 22.5t98 74.5q2 1 4.5 1t4.5 -1q13 -9 59 -42t68 -51q9 -8 13.5 -15t4.5 -15q0 -10 -10.5 -19t-26.5 -9q-15 0 -25 5.5t-18 17.5q-4 7 -10 17t-19 33
q-14 27 -22 41t-15 25z" />
    <glyph glyph-name="Idieresis" unicode="&#xcf;" horiz-adv-x="317" 
d="M0 0zM96 259v175v53.5v40.5q-1 33 -2 55.5t-2 38.5q-4 36 -12 49t-38 13h-23q-6 0 -6 4.5t6 4.5q9 0 24.5 -0.5t50.5 -1.5q22 -1 30 -1h11h14.5t45.5 1q52 1 73.5 1.5t29.5 0.5q6 0 6 -4.5t-6 -4.5h-23q-30 0 -38 -13t-12 -49q-1 -16 -2 -38.5t-2 -55.5v-40.5v-53.5v-175
v-53.5v-40.5q1 -33 2 -55.5t2 -38.5q4 -36 12 -49t38 -13h23q6 0 6 -4.5t-6 -4.5q-8 0 -29.5 0.5t-73.5 1.5q-34 1 -45.5 1h-14.5h-11t-30 -1q-35 -1 -50.5 -1.5t-24.5 -0.5q-6 0 -6 4.5t6 4.5h23q30 0 38 13t12 49q1 16 2 38.5t2 55.5v40.5v53.5zM267 775q-30 0 -51 20.5
t-21 49.5q0 30 21 50.5t51 20.5q29 0 50 -21t21 -50t-21 -49.5t-50 -20.5zM52 775q-29 0 -49.5 20.5t-20.5 49.5q0 30 20.5 50.5t49.5 20.5q30 0 51.5 -20.5t21.5 -50.5q0 -29 -21.5 -49.5t-51.5 -20.5z" />
    <glyph glyph-name="Eth" unicode="&#xd0;" horiz-adv-x="731" 
d="M93 1q-43 -1 -57 -1h-18q-6 0 -6 4t6 4q38 0 48.5 14.5t14.5 55.5q2 18 3 44t1 68q1 13 0.5 77t-0.5 76q-19 -1 -39 -2t-40 -3q-4 3 -4 13.5t4 14.5q7 -1 15.5 -1.5t28.5 -1.5q14 -1 21.5 -1.5t13.5 -0.5v19v17v46q-1 37 -1 51v20q0 45 -0.5 68t-1.5 38q-3 38 -13.5 51
t-47.5 13q-6 0 -6 4.5t6 4.5h13.5t48.5 -1q56 -1 76.5 -1h25.5h12t34 1q40 1 57 1h26q171 0 277 -94.5t106 -248.5q0 -157 -104 -253.5t-275 -96.5q-10 0 -27.5 0.5t-54.5 1.5q-21 1 -28.5 1h-10.5q-6 0 -27 -0.5t-77 -1.5zM320 10q115 0 173.5 86t58.5 254q0 162 -61.5 248
t-178.5 86h-41q-34 0 -43 -12t-13 -46q-1 -16 -2 -39t-2 -57v-39.5v-56.5v-75q34 1 75.5 3t74.5 4q4 -4 4 -14.5t-4 -13.5q-28 3 -66 4.5t-84 2.5v-186q0 -51 -2 -90.5t-6 -54.5q5 0 13.5 -0.5t27.5 -1.5q30 -1 46 -1.5t30 -0.5z" />
    <glyph glyph-name="Ntilde" unicode="&#xd1;" horiz-adv-x="693" 
d="M0 0zM576 -3q-17 0 -29.5 10t-34.5 40l-414 565v-316q0 -148 29 -217.5t94 -69.5h14q5 0 5 -4.5t-5 -4.5q-6 0 -22.5 0.5t-58.5 1.5q-32 1 -43 1h-15h-9t-21 -1q-22 -1 -33.5 -1.5t-19.5 -0.5q-5 0 -5 4.5t5 4.5h5q35 0 50.5 68.5t16.5 218.5v309q0 11 -6 22.5t-18 23.5
q-18 17 -35.5 25t-37.5 8h-9q-5 0 -5 4.5t5 4.5q41 0 88.5 1t108.5 4q9 1 11.5 1h3.5q4 0 6 -1.5t4 -4.5q7 -12 17.5 -28t25.5 -36l356 -477v270q0 137 -29.5 199.5t-103.5 62.5h-14q-6 0 -6 4.5t6 4.5q9 0 29 -0.5t69 -1.5q31 -1 41.5 -1h13.5h7.5t16.5 1q19 1 29.5 1.5
t19.5 0.5q5 0 5 -4.5t-5 -4.5h-3q-32 0 -43.5 -25.5t-15.5 -89.5q-2 -27 -3 -63.5t-1 -83.5v-416q-3 -4 -13.5 -6.5t-23.5 -2.5zM220 764q-2 -3 -5.5 -2t-2.5 5q20 53 45 81t54 28q10 0 25.5 -3.5t49.5 -15.5t49.5 -16t26.5 -4q19 0 30.5 11.5t23.5 43.5q2 4 6 3t2 -5
q-19 -60 -44.5 -90.5t-56.5 -30.5q-14 0 -32 4.5t-53 17.5q-30 12 -43.5 15.5t-23.5 3.5q-19 0 -30.5 -11t-20.5 -35z" />
    <glyph glyph-name="Ograve" unicode="&#xd2;" horiz-adv-x="785" 
d="M34 0zM643 92q-51 -49 -118 -75.5t-139 -26.5q-149 0 -250.5 102.5t-101.5 253.5q0 74 27.5 139t78.5 115t117.5 76.5t138.5 26.5q150 0 252.5 -102t102.5 -255q0 -73 -28 -138.5t-80 -115.5zM180 346q0 -167 53 -257t152 -90q104 0 162 92t58 255q0 168 -53 258t-154 90
q-103 0 -160.5 -93t-57.5 -255zM440 749q-1 0 -2 0.5t-5 3.5q-14 12 -35.5 27.5t-67.5 46.5q-29 19 -40 26.5t-17 12.5q-6 6 -9.5 15.5t-3.5 17.5q0 12 11 23.5t24 11.5q9 0 19 -5t17 -13q3 -4 8.5 -12t21.5 -32q31 -49 48 -72.5t30 -38.5l4 -4t1 -2q0 -2 -1.5 -4t-2.5 -2z
" />
    <glyph glyph-name="Oacute" unicode="&#xd3;" horiz-adv-x="785" 
d="M34 0zM643 92q-51 -49 -118 -75.5t-139 -26.5q-149 0 -250.5 102.5t-101.5 253.5q0 74 27.5 139t78.5 115t117.5 76.5t138.5 26.5q150 0 252.5 -102t102.5 -255q0 -73 -28 -138.5t-80 -115.5zM180 346q0 -167 53 -257t152 -90q104 0 162 92t58 255q0 168 -53 258t-154 90
q-103 0 -160.5 -93t-57.5 -255zM464 827q-46 -31 -67.5 -46.5t-35.5 -27.5q-4 -3 -5 -3.5t-2 -0.5t-2.5 2t-1.5 4q0 1 1 2l4 4q13 15 30 38.5t48 72.5q16 24 21.5 32t8.5 12q7 8 17 13t19 5q13 0 24 -11.5t11 -23.5q0 -8 -3.5 -17.5t-9.5 -15.5q-6 -5 -17 -12.5t-40 -26.5z
" />
    <glyph glyph-name="Ocircumflex" unicode="&#xd4;" horiz-adv-x="785" 
d="M34 0zM643 92q-51 -49 -118 -75.5t-139 -26.5q-149 0 -250.5 102.5t-101.5 253.5q0 74 27.5 139t78.5 115t117.5 76.5t138.5 26.5q150 0 252.5 -102t102.5 -255q0 -73 -28 -138.5t-80 -115.5zM180 346q0 -167 53 -257t152 -90q104 0 162 92t58 255q0 168 -53 258t-154 90
q-103 0 -160.5 -93t-57.5 -255zM398 896q-1 3 -3 3t-4 -3q-5 -9 -30.5 -55.5t-37.5 -62.5q-9 -11 -19 -16.5t-23 -5.5q-14 0 -23 8t-9 17q0 8 4 15t13 15q11 10 26 22.5t98 74.5q2 1 4.5 1t4.5 -1q13 -9 59 -42t68 -51q9 -8 13.5 -15t4.5 -15q0 -10 -10.5 -19t-26.5 -9
q-15 0 -25 5.5t-18 17.5q-4 7 -10 17t-19 33q-14 27 -22 41t-15 25z" />
    <glyph glyph-name="Otilde" unicode="&#xd5;" horiz-adv-x="785" 
d="M34 0zM643 92q-51 -49 -118 -75.5t-139 -26.5q-149 0 -250.5 102.5t-101.5 253.5q0 74 27.5 139t78.5 115t117.5 76.5t138.5 26.5q150 0 252.5 -102t102.5 -255q0 -73 -28 -138.5t-80 -115.5zM180 346q0 -167 53 -257t152 -90q104 0 162 92t58 255q0 168 -53 258t-154 90
q-103 0 -160.5 -93t-57.5 -255zM256 764q-2 -3 -5.5 -2t-2.5 5q20 53 45 81t54 28q10 0 25.5 -3.5t49.5 -15.5t49.5 -16t26.5 -4q19 0 30.5 11.5t23.5 43.5q2 4 6 3t2 -5q-19 -60 -44.5 -90.5t-56.5 -30.5q-14 0 -32 4.5t-53 17.5q-30 12 -43.5 15.5t-23.5 3.5
q-19 0 -30.5 -11t-20.5 -35z" />
    <glyph glyph-name="Odieresis" unicode="&#xd6;" horiz-adv-x="785" 
d="M34 0zM643 92q-51 -49 -118 -75.5t-139 -26.5q-149 0 -250.5 102.5t-101.5 253.5q0 74 27.5 139t78.5 115t117.5 76.5t138.5 26.5q150 0 252.5 -102t102.5 -255q0 -73 -28 -138.5t-80 -115.5zM180 346q0 -167 53 -257t152 -90q104 0 162 92t58 255q0 168 -53 258t-154 90
q-103 0 -160.5 -93t-57.5 -255zM506 775q-30 0 -51 20.5t-21 49.5q0 30 21 50.5t51 20.5q29 0 50 -21t21 -50t-21 -49.5t-50 -20.5zM291 775q-29 0 -49.5 20.5t-20.5 49.5q0 30 20.5 50.5t49.5 20.5q30 0 51.5 -20.5t21.5 -50.5q0 -29 -21.5 -49.5t-51.5 -20.5z" />
    <glyph glyph-name="multiply" unicode="&#xd7;" horiz-adv-x="558" 
d="M272 342q-16 15 -53 47t-95 80q-1 5 5 12t18 16q34 -40 68 -78t65 -69q26 26 60 64t73 85q8 0 15 -5.5t11 -14.5q-25 -19 -56 -47.5t-95 -90.5q24 -24 63 -57t86 -71q0 -6 -7.5 -14.5t-16.5 -11.5q-15 21 -39 48.5t-94 97.5q-37 -38 -73 -78.5t-62 -73.5q-7 1 -15 7.5
t-13 16.5q38 29 78.5 64.5t76.5 72.5z" />
    <glyph glyph-name="Oslash" unicode="&#xd8;" horiz-adv-x="785" 
d="M643 92q-51 -49 -118 -75.5t-139 -26.5q-54 0 -104 15t-93 43q-4 -5 -8.5 -11.5t-14.5 -19.5q-15 -21 -22.5 -31l-13.5 -18q-10 -3 -18.5 0t-16.5 13q16 19 42.5 52.5l26.5 33.5q-62 49 -96 122t-34 157q0 74 27.5 139t78.5 115t117.5 76.5t138.5 26.5q56 0 108.5 -16
t97.5 -47q22 31 33.5 46t20.5 28q15 2 22.5 -1.5t12.5 -13.5q-26 -32 -39 -48.5t-24 -30.5q59 -50 91 -121t32 -153q0 -73 -28 -138.5t-80 -115.5zM398 694q-103 0 -160.5 -93t-57.5 -255q0 -65 8.5 -120.5t25.5 -97.5q53 65 100.5 125.5t77.5 99.5q27 36 62 83.5t108 148.5
q-26 54 -67.5 81.5t-96.5 27.5zM227 99q27 -50 66.5 -75t91.5 -25q104 0 162 92t58 255q0 61 -7.5 114t-22.5 95q-59 -75 -98 -125t-69 -90q-29 -37 -98 -129.5t-83 -111.5z" />
    <glyph glyph-name="Ugrave" unicode="&#xd9;" horiz-adv-x="659" 
d="M9 0zM320 -10q-118 0 -179.5 66.5t-61.5 194.5v183v53.5v40.5q-1 32 -2 54.5t-2 38.5q-3 36 -11.5 49.5t-37.5 13.5h-12q-5 0 -5 4.5t5 4.5q8 0 25.5 -0.5t56.5 -1.5q26 -1 35.5 -1h12.5h12.5t36.5 1q44 1 62.5 1.5t27.5 0.5q6 0 6 -4.5t-6 -4.5h-19q-31 0 -40.5 -13
t-13.5 -47q-2 -16 -3 -39t-2 -56q0 -19 -0.5 -42t-0.5 -53v-155q0 -112 49.5 -169t145.5 -57q78 0 124 55.5t46 148.5v177q0 49 -3 87.5t-9 67.5q-11 50 -32.5 72.5t-67.5 22.5h-16q-6 0 -6 4.5t6 4.5q9 0 26.5 -0.5t57.5 -1.5q26 -1 35 -1h12h8.5t18.5 1q20 1 31 1.5
t19 0.5q5 0 5 -4.5t-5 -4.5h-4q-32 0 -43.5 -23.5t-15.5 -85.5q-1 -25 -2 -59.5t-1 -81.5v-180q0 -113 -73.5 -188.5t-189.5 -75.5zM405 749q-1 0 -2 0.5t-5 3.5q-14 12 -35.5 27.5t-67.5 46.5q-29 19 -40 26.5t-17 12.5q-6 6 -9.5 15.5t-3.5 17.5q0 12 11 23.5t24 11.5
q9 0 19 -5t17 -13q3 -4 8.5 -12t21.5 -32q31 -49 48 -72.5t30 -38.5l4 -4t1 -2q0 -2 -1.5 -4t-2.5 -2z" />
    <glyph glyph-name="Uacute" unicode="&#xda;" horiz-adv-x="659" 
d="M9 0zM320 -10q-118 0 -179.5 66.5t-61.5 194.5v183v53.5v40.5q-1 32 -2 54.5t-2 38.5q-3 36 -11.5 49.5t-37.5 13.5h-12q-5 0 -5 4.5t5 4.5q8 0 25.5 -0.5t56.5 -1.5q26 -1 35.5 -1h12.5h12.5t36.5 1q44 1 62.5 1.5t27.5 0.5q6 0 6 -4.5t-6 -4.5h-19q-31 0 -40.5 -13
t-13.5 -47q-2 -16 -3 -39t-2 -56q0 -19 -0.5 -42t-0.5 -53v-155q0 -112 49.5 -169t145.5 -57q78 0 124 55.5t46 148.5v177q0 49 -3 87.5t-9 67.5q-11 50 -32.5 72.5t-67.5 22.5h-16q-6 0 -6 4.5t6 4.5q9 0 26.5 -0.5t57.5 -1.5q26 -1 35 -1h12h8.5t18.5 1q20 1 31 1.5
t19 0.5q5 0 5 -4.5t-5 -4.5h-4q-32 0 -43.5 -23.5t-15.5 -85.5q-1 -25 -2 -59.5t-1 -81.5v-180q0 -113 -73.5 -188.5t-189.5 -75.5zM429 827q-46 -31 -67.5 -46.5t-35.5 -27.5q-4 -3 -5 -3.5t-2 -0.5t-2.5 2t-1.5 4q0 1 1 2l4 4q13 15 30 38.5t48 72.5q16 24 21.5 32t8.5 12
q7 8 17 13t19 5q13 0 24 -11.5t11 -23.5q0 -8 -3.5 -17.5t-9.5 -15.5q-6 -5 -17 -12.5t-40 -26.5z" />
    <glyph glyph-name="Ucircumflex" unicode="&#xdb;" horiz-adv-x="659" 
d="M9 0zM320 -10q-118 0 -179.5 66.5t-61.5 194.5v183v53.5v40.5q-1 32 -2 54.5t-2 38.5q-3 36 -11.5 49.5t-37.5 13.5h-12q-5 0 -5 4.5t5 4.5q8 0 25.5 -0.5t56.5 -1.5q26 -1 35.5 -1h12.5h12.5t36.5 1q44 1 62.5 1.5t27.5 0.5q6 0 6 -4.5t-6 -4.5h-19q-31 0 -40.5 -13
t-13.5 -47q-2 -16 -3 -39t-2 -56q0 -19 -0.5 -42t-0.5 -53v-155q0 -112 49.5 -169t145.5 -57q78 0 124 55.5t46 148.5v177q0 49 -3 87.5t-9 67.5q-11 50 -32.5 72.5t-67.5 22.5h-16q-6 0 -6 4.5t6 4.5q9 0 26.5 -0.5t57.5 -1.5q26 -1 35 -1h12h8.5t18.5 1q20 1 31 1.5
t19 0.5q5 0 5 -4.5t-5 -4.5h-4q-32 0 -43.5 -23.5t-15.5 -85.5q-1 -25 -2 -59.5t-1 -81.5v-180q0 -113 -73.5 -188.5t-189.5 -75.5zM363 896q-1 3 -3 3t-4 -3q-5 -9 -30.5 -55.5t-37.5 -62.5q-9 -11 -19 -16.5t-23 -5.5q-14 0 -23 8t-9 17q0 8 4 15t13 15q11 10 26 22.5
t98 74.5q2 1 4.5 1t4.5 -1q13 -9 59 -42t68 -51q9 -8 13.5 -15t4.5 -15q0 -10 -10.5 -19t-26.5 -9q-15 0 -25 5.5t-18 17.5q-4 7 -10 17t-19 33q-14 27 -22 41t-15 25z" />
    <glyph glyph-name="Udieresis" unicode="&#xdc;" horiz-adv-x="659" 
d="M9 0zM320 -10q-118 0 -179.5 66.5t-61.5 194.5v183v53.5v40.5q-1 32 -2 54.5t-2 38.5q-3 36 -11.5 49.5t-37.5 13.5h-12q-5 0 -5 4.5t5 4.5q8 0 25.5 -0.5t56.5 -1.5q26 -1 35.5 -1h12.5h12.5t36.5 1q44 1 62.5 1.5t27.5 0.5q6 0 6 -4.5t-6 -4.5h-19q-31 0 -40.5 -13
t-13.5 -47q-2 -16 -3 -39t-2 -56q0 -19 -0.5 -42t-0.5 -53v-155q0 -112 49.5 -169t145.5 -57q78 0 124 55.5t46 148.5v177q0 49 -3 87.5t-9 67.5q-11 50 -32.5 72.5t-67.5 22.5h-16q-6 0 -6 4.5t6 4.5q9 0 26.5 -0.5t57.5 -1.5q26 -1 35 -1h12h8.5t18.5 1q20 1 31 1.5
t19 0.5q5 0 5 -4.5t-5 -4.5h-4q-32 0 -43.5 -23.5t-15.5 -85.5q-1 -25 -2 -59.5t-1 -81.5v-180q0 -113 -73.5 -188.5t-189.5 -75.5zM470 775q-30 0 -51 20.5t-21 49.5q0 30 21 50.5t51 20.5q29 0 50 -21t21 -50t-21 -49.5t-50 -20.5zM255 775q-29 0 -49.5 20.5t-20.5 49.5
q0 30 20.5 50.5t49.5 20.5q30 0 51.5 -20.5t21.5 -50.5q0 -29 -21.5 -49.5t-51.5 -20.5z" />
    <glyph glyph-name="Yacute" unicode="&#xdd;" horiz-adv-x="658" 
d="M0 0zM451 9h17q6 0 6 -4.5t-6 -4.5q-8 0 -26.5 0.5t-61.5 1.5q-29 1 -39 1h-13h-12.5t-36.5 -1q-44 -1 -62.5 -1.5t-27.5 -0.5q-6 0 -6 4.5t6 4.5h16q33 0 42 12.5t13 46.5q2 16 3 39t2 57v40.5v54.5v55l-108 195q-65 118 -91 146t-60 28h-8q-3 0 -5 1.5t-2 3.5t1.5 3.5
t4.5 1.5q9 0 27.5 -0.5t63.5 -1.5q28 -1 38 -1h13h14t42 1q49 1 69.5 1.5t29.5 0.5q6 0 6.5 -5t-5.5 -5h-35q-39 0 -34.5 -32t67.5 -147l92 -167l87 150q42 71 42 134.5t-58 63.5q-2 0 -7 -0.5t-15 -2.5q-7 0 -9 -0.5t-3 -0.5q-3 0 -5 1.5t-2 4.5t3 4.5t9 1.5h18t49 -1
q34 -1 47 -1h17h10.5t28.5 1q33 1 47.5 1h22.5q6 0 5.5 -5t-5.5 -5h-2q-33 0 -82 -54.5t-100 -144.5l-92 -160v-65v-55t1 -41q0 -33 1 -56t3 -39q4 -34 13 -46.5t42 -12.5zM432 827q-46 -31 -67.5 -46.5t-35.5 -27.5q-4 -3 -5 -3.5t-2 -0.5t-2.5 2t-1.5 4q0 1 1 2l4 4
q13 15 30 38.5t48 72.5q16 24 21.5 32t8.5 12q7 8 17 13t19 5q13 0 24 -11.5t11 -23.5q0 -8 -3.5 -17.5t-9.5 -15.5q-6 -5 -17 -12.5t-40 -26.5z" />
    <glyph glyph-name="Thorn" unicode="&#xde;" horiz-adv-x="627" 
d="M51 11q23 3 29 43t6 205v175v53.5v40.5q-1 33 -2 55.5t-2 38.5q-4 36 -12 49t-38 13h-14q-6 0 -6 4.5t6 4.5q9 0 26.5 -0.5t58.5 -1.5q25 -1 34 -1h12h13t39 1q45 1 63.5 1.5t26.5 0.5q6 0 6 -4.5t-6 -4.5h-25q-28 0 -36.5 -11.5t-12.5 -42.5q-2 -15 -3 -35.5t-1 -50.5
h105q139 0 209.5 -48.5t70.5 -143.5t-75 -150.5t-205 -55.5q-14 1 -35.5 1h-69.5q0 -29 1 -49.5t3 -35.5q4 -30 12.5 -41.5t36.5 -11.5h25q6 0 6 -4.5t-6 -4.5q-9 0 -28 0.5t-64 1.5q-28 1 -37.5 1h-12.5h-12.5t-35.5 -1q-41 -1 -58.5 -1.5t-25.5 -0.5q-6 0 -6 4.5t6 4.5
q18 0 24.5 0.5t9.5 1.5zM212 434v-175v-67t1 -35h94q72 0 111.5 51.5t39.5 144.5t-36.5 137t-112.5 44h-96q-1 -15 -1 -34.5v-65.5z" />
    <glyph glyph-name="germandbls" unicode="&#xdf;" horiz-adv-x="634" 
d="M435 539q-55 -41 -71.5 -63.5t-16.5 -44.5q0 -24 20.5 -43.5t91.5 -50.5q97 -43 129 -79.5t32 -85.5q0 -77 -53 -129t-134 -52q-74 0 -121.5 31t-47.5 79q0 17 9.5 26.5t27.5 9.5q23 0 45 -11t28 -26q3 -8 9 -31t12 -34q8 -18 21.5 -26t33.5 -8q39 0 66 24.5t27 63.5
q0 34 -22.5 59.5t-96.5 60.5q-83 40 -109 71.5t-26 73.5q0 33 15 63t62 79q45 46 58.5 73t13.5 56q0 56 -31 87t-85 31q-64 0 -97.5 -53.5t-33.5 -156.5q0 -4 0.5 -135t0.5 -389h47q5 0 5 -4.5t-6 -4.5h-23.5t-46.5 1q-21 1 -28.5 1h-10.5h-11t-31 -1q-35 -1 -50.5 -1h-24.5
q-6 0 -6 4.5t6 4.5q39 0 48.5 14t9.5 87v29.5v83.5q-1 100 -1 144.5v67.5h-66q-7 0 -9 2t-1 6l26 58h55q10 53 41 102.5t79 89.5q49 41 104.5 64.5t104.5 23.5q63 0 100 -27.5t37 -75.5q0 -32 -20.5 -61.5t-84.5 -77.5z" />
    <glyph glyph-name="agrave" unicode="&#xe0;" horiz-adv-x="540" 
d="M29 0zM349 140q-28 -61 -83 -106t-112 -45q-54 0 -89.5 32t-35.5 79q0 56 59 102t195 99l72 28q-1 95 -20 134t-65 39q-19 0 -35 -8t-27 -24q-7 -10 -13 -23.5t-16 -42.5q-6 -16 -8.5 -23.5t-5.5 -12.5q-8 -18 -23.5 -26t-44.5 -8q-27 0 -42.5 10.5t-15.5 27.5t11.5 34.5
t33.5 32.5q41 30 99 50.5t104 20.5q96 0 143.5 -45t47.5 -136q0 -17 -0.5 -40.5t-2.5 -74.5q-1 -44 -1.5 -63t-0.5 -32q0 -41 5.5 -57.5t18.5 -16.5q12 0 27 18.5t26 44.5q3 6 10 3t2 -11q-26 -43 -67.5 -76.5t-78.5 -33.5t-53 20t-16 64q0 15 0.5 34t1.5 32zM150 146
q0 -39 23.5 -63.5t61.5 -25.5q34 -1 65.5 29.5t49.5 73.5q2 70 3.5 109t1.5 48v4l-69 -30q-72 -30 -104 -64t-32 -81zM312 556q-1 0 -2 0.5t-5 3.5q-14 12 -35.5 27.5t-67.5 46.5q-29 19 -40 26.5t-17 12.5q-6 6 -9.5 15.5t-3.5 17.5q0 12 11 23.5t24 11.5q9 0 19 -5t17 -13
q3 -4 8.5 -12t21.5 -32q31 -49 48 -72.5t30 -38.5l4 -4t1 -2q0 -2 -1.5 -4t-2.5 -2z" />
    <glyph glyph-name="aacute" unicode="&#xe1;" horiz-adv-x="540" 
d="M29 0zM349 140q-28 -61 -83 -106t-112 -45q-54 0 -89.5 32t-35.5 79q0 56 59 102t195 99l72 28q-1 95 -20 134t-65 39q-19 0 -35 -8t-27 -24q-7 -10 -13 -23.5t-16 -42.5q-6 -16 -8.5 -23.5t-5.5 -12.5q-8 -18 -23.5 -26t-44.5 -8q-27 0 -42.5 10.5t-15.5 27.5t11.5 34.5
t33.5 32.5q41 30 99 50.5t104 20.5q96 0 143.5 -45t47.5 -136q0 -17 -0.5 -40.5t-2.5 -74.5q-1 -44 -1.5 -63t-0.5 -32q0 -41 5.5 -57.5t18.5 -16.5q12 0 27 18.5t26 44.5q3 6 10 3t2 -11q-26 -43 -67.5 -76.5t-78.5 -33.5t-53 20t-16 64q0 15 0.5 34t1.5 32zM150 146
q0 -39 23.5 -63.5t61.5 -25.5q34 -1 65.5 29.5t49.5 73.5q2 70 3.5 109t1.5 48v4l-69 -30q-72 -30 -104 -64t-32 -81zM336 634q-46 -31 -67.5 -46.5t-35.5 -27.5q-4 -3 -5 -3.5t-2 -0.5t-2.5 2t-1.5 4q0 1 1 2l4 4q13 15 30 38.5t48 72.5q16 24 21.5 32t8.5 12q7 8 17 13
t19 5q13 0 24 -11.5t11 -23.5q0 -8 -3.5 -17.5t-9.5 -15.5q-6 -5 -17 -12.5t-40 -26.5z" />
    <glyph glyph-name="acircumflex" unicode="&#xe2;" horiz-adv-x="540" 
d="M29 0zM349 140q-28 -61 -83 -106t-112 -45q-54 0 -89.5 32t-35.5 79q0 56 59 102t195 99l72 28q-1 95 -20 134t-65 39q-19 0 -35 -8t-27 -24q-7 -10 -13 -23.5t-16 -42.5q-6 -16 -8.5 -23.5t-5.5 -12.5q-8 -18 -23.5 -26t-44.5 -8q-27 0 -42.5 10.5t-15.5 27.5t11.5 34.5
t33.5 32.5q41 30 99 50.5t104 20.5q96 0 143.5 -45t47.5 -136q0 -17 -0.5 -40.5t-2.5 -74.5q-1 -44 -1.5 -63t-0.5 -32q0 -41 5.5 -57.5t18.5 -16.5q12 0 27 18.5t26 44.5q3 6 10 3t2 -11q-26 -43 -67.5 -76.5t-78.5 -33.5t-53 20t-16 64q0 15 0.5 34t1.5 32zM150 146
q0 -39 23.5 -63.5t61.5 -25.5q34 -1 65.5 29.5t49.5 73.5q2 70 3.5 109t1.5 48v4l-69 -30q-72 -30 -104 -64t-32 -81zM270 703q-1 3 -3 3t-4 -3q-5 -9 -30.5 -55.5t-37.5 -62.5q-9 -11 -19 -16.5t-23 -5.5q-14 0 -23 8t-9 17q0 8 4 15t13 15q11 10 26 22.5t98 74.5
q2 1 4.5 1t4.5 -1q13 -9 59 -42t68 -51q9 -8 13.5 -15t4.5 -15q0 -10 -10.5 -19t-26.5 -9q-15 0 -25 5.5t-18 17.5q-4 7 -10 17t-19 33q-14 27 -22 41t-15 25z" />
    <glyph glyph-name="atilde" unicode="&#xe3;" horiz-adv-x="540" 
d="M29 0zM349 140q-28 -61 -83 -106t-112 -45q-54 0 -89.5 32t-35.5 79q0 56 59 102t195 99l72 28q-1 95 -20 134t-65 39q-19 0 -35 -8t-27 -24q-7 -10 -13 -23.5t-16 -42.5q-6 -16 -8.5 -23.5t-5.5 -12.5q-8 -18 -23.5 -26t-44.5 -8q-27 0 -42.5 10.5t-15.5 27.5t11.5 34.5
t33.5 32.5q41 30 99 50.5t104 20.5q96 0 143.5 -45t47.5 -136q0 -17 -0.5 -40.5t-2.5 -74.5q-1 -44 -1.5 -63t-0.5 -32q0 -41 5.5 -57.5t18.5 -16.5q12 0 27 18.5t26 44.5q3 6 10 3t2 -11q-26 -43 -67.5 -76.5t-78.5 -33.5t-53 20t-16 64q0 15 0.5 34t1.5 32zM150 146
q0 -39 23.5 -63.5t61.5 -25.5q34 -1 65.5 29.5t49.5 73.5q2 70 3.5 109t1.5 48v4l-69 -30q-72 -30 -104 -64t-32 -81zM127 571q-2 -3 -5.5 -2t-2.5 5q20 53 45 81t54 28q10 0 25.5 -3.5t49.5 -15.5t49.5 -16t26.5 -4q19 0 30.5 11.5t23.5 43.5q2 4 6 3t2 -5
q-19 -60 -44.5 -90.5t-56.5 -30.5q-14 0 -32 4.5t-53 17.5q-30 12 -43.5 15.5t-23.5 3.5q-19 0 -30.5 -11t-20.5 -35z" />
    <glyph glyph-name="adieresis" unicode="&#xe4;" horiz-adv-x="540" 
d="M29 0zM349 140q-28 -61 -83 -106t-112 -45q-54 0 -89.5 32t-35.5 79q0 56 59 102t195 99l72 28q-1 95 -20 134t-65 39q-19 0 -35 -8t-27 -24q-7 -10 -13 -23.5t-16 -42.5q-6 -16 -8.5 -23.5t-5.5 -12.5q-8 -18 -23.5 -26t-44.5 -8q-27 0 -42.5 10.5t-15.5 27.5t11.5 34.5
t33.5 32.5q41 30 99 50.5t104 20.5q96 0 143.5 -45t47.5 -136q0 -17 -0.5 -40.5t-2.5 -74.5q-1 -44 -1.5 -63t-0.5 -32q0 -41 5.5 -57.5t18.5 -16.5q12 0 27 18.5t26 44.5q3 6 10 3t2 -11q-26 -43 -67.5 -76.5t-78.5 -33.5t-53 20t-16 64q0 15 0.5 34t1.5 32zM150 146
q0 -39 23.5 -63.5t61.5 -25.5q34 -1 65.5 29.5t49.5 73.5q2 70 3.5 109t1.5 48v4l-69 -30q-72 -30 -104 -64t-32 -81zM378 582q-30 0 -51 20.5t-21 49.5q0 30 21 50.5t51 20.5q29 0 50 -21t21 -50t-21 -49.5t-50 -20.5zM163 582q-29 0 -49.5 20.5t-20.5 49.5q0 30 20.5 50.5
t49.5 20.5q30 0 51.5 -20.5t21.5 -50.5q0 -29 -21.5 -49.5t-51.5 -20.5z" />
    <glyph glyph-name="aring" unicode="&#xe5;" horiz-adv-x="540" 
d="M29 0zM349 140q-28 -61 -83 -106t-112 -45q-54 0 -89.5 32t-35.5 79q0 56 59 102t195 99l72 28q-1 95 -20 134t-65 39q-19 0 -35 -8t-27 -24q-7 -10 -13 -23.5t-16 -42.5q-6 -16 -8.5 -23.5t-5.5 -12.5q-8 -18 -23.5 -26t-44.5 -8q-27 0 -42.5 10.5t-15.5 27.5t11.5 34.5
t33.5 32.5q41 30 99 50.5t104 20.5q96 0 143.5 -45t47.5 -136q0 -17 -0.5 -40.5t-2.5 -74.5q-1 -44 -1.5 -63t-0.5 -32q0 -41 5.5 -57.5t18.5 -16.5q12 0 27 18.5t26 44.5q3 6 10 3t2 -11q-26 -43 -67.5 -76.5t-78.5 -33.5t-53 20t-16 64q0 15 0.5 34t1.5 32zM150 146
q0 -39 23.5 -63.5t61.5 -25.5q34 -1 65.5 29.5t49.5 73.5q2 70 3.5 109t1.5 48v4l-69 -30q-72 -30 -104 -64t-32 -81zM272 556q-39 0 -66 26.5t-27 65.5t27.5 66.5t65.5 27.5q39 0 66.5 -27.5t27.5 -66.5q0 -38 -27.5 -65t-66.5 -27zM272 727q-32 0 -54 -23t-22 -56
q0 -32 22 -54.5t54 -22.5q33 0 55 22t22 55t-22 56t-55 23z" />
    <glyph glyph-name="ae" unicode="&#xe6;" horiz-adv-x="867" 
d="M359 158q-38 -75 -93 -122t-112 -47q-54 0 -89.5 32t-35.5 79q0 56 59 102t195 99l73 29q-1 94 -20.5 133t-65.5 39q-26 0 -43.5 -11.5t-30.5 -35.5q-7 -15 -16.5 -45t-14.5 -42q-8 -18 -23.5 -26t-44.5 -8q-27 0 -42.5 10.5t-15.5 27.5q0 18 12 35.5t33 31.5
q44 30 101 50.5t102 20.5q59 0 100 -20.5t69 -64.5q46 42 97 63.5t107 21.5q85 0 133 -35t46 -90q-1 -24 -17 -31.5t-58 -7.5h-286q-2 -11 -2.5 -23t-0.5 -25q0 -96 61.5 -154.5t161.5 -58.5q84 0 144.5 55t93.5 161q2 6 5.5 5.5t0.5 -7.5q-24 -82 -70.5 -152.5
t-102.5 -108.5q-38 -25 -75.5 -36.5t-81.5 -11.5q-91 0 -159 46.5t-94 121.5zM712 408q0 37 -25 61t-67 24q-55 0 -92.5 -37.5t-48.5 -103.5q46 1 88.5 2t90.5 3q13 1 24.5 4.5t15.5 7.5q7 6 10.5 15.5t3.5 23.5zM150 146q0 -39 23.5 -63.5t61.5 -25.5q32 -1 63.5 30
t56.5 86v20v44q1 37 1 53.5v26.5v4l-70 -30q-72 -30 -104 -64t-32 -81z" />
    <glyph glyph-name="ccedilla" unicode="&#xe7;" horiz-adv-x="549" 
d="M280 -10h-5q-111 0 -178.5 66t-67.5 175q0 113 88 196t213 83q81 0 130 -27.5t49 -72.5q0 -28 -20 -47.5t-51 -19.5q-26 0 -44 14t-38 60q-19 47 -37.5 61.5t-45.5 14.5q-58 0 -93.5 -52t-35.5 -140q0 -98 59.5 -157.5t156.5 -59.5q64 0 110 28.5t77 86.5l3 3t2 1
q2 -1 2 -3t-1 -4q-45 -92 -112.5 -145.5t-147.5 -59.5q-16 -20 -25.5 -34t-16.5 -25q-2 -3 -1 -3.5t7 0.5q58 9 92.5 -11.5t34.5 -60.5q0 -45 -45.5 -87t-101.5 -42q-30 0 -51.5 13t-21.5 30q0 15 18.5 27.5t40.5 12.5q9 0 17.5 -4t21.5 -16q15 -14 25.5 -18.5t22.5 -4.5
q16 0 26 10.5t10 27.5q0 35 -36 52t-99 8q-4 0 -6.5 -2t-5.5 -8q-3 -5 -5.5 -6.5t-5.5 -1.5q-7 0 -8.5 5.5t5.5 13.5q23 28 50.5 63.5t44.5 59.5z" />
    <glyph glyph-name="egrave" unicode="&#xe8;" 
d="M27 0zM435 38q-38 -25 -75.5 -36.5t-81.5 -11.5q-114 0 -182.5 65.5t-68.5 174.5q0 110 90.5 195t208.5 85q86 0 134 -35t46 -90q-2 -24 -18 -31.5t-58 -7.5h-286q-2 -11 -2.5 -23t-0.5 -25q0 -96 62 -154.5t162 -58.5q84 0 144.5 55t93.5 161q2 6 5 5.5t1 -7.5
q-24 -82 -71 -152.5t-103 -108.5zM379 408q0 37 -25 61t-67 24q-56 0 -93.5 -37.5t-48.5 -103.5q45 1 87 2t93 3q13 1 24 4.5t16 7.5q7 6 10.5 15.5t3.5 23.5zM344 556q-1 0 -2 0.5t-5 3.5q-14 12 -35.5 27.5t-67.5 46.5q-29 19 -40 26.5t-17 12.5q-6 6 -9.5 15.5t-3.5 17.5
q0 12 11 23.5t24 11.5q9 0 19 -5t17 -13q3 -4 8.5 -12t21.5 -32q31 -49 48 -72.5t30 -38.5l4 -4t1 -2q0 -2 -1.5 -4t-2.5 -2z" />
    <glyph glyph-name="eacute" unicode="&#xe9;" 
d="M27 0zM435 38q-38 -25 -75.5 -36.5t-81.5 -11.5q-114 0 -182.5 65.5t-68.5 174.5q0 110 90.5 195t208.5 85q86 0 134 -35t46 -90q-2 -24 -18 -31.5t-58 -7.5h-286q-2 -11 -2.5 -23t-0.5 -25q0 -96 62 -154.5t162 -58.5q84 0 144.5 55t93.5 161q2 6 5 5.5t1 -7.5
q-24 -82 -71 -152.5t-103 -108.5zM379 408q0 37 -25 61t-67 24q-56 0 -93.5 -37.5t-48.5 -103.5q45 1 87 2t93 3q13 1 24 4.5t16 7.5q7 6 10.5 15.5t3.5 23.5zM368 634q-46 -31 -67.5 -46.5t-35.5 -27.5q-4 -3 -5 -3.5t-2 -0.5t-2.5 2t-1.5 4q0 1 1 2l4 4q13 15 30 38.5
t48 72.5q16 24 21.5 32t8.5 12q7 8 17 13t19 5q13 0 24 -11.5t11 -23.5q0 -8 -3.5 -17.5t-9.5 -15.5q-6 -5 -17 -12.5t-40 -26.5z" />
    <glyph glyph-name="ecircumflex" unicode="&#xea;" 
d="M27 0zM435 38q-38 -25 -75.5 -36.5t-81.5 -11.5q-114 0 -182.5 65.5t-68.5 174.5q0 110 90.5 195t208.5 85q86 0 134 -35t46 -90q-2 -24 -18 -31.5t-58 -7.5h-286q-2 -11 -2.5 -23t-0.5 -25q0 -96 62 -154.5t162 -58.5q84 0 144.5 55t93.5 161q2 6 5 5.5t1 -7.5
q-24 -82 -71 -152.5t-103 -108.5zM379 408q0 37 -25 61t-67 24q-56 0 -93.5 -37.5t-48.5 -103.5q45 1 87 2t93 3q13 1 24 4.5t16 7.5q7 6 10.5 15.5t3.5 23.5zM302 703q-1 3 -3 3t-4 -3q-5 -9 -30.5 -55.5t-37.5 -62.5q-9 -11 -19 -16.5t-23 -5.5q-14 0 -23 8t-9 17
q0 8 4 15t13 15q11 10 26 22.5t98 74.5q2 1 4.5 1t4.5 -1q13 -9 59 -42t68 -51q9 -8 13.5 -15t4.5 -15q0 -10 -10.5 -19t-26.5 -9q-15 0 -25 5.5t-18 17.5q-4 7 -10 17t-19 33q-14 27 -22 41t-15 25z" />
    <glyph glyph-name="edieresis" unicode="&#xeb;" 
d="M27 0zM435 38q-38 -25 -75.5 -36.5t-81.5 -11.5q-114 0 -182.5 65.5t-68.5 174.5q0 110 90.5 195t208.5 85q86 0 134 -35t46 -90q-2 -24 -18 -31.5t-58 -7.5h-286q-2 -11 -2.5 -23t-0.5 -25q0 -96 62 -154.5t162 -58.5q84 0 144.5 55t93.5 161q2 6 5 5.5t1 -7.5
q-24 -82 -71 -152.5t-103 -108.5zM379 408q0 37 -25 61t-67 24q-56 0 -93.5 -37.5t-48.5 -103.5q45 1 87 2t93 3q13 1 24 4.5t16 7.5q7 6 10.5 15.5t3.5 23.5zM410 582q-30 0 -51 20.5t-21 49.5q0 30 21 50.5t51 20.5q29 0 50 -21t21 -50t-21 -49.5t-50 -20.5zM195 582
q-29 0 -49.5 20.5t-20.5 49.5q0 30 20.5 50.5t49.5 20.5q30 0 51.5 -20.5t21.5 -50.5q0 -29 -21.5 -49.5t-51.5 -20.5z" />
    <glyph glyph-name="igrave" unicode="&#xec;" horiz-adv-x="263" 
d="M0 0zM88 1q-38 -1 -55 -1h-26q-6 0 -6 4.5t6 4.5q41 0 52 16.5t11 84.5v257q0 52 -9 64.5t-50 3.5q-6 -1 -7.5 3t4.5 5q34 7 82.5 27t84.5 40q3 2 10.5 -1t7.5 -6v-393q0 -68 11 -84.5t51 -16.5q6 0 6 -4.5t-6 -4.5h-25t-53 1q-23 1 -31.5 1h-11.5h-12t-34 -1zM173 556
q-1 0 -2 0.5t-5 3.5q-14 12 -35.5 27.5t-67.5 46.5q-29 19 -40 26.5t-17 12.5q-6 6 -9.5 15.5t-3.5 17.5q0 12 11 23.5t24 11.5q9 0 19 -5t17 -13q3 -4 8.5 -12t21.5 -32q31 -49 48 -72.5t30 -38.5l4 -4t1 -2q0 -2 -1.5 -4t-2.5 -2z" />
    <glyph glyph-name="iacute" unicode="&#xed;" horiz-adv-x="263" 
d="M1 0zM88 1q-38 -1 -55 -1h-26q-6 0 -6 4.5t6 4.5q41 0 52 16.5t11 84.5v257q0 52 -9 64.5t-50 3.5q-6 -1 -7.5 3t4.5 5q34 7 82.5 27t84.5 40q3 2 10.5 -1t7.5 -6v-393q0 -68 11 -84.5t51 -16.5q6 0 6 -4.5t-6 -4.5h-25t-53 1q-23 1 -31.5 1h-11.5h-12t-34 -1zM197 634
q-46 -31 -67.5 -46.5t-35.5 -27.5q-4 -3 -5 -3.5t-2 -0.5t-2.5 2t-1.5 4q0 1 1 2l4 4q13 15 30 38.5t48 72.5q16 24 21.5 32t8.5 12q7 8 17 13t19 5q13 0 24 -11.5t11 -23.5q0 -8 -3.5 -17.5t-9.5 -15.5q-6 -5 -17 -12.5t-40 -26.5z" />
    <glyph glyph-name="icircumflex" unicode="&#xee;" horiz-adv-x="263" 
d="M0 0zM88 1q-38 -1 -55 -1h-26q-6 0 -6 4.5t6 4.5q41 0 52 16.5t11 84.5v257q0 52 -9 64.5t-50 3.5q-6 -1 -7.5 3t4.5 5q34 7 82.5 27t84.5 40q3 2 10.5 -1t7.5 -6v-393q0 -68 11 -84.5t51 -16.5q6 0 6 -4.5t-6 -4.5h-25t-53 1q-23 1 -31.5 1h-11.5h-12t-34 -1zM131 703
q-1 3 -3 3t-4 -3q-5 -9 -30.5 -55.5t-37.5 -62.5q-9 -11 -19 -16.5t-23 -5.5q-14 0 -23 8t-9 17q0 8 4 15t13 15q11 10 26 22.5t98 74.5q2 1 4.5 1t4.5 -1q13 -9 59 -42t68 -51q9 -8 13.5 -15t4.5 -15q0 -10 -10.5 -19t-26.5 -9q-15 0 -25 5.5t-18 17.5q-4 7 -10 17t-19 33
q-14 27 -22 41t-15 25z" />
    <glyph glyph-name="idieresis" unicode="&#xef;" horiz-adv-x="263" 
d="M0 0zM88 1q-38 -1 -55 -1h-26q-6 0 -6 4.5t6 4.5q41 0 52 16.5t11 84.5v257q0 52 -9 64.5t-50 3.5q-6 -1 -7.5 3t4.5 5q34 7 82.5 27t84.5 40q3 2 10.5 -1t7.5 -6v-393q0 -68 11 -84.5t51 -16.5q6 0 6 -4.5t-6 -4.5h-25t-53 1q-23 1 -31.5 1h-11.5h-12t-34 -1zM238 582
q-30 0 -51 20.5t-21 49.5q0 30 21 50.5t51 20.5q29 0 50 -21t21 -50t-21 -49.5t-50 -20.5zM23 582q-29 0 -49.5 20.5t-20.5 49.5q0 30 20.5 50.5t49.5 20.5q30 0 51.5 -20.5t21.5 -50.5q0 -29 -21.5 -49.5t-51.5 -20.5z" />
    <glyph glyph-name="eth" unicode="&#xf0;" horiz-adv-x="594" 
d="M257 608l-34.5 -21t-21.5 -13q-7 1 -12 10t-1 15q36 15 68 29.5t57 26.5q-30 39 -68.5 70t-84.5 53q-5 2 -3 6t7 2q57 -23 106 -49.5t90 -57.5q10 6 24 14.5t43 27.5q25 16 37.5 23.5t21.5 13.5q7 -1 12.5 -9.5t1.5 -14.5q-32 -14 -67.5 -31t-63.5 -31q94 -73 144 -164.5
t50 -188.5q0 -139 -77 -234t-191 -95q-117 0 -191.5 69t-74.5 178q0 110 75.5 187t179.5 77q37 0 68.5 -14t53.5 -41q-14 59 -35.5 109t-50.5 91q-11 -7 -24 -14.5t-39 -23.5zM170 257q0 -113 37.5 -184.5t101.5 -71.5q59 0 88 60t29 180q0 124 -35 186.5t-104 62.5
q-60 0 -88.5 -56t-28.5 -177z" />
    <glyph glyph-name="ntilde" unicode="&#xf1;" horiz-adv-x="594" 
d="M13 0zM82 1q-28 -1 -41 -1h-22q-6 0 -6 4.5t6 4.5q31 0 39 21t8 89v239q0 17 -11 35.5t-35 40.5q-2 2 -2 3.5t2 2.5q19 7 65.5 32t58.5 36q2 2 3 1.5t3 -2.5q16 -15 28.5 -47.5t12.5 -61.5q43 57 88 84.5t95 27.5q79 0 119 -50.5t40 -151.5v-210q0 -52 8 -71t37 -18
q6 0 6 -4.5t-6 -4.5h-11t-38 1q-46 0 -63.5 0.5t-22.5 0.5h-9t-21 -1q-23 -1 -34.5 -1h-20.5q-6 0 -6 4.5t6 4.5q35 0 43.5 18.5t8.5 76.5l-1 208q-1 74 -25.5 111.5t-72.5 37.5q-34 0 -61.5 -17t-57.5 -57v-378h52q6 0 6 -4.5t-6 -4.5h-10.5t-35.5 1q-43 0 -59.5 0.5
t-21.5 0.5h-10t-25 -1zM160 571q-2 -3 -5.5 -2t-2.5 5q20 53 45 81t54 28q10 0 25.5 -3.5t49.5 -15.5t49.5 -16t26.5 -4q19 0 30.5 11.5t23.5 43.5q2 4 6 3t2 -5q-19 -60 -44.5 -90.5t-56.5 -30.5q-14 0 -32 4.5t-53 17.5q-30 12 -43.5 15.5t-23.5 3.5q-19 0 -30.5 -11
t-20.5 -35z" />
    <glyph glyph-name="ograve" unicode="&#xf2;" horiz-adv-x="599" 
d="M29 0zM485 68q-39 -38 -88.5 -58t-104.5 -20q-117 0 -190 69t-73 181q0 113 79.5 191.5t199.5 78.5q117 0 189 -69.5t72 -183.5q0 -51 -22 -101t-62 -88zM171 257q0 -113 37 -184.5t101 -71.5q62 0 92 59t30 181q0 112 -36.5 185.5t-98.5 73.5q-65 0 -95 -56.5
t-30 -186.5zM341 556q-1 0 -2 0.5t-5 3.5q-14 12 -35.5 27.5t-67.5 46.5q-29 19 -40 26.5t-17 12.5q-6 6 -9.5 15.5t-3.5 17.5q0 12 11 23.5t24 11.5q9 0 19 -5t17 -13q3 -4 8.5 -12t21.5 -32q31 -49 48 -72.5t30 -38.5l4 -4t1 -2q0 -2 -1.5 -4t-2.5 -2z" />
    <glyph glyph-name="oacute" unicode="&#xf3;" horiz-adv-x="599" 
d="M29 0zM485 68q-39 -38 -88.5 -58t-104.5 -20q-117 0 -190 69t-73 181q0 113 79.5 191.5t199.5 78.5q117 0 189 -69.5t72 -183.5q0 -51 -22 -101t-62 -88zM171 257q0 -113 37 -184.5t101 -71.5q62 0 92 59t30 181q0 112 -36.5 185.5t-98.5 73.5q-65 0 -95 -56.5
t-30 -186.5zM365 634q-46 -31 -67.5 -46.5t-35.5 -27.5q-4 -3 -5 -3.5t-2 -0.5t-2.5 2t-1.5 4q0 1 1 2l4 4q13 15 30 38.5t48 72.5q16 24 21.5 32t8.5 12q7 8 17 13t19 5q13 0 24 -11.5t11 -23.5q0 -8 -3.5 -17.5t-9.5 -15.5q-6 -5 -17 -12.5t-40 -26.5z" />
    <glyph glyph-name="ocircumflex" unicode="&#xf4;" horiz-adv-x="599" 
d="M29 0zM485 68q-39 -38 -88.5 -58t-104.5 -20q-117 0 -190 69t-73 181q0 113 79.5 191.5t199.5 78.5q117 0 189 -69.5t72 -183.5q0 -51 -22 -101t-62 -88zM171 257q0 -113 37 -184.5t101 -71.5q62 0 92 59t30 181q0 112 -36.5 185.5t-98.5 73.5q-65 0 -95 -56.5
t-30 -186.5zM299 703q-1 3 -3 3t-4 -3q-5 -9 -30.5 -55.5t-37.5 -62.5q-9 -11 -19 -16.5t-23 -5.5q-14 0 -23 8t-9 17q0 8 4 15t13 15q11 10 26 22.5t98 74.5q2 1 4.5 1t4.5 -1q13 -9 59 -42t68 -51q9 -8 13.5 -15t4.5 -15q0 -10 -10.5 -19t-26.5 -9q-15 0 -25 5.5t-18 17.5
q-4 7 -10 17t-19 33q-14 27 -22 41t-15 25z" />
    <glyph glyph-name="otilde" unicode="&#xf5;" horiz-adv-x="599" 
d="M29 0zM485 68q-39 -38 -88.5 -58t-104.5 -20q-117 0 -190 69t-73 181q0 113 79.5 191.5t199.5 78.5q117 0 189 -69.5t72 -183.5q0 -51 -22 -101t-62 -88zM171 257q0 -113 37 -184.5t101 -71.5q62 0 92 59t30 181q0 112 -36.5 185.5t-98.5 73.5q-65 0 -95 -56.5
t-30 -186.5zM156 571q-2 -3 -5.5 -2t-2.5 5q20 53 45 81t54 28q10 0 25.5 -3.5t49.5 -15.5t49.5 -16t26.5 -4q19 0 30.5 11.5t23.5 43.5q2 4 6 3t2 -5q-19 -60 -44.5 -90.5t-56.5 -30.5q-14 0 -32 4.5t-53 17.5q-30 12 -43.5 15.5t-23.5 3.5q-19 0 -30.5 -11t-20.5 -35z" />
    <glyph glyph-name="odieresis" unicode="&#xf6;" horiz-adv-x="599" 
d="M29 0zM485 68q-39 -38 -88.5 -58t-104.5 -20q-117 0 -190 69t-73 181q0 113 79.5 191.5t199.5 78.5q117 0 189 -69.5t72 -183.5q0 -51 -22 -101t-62 -88zM171 257q0 -113 37 -184.5t101 -71.5q62 0 92 59t30 181q0 112 -36.5 185.5t-98.5 73.5q-65 0 -95 -56.5
t-30 -186.5zM406 582q-30 0 -51 20.5t-21 49.5q0 30 21 50.5t51 20.5q29 0 50 -21t21 -50t-21 -49.5t-50 -20.5zM191 582q-29 0 -49.5 20.5t-20.5 49.5q0 30 20.5 50.5t49.5 20.5q30 0 51.5 -20.5t21.5 -50.5q0 -29 -21.5 -49.5t-51.5 -20.5z" />
    <glyph glyph-name="divide" unicode="&#xf7;" horiz-adv-x="558" 
d="M326 477q0 -18 -14 -32t-32 -14q-20 0 -33 13.5t-13 32.5t13 32.5t33 13.5q18 0 32 -14t14 -32zM279 341q24 0 48.5 1.5t121.5 10.5q7 -5 7 -17t-7 -17q-84 7 -112 9t-57 2q-30 0 -60 -2t-113 -9q-7 5 -7 17t7 17q101 -9 124.5 -10.5t47.5 -1.5zM326 195
q0 -19 -13.5 -32.5t-32.5 -13.5q-20 0 -33 13t-13 33q0 19 13 32t33 13q18 0 32 -13.5t14 -31.5z" />
    <glyph glyph-name="oslash" unicode="&#xf8;" horiz-adv-x="599" 
d="M124 5q-10 -14 -15.5 -21.5t-10.5 -14.5q-16 -2 -19.5 -0.5t-12.5 12.5q31 36 39.5 45.5t15.5 16.5q-45 34 -68.5 84.5t-23.5 112.5q0 113 79.5 191.5t199.5 78.5q42 0 80 -10t69 -29q2 3 18 25.5t26 37.5q12 1 16.5 -1t14.5 -13q-20 -22 -32.5 -36t-22.5 -26
q45 -34 68.5 -85.5t23.5 -115.5q0 -51 -22 -101t-62 -88q-39 -38 -88.5 -58t-104.5 -20q-42 0 -80.5 10t-70.5 29q-3 -4 -6.5 -9zM296 500q-65 0 -95 -56.5t-30 -186.5q0 -36 4.5 -70.5t13.5 -65.5q24 30 48.5 61.5t54.5 71.5q50 65 72 95t40 56q-18 47 -45.5 71t-62.5 24z
M196 99q19 -48 47.5 -73t65.5 -25q62 0 92 59t30 181q0 39 -5 75t-14 67q-45 -58 -66 -85t-40 -54q-16 -20 -43.5 -56t-66.5 -89z" />
    <glyph glyph-name="ugrave" unicode="&#xf9;" horiz-adv-x="576" 
d="M0 0zM391 109q-45 -59 -91.5 -89.5t-91.5 -30.5q-78 0 -113 44t-35 140v192q0 25 -1.5 40.5t-5.5 23.5q-5 11 -15 14t-42 -3q-6 -1 -6 3.5t6 5.5q38 7 93 25t80 32q3 2 10.5 -1t7.5 -6v-298q0 -74 23 -110.5t71 -36.5q30 0 56 15.5t54 50.5v245q0 25 -1.5 40.5t-5.5 23.5
q-5 11 -15 14t-42 -3q-6 -1 -6 3.5t6 5.5q37 7 90.5 25t79.5 32q3 2 10.5 -1t7.5 -6v-380q0 -76 7.5 -93t41.5 -17q4 0 4 -4.5t-4 -4.5q-51 0 -95.5 -2.5t-77.5 -6.5q-4 -1 -6 0.5t-2 8.5v3t1 9q4 31 5.5 54t1.5 43zM338 556q-1 0 -2 0.5t-5 3.5q-14 12 -35.5 27.5
t-67.5 46.5q-29 19 -40 26.5t-17 12.5q-6 6 -9.5 15.5t-3.5 17.5q0 12 11 23.5t24 11.5q9 0 19 -5t17 -13q3 -4 8.5 -12t21.5 -32q31 -49 48 -72.5t30 -38.5l4 -4t1 -2q0 -2 -1.5 -4t-2.5 -2z" />
    <glyph glyph-name="uacute" unicode="&#xfa;" horiz-adv-x="576" 
d="M0 0zM391 109q-45 -59 -91.5 -89.5t-91.5 -30.5q-78 0 -113 44t-35 140v192q0 25 -1.5 40.5t-5.5 23.5q-5 11 -15 14t-42 -3q-6 -1 -6 3.5t6 5.5q38 7 93 25t80 32q3 2 10.5 -1t7.5 -6v-298q0 -74 23 -110.5t71 -36.5q30 0 56 15.5t54 50.5v245q0 25 -1.5 40.5t-5.5 23.5
q-5 11 -15 14t-42 -3q-6 -1 -6 3.5t6 5.5q37 7 90.5 25t79.5 32q3 2 10.5 -1t7.5 -6v-380q0 -76 7.5 -93t41.5 -17q4 0 4 -4.5t-4 -4.5q-51 0 -95.5 -2.5t-77.5 -6.5q-4 -1 -6 0.5t-2 8.5v3t1 9q4 31 5.5 54t1.5 43zM362 634q-46 -31 -67.5 -46.5t-35.5 -27.5q-4 -3 -5 -3.5
t-2 -0.5t-2.5 2t-1.5 4q0 1 1 2l4 4q13 15 30 38.5t48 72.5q16 24 21.5 32t8.5 12q7 8 17 13t19 5q13 0 24 -11.5t11 -23.5q0 -8 -3.5 -17.5t-9.5 -15.5q-6 -5 -17 -12.5t-40 -26.5z" />
    <glyph glyph-name="ucircumflex" unicode="&#xfb;" horiz-adv-x="576" 
d="M0 0zM391 109q-45 -59 -91.5 -89.5t-91.5 -30.5q-78 0 -113 44t-35 140v192q0 25 -1.5 40.5t-5.5 23.5q-5 11 -15 14t-42 -3q-6 -1 -6 3.5t6 5.5q38 7 93 25t80 32q3 2 10.5 -1t7.5 -6v-298q0 -74 23 -110.5t71 -36.5q30 0 56 15.5t54 50.5v245q0 25 -1.5 40.5t-5.5 23.5
q-5 11 -15 14t-42 -3q-6 -1 -6 3.5t6 5.5q37 7 90.5 25t79.5 32q3 2 10.5 -1t7.5 -6v-380q0 -76 7.5 -93t41.5 -17q4 0 4 -4.5t-4 -4.5q-51 0 -95.5 -2.5t-77.5 -6.5q-4 -1 -6 0.5t-2 8.5v3t1 9q4 31 5.5 54t1.5 43zM296 703q-1 3 -3 3t-4 -3q-5 -9 -30.5 -55.5t-37.5 -62.5
q-9 -11 -19 -16.5t-23 -5.5q-14 0 -23 8t-9 17q0 8 4 15t13 15q11 10 26 22.5t98 74.5q2 1 4.5 1t4.5 -1q13 -9 59 -42t68 -51q9 -8 13.5 -15t4.5 -15q0 -10 -10.5 -19t-26.5 -9q-15 0 -25 5.5t-18 17.5q-4 7 -10 17t-19 33q-14 27 -22 41t-15 25z" />
    <glyph glyph-name="udieresis" unicode="&#xfc;" horiz-adv-x="576" 
d="M0 0zM391 109q-45 -59 -91.5 -89.5t-91.5 -30.5q-78 0 -113 44t-35 140v192q0 25 -1.5 40.5t-5.5 23.5q-5 11 -15 14t-42 -3q-6 -1 -6 3.5t6 5.5q38 7 93 25t80 32q3 2 10.5 -1t7.5 -6v-298q0 -74 23 -110.5t71 -36.5q30 0 56 15.5t54 50.5v245q0 25 -1.5 40.5t-5.5 23.5
q-5 11 -15 14t-42 -3q-6 -1 -6 3.5t6 5.5q37 7 90.5 25t79.5 32q3 2 10.5 -1t7.5 -6v-380q0 -76 7.5 -93t41.5 -17q4 0 4 -4.5t-4 -4.5q-51 0 -95.5 -2.5t-77.5 -6.5q-4 -1 -6 0.5t-2 8.5v3t1 9q4 31 5.5 54t1.5 43zM403 582q-30 0 -51 20.5t-21 49.5q0 30 21 50.5t51 20.5
q29 0 50 -21t21 -50t-21 -49.5t-50 -20.5zM188 582q-29 0 -49.5 20.5t-20.5 49.5q0 30 20.5 50.5t49.5 20.5q30 0 51.5 -20.5t21.5 -50.5q0 -29 -21.5 -49.5t-51.5 -20.5z" />
    <glyph glyph-name="yacute" unicode="&#xfd;" horiz-adv-x="525" 
d="M0 0zM52 -192q-39 0 -66.5 12.5t-27.5 28.5t28 50t47 34q9 0 19.5 -3t33.5 -13q25 -11 38.5 -14.5t25.5 -3.5q33 0 54 19t41 65l11 25l-159 352q-39 86 -59 109t-58 22q-5 0 -5 4.5t5 4.5h9t28 -1q32 -1 44.5 -1h17.5h14t44 1q50 1 71 1h29q6 0 6 -4.5t-6 -4.5
q-29 0 -39.5 -5.5t-11.5 -18.5q-1 -10 5 -27.5t21 -49.5l107 -240l87 197q30 68 17.5 106t-63.5 38q-6 0 -6 4.5t6 4.5q9 0 21.5 -0.5t39.5 -0.5q17 -1 23.5 -1h9.5h16.5t40.5 1q19 1 25 1h8q5 0 5 -4.5t-5 -4.5q-32 1 -63 -35t-66 -115l-160 -360q-38 -88 -87.5 -130.5
t-115.5 -42.5zM358 634q-46 -31 -67.5 -46.5t-35.5 -27.5q-4 -3 -5 -3.5t-2 -0.5t-2.5 2t-1.5 4q0 1 1 2l4 4q13 15 30 38.5t48 72.5q16 24 21.5 32t8.5 12q7 8 17 13t19 5q13 0 24 -11.5t11 -23.5q0 -8 -3.5 -17.5t-9.5 -15.5q-6 -5 -17 -12.5t-40 -26.5z" />
    <glyph glyph-name="thorn" unicode="&#xfe;" horiz-adv-x="597" 
d="M563 297q0 -138 -88.5 -222.5t-231.5 -84.5q-14 0 -28 1.5t-29 5.5v-260h71q6 0 6 -4.5t-6 -4.5h-12t-43 1q-53 0 -72.5 0.5t-24.5 0.5h-11t-30 -1q-34 -1 -49.5 -1h-24.5q-6 0 -6 4.5t6 4.5q52 0 63 18t11 99v815q0 25 -1.5 40.5t-5.5 24.5q-5 12 -16 15t-41 -2
q-6 -1 -6 3.5t6 5.5q37 7 90 25t79 32q3 2 10.5 -1t7.5 -6v-401q39 53 86 79t102 26q84 0 136 -59.5t52 -153.5zM435 242q0 102 -35.5 161.5t-97.5 59.5q-31 0 -60.5 -17.5t-54.5 -51.5v-65t-1 -105v-98.5v-58.5q25 -30 54 -45t64 -15q64 0 97.5 60t33.5 175z" />
    <glyph glyph-name="ydieresis" unicode="&#xff;" horiz-adv-x="525" 
d="M0 0zM52 -192q-39 0 -66.5 12.5t-27.5 28.5t28 50t47 34q9 0 19.5 -3t33.5 -13q25 -11 38.5 -14.5t25.5 -3.5q33 0 54 19t41 65l11 25l-159 352q-39 86 -59 109t-58 22q-5 0 -5 4.5t5 4.5h9t28 -1q32 -1 44.5 -1h17.5h14t44 1q50 1 71 1h29q6 0 6 -4.5t-6 -4.5
q-29 0 -39.5 -5.5t-11.5 -18.5q-1 -10 5 -27.5t21 -49.5l107 -240l87 197q30 68 17.5 106t-63.5 38q-6 0 -6 4.5t6 4.5q9 0 21.5 -0.5t39.5 -0.5q17 -1 23.5 -1h9.5h16.5t40.5 1q19 1 25 1h8q5 0 5 -4.5t-5 -4.5q-32 1 -63 -35t-66 -115l-160 -360q-38 -88 -87.5 -130.5
t-115.5 -42.5zM399 582q-30 0 -51 20.5t-21 49.5q0 30 21 50.5t51 20.5q29 0 50 -21t21 -50t-21 -49.5t-50 -20.5zM184 582q-29 0 -49.5 20.5t-20.5 49.5q0 30 20.5 50.5t49.5 20.5q30 0 51.5 -20.5t21.5 -50.5q0 -29 -21.5 -49.5t-51.5 -20.5z" />
    <glyph glyph-name="Amacron" unicode="&#x100;" horiz-adv-x="718" 
d="M0 0zM434 248l-123 -3q-16 0 -38 0.5t-108 3.5l-4 -10q-15 -41 -24 -82t-8 -72q0 -36 18.5 -56t52.5 -20q5 0 10.5 0.5t15.5 1.5q4 1 5.5 1h2.5q3 0 5 -1.5t2 -3.5q0 -3 -3 -5t-9 -2h-20t-58 1q-41 1 -55.5 1h-18.5h-8.5t-19.5 -1q-22 -1 -32.5 -1h-18.5q-3 0 -4.5 1.5
t-1.5 4.5q0 2 2 3t4 1h3q18 0 35.5 14t32.5 41q20 35 41 82t45 114l161 427q2 4 5 6t7 2h45q6 0 9 -1.5t5 -5.5l174 -430q18 -45 33 -79t26 -60q29 -62 47.5 -86t43.5 -24h5q3 0 5 -1.5t2 -3.5t-1.5 -3.5t-4.5 -1.5q-9 0 -21 0.5l-36 1.5q-15 1 -21 1h-9h-16t-51 -1
q-59 -1 -83 -1.5t-33 -0.5q-6 0 -7.5 4.5t4.5 4.5h21q36 0 38.5 22.5t-19.5 85.5q-8 23 -20 55t-30 76zM429 258v1l-137 335l-124 -337l137 2zM298 810q15 -1 28 -1h27h1h63.5t38.5 1q29 1 34.5 0.5t5.5 -1.5q0 -5 -10 -16t-46 -45h-4.5h-11.5q-24 1 -39.5 1h-29.5
q-26 0 -53 -1t-32 -1q-22 -1 -31 -0.5t-9 2.5q0 4 8.5 13.5t47.5 47.5h4h8z" />
    <glyph glyph-name="amacron" unicode="&#x101;" horiz-adv-x="540" 
d="M29 0zM349 140q-28 -61 -83 -106t-112 -45q-54 0 -89.5 32t-35.5 79q0 56 59 102t195 99l72 28q-1 95 -20 134t-65 39q-19 0 -35 -8t-27 -24q-7 -10 -13 -23.5t-16 -42.5q-6 -16 -8.5 -23.5t-5.5 -12.5q-8 -18 -23.5 -26t-44.5 -8q-27 0 -42.5 10.5t-15.5 27.5t11.5 34.5
t33.5 32.5q41 30 99 50.5t104 20.5q96 0 143.5 -45t47.5 -136q0 -17 -0.5 -40.5t-2.5 -74.5q-1 -44 -1.5 -63t-0.5 -32q0 -41 5.5 -57.5t18.5 -16.5q12 0 27 18.5t26 44.5q3 6 10 3t2 -11q-26 -43 -67.5 -76.5t-78.5 -33.5t-53 20t-16 64q0 15 0.5 34t1.5 32zM150 146
q0 -39 23.5 -63.5t61.5 -25.5q34 -1 65.5 29.5t49.5 73.5q2 70 3.5 109t1.5 48v4l-69 -30q-72 -30 -104 -64t-32 -81zM216 638q15 -1 28 -1h27h1h63.5t38.5 1q29 1 34.5 0.5t5.5 -1.5q0 -5 -10 -16t-46 -45h-4.5h-11.5q-24 1 -39.5 1h-29.5q-26 0 -53 -1t-32 -1
q-22 -1 -31 -0.5t-9 2.5q0 4 8.5 13.5t47.5 47.5h4h8z" />
    <glyph glyph-name="Abreve" unicode="&#x102;" horiz-adv-x="718" 
d="M0 0zM434 248l-123 -3q-16 0 -38 0.5t-108 3.5l-4 -10q-15 -41 -24 -82t-8 -72q0 -36 18.5 -56t52.5 -20q5 0 10.5 0.5t15.5 1.5q4 1 5.5 1h2.5q3 0 5 -1.5t2 -3.5q0 -3 -3 -5t-9 -2h-20t-58 1q-41 1 -55.5 1h-18.5h-8.5t-19.5 -1q-22 -1 -32.5 -1h-18.5q-3 0 -4.5 1.5
t-1.5 4.5q0 2 2 3t4 1h3q18 0 35.5 14t32.5 41q20 35 41 82t45 114l161 427q2 4 5 6t7 2h45q6 0 9 -1.5t5 -5.5l174 -430q18 -45 33 -79t26 -60q29 -62 47.5 -86t43.5 -24h5q3 0 5 -1.5t2 -3.5t-1.5 -3.5t-4.5 -1.5q-9 0 -21 0.5l-36 1.5q-15 1 -21 1h-9h-16t-51 -1
q-59 -1 -83 -1.5t-33 -0.5q-6 0 -7.5 4.5t4.5 4.5h21q36 0 38.5 22.5t-19.5 85.5q-8 23 -20 55t-30 76zM429 258v1l-137 335l-124 -337l137 2zM485 841q-16 -43 -51 -69t-82 -27q-42 0 -72.5 16.5t-45.5 48.5q-6 13 -0.5 22.5t22.5 15.5q19 7 31 5t17 -13q20 -42 39 -58
t46 -16q29 0 47 19t25 59q1 5 3.5 7t8.5 2t10 -3.5t2 -8.5z" />
    <glyph glyph-name="abreve" unicode="&#x103;" horiz-adv-x="540" 
d="M29 0zM349 140q-28 -61 -83 -106t-112 -45q-54 0 -89.5 32t-35.5 79q0 56 59 102t195 99l72 28q-1 95 -20 134t-65 39q-19 0 -35 -8t-27 -24q-7 -10 -13 -23.5t-16 -42.5q-6 -16 -8.5 -23.5t-5.5 -12.5q-8 -18 -23.5 -26t-44.5 -8q-27 0 -42.5 10.5t-15.5 27.5t11.5 34.5
t33.5 32.5q41 30 99 50.5t104 20.5q96 0 143.5 -45t47.5 -136q0 -17 -0.5 -40.5t-2.5 -74.5q-1 -44 -1.5 -63t-0.5 -32q0 -41 5.5 -57.5t18.5 -16.5q12 0 27 18.5t26 44.5q3 6 10 3t2 -11q-26 -43 -67.5 -76.5t-78.5 -33.5t-53 20t-16 64q0 15 0.5 34t1.5 32zM150 146
q0 -39 23.5 -63.5t61.5 -25.5q34 -1 65.5 29.5t49.5 73.5q2 70 3.5 109t1.5 48v4l-69 -30q-72 -30 -104 -64t-32 -81zM403 669q-16 -43 -51 -69t-82 -27q-42 0 -72.5 16.5t-45.5 48.5q-6 13 -0.5 22.5t22.5 15.5q19 7 31 5t17 -13q20 -42 39 -58t46 -16q29 0 47 19t25 59
q1 5 3.5 7t8.5 2t10 -3.5t2 -8.5z" />
    <glyph glyph-name="Aogonek" unicode="&#x104;" horiz-adv-x="718" 
d="M434 248l-123 -3q-16 0 -38 0.5t-108 3.5l-4 -10q-15 -41 -24 -82t-8 -72q0 -36 18.5 -56t52.5 -20q5 0 10.5 0.5t15.5 1.5q4 1 5.5 1h2.5q3 0 5 -1.5t2 -3.5q0 -3 -3 -5t-9 -2h-20t-58 1q-41 1 -55.5 1h-18.5h-8.5t-19.5 -1q-22 -1 -32.5 -1h-18.5q-3 0 -4.5 1.5
t-1.5 4.5q0 2 2 3t4 1h3q18 0 35.5 14t32.5 41q20 35 41 82t45 114l161 427q2 4 5 6t7 2h45q6 0 9 -1.5t5 -5.5l174 -430q18 -45 33 -79t26 -60q29 -62 47.5 -86t43.5 -24h5q3 0 5 -1.5t2 -3.5t-1.5 -3.5t-4.5 -1.5q-11 0 -27.5 0.5l-49.5 1.5q-17 1 -23 1h-9
q-57 0 -82.5 -6.5t-42.5 -23.5t-25.5 -36t-8.5 -41q0 -26 17.5 -41t47.5 -15q15 0 31 5t29 14q6 4 -4.5 -35.5t-23.5 -48.5q-13 -10 -27.5 -14t-34.5 -4q-41 0 -64.5 23.5t-23.5 61.5q0 32 18.5 66t54.5 66q31 29 34.5 37t3.5 17q0 21 -11.5 57.5t-61.5 162.5zM429 258v1
l-137 335l-124 -337l137 2z" />
    <glyph glyph-name="aogonek" unicode="&#x105;" horiz-adv-x="540" 
d="M515 -213q-17 -9 -31 -12.5t-30 -3.5q-41 0 -65 23t-24 61q0 33 21 69.5t61 71.5q-8 -3 -15.5 -4.5t-15.5 -1.5q-37 0 -53 20t-16 64q0 15 0.5 34t1.5 32q-28 -61 -83 -106t-112 -45q-54 0 -89.5 32t-35.5 79q0 56 59 102t195 99l72 28q-1 95 -20 134t-65 39
q-19 0 -35 -8t-27 -24q-7 -10 -13 -23.5t-16 -42.5q-6 -16 -8.5 -23.5t-5.5 -12.5q-8 -18 -23.5 -26t-44.5 -8q-27 0 -42.5 10.5t-15.5 27.5t11.5 34.5t33.5 32.5q41 30 99 50.5t104 20.5q96 0 143.5 -45t47.5 -136q0 -17 -0.5 -40.5t-2.5 -74.5q-1 -44 -1.5 -63t-0.5 -32
q0 -41 5.5 -57.5t18.5 -16.5q12 0 27 18.5t26 44.5q3 6 10 3t2 -11q-9 -15 -27.5 -36.5t-38.5 -38.5q-2 -2 -5 -4.5t-9 -6.5l-9 -7.5t-5 -4.5q-26 -23 -38 -46t-12 -48q0 -26 17.5 -41t47.5 -15q15 0 31 5t29 14q6 5 -4.5 -35t-23.5 -49zM150 146q0 -39 23.5 -63.5
t61.5 -25.5q34 -1 65.5 29.5t49.5 73.5q2 70 3.5 109t1.5 48v4l-69 -30q-72 -30 -104 -64t-32 -81z" />
    <glyph glyph-name="Cacute" unicode="&#x106;" horiz-adv-x="739" 
d="M34 0zM657 24q-53 -18 -107.5 -26t-123.5 -8q-182 0 -287 95t-105 258q0 159 109.5 259.5t281.5 100.5q57 0 119.5 -8t106.5 -21q3 0 5 -3t3 -8q1 -11 2 -28t2 -59q2 -63 4 -94t4 -54q0 -4 -3.5 -4t-4.5 4q-7 55 -24.5 102.5t-44.5 81.5q-32 41 -74.5 61.5t-93.5 20.5
q-116 0 -181 -92.5t-65 -255.5q0 -162 65 -254.5t181 -92.5q52 0 94.5 21.5t74.5 64.5q27 36 45 85.5t25 109.5q1 3 4 3t3 -3q-1 -22 -2.5 -49t-3.5 -82q-2 -58 -3.5 -82t-2.5 -39q0 -2 -1 -3t-2 -1zM492 827q-46 -31 -67.5 -46.5t-35.5 -27.5q-4 -3 -5 -3.5t-2 -0.5t-2.5 2
t-1.5 4q0 1 1 2l4 4q13 15 30 38.5t48 72.5q16 24 21.5 32t8.5 12q7 8 17 13t19 5q13 0 24 -11.5t11 -23.5q0 -8 -3.5 -17.5t-9.5 -15.5q-6 -5 -17 -12.5t-40 -26.5z" />
    <glyph glyph-name="cacute" unicode="&#x107;" horiz-adv-x="549" 
d="M29 0zM553 196q-48 -98 -120.5 -152t-157.5 -54q-111 0 -178.5 66t-67.5 175q0 113 88 196t213 83q81 0 130 -27.5t49 -72.5q0 -28 -20 -47.5t-51 -19.5q-26 0 -44 14t-38 60q-19 47 -37.5 61.5t-45.5 14.5q-58 0 -93.5 -52t-35.5 -140q0 -98 59.5 -157.5t156.5 -59.5
q64 0 110 28.5t77 86.5l3 3t2 1q2 -1 2 -3t-1 -4zM370 634q-46 -31 -67.5 -46.5t-35.5 -27.5q-4 -3 -5 -3.5t-2 -0.5t-2.5 2t-1.5 4q0 1 1 2l4 4q13 15 30 38.5t48 72.5q16 24 21.5 32t8.5 12q7 8 17 13t19 5q13 0 24 -11.5t11 -23.5q0 -8 -3.5 -17.5t-9.5 -15.5
q-6 -5 -17 -12.5t-40 -26.5z" />
    <glyph glyph-name="Ccircumflex" unicode="&#x108;" horiz-adv-x="739" 
d="M34 0zM657 24q-53 -18 -107.5 -26t-123.5 -8q-182 0 -287 95t-105 258q0 159 109.5 259.5t281.5 100.5q57 0 119.5 -8t106.5 -21q3 0 5 -3t3 -8q1 -11 2 -28t2 -59q2 -63 4 -94t4 -54q0 -4 -3.5 -4t-4.5 4q-7 55 -24.5 102.5t-44.5 81.5q-32 41 -74.5 61.5t-93.5 20.5
q-116 0 -181 -92.5t-65 -255.5q0 -162 65 -254.5t181 -92.5q52 0 94.5 21.5t74.5 64.5q27 36 45 85.5t25 109.5q1 3 4 3t3 -3q-1 -22 -2.5 -49t-3.5 -82q-2 -58 -3.5 -82t-2.5 -39q0 -2 -1 -3t-2 -1zM426 896q-1 3 -3 3t-4 -3q-5 -9 -30.5 -55.5t-37.5 -62.5
q-9 -11 -19 -16.5t-23 -5.5q-14 0 -23 8t-9 17q0 8 4 15t13 15q11 10 26 22.5t98 74.5q2 1 4.5 1t4.5 -1q13 -9 59 -42t68 -51q9 -8 13.5 -15t4.5 -15q0 -10 -10.5 -19t-26.5 -9q-15 0 -25 5.5t-18 17.5q-4 7 -10 17t-19 33q-14 27 -22 41t-15 25z" />
    <glyph glyph-name="ccircumflex" unicode="&#x109;" horiz-adv-x="549" 
d="M29 0zM553 196q-48 -98 -120.5 -152t-157.5 -54q-111 0 -178.5 66t-67.5 175q0 113 88 196t213 83q81 0 130 -27.5t49 -72.5q0 -28 -20 -47.5t-51 -19.5q-26 0 -44 14t-38 60q-19 47 -37.5 61.5t-45.5 14.5q-58 0 -93.5 -52t-35.5 -140q0 -98 59.5 -157.5t156.5 -59.5
q64 0 110 28.5t77 86.5l3 3t2 1q2 -1 2 -3t-1 -4zM304 703q-1 3 -3 3t-4 -3q-5 -9 -30.5 -55.5t-37.5 -62.5q-9 -11 -19 -16.5t-23 -5.5q-14 0 -23 8t-9 17q0 8 4 15t13 15q11 10 26 22.5t98 74.5q2 1 4.5 1t4.5 -1q13 -9 59 -42t68 -51q9 -8 13.5 -15t4.5 -15
q0 -10 -10.5 -19t-26.5 -9q-15 0 -25 5.5t-18 17.5q-4 7 -10 17t-19 33q-14 27 -22 41t-15 25z" />
    <glyph glyph-name="Cdotaccent" unicode="&#x10a;" horiz-adv-x="739" 
d="M34 0zM657 24q-53 -18 -107.5 -26t-123.5 -8q-182 0 -287 95t-105 258q0 159 109.5 259.5t281.5 100.5q57 0 119.5 -8t106.5 -21q3 0 5 -3t3 -8q1 -11 2 -28t2 -59q2 -63 4 -94t4 -54q0 -4 -3.5 -4t-4.5 4q-7 55 -24.5 102.5t-44.5 81.5q-32 41 -74.5 61.5t-93.5 20.5
q-116 0 -181 -92.5t-65 -255.5q0 -162 65 -254.5t181 -92.5q52 0 94.5 21.5t74.5 64.5q27 36 45 85.5t25 109.5q1 3 4 3t3 -3q-1 -22 -2.5 -49t-3.5 -82q-2 -58 -3.5 -82t-2.5 -39q0 -2 -1 -3t-2 -1zM424 778q-33 0 -57 24t-24 57q0 34 24 58t57 24q34 0 58 -24t24 -58
t-24 -57.5t-58 -23.5z" />
    <glyph glyph-name="cdotaccent" unicode="&#x10b;" horiz-adv-x="549" 
d="M29 0zM553 196q-48 -98 -120.5 -152t-157.5 -54q-111 0 -178.5 66t-67.5 175q0 113 88 196t213 83q81 0 130 -27.5t49 -72.5q0 -28 -20 -47.5t-51 -19.5q-26 0 -44 14t-38 60q-19 47 -37.5 61.5t-45.5 14.5q-58 0 -93.5 -52t-35.5 -140q0 -98 59.5 -157.5t156.5 -59.5
q64 0 110 28.5t77 86.5l3 3t2 1q2 -1 2 -3t-1 -4zM303 585q-33 0 -57 24t-24 57q0 34 24 58t57 24q34 0 58 -24t24 -58t-24 -57.5t-58 -23.5z" />
    <glyph glyph-name="Ccaron" unicode="&#x10c;" horiz-adv-x="739" 
d="M34 0zM657 24q-53 -18 -107.5 -26t-123.5 -8q-182 0 -287 95t-105 258q0 159 109.5 259.5t281.5 100.5q57 0 119.5 -8t106.5 -21q3 0 5 -3t3 -8q1 -11 2 -28t2 -59q2 -63 4 -94t4 -54q0 -4 -3.5 -4t-4.5 4q-7 55 -24.5 102.5t-44.5 81.5q-32 41 -74.5 61.5t-93.5 20.5
q-116 0 -181 -92.5t-65 -255.5q0 -162 65 -254.5t181 -92.5q52 0 94.5 21.5t74.5 64.5q27 36 45 85.5t25 109.5q1 3 4 3t3 -3q-1 -22 -2.5 -49t-3.5 -82q-2 -58 -3.5 -82t-2.5 -39q0 -2 -1 -3t-2 -1zM423 761q2 -2 4 -2t3 2q6 11 31.5 57.5t36.5 61.5q9 11 19 16.5t23 5.5
t22.5 -8t9.5 -17q0 -8 -4 -15t-13 -15q-11 -10 -26 -22.5t-98 -74.5q-2 -1 -4.5 -1t-4.5 1q-13 10 -59.5 42t-67.5 51q-9 8 -13.5 15t-4.5 15q0 10 11 19t26 9q14 0 24.5 -5.5t18.5 -17.5q4 -7 10 -17t19 -33q14 -28 22 -42t15 -25z" />
    <glyph glyph-name="ccaron" unicode="&#x10d;" horiz-adv-x="549" 
d="M29 0zM553 196q-48 -98 -120.5 -152t-157.5 -54q-111 0 -178.5 66t-67.5 175q0 113 88 196t213 83q81 0 130 -27.5t49 -72.5q0 -28 -20 -47.5t-51 -19.5q-26 0 -44 14t-38 60q-19 47 -37.5 61.5t-45.5 14.5q-58 0 -93.5 -52t-35.5 -140q0 -98 59.5 -157.5t156.5 -59.5
q64 0 110 28.5t77 86.5l3 3t2 1q2 -1 2 -3t-1 -4zM302 568q2 -2 4 -2t3 2q6 11 31.5 57.5t36.5 61.5q9 11 19 16.5t23 5.5t22.5 -8t9.5 -17q0 -8 -4 -15t-13 -15q-11 -10 -26 -22.5t-98 -74.5q-2 -1 -4.5 -1t-4.5 1q-13 10 -59.5 42t-67.5 51q-9 8 -13.5 15t-4.5 15
q0 10 11 19t26 9q14 0 24.5 -5.5t18.5 -17.5q4 -7 10 -17t19 -33q14 -28 22 -42t15 -25z" />
    <glyph glyph-name="Dcaron" unicode="&#x10e;" horiz-adv-x="731" 
d="M12 0zM93 1q-43 -1 -57 -1h-18q-6 0 -6 4t6 4q38 0 48.5 14.5t14.5 55.5q2 18 3 44t1 68v47.5v142.5v17v46q-1 37 -1 51v20q0 45 -0.5 68t-1.5 38q-3 38 -13.5 51t-47.5 13q-6 0 -6 4.5t6 4.5h13.5t48.5 -1q56 -1 76.5 -1h25.5h12t34 1q40 1 57 1h26q171 0 277 -94.5
t106 -248.5q0 -157 -104 -253.5t-275 -96.5q-10 0 -27.5 0.5t-54.5 1.5q-21 1 -28.5 1h-10.5q-6 0 -27 -0.5t-77 -1.5zM320 10q115 0 173.5 86t58.5 254q0 162 -61.5 248t-178.5 86h-41q-34 0 -43 -12t-13 -46q-1 -16 -2 -39t-2 -57v-39.5v-56.5v-275q0 -51 -2 -90.5
t-6 -54.5q5 0 13.5 -0.5t27.5 -1.5q30 -1 46 -1.5t30 -0.5zM366 761q2 -2 4 -2t3 2q6 11 31.5 57.5t36.5 61.5q9 11 19 16.5t23 5.5t22.5 -8t9.5 -17q0 -8 -4 -15t-13 -15q-11 -10 -26 -22.5t-98 -74.5q-2 -1 -4.5 -1t-4.5 1q-13 10 -59.5 42t-67.5 51q-9 8 -13.5 15
t-4.5 15q0 10 11 19t26 9q14 0 24.5 -5.5t18.5 -17.5q4 -7 10 -17t19 -33q14 -28 22 -42t15 -25z" />
    <glyph glyph-name="dcaron" unicode="&#x10f;" horiz-adv-x="600" 
d="M33 0zM411 95q-40 -52 -88 -78.5t-102 -26.5q-85 0 -136.5 59.5t-51.5 153.5q0 135 80.5 221t201.5 86q25 0 49 -6t47 -18v176q0 25 -2 40.5t-6 24.5q-5 12 -16 15t-42 -3q-6 -1 -6 3.5t6 5.5q32 6 83.5 26t84.5 39q3 2 11.5 -1t8.5 -6v-687q0 -80 8.5 -95t42.5 -15
q6 0 6 -4.5t-6 -4.5q-54 0 -100 -2.5t-68 -7.5q-6 -1 -9 1t-3 8v3t1 8q3 26 4.5 45.5t1.5 39.5zM286 496q-65 0 -95.5 -57.5t-30.5 -178.5q0 -103 36 -163t99 -60q31 0 60 17.5t56 53.5v298q-23 41 -56 65.5t-69 24.5zM608 731q-10 17 -13 24t-3 13q0 14 20.5 29.5
t38.5 15.5q19 0 31 -26t12 -66t-19 -88t-59 -105q-3 -5 -7.5 -2t-0.5 7q21 35 26.5 54.5t5.5 44.5q0 23 -6.5 45t-25.5 54z" />
    <glyph glyph-name="Dcroat" unicode="&#x110;" horiz-adv-x="731" 
d="M2 0zM93 1q-43 -1 -57 -1h-18q-6 0 -6 4t6 4q38 0 48.5 14.5t14.5 55.5q2 18 3 44t1 68q1 13 0.5 77t-0.5 76q-19 -1 -39 -2t-40 -3q-4 3 -4 13.5t4 14.5q7 -1 15.5 -1.5t28.5 -1.5q14 -1 21.5 -1.5t13.5 -0.5v19v17v46q-1 37 -1 51v20q0 45 -0.5 68t-1.5 38
q-3 38 -13.5 51t-47.5 13q-6 0 -6 4.5t6 4.5h13.5t48.5 -1q56 -1 76.5 -1h25.5h12t34 1q40 1 57 1h26q171 0 277 -94.5t106 -248.5q0 -157 -104 -253.5t-275 -96.5q-10 0 -27.5 0.5t-54.5 1.5q-21 1 -28.5 1h-10.5q-6 0 -27 -0.5t-77 -1.5zM320 10q115 0 173.5 86t58.5 254
q0 162 -61.5 248t-178.5 86h-41q-34 0 -43 -12t-13 -46q-1 -16 -2 -39t-2 -57v-39.5v-56.5v-75q34 1 75.5 3t74.5 4q4 -4 4 -14.5t-4 -13.5q-28 3 -66 4.5t-84 2.5v-186q0 -51 -2 -90.5t-6 -54.5q5 0 13.5 -0.5t27.5 -1.5q30 -1 46 -1.5t30 -0.5z" />
    <glyph glyph-name="dcroat" unicode="&#x111;" horiz-adv-x="600" 
d="M411 95q-40 -52 -88 -78.5t-102 -26.5q-85 0 -136.5 59.5t-51.5 153.5q0 135 80.5 221t201.5 86q25 0 49 -6t47 -18v134q-30 0 -63 -2t-60 -5q-4 3 -4 14t4 15q21 -2 53.5 -3.5t69.5 -2.5v26q0 25 -2 40.5t-6 24.5q-5 12 -16 15t-42 -3q-6 -1 -6 3.5t6 5.5q32 6 83.5 26
t84.5 39q3 2 11.5 -1t8.5 -6v-169q19 1 40 2t41 3q4 -4 4 -15t-4 -14q-18 2 -38.5 3.5t-42.5 2.5v-500q0 -80 8.5 -95t42.5 -15q6 0 6 -4.5t-6 -4.5q-54 0 -100 -2.5t-68 -7.5q-6 -1 -9 1t-3 8v3t1 8q3 26 4.5 45.5t1.5 39.5zM286 496q-65 0 -95.5 -57.5t-30.5 -178.5
q0 -103 36 -163t99 -60q31 0 60 17.5t56 53.5v298q-23 41 -56 65.5t-69 24.5z" />
    <glyph glyph-name="Emacron" unicode="&#x112;" horiz-adv-x="637" 
d="M12 0zM198 3l-180 -3q-6 0 -6 4t6 4q38 0 48.5 14.5t14.5 55.5q1 17 2 43t2 69q1 7 1 72.5v189.5q0 49 -0.5 80t-1.5 52q-2 60 -10.5 80t-41.5 20h-12q-6 0 -6 4.5t6 4.5q8 0 21.5 -0.5t42.5 -1.5q20 -1 27 -1h10h25.5t97.5 1q141 1 195.5 1.5t65.5 0.5q18 0 30.5 -1
t16.5 -3l7 -55.5t20 -165.5l3 -20q0 -5 -4.5 -5t-6.5 5l-3 20q-12 90 -77.5 151.5t-151.5 62.5h-88q-26 0 -32 -12t-7 -51q-1 -12 -1 -28.5v-60.5v-163h47q81 0 119.5 30.5t38.5 96.5v14q0 6 5.5 6t5.5 -6q-2 -49 -3 -89t-1 -61q0 -24 1 -72t3 -83q0 -5 -5.5 -5t-5.5 5v12
q0 72 -39 106.5t-119 34.5h-47v-187q0 -71 -1.5 -107.5t-5.5 -49.5h22h49q37 -1 52.5 -1h23.5q80 0 148 71t79 164l4 35q1 5 6.5 4t4.5 -6l-4 -36q-14 -172 -18 -203t-10 -35q-4 -3 -30 -4t-109 -1q-35 0 -91 1t-133 2zM269 831q15 -1 28 -1h27h1h63.5t38.5 1q29 1 34.5 0.5
t5.5 -1.5q0 -5 -10 -16t-46 -45h-4.5h-11.5q-24 1 -39.5 1h-29.5q-26 0 -53 -1t-32 -1q-22 -1 -31 -0.5t-9 2.5q0 4 8.5 13.5t47.5 47.5h4h8z" />
    <glyph glyph-name="emacron" unicode="&#x113;" 
d="M27 0zM435 38q-38 -25 -75.5 -36.5t-81.5 -11.5q-114 0 -182.5 65.5t-68.5 174.5q0 110 90.5 195t208.5 85q86 0 134 -35t46 -90q-2 -24 -18 -31.5t-58 -7.5h-286q-2 -11 -2.5 -23t-0.5 -25q0 -96 62 -154.5t162 -58.5q84 0 144.5 55t93.5 161q2 6 5 5.5t1 -7.5
q-24 -82 -71 -152.5t-103 -108.5zM379 408q0 37 -25 61t-67 24q-56 0 -93.5 -37.5t-48.5 -103.5q45 1 87 2t93 3q13 1 24 4.5t16 7.5q7 6 10.5 15.5t3.5 23.5zM248 638q15 -1 28 -1h27h1h63.5t38.5 1q29 1 34.5 0.5t5.5 -1.5q0 -5 -10 -16t-46 -45h-4.5h-11.5q-24 1 -39.5 1
h-29.5q-26 0 -53 -1t-32 -1q-22 -1 -31 -0.5t-9 2.5q0 4 8.5 13.5t47.5 47.5h4h8z" />
    <glyph glyph-name="Ebreve" unicode="&#x114;" horiz-adv-x="637" 
d="M12 0zM198 3l-180 -3q-6 0 -6 4t6 4q38 0 48.5 14.5t14.5 55.5q1 17 2 43t2 69q1 7 1 72.5v189.5q0 49 -0.5 80t-1.5 52q-2 60 -10.5 80t-41.5 20h-12q-6 0 -6 4.5t6 4.5q8 0 21.5 -0.5t42.5 -1.5q20 -1 27 -1h10h25.5t97.5 1q141 1 195.5 1.5t65.5 0.5q18 0 30.5 -1
t16.5 -3l7 -55.5t20 -165.5l3 -20q0 -5 -4.5 -5t-6.5 5l-3 20q-12 90 -77.5 151.5t-151.5 62.5h-88q-26 0 -32 -12t-7 -51q-1 -12 -1 -28.5v-60.5v-163h47q81 0 119.5 30.5t38.5 96.5v14q0 6 5.5 6t5.5 -6q-2 -49 -3 -89t-1 -61q0 -24 1 -72t3 -83q0 -5 -5.5 -5t-5.5 5v12
q0 72 -39 106.5t-119 34.5h-47v-187q0 -71 -1.5 -107.5t-5.5 -49.5h22h49q37 -1 52.5 -1h23.5q80 0 148 71t79 164l4 35q1 5 6.5 4t4.5 -6l-4 -36q-14 -172 -18 -203t-10 -35q-4 -3 -30 -4t-109 -1q-35 0 -91 1t-133 2zM452 862q-16 -43 -51 -69t-82 -27q-42 0 -72.5 16.5
t-45.5 48.5q-6 13 -0.5 22.5t22.5 15.5q19 7 31 5t17 -13q20 -42 39 -58t46 -16q29 0 47 19t25 59q1 5 3.5 7t8.5 2t10 -3.5t2 -8.5z" />
    <glyph glyph-name="ebreve" unicode="&#x115;" 
d="M27 0zM435 38q-38 -25 -75.5 -36.5t-81.5 -11.5q-114 0 -182.5 65.5t-68.5 174.5q0 110 90.5 195t208.5 85q86 0 134 -35t46 -90q-2 -24 -18 -31.5t-58 -7.5h-286q-2 -11 -2.5 -23t-0.5 -25q0 -96 62 -154.5t162 -58.5q84 0 144.5 55t93.5 161q2 6 5 5.5t1 -7.5
q-24 -82 -71 -152.5t-103 -108.5zM379 408q0 37 -25 61t-67 24q-56 0 -93.5 -37.5t-48.5 -103.5q45 1 87 2t93 3q13 1 24 4.5t16 7.5q7 6 10.5 15.5t3.5 23.5zM435 669q-16 -43 -51 -69t-82 -27q-42 0 -72.5 16.5t-45.5 48.5q-6 13 -0.5 22.5t22.5 15.5q19 7 31 5t17 -13
q20 -42 39 -58t46 -16q29 0 47 19t25 59q1 5 3.5 7t8.5 2t10 -3.5t2 -8.5z" />
    <glyph glyph-name="Edotaccent" unicode="&#x116;" horiz-adv-x="637" 
d="M12 0zM198 3l-180 -3q-6 0 -6 4t6 4q38 0 48.5 14.5t14.5 55.5q1 17 2 43t2 69q1 7 1 72.5v189.5q0 49 -0.5 80t-1.5 52q-2 60 -10.5 80t-41.5 20h-12q-6 0 -6 4.5t6 4.5q8 0 21.5 -0.5t42.5 -1.5q20 -1 27 -1h10h25.5t97.5 1q141 1 195.5 1.5t65.5 0.5q18 0 30.5 -1
t16.5 -3l7 -55.5t20 -165.5l3 -20q0 -5 -4.5 -5t-6.5 5l-3 20q-12 90 -77.5 151.5t-151.5 62.5h-88q-26 0 -32 -12t-7 -51q-1 -12 -1 -28.5v-60.5v-163h47q81 0 119.5 30.5t38.5 96.5v14q0 6 5.5 6t5.5 -6q-2 -49 -3 -89t-1 -61q0 -24 1 -72t3 -83q0 -5 -5.5 -5t-5.5 5v12
q0 72 -39 106.5t-119 34.5h-47v-187q0 -71 -1.5 -107.5t-5.5 -49.5h22h49q37 -1 52.5 -1h23.5q80 0 148 71t79 164l4 35q1 5 6.5 4t4.5 -6l-4 -36q-14 -172 -18 -203t-10 -35q-4 -3 -30 -4t-109 -1q-35 0 -91 1t-133 2zM318 778q-33 0 -57 24t-24 57q0 34 24 58t57 24
q34 0 58 -24t24 -58t-24 -57.5t-58 -23.5z" />
    <glyph glyph-name="edotaccent" unicode="&#x117;" 
d="M27 0zM435 38q-38 -25 -75.5 -36.5t-81.5 -11.5q-114 0 -182.5 65.5t-68.5 174.5q0 110 90.5 195t208.5 85q86 0 134 -35t46 -90q-2 -24 -18 -31.5t-58 -7.5h-286q-2 -11 -2.5 -23t-0.5 -25q0 -96 62 -154.5t162 -58.5q84 0 144.5 55t93.5 161q2 6 5 5.5t1 -7.5
q-24 -82 -71 -152.5t-103 -108.5zM379 408q0 37 -25 61t-67 24q-56 0 -93.5 -37.5t-48.5 -103.5q45 1 87 2t93 3q13 1 24 4.5t16 7.5q7 6 10.5 15.5t3.5 23.5zM301 585q-33 0 -57 24t-24 57q0 34 24 58t57 24q34 0 58 -24t24 -58t-24 -57.5t-58 -23.5z" />
    <glyph glyph-name="Eogonek" unicode="&#x118;" horiz-adv-x="637" 
d="M198 3l-180 -3q-6 0 -6 4t6 4q38 0 48.5 14.5t14.5 55.5q1 17 2 43t2 69q1 7 1 72.5v189.5q0 49 -0.5 80t-1.5 52q-2 60 -10.5 80t-41.5 20h-12q-6 0 -6 4.5t6 4.5q8 0 21.5 -0.5t42.5 -1.5q20 -1 27 -1h10h25.5t97.5 1q141 1 195.5 1.5t65.5 0.5q18 0 30.5 -1t16.5 -3
l7 -55.5t20 -165.5l3 -20q0 -5 -4.5 -5t-6.5 5l-3 20q-12 90 -77.5 151.5t-151.5 62.5h-88q-26 0 -32 -12t-7 -51q-1 -12 -1 -28.5v-60.5v-163h47q81 0 119.5 30.5t38.5 96.5v14q0 6 5.5 6t5.5 -6q-2 -49 -3 -89t-1 -61q0 -24 1 -72t3 -83q0 -5 -5.5 -5t-5.5 5v12
q0 72 -39 106.5t-119 34.5h-47v-187q0 -71 -1.5 -107.5t-5.5 -49.5h22h49q37 -1 52.5 -1h23.5q80 0 148 71t79 164l4 35q1 5 6.5 4t4.5 -6l-4 -36q-14 -172 -18 -203t-10 -35q-4 -2 -25.5 -3.5t-52.5 -1.5q-33 -25 -48.5 -50.5t-15.5 -53.5q0 -26 17.5 -41t47.5 -15
q16 0 32 5t28 14q6 5 -5 -35t-24 -49q-12 -9 -26.5 -13.5t-34.5 -4.5q-41 0 -65 23.5t-24 61.5t27 79.5t76 78.5h-46q-35 0 -91 1t-133 2z" />
    <glyph glyph-name="eogonek" unicode="&#x119;" 
d="M423 -226q-16 -9 -30 -13t-31 -4q-41 0 -65 23.5t-24 61.5q0 40 25.5 81t75.5 82q-23 -8 -46.5 -11.5t-49.5 -3.5q-114 0 -182.5 65.5t-68.5 174.5q0 110 90.5 195t208.5 85q86 0 134 -35t46 -90q-2 -24 -18 -31.5t-58 -7.5h-286q-2 -11 -2.5 -23t-0.5 -25
q0 -96 62 -154.5t162 -58.5q84 0 144.5 55t93.5 161q2 6 5 5.5t1 -7.5q-17 -57 -46 -110.5t-65 -94.5q-12 -13 -27.5 -26.5t-48.5 -37.5q-21 -15 -30 -22.5t-16 -13.5q-25 -23 -37 -47t-12 -51q0 -26 17.5 -41t47.5 -15q16 0 32 5t28 14q6 5 -5 -35.5t-24 -49.5zM379 408
q0 37 -25 61t-67 24q-56 0 -93.5 -37.5t-48.5 -103.5q45 1 87 2t93 3q13 1 24 4.5t16 7.5q7 6 10.5 15.5t3.5 23.5z" />
    <glyph glyph-name="Ecaron" unicode="&#x11a;" horiz-adv-x="637" 
d="M12 0zM198 3l-180 -3q-6 0 -6 4t6 4q38 0 48.5 14.5t14.5 55.5q1 17 2 43t2 69q1 7 1 72.5v189.5q0 49 -0.5 80t-1.5 52q-2 60 -10.5 80t-41.5 20h-12q-6 0 -6 4.5t6 4.5q8 0 21.5 -0.5t42.5 -1.5q20 -1 27 -1h10h25.5t97.5 1q141 1 195.5 1.5t65.5 0.5q18 0 30.5 -1
t16.5 -3l7 -55.5t20 -165.5l3 -20q0 -5 -4.5 -5t-6.5 5l-3 20q-12 90 -77.5 151.5t-151.5 62.5h-88q-26 0 -32 -12t-7 -51q-1 -12 -1 -28.5v-60.5v-163h47q81 0 119.5 30.5t38.5 96.5v14q0 6 5.5 6t5.5 -6q-2 -49 -3 -89t-1 -61q0 -24 1 -72t3 -83q0 -5 -5.5 -5t-5.5 5v12
q0 72 -39 106.5t-119 34.5h-47v-187q0 -71 -1.5 -107.5t-5.5 -49.5h22h49q37 -1 52.5 -1h23.5q80 0 148 71t79 164l4 35q1 5 6.5 4t4.5 -6l-4 -36q-14 -172 -18 -203t-10 -35q-4 -3 -30 -4t-109 -1q-35 0 -91 1t-133 2zM317 761q2 -2 4 -2t3 2q6 11 31.5 57.5t36.5 61.5
q9 11 19 16.5t23 5.5t22.5 -8t9.5 -17q0 -8 -4 -15t-13 -15q-11 -10 -26 -22.5t-98 -74.5q-2 -1 -4.5 -1t-4.5 1q-13 10 -59.5 42t-67.5 51q-9 8 -13.5 15t-4.5 15q0 10 11 19t26 9q14 0 24.5 -5.5t18.5 -17.5q4 -7 10 -17t19 -33q14 -28 22 -42t15 -25z" />
    <glyph glyph-name="ecaron" unicode="&#x11b;" 
d="M27 0zM435 38q-38 -25 -75.5 -36.5t-81.5 -11.5q-114 0 -182.5 65.5t-68.5 174.5q0 110 90.5 195t208.5 85q86 0 134 -35t46 -90q-2 -24 -18 -31.5t-58 -7.5h-286q-2 -11 -2.5 -23t-0.5 -25q0 -96 62 -154.5t162 -58.5q84 0 144.5 55t93.5 161q2 6 5 5.5t1 -7.5
q-24 -82 -71 -152.5t-103 -108.5zM379 408q0 37 -25 61t-67 24q-56 0 -93.5 -37.5t-48.5 -103.5q45 1 87 2t93 3q13 1 24 4.5t16 7.5q7 6 10.5 15.5t3.5 23.5zM300 568q2 -2 4 -2t3 2q6 11 31.5 57.5t36.5 61.5q9 11 19 16.5t23 5.5t22.5 -8t9.5 -17q0 -8 -4 -15t-13 -15
q-11 -10 -26 -22.5t-98 -74.5q-2 -1 -4.5 -1t-4.5 1q-13 10 -59.5 42t-67.5 51q-9 8 -13.5 15t-4.5 15q0 10 11 19t26 9q14 0 24.5 -5.5t18.5 -17.5q4 -7 10 -17t19 -33q14 -28 22 -42t15 -25z" />
    <glyph glyph-name="Gcircumflex" unicode="&#x11c;" horiz-adv-x="763" 
d="M34 0zM546 10q-46 -12 -75 -16t-57 -4q-168 0 -274 97.5t-106 255.5q0 161 112.5 260.5t287.5 99.5q58 0 123 -10.5t116 -27.5q4 -1 5.5 -4t1.5 -8q2 -29 5.5 -105t5.5 -127q0 -5 -4 -5t-5 5q-8 58 -24.5 106t-40.5 82q-31 43 -75.5 64t-105.5 21q-119 0 -187.5 -93.5
t-68.5 -254.5q0 -166 60.5 -256.5t172.5 -90.5q44 0 87.5 12t71.5 32q2 5 2.5 19.5t0.5 73.5v47.5t-1 16.5q-4 43 -12.5 66t-24.5 32q-17 3 -69 5.5t-142 4.5q-3 0 -3 3.5t4 3.5q104 0 193 2.5t179 8.5q2 0 4 -2.5t2 -5.5v-323q0 -1 -4.5 -1t-5.5 1q-47 18 -63.5 22t-31.5 4
q-8 0 -18.5 -2t-35.5 -9zM443 896q-1 3 -3 3t-4 -3q-5 -9 -30.5 -55.5t-37.5 -62.5q-9 -11 -19 -16.5t-23 -5.5q-14 0 -23 8t-9 17q0 8 4 15t13 15q11 10 26 22.5t98 74.5q2 1 4.5 1t4.5 -1q13 -9 59 -42t68 -51q9 -8 13.5 -15t4.5 -15q0 -10 -10.5 -19t-26.5 -9
q-15 0 -25 5.5t-18 17.5q-4 7 -10 17t-19 33q-14 27 -22 41t-15 25z" />
    <glyph glyph-name="gcircumflex" unicode="&#x11d;" horiz-adv-x="524" 
d="M3 0zM398 -215q-49 -34 -106 -51.5t-115 -17.5q-83 -1 -128.5 30t-45.5 85q0 42 39.5 80t111.5 66q-64 3 -97 23t-33 56q0 35 34 64t94 47q-58 16 -88.5 56t-30.5 101q0 76 63 126.5t162 54.5q34 1 78.5 7.5t122.5 22.5q31 6 42 8t16 2q13 2 24.5 -3.5t11.5 -15.5
q0 -17 -17 -33t-38 -16q-5 0 -16 1.5t-43 5.5q-64 9 -97 12.5t-56 3.5v-2q87 -13 134 -56.5t47 -110.5q0 -79 -63 -127t-165 -48q-19 0 -38.5 2t-36.5 6q-36 -9 -52.5 -20.5t-16.5 -27.5q0 -19 23 -27.5t80 -8.5h156q85 0 126.5 -26t41.5 -79q0 -49 -33 -100t-91 -90z
M162 335q0 -81 23 -126t65 -45q45 0 67.5 42t22.5 125q0 80 -22.5 122.5t-64.5 42.5q-46 0 -68.5 -39.5t-22.5 -121.5zM78 -108q0 -44 46 -67t135 -23q101 0 167 33.5t66 81.5q0 33 -34.5 46.5t-119.5 13.5h-173q-42 -17 -64.5 -38.5t-22.5 -46.5zM256 703q-1 3 -3 3t-4 -3
q-5 -9 -30.5 -55.5t-37.5 -62.5q-9 -11 -19 -16.5t-23 -5.5q-14 0 -23 8t-9 17q0 8 4 15t13 15q11 10 26 22.5t98 74.5q2 1 4.5 1t4.5 -1q13 -9 59 -42t68 -51q9 -8 13.5 -15t4.5 -15q0 -10 -10.5 -19t-26.5 -9q-15 0 -25 5.5t-18 17.5q-4 7 -10 17t-19 33q-14 27 -22 41
t-15 25z" />
    <glyph glyph-name="Gbreve" unicode="&#x11e;" horiz-adv-x="763" 
d="M34 0zM546 10q-46 -12 -75 -16t-57 -4q-168 0 -274 97.5t-106 255.5q0 161 112.5 260.5t287.5 99.5q58 0 123 -10.5t116 -27.5q4 -1 5.5 -4t1.5 -8q2 -29 5.5 -105t5.5 -127q0 -5 -4 -5t-5 5q-8 58 -24.5 106t-40.5 82q-31 43 -75.5 64t-105.5 21q-119 0 -187.5 -93.5
t-68.5 -254.5q0 -166 60.5 -256.5t172.5 -90.5q44 0 87.5 12t71.5 32q2 5 2.5 19.5t0.5 73.5v47.5t-1 16.5q-4 43 -12.5 66t-24.5 32q-17 3 -69 5.5t-142 4.5q-3 0 -3 3.5t4 3.5q104 0 193 2.5t179 8.5q2 0 4 -2.5t2 -5.5v-323q0 -1 -4.5 -1t-5.5 1q-47 18 -63.5 22t-31.5 4
q-8 0 -18.5 -2t-35.5 -9zM575 862q-16 -43 -51 -69t-82 -27q-42 0 -72.5 16.5t-45.5 48.5q-6 13 -0.5 22.5t22.5 15.5q19 7 31 5t17 -13q20 -42 39 -58t46 -16q29 0 47 19t25 59q1 5 3.5 7t8.5 2t10 -3.5t2 -8.5z" />
    <glyph glyph-name="gbreve" unicode="&#x11f;" horiz-adv-x="524" 
d="M3 0zM398 -215q-49 -34 -106 -51.5t-115 -17.5q-83 -1 -128.5 30t-45.5 85q0 42 39.5 80t111.5 66q-64 3 -97 23t-33 56q0 35 34 64t94 47q-58 16 -88.5 56t-30.5 101q0 76 63 126.5t162 54.5q34 1 78.5 7.5t122.5 22.5q31 6 42 8t16 2q13 2 24.5 -3.5t11.5 -15.5
q0 -17 -17 -33t-38 -16q-5 0 -16 1.5t-43 5.5q-64 9 -97 12.5t-56 3.5v-2q87 -13 134 -56.5t47 -110.5q0 -79 -63 -127t-165 -48q-19 0 -38.5 2t-36.5 6q-36 -9 -52.5 -20.5t-16.5 -27.5q0 -19 23 -27.5t80 -8.5h156q85 0 126.5 -26t41.5 -79q0 -49 -33 -100t-91 -90z
M162 335q0 -81 23 -126t65 -45q45 0 67.5 42t22.5 125q0 80 -22.5 122.5t-64.5 42.5q-46 0 -68.5 -39.5t-22.5 -121.5zM78 -108q0 -44 46 -67t135 -23q101 0 167 33.5t66 81.5q0 33 -34.5 46.5t-119.5 13.5h-173q-42 -17 -64.5 -38.5t-22.5 -46.5zM389 669q-16 -43 -51 -69
t-82 -27q-42 0 -72.5 16.5t-45.5 48.5q-6 13 -0.5 22.5t22.5 15.5q19 7 31 5t17 -13q20 -42 39 -58t46 -16q29 0 47 19t25 59q1 5 3.5 7t8.5 2t10 -3.5t2 -8.5z" />
    <glyph glyph-name="Gdotaccent" unicode="&#x120;" horiz-adv-x="763" 
d="M34 0zM546 10q-46 -12 -75 -16t-57 -4q-168 0 -274 97.5t-106 255.5q0 161 112.5 260.5t287.5 99.5q58 0 123 -10.5t116 -27.5q4 -1 5.5 -4t1.5 -8q2 -29 5.5 -105t5.5 -127q0 -5 -4 -5t-5 5q-8 58 -24.5 106t-40.5 82q-31 43 -75.5 64t-105.5 21q-119 0 -187.5 -93.5
t-68.5 -254.5q0 -166 60.5 -256.5t172.5 -90.5q44 0 87.5 12t71.5 32q2 5 2.5 19.5t0.5 73.5v47.5t-1 16.5q-4 43 -12.5 66t-24.5 32q-17 3 -69 5.5t-142 4.5q-3 0 -3 3.5t4 3.5q104 0 193 2.5t179 8.5q2 0 4 -2.5t2 -5.5v-323q0 -1 -4.5 -1t-5.5 1q-47 18 -63.5 22t-31.5 4
q-8 0 -18.5 -2t-35.5 -9zM441 778q-33 0 -57 24t-24 57q0 34 24 58t57 24q34 0 58 -24t24 -58t-24 -57.5t-58 -23.5z" />
    <glyph glyph-name="gdotaccent" unicode="&#x121;" horiz-adv-x="524" 
d="M3 0zM398 -215q-49 -34 -106 -51.5t-115 -17.5q-83 -1 -128.5 30t-45.5 85q0 42 39.5 80t111.5 66q-64 3 -97 23t-33 56q0 35 34 64t94 47q-58 16 -88.5 56t-30.5 101q0 76 63 126.5t162 54.5q34 1 78.5 7.5t122.5 22.5q31 6 42 8t16 2q13 2 24.5 -3.5t11.5 -15.5
q0 -17 -17 -33t-38 -16q-5 0 -16 1.5t-43 5.5q-64 9 -97 12.5t-56 3.5v-2q87 -13 134 -56.5t47 -110.5q0 -79 -63 -127t-165 -48q-19 0 -38.5 2t-36.5 6q-36 -9 -52.5 -20.5t-16.5 -27.5q0 -19 23 -27.5t80 -8.5h156q85 0 126.5 -26t41.5 -79q0 -49 -33 -100t-91 -90z
M162 335q0 -81 23 -126t65 -45q45 0 67.5 42t22.5 125q0 80 -22.5 122.5t-64.5 42.5q-46 0 -68.5 -39.5t-22.5 -121.5zM78 -108q0 -44 46 -67t135 -23q101 0 167 33.5t66 81.5q0 33 -34.5 46.5t-119.5 13.5h-173q-42 -17 -64.5 -38.5t-22.5 -46.5zM254 585q-33 0 -57 24
t-24 57q0 34 24 58t57 24q34 0 58 -24t24 -58t-24 -57.5t-58 -23.5z" />
    <glyph glyph-name="uni0122" unicode="&#x122;" horiz-adv-x="763" 
d="M34 0zM546 10q-46 -12 -75 -16t-57 -4q-168 0 -274 97.5t-106 255.5q0 161 112.5 260.5t287.5 99.5q58 0 123 -10.5t116 -27.5q4 -1 5.5 -4t1.5 -8q2 -29 5.5 -105t5.5 -127q0 -5 -4 -5t-5 5q-8 58 -24.5 106t-40.5 82q-31 43 -75.5 64t-105.5 21q-119 0 -187.5 -93.5
t-68.5 -254.5q0 -166 60.5 -256.5t172.5 -90.5q44 0 87.5 12t71.5 32q2 5 2.5 19.5t0.5 73.5v47.5t-1 16.5q-4 43 -12.5 66t-24.5 32q-17 3 -69 5.5t-142 4.5q-3 0 -3 3.5t4 3.5q104 0 193 2.5t179 8.5q2 0 4 -2.5t2 -5.5v-323q0 -1 -4.5 -1t-5.5 1q-47 18 -63.5 22t-31.5 4
q-8 0 -18.5 -2t-35.5 -9zM487 -152q0 -46 -30.5 -82t-66.5 -46q-4 -1 -5 0.5t3 3.5q32 15 47.5 39t15.5 57v10.5t-1 6.5q-7 -7 -16.5 -11t-20.5 -4q-23 0 -39 15.5t-16 38.5q0 25 17 42t44 17q32 0 50 -23.5t18 -63.5z" />
    <glyph glyph-name="uni0123" unicode="&#x123;" horiz-adv-x="524" 
d="M3 0zM398 -215q-49 -34 -106 -51.5t-115 -17.5q-83 -1 -128.5 30t-45.5 85q0 42 39.5 80t111.5 66q-64 3 -97 23t-33 56q0 35 34 64t94 47q-58 16 -88.5 56t-30.5 101q0 76 63 126.5t162 54.5q34 1 78.5 7.5t122.5 22.5q31 6 42 8t16 2q13 2 24.5 -3.5t11.5 -15.5
q0 -17 -17 -33t-38 -16q-5 0 -16 1.5t-43 5.5q-64 9 -97 12.5t-56 3.5v-2q87 -13 134 -56.5t47 -110.5q0 -79 -63 -127t-165 -48q-19 0 -38.5 2t-36.5 6q-36 -9 -52.5 -20.5t-16.5 -27.5q0 -19 23 -27.5t80 -8.5h156q85 0 126.5 -26t41.5 -79q0 -49 -33 -100t-91 -90z
M162 335q0 -81 23 -126t65 -45q45 0 67.5 42t22.5 125q0 80 -22.5 122.5t-64.5 42.5q-46 0 -68.5 -39.5t-22.5 -121.5zM78 -108q0 -44 46 -67t135 -23q101 0 167 33.5t66 81.5q0 33 -34.5 46.5t-119.5 13.5h-173q-42 -17 -64.5 -38.5t-22.5 -46.5zM185 664q0 47 32.5 87
t78.5 55q4 2 5.5 -0.5t-2.5 -4.5q-36 -16 -53.5 -42t-17.5 -63v-9q8 5 16 7.5t18 2.5q27 0 44.5 -17t17.5 -43q0 -27 -18.5 -46t-46.5 -19q-34 0 -54 25t-20 67z" />
    <glyph glyph-name="Hcircumflex" unicode="&#x124;" horiz-adv-x="713" 
d="M16 0zM85 236v216q0 51 -0.5 81t-0.5 51q-3 60 -11.5 80t-40.5 20h-10q-6 0 -6 4.5t6 4.5q8 0 25 -0.5t55 -1.5q26 -1 35 -1h12h12t34 1q41 1 58 1.5t26 0.5q6 0 6 -4.5t-6 -4.5h-14q-33 0 -42 -20t-11 -80q-1 -22 -1.5 -53t-0.5 -79v-97l145 1l150 -2v98q0 48 -0.5 79
t-1.5 53q-3 59 -12 79.5t-42 20.5h-17q-6 0 -6 4.5t6 4.5q9 0 26.5 -0.5t59.5 -1.5q26 -1 35.5 -1h12.5h12t33 1q39 1 55.5 1.5t25.5 0.5q6 0 6 -4.5t-6 -4.5h-11q-31 0 -39.5 -20t-10.5 -81q0 -20 -0.5 -49.5t-0.5 -81.5v-216v-49v-38q1 -29 2 -49.5t2 -35.5
q4 -32 12.5 -43.5t36.5 -11.5h9q6 0 6 -4.5t-6 -4.5q-9 0 -25.5 0.5t-53.5 1.5q-24 1 -32.5 1h-11.5h-13t-38 -1q-43 -1 -61.5 -1.5t-27.5 -0.5q-6 0 -6 4.5t6 4.5h21q29 0 37.5 11.5t12.5 42.5q2 14 3 35t1 52q1 16 1 37v49v108l-149 -2q-34 0 -72 0.5t-74 1.5v-108v-49.5
v-37.5q1 -30 2 -50.5t3 -34.5q3 -32 11.5 -43.5t37.5 -11.5h20q6 0 6 -4.5t-6 -4.5q-9 0 -27 0.5t-61 1.5q-28 1 -37 1h-12h-12t-34 -1q-38 -1 -54.5 -1.5t-24.5 -0.5q-6 0 -6 4.5t6 4.5h9q29 0 37.5 11.5t11.5 42.5q2 15 3 35.5t2 51.5v37v49zM358 896q-1 3 -3 3t-4 -3
q-5 -9 -30.5 -55.5t-37.5 -62.5q-9 -11 -19 -16.5t-23 -5.5q-14 0 -23 8t-9 17q0 8 4 15t13 15q11 10 26 22.5t98 74.5q2 1 4.5 1t4.5 -1q13 -9 59 -42t68 -51q9 -8 13.5 -15t4.5 -15q0 -10 -10.5 -19t-26.5 -9q-15 0 -25 5.5t-18 17.5q-4 7 -10 17t-19 33q-14 27 -22 41
t-15 25z" />
    <glyph glyph-name="hcircumflex" unicode="&#x125;" horiz-adv-x="590" 
d="M0 0zM95 1q-38 -1 -54.5 -1h-25.5q-6 0 -6 4.5t6 4.5q33 0 41 18.5t8 91.5v550q0 25 -2 40.5t-6 24.5q-5 12 -16 15t-41 -2q-6 -1 -6 3.5t6 5.5q37 7 91 25t80 32q3 2 10.5 -1t7.5 -6v-406q44 56 88.5 83t93.5 27q79 0 119 -50.5t40 -151.5v-228q0 -42 8 -57t40 -14
q6 0 6 -4.5t-6 -4.5h-11t-39 1q-47 0 -65 0.5t-23 0.5h-9t-21 -1q-24 -1 -35.5 -1h-20.5q-6 0 -6 4.5t6 4.5q36 0 44 19t8 81v203q-1 74 -25.5 111.5t-72.5 37.5q-34 0 -61.5 -17t-57.5 -57v-378h60q6 0 6 -4.5t-6 -4.5h-18.5t-43.5 1q-24 1 -33 1h-13h-11.5t-33.5 -1z
M127 970q-1 3 -3 3t-4 -3q-5 -9 -30.5 -55.5t-37.5 -62.5q-9 -11 -19 -16.5t-23 -5.5q-14 0 -23 8t-9 17q0 8 4 15t13 15q11 10 26 22.5t98 74.5q2 1 4.5 1t4.5 -1q13 -9 59 -42t68 -51q9 -8 13.5 -15t4.5 -15q0 -10 -10.5 -19t-26.5 -9q-15 0 -25 5.5t-18 17.5q-4 7 -10 17
t-19 33q-14 27 -22 41t-15 25z" />
    <glyph glyph-name="Hbar" unicode="&#x126;" horiz-adv-x="713" 
d="M683 9h9q6 0 6 -4.5t-6 -4.5q-9 0 -25.5 0.5t-53.5 1.5q-24 1 -32.5 1h-11.5h-13t-38 -1q-43 -1 -61.5 -1.5t-27.5 -0.5q-6 0 -6 4.5t6 4.5h21q29 0 37.5 11.5t12.5 42.5q2 14 3 35t1 52q1 16 1 37v49v108l-149 -2q-34 0 -72 0.5t-74 1.5v-108v-49.5v-37.5q1 -30 2 -50.5
t3 -34.5q3 -32 11.5 -43.5t37.5 -11.5h20q6 0 6 -4.5t-6 -4.5q-9 0 -27 0.5t-61 1.5q-28 1 -37 1h-12h-12t-34 -1q-38 -1 -54.5 -1.5t-24.5 -0.5q-6 0 -6 4.5t6 4.5h9q29 0 37.5 11.5t11.5 42.5q2 15 3 35.5t2 51.5v37v49v300q-19 -1 -35.5 -1.5t-29.5 -1.5q-5 3 -5 13.5
t5 14.5q12 -1 28 -1.5t36 -1.5q0 28 -1.5 46.5t-2.5 31.5q-4 28 -13 38t-35 10h-10q-6 0 -6 4.5t6 4.5q8 0 25 -0.5t55 -1.5q26 -1 35 -1h12h12t34 1q41 1 58 1.5t26 0.5q6 0 6 -4.5t-6 -4.5h-14q-27 0 -36 -10.5t-13 -38.5q-2 -13 -3 -32.5t-2 -47.5q26 -1 56.5 -1h87.5
h25.5h43.5q33 1 49.5 1h30.5q-1 28 -2 47.5t-3 32.5q-5 28 -14 38.5t-36 10.5h-17q-6 0 -6 4.5t6 4.5q9 0 26.5 -0.5t59.5 -1.5q26 -1 35.5 -1h12.5h12t33 1q39 1 55.5 1.5t25.5 0.5q6 0 6 -4.5t-6 -4.5h-11q-26 0 -34.5 -10t-11.5 -38q-2 -13 -3 -32t-1 -46q23 1 37.5 1.5
t24.5 1.5q5 -4 5 -14.5t-5 -13.5q-14 1 -30 1.5t-33 1.5v-300v-49v-38q1 -29 2 -49.5t2 -35.5q4 -32 12.5 -43.5t36.5 -11.5zM210 355l145 1l150 -2v98v57t-1 30l-93 1.5t-55 0.5h-25h-43q-31 -1 -47 -1h-30q-1 -13 -1 -30.5v-57.5v-97z" />
    <glyph glyph-name="hbar" unicode="&#x127;" horiz-adv-x="590" 
d="M95 1q-38 -1 -54.5 -1h-25.5q-6 0 -6 4.5t6 4.5q33 0 41 18.5t8 91.5v500q-23 -1 -44 -2.5t-37 -3.5q-5 3 -5 14t5 15q16 -2 36.5 -3.5t44.5 -2.5v33q0 25 -2 40.5t-6 24.5q-5 12 -16 15t-41 -2q-6 -1 -6 3.5t6 5.5q37 7 91 25t80 32q3 2 10.5 -1t7.5 -6v-170
q39 1 74 2.5t60 3.5q4 -4 4 -15t-4 -14q-25 3 -58 5t-76 3v-221q44 56 88.5 83t93.5 27q79 0 119 -50.5t40 -151.5v-228q0 -42 8 -57t40 -14q6 0 6 -4.5t-6 -4.5h-11t-39 1q-47 0 -65 0.5t-23 0.5h-9t-21 -1q-24 -1 -35.5 -1h-20.5q-6 0 -6 4.5t6 4.5q36 0 44 19t8 81v203
q-1 74 -25.5 111.5t-72.5 37.5q-34 0 -61.5 -17t-57.5 -57v-378h60q6 0 6 -4.5t-6 -4.5h-18.5t-43.5 1q-24 1 -33 1h-13h-11.5t-33.5 -1z" />
    <glyph glyph-name="Itilde" unicode="&#x128;" horiz-adv-x="317" 
d="M9 0zM96 259v175v53.5v40.5q-1 33 -2 55.5t-2 38.5q-4 36 -12 49t-38 13h-23q-6 0 -6 4.5t6 4.5q9 0 24.5 -0.5t50.5 -1.5q22 -1 30 -1h11h14.5t45.5 1q52 1 73.5 1.5t29.5 0.5q6 0 6 -4.5t-6 -4.5h-23q-30 0 -38 -13t-12 -49q-1 -16 -2 -38.5t-2 -55.5v-40.5v-53.5v-175
v-53.5v-40.5q1 -33 2 -55.5t2 -38.5q4 -36 12 -49t38 -13h23q6 0 6 -4.5t-6 -4.5q-8 0 -29.5 0.5t-73.5 1.5q-34 1 -45.5 1h-14.5h-11t-30 -1q-35 -1 -50.5 -1.5t-24.5 -0.5q-6 0 -6 4.5t6 4.5h23q30 0 38 13t12 49q1 16 2 38.5t2 55.5v40.5v53.5zM17 764q-2 -3 -5.5 -2
t-2.5 5q20 53 45 81t54 28q10 0 25.5 -3.5t49.5 -15.5t49.5 -16t26.5 -4q19 0 30.5 11.5t23.5 43.5q2 4 6 3t2 -5q-19 -60 -44.5 -90.5t-56.5 -30.5q-14 0 -32 4.5t-53 17.5q-30 12 -43.5 15.5t-23.5 3.5q-19 0 -30.5 -11t-20.5 -35z" />
    <glyph glyph-name="itilde" unicode="&#x129;" horiz-adv-x="263" 
d="M0 0zM88 1q-38 -1 -55 -1h-26q-6 0 -6 4.5t6 4.5q41 0 52 16.5t11 84.5v257q0 52 -9 64.5t-50 3.5q-6 -1 -7.5 3t4.5 5q34 7 82.5 27t84.5 40q3 2 10.5 -1t7.5 -6v-393q0 -68 11 -84.5t51 -16.5q6 0 6 -4.5t-6 -4.5h-25t-53 1q-23 1 -31.5 1h-11.5h-12t-34 -1zM-12 571
q-2 -3 -5.5 -2t-2.5 5q20 53 45 81t54 28q10 0 25.5 -3.5t49.5 -15.5t49.5 -16t26.5 -4q19 0 30.5 11.5t23.5 43.5q2 4 6 3t2 -5q-19 -60 -44.5 -90.5t-56.5 -30.5q-14 0 -32 4.5t-53 17.5q-30 12 -43.5 15.5t-23.5 3.5q-19 0 -30.5 -11t-20.5 -35z" />
    <glyph glyph-name="Imacron" unicode="&#x12a;" horiz-adv-x="317" 
d="M13 0zM96 259v175v53.5v40.5q-1 33 -2 55.5t-2 38.5q-4 36 -12 49t-38 13h-23q-6 0 -6 4.5t6 4.5q9 0 24.5 -0.5t50.5 -1.5q22 -1 30 -1h11h14.5t45.5 1q52 1 73.5 1.5t29.5 0.5q6 0 6 -4.5t-6 -4.5h-23q-30 0 -38 -13t-12 -49q-1 -16 -2 -38.5t-2 -55.5v-40.5v-53.5
v-175v-53.5v-40.5q1 -33 2 -55.5t2 -38.5q4 -36 12 -49t38 -13h23q6 0 6 -4.5t-6 -4.5q-8 0 -29.5 0.5t-73.5 1.5q-34 1 -45.5 1h-14.5h-11t-30 -1q-35 -1 -50.5 -1.5t-24.5 -0.5q-6 0 -6 4.5t6 4.5h23q30 0 38 13t12 49q1 16 2 38.5t2 55.5v40.5v53.5zM105 831q15 -1 28 -1
h27h1h63.5t38.5 1q29 1 34.5 0.5t5.5 -1.5q0 -5 -10 -16t-46 -45h-4.5h-11.5q-24 1 -39.5 1h-29.5q-26 0 -53 -1t-32 -1q-22 -1 -31 -0.5t-9 2.5q0 4 8.5 13.5t47.5 47.5h4h8z" />
    <glyph glyph-name="imacron" unicode="&#x12b;" horiz-adv-x="263" 
d="M1 0zM88 1q-38 -1 -55 -1h-26q-6 0 -6 4.5t6 4.5q41 0 52 16.5t11 84.5v257q0 52 -9 64.5t-50 3.5q-6 -1 -7.5 3t4.5 5q34 7 82.5 27t84.5 40q3 2 10.5 -1t7.5 -6v-393q0 -68 11 -84.5t51 -16.5q6 0 6 -4.5t-6 -4.5h-25t-53 1q-23 1 -31.5 1h-11.5h-12t-34 -1zM77 638
q15 -1 28 -1h27h1h63.5t38.5 1q29 1 34.5 0.5t5.5 -1.5q0 -5 -10 -16t-46 -45h-4.5h-11.5q-24 1 -39.5 1h-29.5q-26 0 -53 -1t-32 -1q-22 -1 -31 -0.5t-9 2.5q0 4 8.5 13.5t47.5 47.5h4h8z" />
    <glyph glyph-name="Ibreve" unicode="&#x12c;" horiz-adv-x="317" 
d="M13 0zM96 259v175v53.5v40.5q-1 33 -2 55.5t-2 38.5q-4 36 -12 49t-38 13h-23q-6 0 -6 4.5t6 4.5q9 0 24.5 -0.5t50.5 -1.5q22 -1 30 -1h11h14.5t45.5 1q52 1 73.5 1.5t29.5 0.5q6 0 6 -4.5t-6 -4.5h-23q-30 0 -38 -13t-12 -49q-1 -16 -2 -38.5t-2 -55.5v-40.5v-53.5
v-175v-53.5v-40.5q1 -33 2 -55.5t2 -38.5q4 -36 12 -49t38 -13h23q6 0 6 -4.5t-6 -4.5q-8 0 -29.5 0.5t-73.5 1.5q-34 1 -45.5 1h-14.5h-11t-30 -1q-35 -1 -50.5 -1.5t-24.5 -0.5q-6 0 -6 4.5t6 4.5h23q30 0 38 13t12 49q1 16 2 38.5t2 55.5v40.5v53.5zM292 862
q-16 -43 -51 -69t-82 -27q-42 0 -72.5 16.5t-45.5 48.5q-6 13 -0.5 22.5t22.5 15.5q19 7 31 5t17 -13q20 -42 39 -58t46 -16q29 0 47 19t25 59q1 5 3.5 7t8.5 2t10 -3.5t2 -8.5z" />
    <glyph glyph-name="ibreve" unicode="&#x12d;" horiz-adv-x="263" 
d="M1 0zM88 1q-38 -1 -55 -1h-26q-6 0 -6 4.5t6 4.5q41 0 52 16.5t11 84.5v257q0 52 -9 64.5t-50 3.5q-6 -1 -7.5 3t4.5 5q34 7 82.5 27t84.5 40q3 2 10.5 -1t7.5 -6v-393q0 -68 11 -84.5t51 -16.5q6 0 6 -4.5t-6 -4.5h-25t-53 1q-23 1 -31.5 1h-11.5h-12t-34 -1zM264 669
q-16 -43 -51 -69t-82 -27q-42 0 -72.5 16.5t-45.5 48.5q-6 13 -0.5 22.5t22.5 15.5q19 7 31 5t17 -13q20 -42 39 -58t46 -16q29 0 47 19t25 59q1 5 3.5 7t8.5 2t10 -3.5t2 -8.5z" />
    <glyph glyph-name="Iogonek" unicode="&#x12e;" horiz-adv-x="317" 
d="M142 -104q0 -26 17.5 -41t47.5 -15q16 0 32 5t28 14q6 5 -5 -35t-24 -49q-12 -9 -26.5 -13.5t-34.5 -4.5q-41 0 -65 23.5t-24 61.5t27.5 79.5t77.5 80.5h-20.5t-26.5 1h-8h-3h-11t-30 -1q-35 -1 -50.5 -1.5t-24.5 -0.5q-6 0 -6 4.5t6 4.5h23q30 0 38 13t12 49
q1 16 2 38.5t2 55.5v40.5v53.5v175v53.5v40.5q-1 33 -2 55.5t-2 38.5q-4 36 -12 49t-38 13h-23q-6 0 -6 4.5t6 4.5q9 0 24.5 -0.5t50.5 -1.5q22 -1 30 -1h11h14.5t45.5 1q52 1 73.5 1.5t29.5 0.5q6 0 6 -4.5t-6 -4.5h-23q-30 0 -38 -13t-12 -49q-1 -16 -2 -38.5t-2 -55.5
v-40.5v-53.5v-175v-53.5v-40.5q1 -33 2 -55.5t2 -38.5q4 -36 12 -49t38 -13h23q6 0 6 -4.5t-6 -4.5q-9 0 -32 0.5t-58 1.5q-34 -26 -50 -51.5t-16 -54.5z" />
    <glyph glyph-name="iogonek" unicode="&#x12f;" horiz-adv-x="263" 
d="M207 666q0 -33 -24 -57t-58 -24t-58 24t-24 57q0 34 24 58t58 24t58 -24t24 -58zM90 1q-38 -1 -54.5 -1h-25.5q-6 0 -6 4.5t6 4.5q39 0 49.5 15t10.5 86v257q0 52 -9 64.5t-50 3.5q-6 -1 -7.5 3t4.5 5q34 7 83.5 27t84.5 40q3 2 10.5 -1t7.5 -6v-393q0 -71 10.5 -86
t48.5 -15q6 0 6 -4.5t-6 -4.5h-9.5h-18.5q-19 1 -28.5 1h-17.5q-33 -26 -49 -51.5t-16 -53.5q0 -26 17.5 -41t47.5 -15q16 0 32 5t28 14q6 5 -5 -35t-24 -49q-12 -9 -26.5 -13.5t-34.5 -4.5q-41 0 -65 23.5t-24 61.5t28 80t77 79q-7 0 -14.5 0.5t-16.5 0.5h-11.5t-32.5 -1z
" />
    <glyph glyph-name="Idotaccent" unicode="&#x130;" horiz-adv-x="317" 
d="M13 0zM96 259v175v53.5v40.5q-1 33 -2 55.5t-2 38.5q-4 36 -12 49t-38 13h-23q-6 0 -6 4.5t6 4.5q9 0 24.5 -0.5t50.5 -1.5q22 -1 30 -1h11h14.5t45.5 1q52 1 73.5 1.5t29.5 0.5q6 0 6 -4.5t-6 -4.5h-23q-30 0 -38 -13t-12 -49q-1 -16 -2 -38.5t-2 -55.5v-40.5v-53.5
v-175v-53.5v-40.5q1 -33 2 -55.5t2 -38.5q4 -36 12 -49t38 -13h23q6 0 6 -4.5t-6 -4.5q-8 0 -29.5 0.5t-73.5 1.5q-34 1 -45.5 1h-14.5h-11t-30 -1q-35 -1 -50.5 -1.5t-24.5 -0.5q-6 0 -6 4.5t6 4.5h23q30 0 38 13t12 49q1 16 2 38.5t2 55.5v40.5v53.5zM158 778
q-33 0 -57 24t-24 57q0 34 24 58t57 24q34 0 58 -24t24 -58t-24 -57.5t-58 -23.5z" />
    <glyph glyph-name="dotlessi" unicode="&#x131;" horiz-adv-x="263" 
d="M88 1q-38 -1 -55 -1h-26q-6 0 -6 4.5t6 4.5q41 0 52 16.5t11 84.5v257q0 52 -9 64.5t-50 3.5q-6 -1 -7.5 3t4.5 5q34 7 82.5 27t84.5 40q3 2 10.5 -1t7.5 -6v-393q0 -68 11 -84.5t51 -16.5q6 0 6 -4.5t-6 -4.5h-25t-53 1q-23 1 -31.5 1h-11.5h-12t-34 -1z" />
    <glyph glyph-name="IJ" unicode="&#x132;" horiz-adv-x="628" 
d="M13 0zM96 259v175v53.5v40.5q-1 33 -2 55.5t-2 38.5q-4 36 -12 49t-38 13h-23q-6 0 -6 4.5t6 4.5q9 0 24.5 -0.5t50.5 -1.5q22 -1 30 -1h11h14.5t45.5 1q52 1 73.5 1.5t29.5 0.5q6 0 6 -4.5t-6 -4.5h-23q-30 0 -38 -13t-12 -49q-1 -16 -2 -38.5t-2 -55.5v-40.5v-53.5
v-175v-53.5v-40.5q1 -33 2 -55.5t2 -38.5q4 -36 12 -49t38 -13h23q6 0 6 -4.5t-6 -4.5q-8 0 -29.5 0.5t-73.5 1.5q-34 1 -45.5 1h-14.5h-11t-30 -1q-35 -1 -50.5 -1.5t-24.5 -0.5q-6 0 -6 4.5t6 4.5h23q30 0 38 13t12 49q1 16 2 38.5t2 55.5v40.5v53.5zM374 -153
q-47 -44 -86 -67t-68 -23q-22 0 -32.5 8t-10.5 25q0 28 25.5 54.5t54.5 26.5q7 0 16 -1t28 -4q30 -4 43.5 -4t22.5 3q22 12 30.5 45t11.5 107q2 31 2.5 71.5t0.5 93.5v252v53t-1 42q0 32 -1 55t-3 39q-4 35 -12.5 48t-39.5 13h-18q-6 0 -6 4.5t6 4.5q9 0 27 -0.5t61 -1.5
q28 -1 37 -1h12h12.5t37.5 1q41 1 59 1.5t26 0.5q6 0 6 -4.5t-6 -4.5h-17q-31 0 -39.5 -12.5t-12.5 -47.5q-1 -16 -2 -39t-2 -56v-40.5v-54.5v-97q0 -25 0.5 -53.5t1.5 -74.5q1 -22 1 -30v-13q0 -57 -10 -100t-31 -79q-16 -27 -41 -56t-83 -84z" />
    <glyph glyph-name="ij" unicode="&#x133;" horiz-adv-x="496" 
d="M3 0zM207 666q0 -33 -24 -57t-58 -24t-58 24t-24 57q0 34 24 58t58 24t58 -24t24 -58zM90 1q-38 -1 -54.5 -1h-25.5q-6 0 -6 4.5t6 4.5q39 0 49.5 15t10.5 86v257q0 52 -9 64.5t-50 3.5q-6 -1 -7.5 3t4.5 5q34 7 83.5 27t84.5 40q3 2 10.5 -1t7.5 -6v-393q0 -71 10.5 -86
t48.5 -15q6 0 6 -4.5t-6 -4.5h-25t-51 1q-23 1 -31.5 1h-11.5h-11.5t-32.5 -1zM454 666q0 -33 -24 -57t-58 -24q-33 0 -57 24t-24 57q0 34 24 58t57 24q34 0 58 -24t24 -58zM303 -161q-54 -54 -92 -77.5t-70 -23.5q-20 0 -30.5 8t-10.5 23q0 26 26.5 52.5t54.5 26.5
q10 0 20.5 -1t29.5 -4q23 -3 33 -3t17 2q23 4 30.5 40t7.5 117v368q0 49 -12 63.5t-56 4.5q-6 -1 -7.5 3t4.5 5q39 9 91 28.5t85 38.5q3 2 9.5 -1t6.5 -6v-118t1 -196v-86.5v-33.5q-1 -51 -31 -102t-107 -128z" />
    <glyph glyph-name="Jcircumflex" unicode="&#x134;" horiz-adv-x="309" 
d="M0 0zM57 -153q-47 -44 -86 -67t-68 -23q-22 0 -32.5 8t-10.5 25q0 28 25.5 54.5t54.5 26.5q7 0 16 -1t28 -4q30 -4 43.5 -4t22.5 3q22 12 30.5 45t11.5 107q2 31 2.5 71.5t0.5 93.5v252v53t-1 42q0 32 -1 55t-3 39q-4 35 -12.5 48t-39.5 13h-18q-6 0 -6 4.5t6 4.5
q9 0 27 -0.5t61 -1.5q28 -1 37 -1h12h12.5t37.5 1q41 1 59 1.5t26 0.5q6 0 6 -4.5t-6 -4.5h-17q-31 0 -39.5 -12.5t-12.5 -47.5q-1 -16 -2 -39t-2 -56v-40.5v-54.5v-97q0 -25 0.5 -53.5t1.5 -74.5q1 -22 1 -30v-13q0 -57 -10 -100t-31 -79q-16 -27 -41 -56t-83 -84zM159 896
q-1 3 -3 3t-4 -3q-5 -9 -30.5 -55.5t-37.5 -62.5q-9 -11 -19 -16.5t-23 -5.5q-14 0 -23 8t-9 17q0 8 4 15t13 15q11 10 26 22.5t98 74.5q2 1 4.5 1t4.5 -1q13 -9 59 -42t68 -51q9 -8 13.5 -15t4.5 -15q0 -10 -10.5 -19t-26.5 -9q-15 0 -25 5.5t-18 17.5q-4 7 -10 17t-19 33
q-14 27 -22 41t-15 25z" />
    <glyph glyph-name="jcircumflex" unicode="&#x135;" horiz-adv-x="238" 
d="M0 0zM45 -161q-54 -54 -92 -77.5t-70 -23.5q-20 0 -30.5 8t-10.5 23q0 26 26.5 52.5t54.5 26.5q10 0 20.5 -1t29.5 -4q23 -3 33 -3t17 2q22 4 29.5 39.5t7.5 117.5v368q0 49 -11.5 63.5t-55.5 4.5q-6 -1 -7.5 3t4.5 5q39 9 91 28.5t85 38.5q3 2 9.5 -1t6.5 -6
q0 -50 0.5 -118t0.5 -196q1 -64 1 -86.5v-33.5q-1 -51 -31 -101.5t-108 -128.5zM122 703q-1 3 -3 3t-4 -3q-5 -9 -30.5 -55.5t-37.5 -62.5q-9 -11 -19 -16.5t-23 -5.5q-14 0 -23 8t-9 17q0 8 4 15t13 15q11 10 26 22.5t98 74.5q2 1 4.5 1t4.5 -1q13 -9 59 -42t68 -51
q9 -8 13.5 -15t4.5 -15q0 -10 -10.5 -19t-26.5 -9q-15 0 -25 5.5t-18 17.5q-4 7 -10 17t-19 33q-14 27 -22 41t-15 25z" />
    <glyph glyph-name="uni0136" unicode="&#x136;" horiz-adv-x="670" 
d="M14 0zM93 2q-38 -1 -52 -1.5t-20 -0.5t-6 4.5t6 4.5h16.5t5.5 1q10 4 15.5 12t9.5 23q9 20 13 62t4 146v199q0 51 -0.5 81t-0.5 51q-3 60 -11.5 80t-40.5 20h-12q-6 0 -6 4.5t6 4.5q8 0 25 -0.5t57 -1.5q26 -1 35 -1h12h12t36 1q42 1 60 1.5t27 0.5q6 0 6 -4.5t-6 -4.5
h-20q-30 0 -38 -13t-12 -49q-1 -16 -2 -38.5t-2 -55.5v-40.5v-53.5v-105l132 142q56 61 85.5 106t29.5 72q-1 18 -10.5 27t-29.5 9q-2 0 -5.5 -0.5t-9.5 -2.5q-4 0 -5.5 -0.5t-2.5 -0.5q-4 0 -6.5 2t-2.5 4q0 3 3 4.5t8 1.5h17.5t47.5 -1q34 -1 46 -1h16h11.5t33.5 1
q38 1 54 1h24q5 0 5 -4.5t-5 -4.5h-2q-47 0 -116.5 -52.5t-176.5 -166.5l-90 -96q24 19 52 28.5t58 9.5q35 0 54.5 -7t36.5 -25q20 -16 35 -45t53 -144q31 -96 57 -136.5t62 -40.5h9q7 0 6.5 -4.5t-7.5 -4.5h-29q-17 0 -34.5 -1t-45.5 -3q-15 -1 -21.5 -1.5t-10.5 -0.5
q-18 0 -31 5.5t-24 18.5q-15 18 -30.5 60t-35.5 121q-26 97 -52 138t-59 41q-19 0 -35.5 -9.5t-35.5 -29.5l1 1l-24 -25v-56v-53.5v-40.5q1 -33 2 -55.5t2 -38.5q4 -36 12 -49t38 -13h21q6 0 6 -4.5t-6 -4.5t-21.5 0.5t-56.5 1.5q-32 1 -43 1h-15t-14.5 -0.5t-41.5 -0.5z
M439 -152q0 -46 -30.5 -82t-66.5 -46q-4 -1 -5 0.5t3 3.5q32 15 47.5 39t15.5 57v10.5t-1 6.5q-7 -7 -16.5 -11t-20.5 -4q-23 0 -39 15.5t-16 38.5q0 25 17 42t44 17q32 0 50 -23.5t18 -63.5z" />
    <glyph glyph-name="uni0137" unicode="&#x137;" horiz-adv-x="587" 
d="M0 0zM186 1q-24 1 -33 1h-13h-11.5t-33.5 -1q-38 -1 -54.5 -1h-25.5q-6 0 -6 4.5t6 4.5q33 0 41 18.5t8 91.5v550q0 25 -2 40.5t-6 24.5q-5 12 -16 15t-41 -2q-6 -1 -6 3.5t6 5.5q37 7 91 25t80 32q3 2 10.5 -1t7.5 -6v-626l154 159q25 26 37.5 49.5t13.5 46.5
q1 26 -16.5 41t-48.5 15q-5 0 -5 4t5 4q8 0 28 -0.5t68 -0.5q30 -1 39.5 -1h12.5q4 0 17 0.5t46 0.5q21 1 27.5 1h8.5q5 0 5 -4t-5 -4q-36 0 -93 -39.5t-131 -116.5l74 -132q58 -108 95 -151t76 -43q6 0 6 -4.5t-6 -4.5h-126q-22 0 -35.5 2.5t-23.5 8.5q-20 10 -39.5 39
t-51.5 95l-53 104l-79 -80v-160h60q6 0 6 -4.5t-6 -4.5h-18.5t-43.5 1zM374 -152q0 -46 -30.5 -82t-66.5 -46q-4 -1 -5 0.5t3 3.5q32 15 47.5 39t15.5 57v10.5t-1 6.5q-7 -7 -16.5 -11t-20.5 -4q-23 0 -39 15.5t-16 38.5q0 25 17 42t44 17q32 0 50 -23.5t18 -63.5z" />
    <glyph glyph-name="kgreenlandic" unicode="&#x138;" horiz-adv-x="589" 
d="M66 116v251q0 53 -8.5 65t-48.5 3q-6 -1 -7.5 3t4.5 5q34 7 83.5 27t84.5 40q3 2 10.5 -1t7.5 -6v-321l152 157q25 25 38 49t14 47q1 26 -16.5 41t-48.5 15q-5 0 -5 4t5 4q8 0 28 -0.5t68 -0.5q29 -1 38.5 -1h12.5q4 0 17.5 0.5t46.5 0.5q21 1 27.5 1h8.5q5 0 5 -4t-5 -4
q-37 0 -94 -39.5t-131 -116.5l75 -132q58 -108 94.5 -151t75.5 -43q6 0 6.5 -4.5t-5.5 -4.5h-126q-22 0 -35.5 2.5t-23.5 8.5q-20 10 -39 37.5t-52 96.5l-53 105l-78 -79v-162h62q6 0 6 -4.5t-6 -4.5h-19t-45 1q-25 1 -34.5 1h-13.5h-11.5t-31.5 -1q-37 -1 -53 -1h-25
q-6 0 -6 4.5t6 4.5q30 0 37.5 15.5t7.5 91.5z" />
    <glyph glyph-name="Lacute" unicode="&#x139;" horiz-adv-x="602" 
d="M12 0zM197 3l-179 -3q-6 0 -6 4t6 4q41 0 51 17.5t15 80.5q2 35 2 150v117v141q0 43 -0.5 66.5t-2.5 39.5q-3 38 -13.5 51t-48.5 13q-6 0 -6 4.5t6 4.5h10t34 -1q39 -1 54 -1h20h15t46 1q55 1 77 1h31q6 0 6 -4.5t-6 -4.5h-28q-39 0 -49.5 -11t-14.5 -42q-2 -15 -3 -38.5
t-2 -60.5v-36.5v-61.5v-273q0 -51 -2.5 -91.5t-5.5 -55.5q8 0 20.5 -0.5t43.5 -0.5q33 -1 47 -1.5t22 -0.5q38 0 77.5 26t75.5 73q29 39 48.5 84.5t23.5 85.5l8 85q1 5 6.5 4.5t4.5 -5.5l-8 -86q-11 -125 -20 -196.5t-13 -77.5q-4 -2 -40 -3t-99 -1q-35 0 -85.5 1t-117.5 2z
M205 827q-46 -31 -67.5 -46.5t-35.5 -27.5q-4 -3 -5 -3.5t-2 -0.5t-2.5 2t-1.5 4q0 1 1 2l4 4q13 15 30 38.5t48 72.5q16 24 21.5 32t8.5 12q7 8 17 13t19 5q13 0 24 -11.5t11 -23.5q0 -8 -3.5 -17.5t-9.5 -15.5q-6 -5 -17 -12.5t-40 -26.5z" />
    <glyph glyph-name="lacute" unicode="&#x13a;" horiz-adv-x="253" 
d="M0 0zM95 1q-38 -1 -54.5 -1h-25.5q-6 0 -6 4.5t6 4.5q33 0 41 18.5t8 91.5v550q0 25 -2 40.5t-6 24.5q-5 12 -16 15t-41 -2q-6 -1 -6 3.5t6 5.5q37 7 91 25t80 32q3 2 10.5 -1t7.5 -6v-687q0 -27 1 -44.5t3 -28.5q4 -21 13.5 -29t38.5 -8q5 0 5 -4.5t-5 -4.5h-23t-44 1
q-19 1 -26.5 1h-10.5h-11.5t-33.5 -1zM176 911q-46 -31 -67.5 -46.5t-35.5 -27.5q-4 -3 -5 -3.5t-2 -0.5t-2.5 2t-1.5 4q0 1 1 2l4 4q13 15 30 38.5t48 72.5q16 24 21.5 32t8.5 12q7 8 17 13t19 5q13 0 24 -11.5t11 -23.5q0 -8 -3.5 -17.5t-9.5 -15.5q-6 -5 -17 -12.5
t-40 -26.5z" />
    <glyph glyph-name="uni013B" unicode="&#x13b;" horiz-adv-x="602" 
d="M12 0zM197 3l-179 -3q-6 0 -6 4t6 4q41 0 51 17.5t15 80.5q2 35 2 150v117v141q0 43 -0.5 66.5t-2.5 39.5q-3 38 -13.5 51t-48.5 13q-6 0 -6 4.5t6 4.5h10t34 -1q39 -1 54 -1h20h15t46 1q55 1 77 1h31q6 0 6 -4.5t-6 -4.5h-28q-39 0 -49.5 -11t-14.5 -42q-2 -15 -3 -38.5
t-2 -60.5v-36.5v-61.5v-273q0 -51 -2.5 -91.5t-5.5 -55.5q8 0 20.5 -0.5t43.5 -0.5q33 -1 47 -1.5t22 -0.5q38 0 77.5 26t75.5 73q29 39 48.5 84.5t23.5 85.5l8 85q1 5 6.5 4.5t4.5 -5.5l-8 -86q-11 -125 -20 -196.5t-13 -77.5q-4 -2 -40 -3t-99 -1q-35 0 -85.5 1t-117.5 2z
M391 -152q0 -46 -30.5 -82t-66.5 -46q-4 -1 -5 0.5t3 3.5q32 15 47.5 39t15.5 57v10.5t-1 6.5q-7 -7 -16.5 -11t-20.5 -4q-23 0 -39 15.5t-16 38.5q0 25 17 42t44 17q32 0 50 -23.5t18 -63.5z" />
    <glyph glyph-name="uni013C" unicode="&#x13c;" horiz-adv-x="253" 
d="M0 0zM95 1q-38 -1 -54.5 -1h-25.5q-6 0 -6 4.5t6 4.5q33 0 41 18.5t8 91.5v550q0 25 -2 40.5t-6 24.5q-5 12 -16 15t-41 -2q-6 -1 -6 3.5t6 5.5q37 7 91 25t80 32q3 2 10.5 -1t7.5 -6v-687q0 -27 1 -44.5t3 -28.5q4 -21 13.5 -29t38.5 -8q5 0 5 -4.5t-5 -4.5h-23t-44 1
q-19 1 -26.5 1h-10.5h-11.5t-33.5 -1zM193 -152q0 -46 -30.5 -82t-66.5 -46q-4 -1 -5 0.5t3 3.5q32 15 47.5 39t15.5 57v10.5t-1 6.5q-7 -7 -16.5 -11t-20.5 -4q-23 0 -39 15.5t-16 38.5q0 25 17 42t44 17q32 0 50 -23.5t18 -63.5z" />
    <glyph glyph-name="Lcaron" unicode="&#x13d;" horiz-adv-x="602" 
d="M12 0zM197 3l-179 -3q-6 0 -6 4t6 4q41 0 51 17.5t15 80.5q2 35 2 150v117v141q0 43 -0.5 66.5t-2.5 39.5q-3 38 -13.5 51t-48.5 13q-6 0 -6 4.5t6 4.5h10t34 -1q39 -1 54 -1h20h15t46 1q55 1 77 1h31q6 0 6 -4.5t-6 -4.5h-28q-39 0 -49.5 -11t-14.5 -42q-2 -15 -3 -38.5
t-2 -60.5v-36.5v-61.5v-273q0 -51 -2.5 -91.5t-5.5 -55.5q8 0 20.5 -0.5t43.5 -0.5q33 -1 47 -1.5t22 -0.5q38 0 77.5 26t75.5 73q29 39 48.5 84.5t23.5 85.5l8 85q1 5 6.5 4.5t4.5 -5.5l-8 -86q-11 -125 -20 -196.5t-13 -77.5q-4 -2 -40 -3t-99 -1q-35 0 -85.5 1t-117.5 2z
M403 620q-10 17 -13 24t-3 13q0 14 20.5 29.5t38.5 15.5q19 0 31 -26t12 -66t-19 -88t-59 -105q-3 -5 -7.5 -2t-0.5 7q21 35 26.5 54.5t5.5 44.5q0 23 -6.5 45t-25.5 54z" />
    <glyph glyph-name="lcaron" unicode="&#x13e;" horiz-adv-x="253" 
d="M0 0zM95 1q-38 -1 -54.5 -1h-25.5q-6 0 -6 4.5t6 4.5q33 0 41 18.5t8 91.5v550q0 25 -2 40.5t-6 24.5q-5 12 -16 15t-41 -2q-6 -1 -6 3.5t6 5.5q37 7 91 25t80 32q3 2 10.5 -1t7.5 -6v-687q0 -27 1 -44.5t3 -28.5q4 -21 13.5 -29t38.5 -8q5 0 5 -4.5t-5 -4.5h-23t-44 1
q-19 1 -26.5 1h-10.5h-11.5t-33.5 -1zM260 731q-10 17 -13 24t-3 13q0 14 20.5 29.5t38.5 15.5q19 0 31 -26t12 -66t-19 -88t-59 -105q-3 -5 -7.5 -2t-0.5 7q21 35 26.5 54.5t5.5 44.5q0 23 -6.5 45t-25.5 54z" />
    <glyph glyph-name="Ldot" unicode="&#x13f;" horiz-adv-x="602" 
d="M197 3l-182 -3q-7 0 -7 4t7 4q33 0 44.5 9.5t16.5 35.5q3 13 5 33.5t3 53.5q1 22 1.5 55.5t0.5 197.5q0 44 -1 104.5t-2 95.5q-2 63 -12 77t-54 14q-6 0 -6 4.5t6 4.5h10.5t35.5 -1q40 -1 55.5 -1h20.5h15t46 1q55 1 77 1h31q6 0 6 -4.5t-6 -4.5h-28q-39 0 -49.5 -11
t-14.5 -42q-2 -15 -3 -38.5t-2 -60.5v-36.5v-61.5v-273q0 -51 -2.5 -91.5t-5.5 -55.5q8 0 20.5 -0.5t43.5 -0.5q33 -1 47 -1.5t22 -0.5q77 0 146.5 77t77.5 167l5 52q1 5 6.5 4.5t4.5 -5.5l-5 -59q-10 -105 -18.5 -171t-13.5 -72q-4 -2 -40 -3t-99 -1q-35 0 -85.5 1
t-117.5 2zM447 299q-33 0 -55.5 22.5t-22.5 55.5t22.5 56t55.5 23q34 0 56.5 -22.5t22.5 -56.5q0 -33 -23 -55.5t-56 -22.5z" />
    <glyph glyph-name="ldot" unicode="&#x140;" horiz-adv-x="414" 
d="M0 0zM95 1q-38 -1 -54.5 -1h-25.5q-6 0 -6 4.5t6 4.5q33 0 41 18.5t8 91.5v550q0 25 -2 40.5t-6 24.5q-5 12 -16 15t-41 -2q-6 -1 -6 3.5t6 5.5q37 7 91 25t80 32q3 2 10.5 -1t7.5 -6v-687q0 -27 1 -44.5t3 -28.5q4 -21 13.5 -29t38.5 -8q5 0 5 -4.5t-5 -4.5h-23t-44 1
q-19 1 -26.5 1h-10.5h-11.5t-33.5 -1zM333 304q-33 0 -55.5 22.5t-22.5 55.5t22.5 56t55.5 23q34 0 56.5 -22.5t22.5 -56.5q0 -33 -23 -55.5t-56 -22.5z" />
    <glyph glyph-name="Lslash" unicode="&#x141;" horiz-adv-x="602" 
d="M197 3l-179 -3q-6 0 -6 4t6 4q41 0 51 17.5t15 80.5q1 13 1.5 63.5t0.5 139.5q-8 -5 -31 -20t-61 -41q-5 2 -6 14t5 19q4 2 38 18t55 27v188q0 43 -0.5 66.5t-2.5 39.5q-3 38 -13.5 51t-48.5 13q-6 0 -6 4.5t6 4.5h10t34 -1q39 -1 54 -1h20h15t46 1q55 1 77 1h31
q6 0 6 -4.5t-6 -4.5h-28q-39 0 -49.5 -11t-14.5 -42q-2 -15 -3 -38.5t-2 -60.5v-36.5v-61.5v-51q45 27 89.5 55t93.5 61q6 -4 5.5 -16.5t-6.5 -18.5q-6 -3 -75 -38t-107 -55v-210q0 -51 -2.5 -91.5t-5.5 -55.5q8 0 20.5 -0.5t43.5 -0.5q33 -1 47 -1.5t22 -0.5q38 0 77.5 26
t75.5 73q29 39 48.5 84.5t23.5 85.5l8 85q1 5 6.5 4.5t4.5 -5.5l-8 -86q-11 -125 -20 -196.5t-13 -77.5q-4 -2 -40 -3t-99 -1q-35 0 -85.5 1t-117.5 2z" />
    <glyph glyph-name="lslash" unicode="&#x142;" horiz-adv-x="280" 
d="M109 1q-38 -1 -54.5 -1h-25.5q-6 0 -6 4.5t6 4.5q33 0 41 18.5t8 91.5v226q-23 -14 -46.5 -30t-43.5 -30q-5 2 -4.5 15t5.5 21q52 23 65 29.5t24 11.5v307q0 25 -2 40.5t-6 24.5q-5 12 -16 15t-41 -2q-6 -1 -6 3.5t6 5.5q37 7 91 25t80 32q3 2 10.5 -1t7.5 -6v-389
q8 5 17.5 11.5t28.5 18.5q20 13 29 19t17 11q5 -3 4 -17t-6 -20l-31.5 -14t-58.5 -27v-280q0 -27 1 -44.5t3 -28.5q4 -21 13.5 -29t38.5 -8q5 0 5 -4.5t-5 -4.5h-23t-44 1q-19 1 -26.5 1h-10.5h-11.5t-33.5 -1z" />
    <glyph glyph-name="Nacute" unicode="&#x143;" horiz-adv-x="693" 
d="M0 0zM576 -3q-17 0 -29.5 10t-34.5 40l-414 565v-316q0 -148 29 -217.5t94 -69.5h14q5 0 5 -4.5t-5 -4.5q-6 0 -22.5 0.5t-58.5 1.5q-32 1 -43 1h-15h-9t-21 -1q-22 -1 -33.5 -1.5t-19.5 -0.5q-5 0 -5 4.5t5 4.5h5q35 0 50.5 68.5t16.5 218.5v309q0 11 -6 22.5t-18 23.5
q-18 17 -35.5 25t-37.5 8h-9q-5 0 -5 4.5t5 4.5q41 0 88.5 1t108.5 4q9 1 11.5 1h3.5q4 0 6 -1.5t4 -4.5q7 -12 17.5 -28t25.5 -36l356 -477v270q0 137 -29.5 199.5t-103.5 62.5h-14q-6 0 -6 4.5t6 4.5q9 0 29 -0.5t69 -1.5q31 -1 41.5 -1h13.5h7.5t16.5 1q19 1 29.5 1.5
t19.5 0.5q5 0 5 -4.5t-5 -4.5h-3q-32 0 -43.5 -25.5t-15.5 -89.5q-2 -27 -3 -63.5t-1 -83.5v-416q-3 -4 -13.5 -6.5t-23.5 -2.5zM428 827q-46 -31 -67.5 -46.5t-35.5 -27.5q-4 -3 -5 -3.5t-2 -0.5t-2.5 2t-1.5 4q0 1 1 2l4 4q13 15 30 38.5t48 72.5q16 24 21.5 32t8.5 12
q7 8 17 13t19 5q13 0 24 -11.5t11 -23.5q0 -8 -3.5 -17.5t-9.5 -15.5q-6 -5 -17 -12.5t-40 -26.5z" />
    <glyph glyph-name="nacute" unicode="&#x144;" horiz-adv-x="594" 
d="M13 0zM82 1q-28 -1 -41 -1h-22q-6 0 -6 4.5t6 4.5q31 0 39 21t8 89v239q0 17 -11 35.5t-35 40.5q-2 2 -2 3.5t2 2.5q19 7 65.5 32t58.5 36q2 2 3 1.5t3 -2.5q16 -15 28.5 -47.5t12.5 -61.5q43 57 88 84.5t95 27.5q79 0 119 -50.5t40 -151.5v-210q0 -52 8 -71t37 -18
q6 0 6 -4.5t-6 -4.5h-11t-38 1q-46 0 -63.5 0.5t-22.5 0.5h-9t-21 -1q-23 -1 -34.5 -1h-20.5q-6 0 -6 4.5t6 4.5q35 0 43.5 18.5t8.5 76.5l-1 208q-1 74 -25.5 111.5t-72.5 37.5q-34 0 -61.5 -17t-57.5 -57v-378h52q6 0 6 -4.5t-6 -4.5h-10.5t-35.5 1q-43 0 -59.5 0.5
t-21.5 0.5h-10t-25 -1zM369 634q-46 -31 -67.5 -46.5t-35.5 -27.5q-4 -3 -5 -3.5t-2 -0.5t-2.5 2t-1.5 4q0 1 1 2l4 4q13 15 30 38.5t48 72.5q16 24 21.5 32t8.5 12q7 8 17 13t19 5q13 0 24 -11.5t11 -23.5q0 -8 -3.5 -17.5t-9.5 -15.5q-6 -5 -17 -12.5t-40 -26.5z" />
    <glyph glyph-name="uni0145" unicode="&#x145;" horiz-adv-x="693" 
d="M0 0zM576 -3q-17 0 -29.5 10t-34.5 40l-414 565v-316q0 -148 29 -217.5t94 -69.5h14q5 0 5 -4.5t-5 -4.5q-6 0 -22.5 0.5t-58.5 1.5q-32 1 -43 1h-15h-9t-21 -1q-22 -1 -33.5 -1.5t-19.5 -0.5q-5 0 -5 4.5t5 4.5h5q35 0 50.5 68.5t16.5 218.5v309q0 11 -6 22.5t-18 23.5
q-18 17 -35.5 25t-37.5 8h-9q-5 0 -5 4.5t5 4.5q41 0 88.5 1t108.5 4q9 1 11.5 1h3.5q4 0 6 -1.5t4 -4.5q7 -12 17.5 -28t25.5 -36l356 -477v270q0 137 -29.5 199.5t-103.5 62.5h-14q-6 0 -6 4.5t6 4.5q9 0 29 -0.5t69 -1.5q31 -1 41.5 -1h13.5h7.5t16.5 1q19 1 29.5 1.5
t19.5 0.5q5 0 5 -4.5t-5 -4.5h-3q-32 0 -43.5 -25.5t-15.5 -89.5q-2 -27 -3 -63.5t-1 -83.5v-416q-3 -4 -13.5 -6.5t-23.5 -2.5zM422 -152q0 -46 -30.5 -82t-66.5 -46q-4 -1 -5 0.5t3 3.5q32 15 47.5 39t15.5 57v10.5t-1 6.5q-7 -7 -16.5 -11t-20.5 -4q-23 0 -39 15.5
t-16 38.5q0 25 17 42t44 17q32 0 50 -23.5t18 -63.5z" />
    <glyph glyph-name="uni0146" unicode="&#x146;" horiz-adv-x="594" 
d="M13 0zM82 1q-28 -1 -41 -1h-22q-6 0 -6 4.5t6 4.5q31 0 39 21t8 89v239q0 17 -11 35.5t-35 40.5q-2 2 -2 3.5t2 2.5q19 7 65.5 32t58.5 36q2 2 3 1.5t3 -2.5q16 -15 28.5 -47.5t12.5 -61.5q43 57 88 84.5t95 27.5q79 0 119 -50.5t40 -151.5v-210q0 -52 8 -71t37 -18
q6 0 6 -4.5t-6 -4.5h-11t-38 1q-46 0 -63.5 0.5t-22.5 0.5h-9t-21 -1q-23 -1 -34.5 -1h-20.5q-6 0 -6 4.5t6 4.5q35 0 43.5 18.5t8.5 76.5l-1 208q-1 74 -25.5 111.5t-72.5 37.5q-34 0 -61.5 -17t-57.5 -57v-378h52q6 0 6 -4.5t-6 -4.5h-10.5t-35.5 1q-43 0 -59.5 0.5
t-21.5 0.5h-10t-25 -1zM369 -152q0 -46 -30.5 -82t-66.5 -46q-4 -1 -5 0.5t3 3.5q32 15 47.5 39t15.5 57v10.5t-1 6.5q-7 -7 -16.5 -11t-20.5 -4q-23 0 -39 15.5t-16 38.5q0 25 17 42t44 17q32 0 50 -23.5t18 -63.5z" />
    <glyph glyph-name="Ncaron" unicode="&#x147;" horiz-adv-x="693" 
d="M0 0zM576 -3q-17 0 -29.5 10t-34.5 40l-414 565v-316q0 -148 29 -217.5t94 -69.5h14q5 0 5 -4.5t-5 -4.5q-6 0 -22.5 0.5t-58.5 1.5q-32 1 -43 1h-15h-9t-21 -1q-22 -1 -33.5 -1.5t-19.5 -0.5q-5 0 -5 4.5t5 4.5h5q35 0 50.5 68.5t16.5 218.5v309q0 11 -6 22.5t-18 23.5
q-18 17 -35.5 25t-37.5 8h-9q-5 0 -5 4.5t5 4.5q41 0 88.5 1t108.5 4q9 1 11.5 1h3.5q4 0 6 -1.5t4 -4.5q7 -12 17.5 -28t25.5 -36l356 -477v270q0 137 -29.5 199.5t-103.5 62.5h-14q-6 0 -6 4.5t6 4.5q9 0 29 -0.5t69 -1.5q31 -1 41.5 -1h13.5h7.5t16.5 1q19 1 29.5 1.5
t19.5 0.5q5 0 5 -4.5t-5 -4.5h-3q-32 0 -43.5 -25.5t-15.5 -89.5q-2 -27 -3 -63.5t-1 -83.5v-416q-3 -4 -13.5 -6.5t-23.5 -2.5zM360 761q2 -2 4 -2t3 2q6 11 31.5 57.5t36.5 61.5q9 11 19 16.5t23 5.5t22.5 -8t9.5 -17q0 -8 -4 -15t-13 -15q-11 -10 -26 -22.5t-98 -74.5
q-2 -1 -4.5 -1t-4.5 1q-13 10 -59.5 42t-67.5 51q-9 8 -13.5 15t-4.5 15q0 10 11 19t26 9q14 0 24.5 -5.5t18.5 -17.5q4 -7 10 -17t19 -33q14 -28 22 -42t15 -25z" />
    <glyph glyph-name="ncaron" unicode="&#x148;" horiz-adv-x="594" 
d="M13 0zM82 1q-28 -1 -41 -1h-22q-6 0 -6 4.5t6 4.5q31 0 39 21t8 89v239q0 17 -11 35.5t-35 40.5q-2 2 -2 3.5t2 2.5q19 7 65.5 32t58.5 36q2 2 3 1.5t3 -2.5q16 -15 28.5 -47.5t12.5 -61.5q43 57 88 84.5t95 27.5q79 0 119 -50.5t40 -151.5v-210q0 -52 8 -71t37 -18
q6 0 6 -4.5t-6 -4.5h-11t-38 1q-46 0 -63.5 0.5t-22.5 0.5h-9t-21 -1q-23 -1 -34.5 -1h-20.5q-6 0 -6 4.5t6 4.5q35 0 43.5 18.5t8.5 76.5l-1 208q-1 74 -25.5 111.5t-72.5 37.5q-34 0 -61.5 -17t-57.5 -57v-378h52q6 0 6 -4.5t-6 -4.5h-10.5t-35.5 1q-43 0 -59.5 0.5
t-21.5 0.5h-10t-25 -1zM301 568q2 -2 4 -2t3 2q6 11 31.5 57.5t36.5 61.5q9 11 19 16.5t23 5.5t22.5 -8t9.5 -17q0 -8 -4 -15t-13 -15q-11 -10 -26 -22.5t-98 -74.5q-2 -1 -4.5 -1t-4.5 1q-13 10 -59.5 42t-67.5 51q-9 8 -13.5 15t-4.5 15q0 10 11 19t26 9q14 0 24.5 -5.5
t18.5 -17.5q4 -7 10 -17t19 -33q14 -28 22 -42t15 -25z" />
    <glyph glyph-name="Eng" unicode="&#x14a;" horiz-adv-x="693" 
d="M617 71q0 -77 -20 -125t-66 -93q-28 -28 -64 -47t-62 -19q-22 0 -33 8.5t-11 25.5q0 25 24 51.5t50 28.5q7 1 16.5 0.5t29.5 -2.5q30 -4 43.5 -3t22.5 5q18 6 30 26t12 46q0 10 -5 21.5t-39 54.5l-447 563v-316q0 -148 29 -217.5t94 -69.5h14q5 0 5 -4.5t-5 -4.5
q-6 0 -22.5 0.5t-58.5 1.5q-32 1 -43 1h-15h-9t-21 -1q-22 -1 -33.5 -1.5t-19.5 -0.5q-5 0 -5 4.5t5 4.5h5q35 0 50.5 68.5t16.5 218.5v309q0 11 -6 22.5t-18 23.5q-18 17 -35.5 25t-37.5 8h-9q-5 0 -5 4.5t5 4.5q41 0 88.5 1t108.5 4q9 1 11.5 1h3.5q4 0 6 -1.5t4 -4.5
q10 -17 21 -33.5t22 -30.5l356 -435v228q0 137 -29.5 199.5t-103.5 62.5h-14q-6 0 -6 4.5t6 4.5q9 0 29 -0.5t69 -1.5q31 -1 41.5 -1h13.5h7.5t16.5 1q19 1 29.5 1.5t19.5 0.5q5 0 5 -4.5t-5 -4.5h-3q-32 0 -43.5 -25.5t-15.5 -89.5q-2 -27 -3 -63.5t-1 -83.5v-160
q0 -17 0.5 -40t1.5 -72q1 -38 1.5 -53.5t0.5 -25.5z" />
    <glyph glyph-name="eng" unicode="&#x14b;" horiz-adv-x="583" 
d="M83 1q-27 -1 -40 -1h-22q-6 0 -6 4.5t6 4.5q30 0 37.5 16t7.5 94v239q0 17 -11 35.5t-35 40.5q-2 2 -2 3.5t2 2.5q19 7 65.5 32t58.5 36q2 2 3 1.5t3 -2.5q16 -15 28.5 -47.5t12.5 -61.5q43 57 88 84.5t95 27.5q79 0 119 -50.5t40 -151.5v-239q0 -48 -29 -97.5
t-110 -132.5q-55 -54 -93 -77.5t-70 -23.5q-20 0 -30 8t-10 23q0 26 26 52.5t55 26.5q10 0 20.5 -1t29.5 -4q23 -3 33 -3t17 2q23 4 30 39.5t7 118.5v312q0 73 -25 111t-73 38q-34 0 -61.5 -17t-57.5 -57v-378h52q6 0 6 -4.5t-6 -4.5h-10.5t-35.5 1q-43 0 -59.5 0.5
t-21.5 0.5h-9.5t-24.5 -1z" />
    </font>
</defs>
</svg>
