<svg xmlns="http://www.w3.org/2000/svg">
<defs>
<font id="OggLightItalic" horiz-adv-x="558" >
  <font-face 
    font-family="Ogg"
    font-weight="300"
    font-style="italic"
    font-stretch="normal"
    units-per-em="1000"
    panose-1="2 9 4 4 8 7 6 10 2 3"
    ascent="800"
    descent="-200"
    x-height="512"
    cap-height="826"
    bbox="-497 -400.286 1974 1082"
    underline-thickness="50"
    underline-position="-150"
    slope="-29"
    unicode-range="U+000D-FB03"
  />
<missing-glyph horiz-adv-x="1414" 
d="M1229 695q53 -55 79 -152t26 -236q0 -126 -32.5 -230.5t-84.5 -158.5q-62 -62 -199.5 -107t-293.5 -45q-185 0 -342 46t-215 113q-45 51 -66 142t-21 237q0 114 28.5 216.5t75.5 155.5q67 77 202.5 117.5t327.5 40.5q189 0 322.5 -36t192.5 -103zM253 -6
q-18 -19 -32.5 -25.5t-32.5 -6.5q-3 0 -9 1.5t-15 4.5q4 -9 8.5 -16.5t10.5 -14.5q46 -51 196.5 -84t340.5 -33q162 0 299.5 33t181.5 76q37 38 56 134.5t19 245.5q0 182 -13 259.5t-48 114.5q-44 52 -172 78.5t-331 26.5q-176 0 -322 -34.5t-194 -87.5q-31 -36 -46.5 -127
t-15.5 -232v-64q44 31 62.5 39.5t35.5 8.5t35 -2.5t52 -11.5q32 -8 48 -10.5t31 -2.5q12 0 20.5 6.5t9.5 16.5q-18 -2 -37.5 6.5t-26.5 24.5q25 -9 47.5 -1.5t29.5 26.5q22 -11 40 -3t24 30q26 -2 42 7.5t22 31.5q29 -6 50 16.5t22 23.5q17 -1 39.5 6.5t43.5 22.5q5 2 10 5
l15 9l15 9t10 5q8 1 14 0t8 -4q-3 2 -12 -1.5t-13 -9.5q-32 -30 -46 -40.5t-29 -18.5q-26 -15 -40.5 -35.5t-21.5 -51.5q-4 -16 -11 -31t-18 -31q-5 -6 -10.5 -8.5t-13.5 -3.5q-21 -3 -25 -5t-5 -5q-1 -7 6 -12t17 -5q9 -1 25.5 -0.5t19.5 0.5q7 0 11 6t4 17q0 3 3.5 7
t15.5 13q15 11 20.5 17t7.5 12q2 9 0.5 16t-6.5 13q7 9 17 15t28 10q20 5 32.5 13t21.5 22q18 22 27.5 49t4.5 46q17 -10 33.5 -15t37.5 -5q17 0 26.5 4t14.5 12q18 -2 29.5 3t15.5 17q3 5 1.5 10t-6.5 6q19 -1 35 5.5t16 14.5q0 1 -3 1.5t-8 0.5q-6 0 -12.5 0.5t-17.5 3.5
q-10 2 -15 2.5t-10 0.5q-11 0 -20 -2.5t-15 -6.5l-2 2q5 8 14 11.5t28 3.5q4 0 8.5 -0.5t15.5 -1.5q14 -2 21.5 -2.5t14.5 -0.5q14 0 25 4.5t18 12.5q-15 0 -30 1t-41 5q-22 3 -32.5 4t-20.5 1q-17 0 -30.5 -10t-20.5 -28q-9 -17 -26.5 -20t-35.5 8q-7 5 -14 8t-14 3

<glyph glyph-name="uniFB00" unicode="ff" horiz-adv-x="689" 
d="M324 -20q-57 -106 -133.5 -167t-144.5 -61q-39 0 -65.5 20t-26.5 49q0 22 12.5 36.5t30.5 15.5q2 -45 24 -74t58 -29q46 0 90.5 49.5t102.5 157.5q8 15 36.5 69t106.5 206q55 105 78 148.5t36 69.5h-241q-20 -38 -45.5 -86.5t-77.5 -147.5q-70 -134 -96.5 -183.5
t-38.5 -72.5q-58 -107 -134 -167.5t-146 -60.5q-40 0 -66 18.5t-26 47.5q0 23 14 40.5t35 21.5q-1 -12 1.5 -27.5t7.5 -26.5q9 -25 26.5 -40.5t39.5 -15.5q50 0 93 48.5t102 158.5q10 17 47 87.5t133 256.5q37 72 52 101t25 48h-68q-4 1 -3.5 4t4.5 5l94 41q6 11 14.5 26
t22.5 41q5 8 6.5 11t2.5 4q52 90 110.5 153.5t120.5 97.5q34 19 69.5 28.5t72.5 9.5q30 0 52.5 -3.5t36.5 -9.5q2 -1 3 -2t1 -3q0 -10 -13.5 -23.5t-25.5 -13.5q-8 0 -19 2t-36 8q-31 8 -47.5 10.5t-30.5 2.5q-58 0 -107 -50t-121 -180q-14 -26 -31.5 -58t-35.5 -66h241
q13 24 31 56.5t23 40.5q51 90 110 152t126 97q40 22 84 33t91 11q44 0 89.5 -6t64.5 -14q2 -1 3 -2.5t1 -3.5q0 -9 -15.5 -22.5t-27.5 -13.5q-10 0 -23.5 2.5t-45.5 9.5q-47 12 -73.5 16t-51.5 4q-27 0 -49.5 -5t-42.5 -16q-40 -21 -82 -73t-91 -142q-14 -26 -31.5 -58
t-35.5 -66h22q21 0 43.5 0.5t56.5 2.5q20 1 25.5 1h7.5q1 0 1.5 -0.5t0.5 -1.5q0 -7 -16 -24t-26 -17h-3.5t-11.5 1q-37 1 -65 2t-54 1q-16 -30 -123.5 -235.5t-134.5 -254.5z" />
    <glyph glyph-name="uniFB01" unicode="fi" horiz-adv-x="664" 
d="M446 507q0 -7 -16 -24t-26 -18h-3h-10q-32 1 -56.5 2t-48.5 1q-150 -288 -194 -372t-62 -116q-58 -107 -133.5 -167.5t-146.5 -60.5q-40 0 -66 18.5t-26 47.5q0 23 14 40.5t35 21.5q-1 -12 1.5 -27.5t7.5 -26.5q9 -25 26.5 -40.5t39.5 -15.5q50 0 93 48.5t102 158.5
q8 15 37 69.5t108 207.5q54 103 76 145.5t36 68.5h-9h-9h-48q-5 2 -5 5.5t5 4.5l93 41q7 12 16 28t23 42q4 7 5 9.5t2 3.5q83 144 186 218.5t220 74.5q42 0 74.5 -3t49.5 -8q2 -1 3 -2.5t1 -4.5q0 -10 -13.5 -24t-25.5 -14q-8 0 -20.5 1.5t-42.5 7.5q-44 8 -67.5 10.5
t-43.5 2.5q-72 0 -127 -50.5t-128 -181.5q-5 -9 -21.5 -39.5t-44.5 -82.5h31q17 0 37.5 0.5t52.5 1.5h12h4t1.5 -0.5t0.5 -1.5zM788 691q-42 -42 -63.5 -64t-40.5 -41l-6 6q98 100 157 165t92 108q2 3 4.5 4.5t6.5 1.5q8 0 10.5 -6.5t-3.5 -12.5q-21 -24 -52.5 -56
t-104.5 -105zM466 3q-2 -1 -7.5 -2t-12.5 -1t-13.5 1t-10.5 3q-14 12 -24 30.5t-10 34.5q-1 16 12.5 46.5t92.5 157.5q11 17 27 42.5t22 34.5q22 34 30 50.5t10 29.5q1 16 -9 30t-21 15q-15 -3 -57.5 -34t-71.5 -60l-7 6q27 26 74.5 63.5t79.5 57.5q7 4 14.5 6t13.5 0
q14 -5 29 -30.5t15 -46.5q0 -29 -49 -103.5l-49 -74.5q-69 -108 -82.5 -137.5t-13.5 -45.5q0 -11 11.5 -24t24.5 -17q23 10 61.5 40.5t68.5 60.5l6 -7q-51 -49 -86 -77.5t-68 -48.5z" />
    <glyph glyph-name="uniFB03" unicode="ffi" horiz-adv-x="959" 
d="M30 -20q-58 -107 -134 -167.5t-146 -60.5q-40 0 -66 18.5t-26 47.5q0 23 14 40.5t35 21.5q-1 -12 1.5 -27.5t7.5 -26.5q9 -25 26.5 -40.5t39.5 -15.5q50 0 93 48.5t102 158.5q10 17 47 87.5t133 256.5q37 72 52 101t25 48h-68q-4 1 -3.5 4t4.5 5l94 41q6 11 14.5 26
t22.5 41q5 8 6.5 11t2.5 4q52 90 110.5 153.5t120.5 97.5q34 19 69.5 28.5t72.5 9.5q30 0 52.5 -3.5t36.5 -9.5q2 -1 3 -2t1 -3q0 -10 -13.5 -23.5t-25.5 -13.5q-8 0 -19 2t-36 8q-31 8 -47.5 10.5t-30.5 2.5q-58 0 -107 -50t-121 -180q-14 -26 -31.5 -58t-35.5 -66h241
q13 24 31 57.5t23 41.5q83 143 186 217t219 74q43 0 75.5 -3t48.5 -8q2 -1 3 -2.5t1 -4.5q0 -10 -13 -24t-25 -14q-8 0 -20.5 1.5t-41.5 7.5q-45 8 -69 10.5t-44 2.5q-73 0 -127.5 -50t-125.5 -180q-14 -24 -31.5 -57t-36.5 -69h14q21 0 43 0.5t53 2.5q17 1 21.5 1h6.5
q1 0 1.5 -0.5t0.5 -1.5q0 -7 -16 -24t-25 -17h-3.5t-11.5 1q-34 1 -57.5 2t-45.5 1q-18 -34 -41 -78t-70 -134q-76 -146 -104.5 -200t-41.5 -78q-57 -106 -133.5 -167t-144.5 -61q-39 0 -65.5 20t-26.5 49q0 22 12.5 36.5t30.5 15.5q2 -45 24 -74t58 -29q46 0 90.5 49.5
t102.5 157.5q8 15 36.5 69t106.5 206q55 105 78 148.5t36 69.5h-241q-20 -38 -45.5 -86.5t-77.5 -147.5q-70 -134 -96.5 -183.5t-38.5 -72.5zM1091 700l-69.5 -69.5t-43.5 -44.5l-6 6q112 115 165.5 174.5t82.5 98.5q2 3 5 4.5t7 1.5q8 0 10.5 -6.5t-4.5 -12.5
q-20 -23 -49.5 -53t-97.5 -99zM760 3q-3 -1 -8.5 -2t-12.5 -1t-14 1t-9 3q-14 11 -24 29.5t-11 35.5q0 16 13 45.5t93 158.5q68 107 77 125t11 32q2 16 -8.5 30t-21.5 15q-15 -3 -57.5 -34t-71.5 -60l-7 6q27 26 74.5 63.5t79.5 57.5q7 4 14.5 6t13.5 0q15 -5 30 -30.5
t15 -46.5q0 -28 -48 -101t-51 -77q-75 -120 -85.5 -144.5t-10.5 -38.5q1 -11 12.5 -24t23.5 -17q23 10 62.5 40.5t68.5 60.5l6 -7q-51 -49 -86 -77.5t-68 -48.5z" />
    <glyph glyph-name="f_j" unicode="fj" horiz-adv-x="662" 
d="M446 507q0 -7 -16 -24t-26 -18h-3h-10q-32 1 -56.5 2t-48.5 1q-150 -288 -194 -372t-62 -116q-58 -107 -133.5 -167.5t-146.5 -60.5q-40 0 -66 18.5t-26 47.5q0 23 14 40.5t35 21.5q-1 -12 1.5 -27.5t7.5 -26.5q9 -25 26.5 -40.5t39.5 -15.5q50 0 93 48.5t102 158.5
q8 15 37 69.5t108 207.5q54 103 76 145.5t36 68.5h-9h-9h-48q-5 2 -5 5.5t5 4.5l93 41q4 8 15.5 28.5t30.5 54.5q83 144 186 218.5t220 74.5q42 0 74.5 -3t49.5 -8q2 -1 3 -2.5t1 -4.5q0 -10 -13.5 -24t-25.5 -14q-8 0 -20.5 1.5t-42.5 7.5q-44 8 -67.5 10.5t-43.5 2.5
q-72 0 -127 -50.5t-128 -181.5q-5 -9 -21.5 -39.5t-44.5 -82.5h31q17 0 37.5 0.5t52.5 1.5h12h4t1.5 -0.5t0.5 -1.5zM788 691q-42 -42 -63.5 -64t-40.5 -41l-6 6q98 100 157 165t92 108q2 3 4.5 4.5t6.5 1.5q8 0 10.5 -6.5t-3.5 -12.5q-21 -24 -52.5 -56t-104.5 -105z
M224 -180q-47 -24 -94 -37t-87 -13q-24 0 -45 3.5t-24 8.5q-3 10 13.5 27.5t26.5 17.5q4 0 10 -1t21 -4q40 -6 62.5 -8.5t40.5 -2.5q51 0 93.5 30.5t87.5 99.5q19 29 41.5 69.5t70.5 135.5q104 199 119 233.5t16 48.5q1 18 -7 32.5t-18 16.5q-18 -4 -61.5 -35.5t-71.5 -61.5
l-7 6q25 26 75 65t83 59q7 4 15 5.5t15 -0.5q14 -5 23.5 -32t7.5 -55q-1 -17 -18.5 -56t-128.5 -247q-68 -130 -123 -196t-136 -109z" />
    <glyph glyph-name="f_f_j" unicode="ffj" horiz-adv-x="956" 
d="M30 -20q-58 -107 -134 -167.5t-146 -60.5q-40 0 -66 18.5t-26 47.5q0 23 14 40.5t35 21.5q-1 -12 1.5 -27.5t7.5 -26.5q9 -25 26.5 -40.5t39.5 -15.5q50 0 93 48.5t102 158.5q10 17 47 87.5t133 256.5q37 72 52 101t25 48h-68q-4 1 -3.5 4t4.5 5l94 41q6 11 14.5 26
t22.5 41q5 8 6.5 11t2.5 4q52 90 110.5 153.5t120.5 97.5q34 19 69.5 28.5t72.5 9.5q30 0 52.5 -3.5t36.5 -9.5q2 -1 3 -2t1 -3q0 -10 -13.5 -23.5t-25.5 -13.5q-8 0 -19 2t-36 8q-31 8 -47.5 10.5t-30.5 2.5q-58 0 -107 -50t-121 -180q-14 -26 -31.5 -58t-35.5 -66h241
q13 24 31 56.5t23 40.5q83 144 186 218.5t220 74.5q42 0 74.5 -3t49.5 -8q2 -1 3 -2.5t1 -4.5q0 -10 -13.5 -24t-25.5 -14q-8 0 -20.5 1.5t-42.5 7.5q-44 8 -67.5 10.5t-43.5 2.5q-73 0 -128 -50.5t-126 -181.5q-14 -26 -31.5 -58t-35.5 -66h13q21 0 43 0.5t53 2.5
q17 1 21.5 1h6.5q1 0 1.5 -0.5t0.5 -1.5q0 -7 -16 -24t-25 -17h-4t-12 1q-33 1 -56.5 2t-44.5 1q-16 -30 -123.5 -235.5t-134.5 -254.5q-57 -106 -133.5 -167t-144.5 -61q-39 0 -65.5 20t-26.5 49q0 22 12.5 36.5t30.5 15.5q2 -45 24 -74t58 -29q46 0 90.5 49.5t102.5 157.5
q8 15 36.5 69t106.5 206q55 105 78 148.5t36 69.5h-241q-20 -38 -45.5 -86.5t-77.5 -147.5q-70 -134 -96.5 -183.5t-38.5 -72.5zM1082 691q-42 -42 -63.5 -64t-40.5 -41l-6 6q98 100 157 165t92 108q2 3 5 4.5t7 1.5q8 0 10 -6.5t-4 -12.5q-21 -24 -52.5 -56t-104.5 -105z
M518 -180q-47 -24 -94 -37t-87 -13q-23 0 -44 3.5t-25 8.5q-2 11 14 28t26 17q4 0 10 -1t21 -4q40 -6 62.5 -8.5t40.5 -2.5q51 0 93.5 30t87.5 100q19 29 41 69t71 136q104 199 119 233.5t16 48.5q1 18 -7 32.5t-18 16.5q-18 -4 -61.5 -35.5t-71.5 -61.5l-7 6q25 26 75 65
t83 59q7 4 15 5.5t15 -0.5q14 -5 23.5 -32t7.5 -55q-1 -17 -18.5 -56t-128.5 -247q-68 -130 -123 -196t-136 -109z" />
    <glyph glyph-name="lslash_lslash" unicode="&#x142;&#x142;" horiz-adv-x="582" 
d="M740 968q126 -28 181 -37t90 -9q20 0 44 20t43 55l4 -1q-21 -48 -64 -77.5t-89 -29.5q-44 0 -108.5 10.5t-203.5 43.5q-119 29 -169 37.5t-82 8.5q-45 0 -68.5 -21t-24.5 -61q-1 -34 -9 -52t-22 -18q-15 0 -26 12.5t-7 25.5q16 54 82.5 98.5t134.5 44.5q40 0 100 -9.5
t194 -40.5zM380 3q-2 -1 -7.5 -1.5t-11.5 -0.5q-8 0 -13.5 1t-8.5 3q-13 10 -21.5 29.5t-9.5 38.5q-1 21 14 58t48 97q53 97 111 197.5t78 132.5q47 77 107 133.5t132 92.5q58 29 123 44t130 15q23 0 51 -2t44 -4q5 -1 7.5 -3t2.5 -5q0 -12 -13 -26.5t-24 -14.5
q-10 0 -24.5 1t-48.5 5q-46 5 -70.5 6.5t-45.5 1.5q-41 0 -71.5 -6.5t-56.5 -19.5q-43 -22 -83.5 -67t-84.5 -119q-26 -40 -62.5 -103.5t-150.5 -268.5q-28 -51 -42 -86t-13 -53q1 -12 10.5 -25t20.5 -17q24 10 63.5 40t67.5 59l6 -7q-47 -46 -83.5 -75.5t-70.5 -50.5z
M469 842q7 -2 11 -4.5t6 -9.5q-114 -192 -190.5 -324t-168.5 -295q-24 -44 -38.5 -81t-13.5 -55q1 -11 10.5 -22.5t18.5 -13.5q24 10 63.5 40t67.5 59l6 -7q-47 -46 -83 -75.5t-70 -50.5q-2 -1 -7.5 -1.5t-11.5 -0.5q-9 0 -15 1t-8 3q-12 10 -20.5 27t-9.5 34q-1 21 13 58
t46 93q83 147 176.5 308.5t146.5 248.5q-2 8 -4 11.5t-5 6.5q-7 6 -22.5 6.5t-40.5 -5.5q-26 -5 -63.5 -12t-70.5 -12l-1 7q69 11 141.5 28t136.5 38z" />
    <glyph glyph-name=".notdef" horiz-adv-x="1414" 
d="M1229 695q53 -55 79 -152t26 -236q0 -126 -32.5 -230.5t-84.5 -158.5q-62 -62 -199.5 -107t-293.5 -45q-185 0 -342 46t-215 113q-45 51 -66 142t-21 237q0 114 28.5 216.5t75.5 155.5q67 77 202.5 117.5t327.5 40.5q189 0 322.5 -36t192.5 -103zM253 -6
q-18 -19 -32.5 -25.5t-32.5 -6.5q-3 0 -9 1.5t-15 4.5q4 -9 8.5 -16.5t10.5 -14.5q46 -51 196.5 -84t340.5 -33q162 0 299.5 33t181.5 76q37 38 56 134.5t19 245.5q0 182 -13 259.5t-48 114.5q-44 52 -172 78.5t-331 26.5q-176 0 -322 -34.5t-194 -87.5q-31 -36 -46.5 -127
t-15.5 -232v-64q44 31 62.5 39.5t35.5 8.5t35 -2.5t52 -11.5q32 -8 48 -10.5t31 -2.5q12 0 20.5 6.5t9.5 16.5q-18 -2 -37.5 6.5t-26.5 24.5q25 -9 47.5 -1.5t29.5 26.5q22 -11 40 -3t24 30q26 -2 42 7.5t22 31.5q29 -6 50 16.5t22 23.5q17 -1 39.5 6.5t43.5 22.5q5 2 10 5
l15 9l15 9t10 5q8 1 14 0t8 -4q-3 2 -12 -1.5t-13 -9.5q-32 -30 -46 -40.5t-29 -18.5q-26 -15 -40.5 -35.5t-21.5 -51.5q-4 -16 -11 -31t-18 -31q-5 -6 -10.5 -8.5t-13.5 -3.5q-21 -3 -25 -5t-5 -5q-1 -7 6 -12t17 -5q9 -1 25.5 -0.5t19.5 0.5q7 0 11 6t4 17q0 3 3.5 7
t15.5 13q15 11 20.5 17t7.5 12q2 9 0.5 16t-6.5 13q7 9 17 15t28 10q20 5 32.5 13t21.5 22q18 22 27.5 49t4.5 46q17 -10 33.5 -15t37.5 -5q17 0 26.5 4t14.5 12q18 -2 29.5 3t15.5 17q3 5 1.5 10t-6.5 6q19 -1 35 5.5t16 14.5q0 1 -3 1.5t-8 0.5q-6 0 -12.5 0.5t-17.5 3.5
q-10 2 -15 2.5t-10 0.5q-11 0 -20 -2.5t-15 -6.5l-2 2q5 8 14 11.5t28 3.5q4 0 8.5 -0.5t15.5 -1.5q14 -2 21.5 -2.5t14.5 -0.5q14 0 25 4.5t18 12.5q-15 0 -30 1t-41 5q-22 3 -32.5 4t-20.5 1q-17 0 -30.5 -10t-20.5 -28q-9 -17 -26.5 -20t-35.5 8q-7 5 -14 8t-14 3
q-5 0 -9.5 -1.5t-20.5 -11.5q-16 -13 -35 -26.5t-36 -22.5q-2 -1 -5 -2t-9 -2q-7 -1 -10.5 -2.5t-5.5 -2.5q-9 -3 -12.5 -8.5t-4.5 -17.5q-26 -6 -58 -20t-97 -51q-58 -32 -83 -43t-43 -14q-5 -1 -10.5 -1t-13.5 2q-3 1 -5 1h-4t-5.5 -1t-13.5 -4q-18 -7 -27.5 -9t-16.5 -2
q-8 0 -13 10.5t-5 26.5q-13 5 -23 32t-10 52q0 11 9.5 25t26.5 27q17 12 30.5 27t21.5 28l7 14t8 15q5 8 11 13.5t13 9.5q5 7 14 32t19 38q11 15 27 25t39 15q-14 -14 -13 -26t15 -12q11 0 23 1t37 4q-11 -11 6.5 -19.5t45.5 0.5q-7 -27 1 -35.5t35 -2.5q-9 -25 -1 -35.5
t32 -1.5q-8 -21 -2 -30.5t27 -13.5q-13 -26 -2 -33t45 6q-8 53 -14.5 77.5t-14.5 37.5t-19.5 23t-33.5 22q-35 16 -45 26t-10 24q0 15 9.5 24.5t24.5 9.5q13 0 22 -6t19 -21q2 -3 4 -7.5t6 -15.5q5 -14 8 -21t7 -13q11 -17 28 -27t48 -19l-17 -16l-35 22q15 -37 18 -47
t5 -18q14 1 24.5 -2.5t17.5 -11.5q12 0 19.5 3t12.5 12q2 5 4 6t4 1q7 0 13.5 -1t23.5 -7q6 -3 18.5 -4.5t17.5 -2.5q9 8 14.5 22.5t5.5 28.5q0 25 -10.5 37t-32.5 12q-12 0 -21.5 -5.5t-12.5 -15.5q-3 -6 -2 -9.5t5 -3.5q12 0 17.5 -2.5t5.5 -7.5q0 -4 -1.5 -5t-7.5 -1
q-3 0 -6 1t-8 4q-1 0 -2 0.5l-1 0.5q-2 0 -4 -1t-5 -3q-4 -3 -6 -4t-4 -1q-4 0 -6.5 1t-2.5 3q0 4 4 9t7 6q1 2 2 3.5t1 5.5t1 7l2 6q6 13 20 21t29 8q23 0 39.5 -12t22.5 -33q6 13 15.5 23.5t22.5 17.5q8 5 18.5 7.5t32.5 3.5q25 2 38.5 5t26.5 9l4 -6q-10 -13 -20 -19
t-22 -6q4 -12 0.5 -22.5t-13.5 -15.5q4 -6 -3.5 -16t-17.5 -10q25 -4 55 -5t59 0l1 -5q-6 -15 -24.5 -24.5t-40.5 -10.5q4 -13 -13 -24t-36 -8q0 -17 -15.5 -27t-40.5 -10q-3 -7 -15.5 -11t-28.5 -4q-10 0 -22.5 2.5t-30.5 7.5q-6 -26 -5 -36t9 -12q5 -2 12.5 -1.5t25.5 5.5
q19 5 28.5 6.5t18.5 1.5q23 0 42 -9t35 -27q5 -6 10.5 -13t15.5 -21l19.5 -25.5t13.5 -16.5q22 -24 39 -34.5t33 -10.5q26 0 40.5 20t14.5 56q0 20 -5 37.5t-31 58.5q-8 14 -11.5 27t-3.5 25q0 31 24.5 79t26.5 54h11q2 -16 2.5 -36t-0.5 -61q-2 -30 -2 -44t1 -25
q1 -5 9.5 -43.5t8.5 -65.5q0 -45 -23 -72t-60 -27q-17 0 -32.5 5t-61.5 34v-48q0 -47 13 -58t69 -7q40 1 54.5 -13.5t10.5 -51.5q-3 -46 -8 -86.5t-11 -74.5q-4 -25 -37 -44t-78 -19q-12 0 -19 1.5t-7 4.5q-2 9 -0.5 18t5.5 10l6 6t7 6q4 4 7.5 5.5t7.5 1.5h5t9 -1
q5 -1 7.5 -1h4.5q19 1 26.5 7.5t7.5 22.5q-4 24 -5.5 41t-1.5 54q0 22 -6 30.5t-23 8.5q-5 0 -12 -0.5t-22 -2.5q-16 -2 -24 -2.5t-15 -0.5q-39 0 -60 27t-21 75q0 21 -1.5 29.5t-4.5 10.5q-7 -11 -11.5 -24t-4.5 -26q0 -44 15.5 -70.5t48.5 -39.5q2 -2 2 -11.5t-2 -14.5
q-5 -6 -11.5 -13.5t-19.5 -21.5q-20 -24 -30.5 -36t-18.5 -23q-16 -27 -53 -42t-80 -14q-5 0 -14.5 3t-9.5 6q-1 10 -0.5 19.5t2.5 12.5q1 1 12.5 9t18.5 8h7.5t10.5 -1q5 -1 7.5 -1h4.5q21 0 30.5 3.5t17.5 12.5q2 4 5 8t8 11q6 9 9 13t5 8q20 30 16 46t-33 27
q-37 14 -49 35t0 51q10 26 27 44t54 38q-21 6 -47 -7t-47 -42q-11 -16 -31 -47t-29 -44q-21 -28 -42 -39.5t-48 -11.5q-20 0 -41 7.5t-47 23.5q12 20 14 46.5t-7 42.5q-17 -68 -34 -88t-57 -13q-11 -23 -35 -32.5t-58 -4.5q-9 -22 -34.5 -38t-51.5 -15q-6 0 -12 -3t-16 -14z
M626 670q4 -2 5.5 -3t2.5 -1q-3 4 -5.5 8.5l-7.5 13.5q-4 9 -7 14t-6 9q-8 9 -10.5 10.5t-6.5 1.5q-5 0 -8.5 -4.5t-3.5 -9.5q0 -8 7.5 -15.5t22.5 -16.5q3 -1 6.5 -2.5zM771 582q0 3 2.5 5.5t8.5 4.5q5 2 9.5 0.5t4.5 -5.5q0 -3 -2 -4.5t-9 -2.5q-7 0 -10.5 0.5t-3.5 1.5z
M448 548q0 -10 -2 -15.5t-7 -9.5v-7q15 8 22.5 19t7.5 27q0 12 -10 21t-23 9q-12 0 -22.5 -8t-22.5 -25l3 -5q10 9 16.5 13t12.5 4q10 0 17.5 -6.5t7.5 -16.5zM725 539q-2 5 -9.5 7t-16.5 1q-4 -4 -1 -16t7 -12q7 0 15.5 8t4.5 12zM314 492q1 -4 1 -6v-3q0 -2 -0.5 -4
t-3.5 -6l-1.5 -3t-0.5 -2q0 -3 1 -4t3 -1l1 1t4 5q4 8 6.5 10.5t4.5 3.5q7 5 12 10t10 12h-4.5t-7.5 1q-7 1 -10 1h-6q-5 0 -7 -1.5t-2 -5.5v-3v-5zM228 442l-0.5 -2t-0.5 -6q0 -16 3 -25.5t9 -9.5q1 0 2 1.5t1 4.5v14t1 6q2 2 4.5 3.5t6.5 3.5q5 2 6 3.5t1 3.5q0 4 -1.5 5
t-3.5 -2q-7 -5 -17.5 -2.5zM324 371q-39 -4 -51 -2t-22 8l-3 -2q8 -12 17 -17.5t25 -3.5q2 3 10 5t15 2q3 0 5.5 -1t7.5 -4q2 -2 3 -2.5t2 -0.5q3 0 4 1t1 4q0 6 -4 9.5t-10 3.5zM153 161q-11 -5 -14 -11t-3 -17q1 -24 4 -50t7 -50q9 5 17.5 8t23.5 4q42 7 74 22t57 39
q7 7 17 14t30 20q32 20 43 32.5t14 27.5q-16 -14 -28.5 -18.5t-30.5 -4.5q-16 0 -27.5 7.5t-17.5 22.5q-19 -16 -41.5 -12.5t-31.5 24.5q-4 10 -7.5 12.5t-9.5 2.5q-4 0 -8 -3t-12 -14q-10 -14 -17.5 -19.5t-15.5 -6.5q-2 -11 -7 -18t-16 -12z" />
    <glyph glyph-name=".null" horiz-adv-x="0" 
 />
    <glyph glyph-name="nonmarkingreturn" horiz-adv-x="333" 
 />
    <glyph glyph-name="NULL" horiz-adv-x="0" 
 />
    <glyph glyph-name="NULL" horiz-adv-x="0" 
 />
    <glyph glyph-name="CR" unicode="&#xd;" horiz-adv-x="290" 
 />
    <glyph glyph-name="space" unicode=" " horiz-adv-x="290" 
 />
    <glyph glyph-name="exclam" unicode="!" horiz-adv-x="305" 
d="M353 622q-128 -236 -161.5 -302.5t-68.5 -139.5l-8 2q50 104 91 194.5t112 257.5q33 80 57 135t40 88q3 7 10 11t17 4t19.5 -4t12.5 -10q2 -3 2 -6.5t-2 -5.5q-15 -35 -66 -126t-55 -98zM85 5q-4 -3 -13 -5t-20 -2q-13 0 -21.5 2t-13.5 6q-7 13 1.5 40t23.5 36
q5 2 15.5 4t21.5 2q10 0 20.5 -3t12.5 -6q4 -19 -5 -42t-22 -32z" />
    <glyph glyph-name="quotedbl" unicode="&#x22;" horiz-adv-x="289" 
d="M358 687q6 12 14.5 17.5t21.5 5.5q15 0 20 -10.5t-2 -23.5q-1 -3 -6.5 -12t-23.5 -37q-48 -77 -74.5 -123t-43.5 -82q-3 -7 -7 -6t-1 8q19 40 40 93t50 137q7 18 9 24zM232 686q6 12 14.5 17.5t21.5 5.5q15 0 20 -10.5t-2 -23.5q-1 -3 -6.5 -12t-23.5 -37
q-48 -77 -74.5 -123t-43.5 -82q-3 -7 -7 -6t-1 8q19 40 40 93t50 137q7 18 9 24z" />
    <glyph glyph-name="numbersign" unicode="#" horiz-adv-x="809" 
d="M564 218q-19 1 -42.5 1h-78.5h-86.5t-44.5 -1q0 -1 1 -67.5t3 -136.5q-2 -1 -8.5 -6.5t-16.5 -3.5q1 30 2.5 58t3.5 73l3 51t1 32q-36 -1 -72.5 -2.5t-122.5 -4.5q-1 2 -6.5 8.5t-3.5 16.5q60 -4 106 -5.5t100 -2.5v16.5v29.5q1 28 1 44v32v85.5t-1 42.5q-35 -1 -70.5 -2
t-125.5 -4q-1 2 -6.5 8.5t-3.5 16.5q53 -3 98 -5t108 -4v38.5t-1 59.5q-1 35 -1.5 55t-0.5 40q7 5 10.5 6.5t16.5 -0.5q-1 -16 -6 -86t-6 -113q19 -1 44 -1h84h80t43 1v38.5t-1 59.5q-1 35 -1.5 55t-0.5 40q7 5 10.5 6.5t16.5 -0.5q-1 -16 -6 -86t-6 -113q23 0 48 0.5
t69 1.5q35 1 52 1.5t32 0.5q5 -7 6.5 -10.5t-0.5 -16.5q-64 5 -110.5 8t-96.5 4q-1 -36 -1.5 -65.5t-0.5 -60.5v-61.5v-61.5q24 0 49.5 0.5t71.5 1.5q33 1 50 1.5t32 0.5q5 -7 6.5 -10.5t-0.5 -16.5q-67 6 -113 8.5t-96 3.5q0 -1 1 -66.5t3 -136.5q-2 -1 -8.5 -6.5
t-16.5 -3.5q1 30 2.5 58.5t3.5 73.5q2 34 3 50.5t1 31.5zM314 478q-1 -38 -1.5 -67t-0.5 -60v-61.5v-61.5q20 -1 45 -1h85h79t43 1q1 36 1.5 64t0.5 58v85.5t-1 42.5q-19 1 -43 1h-79h-85t-44 -1z" />
    <glyph glyph-name="dollar" unicode="$" horiz-adv-x="560" 
d="M580 427q-3 -6 -8 -4.5t-2 6.5q54 103 38 171t-98 87q-33 -62 -69 -131.5t-88 -172.5q72 -57 94 -93.5t22 -79.5q0 -96 -76 -162t-187 -66q-12 0 -25.5 1t-27.5 4q-10 -21 -26.5 -55t-20.5 -42q-5 -6 -11 -7t-16 1q17 31 31 57t26 49q-40 8 -81 26t-80 45q-1 1 -3.5 2.5
t-3.5 2.5t-1 3t1 5q6 16 39.5 81t59.5 114q3 5 7.5 3.5t1.5 -7.5q-51 -102 -33.5 -173t98.5 -92q45 84 87.5 166t84.5 165q-44 35 -57 46.5t-22 22.5q-20 23 -29.5 46t-9.5 49q0 88 74.5 148t183.5 60q12 0 23.5 -0.5t21.5 -2.5q4 7 8 16t12 26q9 17 13 26t8 16q5 3 10.5 4
t14.5 -1q-4 -7 -9 -16t-14 -26q-11 -20 -16 -30t-10 -18q28 -6 56 -17t95 -49q5 -4 6 -6t0 -5q-13 -28 -44 -93.5t-48 -99.5zM448 694q-87 0 -143.5 -44.5t-56.5 -118.5q0 -35 20 -66t77 -75q13 26 27 55t42 85q33 67 49.5 100t29.5 61l-22 2t-23 1zM211 -8q89 0 145 55
t56 129q0 39 -19.5 72.5t-71.5 75.5q-47 -92 -86 -170.5t-77 -156.5q13 -2 26.5 -3.5t26.5 -1.5z" />
    <glyph glyph-name="percent" unicode="%" horiz-adv-x="839" 
d="M861 689q-87 -70 -204.5 -168.5t-211.5 -180.5q-31 -27 -126 -112.5t-253 -229.5q-9 -2 -19 5.5t-11 8.5q21 18 168 138.5t230 191.5q42 37 101 90t178 161q56 51 80.5 73.5t42.5 38.5q5 1 9 -0.5t8 -8.5l4.5 -4.5t3.5 -2.5zM358 695q62 0 89 -44.5t9 -112.5
q-11 -40 -40.5 -74t-70.5 -55q-32 -16 -56 -24.5t-37 -8.5q-63 0 -92.5 46t-11.5 110q10 40 39.5 74t71.5 56q32 17 56 25t43 8zM199 538q-15 -58 7 -95.5t72 -37.5q25 0 39 2t27 7q20 21 34.5 49.5t25.5 68.5q17 63 -4.5 100.5t-71.5 37.5q-19 0 -36.5 -3.5t-28.5 -8.5
q-22 -22 -37.5 -51.5t-26.5 -68.5zM641 312q62 0 89 -44.5t9 -112.5q-11 -40 -40.5 -74t-70.5 -55q-32 -16 -56 -24.5t-37 -8.5q-63 0 -92.5 46t-11.5 110q10 40 39.5 74t71.5 56q32 17 56 25t43 8zM482 155q-15 -58 7 -95.5t72 -37.5q25 0 39 2t27 7q20 21 34.5 49.5
t25.5 68.5q17 63 -4.5 100.5t-71.5 37.5q-19 0 -36.5 -3.5t-28.5 -8.5q-22 -22 -37.5 -51.5t-26.5 -68.5z" />
    <glyph glyph-name="ampersand" unicode="&#x26;" horiz-adv-x="1077" 
d="M496 174q-56 -88 -123 -142t-141 -70q-45 1 -88 32t-72 82q-29 53 -32.5 106t21.5 89q39 58 120 105t180 70q-11 34 -16 65t-4 58q1 42 28 93.5t71 94.5q36 35 85.5 54.5t101.5 19.5q49 0 93 -20t69 -52q-38 -43 -72 -85.5t-64 -84.5l-7 4q8 11 17.5 24t27.5 37
q28 37 38 51.5t15 22.5q-23 33 -65.5 52t-94.5 19q-46 0 -85 -15t-65 -42q-25 -24 -38 -56.5t-14 -71.5q-2 -62 30 -154.5t90 -191.5q67 -112 136.5 -180.5t118.5 -68.5q12 0 25 3.5t25 9.5q36 18 65.5 58t48.5 96q28 82 11.5 146t-77.5 93q-24 11 -52.5 16t-62.5 5
q-17 0 -44 -2t-37 -4q-4 -1 -5.5 0t-1.5 4t2.5 7.5t6.5 9.5q8 11 13.5 17.5t9.5 9.5q3 3 6 4t8 1q10 0 69 1.5t106 2.5q86 3 131 8.5t78 17.5q4 1 7.5 2t8.5 3t7 2.5t4 1.5q1 1 2.5 0.5t1.5 -1.5q0 -2 -2.5 -5l-2.5 -3q-13 -12 -43 -35t-45 -32q-4 -3 -7 -4.5t-5 -1.5h-15
q-20 0 -43 1l-69 3l-64.5 3t-39.5 1q36 -10 52.5 -15.5t28.5 -11.5q82 -39 115 -112t4 -146q-16 -41 -55.5 -76t-112.5 -70q-9 -4 -19 -9.5t-31 -15.5l-28.5 -15t-17.5 -9q-43 5 -100.5 57t-116.5 139zM366 430q-93 -10 -160.5 -47t-100.5 -93q-19 -33 -13 -81t34 -98
t67 -80.5t76 -30.5q53 0 113 49.5t109 131.5q-7 10 -14.5 22t-22.5 37q-28 49 -50.5 97t-37.5 93z" />
    <glyph glyph-name="quotesingle" unicode="'" horiz-adv-x="164" 
d="M232 686q6 12 14.5 17.5t21.5 5.5q15 0 20 -10.5t-2 -23.5q-1 -3 -6.5 -12t-23.5 -37q-48 -77 -74.5 -123t-43.5 -82q-3 -7 -7 -6t-1 8q19 40 40 93t50 137q7 18 9 24z" />
    <glyph glyph-name="parenleft" unicode="(" horiz-adv-x="400" 
d="M188 -265q4 -5 -1 -8t-8 2q-73 109 -71.5 274.5t75.5 325.5q69 149 191 268t281 192q8 5 10.5 1.5t-6.5 -8.5q-147 -69 -262.5 -187t-187.5 -273q-75 -166 -81.5 -325t60.5 -262z" />
    <glyph glyph-name="parenright" unicode=")" horiz-adv-x="400" 
d="M229 783q-4 5 1 8t8 -2q73 -109 71.5 -274.5t-75.5 -325.5q-69 -149 -191 -268t-281 -192q-8 -5 -10.5 -1.5t6.5 8.5q147 69 262.5 187t187.5 273q75 166 81.5 325t-60.5 262z" />
    <glyph glyph-name="asterisk" unicode="*" horiz-adv-x="351" 
d="M171 401q-8 4 -11 20t5 32l2 2.5t9 10.5q29 32 43 50t18 28q-13 -1 -34.5 -7.5t-60.5 -21.5l-12 -4l-3 -1q-17 -2 -31 6t-17 18q2 11 14.5 20t29.5 11q1 0 3.5 -0.5t11.5 -2.5q42 -9 65 -12.5t34 -1.5q-8 12 -27 29.5t-51 43.5q-4 3 -5.5 4l-1.5 1q-10 15 -10 31t8 22
q9 6 23.5 0t24.5 -22q1 -1 2.5 -4.5t5.5 -17.5q14 -39 21.5 -57.5t13.5 -26.5q5 11 9.5 30t11.5 56q3 15 3.5 19.5t1.5 5.5q7 16 20.5 24t23.5 5q8 -4 11 -20t-5 -32q0 -1 -2.5 -4t-11.5 -13q-28 -31 -41 -47.5t-17 -26.5q13 1 34.5 7.5t60.5 21.5l12 4l3 1q17 2 31 -6
t17 -19q-2 -10 -14.5 -19t-29.5 -11l-2.5 0.5t-10.5 2.5q-42 9 -65.5 12.5t-35.5 1.5q8 -12 28 -30.5t52 -43.5q3 -3 4 -3.5l1 -0.5q10 -15 10 -31t-9 -23q-8 -5 -22.5 1.5t-24.5 21.5q-1 0 -2.5 4.5l-6.5 19.5q-13 38 -20.5 56t-13.5 26q-5 -11 -9.5 -29.5t-11.5 -56.5
q-2 -15 -3 -19.5t-2 -5.5q-7 -16 -20.5 -24t-23.5 -5z" />
    <glyph glyph-name="plus" unicode="+" 
d="M488 347q5 -4 5 -12.5t-5 -11.5q-66 5 -96 6t-67 1q0 -40 1 -71t6 -93q-3 -5 -11.5 -5t-12.5 5q2 28 2.5 57t0.5 107q-39 0 -70 -1t-93 -6q-5 3 -5 11.5t5 12.5q69 -4 99 -5t64 -1q0 81 -0.5 109.5t-2.5 55.5q4 5 12.5 5t11.5 -5q-5 -66 -6 -96.5t-1 -68.5q36 0 67 1
t96 5z" />
    <glyph glyph-name="comma" unicode="," horiz-adv-x="247" 
d="M112 18q-17 -33 -52 -61t-86 -51q-3 -1 -4 0t1 3q35 18 60.5 42t44.5 55l9 15t5 10h-1q-7 -10 -23 -20.5t-26 -10.5q-7 0 -11.5 2t-8.5 7q-6 11 2.5 35.5t21.5 35.5q5 3 16 5t22 2t21 -3t15 -8q6 -9 4 -24.5t-10 -33.5z" />
    <glyph glyph-name="hyphen" unicode="-" horiz-adv-x="375" 
d="M70 267q24 -2 52 -3t65 -1t66 1t52 3q5 -4 2.5 -16t-8.5 -14q-27 2 -54 3t-63 1q-22 0 -45.5 -0.5t-72.5 -3.5q-4 4 -1.5 15t7.5 15z" />
    <glyph glyph-name="period" unicode="." horiz-adv-x="247" 
d="M53 -2q-13 0 -21.5 2t-13.5 6q-7 13 1.5 40t23.5 36q5 2 15.5 4t21.5 2q10 0 20.5 -3t12.5 -6q4 -19 -5 -42t-22 -32q-4 -3 -13 -5t-20 -2z" />
    <glyph glyph-name="slash" unicode="/" horiz-adv-x="356" 
d="M646 778q-78 -82 -195.5 -213.5t-278.5 -317.5q-184 -210 -280.5 -321t-169.5 -197q-19 -5 -22 -4t-7 5q57 61 124 135.5t341 385.5q107 123 240 276t220 255q11 3 15 2.5t13 -6.5z" />
    <glyph glyph-name="zero" unicode="0" horiz-adv-x="860" 
d="M523 61q-48 -31 -114 -52.5t-117 -21.5q-47 0 -90 19.5t-64 51.5q-44 63 -40 153t59 185q45 76 119 147.5t163 126.5q46 30 115 52.5t118 22.5q46 0 86.5 -19.5t61.5 -51.5q44 -61 38.5 -157t-62.5 -195q-42 -72 -109 -136.5t-164 -124.5zM193 89q22 -32 68.5 -52
t100.5 -20q44 0 82.5 13t74.5 39q74 46 121 99t97 139q53 96 61 190.5t-31 150.5q-23 34 -66.5 53.5t-95.5 19.5q-39 0 -79 -14.5t-80 -43.5q-73 -44 -125 -102t-104 -149q-50 -92 -56.5 -180t32.5 -143z" />
    <glyph glyph-name="one" unicode="1" horiz-adv-x="342" 
d="M-12 2q-36 -1 -53.5 -1.5t-30.5 -0.5q-4 0 -3 3t5 3q53 0 84 18t60 65q22 35 154 269.5t147 264.5q7 14 6 20.5t-10 6.5q-7 0 -25 -8.5t-87 -47.5q-4 -2 -6.5 1t1.5 5q69 36 123.5 70.5t101.5 71.5q7 5 9.5 5.5t4.5 -0.5q4 -1 5 -3.5t-1 -6.5q-12 -20 -175 -312
t-189 -339q-26 -49 -12.5 -64t79.5 -16q4 0 3.5 -3t-4.5 -3q-15 0 -36 0.5t-61 1.5q-23 1 -31.5 1h-12.5h-14t-32 -1z" />
    <glyph glyph-name="two" unicode="2" horiz-adv-x="734" 
d="M-40 -4h-23h-6q-4 0 -5.5 7.5t2.5 9.5q127 64 221 113.5t171 92.5q162 92 244 159t106 125q36 85 -11.5 147t-149.5 62q-30 0 -54.5 -4.5t-45.5 -14.5q-46 -22 -78 -67t-60 -126q-8 -23 -17.5 -31.5t-25.5 -8.5q-13 0 -19.5 5t-6.5 15q0 5 2 12t6 16q27 61 78.5 110.5
t118.5 79.5q35 16 73 24.5t77 8.5q109 0 161.5 -66t13.5 -161q-16 -37 -60 -77t-125 -90q-31 -19 -71 -41.5t-151 -82.5q-80 -43 -151 -83.5t-141 -82.5l256 1q69 0 116 6t81 18q38 15 68 41.5t76 90.5q4 5 8 3t0 -7l-11 -16.5t-26 -40.5q-33 -51 -49 -75.5t-28 -41.5
q-8 -12 -14 -17t-15 -6q-8 -1 -33.5 -1.5t-96.5 -0.5q-35 -1 -51.5 -1h-28.5q-64 0 -142 -1t-183 -3z" />
    <glyph glyph-name="three" unicode="3" horiz-adv-x="699" 
d="M412 30q-53 -26 -109 -40.5t-101 -14.5q-96 0 -152.5 50.5t-37.5 125.5q12 37 57 67t101 40q4 1 4.5 -1.5t-2.5 -3.5q-39 -6 -66 -26t-36 -51q-14 -74 43.5 -122.5t152.5 -48.5q38 0 74 8t68 23q37 19 66.5 45.5t47.5 58.5q25 44 29 91t-13 88q-19 44 -57.5 69.5
t-87.5 25.5q-29 0 -58 -7.5t-72 -27.5q-18 -9 -25 -11.5t-12 -2.5q-7 0 -11 3.5t-4 9.5q0 9 6.5 14t19.5 7q215 34 296 66t109 83q19 34 19 69.5t-19 63.5q-18 27 -50 41.5t-73 14.5q-29 0 -50.5 -4t-39.5 -12q-40 -16 -67 -50t-44 -88q-8 -24 -16.5 -32t-21.5 -8
q-18 0 -24 11.5t4 29.5q24 48 67.5 84.5t100.5 57.5q32 13 65 19.5t65 5.5q45 0 81.5 -15t59.5 -42q24 -30 26 -68.5t-20 -77.5q-16 -28 -49.5 -48.5t-93.5 -38.5q-19 -5 -42.5 -11.5t-124.5 -29.5q17 2 34.5 3.5t30.5 1.5q50 0 88.5 -25.5t53.5 -68.5q14 -39 6.5 -84.5
t-36.5 -90.5q-21 -33 -63 -66t-97 -60z" />
    <glyph glyph-name="four" unicode="4" horiz-adv-x="723" 
d="M338 2q-27 1 -38.5 1h-19.5q-9 0 -21.5 -0.5t-41.5 -0.5q-34 -1 -49.5 -1.5t-26.5 -0.5q-5 0 -4 3t5 3q58 0 89 17t60 64q3 4 25 43t80 142h-164t-176 1q-4 0 -5 5.5t3 7.5q125 82 314.5 218.5t322.5 239.5q5 3 9.5 4.5t7.5 1.5t4.5 -1.5t1.5 -4.5q0 -2 -1 -5t-2 -5
q-6 -9 -112 -199t-123 -221h40h40q71 0 101 16.5t79 86.5q3 4 7.5 1.5t0.5 -6.5q-14 -20 -38 -52.5t-56 -78.5q-4 -6 -9 -8t-16 -2q-39 0 -84 0.5t-88 0.5q-32 -58 -62 -113t-37 -68q-28 -52 -12 -68t83 -17q4 0 3.5 -3t-4.5 -3q-14 0 -32 0.5zM531 613l-346 -248
q-30 -22 -41 -31t-18 -17q11 -2 30.5 -3t53.5 -1q57 0 112 0.5t98 0.5q16 29 36 64.5t58 102.5q54 98 72 129.5t24 41.5q3 6 4.5 9.5t1.5 4.5t-1 2t-3 1t-19.5 -12t-61.5 -44z" />
    <glyph glyph-name="five" unicode="5" horiz-adv-x="680" 
d="M396 38q-57 -30 -115 -46.5t-106 -16.5q-95 0 -145.5 46.5t-29.5 120.5q11 39 63 73.5t109 44.5q5 1 5.5 -2t-2.5 -4q-52 -9 -82 -30.5t-39 -56.5q-17 -68 34.5 -113.5t143.5 -45.5q47 0 87.5 9t73.5 26q37 19 69.5 51.5t56.5 75.5q26 47 31 94.5t-13 87.5
q-19 44 -59 68.5t-93 24.5q-45 0 -93.5 -19.5t-102.5 -58.5q-1 -1 -18.5 -14t-26.5 -13q-8 0 -11.5 3.5t-3.5 11.5t7.5 13.5t19.5 5.5q5 0 11 2.5t13 7.5q8 8 14.5 16t12.5 17l197 303q3 4 5.5 5.5t5.5 1.5h324q46 0 72 15.5t51 61.5q2 4 5.5 2t1.5 -6q-7 -13 -16 -28.5
t-25 -43.5q-14 -25 -18 -32t-5 -8q-4 -6 -8 -8t-17 -2h-35.5t-118.5 1q-124 1 -170.5 1h-59.5q-3 0 -5.5 -1.5t-4.5 -3.5q-59 -88 -116.5 -175t-62.5 -97q-4 -6 -5 -8t-1 -3t0.5 -1.5t1.5 -0.5q4 0 11.5 3t13.5 7q74 43 120.5 56.5t92.5 13.5q51 0 92 -25.5t62 -69.5
q19 -41 14.5 -88.5t-32.5 -93.5q-26 -43 -73.5 -83.5t-107.5 -71.5z" />
    <glyph glyph-name="six" unicode="6" horiz-adv-x="767" 
d="M486 27q-39 -21 -86 -34t-88 -13q-48 0 -91 20t-71 56q-49 66 -46 151.5t58 185.5q89 159 278.5 255.5t453.5 120.5q8 0 8.5 -3t-6.5 -5q-247 -22 -415 -111t-258 -244q-4 -5 -9 -14.5t-10 -19.5q15 14 34 27.5t45 29.5q47 29 99.5 44.5t105.5 15.5q51 0 93.5 -22.5
t64.5 -61.5q29 -50 29 -112.5t-32 -121.5q-20 -42 -58.5 -77.5t-98.5 -66.5zM200 84q28 -37 70.5 -57.5t92.5 -20.5q36 0 64.5 6t53.5 20q43 23 72 58t52 91q19 50 14.5 106.5t-28.5 95.5q-25 38 -67 59t-93 21q-37 0 -74.5 -10t-69.5 -29q-44 -27 -67.5 -53t-38.5 -61
q-27 -59 -21 -120.5t40 -105.5z" />
    <glyph glyph-name="seven" unicode="7" horiz-adv-x="658" 
d="M199 -48q-12 -27 -21 -35t-23 -8q-21 0 -26 16t8 37q37 61 96 137.5t137 165.5q84 97 187.5 204t213.5 211h-346q-81 0 -121 -19.5t-88 -93.5q-2 -4 -6.5 -0.5t-1.5 7.5q16 20 41 58t58 93q3 4 38.5 3t71.5 -1h408l3 -10q-210 -198 -292.5 -284t-142.5 -161
q-59 -74 -105.5 -151.5t-88.5 -168.5z" />
    <glyph glyph-name="eight" unicode="8" horiz-adv-x="717" 
d="M486 52q-55 -35 -116 -55t-117 -20q-116 0 -178.5 55.5t-39.5 135.5q16 58 90.5 112.5t235.5 119.5q-79 41 -102 80t-2 88q14 33 48.5 65t83.5 58q52 27 106.5 41.5t105.5 14.5q100 0 151.5 -51.5t26.5 -119.5q-19 -45 -67.5 -81.5t-167.5 -88.5l-4 3q85 37 131.5 76.5
t59.5 86.5q16 57 -33.5 102t-136.5 45q-52 0 -93.5 -8.5t-73.5 -25.5q-35 -18 -59.5 -43t-36.5 -55q-13 -31 -3.5 -57.5t44.5 -52.5q13 -10 32 -21t80 -41q60 -30 89.5 -49.5t47.5 -39.5q31 -32 35.5 -69.5t-16.5 -81.5q-16 -32 -47.5 -64t-73.5 -59zM367 397
q-142 -58 -207 -106.5t-79 -104.5q-16 -68 49 -120.5t169 -52.5q56 0 102 11t80 32q27 17 47.5 40.5t34.5 52.5q19 42 14 77t-34 66q-18 17 -44.5 34.5t-87.5 48.5q-11 5 -22 10.5t-22 11.5z" />
    <glyph glyph-name="nine" unicode="9" horiz-adv-x="761" 
d="M402 46q-53 -28 -109.5 -44.5t-101.5 -16.5q-91 0 -134.5 45.5t-20.5 110.5q10 27 33 46t63 31q3 1 3 -1t-2 -3q-15 -6 -28 -21t-19 -34q-19 -59 29.5 -102t131.5 -43q43 0 81.5 9.5t69.5 26.5q60 32 117 95.5t125 177.5q1 1 2 2.5t3 5.5q2 5 3.5 7t2.5 4
q-14 -11 -27.5 -21t-26.5 -18q-42 -30 -102.5 -48.5t-117.5 -18.5q-51 0 -93 20.5t-67 57.5q-34 47 -35.5 109t30.5 127q22 43 62.5 82t91.5 67q37 20 88.5 34t91.5 14q47 0 92.5 -21t72.5 -56q51 -64 47 -155t-66 -196q-49 -84 -124 -154.5t-166 -118.5zM273 341
q26 -36 66.5 -55t92.5 -19q48 0 89.5 10.5t71.5 31.5q41 26 57.5 46.5t30.5 52.5q28 62 22 130.5t-42 112.5q-26 33 -70.5 51t-100.5 18q-33 0 -63 -6.5t-57 -20.5q-42 -24 -68.5 -56t-48.5 -82q-23 -53 -17.5 -112.5t37.5 -101.5z" />
    <glyph glyph-name="colon" unicode=":" horiz-adv-x="247" 
d="M174 416q-13 0 -21 2t-14 6q-7 12 1.5 39.5t23.5 35.5q5 3 15.5 5t21.5 2t21 -3t12 -6q4 -19 -4.5 -42t-22.5 -33q-4 -3 -12.5 -4.5t-20.5 -1.5zM53 -2q-13 0 -21.5 2t-13.5 6q-7 13 1.5 40t23.5 36q5 2 15.5 4t21.5 2q10 0 20.5 -3t12.5 -6q4 -19 -5 -42t-22 -32
q-4 -3 -13 -5t-20 -2z" />
    <glyph glyph-name="semicolon" unicode=";" horiz-adv-x="247" 
d="M174 416q-13 0 -21 2t-14 6q-7 12 1.5 39.5t23.5 35.5q5 3 15.5 5t21.5 2t21 -3t12 -6q4 -19 -4.5 -42t-22.5 -33q-4 -3 -12.5 -4.5t-20.5 -1.5zM112 18q-17 -33 -52 -61t-86 -51q-3 -1 -4 0t1 3q35 18 60.5 42t44.5 55l9 15t5 10h-1q-7 -10 -23 -20.5t-26 -10.5
q-7 0 -11.5 2t-8.5 7q-6 11 2.5 35.5t21.5 35.5q5 3 16 5t22 2t21 -3t15 -8q6 -9 4 -24.5t-10 -33.5z" />
    <glyph glyph-name="less" unicode="&#x3c;" 
d="M312 271q63 -27 90.5 -38t59.5 -21q2 -6 -0.5 -12t-6.5 -8q-14 8 -51.5 25t-98.5 43q-41 19 -67.5 31t-80.5 36q-1 0 -1 6t1 6q11 5 21.5 10t30.5 13q33 15 53.5 24.5t44.5 20.5q57 25 85 38.5t58 29.5q5 -3 7 -8.5t1 -11.5q-33 -11 -80 -31.5t-66 -28.5
q-32 -14 -56.5 -25t-79.5 -36q11 -5 23 -10.5t34 -15.5q27 -13 44 -20.5t35 -16.5z" />
    <glyph glyph-name="equal" unicode="=" 
d="M320 421q60 0 96.5 1t74.5 3q4 -5 5 -11t-2 -13q-41 7 -106.5 6.5t-66.5 -0.5q-25 0 -78.5 1t-93.5 -2q-4 3 -5.5 9.5t0.5 12.5q38 -4 67.5 -5.5t108.5 -1.5zM320 266q60 0 96.5 1t74.5 3q5 -3 5.5 -10t-2.5 -14q-41 7 -106.5 6.5t-66.5 -0.5q-25 0 -78.5 1t-93.5 -2
q-5 1 -6.5 8.5t1.5 13.5q38 -4 67.5 -5.5t108.5 -1.5z" />
    <glyph glyph-name="greater" unicode="&#x3e;" 
d="M325 397q-19 8 -66 28.5t-80 31.5q-1 6 1 11.5t7 8.5q30 -16 58 -29.5t85 -38.5q24 -11 44.5 -20.5t53.5 -24.5q20 -8 30.5 -13t21.5 -10q2 0 2 -6t-2 -6q-54 -24 -80.5 -36t-67.5 -31q-61 -26 -98.5 -43t-51.5 -25q-4 2 -6.5 8t-0.5 12q32 10 59.5 21t90.5 38q1 0 50 22
t86 40q-61 29 -84 39t-52 23z" />
    <glyph glyph-name="question" unicode="?" horiz-adv-x="623" 
d="M232 175q-2 -1 -6.5 -2t-10.5 -1q-8 0 -16 2t-10 4q-14 13 -23 33.5t-11 39.5q-1 21 4 40.5t17 39.5q19 32 63 60.5t161 74.5q128 49 176 82.5t66 72.5q20 45 10.5 89t-47.5 75q-30 25 -74 38t-98 13q-84 0 -142 -31.5t-72 -84.5q-12 -51 16 -86.5t81 -35.5q21 0 49.5 9
t50.5 21l5 -6q-57 -29 -89 -38.5t-61 -9.5q-59 0 -88.5 38.5t-15.5 93.5q19 63 94.5 100.5t172.5 35.5q64 0 115.5 -14t88.5 -40q47 -35 60.5 -85t-10.5 -104q-18 -41 -68 -75.5t-183 -85.5q-111 -42 -151.5 -67t-55.5 -53q-8 -13 -11.5 -26.5t-2.5 -29.5q2 -17 11.5 -32
t23.5 -21q28 13 64 35.5t72 50.5l6 -6q-52 -41 -88 -66t-73 -48zM169 5q-5 -3 -14 -5t-20 -2q-13 0 -21 2t-13 6q-8 13 1 40t24 36q5 2 15.5 4t21.5 2q10 0 20.5 -3t12.5 -6q3 -18 -5.5 -41t-21.5 -33z" />
    <glyph glyph-name="at" unicode="@" horiz-adv-x="977" 
d="M471 -220q-190 0 -304.5 104t-114.5 283q0 100 39.5 189.5t114.5 159.5q73 70 166.5 109t185.5 39q78 0 141.5 -20.5t112.5 -61.5q52 -44 81.5 -108t30.5 -130q0 -64 -25 -124.5t-70 -108.5q-47 -50 -107 -77.5t-121 -27.5q-5 0 -21 4.5t-19 6.5q-14 13 -26 34.5
t-12 33.5q-1 26 21 75.5t77 138.5q-62 -73 -149 -157t-140 -121q-5 -5 -18 -5t-17 4q-27 19 -30.5 74t16.5 111q14 45 42.5 86.5t68.5 77.5q44 39 93 63t83 24t58.5 -15.5t56.5 -59.5q5 5 31.5 34t32.5 37q5 4 7.5 2t1.5 -5q-60 -75 -124 -196.5t-62 -165.5q0 -10 19 -33.5
t32 -26.5q113 0 196 88.5t83 216.5q0 64 -29 127t-80 107q-47 41 -109.5 62t-137.5 21q-86 0 -172.5 -35.5t-154.5 -99.5q-70 -65 -107.5 -147.5t-37.5 -173.5q0 -186 110 -289t304 -103q71 0 156 34t142 82l3 -2q-62 -61 -147.5 -98t-170.5 -37zM328 209q-14 -50 -11.5 -95
t20.5 -62q29 5 131.5 103t183.5 195q-34 48 -59 67.5t-53 19.5q-59 0 -123.5 -68.5t-88.5 -159.5z" />
    <glyph glyph-name="A" unicode="A" horiz-adv-x="1349" 
d="M561 176q-134 -150 -196.5 -195t-132.5 -45q-52 0 -95.5 24.5t-71.5 68.5q-29 45 -32.5 96.5t20.5 90.5q22 37 62 72.5t89 62.5q45 23 93.5 35.5t95.5 12.5q26 0 70 -0.5t260 -3.5q30 36 67.5 81.5t112.5 137.5q68 83 98 119.5t52 62.5q-63 0 -97 -1t-60 -3
q-29 -2 -62 -5.5t-87 -9.5q-35 -4 -47 -5t-17 -1q-4 0 -1.5 5.5t37.5 43.5q5 2 30.5 3t130.5 1h182q68 0 138 0.5t170 3.5q35 1 47.5 1h20.5q12 0 19 -0.5t12 -2.5q0 -10 -9.5 -23.5t-21.5 -20.5q-7 -2 -30 -1t-96 5q-83 5 -125.5 7t-74.5 2q-22 -138 -37.5 -234t-26.5 -171
q83 -1 132 -1.5t64 -0.5q25 0 57.5 -0.5t48.5 -1.5q3 0 4 -1t1 -3t-2 -4.5t-5 -5.5q-9 -9 -22 -16.5t-21 -8.5q-14 -2 -41.5 -2h-28.5q-33 0 -80.5 1t-112.5 4q-7 -47 -12 -80.5t-8 -59.5q-5 -37 -5 -69.5t6 -62.5q2 -13 15 -24.5t28 -15.5q22 8 81 53t87 73l6 -7
q-42 -40 -100 -86.5t-94 -68.5q-5 -3 -16 -3t-16 3q-17 10 -28.5 29t-14.5 40q-6 36 -5 64t7 70q9 59 14.5 96t7.5 51q-59 3 -129 6.5t-147 7.5q-29 -35 -89 -108t-69 -82zM1069 793l-329 -398q40 -1 87.5 -1.5t173.5 -2.5q16 98 34.5 208.5t33.5 193.5zM209 345
q-34 -19 -60 -49.5t-45 -74.5q-18 -42 -13 -88t31 -85t66 -60.5t88 -21.5q43 0 73 17.5t75 62.5q23 23 52 54.5t66 74.5q9 10 22 26t48 58q34 42 53 65t36 43q-147 7 -224.5 10t-120.5 3q-41 0 -79 -9t-68 -26z" />
    <glyph glyph-name="B" unicode="B" horiz-adv-x="1030" 
d="M122 -2q-16 -1 -21 -1h-8q-15 0 -25 2.5t-14 7.5q-1 1 -1.5 2t-0.5 3q0 3 1.5 7t3.5 9q5 10 14 21t17 17q2 1 4 1.5t4 0.5q8 0 20.5 -2t43.5 -10q52 -13 81 -17.5t53 -4.5q19 0 34 3.5t28 11.5q23 16 48 56.5t59 116.5q13 32 39.5 96.5t39.5 94.5q67 160 127.5 247.5
t124.5 120.5l5 -2q-24 -14 -52.5 -57.5t-65.5 -121.5q-8 -17 -29.5 -66.5t-57.5 -132.5q71 12 137 19.5t120 8.5q49 27 80.5 63t41.5 78q13 55 -4.5 103.5t-62.5 80.5q-36 25 -86.5 38t-114.5 13q-69 0 -132.5 -14.5t-118.5 -43.5q-72 -37 -126 -98t-89 -144
q-8 -20 -21 -29.5t-32 -9.5q-11 0 -17 3.5t-7 10.5q-1 5 2 13.5t10 18.5q45 72 116 135t159 108q72 38 148 58t147 19q67 0 120 -14t90 -41q48 -35 64 -87t-3 -108q-14 -43 -56.5 -85t-98.5 -71q60 -25 82 -97t-8 -136q-12 -27 -36.5 -55t-58.5 -54q-16 -12 -33 -22.5
t-36 -19.5q-43 -21 -86 -32t-82 -11q-21 0 -48.5 0.5t-78.5 0.5q-22 1 -29.5 1h-10.5q-75 1 -149.5 0t-163.5 -3zM592 395q-78 -182 -133.5 -259t-116.5 -99q104 -2 175 -1.5t130 4.5q65 4 110 16t76 34q18 13 31.5 31t25.5 46q28 70 5 139t-85 94q-44 4 -104.5 2.5
t-113.5 -7.5z" />
    <glyph glyph-name="C" unicode="C" horiz-adv-x="775" 
d="M705 121q-77 -98 -171 -155t-183 -57q-110 0 -183.5 59.5t-94.5 164.5q-17 87 6 184.5t83 185.5q96 141 244 232t297 91q68 0 131.5 -21t119.5 -62q2 -2 2.5 -3t0.5 -2q0 -6 -16.5 -18t-25.5 -12q-3 0 -6.5 1t-6.5 3q-6 3 -48.5 27t-77.5 37q-34 13 -68.5 19t-71.5 6
q-113 0 -226.5 -76.5t-195.5 -203.5q-54 -84 -75.5 -177t-6.5 -176q19 -103 86.5 -161.5t170.5 -58.5q80 0 164.5 49.5t144.5 128.5q3 3 6.5 1.5t0.5 -6.5z" />
    <glyph glyph-name="D" unicode="D" horiz-adv-x="1138" 
d="M126 -3q-19 -1 -25 -1h-9q-15 0 -25 3.5t-15 9.5q-1 11 12.5 31t26.5 26q8 1 21.5 -1t50.5 -10q54 -12 83 -16t53 -4q26 0 48 8.5t41 26.5q26 23 49 60.5t50 102.5q9 23 32 83.5t38 95.5q73 179 125 253.5t114 111.5l3 -3q-27 -19 -54 -60.5t-59 -115.5
q-13 -32 -39.5 -98t-39.5 -97q-71 -175 -128 -254t-131 -115q58 -1 147 0.5t164 4.5q88 3 157 23.5t119 58.5q32 24 57.5 57.5t44.5 76.5q45 99 40.5 200.5t-57.5 182.5q-52 79 -141.5 122t-204.5 43q-75 0 -139 -15t-117 -44q-69 -37 -120 -96.5t-83 -138.5
q-10 -24 -22 -34t-30 -10q-20 0 -23.5 13t11.5 36q41 68 108.5 130t152.5 108q76 40 154.5 61t154.5 20q114 0 203.5 -43.5t143.5 -124.5q55 -83 61 -185.5t-39 -197.5q-22 -44 -60.5 -87t-89.5 -81q-31 -23 -65 -42t-71 -34q-48 -20 -97.5 -30t-98.5 -10l-142 2
q-75 1 -155.5 0t-184.5 -3z" />
    <glyph glyph-name="E" unicode="E" horiz-adv-x="1066" 
d="M142 -1q-26 -1 -34 -1h-11q-16 0 -26.5 3t-13.5 9q-2 11 11.5 26.5t29.5 23.5q5 1 19.5 -0.5t56.5 -8.5q60 -10 90 -13.5t50 -3.5q23 0 41.5 4.5t32.5 13.5q34 20 62.5 60.5t58.5 111.5q15 34 40.5 102.5t36.5 97.5q-91 7 -145.5 9.5t-98.5 3.5q-4 0 -6.5 1t-2.5 3t2.5 3
t8.5 1h125.5h125.5q57 142 115.5 220.5t127.5 110.5q-60 14 -110 21t-91 7q-55 0 -104.5 -10.5t-92.5 -30.5q-74 -36 -134.5 -108t-102.5 -172q-10 -24 -22 -34t-29 -10q-20 0 -23.5 12t10.5 36q54 95 130 167t168 116q60 28 128 43t140 15q64 0 145 -13t186 -40
q80 -21 125.5 -36t47.5 -22t-9.5 -21t-20.5 -15q-3 1 -13.5 4l-45.5 13q-47 14 -75.5 22.5t-53.5 15.5q-46 13 -80 22t-65 17q-43 -22 -86.5 -92t-110.5 -238q53 1 111.5 1h141.5q39 0 66 -1t38 -3q10 -2 -6.5 -21.5t-30.5 -22.5q-12 -2 -26 -2.5t-56 1.5q-12 1 -31.5 2.5
t-71.5 6.5q-55 5 -86.5 8t-59.5 5q-78 -191 -133.5 -268.5t-126.5 -112.5q9 -1 22.5 -1.5t47.5 -0.5q63 0 137.5 2.5t129.5 6.5q24 2 51.5 4t76.5 7q43 4 58 5t21 1q2 0 2.5 -1t0.5 -2q-3 -9 -20 -28t-27 -22q-3 -2 -47 -3t-119 -1h-25t-65 1h-66h-25q-74 0 -165.5 -1.5
t-223.5 -5.5z" />
    <glyph glyph-name="F" unicode="F" horiz-adv-x="1000" 
d="M381 31q-54 -31 -111.5 -46t-123.5 -15q-43 0 -74 5.5t-39 13.5q-2 10 8 24t23 22q1 1 2.5 1h5.5q6 0 16 -1.5t36 -6.5q52 -11 82 -14.5t55 -3.5q39 1 67 7.5t49 19.5q33 22 62 63t61 112q15 33 42 101.5t40 99.5l5 12q-83 5 -138 8t-102 4q-4 0 -6.5 1t-2.5 3t3 3t8 1
h123.5h123.5q61 141 120 218.5t126 110.5q-61 15 -111 22.5t-91 7.5q-50 0 -96.5 -10t-89.5 -29q-77 -35 -139 -106.5t-106 -175.5q-7 -23 -19.5 -33.5t-32.5 -10.5t-23 12t11 36q56 97 134 170.5t172 116.5q57 26 122 39.5t135 13.5q60 0 136.5 -12.5t193.5 -42.5
q79 -21 124.5 -36t47.5 -22t-9.5 -21t-19.5 -15q-4 0 -17 4t-57 17q-43 13 -68 20.5t-47 13.5q-55 16 -85 24t-57 15q-31 -18 -60 -54t-59 -95q-8 -16 -28 -60.5t-51 -116.5h113.5h113.5q39 0 66 -1t38 -3q10 -2 -6.5 -20t-30.5 -21q-12 -2 -26 -2.5t-56 1.5q-9 1 -23 2
t-49 4q-55 6 -88 9t-63 5l-7 -16q-67 -158 -127.5 -247t-125.5 -126z" />
    <glyph glyph-name="G" unicode="G" horiz-adv-x="1003" 
d="M713 -80q-21 -45 -86 -83.5t-143 -56.5q-7 -2 -8.5 2.5t5.5 6.5q59 12 96.5 40t68.5 82q3 5 31 54t49 86q24 42 43 77.5t33 64.5q-93 -92 -198 -143.5t-199 -51.5q-111 0 -183.5 52t-97.5 148q-20 82 -0.5 178t74.5 180q38 58 95 108t125 85q72 39 153 59t169 20
q71 0 143 -13t154 -40q2 -1 3.5 -2t1.5 -3q0 -8 -18 -23t-28 -15q-3 0 -10 2t-18 5q-113 36 -181.5 49.5t-124.5 13.5q-62 0 -122 -15.5t-117 -46.5q-52 -29 -96.5 -71t-76.5 -93q-53 -84 -72.5 -177t-0.5 -172q23 -94 93 -146t179 -53q140 -2 255 92.5t184 270.5
q-27 4 -53.5 6t-53.5 3q-59 0 -125 -4.5t-160 -16.5q-25 -3 -33 -4t-11 -1q-2 0 -2.5 1t-0.5 2q0 2 2.5 6.5t6.5 9.5q8 10 18.5 18t20.5 11q8 3 49.5 4t167.5 1q32 0 67 0.5t89 1.5h27h11q16 0 32 -16.5t14 -27.5q-54 -90 -124.5 -226t-116.5 -239z" />
    <glyph glyph-name="H" unicode="H" horiz-adv-x="1353" 
d="M424 -36q-37 -26 -70 -40t-57 -14q-63 0 -118 28.5t-90 79.5q-37 54 -40.5 115t28.5 113q48 80 153.5 137t214.5 57q48 0 124 -1.5t170 -3.5q14 24 29.5 51t54.5 97q30 57 44.5 95.5t13.5 59.5q0 13 -8 25t-21 18q-22 -8 -80 -51.5t-86 -72.5l-6 6q34 34 95.5 84t98.5 71
q3 3 15 2.5t15 -3.5q15 -12 25 -34.5t11 -41.5q1 -22 -17 -65.5t-53 -104.5q-18 -31 -38.5 -66.5t-41.5 -70.5q28 0 61.5 -1t98.5 -2q88 -1 128 -2t69 -1q39 67 59.5 100t30.5 48q80 122 202.5 198t238.5 79q45 2 150 -13.5t138 -24.5q4 -1 6 -3t2 -4q0 -9 -16 -21t-28 -12
q-9 0 -28.5 3t-72.5 15q-92 19 -137 25.5t-75 6.5q-92 0 -173.5 -63t-159.5 -192q-20 -33 -51.5 -86t-33.5 -56h58.5t91.5 -1h40h17q3 0 4 -0.5t1 -2.5q0 -5 -11.5 -16t-23.5 -16q-6 -2 -13 -3.5t-15 -1.5q-24 -1 -92 -1h-81q-19 -33 -39 -68.5t-44 -80.5
q-31 -55 -44.5 -92.5t-12.5 -61.5q1 -12 9.5 -25.5t19.5 -18.5q22 8 80 52t87 73l6 -7q-41 -39 -98 -84.5t-93 -67.5q-5 -3 -19 -2t-16 3q-14 12 -23.5 33t-10.5 41q-2 21 12.5 58.5t55.5 111.5q47 83 58 101.5t20 34.5q-28 1 -115.5 5.5t-234.5 13.5q-45 -76 -82.5 -137.5
t-57.5 -91.5q-40 -61 -92.5 -114.5t-116.5 -97.5zM411 421q-100 0 -174.5 -44t-113.5 -127q-22 -46 -16.5 -102t36.5 -105t78.5 -76.5t102.5 -27.5q30 0 51.5 7t44.5 23q34 24 73.5 74t90.5 132q30 49 67 111t72 122q-120 7 -193 10t-119 3z" />
    <glyph glyph-name="I" unicode="I" horiz-adv-x="732" 
d="M55 -1q-22 -1 -29 -1h-10q-15 0 -27.5 3t-15.5 8q0 8 14.5 21.5t25.5 15.5q5 1 16.5 0t43.5 -6q44 -6 67.5 -8.5t42.5 -2.5q30 0 53 6.5t43 20.5q29 21 55 60t56 110q11 24 37 88t43 103q42 95 63.5 138.5t41.5 76.5q40 66 81.5 105.5t88.5 56.5h-7h-13q-9 1 -14 1h-9
q-36 0 -84.5 -4t-136.5 -15q-40 -5 -53.5 -6.5t-19.5 -1.5q-15 0 4.5 22t34.5 27q4 1 54 1.5t147 0.5q33 0 89 1t165 4q40 1 52 1.5t16 0.5q20 0 34 -3t17 -8q1 -6 -10 -17.5t-25 -19.5q-6 -2 -19.5 -1t-49.5 6q-42 6 -65 8t-42 2q-23 0 -44.5 -4t-38.5 -11
q-33 -15 -62 -54.5t-60 -115.5q-12 -27 -37.5 -94.5t-41.5 -104.5q-68 -157 -135.5 -250t-138.5 -128q6 -1 12.5 -1.5t13.5 -0.5q22 0 59 2.5t122 11.5q77 8 107 10t46 2q9 0 6 -12t-15 -24q-8 -8 -18 -12.5t-21 -4.5l-148 3q-74 1 -159.5 -0.5t-201.5 -5.5z" />
    <glyph glyph-name="J" unicode="J" horiz-adv-x="419" 
d="M118 -40q-41 -54 -102.5 -101.5t-210.5 -134.5q-8 -4 -10 0.5t5 9.5q105 61 169.5 119t111.5 135q28 45 57 107t102 243q93 219 151 299.5t138 125.5q18 10 35 18t37 15q-15 1 -23.5 1.5t-16.5 0.5q-32 0 -80 -6t-144 -23q-54 -9 -73.5 -12t-29.5 -3q-3 0 -4 1t-1 4
q0 8 18 26.5t31 23.5q13 8 46.5 10t120.5 2q38 0 76 1.5t96 5.5q33 2 47.5 2.5t26.5 0.5q3 0 4 -0.5t1 -2.5q0 -3 -4.5 -9.5t-11.5 -11.5q-9 -9 -17.5 -14t-15.5 -5q-32 0 -60 -7.5t-54 -23.5q-42 -26 -76.5 -73.5t-71.5 -129.5q-18 -41 -50.5 -123t-45.5 -115
q-67 -168 -101.5 -238.5t-69.5 -117.5z" />
    <glyph glyph-name="K" unicode="K" horiz-adv-x="1107" 
d="M319 42q-49 -32 -108.5 -48t-125.5 -16q-42 0 -72 5.5t-38 13.5q-1 8 10.5 26t21.5 25q1 1 2.5 1.5t3.5 0.5q5 0 15 -2t37 -8q55 -14 85.5 -18.5t55.5 -4.5q33 0 60.5 8t50.5 24q14 11 27 25.5t24 33.5q19 30 40 77t87 219q55 143 110.5 230.5t119.5 131.5q11 9 23 15
t27 11q-9 2 -19.5 2.5t-22.5 0.5q-32 0 -74 -4.5t-122 -17.5q-46 -8 -63.5 -10t-26.5 -2q-3 0 -4 1t-1 4q0 8 18 26.5t33 24.5q10 5 31.5 6t129.5 1q38 0 73.5 1.5t87.5 5.5q30 2 43.5 2.5t25.5 0.5q2 0 3.5 -1t1.5 -2q0 -2 -4.5 -8t-12.5 -14q-10 -10 -15 -13t-11 -3
q-37 0 -65 -7t-46 -20q-28 -21 -51 -57.5t-53 -106.5q-8 -19 -17.5 -42.5t-55.5 -141.5q-21 -56 -44 -106.5t-48 -94.5q155 147 309 284t232 197q51 39 101 65.5t98 40.5q28 8 54 12t51 4q23 0 35.5 -3.5t12.5 -9.5q0 -5 -3 -12t-8 -13q-7 -10 -14 -15.5t-12 -5.5
q-10 0 -22.5 0.5t-40.5 3.5q-32 2 -47.5 3t-28.5 1q-25 0 -72.5 -23t-87.5 -53q-41 -30 -108 -87t-167 -145q17 -104 50 -206.5t64 -154.5q14 -25 31 -42.5t34 -25.5q21 7 52 29.5t84 71.5l6 -4q-75 -72 -103 -93t-54 -36q-3 -2 -7.5 -3t-10.5 -1q-7 0 -13 1.5t-8 3.5
q-13 9 -27 25.5t-31 44.5q-31 51 -62.5 153t-46.5 199q-82 -73 -143.5 -129t-108.5 -98q-32 -54 -65.5 -92t-69.5 -62z" />
    <glyph glyph-name="L" unicode="L" horiz-adv-x="1008" 
d="M328 24q-60 -106 -124.5 -159t-135.5 -53q-76 0 -118 61t-14 131q22 54 89.5 94t142.5 40q31 0 70 -14.5t90 -44.5q14 34 31 80.5t52 147.5q44 125 66 183.5t41 100.5q54 126 152.5 192.5t232.5 66.5q43 0 104 -14.5t97 -30.5q3 -2 4.5 -4t1.5 -5q0 -10 -16.5 -24.5
t-26.5 -14.5q-4 0 -9 1t-9 2q-8 2 -19 6t-36 15q-64 27 -101.5 36.5t-70.5 9.5q-81 0 -133.5 -52t-113.5 -193q-4 -9 -85 -203.5t-131 -295.5q-4 -7 -5.5 -10.5t-3.5 -6.5q33 -21 98.5 -65t96.5 -63q72 -45 123 -65.5t90 -20.5q50 0 99.5 31t122.5 114l7 -5
q-26 -29 -41.5 -46.5t-21.5 -23.5q-64 -63 -113 -88t-105 -25q-36 0 -83.5 20.5t-114.5 65.5q-31 22 -91.5 66t-88.5 63zM122 117q-51 0 -88.5 -24t-54.5 -68q-23 -60 22.5 -119t114.5 -59q61 0 104.5 44t89.5 146q-63 42 -108 61t-80 19z" />
    <glyph glyph-name="M" unicode="M" horiz-adv-x="1553" 
d="M381 90q-55 -44 -111 -66.5t-112 -22.5q-41 0 -112 11t-74 20q-5 10 8 26t26 19q9 0 23.5 -2t51.5 -11q58 -13 90 -17t59 -4q38 0 73 13t67 40q37 30 97.5 98.5t154.5 186.5q41 52 121 154t115 147q-1 61 -4.5 107.5t-9.5 79.5q-5 30 -13 48t-19 26q-3 3 -6.5 5t-10.5 3
q-20 -6 -95 -61.5t-133 -104.5l-4 6q161 131 197.5 157t58.5 38q7 3 22.5 2t19.5 -4q12 -12 21 -37t16 -64q19 -106 13.5 -329t-28.5 -430q58 62 140 144t197 194q68 65 185 177.5t159 152.5q5 4 8.5 4.5t5.5 -1.5t2 -5t-3 -6q-63 -93 -134 -244.5t-123 -301.5
q-15 -43 -22 -82.5t-5 -71.5q0 -12 8.5 -26t19.5 -19q21 8 88.5 60.5t97.5 82.5l6 -7q-45 -43 -109.5 -96t-100.5 -74q-5 -3 -19 -2t-16 3q-14 12 -24 33.5t-12 42.5q-2 25 7 67.5t27 97.5q28 80 69 174t70 150q18 35 34.5 65t31.5 52q-289 -276 -406 -392.5t-179 -185.5
q-3 -3 -5 -9.5t-5 -19.5q-1 -4 -3 -22t-5 -51q-2 -2 -9.5 -4t-15.5 -2q-11 0 -16 1t-7 4q-5 6 1 54.5t8 65.5q15 171 22 305.5t7 235.5q-242 -313 -338.5 -428.5t-138.5 -149.5z" />
    <glyph glyph-name="N" unicode="N" horiz-adv-x="947" 
d="M26 -38q-61 -58 -129 -84.5t-154 -26.5q-56 0 -128 15t-79 24q-5 6 13.5 24t35.5 23q4 1 13.5 -1t37.5 -11q65 -20 107.5 -27.5t80.5 -7.5q96 1 175 65t209 259l316 476q-17 89 -38 126.5t-58 37.5q-7 0 -15.5 -2.5t-25.5 -9.5q-22 -9 -105 -68t-120 -91l-6 7
q72 58 149.5 115.5t110.5 74.5q12 6 26 9.5t28 3.5q37 0 57.5 -22.5t35.5 -77.5q7 -26 13.5 -62.5t13.5 -85.5q19 -135 34.5 -255.5t39.5 -329.5q165 273 218 358t99 153q98 147 181.5 209.5t185.5 62.5q70 0 145.5 -10.5t90.5 -18.5q2 -1 2.5 -2t0.5 -3q0 -8 -19 -24.5
t-31 -17.5h-12q-7 0 -18.5 2t-43.5 9q-67 16 -106.5 21.5t-74.5 5.5q-71 0 -139 -56.5t-154 -185.5q-70 -106 -146.5 -229t-181.5 -300q-13 -22 -20.5 -33.5t-8.5 -12.5q-3 -3 -4.5 -4t-3.5 -1q-5 0 -7 5.5t-5 30.5q-14 129 -27.5 239t-50.5 371q-1 5 -1.5 11t-2.5 16
q-1 9 -2 13t-1 7l-308 -466q-67 -101 -110 -156t-83 -92z" />
    <glyph glyph-name="O" unicode="O" horiz-adv-x="972" 
d="M688 84q-69 -42 -138.5 -64t-133.5 -21q-109 0 -184.5 48.5t-106.5 136.5q-28 81 -13.5 176t67.5 178q39 64 98 120.5t128 97.5q64 37 127.5 56.5t120.5 18.5q112 0 189 -50t108 -142q27 -83 10.5 -180.5t-73.5 -182.5q-36 -56 -87.5 -105.5t-111.5 -86.5zM181 212
q29 -87 100.5 -135t176.5 -49q61 0 117.5 15.5t105.5 46.5q46 29 86 72t72 98q50 84 65.5 178t-8.5 174q-27 91 -99 141t-180 50q-56 1 -108.5 -13t-98.5 -42q-52 -31 -97 -79.5t-82 -112.5q-49 -83 -62.5 -175t12.5 -169z" />
    <glyph glyph-name="P" unicode="P" horiz-adv-x="996" 
d="M116 -1q-27 -1 -35 -1h-11q-16 0 -26 3t-13 9q-1 10 11 23t30 21q5 1 19 -0.5t56 -7.5q58 -9 86 -12t48 -3q25 0 42 4t31 12q33 20 63 60.5t60 108.5q17 39 43.5 108.5t34.5 88.5q64 158 127.5 248t130.5 118q-30 11 -64.5 16.5t-72.5 5.5q-70 0 -133 -14.5t-113 -41.5
q-61 -34 -104 -84t-67 -116q-7 -21 -18.5 -30t-28.5 -9q-20 0 -21.5 10.5t14.5 35.5q35 56 92.5 108t126.5 92q69 38 139.5 58t134.5 19q88 1 157.5 -23.5t115.5 -71.5q55 -57 66 -133t-26 -141q-20 -37 -58 -67t-88 -48q-31 -11 -61.5 -16.5t-58.5 -5.5q-38 0 -78.5 10
t-75.5 28q-60 -140 -117.5 -216.5t-126.5 -108.5q16 -1 37 -1.5t42 -0.5q46 0 104.5 2t112.5 6q27 2 54.5 5t71.5 9q29 4 39.5 5t15.5 1q1 0 2 -0.5t1 -1.5q0 -6 -18 -25.5t-28 -25.5q-9 -1 -28 -2t-114 -1h-133q-81 0 -172.5 -1.5t-217.5 -5.5zM862 353q32 12 57.5 35
t41.5 54q51 94 10.5 192.5t-152.5 141.5q-31 -15 -62 -57t-65 -114q-8 -17 -28.5 -67.5t-53.5 -132.5q40 -29 89.5 -46.5t90.5 -17.5q20 0 38 3t34 9z" />
    <glyph glyph-name="Q" unicode="Q" horiz-adv-x="1009" 
d="M1466 -270q-72 -61 -129.5 -86t-119.5 -25q-66 0 -158.5 27t-290.5 113q-170 73 -242 95t-119 22q-37 0 -75 -10t-89 -34q-19 -9 -61.5 -34t-105.5 -64q-13 -8 -23 -6t-13 12q-2 10 4 19.5t19 14.5q6 2 15 5.5t33 12.5q107 40 181 71.5t141 64.5q161 79 270 166.5
t176 194.5q50 79 60.5 171.5t-21.5 169.5q-34 83 -109 128t-180 45q-55 1 -110.5 -14.5t-105.5 -45.5q-65 -38 -119.5 -93t-90.5 -118q-44 -76 -57.5 -152.5t3.5 -144.5q21 -81 81 -129t141 -48q45 0 93 20t95 58q4 2 6.5 0t-0.5 -4q-69 -56 -128 -83.5t-110 -27.5
q-84 0 -147 50.5t-85 135.5q-18 70 -3 149.5t61 158.5q39 64 106.5 126.5t147.5 108.5q70 41 140.5 62.5t133.5 20.5q110 0 188 -49t111 -138q31 -82 15.5 -178t-73.5 -181q-66 -99 -181 -184.5t-304 -180.5q-10 -5 -22.5 -11.5t-38.5 -18.5q22 5 42 7.5t38 2.5
q53 0 129.5 -21.5t249.5 -91.5q185 -74 270 -97.5t146 -23.5q58 0 107.5 17t99.5 54q24 18 51 43t72 71l6 -3q-25 -28 -59.5 -62t-61.5 -58z" />
    <glyph glyph-name="R" unicode="R" horiz-adv-x="1001" 
d="M268 37q-50 -29 -105 -44t-111 -15q-46 0 -83 7t-45 15q-3 6 7 21.5t21 22.5q2 1 3.5 1h6.5q6 0 16 -2t36 -8q54 -12 85.5 -16t57.5 -4q38 0 63 7t49 23q17 11 32.5 29t29.5 43q29 49 72 161.5t52 134.5q70 174 136.5 260.5t149.5 123.5q-23 5 -45.5 7.5t-45.5 2.5
q-74 0 -135 -14.5t-110 -44.5q-53 -32 -94 -82t-70 -118q-10 -22 -20.5 -30.5t-26.5 -8.5q-19 0 -21 11t14 36q35 56 91.5 107.5t123.5 90.5q68 39 138.5 60t135.5 20q77 1 137.5 -19.5t100.5 -60.5q48 -48 59 -113t-19 -124q-28 -58 -96.5 -90.5t-185.5 -42.5
q9 -82 29 -151.5t51 -130.5q17 -32 34.5 -52t33.5 -24q21 3 60.5 31t88.5 72l5 -7q-42 -41 -87.5 -76.5t-85.5 -57.5q-8 -3 -21.5 -2t-20.5 6q-16 12 -30 32.5t-31 54.5q-31 64 -52 141t-30 164q-1 8 2 10.5t15 2.5h62q80 0 131.5 27t78.5 83q20 44 18 92t-26 90
q-23 39 -62 66.5t-90 40.5q-41 -19 -77 -62t-70 -114q-22 -46 -53 -125.5t-36 -91.5q-64 -158 -121 -244t-120 -122z" />
    <glyph glyph-name="S" unicode="S" horiz-adv-x="761" 
d="M560 71q-61 -41 -119 -61t-116 -20q-91 0 -168 35.5t-138 104.5q17 18 40.5 42t75.5 77q34 35 50.5 52t30.5 31l8 -4q-11 -12 -36.5 -39t-38.5 -42q-29 -32 -44.5 -52.5t-20.5 -34.5q33 -51 115.5 -91t169.5 -40q54 0 101.5 13t83.5 37q28 19 47 40t30 46q21 47 14 86
t-44 73q-20 18 -51 36t-101 50q-64 29 -94.5 46t-50.5 34q-38 31 -46.5 67.5t10.5 79.5q14 31 46.5 62t80.5 60q59 33 120 51t115 18q83 0 155 -29t112 -77q-14 -18 -31 -38.5t-51 -60.5q-35 -41 -53 -63t-34 -42l-6 4q56 72 81 105t46 60q-45 53 -112.5 81.5t-147.5 28.5
q-53 0 -100.5 -11.5t-87.5 -34.5q-30 -18 -52 -41.5t-34 -50.5q-17 -40 -5 -73.5t55 -64.5q16 -12 37.5 -24t106.5 -52q63 -30 95.5 -50.5t52.5 -42.5q33 -34 38 -74t-17 -87q-13 -28 -43 -58.5t-75 -61.5z" />
    <glyph glyph-name="T" unicode="T" horiz-adv-x="803" 
d="M353 64q-51 -35 -105.5 -52t-116.5 -17q-43 0 -92.5 9t-55.5 17t7 26.5t25 20.5q1 1 4 1t8 -1q8 -1 18.5 -3t35.5 -9q51 -14 79.5 -18.5t52.5 -4.5q41 0 75 9.5t60 28.5q20 14 37 33t33 46q31 50 70 154.5t45 118.5q62 150 118.5 230.5t127.5 123.5q-136 22 -195 28.5
t-102 6.5q-48 0 -85 -8.5t-66 -26.5q-43 -24 -79 -73.5t-66 -126.5q-12 -29 -22 -39t-29 -10q-17 0 -17.5 14.5t16.5 46.5q34 65 83.5 115t109.5 80q47 26 104 38.5t126 12.5q51 0 108.5 -4t170.5 -16q108 -13 161.5 -16.5t100.5 -3.5q29 0 53.5 3.5t47.5 11.5q5 2 7 2.5
t3 0.5t1.5 -0.5t0.5 -1.5q0 -5 -14 -20.5t-27 -23.5q-16 -11 -46.5 -17t-70.5 -6q-35 0 -86 5.5t-181 26.5q-35 -26 -63.5 -66t-55.5 -102q-16 -35 -41 -102t-35 -92q-55 -135 -112 -218.5t-126 -131.5z" />
    <glyph glyph-name="U" unicode="U" horiz-adv-x="916" 
d="M650 238q-98 -112 -209 -191t-179 -79q-72 0 -124 63t-55 147q-1 35 15 78t52 100q14 21 32 46.5t80 111.5q9 13 39.5 54.5t45.5 62.5q34 50 47.5 79t12.5 50q-2 19 -11.5 37t-22.5 27q-29 -12 -98 -59t-104 -76l-6 8q43 36 113 86t108 72q3 2 6.5 2.5t7.5 0.5q6 0 13 -2
t10 -4q15 -11 25.5 -33.5t14.5 -50.5q3 -24 -11 -57.5t-53 -88.5q-16 -24 -49 -69.5t-46 -63.5q-107 -148 -136.5 -207.5t-27.5 -101.5q3 -71 47.5 -126t109.5 -55q61 0 175.5 86t199.5 189q19 29 45 69.5l78 121.5q119 185 138 225t17 73q-1 16 -10 31.5t-23 28.5
q-21 -6 -92 -55t-106 -79l-6 8q37 32 107.5 83.5t110.5 74.5q2 1 5.5 2t8.5 1q6 0 13 -2t9 -4q16 -13 27 -35t13 -47q3 -34 -22.5 -86t-143.5 -238q-152 -238 -176 -287.5t-21 -81.5q2 -16 17.5 -40t27.5 -27q20 6 76 49t110 92l5 -7q-84 -76 -128.5 -112t-74.5 -54
q-2 -2 -6 -2.5t-9 -0.5q-8 0 -15.5 1.5t-10.5 3.5q-21 17 -35.5 42t-16.5 48q-2 29 12.5 66t53.5 102z" />
    <glyph glyph-name="V" unicode="V" horiz-adv-x="613" 
d="M917 817q-418 -479 -542.5 -624.5t-233.5 -276.5q-1 -2 -4 -3t-7 -1q-6 0 -10 2t-4 5v4.5t1 5.5q13 59 66.5 351.5t60.5 340.5q9 53 9 92.5t-9 58.5q-7 16 -20 23t-37 8q-19 1 -47.5 -2.5t-89.5 -13.5q-46 -8 -64 -10t-27 -1q-6 1 -8 2t-2 3q0 7 12 21.5t20 17.5
q10 3 80.5 2.5t93.5 -0.5h167q64 0 127.5 1.5t153.5 4.5q35 1 48.5 1.5t21.5 0.5q16 0 22.5 -1.5t9.5 -5.5q0 -8 -9.5 -21.5t-20.5 -19.5q-3 -1 -6.5 -1.5t-7.5 -0.5q-9 0 -24.5 1t-57.5 4q-99 8 -163 11t-124 4h-14.5h-14.5q8 -6 15 -14t12 -17q12 -20 14 -57.5t-7 -84.5
q-6 -38 -53.5 -288.5t-68.5 -359.5q237 276 473.5 548t257.5 297q34 39 71.5 85t104.5 133q2 2 4 3t5 1q7 0 13.5 -5.5t6.5 -12.5q0 -3 -1 -5t-3 -4q-28 -26 -84 -85.5t-106 -116.5z" />
    <glyph glyph-name="W" unicode="W" horiz-adv-x="1021" 
d="M135 -93q-1 -1 -3.5 -2t-5.5 -1q-9 0 -16.5 4.5t-6.5 10.5q39 194 86 434.5t52 273.5q10 55 10.5 93.5t-7.5 56.5q-8 17 -21 23.5t-36 7.5q-20 1 -49 -2.5t-91 -13.5q-45 -7 -62.5 -9t-26.5 -2q-6 1 -7.5 2t-1.5 4q0 2 1.5 6t4.5 7q6 8 13.5 15.5t11.5 9.5q11 3 81.5 2.5
t93.5 -0.5h360q118 0 214 2t194 7q26 1 35.5 1.5t16.5 0.5q14 0 20.5 -1t11.5 -4q0 -9 -10 -23t-22 -21q-4 -1 -11 -1.5t-15 -0.5q-23 0 -98 3.5t-111 4.5q-14 -99 -51.5 -411.5t-48.5 -415.5q11 16 28 40t56 78q38 54 52.5 74t20.5 29q130 182 269 378.5t175 250.5
q40 58 78.5 116.5t68.5 107.5q3 5 7 7.5t8 2.5q7 0 12.5 -5t5.5 -13q0 -3 -1.5 -6.5t-4.5 -7.5q-25 -30 -72 -91.5t-88 -118.5q-20 -28 -58.5 -82t-137.5 -194q-126 -177 -177 -248.5t-74 -104.5q-11 -16 -35.5 -50.5t-84.5 -119.5q-38 -53 -52.5 -73.5t-22.5 -31.5
q-1 -2 -5 -3.5t-9 -1.5q-9 0 -16 3.5t-6 8.5q8 48 48 371t50 422q-101 -147 -268 -394.5t-241 -358.5q-5 -8 -13 -20t-18 -26zM292 775q10 -21 10.5 -58t-8.5 -85q-5 -33 -49 -261t-77 -392q38 55 88.5 129.5t158.5 234.5q160 235 221 324t88 129q-110 4 -213.5 6t-210.5 2
h-32q10 -6 15.5 -13t8.5 -16z" />
    <glyph glyph-name="X" unicode="X" horiz-adv-x="756" 
d="M-45 -17q-5 -5 -10 -7t-9 -2q-8 0 -13 5.5t-5 12.5q0 6 4.5 12.5t11.5 11.5q64 42 127.5 87.5t112.5 83.5l283 222q2 15 4.5 33t8.5 53q8 53 11 75.5l5 37.5q6 51 3 90.5t-14 58.5q-7 11 -19 20.5t-25 14.5q-24 -8 -86.5 -49.5t-99.5 -73.5l-6 7q71 56 123.5 93t89.5 56
l8 2t8 1t8.5 -1t8.5 -3q21 -19 28.5 -28.5t12.5 -18.5q14 -22 17 -63.5t-5 -101.5q-1 -9 -3 -22.5t-7 -46.5q-7 -41 -10 -63.5t-6 -42.5q109 86 182 144.5t140 112.5q62 51 122 102.5t104 92.5q5 5 10 7.5t10 2.5q7 0 12 -5t5 -12t-3 -12.5t-10 -10.5q-48 -31 -112 -77
t-127 -96q-53 -41 -111.5 -86t-223.5 -176q-2 -16 -5 -35.5t-9 -57.5q-9 -57 -12.5 -81.5t-5.5 -40.5q-7 -64 -5 -95t12 -46q6 -11 18.5 -20t25.5 -13q24 8 85.5 48t92.5 68l7 -7q-71 -55 -121 -89t-86 -53q-3 -2 -7 -3t-9 -1q-4 0 -9 1.5t-8 3.5q-17 14 -27.5 26t-16.5 23
q-11 21 -11 61.5t13 129.5q1 7 2.5 16t4.5 29q6 42 9.5 65.5t6.5 43.5l-274 -219q-65 -52 -125 -103.5t-101 -91.5z" />
    <glyph glyph-name="Y" unicode="Y" horiz-adv-x="599" 
d="M386 2q-32 1 -49 1.5t-32 0.5q-56 1 -118 0t-157 -4q-29 -1 -40 -1h-17q-5 0 -10 2t-5 5q0 5 12.5 17t24.5 18q2 1 4 1.5t5 0.5q2 0 5 -0.5t11 -1.5q19 -2 31.5 -3t25.5 -1q34 0 64.5 7t56.5 21q38 22 71.5 64t80.5 134q6 12 12.5 26.5t21.5 44.5q15 33 23 50.5t16 33.5
q-16 100 -43.5 186.5t-58.5 132.5q-11 16 -27 27.5t-33 14.5q-25 -8 -90.5 -49t-98.5 -69l-5 7q48 37 113.5 82t108.5 69q4 2 8 3.5t8 1.5t8.5 -1.5t8.5 -3.5q11 -7 25.5 -22.5t24.5 -31.5q36 -61 64 -153.5t40 -187.5q11 9 87.5 73t116.5 98q102 85 161.5 135t77.5 66
q16 14 32.5 28.5t95.5 81.5q6 3 11 3t8 -3q5 -2 6 -8t-3 -12q-25 -23 -56.5 -49.5t-59.5 -48.5q-55 -39 -122 -90t-126 -98q-55 -44 -106.5 -86.5t-95.5 -80.5q-7 -7 -18 -16.5t-13 -11.5q-31 -65 -49.5 -103.5t-24.5 -50.5q-43 -82 -94.5 -129t-142.5 -86h25q29 0 68.5 2
t118.5 8q56 5 78 6t35 1q2 0 3.5 -1t1.5 -3q0 -10 -14.5 -26.5t-26.5 -19.5q-3 -1 -14.5 -1.5t-49.5 0.5z" />
    <glyph glyph-name="Z" unicode="Z" horiz-adv-x="892" 
d="M693 73q-48 -38 -100.5 -57t-109.5 -19q-42 0 -91.5 3.5t-148.5 14.5q-91 11 -135 14t-80 3q-16 0 -31.5 -0.5t-31.5 -2.5q-3 0 -4.5 1.5t-1.5 3.5t2 5.5t5 7.5q5 8 10.5 14t11.5 9q4 2 7.5 3t5.5 1q61 0 127.5 33t145.5 103q32 29 69 65.5t149 157.5q74 81 116 121
t79 70q59 47 118 77t124 47q-8 -2 -16.5 -2.5t-18.5 -0.5q-27 0 -63.5 5t-117.5 22q-88 18 -131 24t-76 6q-52 0 -77 -4.5t-43 -14.5q-28 -15 -51.5 -53.5t-58.5 -126.5q-10 -23 -20.5 -32t-27.5 -9q-11 0 -16.5 5t-5.5 14q0 5 2 11.5t6 14.5q33 65 76 110.5t95 72.5
q39 21 85 31t100 10q36 0 77.5 -4.5t118.5 -18.5q67 -13 98 -16.5t57 -3.5q18 0 35 1.5t41 5.5q10 2 13.5 2.5t5.5 0.5t3 -1t1 -2q0 -3 -4.5 -9t-13.5 -16q-8 -8 -12.5 -11.5t-8.5 -5.5t-8.5 -3.5t-16.5 -3.5q-48 -5 -102.5 -36t-121.5 -95q-24 -23 -52.5 -52.5
t-129.5 -138.5q-169 -183 -281 -257.5t-234 -101.5q24 5 49.5 7.5t55.5 2.5q34 0 75 -3.5t125 -13.5q88 -12 130 -15t76 -2q57 2 89 10.5t54 26.5q28 22 50.5 68.5t49.5 136.5q8 23 20.5 35t30.5 12q10 0 16 -5t6 -13q0 -6 -2.5 -14t-7.5 -17q-32 -67 -72.5 -119.5
t-86.5 -88.5z" />
    <glyph glyph-name="bracketleft" unicode="[" horiz-adv-x="400" 
d="M-70 -270l239 516l237 525q2 4 5 6t7 2h26h44q31 -1 47 -1h30h26h43q28 1 42 1h26q5 0 2.5 -5t-7.5 -5h-31.5h-53.5q-23 1 -34.5 1h-20.5h-115q-3 0 -5 -1t-2 -2l-239 -521l-237 -512q0 -2 1 -2.5t4 -0.5h115h20.5t35.5 1h54h32q5 0 2 -5t-8 -5h-26h-41q-28 1 -42 1h-26
h-30.5t-48.5 -1h-43h-25q-4 0 -4.5 2t1.5 6z" />
    <glyph glyph-name="backslash" unicode="\" horiz-adv-x="356" 
d="M205 -271q-4 67 -9.5 151t-26.5 367q-12 167 -25 305.5t-25 225.5q9 5 15.5 6t14.5 -2q2 -72 9.5 -191.5t23.5 -339.5q13 -162 25.5 -290.5t25.5 -230.5q-5 -4 -12.5 -4.5t-15.5 3.5z" />
    <glyph glyph-name="bracketright" unicode="]" horiz-adv-x="400" 
d="M483 771l-239 -516l-237 -525q-2 -4 -5 -6t-7 -2h-26h-44q-31 1 -47 1h-30h-26h-43q-28 -1 -42 -1h-26q-5 0 -2.5 5t7.5 5h31.5h53.5q23 -1 34.5 -1h20.5h115q3 0 5 1t2 2l239 521l237 512q0 2 -1 2.5t-4 0.5h-115h-20.5t-35.5 -1h-54h-32q-5 0 -2 5t8 5h26h41
q28 -1 42 -1h26h30.5t48.5 1h43h25q4 0 4.5 -2t-1.5 -6z" />
    <glyph glyph-name="asciicircum" unicode="^" horiz-adv-x="396" 
d="M414 500l13 179q0 3 -1.5 3.5t-3.5 -1.5l-163 -192q-15 -18 -24.5 -24t-20.5 -6q-9 0 -14.5 5t-5.5 13q0 7 5 14t20 19l203 178q3 3 6.5 2t4.5 -7l27 -177q3 -20 -3.5 -32t-19.5 -12t-19 9.5t-4 28.5z" />
    <glyph glyph-name="underscore" unicode="_" horiz-adv-x="500" 
d="M-179 -73h564q6 0 7 -12t-6 -12h-566q-8 0 -7.5 12t8.5 12z" />
    <glyph glyph-name="grave" unicode="`" horiz-adv-x="809" 
d="M590 536q-1 0 -1.5 0.5l-1.5 1.5q-16 20 -38 42t-59 55q-13 12 -17.5 16t-6.5 6q-5 4 -8.5 12.5t-2.5 14.5t8 12t14 6q5 0 10 -3.5t13 -12.5q2 -2 5 -7t12 -21q25 -44 42 -70t33 -45l1.5 -1.5t0.5 -1.5q0 -2 -1 -3t-3 -1z" />
    <glyph glyph-name="a" unicode="a" horiz-adv-x="589" 
d="M98 3q-3 -2 -7.5 -3.5t-10.5 -1.5q-7 0 -11.5 1t-6.5 3q-30 23 -33 85.5t20 131.5q25 82 92 154t151 112q28 13 53 20t44 7q44 0 74 -18.5t64 -65.5q6 5 36 37.5t39 42.5q6 5 8.5 2.5t0.5 -5.5q-82 -103 -161 -238.5t-77 -182.5q0 -13 11 -26.5t26 -17.5q20 8 60 38.5
t69 60.5l6 -7q-56 -54 -90 -82t-65 -47q-3 -1 -7.5 -2t-10.5 -1q-7 0 -15 1.5t-10 2.5q-14 13 -24 34.5t-11 38.5q-1 22 11.5 53t39.5 76q14 22 40.5 62t35.5 55q-41 -46 -102 -106.5t-135 -128.5q-29 -25 -56 -47t-48 -38zM102 224q-16 -59 -14.5 -111.5t20.5 -71.5
q9 1 28 13.5t56 41.5q57 47 140.5 129.5t155.5 162.5q-36 55 -68 79.5t-69 24.5q-13 0 -26.5 -3t-28.5 -10q-61 -28 -116.5 -100t-77.5 -155z" />
    <glyph glyph-name="b" unicode="b" horiz-adv-x="586" 
d="M311 42q-43 -24 -79.5 -35.5t-65.5 -11.5q-19 0 -37.5 8t-36.5 23q-13 11 -23.5 24t-19.5 28q-3 -6 -19 -33t-23 -39h-3t-6 -1q-5 -1 -7.5 -1h-4.5q-17 0 -22.5 9.5t2.5 26.5q25 38 68.5 113t141.5 248q61 108 83.5 147t33.5 57q47 76 109.5 134t136.5 94q59 29 126 44
t140 15q40 0 69 -1.5t44 -3.5q4 -1 6 -3t2 -6q0 -10 -13.5 -24.5t-24.5 -14.5q-16 0 -35.5 1t-60.5 4q-49 4 -75 5.5t-49 1.5q-41 0 -70.5 -6t-55.5 -18q-43 -21 -84.5 -67t-86.5 -121q-32 -49 -84.5 -139.5t-177.5 -313.5q63 65 131.5 130t121.5 110q51 44 86.5 67t53.5 25
q18 -4 32.5 -23t21.5 -47q10 -38 -3 -95.5t-40 -106.5q-34 -62 -86 -114.5t-116 -89.5zM463 478q-13 -1 -39 -17.5t-57 -42.5q-80 -67 -165 -152t-126 -140q33 -52 67 -76.5t73 -24.5q25 0 47.5 5.5t44.5 17.5q48 31 84.5 75.5t65.5 105.5q27 57 37 113t2 90q-5 20 -13 31
t-21 15z" />
    <glyph glyph-name="c" unicode="c" horiz-adv-x="484" 
d="M269 35q-46 -26 -71 -33.5t-49 -7.5q-35 0 -65.5 21.5t-40.5 56.5q-15 55 -3 110t50 118q28 51 82 101t115 82q32 17 61.5 25t60.5 8q44 0 69.5 -16.5t25.5 -43.5q0 -18 -13 -31.5t-32 -17.5q-8 39 -35.5 61t-69.5 22q-18 0 -32 -2.5t-32 -9.5q-36 -23 -72.5 -64.5
t-66.5 -93.5q-33 -57 -47 -113t-6 -106q9 -30 28 -47t46 -20q24 -4 55 3t64 24q21 10 54.5 38t55.5 54l8 -6q-31 -34 -66.5 -63t-73.5 -49z" />
    <glyph glyph-name="d" unicode="d" horiz-adv-x="598" 
d="M98 3q-3 -2 -7.5 -3.5t-10.5 -1.5q-7 0 -11.5 1t-6.5 3q-30 23 -33 85.5t20 131.5q25 82 91.5 154t149.5 111q29 14 54.5 21t44.5 7q38 0 66.5 -16.5t55.5 -52.5q33 53 64 103t44 69q50 76 110.5 130t132.5 88q63 31 128.5 45t149.5 14q33 0 63.5 -1.5t46.5 -4.5
q5 -1 7.5 -3t2.5 -5q0 -10 -15 -25.5t-26 -15.5q-14 0 -32.5 1t-59.5 5q-50 5 -77 6.5t-51 1.5q-43 0 -74.5 -6t-58.5 -19q-46 -24 -96 -80t-118 -160q-41 -62 -117 -192.5t-118 -212.5q-16 -31 -26 -58t-10 -40q0 -14 9.5 -30t20.5 -18q23 11 64 42t69 59l6 -7
q-50 -47 -86 -76t-70 -50q-3 -1 -8.5 -1.5t-11.5 -0.5q-10 0 -15.5 1t-7.5 3q-13 11 -22 33t-8 37q0 17 11.5 46t34.5 71q13 23 29.5 52.5t66.5 111.5l16 20q-46 -57 -126.5 -140t-157.5 -153q-35 -31 -58 -50t-39 -30zM102 224q-16 -59 -14.5 -111.5t20.5 -71.5
q11 1 29.5 13.5t49.5 37.5q52 43 130.5 122.5t165.5 176.5q-36 54 -66 77.5t-66 23.5q-14 0 -28.5 -3.5t-28.5 -10.5q-61 -30 -115.5 -101t-76.5 -153z" />
    <glyph glyph-name="e" unicode="e" horiz-adv-x="488" 
d="M265 35q-43 -24 -70 -32.5t-53 -8.5q-32 0 -62 23t-39 56q-14 50 -1.5 105.5t51.5 121.5q29 50 80.5 99.5t104.5 78.5q30 17 62.5 26.5t61.5 9.5q41 0 65.5 -16t24.5 -43q0 -36 -51 -85t-168 -123q-53 -33 -95 -58.5t-83 -48.5q0 -9 1 -18.5t2 -19.5q9 -34 30.5 -51.5
t54.5 -17.5q25 0 53 7.5t56 22.5q22 11 60.5 43.5t60.5 59.5l9 -5q-29 -35 -71 -69t-84 -57zM288 477q-36 -24 -75 -69t-66 -95q-24 -43 -37.5 -84t-15.5 -79q44 26 86.5 51.5t85.5 53.5q80 52 116.5 84t44.5 56q2 6 3 11.5t1 12.5q0 28 -25 49t-58 21q-14 0 -28.5 -3
t-31.5 -9z" />
    <glyph glyph-name="f" unicode="f" horiz-adv-x="395" 
d="M464 507q0 -7 -16 -24t-26 -18h-3h-11q-36 1 -64.5 2t-56.5 1q-18 -33 -124.5 -236.5t-132.5 -251.5q-58 -107 -133.5 -167.5t-145.5 -60.5q-41 0 -66.5 18.5t-25.5 47.5q0 23 13.5 40.5t34.5 21.5q-1 -12 2 -27t8 -27q9 -26 26.5 -41t38.5 -15q50 0 93.5 48.5
t102.5 158.5q7 13 31 58.5t92 176.5q63 123 90 174.5t43 81.5h-9h-9h-48q-5 2 -5 5.5t5 4.5l93 41q11 22 26 49t20 34q52 91 111 153t125 96q40 22 84 33t91 11q44 0 89.5 -6t64.5 -14q2 -1 3 -2.5t1 -3.5q0 -9 -15.5 -22.5t-27.5 -13.5q-10 0 -23.5 2.5t-45.5 9.5
q-47 12 -73.5 16t-51.5 4q-27 0 -49.5 -5t-42.5 -16q-40 -21 -82 -73t-91 -142q-5 -9 -21.5 -39.5t-44.5 -82.5h40q16 0 37.5 0.5t57.5 1.5h14.5h4.5t1.5 -0.5t0.5 -1.5z" />
    <glyph glyph-name="g" unicode="g" horiz-adv-x="567" 
d="M260 -264q-40 -62 -124 -97.5t-184 -34.5q-80 0 -137.5 22t-73.5 61q-6 15 -5.5 32t8.5 33q11 24 40 49.5t109 76.5q101 64 131 84.5t56 39.5q-4 -1 -7 -1.5t-5 -0.5q-3 0 -6.5 1t-6.5 3q-30 22 -32.5 84t21.5 131q26 83 94.5 156t151.5 112q28 13 52 19.5t43 6.5
q40 0 67 -18t66 -72q3 2 10.5 10t28.5 29l32 32l13 13q1 2 4.5 0t2.5 -4q-25 -31 -47 -61t-41 -57q-67 -102 -111 -193t-71 -187q-15 -51 -34 -140.5t-45 -128.5zM98 223q-18 -61 -14.5 -115.5t25.5 -68.5q36 15 159 130.5t212 217.5q-40 58 -69.5 82t-62.5 24
q-13 0 -27 -3.5t-28 -9.5q-63 -29 -118.5 -101.5t-76.5 -155.5zM-195 -304q16 -38 63.5 -60t111.5 -22q68 0 125 28.5t94 81.5q16 23 27.5 54.5t29.5 109.5q12 57 21 89t18 61q23 71 54.5 137.5t79.5 141.5q-78 -83 -177 -176t-157 -137q-16 -11 -34 -23.5t-52 -36.5
q-46 -32 -67 -47t-37 -27q-43 -32 -65 -55t-32 -45q-9 -18 -9.5 -37.5t6.5 -36.5z" />
    <glyph glyph-name="h" unicode="h" horiz-adv-x="579" 
d="M0 5q-5 -1 -7.5 -1h-4.5q-17 0 -22 9.5t3 26.5q24 37 66 110t138 242q63 113 87 154t35 59q47 76 109.5 134t136.5 94q59 29 126 44t140 15q40 0 69 -1.5t44 -3.5q4 -1 6 -3t2 -6q0 -10 -13.5 -24.5t-24.5 -14.5q-16 0 -35.5 1t-60.5 4q-49 4 -75 5.5t-49 1.5
q-41 0 -70.5 -6t-55.5 -18q-43 -21 -84.5 -67t-86.5 -121q-39 -61 -133.5 -228.5t-120.5 -211.5q88 108 205 205t172 109q51 -11 40 -74t-84 -185q-64 -111 -73.5 -134.5t-9.5 -40.5q1 -13 9.5 -26t19.5 -17q24 10 64 40.5t68 59.5l6 -7q-48 -47 -84.5 -76t-70.5 -50
q-2 -1 -6.5 -2t-10.5 -1q-7 0 -12.5 1t-9.5 3q-13 11 -22.5 30.5t-10.5 37.5q0 16 8.5 39t30.5 62q8 14 27 46t29 49q56 95 69.5 145t-15.5 66q-57 -14 -174.5 -119t-195.5 -220q-10 -15 -22 -34.5t-33 -58.5q-11 -18 -15.5 -26.5t-8.5 -14.5h-3t-6 -1z" />
    <glyph glyph-name="i" unicode="i" horiz-adv-x="297" 
d="M564 852q-18 -20 -82.5 -86.5t-175.5 -179.5l-6 6q78 80 143 152t103 121q2 3 5 4.5t7 1.5t7.5 -2.5t3.5 -6.5q0 -3 -1 -5t-4 -5zM99 3q-2 -1 -8 -2t-13 -1t-14 1t-9 3q-14 11 -24 30t-11 35q0 16 13 45.5t93 158.5q68 107 77 125t11 32q2 16 -8 30t-22 15
q-15 -3 -57 -34t-71 -60l-7 6q25 25 72.5 62.5t80.5 58.5q8 5 15 6t13 0q15 -5 30 -30.5t15 -46.5q0 -28 -48 -101t-51 -77q-74 -119 -85 -144t-10 -39q1 -12 12 -24.5t24 -16.5q23 10 61.5 40.5t68.5 60.5l6 -7q-51 -49 -86 -77.5t-68 -48.5z" />
    <glyph glyph-name="j" unicode="j" horiz-adv-x="299" 
d="M-154 -177q-53 -28 -106 -40.5t-123 -12.5q-45 0 -72.5 2.5t-38.5 8.5q-2 2 -2.5 3t-0.5 3q0 10 12.5 24t24.5 19q8 1 23 -0.5t56 -7.5q55 -9 83.5 -12t50.5 -3q25 0 50 6.5t44 17.5q41 26 85 84.5t147 237.5q77 135 106.5 195t31.5 80q1 17 -7 32t-17 17
q-18 -4 -61.5 -35.5t-72.5 -61.5l-7 6q27 27 76.5 66t81.5 58q6 4 11.5 5.5t9.5 1.5q19 0 31 -26.5t10 -62.5q-1 -16 -16 -49t-53 -102q-11 -20 -38.5 -68.5t-42.5 -76.5q-72 -129 -131 -196.5t-145 -112.5zM564 852q-18 -20 -82.5 -86.5t-175.5 -179.5l-6 6q78 80 143 152
t103 121q2 3 5 4.5t7 1.5t7.5 -2.5t3.5 -6.5q0 -3 -1 -5t-4 -5z" />
    <glyph glyph-name="k" unicode="k" horiz-adv-x="587" 
d="M1 5q-5 -1 -7.5 -1h-4.5q-17 0 -22.5 9t2.5 27q15 23 38 63t88 152q16 29 35.5 63t57.5 101q55 98 75.5 133.5t31.5 52.5q47 76 108.5 133.5t136.5 94.5q59 29 126.5 44t140.5 15q39 0 68 -1.5t44 -3.5q4 -1 6.5 -3t2.5 -5q0 -11 -14 -25.5t-24 -14.5q-16 0 -35.5 1
t-60.5 4q-49 4 -75.5 5.5t-49.5 1.5q-41 0 -70.5 -6t-55.5 -19q-42 -21 -84 -67t-87 -120q-33 -51 -114 -194t-88 -156q95 103 182.5 168.5t130.5 65.5q31 -7 57.5 -47t19.5 -71q-6 -26 -27 -52t-50 -43q-32 -19 -82 -32t-175 -32q28 -3 51.5 -14t37.5 -29q7 -9 13 -27
t16 -62q5 -24 7.5 -35t5.5 -19q3 -11 13 -18t23 -8q23 8 66 40.5t73 63.5l6 -7q-45 -44 -83 -74.5t-73 -51.5q-3 -1 -7.5 -1.5t-9.5 -0.5q-20 0 -36.5 7.5t-20.5 19.5q-5 13 -9 29t-11 48q-8 41 -13.5 57.5t-12.5 27.5q-19 26 -49 36.5t-74 5.5q-5 -8 -11 -18t-17 -30
q-13 -23 -38.5 -68t-63.5 -112h-3t-5 -1zM503 408q3 21 -16 51.5t-42 33.5q-48 -8 -145 -89t-156 -160l-1 -3q178 23 267.5 64t92.5 103z" />
    <glyph glyph-name="l" unicode="l" horiz-adv-x="290" 
d="M88 3q-2 -1 -7.5 -1.5t-11.5 -0.5q-8 0 -13.5 1t-8.5 3q-13 10 -21.5 29.5t-9.5 38.5q-1 21 14 58t48 97q51 94 122.5 217t97.5 162q46 76 106 133t133 93q59 29 126.5 44t142.5 15q33 0 64 -1.5t47 -4.5q5 -1 7 -3t2 -5q0 -12 -12.5 -26.5t-24.5 -14.5q-14 0 -32.5 1
t-59.5 5q-50 5 -77 6.5t-51 1.5q-42 0 -72.5 -6t-56.5 -20q-42 -22 -82.5 -67t-85.5 -119q-42 -66 -110.5 -185.5t-132.5 -235.5q-28 -51 -42 -86t-13 -53q1 -12 10.5 -25t20.5 -17q24 10 63.5 40t67.5 59l6 -7q-47 -46 -83.5 -75.5t-70.5 -50.5z" />
    <glyph glyph-name="m" unicode="m" horiz-adv-x="891" 
d="M39 4q-7 -1 -11.5 -1.5t-9.5 -0.5q-18 0 -24 9.5t2 26.5q79 108 140 225.5t60 161.5q-1 15 -11.5 28t-22.5 16q-17 -3 -56.5 -32t-68.5 -60l-7 7q33 32 76.5 67t75.5 54q6 4 11 5.5t9 1.5q17 0 33.5 -28.5t17.5 -54.5q1 -28 -18.5 -76t-80.5 -155q82 105 192.5 201
t165.5 114q48 -10 37.5 -89t-79.5 -197q80 98 184.5 184.5t157.5 101.5q51 -12 39.5 -75t-84.5 -185q-69 -114 -78.5 -137.5t-9.5 -37.5q1 -12 9 -24t20 -17q22 10 57.5 38t66.5 60l6 -7q-57 -55 -88.5 -80.5t-61.5 -44.5q-2 -1 -5 -1.5t-10 -0.5q-5 0 -10.5 1t-7.5 2
q-13 10 -24 31.5t-12 37.5q0 14 10 38t33 62q9 15 28.5 47t28.5 47q59 101 72 149t-15 61q-55 -16 -164 -114.5t-181 -206.5q-20 -31 -45.5 -73.5t-46.5 -78.5q-9 -1 -13 -1.5t-8 -0.5q-18 1 -24 10t1 26q10 16 34 53t37 57q21 34 37 61.5t29 51.5q31 58 46.5 100.5
t17.5 73.5q1 16 -4 26.5t-16 15.5q-55 -19 -163.5 -120t-183.5 -210q-17 -25 -36.5 -55.5t-53.5 -87.5z" />
    <glyph glyph-name="n" unicode="n" horiz-adv-x="604" 
d="M129 147q-17 -25 -36.5 -55.5t-53.5 -87.5q-7 -1 -11.5 -1.5t-9.5 -0.5q-18 0 -24 9.5t2 26.5q79 108 140 225.5t60 161.5q-1 15 -11.5 28t-22.5 16q-17 -3 -56 -32t-68 -60l-7 7q34 33 77 67.5t74 53.5q6 4 11 5.5t9 1.5q17 0 33.5 -28.5t17.5 -54.5q1 -28 -19 -76.5
t-81 -154.5q83 105 197 201.5t171 113.5q51 -11 40 -74t-83 -185q-64 -111 -73.5 -134.5t-9.5 -40.5q0 -13 8.5 -26t19.5 -17q23 10 63 40.5t68 59.5l6 -7q-51 -49 -86 -77.5t-68 -48.5q-4 -1 -8.5 -2t-9.5 -1q-6 0 -11.5 1t-9.5 3q-13 11 -22.5 30.5t-10.5 37.5
q0 17 8.5 40t30.5 61q9 16 28.5 48t28.5 47q56 96 69 144t-16 64q-56 -17 -167.5 -118.5t-186.5 -210.5z" />
    <glyph glyph-name="o" unicode="o" horiz-adv-x="533" 
d="M265 34q-39 -22 -65.5 -31t-48.5 -9q-36 0 -68.5 23t-42.5 56q-14 50 -2 104.5t52 122.5q29 49 81.5 100.5t103.5 80.5q33 18 63.5 27t56.5 9q34 0 63 -22.5t39 -57.5q13 -40 -1 -104t-54 -133q-28 -48 -74.5 -91.5t-102.5 -74.5zM94 102q10 -35 34.5 -53.5t60.5 -18.5
q22 0 49.5 6.5t45.5 16.5q21 12 43 38t44 63q37 60 57.5 126t16.5 115q-5 45 -30.5 70t-67.5 25q-17 0 -31 -2t-27 -7q-27 -15 -56.5 -46t-57.5 -74q-46 -70 -67 -136.5t-14 -122.5z" />
    <glyph glyph-name="p" unicode="p" horiz-adv-x="601" 
d="M-236 -275q-34 -2 -45 -2.5t-15 -0.5q-7 0 -6.5 4t6.5 4q63 4 87.5 12t43.5 25q22 20 50.5 64t118.5 201q110 190 153 277.5t42 113.5q-1 16 -12 29t-25 16q-16 -3 -55 -32t-68 -61l-7 7q35 35 77.5 70t73.5 53q6 4 11 5.5t9 1.5q18 0 34.5 -29t18.5 -57q2 -25 -20 -73.5
t-106 -190.5q61 71 122 135.5t113 111.5q55 50 95.5 78t62.5 31q17 -3 31.5 -22t21.5 -48q10 -38 -3 -95.5t-40 -106.5q-34 -63 -86 -115.5t-116 -89.5q-45 -25 -78 -35.5t-63 -10.5q-29 0 -56.5 21t-49.5 61q-22 -38 -72.5 -125.5t-65.5 -115.5q-10 -17 -28 -48t-19 -34
q5 -8 48.5 -13.5t77.5 -5.5q8 0 7 -4.5t-9 -4.5q-5 0 -15 0.5t-36 1.5q-36 2 -52.5 2.5t-26.5 0.5q-13 0 -40 -1t-89 -5zM483 478q-12 -2 -39 -21t-71 -57q-74 -65 -148.5 -143.5t-112.5 -133.5q33 -52 63 -75t66 -23q23 0 43.5 5.5t43.5 17.5q47 30 84 74.5t66 106.5
q27 57 37 113t2 90q-5 20 -13 31t-21 15z" />
    <glyph glyph-name="q" unicode="q" horiz-adv-x="582" 
d="M132 -274h-1.5h-1.5q-10 0 -14.5 3t-4.5 9q0 10 3.5 19t13.5 25q17 27 42.5 69t84.5 141q69 113 100.5 165t53.5 87q15 25 29 47.5t30 45.5q-56 -59 -133 -131.5t-144 -128.5q-34 -29 -56.5 -46.5t-38.5 -27.5q-3 -2 -7.5 -3.5t-9.5 -1.5q-7 0 -11.5 1t-7.5 3
q-30 23 -33 83t20 129q27 85 97.5 158.5t158.5 112.5q29 13 55 20t46 7q42 0 72 -18.5t65 -66.5l9.5 9.5t27.5 30.5t28 32t12 12q5 5 7.5 2t0.5 -5q-21 -30 -56.5 -86.5t-98.5 -162.5q-115 -195 -186.5 -316.5t-99.5 -169.5q1 -9 8.5 -13.5t24.5 -7.5q16 -4 42.5 -5.5
t65.5 -0.5q9 0 9 -4.5t-10 -4.5q-42 0 -92 -3t-100 -8zM100 219q-17 -57 -15.5 -108t20.5 -70q8 -1 27.5 11t57.5 42q64 50 155 135.5t156 157.5q-37 55 -69 80t-67 25q-16 0 -30.5 -3t-28.5 -10q-65 -29 -123.5 -102t-82.5 -158z" />
    <glyph glyph-name="r" unicode="r" horiz-adv-x="478" 
d="M30 3q-5 -1 -7.5 -1h-4.5q-18 0 -24 9.5t2 26.5q79 109 140 226t59 161q0 15 -10.5 28t-22.5 16q-17 -3 -56.5 -32t-68.5 -60l-7 7q35 34 78 68.5t74 52.5q6 4 11 5.5t9 1.5q17 -1 33.5 -29t17.5 -54q1 -23 -14 -61.5t-49 -101.5q74 98 133 156.5t103 76.5q9 3 20.5 5.5
t22.5 3.5q24 2 52.5 -1t34.5 -7q1 -10 -15.5 -31t-28.5 -23q-6 0 -13.5 1t-23.5 4q-26 5 -40 6t-26 1q-5 -1 -11 -2.5l-10 -2.5q-46 -17 -112 -94.5t-148 -210.5q-9 -13 -18.5 -29t-28.5 -47q-17 -29 -26 -42.5t-16 -25.5h-3t-6 -1z" />
    <glyph glyph-name="s" unicode="s" horiz-adv-x="393" 
d="M214 27q-28 -18 -57.5 -26.5t-61.5 -8.5q-43 0 -74.5 19t-41.5 50q-8 23 5 48t39 32l2 -2q-1 -34 22 -63.5t59 -43.5q34 -13 54 -13.5t40 9.5q38 21 35.5 71t-52.5 164q-43 99 -36.5 154.5t62.5 82.5q28 14 52.5 20t47.5 5q40 0 68 -12t39 -34q8 -17 0.5 -34t-26.5 -30
h-3q-21 45 -52 68.5t-70 23.5q-13 0 -23 -2t-18 -6q-37 -21 -35 -67t50 -149q45 -97 39 -158.5t-64 -97.5z" />
    <glyph glyph-name="t" unicode="t" horiz-adv-x="358" 
d="M272 158l7 -5q-44 -40 -102.5 -85.5t-92.5 -65.5q-5 -2 -8.5 -2.5t-6.5 -0.5q-6 0 -11.5 1t-7.5 3q-16 12 -25 33.5t-9 44.5q-1 25 13 61.5t53 101.5q13 23 57 96t79 131h-87q-3 1 -3 4.5t4 4.5q33 9 51 14.5t34 12.5q34 15 67 43t74 77q4 3 7.5 1.5t1.5 -5.5
q-4 -6 -9 -14t-17 -27q-17 -29 -27 -45t-19 -30h7q36 0 67 0.5t62 2.5h6.5h2.5t2 -1t1 -2q0 -2 -4 -8t-10 -12q-9 -9 -16.5 -14t-12.5 -5h-3h-8q-29 1 -57 2t-59 1q-96 -159 -117 -194.5t-29 -49.5q-31 -55 -43 -86t-11 -56q1 -16 10 -29.5t22 -17.5q17 4 73.5 45.5
t93.5 74.5z" />
    <glyph glyph-name="u" unicode="u" horiz-adv-x="598" 
d="M441 313q-86 -114 -190 -211t-149 -105q-27 2 -50.5 24.5t-24.5 51.5q2 26 48 104.5t48 81.5q65 114 72.5 134t7.5 35q-1 14 -11 26t-23 15q-17 -3 -56.5 -32t-68.5 -60l-7 7q33 32 76.5 67t75.5 54q9 5 13 6t7 1q18 -1 34.5 -29t17.5 -54q0 -15 -11.5 -41.5
t-78.5 -141.5q-4 -7 -40 -69.5t-44 -88.5q-4 -19 11.5 -35.5t35.5 -16.5q36 0 140 100.5t185 217.5q11 16 24 37.5t37 61.5q13 23 18.5 32.5t9.5 15.5q7 3 15 4.5t14 1.5q16 0 21.5 -9.5t-2.5 -25.5q-25 -36 -55 -83t-59 -96q-44 -78 -70 -135t-27 -79q-1 -11 10.5 -25
t23.5 -18q23 10 63 40.5t68 59.5l6 -7q-51 -49 -86 -77.5t-68 -48.5q-2 -1 -7.5 -2t-12.5 -1q-8 0 -15 1t-10 3q-13 11 -22 30t-10 37q-1 16 10.5 45t39.5 79q9 17 31.5 56.5t34.5 61.5z" />
    <glyph glyph-name="v" unicode="v" horiz-adv-x="592" 
d="M177 2q-4 -4 -9 -5.5t-12 -1.5q-13 1 -27 13t-13 27q30 140 46.5 235.5t16.5 128.5q0 31 -12 51t-29 21q-14 -2 -51 -28.5t-65 -54.5l-6 6q29 28 71 61t71 50q10 5 14.5 6.5t8.5 1.5q21 0 37 -27t17 -66q1 -35 -17 -139t-43 -218q-1 -11 6 -19.5t19 -9.5
q63 51 124.5 105.5t104.5 98.5q52 51 77 93.5t25 79.5q0 24 -11 42.5t-29 22.5q-15 -3 -52.5 -29.5t-68.5 -55.5l-6 6q28 26 72.5 59.5t76.5 51.5q6 3 9.5 4t6.5 1q21 -2 38 -26.5t16 -53.5q-1 -30 -35.5 -78t-111.5 -123q-64 -61 -128.5 -118.5t-130.5 -111.5z" />
    <glyph glyph-name="w" unicode="w" horiz-adv-x="894" 
d="M199 5q-6 -4 -13 -5.5t-20 -1.5q-19 0 -24.5 5.5t-2.5 20.5q17 124 28.5 228t10.5 136q0 36 -12 59.5t-31 25.5q-13 -2 -50 -29t-65 -54l-5 6q28 28 70 60.5t71 49.5q8 4 13 6t10 2q23 0 39 -31t16 -77q0 -27 -4.5 -73t-14.5 -120q-4 -33 -13 -98t-13 -94
q33 20 72.5 53.5t97.5 91.5q68 68 94 103.5t34 64.5q4 17 6 34.5t1 36.5q0 27 -12 46.5t-30 22.5q-13 -2 -47 -26.5t-61 -51.5l-6 6q30 28 69 58t67 46q7 4 12 6t10 2q22 0 38.5 -31.5t17.5 -77.5q0 -22 -8 -94.5t-35 -290.5q35 21 71 49.5t70 60.5q89 86 134 158.5
t41 125.5q-2 23 -14.5 41.5t-30.5 22.5q-17 -4 -49 -27.5t-68 -57.5l-6 7q27 26 70 59t71 49q8 3 13 4.5t8 1.5q23 -2 40 -22t21 -51q7 -49 -37.5 -114.5t-186.5 -202.5q-38 -37 -74.5 -68.5t-63.5 -50.5q-8 -4 -15 -5.5t-18 -1.5q-20 0 -25.5 5t-2.5 19q22 167 26.5 209.5
t7.5 69.5q-17 -24 -42 -52.5t-85 -89.5q-59 -60 -100.5 -98.5t-64.5 -55.5z" />
    <glyph glyph-name="x" unicode="x" horiz-adv-x="529" 
d="M-115 -93l-6 -2t-6 -1q-7 0 -13 4t-6 10q0 5 1.5 9.5t5.5 8.5q41 31 115 90.5t139 115.5l116 102q-12 92 -19 137t-12 61q-4 15 -11.5 25t-14.5 11q-15 -3 -57.5 -34t-72.5 -60l-6 6q26 26 73 63.5t79 57.5q7 4 12 5.5t10 1.5q5 -1 9 -3t7 -5q11 -9 19.5 -27.5
t12.5 -43.5q4 -20 9.5 -60t14.5 -107l10.5 10.5l10.5 10.5q21 20 40 38.5t48 46.5l19.5 19.5t12.5 11.5q17 17 35 34t48 45q16 15 23 21.5t12 11.5q5 1 8.5 0t5.5 -3q4 -2 7 -6.5t2 -8.5l-40 -34t-52 -43q-60 -48 -103.5 -84t-64.5 -56l-21 -18q10 -80 17.5 -124.5
t13.5 -65.5q5 -16 15 -27.5t22 -15.5q22 10 60.5 39.5t69.5 60.5l7 -6q-54 -51 -88.5 -79t-64.5 -47q-5 -2 -10 -2.5t-11 -0.5q-9 0 -14.5 1t-9.5 3q-12 9 -20.5 27t-15.5 53q-3 15 -7.5 43t-16.5 112q-12 -11 -30 -28.5t-55 -51.5q-12 -12 -17 -16.5t-8 -7.5
q-87 -83 -147.5 -141t-89.5 -87z" />
    <glyph glyph-name="y" unicode="y" horiz-adv-x="586" 
d="M59 -124q-91 -78 -188.5 -117t-201.5 -39q-14 0 -22.5 2t-12.5 6q-3 2 -4 4t-1 5q0 9 11 22.5t22 18.5h90q90 0 163.5 25t137.5 78q42 35 54 46.5t21 20.5q31 94 50 220.5t19 217.5q0 27 -5.5 47t-16.5 31q-5 4 -10.5 6t-14.5 2q-11 -2 -48.5 -30t-64.5 -54l-6 7
q30 28 71.5 60.5t70.5 49.5q6 3 11.5 5t10.5 2q6 0 13.5 -3t12.5 -8q15 -15 23 -41t8 -60q0 -76 -16 -191.5t-42 -198.5q32 31 85.5 85t90.5 93q79 83 116 136.5t38 86.5q-1 23 -12 39t-28 20q-14 -3 -46.5 -27t-65.5 -55l-7 7q22 21 62.5 53t69.5 50q15 9 20.5 11.5
t10.5 3.5q20 0 35.5 -22.5t11.5 -49.5q-10 -38 -55 -97t-143 -162q-49 -52 -103.5 -106t-105.5 -102q-48 -44 -69.5 -63t-39.5 -35z" />
    <glyph glyph-name="z" unicode="z" horiz-adv-x="515" 
d="M302 2q-3 -2 -8 -3t-11 -1q-10 0 -17 1t-10 3q-6 2 -14.5 7t-29.5 18q-50 31 -77.5 41.5t-49.5 10.5q-37 0 -66.5 -16t-71.5 -57q-14 -14 -23 -5.5t7 21.5q203 152 343.5 257.5t217.5 165.5q1 1 0.5 1.5t-1.5 0.5q-39 -21 -67 -29.5t-55 -8.5q-19 0 -41 8.5t-62 33.5
q-26 17 -37 22t-19 5q-13 -4 -38 -24.5t-81 -76.5l-7 5q43 46 82.5 82t65.5 53q4 3 10 4t14 1q7 0 12 -1t8 -2q4 -1 9 -4.5t19 -13.5q42 -32 71 -44t58 -12q40 0 65.5 11.5t56.5 42.5q4 4 9.5 3.5t8.5 -4.5q4 -5 3 -10t-7 -8q-40 -23 -193.5 -136.5t-363.5 -274.5
q-1 -1 -0.5 -2t1.5 -1q49 29 78.5 40.5t52.5 11.5q16 0 37 -8t64 -33q35 -21 50 -27t25 -6q12 3 28.5 14t40.5 32q10 10 31 29t30 27l6 -6q-28 -28 -79.5 -74.5t-74.5 -63.5z" />
    <glyph glyph-name="braceleft" unicode="{" horiz-adv-x="445" 
d="M134 267q27 -14 42.5 -59t-2.5 -82q-10 -22 -25 -49t-51 -82t-53 -84.5t-30 -55.5q-33 -77 -7.5 -107t113.5 -30q11 0 10.5 -9.5t-12.5 -9.5q-88 0 -122 51.5t-1 122.5q14 30 33.5 62.5t59.5 92.5q35 50 49 74t23 44q22 45 3.5 79.5t-58.5 34.5q-3 0 -4 1.5t0 6.5
q1 4 3 5.5t6 1.5q47 0 86.5 27.5t61.5 75.5q9 20 16.5 44.5t20.5 78.5q15 65 26 100t25 65q28 61 99 94.5t170 33.5q10 0 9.5 -8.5t-10.5 -8.5q-110 0 -162.5 -20.5t-74.5 -69.5q-12 -27 -23 -60.5t-27 -99.5q-15 -60 -23.5 -87.5t-18.5 -48.5q-20 -42 -60.5 -74.5
t-91.5 -49.5z" />
    <glyph glyph-name="bar" unicode="|" horiz-adv-x="267" 
d="M150 780q-6 -92 -9 -235.5t-3 -297.5q0 -127 1.5 -262.5t4.5 -250.5q-13 -10 -17.5 -11t-11.5 1q5 115 7.5 251.5t2.5 270.5q0 59 -0.5 138.5t-5.5 389.5q7 5 12 6.5t19 -0.5z" />
    <glyph glyph-name="braceright" unicode="}" horiz-adv-x="445" 
d="M308 226q-27 14 -42.5 59t2.5 82q10 22 25 49t51 82t53 84.5t30 55.5q33 77 7.5 107t-113.5 30q-11 0 -10.5 9.5t12.5 9.5q88 0 122 -51.5t1 -122.5q-14 -30 -33.5 -62.5t-59.5 -92.5q-35 -50 -49 -74t-23 -44q-22 -45 -3.5 -79.5t58.5 -34.5q3 0 4 -1.5t0 -6.5
q-1 -4 -3 -5.5t-6 -1.5q-47 0 -86.5 -27.5t-61.5 -75.5q-9 -20 -16.5 -44.5t-20.5 -78.5q-15 -65 -26 -100t-25 -65q-28 -61 -99 -94.5t-170 -33.5q-10 0 -9.5 8.5t10.5 8.5q110 0 162.5 20.5t74.5 69.5q12 27 23 60.5t27 99.5q15 60 23.5 87.5t18.5 48.5q20 42 60.5 74.5
t91.5 49.5z" />
    <glyph glyph-name="asciitilde" unicode="~" horiz-adv-x="466" 
d="M265 345q-34 21 -50.5 27.5t-30.5 6.5q-22 0 -41 -17t-38 -54q-3 -5 -7.5 -3.5t-0.5 7.5q32 55 64 80.5t69 25.5q18 0 38 -7.5t58 -30.5q38 -24 57 -31t36 -7q20 0 35.5 15.5t33.5 62.5q1 4 3.5 2.5t1.5 -5.5q-20 -56 -49.5 -85.5t-65.5 -29.5q-22 0 -46 8.5t-67 34.5z
" />
    <glyph glyph-name="exclamdown" unicode="&#xa1;" horiz-adv-x="305" 
d="M212 502q4 3 12.5 4.5t20.5 1.5q14 0 22 -2t13 -6q7 -13 -1.5 -40t-23.5 -35q-4 -3 -15 -5t-22 -2q-10 0 -20.5 3t-12.5 6q-3 19 5.5 42t21.5 33zM-56 -116q133 245 165 308.5t65 133.5l8 -2q-50 -104 -91 -194.5t-112 -257.5q-40 -94 -64.5 -150t-32.5 -73
q-4 -7 -11 -11t-16 -4q-11 0 -20 4t-12 10q-1 3 -1.5 6t0.5 6q16 34 66 123t56 101z" />
    <glyph glyph-name="cent" unicode="&#xa2;" horiz-adv-x="517" 
d="M481 175q-46 -86 -115.5 -135.5t-144.5 -49.5q-16 0 -31.5 2t-29.5 6q-30 -60 -54 -109.5t-46 -95.5q-18 -10 -22.5 -11t-10.5 1q9 16 19 35t31 56q29 54 43 80.5t26 48.5q-80 30 -99.5 116.5t31.5 188.5q45 91 133.5 145.5t192.5 56.5q7 15 15.5 32.5t26.5 52.5
l25.5 52.5t15.5 32.5q9 5 14 6.5t17 -0.5q-47 -86 -64.5 -117.5t-31.5 -58.5q60 -3 104.5 -31t43.5 -58q0 -14 -13 -25t-30 -11q-12 0 -21.5 7.5t-22.5 33.5q-17 34 -32.5 47.5t-37.5 19.5q-31 -59 -62.5 -119t-63.5 -124q-10 -20 -21.5 -42.5l-34.5 -67.5
q-20 -38 -29.5 -57l-17.5 -35q16 -7 34.5 -10.5t38.5 -3.5q71 0 122.5 34.5t95.5 109.5q1 3 4 1.5t2 -4.5zM379 497q-79 0 -143.5 -43.5t-105.5 -125.5q-43 -86 -31 -164t74 -111q45 86 65 124.5t36 71.5q56 114 79.5 161t43.5 86q-3 1 -7 1h-11z" />
    <glyph glyph-name="sterling" unicode="&#xa3;" horiz-adv-x="683" 
d="M271 359h4.5h4.5q50 0 102.5 1.5t98.5 4.5q5 -4 5 -12.5t-5 -11.5q-46 3 -97 5t-103 2h-7.5h-7.5q-47 -97 -96 -174t-94 -124q24 -3 84 -12.5t94 -14.5q57 -8 100.5 -12t78.5 -4q24 0 49 12.5t44 33.5q23 24 47.5 56t46.5 68l25 39q3 5 8 4t2 -6l-25 -42
q-38 -63 -63.5 -103.5t-44.5 -67.5q-11 -18 -38.5 -35t-49.5 -17q-29 0 -74.5 9t-109.5 28q-43 13 -106.5 33.5t-73.5 23.5q-11 -11 -20.5 -19.5t-17.5 -14.5q-19 -15 -37 -23t-34 -8t-26 9t-10 24q0 21 18.5 34t48.5 13q12 0 28.5 -1.5t47.5 -5.5q23 39 62 122.5t77 173.5
q-43 -1 -80 -2.5t-63 -3.5q-5 3 -5 9.5t5 10.5q19 -1 48.5 -1.5t99.5 -0.5l9 22.5t6 14.5q59 146 150 224.5t193 78.5q49 0 77.5 -17t28.5 -47q0 -21 -10.5 -33t-29.5 -12q-18 0 -27.5 12t-8.5 33q1 28 -10 40.5t-35 12.5q-76 0 -136.5 -70t-134.5 -232l-7.5 -16.5
t-5.5 -10.5z" />
    <glyph glyph-name="yen" unicode="&#xa5;" horiz-adv-x="606" 
d="M233 9h18q6 0 4 -4.5t-8 -4.5q-8 0 -21 0.5t-40 1.5q-17 1 -24 1h-10h-10t-26 -1q-30 -1 -44 -1.5t-23 -0.5q-6 0 -4 4.5t8 4.5h18q29 0 45.5 13.5t39.5 51.5q10 16 23 40t32 61q-47 -1 -84 -2.5t-77 -4.5q-4 2 -2.5 10.5t6.5 11.5q34 -4 69 -5.5t92 -1.5q1 1 1.5 2
l1.5 3q1 3 1.5 4t1.5 2l69 128q-51 0 -90 -1.5t-81 -5.5q-4 2 -2 10.5t6 11.5q37 -4 73.5 -5.5t97.5 -1.5l-15 204q-7 105 -19.5 127.5t-47.5 22.5h-8q-9 0 -7.5 4.5t8.5 4.5q9 0 23 -0.5t44 -1.5q19 -1 26.5 -1h10.5h11.5t31.5 1q35 1 51 1.5t25 0.5q6 0 5.5 -4.5
t-7.5 -4.5h-25q-46 0 -62 -34.5t-10 -120.5l12 -194l240 214q59 53 73.5 94.5t-35.5 41.5q-5 0 -10.5 -0.5t-13.5 -2.5q-4 -1 -5.5 -1h-2.5q-9 0 -7.5 6t13.5 6h14t46 -1t46 -1h14h10t28 1q31 1 45 1h22q6 0 4.5 -4.5t-6.5 -4.5h-7q-33 0 -78 -27.5t-140 -110.5l-240 -216
q55 1 97.5 3.5t71.5 6.5q4 -3 2.5 -11t-6.5 -13q-35 3 -78.5 4.5t-93.5 1.5l-70 -128l-6 -11q60 1 105.5 3.5t77.5 6.5q4 -3 2.5 -11.5t-6.5 -12.5q-31 3 -73 4.5t-110 1.5q-10 -20 -17.5 -35.5t-13.5 -27.5q-11 -21 -17.5 -36t-10.5 -26q-8 -23 -4 -32t32 -9z" />
    <glyph glyph-name="brokenbar" unicode="&#xa6;" horiz-adv-x="267" 
d="M142 299q-7 -7 -11.5 -8t-10.5 2q0 9 0.5 34t1.5 91q0 63 0.5 86t0.5 32l-6 238q4 8 11 9.5t14 -3.5q0 -9 -0.5 -34t-2.5 -91q-2 -64 -2.5 -87t-0.5 -32t0.5 -33t2.5 -87q2 -62 2.5 -85t0.5 -32zM141 -278q-6 -6 -12.5 -7.5t-12.5 1.5q0 9 0.5 34t3.5 91q2 63 2.5 86
t0.5 32l-3 238q3 6 9.5 7.5t12.5 -1.5q0 -9 -0.5 -34t-2.5 -91q-2 -64 -2.5 -87t-0.5 -32t0.5 -33t2.5 -87q1 -62 1.5 -85t0.5 -32z" />
    <glyph glyph-name="section" unicode="&#xa7;" horiz-adv-x="551" 
d="M-64 -132q12 -30 27 -40t39 -10q45 0 83 24t60 64q21 39 24 91.5t-19 166.5q-24 122 -19.5 180.5t29.5 102.5q23 41 64 74t100 58q33 54 86.5 86.5t108.5 32.5q46 0 75.5 -18t29.5 -44q0 -13 -8.5 -22t-21.5 -9q-11 0 -18.5 6t-15.5 26q-12 29 -27.5 38.5t-40.5 9.5
q-50 0 -85.5 -33.5t-47.5 -94.5q-8 -33 -6 -76t22 -136q25 -120 22.5 -175.5t-25.5 -96.5q-24 -43 -71 -80t-108 -62q-38 -56 -96 -90t-118 -34q-46 0 -75.5 18t-29.5 44q0 13 9 21.5t22 8.5q10 0 16.5 -6t14.5 -25zM205 200q23 -112 21 -163t-23 -89q-1 -1 -1.5 -2t-1.5 -4
l-1.5 -3t-1.5 -2q43 20 73 45.5t46 55.5q25 45 28 105t-25 185q-23 109 -22 156.5t19 81.5q0 1 0.5 1.5t1.5 2.5l1.5 1.5t0.5 1.5q-35 -16 -65 -42t-45 -53q-23 -44 -26 -101t21 -177z" />
    <glyph glyph-name="dieresis" unicode="&#xa8;" horiz-adv-x="809" 
d="M493 610q-11 0 -15.5 1t-8.5 5q-6 10 7.5 39t26.5 36q4 2 13 3t21 1q10 0 19.5 -2t11.5 -5q2 -15 -16 -40t-33 -34q-5 -2 -11.5 -3t-14.5 -1zM298 610q-11 0 -15 1t-8 5q-6 10 7.5 39t26.5 36q3 2 12 3t21 1q10 0 20 -2t12 -5q1 -16 -17.5 -41.5t-32.5 -32.5
q-4 -2 -10.5 -3t-15.5 -1z" />
    <glyph glyph-name="copyright" unicode="&#xa9;" horiz-adv-x="820" 
d="M693 95q-55 -52 -123 -81.5t-133 -29.5q-148 0 -249 102t-101 255q0 69 30 134.5t87 118.5q55 52 123 81.5t133 29.5q148 0 248 -102t100 -255q0 -70 -30 -135t-85 -118zM205 104q49 -50 111.5 -77.5t130.5 -27.5t130.5 26t110.5 74q48 47 73.5 109.5t25.5 131.5
t-25 132.5t-71 112.5q-48 51 -110.5 78.5t-129.5 27.5t-130.5 -26t-112.5 -74t-75 -110.5t-26 -131.5t25.5 -132.5t72.5 -112.5zM634 252q2 2 5 -0.5t1 -5.5q-50 -60 -98 -86.5t-99 -25.5q-87 0 -143 56t-56 144q0 91 66 154t157 63q40 0 74 -6t63 -19q2 -1 2.5 -2.5
t0.5 -3.5q0 -3 0.5 -13.5t2.5 -42.5q2 -41 3 -60.5t2 -33.5q0 -4 -4 -4.5t-4 3.5q-6 96 -39 134.5t-102 38.5q-87 0 -133 -49t-46 -141q0 -81 51.5 -135t132.5 -54q43 0 80 18.5t83 70.5z" />
    <glyph glyph-name="ordfeminine" unicode="&#xaa;" horiz-adv-x="396" 
d="M283 401q-9 8 -15 20.5t-6 22.5q0 12 8 30.5t26 45.5q10 15 27 39t21 30q-42 -44 -111.5 -104t-105.5 -84q-4 -3 -14.5 -3t-12.5 2q-17 16 -18 50.5t13 75.5q15 46 56.5 87.5t94.5 65.5q19 9 36.5 13.5t30.5 4.5q28 0 46.5 -10.5t37.5 -36.5l44 44q3 3 6 1t2 -3
q-50 -58 -97 -135.5t-46 -105.5q0 -7 6.5 -15t15.5 -11q13 5 36.5 22t39.5 34l6 -6q-41 -38 -59 -51.5t-35 -22.5q-4 -2 -17 -2t-16 2zM135 533q-10 -33 -9.5 -63t10.5 -42q4 0 14 5.5t24 15.5q39 29 98.5 82.5t93.5 92.5q-21 29 -39.5 42t-43.5 13q-11 0 -19.5 -1.5
t-15.5 -5.5q-38 -19 -69 -56.5t-44 -82.5z" />
    <glyph glyph-name="guillemotleft" unicode="&#xab;" horiz-adv-x="532" 
d="M117 44q-10 27 -37.5 103.5t-38.5 104.5q-1 3 -0.5 5.5t5.5 7.5q6 5 17 14.5t39 34.5q85 72 121.5 103.5t50.5 45.5q11 9 20 13.5t17 4.5q4 0 6.5 -4t1.5 -11q-3 -14 -12.5 -26.5t-26.5 -23.5q-11 -7 -35.5 -23.5t-86.5 -60.5q-53 -36 -73 -50t-30 -20q-4 -3 -4.5 -5
t0.5 -4q12 -21 51 -85.5t56 -92.5q5 -9 5.5 -14t-1.5 -11q-1 -10 -8.5 -17.5t-14.5 -7.5q-6 0 -12.5 5t-9.5 14zM313 44l-116 193q-2 3 -1 6.5t5 6.5l329 215q16 10 24 13t13 3q4 0 6.5 -4t1.5 -11q-5 -17 -14 -28t-24 -19l-326 -172q-3 -3 -4 -5t0 -4l147 -164q4 -6 5 -12
t-1 -12q-1 -10 -8 -17.5t-15 -7.5q-4 0 -10 5t-12 14z" />
    <glyph glyph-name="logicalnot" unicode="&#xac;" 
d="M478 410h-165q-46 0 -84 -1.5t-96 -5.5q-5 3 -5 11.5t5 12.5q60 -4 98 -5t81 -1q84 0 114.5 1t58.5 4q2 0 5 -3t3 -5q-1 -46 0 -91t6 -107q-3 -5 -11.5 -5t-12.5 5q2 35 3 83.5t0 106.5z" />
    <glyph glyph-name="uni00AD" unicode="&#xad;" horiz-adv-x="375" 
d="M62 237zM70 267q24 -2 52 -3t65 -1t66 1t52 3q5 -4 2.5 -16t-8.5 -14q-27 2 -54 3t-63 1q-22 0 -45.5 -0.5t-72.5 -3.5q-4 4 -1.5 15t7.5 15z" />
    <glyph glyph-name="registered" unicode="&#xae;" horiz-adv-x="804" 
d="M549 256q3 -82 16.5 -106t43.5 -24q33 0 70 28t64 73q21 37 32 79.5t11 89.5q0 130 -90 212t-231 82q-73 0 -140.5 -28.5t-119.5 -80.5t-80 -119t-28 -141q0 -143 89 -232.5t229 -89.5q57 0 107.5 12.5t86.5 36.5q4 3 5.5 1t-2.5 -5q-42 -28 -96.5 -44t-108.5 -16
q-150 0 -240 89.5t-90 240.5q0 74 31.5 145t89.5 127t129.5 87t144.5 31q149 0 241 -81t92 -212q0 -51 -14 -100t-41 -90q-33 -50 -76 -78.5t-85 -28.5q-45 0 -65.5 28.5t-22.5 99.5q-3 74 -17.5 98.5t-63.5 24.5h-46l-28 -60q-13 -28 -22 -47t-16 -33q-18 -42 -19.5 -56
t18.5 -14h15q3 0 2 -3.5t-5 -3.5h-14t-29 1h-17.5h-6.5h-12t-36 -1h-19.5h-4.5q-4 0 -3 3.5t5 3.5q14 0 20.5 1t11.5 4q8 4 16 14.5t22 35.5q7 12 16 31t43 89l38 80q14 29 23 48t15 33q19 41 19.5 55t-22.5 14h-13q-4 0 -2 4t6 4h15t33 -1q15 -1 20.5 -1h7.5h8.5t20.5 1
q20 1 29.5 1h15.5q75 0 111.5 -38t11.5 -91q-15 -34 -58 -52.5t-112 -20.5q35 -6 52 -33t19 -77zM424 470l-46 -97h35.5h35.5q61 0 97.5 19t54.5 59q21 48 0.5 78.5t-75.5 30.5h-34q-18 0 -28 -14t-40 -76z" />
    <glyph glyph-name="macron" unicode="&#xaf;" horiz-adv-x="809" 
d="M447 626h73h55t38 1q7 0 19.5 0.5t12.5 -1.5q0 -3 -14 -18t-21 -23h-8h-23q-28 1 -40 1h-17q-21 0 -46 -1t-32 -1q-22 -2 -27 -1.5t-5 2.5q0 1 2 3.5t9 9.5q8 10 13.5 16t10.5 12z" />
    <glyph glyph-name="degree" unicode="&#xb0;" horiz-adv-x="376" 
d="M269 447q-54 0 -92 38t-38 92t38 92t92 38t92 -38t38 -92t-38 -92t-92 -38zM269 693q-47 0 -81 -34.5t-34 -81.5t34 -81.5t81 -34.5t81 34.5t34 81.5t-34 81.5t-81 34.5z" />
    <glyph glyph-name="plusminus" unicode="&#xb1;" 
d="M478 467q5 -4 5 -12.5t-5 -11.5q-75 6 -98.5 6.5t-54.5 0.5q0 -33 1 -58t6 -96q-3 -5 -11.5 -5t-12.5 5q2 29 2.5 55t0.5 99q-33 0 -58 -1t-95 -6q-5 3 -5 11.5t5 12.5q79 -5 102 -5.5t51 -0.5q0 76 -0.5 102t-2.5 53q4 5 12.5 5t11.5 -5q-6 -75 -6.5 -99t-0.5 -56
q30 0 54.5 0.5t98.5 5.5zM317 216q31 0 55.5 0.5t103.5 5.5q5 -4 5 -12.5t-5 -11.5q-75 6 -100 6.5t-58 0.5t-58 -0.5t-100 -6.5q-5 3 -5 11.5t5 12.5q79 -5 103 -5.5t54 -0.5z" />
    <glyph glyph-name="two.sup" unicode="&#xb2;" horiz-adv-x="373" 
d="M126 496zM414 499q-6 -1 -28.5 -1h-72.5q-30 0 -70 -0.5t-98 -1.5h-12.5h-3.5q-2 0 -2.5 3.5t1.5 4.5q45 24 81 43.5t66 36.5q92 53 144 93.5t64 68.5q17 39 -1.5 66t-62.5 27q-24 0 -41.5 -6.5t-29.5 -20.5q-10 -11 -17 -27t-13 -43q-3 -15 -12 -23.5t-23 -8.5
q-15 0 -18.5 10.5t5.5 28.5q11 21 30 39.5t42 32.5q25 15 53 23.5t54 8.5q55 0 80 -28t8 -70q-9 -20 -41 -45t-111 -71q-71 -42 -113 -66.5t-55 -32.5h118q68 0 99 13t62 58q3 5 6.5 3t0.5 -6q-2 -3 -19.5 -27.5t-50.5 -70.5q-3 -4 -7 -6.5t-12 -4.5z" />
    <glyph glyph-name="three.sup" unicode="&#xb3;" horiz-adv-x="349" 
d="M175 484zM382 517q-28 -16 -61.5 -24.5t-67.5 -8.5q-42 0 -63 17t-13 46q6 21 29 35.5t63 22.5q4 1 5 -2.5t-3 -4.5q-19 -5 -30.5 -14.5t-14.5 -22.5q-5 -23 15.5 -37.5t57.5 -14.5q21 0 40.5 3.5t39.5 10.5q25 15 36 27.5t18 30.5q16 40 -1.5 70t-58.5 30
q-11 0 -21.5 -4t-28.5 -16q-12 -9 -17.5 -11.5t-10.5 -2.5q-7 0 -11 4t-4 10q0 7 6 12t16 6q76 10 122 29.5t57 46.5q15 33 -2 58t-54 25q-19 0 -33.5 -4.5t-24.5 -13.5q-11 -9 -18 -22.5t-11 -30.5q-4 -16 -11.5 -23.5t-19.5 -7.5q-13 0 -17.5 9t2.5 24q7 17 24.5 31.5
t46.5 28.5q23 11 48.5 17t46.5 6q48 -1 70 -27.5t5 -61.5q-10 -21 -45 -38.5t-111 -36.5q10 2 19 2.5t17 0.5q44 -1 64 -28t3 -66q-9 -20 -31.5 -38.5t-66.5 -41.5z" />
    <glyph glyph-name="acute" unicode="&#xb4;" horiz-adv-x="809" 
d="M459 692q6 5 12 7.5t12 2.5q7 0 13.5 -7.5t5.5 -13.5q0 -5 -3 -11.5t-8 -10.5q-2 -2 -7.5 -5.5t-20.5 -13.5q-52 -33 -85 -57t-61 -47q-1 -1 -1.5 -1h-1.5q-2 0 -3.5 1.5t-1.5 3.5q0 1 1.5 2l1.5 1q29 24 60 54.5t71 77.5q9 10 12 13z" />
    <glyph glyph-name="paragraph" unicode="&#xb6;" horiz-adv-x="672" 
d="M171 -91l220 444h-42q-118 0 -163.5 63.5t4.5 153.5q29 52 87.5 77t151.5 25h29h100q74 -1 99 -1h29h11t30 1q33 1 48 1h23q6 0 6 -4.5t-6 -4.5h-13q-38 0 -59.5 -18t-51.5 -66q-14 -22 -32 -53.5t-41 -75.5l-112 -212q-109 -205 -196.5 -298.5t-170.5 -93.5
q-59 0 -99.5 21t-40.5 48q0 14 15.5 28t25.5 10q7 -2 13 -7.5t11 -15.5q3 -4 8 -14.5t8 -15.5q10 -21 24 -32.5t31 -11.5q15 0 27 12t26 40zM638 661h-81l-395 -798q39 11 77 42t82 87q36 47 75.5 110t79.5 139l111 210q13 25 23 43.5t18 33.5q14 27 23 45.5t14 32.5
q13 32 9.5 43.5t-36.5 11.5z" />
    <glyph glyph-name="periodcentered" unicode="&#xb7;" horiz-adv-x="247" 
d="M113 212q-13 0 -21 2t-14 6q-7 13 2 40t24 35q5 3 15 5t21 2t21 -3t12 -6q4 -19 -4.5 -42t-21.5 -33q-4 -3 -13 -4.5t-21 -1.5z" />
    <glyph glyph-name="cedilla" unicode="&#xb8;" horiz-adv-x="809" 
d="M339 -171q-5 -42 -47.5 -71.5t-96.5 -29.5q-26 0 -43.5 8t-17.5 20q0 10 14 17.5t29 7.5q7 0 13 -3t15 -12q10 -11 17.5 -14.5t17.5 -3.5q25 0 47 16.5t24 39.5q3 34 -30 53.5t-88 13.5q-5 -1 -9 -3.5t-9 -8.5q-4 -6 -6.5 -7.5t-5.5 -1.5q-8 0 -7 5t10 14q42 42 78 79
t53 56q4 4 8.5 2t0.5 -7q-7 -7 -37 -37.5t-47 -49.5q-1 -2 -0.5 -2.5t4.5 -0.5q56 2 87 -20t26 -60z" />
    <glyph glyph-name="one.sup" unicode="&#xb9;" horiz-adv-x="221" 
d="M132 498zM286 763q-4 -2 -5.5 1t2.5 5q62 36 85.5 50.5t37.5 25.5q4 3 7 4t5 1q4 0 5.5 -3t-0.5 -7q-10 -17 -81.5 -145.5t-81.5 -145.5q-13 -23 -4.5 -33.5t40.5 -10.5q4 0 3.5 -3.5t-4.5 -3.5h-12.5t-31.5 1h-26h-9h-11t-31 -1h-29.5h-9.5q-4 0 -3 3.5t5 3.5
q28 0 44.5 9t29.5 31q6 10 65 114.5t61 109.5q5 9 4.5 13t-6.5 4q-4 0 -12 -3.5t-37 -19.5z" />
    <glyph glyph-name="ordmasculine" unicode="&#xba;" horiz-adv-x="330" 
d="M237 420q-20 -11 -40.5 -18t-34.5 -7q-22 0 -43 13.5t-26 31.5q-7 25 2 59.5t33 73.5q17 28 45 54.5t58 43.5q21 11 44.5 18.5t37.5 7.5q21 0 38.5 -13t23.5 -33q7 -24 -1.5 -61t-31.5 -76q-16 -27 -44 -52t-61 -42zM134 463q6 -17 20 -28t32 -12q17 -1 34 2.5t29 9.5
q13 7 23.5 17.5t21.5 27.5q21 34 33 73t9 69q-2 20 -13.5 33t-30.5 17q-10 2 -25 0.5t-29 -5.5q-17 -9 -33 -25.5t-31 -41.5q-23 -37 -33.5 -72.5t-6.5 -64.5z" />
    <glyph glyph-name="guillemotright" unicode="&#xbb;" horiz-adv-x="531" 
d="M426 462q18 -50 43 -118t33 -90q1 -3 0 -6t-5 -6q-9 -8 -28 -24.5t-68 -58.5q-67 -58 -93.5 -81t-38.5 -34q-11 -10 -20 -14.5t-16 -4.5q-5 0 -7.5 4.5t-1.5 11.5q3 14 12.5 26t26.5 23q11 7 37.5 25t91.5 64q49 34 68 47t28 19q3 2 4 4t0 4q-13 23 -52.5 89t-54.5 90
q-5 8 -5.5 13.5t1.5 10.5q1 10 8.5 17.5t14.5 7.5q6 0 12.5 -5t9.5 -14zM230 462l116 -193q2 -3 1 -6t-5 -6l-329 -215q-15 -10 -23 -13.5t-14 -3.5q-4 0 -6.5 4.5t-1.5 11.5q5 16 14 27t24 20l326 172q4 2 5 4t-1 4l-147 165q-4 6 -5 11.5t1 11.5q1 11 8 18t15 7q4 0 10 -5
t12 -14z" />
    <glyph glyph-name="onequarter" unicode="&#xbc;" horiz-adv-x="636" 
d="M91 0zM101 354q33 -2 123.5 -4t135.5 -2t136.5 2t124.5 4q5 -3 2 -12t-9 -12q-35 3 -123.5 5t-135.5 2q-48 0 -137 -2t-124 -5q-5 3 -2 11.5t9 12.5zM298 429zM452 694q-4 -2 -5.5 1t2.5 5q62 36 85.5 50.5t37.5 25.5q4 3 7 4t5 1q4 0 5.5 -3t-0.5 -7
q-10 -17 -81.5 -145.5t-81.5 -145.5q-13 -23 -4.5 -33.5t40.5 -10.5q4 0 3.5 -3.5t-4.5 -3.5h-12.5t-31.5 1h-26h-9h-11t-31 -1h-29.5h-9.5q-4 0 -3 3.5t5 3.5q28 0 44.5 9t29.5 31q6 10 65 114.5t61 109.5q5 9 4.5 13t-6.5 4q-4 0 -12 -3.5t-37 -19.5zM272 -92q-19 1 -28 1
h-15t-17.5 -0.5t-36.5 -0.5q-15 -1 -20 -1h-7q-4 0 -3 3.5t5 3.5q27 0 45 10t34 37q3 6 8 14.5l15 25.5q8 13 12 20t7 13h-171q-4 0 -5 4t3 7q8 6 137.5 91t195.5 134q4 4 7 5t5 0q3 -1 3.5 -3.5t-1.5 -5.5q-2 -4 -50.5 -90t-61.5 -109h52q31 0 47 9t42 45q4 5 7.5 3
t-0.5 -7q-35 -49 -44 -62t-10 -14q-2 -4 -6 -5.5t-13 -1.5h-93q-19 -34 -29.5 -52t-13.5 -24q-13 -22 -4.5 -33t38.5 -11q3 0 2.5 -3.5t-4.5 -3.5h-10.5t-21.5 1zM279 155q-59 -40 -83 -56.5t-36 -24.5q-1 0 -1.5 -0.5t-2.5 -1.5l-4.5 -3t-2.5 -2h141q6 10 33.5 59t39.5 71
q4 7 4.5 11t-1.5 4q-1 0 -4.5 -2.5t-10.5 -6.5q-7 -5 -21.5 -14.5t-50.5 -33.5z" />
    <glyph glyph-name="onehalf" unicode="&#xbd;" horiz-adv-x="636" 
d="M0 0zM101 354q33 -2 123.5 -4t135.5 -2t136.5 2t124.5 4q5 -3 2 -12t-9 -12q-35 3 -123.5 5t-135.5 2q-48 0 -137 -2t-124 -5q-5 3 -2 11.5t9 12.5zM298 429zM452 694q-4 -2 -5.5 1t2.5 5q62 36 85.5 50.5t37.5 25.5q4 3 7 4t5 1q4 0 5.5 -3t-0.5 -7
q-10 -17 -81.5 -145.5t-81.5 -145.5q-13 -23 -4.5 -33.5t40.5 -10.5q4 0 3.5 -3.5t-4.5 -3.5h-12.5t-31.5 1h-26h-9h-11t-31 -1h-29.5h-9.5q-4 0 -3 3.5t5 3.5q28 0 44.5 9t29.5 31q6 10 65 114.5t61 109.5q5 9 4.5 13t-6.5 4q-4 0 -12 -3.5t-37 -19.5zM286 -95
q-6 -1 -28.5 -1h-72.5q-30 0 -70 -0.5t-98 -1.5h-12.5h-3.5q-2 0 -2.5 3.5t1.5 4.5q45 24 81 43.5t66 36.5q92 53 144 93.5t64 68.5q17 39 -1.5 66t-62.5 27q-24 0 -41.5 -6.5t-29.5 -20.5q-10 -11 -17 -27t-13 -43q-3 -15 -12 -23.5t-23 -8.5q-15 0 -18.5 10.5t5.5 28.5
q11 21 30 39.5t42 32.5q25 15 53 23.5t54 8.5q55 0 80 -28t8 -70q-9 -20 -41 -45t-111 -71q-71 -42 -113 -66.5t-55 -32.5h118q68 0 99 13t62 58q3 5 6.5 3t0.5 -6q-2 -3 -19.5 -27.5t-50.5 -70.5q-3 -4 -7 -6.5t-12 -4.5z" />
    <glyph glyph-name="threequarters" unicode="&#xbe;" horiz-adv-x="636" 
d="M91 0zM101 354q33 -2 123.5 -4t135.5 -2t136.5 2t124.5 4q5 -3 2 -12t-9 -12q-35 3 -123.5 5t-135.5 2q-48 0 -137 -2t-124 -5q-5 3 -2 11.5t9 12.5zM281 418zM488 451q-28 -16 -61.5 -24.5t-67.5 -8.5q-42 0 -63 17t-13 46q6 21 29 35.5t63 22.5q4 1 5 -2.5t-3 -4.5
q-19 -5 -30.5 -14.5t-14.5 -22.5q-5 -23 15.5 -37.5t57.5 -14.5q21 0 40.5 3.5t39.5 10.5q25 15 36 27.5t18 30.5q16 40 -1.5 70t-58.5 30q-11 0 -21.5 -4t-28.5 -16q-12 -9 -17.5 -11.5t-10.5 -2.5q-7 0 -11 4t-4 10q0 7 6 12t16 6q76 10 122 29.5t57 46.5q15 33 -2 58
t-54 25q-19 0 -33.5 -4.5t-24.5 -13.5q-11 -9 -18 -22.5t-11 -30.5q-4 -16 -11.5 -23.5t-19.5 -7.5q-13 0 -17.5 9t2.5 24q7 17 24.5 31.5t46.5 28.5q23 11 48.5 17t46.5 6q48 -1 70 -27.5t5 -61.5q-10 -21 -45 -38.5t-111 -36.5q10 2 19 2.5t17 0.5q44 -1 64 -28t3 -66
q-9 -20 -31.5 -38.5t-66.5 -41.5zM272 -92q-19 1 -28 1h-15t-17.5 -0.5t-36.5 -0.5q-15 -1 -20 -1h-7q-4 0 -3 3.5t5 3.5q27 0 45 10t34 37q3 6 8 14.5l15 25.5q8 13 12 20t7 13h-171q-4 0 -5 4t3 7q8 6 137.5 91t195.5 134q4 4 7 5t5 0q3 -1 3.5 -3.5t-1.5 -5.5
q-2 -4 -50.5 -90t-61.5 -109h52q31 0 47 9t42 45q4 5 7.5 3t-0.5 -7q-35 -49 -44 -62t-10 -14q-2 -4 -6 -5.5t-13 -1.5h-93q-19 -34 -29.5 -52t-13.5 -24q-13 -22 -4.5 -33t38.5 -11q3 0 2.5 -3.5t-4.5 -3.5h-10.5t-21.5 1zM279 155q-59 -40 -83 -56.5t-36 -24.5
q-1 0 -1.5 -0.5t-2.5 -1.5l-4.5 -3t-2.5 -2h141q6 10 33.5 59t39.5 71q4 7 4.5 11t-1.5 4q-1 0 -4.5 -2.5t-10.5 -6.5q-7 -5 -21.5 -14.5t-50.5 -33.5z" />
    <glyph glyph-name="questiondown" unicode="&#xbf;" horiz-adv-x="551" 
d="M386 504q4 3 12.5 4.5t20.5 1.5q16 0 23.5 -1.5t11.5 -5.5q7 -13 -1.5 -40t-23.5 -36q-5 -2 -15.5 -4t-21.5 -2q-10 0 -20.5 3t-12.5 6q-4 19 5 42t22 32zM323 334q2 1 6.5 2t9.5 1q9 0 17 -2t10 -4q13 -12 22 -32t12 -41q1 -19 -4 -39t-17 -41q-19 -32 -63 -60.5
t-160 -73.5q-129 -50 -177.5 -83.5t-66.5 -73.5q-20 -44 -10 -88.5t48 -75.5q30 -25 74 -38t98 -13q83 0 141.5 31.5t72.5 84.5q11 52 -16.5 87t-80.5 35q-20 0 -49 -8.5t-51 -20.5l-5 6q57 29 89 38.5t61 9.5q58 0 88 -38.5t16 -94.5q-19 -62 -94 -99.5t-173 -36.5
q-64 0 -116 14t-88 40q-48 35 -61.5 85t10.5 104q18 41 68 76t184 86q111 42 151 67t56 53q8 14 11.5 28t2.5 28q-2 17 -11.5 32t-23.5 21q-28 -12 -64 -35t-73 -51l-5 6q52 41 88 66t73 48z" />
    <glyph glyph-name="Agrave" unicode="&#xc0;" horiz-adv-x="1349" 
d="M32 0zM561 176q-134 -150 -196.5 -195t-132.5 -45q-52 0 -95.5 24.5t-71.5 68.5q-29 45 -32.5 96.5t20.5 90.5q22 37 62 72.5t89 62.5q45 23 93.5 35.5t95.5 12.5q26 0 70 -0.5t260 -3.5q30 36 67.5 81.5t112.5 137.5q68 83 98 119.5t52 62.5q-63 0 -97 -1t-60 -3
q-29 -2 -62 -5.5t-87 -9.5q-35 -4 -47 -5t-17 -1q-4 0 -1.5 5.5t37.5 43.5q5 2 30.5 3t130.5 1h182q68 0 138 0.5t170 3.5q35 1 47.5 1h20.5q12 0 19 -0.5t12 -2.5q0 -10 -9.5 -23.5t-21.5 -20.5q-7 -2 -30 -1t-96 5q-83 5 -125.5 7t-74.5 2q-22 -138 -37.5 -234t-26.5 -171
q83 -1 132 -1.5t64 -0.5q25 0 57.5 -0.5t48.5 -1.5q3 0 4 -1t1 -3t-2 -4.5t-5 -5.5q-9 -9 -22 -16.5t-21 -8.5q-14 -2 -41.5 -2h-28.5q-33 0 -80.5 1t-112.5 4q-7 -47 -12 -80.5t-8 -59.5q-5 -37 -5 -69.5t6 -62.5q2 -13 15 -24.5t28 -15.5q22 8 81 53t87 73l6 -7
q-42 -40 -100 -86.5t-94 -68.5q-5 -3 -16 -3t-16 3q-17 10 -28.5 29t-14.5 40q-6 36 -5 64t7 70q9 59 14.5 96t7.5 51q-59 3 -129 6.5t-147 7.5q-29 -35 -89 -108t-69 -82zM1069 793l-329 -398q40 -1 87.5 -1.5t173.5 -2.5q16 98 34.5 208.5t33.5 193.5zM209 345
q-34 -19 -60 -49.5t-45 -74.5q-18 -42 -13 -88t31 -85t66 -60.5t88 -21.5q43 0 73 17.5t75 62.5q23 23 52 54.5t66 74.5q9 10 22 26t48 58q34 42 53 65t36 43q-147 7 -224.5 10t-120.5 3q-41 0 -79 -9t-68 -26zM1150 882q-1 0 -1.5 0.5l-1.5 1.5q-16 20 -38 42t-59 55
q-13 12 -17.5 16t-6.5 6q-5 4 -8.5 12.5t-2.5 14.5t8 12t14 6q5 0 10 -3.5t13 -12.5q2 -2 5 -7t12 -21q25 -44 42 -70t33 -45l1.5 -1.5t0.5 -1.5q0 -2 -1 -3t-3 -1z" />
    <glyph glyph-name="Aacute" unicode="&#xc1;" horiz-adv-x="1349" 
d="M32 0zM561 176q-134 -150 -196.5 -195t-132.5 -45q-52 0 -95.5 24.5t-71.5 68.5q-29 45 -32.5 96.5t20.5 90.5q22 37 62 72.5t89 62.5q45 23 93.5 35.5t95.5 12.5q26 0 70 -0.5t260 -3.5q30 36 67.5 81.5t112.5 137.5q68 83 98 119.5t52 62.5q-63 0 -97 -1t-60 -3
q-29 -2 -62 -5.5t-87 -9.5q-35 -4 -47 -5t-17 -1q-4 0 -1.5 5.5t37.5 43.5q5 2 30.5 3t130.5 1h182q68 0 138 0.5t170 3.5q35 1 47.5 1h20.5q12 0 19 -0.5t12 -2.5q0 -10 -9.5 -23.5t-21.5 -20.5q-7 -2 -30 -1t-96 5q-83 5 -125.5 7t-74.5 2q-22 -138 -37.5 -234t-26.5 -171
q83 -1 132 -1.5t64 -0.5q25 0 57.5 -0.5t48.5 -1.5q3 0 4 -1t1 -3t-2 -4.5t-5 -5.5q-9 -9 -22 -16.5t-21 -8.5q-14 -2 -41.5 -2h-28.5q-33 0 -80.5 1t-112.5 4q-7 -47 -12 -80.5t-8 -59.5q-5 -37 -5 -69.5t6 -62.5q2 -13 15 -24.5t28 -15.5q22 8 81 53t87 73l6 -7
q-42 -40 -100 -86.5t-94 -68.5q-5 -3 -16 -3t-16 3q-17 10 -28.5 29t-14.5 40q-6 36 -5 64t7 70q9 59 14.5 96t7.5 51q-59 3 -129 6.5t-147 7.5q-29 -35 -89 -108t-69 -82zM1069 793l-329 -398q40 -1 87.5 -1.5t173.5 -2.5q16 98 34.5 208.5t33.5 193.5zM209 345
q-34 -19 -60 -49.5t-45 -74.5q-18 -42 -13 -88t31 -85t66 -60.5t88 -21.5q43 0 73 17.5t75 62.5q23 23 52 54.5t66 74.5q9 10 22 26t48 58q34 42 53 65t36 43q-147 7 -224.5 10t-120.5 3q-41 0 -79 -9t-68 -26zM1210 1038q6 5 12 7.5t12 2.5q7 0 13.5 -7.5t5.5 -13.5
q0 -5 -3 -11.5t-8 -10.5q-2 -2 -7.5 -5.5t-20.5 -13.5q-52 -33 -85 -57t-61 -47q-1 -1 -1.5 -1h-1.5q-2 0 -3.5 1.5t-1.5 3.5q0 1 1.5 2l1.5 1q29 24 60 54.5t71 77.5q9 10 12 13z" />
    <glyph glyph-name="Acircumflex" unicode="&#xc2;" horiz-adv-x="1349" 
d="M32 0zM561 176q-134 -150 -196.5 -195t-132.5 -45q-52 0 -95.5 24.5t-71.5 68.5q-29 45 -32.5 96.5t20.5 90.5q22 37 62 72.5t89 62.5q45 23 93.5 35.5t95.5 12.5q26 0 70 -0.5t260 -3.5q30 36 67.5 81.5t112.5 137.5q68 83 98 119.5t52 62.5q-63 0 -97 -1t-60 -3
q-29 -2 -62 -5.5t-87 -9.5q-35 -4 -47 -5t-17 -1q-4 0 -1.5 5.5t37.5 43.5q5 2 30.5 3t130.5 1h182q68 0 138 0.5t170 3.5q35 1 47.5 1h20.5q12 0 19 -0.5t12 -2.5q0 -10 -9.5 -23.5t-21.5 -20.5q-7 -2 -30 -1t-96 5q-83 5 -125.5 7t-74.5 2q-22 -138 -37.5 -234t-26.5 -171
q83 -1 132 -1.5t64 -0.5q25 0 57.5 -0.5t48.5 -1.5q3 0 4 -1t1 -3t-2 -4.5t-5 -5.5q-9 -9 -22 -16.5t-21 -8.5q-14 -2 -41.5 -2h-28.5q-33 0 -80.5 1t-112.5 4q-7 -47 -12 -80.5t-8 -59.5q-5 -37 -5 -69.5t6 -62.5q2 -13 15 -24.5t28 -15.5q22 8 81 53t87 73l6 -7
q-42 -40 -100 -86.5t-94 -68.5q-5 -3 -16 -3t-16 3q-17 10 -28.5 29t-14.5 40q-6 36 -5 64t7 70q9 59 14.5 96t7.5 51q-59 3 -129 6.5t-147 7.5q-29 -35 -89 -108t-69 -82zM1069 793l-329 -398q40 -1 87.5 -1.5t173.5 -2.5q16 98 34.5 208.5t33.5 193.5zM209 345
q-34 -19 -60 -49.5t-45 -74.5q-18 -42 -13 -88t31 -85t66 -60.5t88 -21.5q43 0 73 17.5t75 62.5q23 23 52 54.5t66 74.5q9 10 22 26t48 58q34 42 53 65t36 43q-147 7 -224.5 10t-120.5 3q-41 0 -79 -9t-68 -26zM1267 887q0 -7 -6 -11.5t-15 -4.5q-17 0 -25 6t-8 20
q0 39 -6 70t-17 53q-1 3 -2.5 3.5t-4.5 -1.5q-38 -20 -66 -43t-56 -57q-9 -11 -20.5 -16.5t-27.5 -5.5q-10 0 -15 3t-6 10q1 19 58 52.5t133 62.5q5 2 7.5 1t5.5 -5q30 -36 50.5 -77t20.5 -60z" />
    <glyph glyph-name="Atilde" unicode="&#xc3;" horiz-adv-x="1349" 
d="M32 0zM561 176q-134 -150 -196.5 -195t-132.5 -45q-52 0 -95.5 24.5t-71.5 68.5q-29 45 -32.5 96.5t20.5 90.5q22 37 62 72.5t89 62.5q45 23 93.5 35.5t95.5 12.5q26 0 70 -0.5t260 -3.5q30 36 67.5 81.5t112.5 137.5q68 83 98 119.5t52 62.5q-63 0 -97 -1t-60 -3
q-29 -2 -62 -5.5t-87 -9.5q-35 -4 -47 -5t-17 -1q-4 0 -1.5 5.5t37.5 43.5q5 2 30.5 3t130.5 1h182q68 0 138 0.5t170 3.5q35 1 47.5 1h20.5q12 0 19 -0.5t12 -2.5q0 -10 -9.5 -23.5t-21.5 -20.5q-7 -2 -30 -1t-96 5q-83 5 -125.5 7t-74.5 2q-22 -138 -37.5 -234t-26.5 -171
q83 -1 132 -1.5t64 -0.5q25 0 57.5 -0.5t48.5 -1.5q3 0 4 -1t1 -3t-2 -4.5t-5 -5.5q-9 -9 -22 -16.5t-21 -8.5q-14 -2 -41.5 -2h-28.5q-33 0 -80.5 1t-112.5 4q-7 -47 -12 -80.5t-8 -59.5q-5 -37 -5 -69.5t6 -62.5q2 -13 15 -24.5t28 -15.5q22 8 81 53t87 73l6 -7
q-42 -40 -100 -86.5t-94 -68.5q-5 -3 -16 -3t-16 3q-17 10 -28.5 29t-14.5 40q-6 36 -5 64t7 70q9 59 14.5 96t7.5 51q-59 3 -129 6.5t-147 7.5q-29 -35 -89 -108t-69 -82zM1069 793l-329 -398q40 -1 87.5 -1.5t173.5 -2.5q16 98 34.5 208.5t33.5 193.5zM209 345
q-34 -19 -60 -49.5t-45 -74.5q-18 -42 -13 -88t31 -85t66 -60.5t88 -21.5q43 0 73 17.5t75 62.5q23 23 52 54.5t66 74.5q9 10 22 26t48 58q34 42 53 65t36 43q-147 7 -224.5 10t-120.5 3q-41 0 -79 -9t-68 -26zM973 907q-2 -3 -6 -1t0 6q29 42 55.5 62.5t52.5 20.5
q12 0 27.5 -3t48.5 -11q31 -9 45.5 -11.5t25.5 -2.5q19 0 32 15t27 53q2 5 6.5 3.5t2.5 -6.5q-18 -47 -46.5 -77t-54.5 -30q-14 0 -31 3t-52 13q-31 8 -45 10.5t-24 2.5q-18 0 -32.5 -10.5t-31.5 -36.5z" />
    <glyph glyph-name="Adieresis" unicode="&#xc4;" horiz-adv-x="1349" 
d="M32 0zM561 176q-134 -150 -196.5 -195t-132.5 -45q-52 0 -95.5 24.5t-71.5 68.5q-29 45 -32.5 96.5t20.5 90.5q22 37 62 72.5t89 62.5q45 23 93.5 35.5t95.5 12.5q26 0 70 -0.5t260 -3.5q30 36 67.5 81.5t112.5 137.5q68 83 98 119.5t52 62.5q-63 0 -97 -1t-60 -3
q-29 -2 -62 -5.5t-87 -9.5q-35 -4 -47 -5t-17 -1q-4 0 -1.5 5.5t37.5 43.5q5 2 30.5 3t130.5 1h182q68 0 138 0.5t170 3.5q35 1 47.5 1h20.5q12 0 19 -0.5t12 -2.5q0 -10 -9.5 -23.5t-21.5 -20.5q-7 -2 -30 -1t-96 5q-83 5 -125.5 7t-74.5 2q-22 -138 -37.5 -234t-26.5 -171
q83 -1 132 -1.5t64 -0.5q25 0 57.5 -0.5t48.5 -1.5q3 0 4 -1t1 -3t-2 -4.5t-5 -5.5q-9 -9 -22 -16.5t-21 -8.5q-14 -2 -41.5 -2h-28.5q-33 0 -80.5 1t-112.5 4q-7 -47 -12 -80.5t-8 -59.5q-5 -37 -5 -69.5t6 -62.5q2 -13 15 -24.5t28 -15.5q22 8 81 53t87 73l6 -7
q-42 -40 -100 -86.5t-94 -68.5q-5 -3 -16 -3t-16 3q-17 10 -28.5 29t-14.5 40q-6 36 -5 64t7 70q9 59 14.5 96t7.5 51q-59 3 -129 6.5t-147 7.5q-29 -35 -89 -108t-69 -82zM1069 793l-329 -398q40 -1 87.5 -1.5t173.5 -2.5q16 98 34.5 208.5t33.5 193.5zM209 345
q-34 -19 -60 -49.5t-45 -74.5q-18 -42 -13 -88t31 -85t66 -60.5t88 -21.5q43 0 73 17.5t75 62.5q23 23 52 54.5t66 74.5q9 10 22 26t48 58q34 42 53 65t36 43q-147 7 -224.5 10t-120.5 3q-41 0 -79 -9t-68 -26zM1229 934q-11 0 -15.5 1t-8.5 5q-6 10 7.5 39t26.5 36
q4 2 13 3t21 1q10 0 19.5 -2t11.5 -5q2 -15 -16 -40t-33 -34q-5 -2 -11.5 -3t-14.5 -1zM1034 934q-11 0 -15 1t-8 5q-6 10 7.5 39t26.5 36q3 2 12 3t21 1q10 0 20 -2t12 -5q1 -16 -17.5 -41.5t-32.5 -32.5q-4 -2 -10.5 -3t-15.5 -1z" />
    <glyph glyph-name="Aring" unicode="&#xc5;" horiz-adv-x="1349" 
d="M32 0zM561 176q-134 -150 -196.5 -195t-132.5 -45q-52 0 -95.5 24.5t-71.5 68.5q-29 45 -32.5 96.5t20.5 90.5q22 37 62 72.5t89 62.5q45 23 93.5 35.5t95.5 12.5q26 0 70 -0.5t260 -3.5q30 36 67.5 81.5t112.5 137.5q68 83 98 119.5t52 62.5q-63 0 -97 -1t-60 -3
q-29 -2 -62 -5.5t-87 -9.5q-35 -4 -47 -5t-17 -1q-4 0 -1.5 5.5t37.5 43.5q5 2 30.5 3t130.5 1h182q68 0 138 0.5t170 3.5q35 1 47.5 1h20.5q12 0 19 -0.5t12 -2.5q0 -10 -9.5 -23.5t-21.5 -20.5q-7 -2 -30 -1t-96 5q-83 5 -125.5 7t-74.5 2q-22 -138 -37.5 -234t-26.5 -171
q83 -1 132 -1.5t64 -0.5q25 0 57.5 -0.5t48.5 -1.5q3 0 4 -1t1 -3t-2 -4.5t-5 -5.5q-9 -9 -22 -16.5t-21 -8.5q-14 -2 -41.5 -2h-28.5q-33 0 -80.5 1t-112.5 4q-7 -47 -12 -80.5t-8 -59.5q-5 -37 -5 -69.5t6 -62.5q2 -13 15 -24.5t28 -15.5q22 8 81 53t87 73l6 -7
q-42 -40 -100 -86.5t-94 -68.5q-5 -3 -16 -3t-16 3q-17 10 -28.5 29t-14.5 40q-6 36 -5 64t7 70q9 59 14.5 96t7.5 51q-59 3 -129 6.5t-147 7.5q-29 -35 -89 -108t-69 -82zM1069 793l-329 -398q40 -1 87.5 -1.5t173.5 -2.5q16 98 34.5 208.5t33.5 193.5zM209 345
q-34 -19 -60 -49.5t-45 -74.5q-18 -42 -13 -88t31 -85t66 -60.5t88 -21.5q43 0 73 17.5t75 62.5q23 23 52 54.5t66 74.5q9 10 22 26t48 58q34 42 53 65t36 43q-147 7 -224.5 10t-120.5 3q-41 0 -79 -9t-68 -26zM1136 881q-39 0 -65.5 26.5t-26.5 64.5q0 39 27 66t65 27
q39 0 66 -27t27 -66q0 -37 -27.5 -64t-65.5 -27zM1136 1054q-33 0 -56 -24t-23 -58q0 -33 23 -56t56 -23q34 0 57 23t23 56q0 34 -23 58t-57 24z" />
    <glyph glyph-name="AE" unicode="&#xc6;" horiz-adv-x="1618" 
d="M1530 785q-35 1 -112.5 4t-111.5 4q-12 -54 -44.5 -185t-44.5 -173q83 -1 131 -1.5t60 -0.5h24.5t42.5 -1h26.5h11.5q3 0 4.5 -1t1.5 -3t-2.5 -5.5t-7.5 -8.5q-12 -10 -22.5 -15.5t-17.5 -6.5q-10 -1 -22 -1h-47q-18 0 -43 0.5t-152 3.5q-44 -133 -111 -229t-140 -129
q10 -1 27 -1h63q56 0 128 2.5t131 6.5q25 2 53 4.5t77 6.5q40 4 53 5t19 1q1 0 2 -0.5t1 -1.5q0 -7 -18.5 -27t-27.5 -24q-4 -2 -46.5 -3t-115.5 -1h-20t-44 1h-43h-20q-73 0 -161.5 -1.5t-215.5 -5.5q-26 -1 -34 -1h-11q-16 0 -26 3t-14 9q-1 11 12.5 26.5t29.5 23.5
q45 -8 81.5 -12.5t60.5 -4.5t46.5 6t42.5 17q51 29 91 102.5t84 228.5q-17 1 -37.5 1.5t-63.5 2.5q-66 3 -99.5 4t-62.5 2q-59 -61 -126 -125.5t-102 -94.5q-144 -134 -242 -192.5t-183 -58.5q-56 0 -102.5 27t-75.5 76q-28 49 -32.5 105t17.5 100q40 80 148.5 140.5
t223.5 60.5q41 0 134.5 -1t353.5 -5q26 26 83.5 85.5t87.5 90.5q54 56 94 99.5t73 80.5h-15h-15q-11 0 -34 0.5t-58 0.5q-26 -1 -49 -1.5t-44 -2.5q-29 -2 -62 -5.5t-87 -9.5q-35 -4 -47 -5t-17 -1q-4 0 -1.5 5.5t37.5 43.5q5 2 30.5 3t130.5 1h175q84 0 187.5 0.5
t273.5 3.5q56 1 75 1h28q12 0 19 -0.5t12 -2.5q0 -10 -9.5 -23.5t-21.5 -20.5q-8 -2 -61 -1.5t-165 4.5zM1061 437q46 -1 68.5 -1.5t40.5 -0.5q12 43 48 175t49 184h-1q-38 -43 -144 -152.5t-199 -202.5q24 0 53 -0.5t85 -1.5zM385 425q-101 0 -175 -46.5t-105 -129.5
q-16 -45 -10.5 -94.5t29.5 -92.5q27 -46 68 -71.5t90 -25.5q73 0 159 52t216 173q47 43 111.5 105t115.5 113q-219 8 -343.5 12.5t-155.5 4.5z" />
    <glyph glyph-name="Ccedilla" unicode="&#xc7;" horiz-adv-x="775" 
d="M705 121q-77 -98 -171 -155t-183 -57h-3.5h-3.5q-6 -6 -32.5 -33.5t-42.5 -44.5q-1 -2 -0.5 -2.5t4.5 -0.5q56 2 87 -20t26 -60q-5 -42 -47.5 -71.5t-96.5 -29.5q-26 0 -43.5 8t-17.5 20q0 10 14 17.5t29 7.5q7 0 13 -3t15 -12q10 -11 17.5 -14.5t17.5 -3.5q25 0 47 16.5
t24 39.5q3 34 -30 53.5t-88 13.5q-5 -1 -9 -3.5t-9 -8.5q-4 -6 -6.5 -7.5t-5.5 -1.5q-8 0 -7 5t10 14q52 52 77.5 78t41.5 44q-105 5 -173.5 67t-87.5 165q-15 86 9 180.5t82 180.5q96 141 244 232t297 91q68 0 131.5 -21t119.5 -62q2 -2 2.5 -3t0.5 -2q0 -6 -16.5 -18
t-25.5 -12q-3 0 -6.5 1t-6.5 3q-6 3 -48.5 27t-77.5 37q-34 13 -68.5 19t-71.5 6q-113 0 -226.5 -76.5t-195.5 -203.5q-54 -84 -75.5 -177t-6.5 -176q19 -103 86.5 -161.5t170.5 -58.5q80 0 164.5 49.5t144.5 128.5q3 3 6.5 1.5t0.5 -6.5z" />
    <glyph glyph-name="Egrave" unicode="&#xc8;" horiz-adv-x="1066" 
d="M57 0zM142 -1q-26 -1 -34 -1h-11q-16 0 -26.5 3t-13.5 9q-2 11 11.5 26.5t29.5 23.5q5 1 19.5 -0.5t56.5 -8.5q60 -10 90 -13.5t50 -3.5q23 0 41.5 4.5t32.5 13.5q34 20 62.5 60.5t58.5 111.5q15 34 40.5 102.5t36.5 97.5q-91 7 -145.5 9.5t-98.5 3.5q-4 0 -6.5 1t-2.5 3
t2.5 3t8.5 1h125.5h125.5q57 142 115.5 220.5t127.5 110.5q-60 14 -110 21t-91 7q-55 0 -104.5 -10.5t-92.5 -30.5q-74 -36 -134.5 -108t-102.5 -172q-10 -24 -22 -34t-29 -10q-20 0 -23.5 12t10.5 36q54 95 130 167t168 116q60 28 128 43t140 15q64 0 145 -13t186 -40
q80 -21 125.5 -36t47.5 -22t-9.5 -21t-20.5 -15q-3 1 -13.5 4l-45.5 13q-47 14 -75.5 22.5t-53.5 15.5q-46 13 -80 22t-65 17q-43 -22 -86.5 -92t-110.5 -238q53 1 111.5 1h141.5q39 0 66 -1t38 -3q10 -2 -6.5 -21.5t-30.5 -22.5q-12 -2 -26 -2.5t-56 1.5q-12 1 -31.5 2.5
t-71.5 6.5q-55 5 -86.5 8t-59.5 5q-78 -191 -133.5 -268.5t-126.5 -112.5q9 -1 22.5 -1.5t47.5 -0.5q63 0 137.5 2.5t129.5 6.5q24 2 51.5 4t76.5 7q43 4 58 5t21 1q2 0 2.5 -1t0.5 -2q-3 -9 -20 -28t-27 -22q-3 -2 -47 -3t-119 -1h-25t-65 1h-66h-25q-74 0 -165.5 -1.5
t-223.5 -5.5zM1005 864q-1 0 -1.5 0.5l-1.5 1.5q-16 20 -38 42t-59 55q-13 12 -17.5 16t-6.5 6q-5 4 -8.5 12.5t-2.5 14.5t8 12t14 6q5 0 10 -3.5t13 -12.5q2 -2 5 -7t12 -21q25 -44 42 -70t33 -45l1.5 -1.5t0.5 -1.5q0 -2 -1 -3t-3 -1z" />
    <glyph glyph-name="Eacute" unicode="&#xc9;" horiz-adv-x="1066" 
d="M57 0zM142 -1q-26 -1 -34 -1h-11q-16 0 -26.5 3t-13.5 9q-2 11 11.5 26.5t29.5 23.5q5 1 19.5 -0.5t56.5 -8.5q60 -10 90 -13.5t50 -3.5q23 0 41.5 4.5t32.5 13.5q34 20 62.5 60.5t58.5 111.5q15 34 40.5 102.5t36.5 97.5q-91 7 -145.5 9.5t-98.5 3.5q-4 0 -6.5 1t-2.5 3
t2.5 3t8.5 1h125.5h125.5q57 142 115.5 220.5t127.5 110.5q-60 14 -110 21t-91 7q-55 0 -104.5 -10.5t-92.5 -30.5q-74 -36 -134.5 -108t-102.5 -172q-10 -24 -22 -34t-29 -10q-20 0 -23.5 12t10.5 36q54 95 130 167t168 116q60 28 128 43t140 15q64 0 145 -13t186 -40
q80 -21 125.5 -36t47.5 -22t-9.5 -21t-20.5 -15q-3 1 -13.5 4l-45.5 13q-47 14 -75.5 22.5t-53.5 15.5q-46 13 -80 22t-65 17q-43 -22 -86.5 -92t-110.5 -238q53 1 111.5 1h141.5q39 0 66 -1t38 -3q10 -2 -6.5 -21.5t-30.5 -22.5q-12 -2 -26 -2.5t-56 1.5q-12 1 -31.5 2.5
t-71.5 6.5q-55 5 -86.5 8t-59.5 5q-78 -191 -133.5 -268.5t-126.5 -112.5q9 -1 22.5 -1.5t47.5 -0.5q63 0 137.5 2.5t129.5 6.5q24 2 51.5 4t76.5 7q43 4 58 5t21 1q2 0 2.5 -1t0.5 -2q-3 -9 -20 -28t-27 -22q-3 -2 -47 -3t-119 -1h-25t-65 1h-66h-25q-74 0 -165.5 -1.5
t-223.5 -5.5zM1065 1020q6 5 12 7.5t12 2.5q7 0 13.5 -7.5t5.5 -13.5q0 -5 -3 -11.5t-8 -10.5q-2 -2 -7.5 -5.5t-20.5 -13.5q-52 -33 -85 -57t-61 -47q-1 -1 -1.5 -1h-1.5q-2 0 -3.5 1.5t-1.5 3.5q0 1 1.5 2l1.5 1q29 24 60 54.5t71 77.5q9 10 12 13z" />
    <glyph glyph-name="Ecircumflex" unicode="&#xca;" horiz-adv-x="1066" 
d="M57 0zM142 -1q-26 -1 -34 -1h-11q-16 0 -26.5 3t-13.5 9q-2 11 11.5 26.5t29.5 23.5q5 1 19.5 -0.5t56.5 -8.5q60 -10 90 -13.5t50 -3.5q23 0 41.5 4.5t32.5 13.5q34 20 62.5 60.5t58.5 111.5q15 34 40.5 102.5t36.5 97.5q-91 7 -145.5 9.5t-98.5 3.5q-4 0 -6.5 1t-2.5 3
t2.5 3t8.5 1h125.5h125.5q57 142 115.5 220.5t127.5 110.5q-60 14 -110 21t-91 7q-55 0 -104.5 -10.5t-92.5 -30.5q-74 -36 -134.5 -108t-102.5 -172q-10 -24 -22 -34t-29 -10q-20 0 -23.5 12t10.5 36q54 95 130 167t168 116q60 28 128 43t140 15q64 0 145 -13t186 -40
q80 -21 125.5 -36t47.5 -22t-9.5 -21t-20.5 -15q-3 1 -13.5 4l-45.5 13q-47 14 -75.5 22.5t-53.5 15.5q-46 13 -80 22t-65 17q-43 -22 -86.5 -92t-110.5 -238q53 1 111.5 1h141.5q39 0 66 -1t38 -3q10 -2 -6.5 -21.5t-30.5 -22.5q-12 -2 -26 -2.5t-56 1.5q-12 1 -31.5 2.5
t-71.5 6.5q-55 5 -86.5 8t-59.5 5q-78 -191 -133.5 -268.5t-126.5 -112.5q9 -1 22.5 -1.5t47.5 -0.5q63 0 137.5 2.5t129.5 6.5q24 2 51.5 4t76.5 7q43 4 58 5t21 1q2 0 2.5 -1t0.5 -2q-3 -9 -20 -28t-27 -22q-3 -2 -47 -3t-119 -1h-25t-65 1h-66h-25q-74 0 -165.5 -1.5
t-223.5 -5.5zM1122 869q0 -7 -6 -11.5t-15 -4.5q-17 0 -25 6t-8 20q0 39 -6 70t-17 53q-1 3 -2.5 3.5t-4.5 -1.5q-38 -20 -66 -43t-56 -57q-9 -11 -20.5 -16.5t-27.5 -5.5q-10 0 -15 3t-6 10q1 19 58 52.5t133 62.5q5 2 7.5 1t5.5 -5q30 -36 50.5 -77t20.5 -60z" />
    <glyph glyph-name="Edieresis" unicode="&#xcb;" horiz-adv-x="1066" 
d="M57 0zM142 -1q-26 -1 -34 -1h-11q-16 0 -26.5 3t-13.5 9q-2 11 11.5 26.5t29.5 23.5q5 1 19.5 -0.5t56.5 -8.5q60 -10 90 -13.5t50 -3.5q23 0 41.5 4.5t32.5 13.5q34 20 62.5 60.5t58.5 111.5q15 34 40.5 102.5t36.5 97.5q-91 7 -145.5 9.5t-98.5 3.5q-4 0 -6.5 1t-2.5 3
t2.5 3t8.5 1h125.5h125.5q57 142 115.5 220.5t127.5 110.5q-60 14 -110 21t-91 7q-55 0 -104.5 -10.5t-92.5 -30.5q-74 -36 -134.5 -108t-102.5 -172q-10 -24 -22 -34t-29 -10q-20 0 -23.5 12t10.5 36q54 95 130 167t168 116q60 28 128 43t140 15q64 0 145 -13t186 -40
q80 -21 125.5 -36t47.5 -22t-9.5 -21t-20.5 -15q-3 1 -13.5 4l-45.5 13q-47 14 -75.5 22.5t-53.5 15.5q-46 13 -80 22t-65 17q-43 -22 -86.5 -92t-110.5 -238q53 1 111.5 1h141.5q39 0 66 -1t38 -3q10 -2 -6.5 -21.5t-30.5 -22.5q-12 -2 -26 -2.5t-56 1.5q-12 1 -31.5 2.5
t-71.5 6.5q-55 5 -86.5 8t-59.5 5q-78 -191 -133.5 -268.5t-126.5 -112.5q9 -1 22.5 -1.5t47.5 -0.5q63 0 137.5 2.5t129.5 6.5q24 2 51.5 4t76.5 7q43 4 58 5t21 1q2 0 2.5 -1t0.5 -2q-3 -9 -20 -28t-27 -22q-3 -2 -47 -3t-119 -1h-25t-65 1h-66h-25q-74 0 -165.5 -1.5
t-223.5 -5.5zM1084 916q-11 0 -15.5 1t-8.5 5q-6 10 7.5 39t26.5 36q4 2 13 3t21 1q10 0 19.5 -2t11.5 -5q2 -15 -16 -40t-33 -34q-5 -2 -11.5 -3t-14.5 -1zM889 916q-11 0 -15 1t-8 5q-6 10 7.5 39t26.5 36q3 2 12 3t21 1q10 0 20 -2t12 -5q1 -16 -17.5 -41.5t-32.5 -32.5
q-4 -2 -10.5 -3t-15.5 -1z" />
    <glyph glyph-name="Igrave" unicode="&#xcc;" horiz-adv-x="732" 
d="M0 0zM55 -1q-22 -1 -29 -1h-10q-15 0 -27.5 3t-15.5 8q0 8 14.5 21.5t25.5 15.5q5 1 16.5 0t43.5 -6q44 -6 67.5 -8.5t42.5 -2.5q30 0 53 6.5t43 20.5q29 21 55 60t56 110q11 24 37 88t43 103q42 95 63.5 138.5t41.5 76.5q40 66 81.5 105.5t88.5 56.5h-7h-13q-9 1 -14 1
h-9q-36 0 -84.5 -4t-136.5 -15q-40 -5 -53.5 -6.5t-19.5 -1.5q-15 0 4.5 22t34.5 27q4 1 54 1.5t147 0.5q33 0 89 1t165 4q40 1 52 1.5t16 0.5q20 0 34 -3t17 -8q1 -6 -10 -17.5t-25 -19.5q-6 -2 -19.5 -1t-49.5 6q-42 6 -65 8t-42 2q-23 0 -44.5 -4t-38.5 -11
q-33 -15 -62 -54.5t-60 -115.5q-12 -27 -37.5 -94.5t-41.5 -104.5q-68 -157 -135.5 -250t-138.5 -128q6 -1 12.5 -1.5t13.5 -0.5q22 0 59 2.5t122 11.5q77 8 107 10t46 2q9 0 6 -12t-15 -24q-8 -8 -18 -12.5t-21 -4.5l-148 3q-74 1 -159.5 -0.5t-201.5 -5.5zM778 882
q-1 0 -1.5 0.5l-1.5 1.5q-16 20 -38 42t-59 55q-13 12 -17.5 16t-6.5 6q-5 4 -8.5 12.5t-2.5 14.5t8 12t14 6q5 0 10 -3.5t13 -12.5q2 -2 5 -7t12 -21q25 -44 42 -70t33 -45l1.5 -1.5t0.5 -1.5q0 -2 -1 -3t-3 -1z" />
    <glyph glyph-name="Iacute" unicode="&#xcd;" horiz-adv-x="732" 
d="M0 0zM55 -1q-22 -1 -29 -1h-10q-15 0 -27.5 3t-15.5 8q0 8 14.5 21.5t25.5 15.5q5 1 16.5 0t43.5 -6q44 -6 67.5 -8.5t42.5 -2.5q30 0 53 6.5t43 20.5q29 21 55 60t56 110q11 24 37 88t43 103q42 95 63.5 138.5t41.5 76.5q40 66 81.5 105.5t88.5 56.5h-7h-13q-9 1 -14 1
h-9q-36 0 -84.5 -4t-136.5 -15q-40 -5 -53.5 -6.5t-19.5 -1.5q-15 0 4.5 22t34.5 27q4 1 54 1.5t147 0.5q33 0 89 1t165 4q40 1 52 1.5t16 0.5q20 0 34 -3t17 -8q1 -6 -10 -17.5t-25 -19.5q-6 -2 -19.5 -1t-49.5 6q-42 6 -65 8t-42 2q-23 0 -44.5 -4t-38.5 -11
q-33 -15 -62 -54.5t-60 -115.5q-12 -27 -37.5 -94.5t-41.5 -104.5q-68 -157 -135.5 -250t-138.5 -128q6 -1 12.5 -1.5t13.5 -0.5q22 0 59 2.5t122 11.5q77 8 107 10t46 2q9 0 6 -12t-15 -24q-8 -8 -18 -12.5t-21 -4.5l-148 3q-74 1 -159.5 -0.5t-201.5 -5.5zM838 1038
q6 5 12 7.5t12 2.5q7 0 13.5 -7.5t5.5 -13.5q0 -5 -3 -11.5t-8 -10.5q-2 -2 -7.5 -5.5t-20.5 -13.5q-52 -33 -85 -57t-61 -47q-1 -1 -1.5 -1h-1.5q-2 0 -3.5 1.5t-1.5 3.5q0 1 1.5 2l1.5 1q29 24 60 54.5t71 77.5q9 10 12 13z" />
    <glyph glyph-name="Icircumflex" unicode="&#xce;" horiz-adv-x="732" 
d="M0 0zM55 -1q-22 -1 -29 -1h-10q-15 0 -27.5 3t-15.5 8q0 8 14.5 21.5t25.5 15.5q5 1 16.5 0t43.5 -6q44 -6 67.5 -8.5t42.5 -2.5q30 0 53 6.5t43 20.5q29 21 55 60t56 110q11 24 37 88t43 103q42 95 63.5 138.5t41.5 76.5q40 66 81.5 105.5t88.5 56.5h-7h-13q-9 1 -14 1
h-9q-36 0 -84.5 -4t-136.5 -15q-40 -5 -53.5 -6.5t-19.5 -1.5q-15 0 4.5 22t34.5 27q4 1 54 1.5t147 0.5q33 0 89 1t165 4q40 1 52 1.5t16 0.5q20 0 34 -3t17 -8q1 -6 -10 -17.5t-25 -19.5q-6 -2 -19.5 -1t-49.5 6q-42 6 -65 8t-42 2q-23 0 -44.5 -4t-38.5 -11
q-33 -15 -62 -54.5t-60 -115.5q-12 -27 -37.5 -94.5t-41.5 -104.5q-68 -157 -135.5 -250t-138.5 -128q6 -1 12.5 -1.5t13.5 -0.5q22 0 59 2.5t122 11.5q77 8 107 10t46 2q9 0 6 -12t-15 -24q-8 -8 -18 -12.5t-21 -4.5l-148 3q-74 1 -159.5 -0.5t-201.5 -5.5zM895 887
q0 -7 -6 -11.5t-15 -4.5q-17 0 -25 6t-8 20q0 39 -6 70t-17 53q-1 3 -2.5 3.5t-4.5 -1.5q-38 -20 -66 -43t-56 -57q-9 -11 -20.5 -16.5t-27.5 -5.5q-10 0 -15 3t-6 10q1 19 58 52.5t133 62.5q5 2 7.5 1t5.5 -5q30 -36 50.5 -77t20.5 -60z" />
    <glyph glyph-name="Idieresis" unicode="&#xcf;" horiz-adv-x="732" 
d="M0 0zM55 -1q-22 -1 -29 -1h-10q-15 0 -27.5 3t-15.5 8q0 8 14.5 21.5t25.5 15.5q5 1 16.5 0t43.5 -6q44 -6 67.5 -8.5t42.5 -2.5q30 0 53 6.5t43 20.5q29 21 55 60t56 110q11 24 37 88t43 103q42 95 63.5 138.5t41.5 76.5q40 66 81.5 105.5t88.5 56.5h-7h-13q-9 1 -14 1
h-9q-36 0 -84.5 -4t-136.5 -15q-40 -5 -53.5 -6.5t-19.5 -1.5q-15 0 4.5 22t34.5 27q4 1 54 1.5t147 0.5q33 0 89 1t165 4q40 1 52 1.5t16 0.5q20 0 34 -3t17 -8q1 -6 -10 -17.5t-25 -19.5q-6 -2 -19.5 -1t-49.5 6q-42 6 -65 8t-42 2q-23 0 -44.5 -4t-38.5 -11
q-33 -15 -62 -54.5t-60 -115.5q-12 -27 -37.5 -94.5t-41.5 -104.5q-68 -157 -135.5 -250t-138.5 -128q6 -1 12.5 -1.5t13.5 -0.5q22 0 59 2.5t122 11.5q77 8 107 10t46 2q9 0 6 -12t-15 -24q-8 -8 -18 -12.5t-21 -4.5l-148 3q-74 1 -159.5 -0.5t-201.5 -5.5zM857 934
q-11 0 -15.5 1t-8.5 5q-6 10 7.5 39t26.5 36q4 2 13 3t21 1q10 0 19.5 -2t11.5 -5q2 -15 -16 -40t-33 -34q-5 -2 -11.5 -3t-14.5 -1zM662 934q-11 0 -15 1t-8 5q-6 10 7.5 39t26.5 36q3 2 12 3t21 1q10 0 20 -2t12 -5q1 -16 -17.5 -41.5t-32.5 -32.5q-4 -2 -10.5 -3
t-15.5 -1z" />
    <glyph glyph-name="Eth" unicode="&#xd0;" horiz-adv-x="1138" 
d="M126 -3q-19 -1 -25 -1h-9q-15 0 -25 3.5t-15 9.5q-1 11 12.5 31t26.5 26q8 1 21.5 -1t50.5 -10q54 -12 83 -16t53 -4q26 0 48 8.5t41 26.5q25 22 47 57.5t47 93.5q11 27 32.5 83t33.5 85q-59 -1 -110 -2.5t-82 -3.5q-7 2 -4.5 11t10.5 10q28 -2 78 -3.5t111 -2.5
q1 1 1.5 2.5l1.5 4.5l1.5 4.5t1.5 2.5q73 179 125 253.5t114 111.5l3 -3q-27 -19 -54 -60.5t-59 -115.5q-13 -32 -39.5 -98t-39.5 -97l-2 -5q65 0 128 1.5t106 4.5q6 -2 3.5 -11t-9.5 -10q-46 3 -107.5 4.5t-124.5 1.5q-67 -164 -123.5 -241.5t-129.5 -113.5q58 -1 147 0.5
t164 4.5q88 3 157 23.5t119 58.5q32 24 57.5 57.5t44.5 76.5q45 99 40.5 200.5t-57.5 182.5q-52 79 -141.5 122t-204.5 43q-75 0 -139 -15t-117 -44q-65 -36 -116 -95t-87 -140q-10 -24 -22 -34t-30 -10q-20 0 -23.5 13t11.5 36q41 68 108.5 130t152.5 108q76 40 154.5 61
t154.5 20q114 0 203.5 -43.5t143.5 -124.5q55 -83 61 -186t-39 -197q-21 -43 -59 -86t-91 -82q-31 -23 -65 -42t-71 -34q-48 -20 -97.5 -30t-98.5 -10l-142 2q-75 1 -155.5 0t-184.5 -3z" />
    <glyph glyph-name="Ntilde" unicode="&#xd1;" horiz-adv-x="947" 
d="M0 0zM26 -38q-61 -58 -129 -84.5t-154 -26.5q-56 0 -128 15t-79 24q-5 6 13.5 24t35.5 23q4 1 13.5 -1t37.5 -11q65 -20 107.5 -27.5t80.5 -7.5q96 1 175 65t209 259l316 476q-17 89 -38 126.5t-58 37.5q-7 0 -15.5 -2.5t-25.5 -9.5q-22 -9 -105 -68t-120 -91l-6 7
q72 58 149.5 115.5t110.5 74.5q12 6 26 9.5t28 3.5q37 0 57.5 -22.5t35.5 -77.5q7 -26 13.5 -62.5t13.5 -85.5q19 -135 34.5 -255.5t39.5 -329.5q165 273 218 358t99 153q98 147 181.5 209.5t185.5 62.5q70 0 145.5 -10.5t90.5 -18.5q2 -1 2.5 -2t0.5 -3q0 -8 -19 -24.5
t-31 -17.5h-12q-7 0 -18.5 2t-43.5 9q-67 16 -106.5 21.5t-74.5 5.5q-71 0 -139 -56.5t-154 -185.5q-70 -106 -146.5 -229t-181.5 -300q-13 -22 -20.5 -33.5t-8.5 -12.5q-3 -3 -4.5 -4t-3.5 -1q-5 0 -7 5.5t-5 30.5q-14 129 -27.5 239t-50.5 371q-1 5 -1.5 11t-2.5 16
q-1 9 -2 13t-1 7l-308 -466q-67 -101 -110 -156t-83 -92zM787 907q-2 -3 -6 -1t0 6q29 42 55.5 62.5t52.5 20.5q12 0 27.5 -3t48.5 -11q31 -9 45.5 -11.5t25.5 -2.5q19 0 32 15t27 53q2 5 6.5 3.5t2.5 -6.5q-18 -47 -46.5 -77t-54.5 -30q-14 0 -31 3t-52 13q-31 8 -45 10.5
t-24 2.5q-18 0 -32.5 -10.5t-31.5 -36.5z" />
    <glyph glyph-name="Ograve" unicode="&#xd2;" horiz-adv-x="972" 
d="M107 0zM688 84q-69 -42 -138.5 -64t-133.5 -21q-109 0 -184.5 48.5t-106.5 136.5q-28 81 -13.5 176t67.5 178q39 64 98 120.5t128 97.5q64 37 127.5 56.5t120.5 18.5q112 0 189 -50t108 -142q27 -83 10.5 -180.5t-73.5 -182.5q-36 -56 -87.5 -105.5t-111.5 -86.5z
M181 212q29 -87 100.5 -135t176.5 -49q61 0 117.5 15.5t105.5 46.5q46 29 86 72t72 98q50 84 65.5 178t-8.5 174q-27 91 -99 141t-180 50q-56 1 -108.5 -13t-98.5 -42q-52 -31 -97 -79.5t-82 -112.5q-49 -83 -62.5 -175t12.5 -169zM728 882q-1 0 -1.5 0.5l-1.5 1.5
q-16 20 -38 42t-59 55q-13 12 -17.5 16t-6.5 6q-5 4 -8.5 12.5t-2.5 14.5t8 12t14 6q5 0 10 -3.5t13 -12.5q2 -2 5 -7t12 -21q25 -44 42 -70t33 -45l1.5 -1.5t0.5 -1.5q0 -2 -1 -3t-3 -1z" />
    <glyph glyph-name="Oacute" unicode="&#xd3;" horiz-adv-x="972" 
d="M107 0zM688 84q-69 -42 -138.5 -64t-133.5 -21q-109 0 -184.5 48.5t-106.5 136.5q-28 81 -13.5 176t67.5 178q39 64 98 120.5t128 97.5q64 37 127.5 56.5t120.5 18.5q112 0 189 -50t108 -142q27 -83 10.5 -180.5t-73.5 -182.5q-36 -56 -87.5 -105.5t-111.5 -86.5z
M181 212q29 -87 100.5 -135t176.5 -49q61 0 117.5 15.5t105.5 46.5q46 29 86 72t72 98q50 84 65.5 178t-8.5 174q-27 91 -99 141t-180 50q-56 1 -108.5 -13t-98.5 -42q-52 -31 -97 -79.5t-82 -112.5q-49 -83 -62.5 -175t12.5 -169zM788 1038q6 5 12 7.5t12 2.5
q7 0 13.5 -7.5t5.5 -13.5q0 -5 -3 -11.5t-8 -10.5q-2 -2 -7.5 -5.5t-20.5 -13.5q-52 -33 -85 -57t-61 -47q-1 -1 -1.5 -1h-1.5q-2 0 -3.5 1.5t-1.5 3.5q0 1 1.5 2l1.5 1q29 24 60 54.5t71 77.5q9 10 12 13z" />
    <glyph glyph-name="Ocircumflex" unicode="&#xd4;" horiz-adv-x="972" 
d="M107 0zM688 84q-69 -42 -138.5 -64t-133.5 -21q-109 0 -184.5 48.5t-106.5 136.5q-28 81 -13.5 176t67.5 178q39 64 98 120.5t128 97.5q64 37 127.5 56.5t120.5 18.5q112 0 189 -50t108 -142q27 -83 10.5 -180.5t-73.5 -182.5q-36 -56 -87.5 -105.5t-111.5 -86.5z
M181 212q29 -87 100.5 -135t176.5 -49q61 0 117.5 15.5t105.5 46.5q46 29 86 72t72 98q50 84 65.5 178t-8.5 174q-27 91 -99 141t-180 50q-56 1 -108.5 -13t-98.5 -42q-52 -31 -97 -79.5t-82 -112.5q-49 -83 -62.5 -175t12.5 -169zM845 887q0 -7 -6 -11.5t-15 -4.5
q-17 0 -25 6t-8 20q0 39 -6 70t-17 53q-1 3 -2.5 3.5t-4.5 -1.5q-38 -20 -66 -43t-56 -57q-9 -11 -20.5 -16.5t-27.5 -5.5q-10 0 -15 3t-6 10q1 19 58 52.5t133 62.5q5 2 7.5 1t5.5 -5q30 -36 50.5 -77t20.5 -60z" />
    <glyph glyph-name="Otilde" unicode="&#xd5;" horiz-adv-x="972" 
d="M107 0zM688 84q-69 -42 -138.5 -64t-133.5 -21q-109 0 -184.5 48.5t-106.5 136.5q-28 81 -13.5 176t67.5 178q39 64 98 120.5t128 97.5q64 37 127.5 56.5t120.5 18.5q112 0 189 -50t108 -142q27 -83 10.5 -180.5t-73.5 -182.5q-36 -56 -87.5 -105.5t-111.5 -86.5z
M181 212q29 -87 100.5 -135t176.5 -49q61 0 117.5 15.5t105.5 46.5q46 29 86 72t72 98q50 84 65.5 178t-8.5 174q-27 91 -99 141t-180 50q-56 1 -108.5 -13t-98.5 -42q-52 -31 -97 -79.5t-82 -112.5q-49 -83 -62.5 -175t12.5 -169zM551 907q-2 -3 -6 -1t0 6q29 42 55.5 62.5
t52.5 20.5q12 0 27.5 -3t48.5 -11q31 -9 45.5 -11.5t25.5 -2.5q19 0 32 15t27 53q2 5 6.5 3.5t2.5 -6.5q-18 -47 -46.5 -77t-54.5 -30q-14 0 -31 3t-52 13q-31 8 -45 10.5t-24 2.5q-18 0 -32.5 -10.5t-31.5 -36.5z" />
    <glyph glyph-name="Odieresis" unicode="&#xd6;" horiz-adv-x="972" 
d="M107 0zM688 84q-69 -42 -138.5 -64t-133.5 -21q-109 0 -184.5 48.5t-106.5 136.5q-28 81 -13.5 176t67.5 178q39 64 98 120.5t128 97.5q64 37 127.5 56.5t120.5 18.5q112 0 189 -50t108 -142q27 -83 10.5 -180.5t-73.5 -182.5q-36 -56 -87.5 -105.5t-111.5 -86.5z
M181 212q29 -87 100.5 -135t176.5 -49q61 0 117.5 15.5t105.5 46.5q46 29 86 72t72 98q50 84 65.5 178t-8.5 174q-27 91 -99 141t-180 50q-56 1 -108.5 -13t-98.5 -42q-52 -31 -97 -79.5t-82 -112.5q-49 -83 -62.5 -175t12.5 -169zM807 934q-11 0 -15.5 1t-8.5 5
q-6 10 7.5 39t26.5 36q4 2 13 3t21 1q10 0 19.5 -2t11.5 -5q2 -15 -16 -40t-33 -34q-5 -2 -11.5 -3t-14.5 -1zM612 934q-11 0 -15 1t-8 5q-6 10 7.5 39t26.5 36q3 2 12 3t21 1q10 0 20 -2t12 -5q1 -16 -17.5 -41.5t-32.5 -32.5q-4 -2 -10.5 -3t-15.5 -1z" />
    <glyph glyph-name="multiply" unicode="&#xd7;" 
d="M460 497q6 0 11 -4t9 -11q-16 -11 -34 -27t-42 -40q-11 -11 -35.5 -36t-37.5 -38q39 -39 75.5 -72t70.5 -60q0 -5 -4.5 -10t-13.5 -10q-11 16 -26.5 33t-38.5 41q-10 10 -34 33.5t-37 36.5q-58 -58 -88 -90.5t-50 -59.5q-5 1 -11 5.5t-12 13.5q33 26 69.5 59.5t82.5 79.5
q-24 24 -49.5 47.5t-94.5 83.5q-1 4 4 10t12 11q18 -23 41 -47.5t95 -95.5h1q13 14 47.5 50.5t89.5 96.5z" />
    <glyph glyph-name="Oslash" unicode="&#xd8;" horiz-adv-x="972" 
d="M688 84q-69 -42 -138.5 -64t-133.5 -21q-70 0 -126.5 20.5t-97.5 59.5q-33 -32 -64.5 -63t-61.5 -60q-8 -4 -16.5 -0.5t-7.5 12.5q11 10 24.5 22l40.5 36q29 27 44 40.5t28 25.5q-73 81 -72.5 207t72.5 239q39 64 98 120.5t128 97.5q64 37 127.5 56.5t120.5 18.5
q73 0 131.5 -21.5t100.5 -63.5q14 14 30 29.5t46 44.5q16 16 24 23.5t14 13.5q9 2 15 -2.5t4 -13.5q-50 -44 -80 -71t-41 -37q73 -84 70 -213t-80 -244q-36 -56 -87.5 -105.5t-111.5 -86.5zM410 748q-52 -31 -97 -79.5t-82 -112.5q-65 -111 -67 -230t62 -198
q102 92 172.5 157.5t126.5 119.5q19 19 43.5 42t75.5 73q83 79 124.5 119t75.5 72q-39 45 -96.5 68.5t-130.5 23.5q-56 1 -108.5 -13t-98.5 -42zM237 115q38 -42 94 -64t127 -23q61 0 117.5 15.5t105.5 46.5q46 29 86 72t72 98q67 111 71.5 233t-56.5 205
q-98 -89 -178 -164.5t-140 -134.5q-127 -120 -201.5 -191t-97.5 -93z" />
    <glyph glyph-name="Ugrave" unicode="&#xd9;" horiz-adv-x="916" 
d="M83 0zM650 238q-98 -112 -209 -191t-179 -79q-72 0 -124 63t-55 147q-1 35 15 78t52 100q14 21 32 46.5t80 111.5q9 13 39.5 54.5t45.5 62.5q34 50 47.5 79t12.5 50q-2 19 -11.5 37t-22.5 27q-29 -12 -98 -59t-104 -76l-6 8q43 36 113 86t108 72q3 2 6.5 2.5t7.5 0.5
q6 0 13 -2t10 -4q15 -11 25.5 -33.5t14.5 -50.5q3 -24 -11 -57.5t-53 -88.5q-16 -24 -49 -69.5t-46 -63.5q-107 -148 -136.5 -207.5t-27.5 -101.5q3 -71 47.5 -126t109.5 -55q61 0 175.5 86t199.5 189q19 29 45 69.5l78 121.5q119 185 138 225t17 73q-1 16 -10 31.5
t-23 28.5q-21 -6 -92 -55t-106 -79l-6 8q37 32 107.5 83.5t110.5 74.5q2 1 5.5 2t8.5 1q6 0 13 -2t9 -4q16 -13 27 -35t13 -47q3 -34 -22.5 -86t-143.5 -238q-152 -238 -176 -287.5t-21 -81.5q2 -16 17.5 -40t27.5 -27q20 6 76 49t110 92l5 -7q-84 -76 -128.5 -112
t-74.5 -54q-2 -2 -6 -2.5t-9 -0.5q-8 0 -15.5 1.5t-10.5 3.5q-21 17 -35.5 42t-16.5 48q-2 29 12.5 66t53.5 102zM726 882q-1 0 -1.5 0.5l-1.5 1.5q-16 20 -38 42t-59 55q-13 12 -17.5 16t-6.5 6q-5 4 -8.5 12.5t-2.5 14.5t8 12t14 6q5 0 10 -3.5t13 -12.5q2 -2 5 -7t12 -21
q25 -44 42 -70t33 -45l1.5 -1.5t0.5 -1.5q0 -2 -1 -3t-3 -1z" />
    <glyph glyph-name="Uacute" unicode="&#xda;" horiz-adv-x="916" 
d="M83 0zM650 238q-98 -112 -209 -191t-179 -79q-72 0 -124 63t-55 147q-1 35 15 78t52 100q14 21 32 46.5t80 111.5q9 13 39.5 54.5t45.5 62.5q34 50 47.5 79t12.5 50q-2 19 -11.5 37t-22.5 27q-29 -12 -98 -59t-104 -76l-6 8q43 36 113 86t108 72q3 2 6.5 2.5t7.5 0.5
q6 0 13 -2t10 -4q15 -11 25.5 -33.5t14.5 -50.5q3 -24 -11 -57.5t-53 -88.5q-16 -24 -49 -69.5t-46 -63.5q-107 -148 -136.5 -207.5t-27.5 -101.5q3 -71 47.5 -126t109.5 -55q61 0 175.5 86t199.5 189q19 29 45 69.5l78 121.5q119 185 138 225t17 73q-1 16 -10 31.5
t-23 28.5q-21 -6 -92 -55t-106 -79l-6 8q37 32 107.5 83.5t110.5 74.5q2 1 5.5 2t8.5 1q6 0 13 -2t9 -4q16 -13 27 -35t13 -47q3 -34 -22.5 -86t-143.5 -238q-152 -238 -176 -287.5t-21 -81.5q2 -16 17.5 -40t27.5 -27q20 6 76 49t110 92l5 -7q-84 -76 -128.5 -112
t-74.5 -54q-2 -2 -6 -2.5t-9 -0.5q-8 0 -15.5 1.5t-10.5 3.5q-21 17 -35.5 42t-16.5 48q-2 29 12.5 66t53.5 102zM786 1038q6 5 12 7.5t12 2.5q7 0 13.5 -7.5t5.5 -13.5q0 -5 -3 -11.5t-8 -10.5q-2 -2 -7.5 -5.5t-20.5 -13.5q-52 -33 -85 -57t-61 -47q-1 -1 -1.5 -1h-1.5
q-2 0 -3.5 1.5t-1.5 3.5q0 1 1.5 2l1.5 1q29 24 60 54.5t71 77.5q9 10 12 13z" />
    <glyph glyph-name="Ucircumflex" unicode="&#xdb;" horiz-adv-x="916" 
d="M83 0zM650 238q-98 -112 -209 -191t-179 -79q-72 0 -124 63t-55 147q-1 35 15 78t52 100q14 21 32 46.5t80 111.5q9 13 39.5 54.5t45.5 62.5q34 50 47.5 79t12.5 50q-2 19 -11.5 37t-22.5 27q-29 -12 -98 -59t-104 -76l-6 8q43 36 113 86t108 72q3 2 6.5 2.5t7.5 0.5
q6 0 13 -2t10 -4q15 -11 25.5 -33.5t14.5 -50.5q3 -24 -11 -57.5t-53 -88.5q-16 -24 -49 -69.5t-46 -63.5q-107 -148 -136.5 -207.5t-27.5 -101.5q3 -71 47.5 -126t109.5 -55q61 0 175.5 86t199.5 189q19 29 45 69.5l78 121.5q119 185 138 225t17 73q-1 16 -10 31.5
t-23 28.5q-21 -6 -92 -55t-106 -79l-6 8q37 32 107.5 83.5t110.5 74.5q2 1 5.5 2t8.5 1q6 0 13 -2t9 -4q16 -13 27 -35t13 -47q3 -34 -22.5 -86t-143.5 -238q-152 -238 -176 -287.5t-21 -81.5q2 -16 17.5 -40t27.5 -27q20 6 76 49t110 92l5 -7q-84 -76 -128.5 -112
t-74.5 -54q-2 -2 -6 -2.5t-9 -0.5q-8 0 -15.5 1.5t-10.5 3.5q-21 17 -35.5 42t-16.5 48q-2 29 12.5 66t53.5 102zM843 887q0 -7 -6 -11.5t-15 -4.5q-17 0 -25 6t-8 20q0 39 -6 70t-17 53q-1 3 -2.5 3.5t-4.5 -1.5q-38 -20 -66 -43t-56 -57q-9 -11 -20.5 -16.5t-27.5 -5.5
q-10 0 -15 3t-6 10q1 19 58 52.5t133 62.5q5 2 7.5 1t5.5 -5q30 -36 50.5 -77t20.5 -60z" />
    <glyph glyph-name="Udieresis" unicode="&#xdc;" horiz-adv-x="916" 
d="M83 0zM650 238q-98 -112 -209 -191t-179 -79q-72 0 -124 63t-55 147q-1 35 15 78t52 100q14 21 32 46.5t80 111.5q9 13 39.5 54.5t45.5 62.5q34 50 47.5 79t12.5 50q-2 19 -11.5 37t-22.5 27q-29 -12 -98 -59t-104 -76l-6 8q43 36 113 86t108 72q3 2 6.5 2.5t7.5 0.5
q6 0 13 -2t10 -4q15 -11 25.5 -33.5t14.5 -50.5q3 -24 -11 -57.5t-53 -88.5q-16 -24 -49 -69.5t-46 -63.5q-107 -148 -136.5 -207.5t-27.5 -101.5q3 -71 47.5 -126t109.5 -55q61 0 175.5 86t199.5 189q19 29 45 69.5l78 121.5q119 185 138 225t17 73q-1 16 -10 31.5
t-23 28.5q-21 -6 -92 -55t-106 -79l-6 8q37 32 107.5 83.5t110.5 74.5q2 1 5.5 2t8.5 1q6 0 13 -2t9 -4q16 -13 27 -35t13 -47q3 -34 -22.5 -86t-143.5 -238q-152 -238 -176 -287.5t-21 -81.5q2 -16 17.5 -40t27.5 -27q20 6 76 49t110 92l5 -7q-84 -76 -128.5 -112
t-74.5 -54q-2 -2 -6 -2.5t-9 -0.5q-8 0 -15.5 1.5t-10.5 3.5q-21 17 -35.5 42t-16.5 48q-2 29 12.5 66t53.5 102zM805 934q-11 0 -15.5 1t-8.5 5q-6 10 7.5 39t26.5 36q4 2 13 3t21 1q10 0 19.5 -2t11.5 -5q2 -15 -16 -40t-33 -34q-5 -2 -11.5 -3t-14.5 -1zM610 934
q-11 0 -15 1t-8 5q-6 10 7.5 39t26.5 36q3 2 12 3t21 1q10 0 20 -2t12 -5q1 -16 -17.5 -41.5t-32.5 -32.5q-4 -2 -10.5 -3t-15.5 -1z" />
    <glyph glyph-name="Yacute" unicode="&#xdd;" horiz-adv-x="599" 
d="M0 0zM386 2q-32 1 -49 1.5t-32 0.5q-56 1 -118 0t-157 -4q-29 -1 -40 -1h-17q-5 0 -10 2t-5 5q0 5 12.5 17t24.5 18q2 1 4 1.5t5 0.5q2 0 5 -0.5t11 -1.5q19 -2 31.5 -3t25.5 -1q34 0 64.5 7t56.5 21q38 22 71.5 64t80.5 134q6 12 12.5 26.5t21.5 44.5q15 33 23 50.5
t16 33.5q-16 100 -43.5 186.5t-58.5 132.5q-11 16 -27 27.5t-33 14.5q-25 -8 -90.5 -49t-98.5 -69l-5 7q48 37 113.5 82t108.5 69q4 2 8 3.5t8 1.5t8.5 -1.5t8.5 -3.5q11 -7 25.5 -22.5t24.5 -31.5q36 -61 64 -153.5t40 -187.5q11 9 87.5 73t116.5 98q102 85 161.5 135
t77.5 66q16 14 32.5 28.5t95.5 81.5q6 3 11 3t8 -3q5 -2 6 -8t-3 -12q-25 -23 -56.5 -49.5t-59.5 -48.5q-55 -39 -122 -90t-126 -98q-55 -44 -106.5 -86.5t-95.5 -80.5q-7 -7 -18 -16.5t-13 -11.5q-31 -65 -49.5 -103.5t-24.5 -50.5q-43 -82 -94.5 -129t-142.5 -86h25
q29 0 68.5 2t118.5 8q56 5 78 6t35 1q2 0 3.5 -1t1.5 -3q0 -10 -14.5 -26.5t-26.5 -19.5q-3 -1 -14.5 -1.5t-49.5 0.5zM785 1038q6 5 12 7.5t12 2.5q7 0 13.5 -7.5t5.5 -13.5q0 -5 -3 -11.5t-8 -10.5q-2 -2 -7.5 -5.5t-20.5 -13.5q-52 -33 -85 -57t-61 -47q-1 -1 -1.5 -1
h-1.5q-2 0 -3.5 1.5t-1.5 3.5q0 1 1.5 2l1.5 1q29 24 60 54.5t71 77.5q9 10 12 13z" />
    <glyph glyph-name="Thorn" unicode="&#xde;" horiz-adv-x="983" 
d="M391 226q9 22 35.5 86.5t43.5 104.5q43 96 65 140t42 77q41 65 83.5 104t92.5 56h-56q-35 0 -83 -4t-135 -15q-39 -4 -52 -5.5t-19 -1.5q-15 0 4.5 22t34.5 27q4 1 54 1.5t147 0.5q33 0 89 1t165 4q40 1 52 1.5t16 0.5q20 0 34 -3t17 -8q1 -6 -10 -17.5t-25 -19.5
q-6 -2 -20 -1t-52 6q-42 6 -64.5 8t-40.5 2q-23 0 -43.5 -4t-36.5 -11q-33 -15 -62.5 -54.5t-60.5 -115.5q-13 -28 -39 -95.5t-41 -103.5q-6 -13 -13 -29t-24 -53q118 137 245 250t179 124q34 -28 54 -75.5t20 -100.5q0 -68 -26.5 -130.5t-76.5 -111.5t-113.5 -76
t-128.5 -27q-45 0 -98.5 19t-95.5 50q-48 -84 -96.5 -138t-99.5 -80q5 -2 21 -3.5t36 -1.5q32 0 82 3t159 13q88 7 123 9.5t55 2.5q6 0 1.5 -13t-15.5 -24q-8 -8 -18.5 -12.5t-21.5 -4.5l-258 5q-73 0 -157.5 -1t-200.5 -5q-24 -1 -31.5 -1h-10.5q-15 0 -27.5 3t-15.5 8
q-1 8 13.5 21.5t26.5 15.5q5 1 16.5 0t43.5 -6q44 -6 67.5 -8.5t42.5 -2.5q31 0 54.5 6.5t42.5 19.5q29 21 54.5 60t56.5 111zM934 492q0 53 -18.5 99t-51.5 73q-46 -18 -175.5 -139t-216.5 -235q44 -40 103.5 -65t112.5 -25q103 0 174.5 85.5t71.5 206.5z" />
    <glyph glyph-name="germandbls" unicode="&#xdf;" horiz-adv-x="635" 
d="M297 570q83 116 178 180t188 64q67 0 103 -38.5t23 -92.5q-7 -30 -29.5 -55t-65.5 -49q-20 -11 -64.5 -32.5t-66.5 -34.5q-50 -29 -70.5 -53t-25.5 -53q-5 -22 1.5 -51t25.5 -71q21 -43 30.5 -77.5t9.5 -63.5q0 -37 -15.5 -66.5t-45.5 -49.5q-29 -18 -57 -26.5t-58 -8.5
q-37 0 -65 14.5t-41 38.5q-14 27 -2.5 57t41.5 39l2 -2q-1 -26 8.5 -50t26.5 -41q25 -26 62.5 -31.5t68.5 12.5q17 10 25.5 27.5t8.5 41.5t-8.5 55t-34.5 93q-15 37 -20 69.5t0 60.5q7 40 36 73t94 70q9 5 47 25.5t59 34.5q31 21 48.5 43.5t24.5 48.5q13 52 -20.5 87.5
t-98.5 35.5q-85 0 -152.5 -59t-145.5 -201q-19 -33 -51.5 -95.5t-110.5 -211.5q-65 -125 -90.5 -173.5t-39.5 -73.5q-58 -107 -133.5 -167.5t-146.5 -60.5q-40 0 -66 18.5t-26 47.5q0 23 14 40.5t35 21.5q-1 -12 1.5 -27.5t7.5 -26.5q9 -25 26.5 -40.5t39.5 -15.5
q50 0 93 48.5t102 158.5q8 15 29.5 55.5t81.5 155.5q68 133 98 190.5t48 89.5h-66q-5 2 -5 5.5t5 4.5l97 43q11 17 19 29.5t13 19.5z" />
    <glyph glyph-name="agrave" unicode="&#xe0;" horiz-adv-x="589" 
d="M29 0zM98 3q-3 -2 -7.5 -3.5t-10.5 -1.5q-7 0 -11.5 1t-6.5 3q-30 23 -33 85.5t20 131.5q25 82 92 154t151 112q28 13 53 20t44 7q44 0 74 -18.5t64 -65.5q6 5 36 37.5t39 42.5q6 5 8.5 2.5t0.5 -5.5q-82 -103 -161 -238.5t-77 -182.5q0 -13 11 -26.5t26 -17.5
q20 8 60 38.5t69 60.5l6 -7q-56 -54 -90 -82t-65 -47q-3 -1 -7.5 -2t-10.5 -1q-7 0 -15 1.5t-10 2.5q-14 13 -24 34.5t-11 38.5q-1 22 11.5 53t39.5 76q14 22 40.5 62t35.5 55q-41 -46 -102 -106.5t-135 -128.5q-29 -25 -56 -47t-48 -38zM102 224q-16 -59 -14.5 -111.5
t20.5 -71.5q9 1 28 13.5t56 41.5q57 47 140.5 129.5t155.5 162.5q-36 55 -68 79.5t-69 24.5q-13 0 -26.5 -3t-28.5 -10q-61 -28 -116.5 -100t-77.5 -155zM462 558q-1 0 -1.5 0.5l-1.5 1.5q-16 20 -38 42t-59 55q-13 12 -17.5 16t-6.5 6q-5 4 -8.5 12.5t-2.5 14.5t8 12t14 6
q5 0 10 -3.5t13 -12.5q2 -2 5 -7t12 -21q25 -44 42 -70t33 -45l1.5 -1.5t0.5 -1.5q0 -2 -1 -3t-3 -1z" />
    <glyph glyph-name="aacute" unicode="&#xe1;" horiz-adv-x="589" 
d="M29 0zM98 3q-3 -2 -7.5 -3.5t-10.5 -1.5q-7 0 -11.5 1t-6.5 3q-30 23 -33 85.5t20 131.5q25 82 92 154t151 112q28 13 53 20t44 7q44 0 74 -18.5t64 -65.5q6 5 36 37.5t39 42.5q6 5 8.5 2.5t0.5 -5.5q-82 -103 -161 -238.5t-77 -182.5q0 -13 11 -26.5t26 -17.5
q20 8 60 38.5t69 60.5l6 -7q-56 -54 -90 -82t-65 -47q-3 -1 -7.5 -2t-10.5 -1q-7 0 -15 1.5t-10 2.5q-14 13 -24 34.5t-11 38.5q-1 22 11.5 53t39.5 76q14 22 40.5 62t35.5 55q-41 -46 -102 -106.5t-135 -128.5q-29 -25 -56 -47t-48 -38zM102 224q-16 -59 -14.5 -111.5
t20.5 -71.5q9 1 28 13.5t56 41.5q57 47 140.5 129.5t155.5 162.5q-36 55 -68 79.5t-69 24.5q-13 0 -26.5 -3t-28.5 -10q-61 -28 -116.5 -100t-77.5 -155zM522 714q6 5 12 7.5t12 2.5q7 0 13.5 -7.5t5.5 -13.5q0 -5 -3 -11.5t-8 -10.5q-2 -2 -7.5 -5.5t-20.5 -13.5
q-52 -33 -85 -57t-61 -47q-1 -1 -1.5 -1h-1.5q-2 0 -3.5 1.5t-1.5 3.5q0 1 1.5 2l1.5 1q29 24 60 54.5t71 77.5q9 10 12 13z" />
    <glyph glyph-name="acircumflex" unicode="&#xe2;" horiz-adv-x="589" 
d="M29 0zM98 3q-3 -2 -7.5 -3.5t-10.5 -1.5q-7 0 -11.5 1t-6.5 3q-30 23 -33 85.5t20 131.5q25 82 92 154t151 112q28 13 53 20t44 7q44 0 74 -18.5t64 -65.5q6 5 36 37.5t39 42.5q6 5 8.5 2.5t0.5 -5.5q-82 -103 -161 -238.5t-77 -182.5q0 -13 11 -26.5t26 -17.5
q20 8 60 38.5t69 60.5l6 -7q-56 -54 -90 -82t-65 -47q-3 -1 -7.5 -2t-10.5 -1q-7 0 -15 1.5t-10 2.5q-14 13 -24 34.5t-11 38.5q-1 22 11.5 53t39.5 76q14 22 40.5 62t35.5 55q-41 -46 -102 -106.5t-135 -128.5q-29 -25 -56 -47t-48 -38zM102 224q-16 -59 -14.5 -111.5
t20.5 -71.5q9 1 28 13.5t56 41.5q57 47 140.5 129.5t155.5 162.5q-36 55 -68 79.5t-69 24.5q-13 0 -26.5 -3t-28.5 -10q-61 -28 -116.5 -100t-77.5 -155zM579 563q0 -7 -6 -11.5t-15 -4.5q-17 0 -25 6t-8 20q0 39 -6 70t-17 53q-1 3 -2.5 3.5t-4.5 -1.5q-38 -20 -66 -43
t-56 -57q-9 -11 -20.5 -16.5t-27.5 -5.5q-10 0 -15 3t-6 10q1 19 58 52.5t133 62.5q5 2 7.5 1t5.5 -5q30 -36 50.5 -77t20.5 -60z" />
    <glyph glyph-name="atilde" unicode="&#xe3;" horiz-adv-x="589" 
d="M29 0zM98 3q-3 -2 -7.5 -3.5t-10.5 -1.5q-7 0 -11.5 1t-6.5 3q-30 23 -33 85.5t20 131.5q25 82 92 154t151 112q28 13 53 20t44 7q44 0 74 -18.5t64 -65.5q6 5 36 37.5t39 42.5q6 5 8.5 2.5t0.5 -5.5q-82 -103 -161 -238.5t-77 -182.5q0 -13 11 -26.5t26 -17.5
q20 8 60 38.5t69 60.5l6 -7q-56 -54 -90 -82t-65 -47q-3 -1 -7.5 -2t-10.5 -1q-7 0 -15 1.5t-10 2.5q-14 13 -24 34.5t-11 38.5q-1 22 11.5 53t39.5 76q14 22 40.5 62t35.5 55q-41 -46 -102 -106.5t-135 -128.5q-29 -25 -56 -47t-48 -38zM102 224q-16 -59 -14.5 -111.5
t20.5 -71.5q9 1 28 13.5t56 41.5q57 47 140.5 129.5t155.5 162.5q-36 55 -68 79.5t-69 24.5q-13 0 -26.5 -3t-28.5 -10q-61 -28 -116.5 -100t-77.5 -155zM285 583q-2 -3 -6 -1t0 6q29 42 55.5 62.5t52.5 20.5q12 0 27.5 -3t48.5 -11q31 -9 45.5 -11.5t25.5 -2.5q19 0 32 15
t27 53q2 5 6.5 3.5t2.5 -6.5q-18 -47 -46.5 -77t-54.5 -30q-14 0 -31 3t-52 13q-31 8 -45 10.5t-24 2.5q-18 0 -32.5 -10.5t-31.5 -36.5z" />
    <glyph glyph-name="adieresis" unicode="&#xe4;" horiz-adv-x="589" 
d="M29 0zM98 3q-3 -2 -7.5 -3.5t-10.5 -1.5q-7 0 -11.5 1t-6.5 3q-30 23 -33 85.5t20 131.5q25 82 92 154t151 112q28 13 53 20t44 7q44 0 74 -18.5t64 -65.5q6 5 36 37.5t39 42.5q6 5 8.5 2.5t0.5 -5.5q-82 -103 -161 -238.5t-77 -182.5q0 -13 11 -26.5t26 -17.5
q20 8 60 38.5t69 60.5l6 -7q-56 -54 -90 -82t-65 -47q-3 -1 -7.5 -2t-10.5 -1q-7 0 -15 1.5t-10 2.5q-14 13 -24 34.5t-11 38.5q-1 22 11.5 53t39.5 76q14 22 40.5 62t35.5 55q-41 -46 -102 -106.5t-135 -128.5q-29 -25 -56 -47t-48 -38zM102 224q-16 -59 -14.5 -111.5
t20.5 -71.5q9 1 28 13.5t56 41.5q57 47 140.5 129.5t155.5 162.5q-36 55 -68 79.5t-69 24.5q-13 0 -26.5 -3t-28.5 -10q-61 -28 -116.5 -100t-77.5 -155zM541 610q-11 0 -15.5 1t-8.5 5q-6 10 7.5 39t26.5 36q4 2 13 3t21 1q10 0 19.5 -2t11.5 -5q2 -15 -16 -40t-33 -34
q-5 -2 -11.5 -3t-14.5 -1zM346 610q-11 0 -15 1t-8 5q-6 10 7.5 39t26.5 36q3 2 12 3t21 1q10 0 20 -2t12 -5q1 -16 -17.5 -41.5t-32.5 -32.5q-4 -2 -10.5 -3t-15.5 -1z" />
    <glyph glyph-name="aring" unicode="&#xe5;" horiz-adv-x="589" 
d="M29 0zM98 3q-3 -2 -7.5 -3.5t-10.5 -1.5q-7 0 -11.5 1t-6.5 3q-30 23 -33 85.5t20 131.5q25 82 92 154t151 112q28 13 53 20t44 7q44 0 74 -18.5t64 -65.5q6 5 36 37.5t39 42.5q6 5 8.5 2.5t0.5 -5.5q-82 -103 -161 -238.5t-77 -182.5q0 -13 11 -26.5t26 -17.5
q20 8 60 38.5t69 60.5l6 -7q-56 -54 -90 -82t-65 -47q-3 -1 -7.5 -2t-10.5 -1q-7 0 -15 1.5t-10 2.5q-14 13 -24 34.5t-11 38.5q-1 22 11.5 53t39.5 76q14 22 40.5 62t35.5 55q-41 -46 -102 -106.5t-135 -128.5q-29 -25 -56 -47t-48 -38zM102 224q-16 -59 -14.5 -111.5
t20.5 -71.5q9 1 28 13.5t56 41.5q57 47 140.5 129.5t155.5 162.5q-36 55 -68 79.5t-69 24.5q-13 0 -26.5 -3t-28.5 -10q-61 -28 -116.5 -100t-77.5 -155zM448 557q-39 0 -65.5 26.5t-26.5 64.5q0 39 27 66t65 27q39 0 66 -27t27 -66q0 -37 -27.5 -64t-65.5 -27zM448 730
q-33 0 -56 -24t-23 -58q0 -33 23 -56t56 -23q34 0 57 23t23 56q0 34 -23 58t-57 24z" />
    <glyph glyph-name="ae" unicode="&#xe6;" horiz-adv-x="796" 
d="M62 2q-31 23 -34 86t21 131q25 82 92 154t151 112q27 13 52 20t45 7q40 0 65.5 -16t60.5 -64q17 15 34 26.5t32 19.5q30 17 62.5 26.5t61.5 9.5q42 0 66 -16t24 -43q0 -36 -51 -85t-168 -123q-45 -28 -87.5 -53.5t-85.5 -50.5q0 -11 0.5 -21t2.5 -21q9 -34 30.5 -51.5
t53.5 -17.5q24 0 52 8t57 23q21 11 59 43.5t59 59.5l9 -5q-30 -36 -71.5 -70.5t-80.5 -55.5q-42 -23 -70 -32t-54 -9q-31 0 -60 23t-39 56q-12 45 -3 93t40 108q-43 -48 -91.5 -96t-95.5 -90q-27 -24 -53.5 -46t-49.5 -39q-3 -2 -7.5 -3.5t-10.5 -1.5q-7 0 -11.5 1t-6.5 3z
M191 96q58 47 135.5 129t146.5 168q-35 55 -61.5 77t-60.5 22q-13 0 -26.5 -3t-28.5 -10q-62 -28 -117.5 -100.5t-76.5 -154.5q-17 -60 -15 -112t21 -71q10 1 29.5 14t53.5 41zM593 477q-32 -21 -69.5 -66t-66.5 -98q-23 -40 -36.5 -81t-16.5 -79q39 23 77.5 46.5t89.5 55.5
q80 52 116.5 84t44.5 56q2 6 3 11.5t1 12.5q0 28 -25 49t-58 21q-14 0 -28.5 -3t-31.5 -9z" />
    <glyph glyph-name="ccedilla" unicode="&#xe7;" horiz-adv-x="484" 
d="M151 -6h-2q-36 0 -66 22t-40 56q-15 54 -3.5 109t50.5 119q28 51 82 101t115 82q32 17 61.5 25t60.5 8q44 0 69.5 -16.5t25.5 -43.5q0 -18 -13 -31.5t-32 -17.5q-8 39 -35.5 61t-69.5 22q-18 0 -32 -2.5t-32 -9.5q-36 -23 -72.5 -64.5t-66.5 -93.5q-35 -60 -48.5 -116
t-4.5 -103q6 -28 25 -45.5t49 -21.5q25 -3 56 4t63 23q21 10 54.5 38t55.5 54l8 -6q-31 -34 -66.5 -63t-73.5 -49q-39 -22 -61 -30t-43 -10q-6 -7 -34.5 -36t-45.5 -47q-1 -2 -0.5 -2.5t4.5 -0.5q56 2 87 -20t26 -60q-5 -42 -47.5 -71.5t-96.5 -29.5q-26 0 -43.5 8t-17.5 20
q0 10 14 17.5t29 7.5q7 0 13 -3t15 -12q10 -11 17.5 -14.5t17.5 -3.5q25 0 47 16.5t24 39.5q3 34 -30 53.5t-88 13.5q-5 -1 -9 -3.5t-9 -8.5q-4 -6 -6.5 -7.5t-5.5 -1.5q-8 0 -7 5t10 14q33 33 67 68t55 57z" />
    <glyph glyph-name="egrave" unicode="&#xe8;" horiz-adv-x="488" 
d="M34 0zM265 35q-43 -24 -70 -32.5t-53 -8.5q-32 0 -62 23t-39 56q-14 50 -1.5 105.5t51.5 121.5q29 50 80.5 99.5t104.5 78.5q30 17 62.5 26.5t61.5 9.5q41 0 65.5 -16t24.5 -43q0 -36 -51 -85t-168 -123q-53 -33 -95 -58.5t-83 -48.5q0 -9 1 -18.5t2 -19.5
q9 -34 30.5 -51.5t54.5 -17.5q25 0 53 7.5t56 22.5q22 11 60.5 43.5t60.5 59.5l9 -5q-29 -35 -71 -69t-84 -57zM288 477q-36 -24 -75 -69t-66 -95q-24 -43 -37.5 -84t-15.5 -79q44 26 86.5 51.5t85.5 53.5q80 52 116.5 84t44.5 56q2 6 3 11.5t1 12.5q0 28 -25 49t-58 21
q-14 0 -28.5 -3t-31.5 -9zM456 562q-1 0 -1.5 0.5l-1.5 1.5q-16 20 -38 42t-59 55q-13 12 -17.5 16t-6.5 6q-5 4 -8.5 12.5t-2.5 14.5t8 12t14 6q5 0 10 -3.5t13 -12.5q2 -2 5 -7t12 -21q25 -44 42 -70t33 -45l1.5 -1.5t0.5 -1.5q0 -2 -1 -3t-3 -1z" />
    <glyph glyph-name="eacute" unicode="&#xe9;" horiz-adv-x="485" 
d="M34 0zM265 35q-43 -24 -70 -32.5t-53 -8.5q-32 0 -62 23t-39 56q-14 50 -1.5 105.5t51.5 121.5q29 50 80.5 99.5t104.5 78.5q30 17 62.5 26.5t61.5 9.5q41 0 65.5 -16t24.5 -43q0 -36 -51 -85t-168 -123q-53 -33 -95 -58.5t-83 -48.5q0 -9 1 -18.5t2 -19.5
q9 -34 30.5 -51.5t54.5 -17.5q25 0 53 7.5t56 22.5q22 11 60.5 43.5t60.5 59.5l9 -5q-29 -35 -71 -69t-84 -57zM288 477q-36 -24 -75 -69t-66 -95q-24 -43 -37.5 -84t-15.5 -79q44 26 86.5 51.5t85.5 53.5q80 52 116.5 84t44.5 56q2 6 3 11.5t1 12.5q0 28 -25 49t-58 21
q-14 0 -28.5 -3t-31.5 -9zM495 715q6 5 12 7.5t12 2.5q7 0 13.5 -7.5t5.5 -13.5q0 -5 -3 -11.5t-8 -10.5q-2 -2 -7.5 -5.5t-20.5 -13.5q-52 -33 -85 -57t-61 -47q-1 -1 -1.5 -1h-1.5q-2 0 -3.5 1.5t-1.5 3.5q0 1 1.5 2l1.5 1q29 24 60 54.5t71 77.5q9 10 12 13z" />
    <glyph glyph-name="ecircumflex" unicode="&#xea;" horiz-adv-x="488" 
d="M34 0zM265 35q-43 -24 -70 -32.5t-53 -8.5q-32 0 -62 23t-39 56q-14 50 -1.5 105.5t51.5 121.5q29 50 80.5 99.5t104.5 78.5q30 17 62.5 26.5t61.5 9.5q41 0 65.5 -16t24.5 -43q0 -36 -51 -85t-168 -123q-53 -33 -95 -58.5t-83 -48.5q0 -9 1 -18.5t2 -19.5
q9 -34 30.5 -51.5t54.5 -17.5q25 0 53 7.5t56 22.5q22 11 60.5 43.5t60.5 59.5l9 -5q-29 -35 -71 -69t-84 -57zM288 477q-36 -24 -75 -69t-66 -95q-24 -43 -37.5 -84t-15.5 -79q44 26 86.5 51.5t85.5 53.5q80 52 116.5 84t44.5 56q2 6 3 11.5t1 12.5q0 28 -25 49t-58 21
q-14 0 -28.5 -3t-31.5 -9zM575 563q0 -7 -6 -11.5t-15 -4.5q-17 0 -25 6t-8 20q0 39 -6 70t-17 53q-1 3 -2.5 3.5t-4.5 -1.5q-38 -20 -66 -43t-56 -57q-9 -11 -20.5 -16.5t-27.5 -5.5q-10 0 -15 3t-6 10q1 19 58 52.5t133 62.5q5 2 7.5 1t5.5 -5q30 -36 50.5 -77t20.5 -60z
" />
    <glyph glyph-name="edieresis" unicode="&#xeb;" horiz-adv-x="488" 
d="M34 0zM265 35q-43 -24 -70 -32.5t-53 -8.5q-32 0 -62 23t-39 56q-14 50 -1.5 105.5t51.5 121.5q29 50 80.5 99.5t104.5 78.5q30 17 62.5 26.5t61.5 9.5q41 0 65.5 -16t24.5 -43q0 -36 -51 -85t-168 -123q-53 -33 -95 -58.5t-83 -48.5q0 -9 1 -18.5t2 -19.5
q9 -34 30.5 -51.5t54.5 -17.5q25 0 53 7.5t56 22.5q22 11 60.5 43.5t60.5 59.5l9 -5q-29 -35 -71 -69t-84 -57zM288 477q-36 -24 -75 -69t-66 -95q-24 -43 -37.5 -84t-15.5 -79q44 26 86.5 51.5t85.5 53.5q80 52 116.5 84t44.5 56q2 6 3 11.5t1 12.5q0 28 -25 49t-58 21
q-14 0 -28.5 -3t-31.5 -9zM528 576q-11 0 -15.5 1t-8.5 5q-6 10 7.5 39t26.5 36q4 2 13 3t21 1q10 0 19.5 -2t11.5 -5q2 -15 -16 -40t-33 -34q-5 -2 -11.5 -3t-14.5 -1zM333 576q-11 0 -15 1t-8 5q-6 10 7.5 39t26.5 36q3 2 12 3t21 1q10 0 20 -2t12 -5q1 -16 -17.5 -41.5
t-32.5 -32.5q-4 -2 -10.5 -3t-15.5 -1z" />
    <glyph glyph-name="igrave" unicode="&#xec;" horiz-adv-x="297" 
d="M20 0zM99 3q-2 -1 -8 -2t-13 -1t-14 1t-9 3q-14 11 -24 30t-11 35q0 16 13 45.5t93 158.5q68 107 77 125t11 32q2 16 -8 30t-22 15q-15 -3 -57 -34t-71 -60l-7 6q25 25 72.5 62.5t80.5 58.5q8 5 15 6t13 0q15 -5 30 -30.5t15 -46.5q0 -28 -48 -101t-51 -77
q-74 -119 -85 -144t-10 -39q1 -12 12 -24.5t24 -16.5q23 10 61.5 40.5t68.5 60.5l6 -7q-51 -49 -86 -77.5t-68 -48.5zM337 558q-1 0 -1.5 0.5l-1.5 1.5q-16 20 -38 42t-59 55q-13 12 -17.5 16t-6.5 6q-5 4 -8.5 12.5t-2.5 14.5t8 12t14 6q5 0 10 -3.5t13 -12.5q2 -2 5 -7
t12 -21q25 -44 42 -70t33 -45l1.5 -1.5t0.5 -1.5q0 -2 -1 -3t-3 -1z" />
    <glyph glyph-name="iacute" unicode="&#xed;" horiz-adv-x="297" 
d="M20 0zM99 3q-2 -1 -8 -2t-13 -1t-14 1t-9 3q-14 11 -24 30t-11 35q0 16 13 45.5t93 158.5q68 107 77 125t11 32q2 16 -8 30t-22 15q-15 -3 -57 -34t-71 -60l-7 6q25 25 72.5 62.5t80.5 58.5q8 5 15 6t13 0q15 -5 30 -30.5t15 -46.5q0 -28 -48 -101t-51 -77
q-74 -119 -85 -144t-10 -39q1 -12 12 -24.5t24 -16.5q23 10 61.5 40.5t68.5 60.5l6 -7q-51 -49 -86 -77.5t-68 -48.5zM397 714q6 5 12 7.5t12 2.5q7 0 13.5 -7.5t5.5 -13.5q0 -5 -3 -11.5t-8 -10.5q-2 -2 -7.5 -5.5t-20.5 -13.5q-52 -33 -85 -57t-61 -47q-1 -1 -1.5 -1h-1.5
q-2 0 -3.5 1.5t-1.5 3.5q0 1 1.5 2l1.5 1q29 24 60 54.5t71 77.5q9 10 12 13z" />
    <glyph glyph-name="icircumflex" unicode="&#xee;" horiz-adv-x="297" 
d="M20 0zM99 3q-2 -1 -8 -2t-13 -1t-14 1t-9 3q-14 11 -24 30t-11 35q0 16 13 45.5t93 158.5q68 107 77 125t11 32q2 16 -8 30t-22 15q-15 -3 -57 -34t-71 -60l-7 6q25 25 72.5 62.5t80.5 58.5q8 5 15 6t13 0q15 -5 30 -30.5t15 -46.5q0 -28 -48 -101t-51 -77
q-74 -119 -85 -144t-10 -39q1 -12 12 -24.5t24 -16.5q23 10 61.5 40.5t68.5 60.5l6 -7q-51 -49 -86 -77.5t-68 -48.5zM454 563q0 -7 -6 -11.5t-15 -4.5q-17 0 -25 6t-8 20q0 39 -6 70t-17 53q-1 3 -2.5 3.5t-4.5 -1.5q-38 -20 -66 -43t-56 -57q-9 -11 -20.5 -16.5
t-27.5 -5.5q-10 0 -15 3t-6 10q1 19 58 52.5t133 62.5q5 2 7.5 1t5.5 -5q30 -36 50.5 -77t20.5 -60z" />
    <glyph glyph-name="idieresis" unicode="&#xef;" horiz-adv-x="297" 
d="M20 0zM99 3q-2 -1 -8 -2t-13 -1t-14 1t-9 3q-14 11 -24 30t-11 35q0 16 13 45.5t93 158.5q68 107 77 125t11 32q2 16 -8 30t-22 15q-15 -3 -57 -34t-71 -60l-7 6q25 25 72.5 62.5t80.5 58.5q8 5 15 6t13 0q15 -5 30 -30.5t15 -46.5q0 -28 -48 -101t-51 -77
q-74 -119 -85 -144t-10 -39q1 -12 12 -24.5t24 -16.5q23 10 61.5 40.5t68.5 60.5l6 -7q-51 -49 -86 -77.5t-68 -48.5zM416 610q-11 0 -15.5 1t-8.5 5q-6 10 7.5 39t26.5 36q4 2 13 3t21 1q10 0 19.5 -2t11.5 -5q2 -15 -16 -40t-33 -34q-5 -2 -11.5 -3t-14.5 -1zM221 610
q-11 0 -15 1t-8 5q-6 10 7.5 39t26.5 36q3 2 12 3t21 1q10 0 20 -2t12 -5q1 -16 -17.5 -41.5t-32.5 -32.5q-4 -2 -10.5 -3t-15.5 -1z" />
    <glyph glyph-name="eth" unicode="&#xf0;" horiz-adv-x="534" 
d="M268 33q-34 -19 -64 -29t-53 -10q-36 0 -68.5 23.5t-42.5 57.5q-14 49 -1.5 104t51.5 122q28 49 80.5 100t104.5 80q31 17 59 25.5t51 8.5q34 0 57 -20t31 -56q13 82 9 152t-24 125q-17 -9 -36 -19t-54 -29q-23 -12 -33.5 -18t-18.5 -10q-6 2 -10 8.5t0 12.5q45 17 84 33
t66 29q-21 52 -56 87t-83 53q-4 1 -1 5.5t7 2.5q49 -22 88 -57.5t66 -82.5q18 9 37 19.5t53 29.5q18 10 26.5 14.5t15.5 8.5q7 -1 10.5 -8t-0.5 -13q-58 -23 -93 -37t-46 -19q26 -48 39.5 -103t13.5 -115q0 -72 -18 -140.5t-53 -131.5q-37 -66 -89.5 -120.5t-104.5 -82.5z
M96 103q10 -34 29.5 -52t50.5 -21q21 -3 50.5 3.5t58.5 19.5q48 28 102 136t72 191q-8 45 -35.5 72t-68.5 32q-16 4 -33.5 2.5t-34.5 -7.5q-31 -17 -71 -64t-70 -102q-30 -57 -43 -110.5t-7 -99.5z" />
    <glyph glyph-name="ntilde" unicode="&#xf1;" horiz-adv-x="604" 
d="M0 0zM129 147q-17 -25 -36.5 -55.5t-53.5 -87.5q-7 -1 -11.5 -1.5t-9.5 -0.5q-18 0 -24 9.5t2 26.5q79 108 140 225.5t60 161.5q-1 15 -11.5 28t-22.5 16q-17 -3 -56 -32t-68 -60l-7 7q34 33 77 67.5t74 53.5q6 4 11 5.5t9 1.5q17 0 33.5 -28.5t17.5 -54.5
q1 -28 -19 -76.5t-81 -154.5q83 105 197 201.5t171 113.5q51 -11 40 -74t-83 -185q-64 -111 -73.5 -134.5t-9.5 -40.5q0 -13 8.5 -26t19.5 -17q23 10 63 40.5t68 59.5l6 -7q-51 -49 -86 -77.5t-68 -48.5q-4 -1 -8.5 -2t-9.5 -1q-6 0 -11.5 1t-9.5 3q-13 11 -22.5 30.5
t-10.5 37.5q0 17 8.5 40t30.5 61q9 16 28.5 48t28.5 47q56 96 69 144t-16 64q-56 -17 -167.5 -118.5t-186.5 -210.5zM271 583q-2 -3 -6 -1t0 6q29 42 55.5 62.5t52.5 20.5q12 0 27.5 -3t48.5 -11q31 -9 45.5 -11.5t25.5 -2.5q19 0 32 15t27 53q2 5 6.5 3.5t2.5 -6.5
q-18 -47 -46.5 -77t-54.5 -30q-14 0 -31 3t-52 13q-31 8 -45 10.5t-24 2.5q-18 0 -32.5 -10.5t-31.5 -36.5z" />
    <glyph glyph-name="ograve" unicode="&#xf2;" horiz-adv-x="533" 
d="M32 0zM265 34q-39 -22 -65.5 -31t-48.5 -9q-36 0 -68.5 23t-42.5 56q-14 50 -2 104.5t52 122.5q29 49 81.5 100.5t103.5 80.5q33 18 63.5 27t56.5 9q34 0 63 -22.5t39 -57.5q13 -40 -1 -104t-54 -133q-28 -48 -74.5 -91.5t-102.5 -74.5zM94 102q10 -35 34.5 -53.5
t60.5 -18.5q22 0 49.5 6.5t45.5 16.5q21 12 43 38t44 63q37 60 57.5 126t16.5 115q-5 45 -30.5 70t-67.5 25q-17 0 -31 -2t-27 -7q-27 -15 -56.5 -46t-57.5 -74q-46 -70 -67 -136.5t-14 -122.5zM407 558q-1 0 -1.5 0.5l-1.5 1.5q-16 20 -38 42t-59 55q-13 12 -17.5 16
t-6.5 6q-5 4 -8.5 12.5t-2.5 14.5t8 12t14 6q5 0 10 -3.5t13 -12.5q2 -2 5 -7t12 -21q25 -44 42 -70t33 -45l1.5 -1.5t0.5 -1.5q0 -2 -1 -3t-3 -1z" />
    <glyph glyph-name="oacute" unicode="&#xf3;" horiz-adv-x="533" 
d="M32 0zM265 34q-39 -22 -65.5 -31t-48.5 -9q-36 0 -68.5 23t-42.5 56q-14 50 -2 104.5t52 122.5q29 49 81.5 100.5t103.5 80.5q33 18 63.5 27t56.5 9q34 0 63 -22.5t39 -57.5q13 -40 -1 -104t-54 -133q-28 -48 -74.5 -91.5t-102.5 -74.5zM94 102q10 -35 34.5 -53.5
t60.5 -18.5q22 0 49.5 6.5t45.5 16.5q21 12 43 38t44 63q37 60 57.5 126t16.5 115q-5 45 -30.5 70t-67.5 25q-17 0 -31 -2t-27 -7q-27 -15 -56.5 -46t-57.5 -74q-46 -70 -67 -136.5t-14 -122.5zM467 714q6 5 12 7.5t12 2.5q7 0 13.5 -7.5t5.5 -13.5q0 -5 -3 -11.5t-8 -10.5
q-2 -2 -7.5 -5.5t-20.5 -13.5q-52 -33 -85 -57t-61 -47q-1 -1 -1.5 -1h-1.5q-2 0 -3.5 1.5t-1.5 3.5q0 1 1.5 2l1.5 1q29 24 60 54.5t71 77.5q9 10 12 13z" />
    <glyph glyph-name="ocircumflex" unicode="&#xf4;" horiz-adv-x="533" 
d="M32 0zM265 34q-39 -22 -65.5 -31t-48.5 -9q-36 0 -68.5 23t-42.5 56q-14 50 -2 104.5t52 122.5q29 49 81.5 100.5t103.5 80.5q33 18 63.5 27t56.5 9q34 0 63 -22.5t39 -57.5q13 -40 -1 -104t-54 -133q-28 -48 -74.5 -91.5t-102.5 -74.5zM94 102q10 -35 34.5 -53.5
t60.5 -18.5q22 0 49.5 6.5t45.5 16.5q21 12 43 38t44 63q37 60 57.5 126t16.5 115q-5 45 -30.5 70t-67.5 25q-17 0 -31 -2t-27 -7q-27 -15 -56.5 -46t-57.5 -74q-46 -70 -67 -136.5t-14 -122.5zM524 563q0 -7 -6 -11.5t-15 -4.5q-17 0 -25 6t-8 20q0 39 -6 70t-17 53
q-1 3 -2.5 3.5t-4.5 -1.5q-38 -20 -66 -43t-56 -57q-9 -11 -20.5 -16.5t-27.5 -5.5q-10 0 -15 3t-6 10q1 19 58 52.5t133 62.5q5 2 7.5 1t5.5 -5q30 -36 50.5 -77t20.5 -60z" />
    <glyph glyph-name="otilde" unicode="&#xf5;" horiz-adv-x="533" 
d="M32 0zM265 34q-39 -22 -65.5 -31t-48.5 -9q-36 0 -68.5 23t-42.5 56q-14 50 -2 104.5t52 122.5q29 49 81.5 100.5t103.5 80.5q33 18 63.5 27t56.5 9q34 0 63 -22.5t39 -57.5q13 -40 -1 -104t-54 -133q-28 -48 -74.5 -91.5t-102.5 -74.5zM94 102q10 -35 34.5 -53.5
t60.5 -18.5q22 0 49.5 6.5t45.5 16.5q21 12 43 38t44 63q37 60 57.5 126t16.5 115q-5 45 -30.5 70t-67.5 25q-17 0 -31 -2t-27 -7q-27 -15 -56.5 -46t-57.5 -74q-46 -70 -67 -136.5t-14 -122.5zM230 583q-2 -3 -6 -1t0 6q29 42 55.5 62.5t52.5 20.5q12 0 27.5 -3t48.5 -11
q31 -9 45.5 -11.5t25.5 -2.5q19 0 32 15t27 53q2 5 6.5 3.5t2.5 -6.5q-18 -47 -46.5 -77t-54.5 -30q-14 0 -31 3t-52 13q-31 8 -45 10.5t-24 2.5q-18 0 -32.5 -10.5t-31.5 -36.5z" />
    <glyph glyph-name="odieresis" unicode="&#xf6;" horiz-adv-x="533" 
d="M32 0zM265 34q-39 -22 -65.5 -31t-48.5 -9q-36 0 -68.5 23t-42.5 56q-14 50 -2 104.5t52 122.5q29 49 81.5 100.5t103.5 80.5q33 18 63.5 27t56.5 9q34 0 63 -22.5t39 -57.5q13 -40 -1 -104t-54 -133q-28 -48 -74.5 -91.5t-102.5 -74.5zM94 102q10 -35 34.5 -53.5
t60.5 -18.5q22 0 49.5 6.5t45.5 16.5q21 12 43 38t44 63q37 60 57.5 126t16.5 115q-5 45 -30.5 70t-67.5 25q-17 0 -31 -2t-27 -7q-27 -15 -56.5 -46t-57.5 -74q-46 -70 -67 -136.5t-14 -122.5zM486 610q-11 0 -15.5 1t-8.5 5q-6 10 7.5 39t26.5 36q4 2 13 3t21 1
q10 0 19.5 -2t11.5 -5q2 -15 -16 -40t-33 -34q-5 -2 -11.5 -3t-14.5 -1zM291 610q-11 0 -15 1t-8 5q-6 10 7.5 39t26.5 36q3 2 12 3t21 1q10 0 20 -2t12 -5q1 -16 -17.5 -41.5t-32.5 -32.5q-4 -2 -10.5 -3t-15.5 -1z" />
    <glyph glyph-name="divide" unicode="&#xf7;" 
d="M358 473q0 -15 -11.5 -26.5t-26.5 -11.5q-16 0 -27 11t-11 27t11 27t27 11q15 0 26.5 -11.5t11.5 -26.5zM317 341q38 0 70.5 1t100.5 5q5 -4 5 -12.5t-5 -11.5q-65 5 -97 6t-73 1t-73 -1t-97 -6q-5 3 -5 11.5t5 12.5q69 -4 100.5 -5t68.5 -1zM358 199q0 -15 -11.5 -26.5
t-26.5 -11.5q-16 0 -27 11t-11 27t11 27t27 11q15 0 26.5 -11.5t11.5 -26.5z" />
    <glyph glyph-name="oslash" unicode="&#xf8;" horiz-adv-x="533" 
d="M54 45q-14 -13 -39 -37t-30 -29q-9 -4 -17 -1.5t-9 9.5q6 5 37.5 32.5t47.5 42.5q-19 50 -7.5 108t53.5 130q29 49 81.5 100.5t103.5 80.5q33 18 63.5 27t56.5 9t49.5 -13.5t39.5 -37.5q10 10 21.5 21t40.5 39q9 2 15.5 -0.5t8.5 -8.5q-23 -20 -42 -36.5t-35 -31.5
q17 -41 4 -108.5t-55 -140.5q-28 -48 -74.5 -91.5t-102.5 -74.5q-39 -22 -65.5 -31t-48.5 -9q-27 0 -54 14t-43 37zM289 481q-27 -15 -56.5 -46t-57.5 -74q-46 -71 -67.5 -139.5t-12.5 -122.5q68 61 100 91t66 64q49 46 110 106.5t67 66.5q-11 30 -34.5 46.5t-56.5 16.5
q-17 0 -31 -2t-27 -7zM101 83q12 -26 35 -39.5t53 -13.5q22 0 49.5 6.5t45.5 16.5q21 12 43 38t44 63q40 65 60.5 134.5t11.5 120.5q-67 -62 -102.5 -95.5t-71.5 -68.5q-22 -21 -64 -61.5t-104 -100.5z" />
    <glyph glyph-name="ugrave" unicode="&#xf9;" horiz-adv-x="598" 
d="M27 0zM441 313q-86 -114 -190 -211t-149 -105q-27 2 -50.5 24.5t-24.5 51.5q2 26 48 104.5t48 81.5q65 114 72.5 134t7.5 35q-1 14 -11 26t-23 15q-17 -3 -56.5 -32t-68.5 -60l-7 7q33 32 76.5 67t75.5 54q9 5 13 6t7 1q18 -1 34.5 -29t17.5 -54q0 -15 -11.5 -41.5
t-78.5 -141.5q-4 -7 -40 -69.5t-44 -88.5q-4 -19 11.5 -35.5t35.5 -16.5q36 0 140 100.5t185 217.5q11 16 24 37.5t37 61.5q13 23 18.5 32.5t9.5 15.5q7 3 15 4.5t14 1.5q16 0 21.5 -9.5t-2.5 -25.5q-25 -36 -55 -83t-59 -96q-44 -78 -70 -135t-27 -79q-1 -11 10.5 -25
t23.5 -18q23 10 63 40.5t68 59.5l6 -7q-51 -49 -86 -77.5t-68 -48.5q-2 -1 -7.5 -2t-12.5 -1q-8 0 -15 1t-10 3q-13 11 -22 30t-10 37q-1 16 10.5 45t39.5 79q9 17 31.5 56.5t34.5 61.5zM453 558q-1 0 -1.5 0.5l-1.5 1.5q-16 20 -38 42t-59 55q-13 12 -17.5 16t-6.5 6
q-5 4 -8.5 12.5t-2.5 14.5t8 12t14 6q5 0 10 -3.5t13 -12.5q2 -2 5 -7t12 -21q25 -44 42 -70t33 -45l1.5 -1.5t0.5 -1.5q0 -2 -1 -3t-3 -1z" />
    <glyph glyph-name="uacute" unicode="&#xfa;" horiz-adv-x="598" 
d="M27 0zM441 313q-86 -114 -190 -211t-149 -105q-27 2 -50.5 24.5t-24.5 51.5q2 26 48 104.5t48 81.5q65 114 72.5 134t7.5 35q-1 14 -11 26t-23 15q-17 -3 -56.5 -32t-68.5 -60l-7 7q33 32 76.5 67t75.5 54q9 5 13 6t7 1q18 -1 34.5 -29t17.5 -54q0 -15 -11.5 -41.5
t-78.5 -141.5q-4 -7 -40 -69.5t-44 -88.5q-4 -19 11.5 -35.5t35.5 -16.5q36 0 140 100.5t185 217.5q11 16 24 37.5t37 61.5q13 23 18.5 32.5t9.5 15.5q7 3 15 4.5t14 1.5q16 0 21.5 -9.5t-2.5 -25.5q-25 -36 -55 -83t-59 -96q-44 -78 -70 -135t-27 -79q-1 -11 10.5 -25
t23.5 -18q23 10 63 40.5t68 59.5l6 -7q-51 -49 -86 -77.5t-68 -48.5q-2 -1 -7.5 -2t-12.5 -1q-8 0 -15 1t-10 3q-13 11 -22 30t-10 37q-1 16 10.5 45t39.5 79q9 17 31.5 56.5t34.5 61.5zM513 714q6 5 12 7.5t12 2.5q7 0 13.5 -7.5t5.5 -13.5q0 -5 -3 -11.5t-8 -10.5
q-2 -2 -7.5 -5.5t-20.5 -13.5q-52 -33 -85 -57t-61 -47q-1 -1 -1.5 -1h-1.5q-2 0 -3.5 1.5t-1.5 3.5q0 1 1.5 2l1.5 1q29 24 60 54.5t71 77.5q9 10 12 13z" />
    <glyph glyph-name="ucircumflex" unicode="&#xfb;" horiz-adv-x="598" 
d="M27 0zM441 313q-86 -114 -190 -211t-149 -105q-27 2 -50.5 24.5t-24.5 51.5q2 26 48 104.5t48 81.5q65 114 72.5 134t7.5 35q-1 14 -11 26t-23 15q-17 -3 -56.5 -32t-68.5 -60l-7 7q33 32 76.5 67t75.5 54q9 5 13 6t7 1q18 -1 34.5 -29t17.5 -54q0 -15 -11.5 -41.5
t-78.5 -141.5q-4 -7 -40 -69.5t-44 -88.5q-4 -19 11.5 -35.5t35.5 -16.5q36 0 140 100.5t185 217.5q11 16 24 37.5t37 61.5q13 23 18.5 32.5t9.5 15.5q7 3 15 4.5t14 1.5q16 0 21.5 -9.5t-2.5 -25.5q-25 -36 -55 -83t-59 -96q-44 -78 -70 -135t-27 -79q-1 -11 10.5 -25
t23.5 -18q23 10 63 40.5t68 59.5l6 -7q-51 -49 -86 -77.5t-68 -48.5q-2 -1 -7.5 -2t-12.5 -1q-8 0 -15 1t-10 3q-13 11 -22 30t-10 37q-1 16 10.5 45t39.5 79q9 17 31.5 56.5t34.5 61.5zM570 563q0 -7 -6 -11.5t-15 -4.5q-17 0 -25 6t-8 20q0 39 -6 70t-17 53q-1 3 -2.5 3.5
t-4.5 -1.5q-38 -20 -66 -43t-56 -57q-9 -11 -20.5 -16.5t-27.5 -5.5q-10 0 -15 3t-6 10q1 19 58 52.5t133 62.5q5 2 7.5 1t5.5 -5q30 -36 50.5 -77t20.5 -60z" />
    <glyph glyph-name="udieresis" unicode="&#xfc;" horiz-adv-x="598" 
d="M27 0zM441 313q-86 -114 -190 -211t-149 -105q-27 2 -50.5 24.5t-24.5 51.5q2 26 48 104.5t48 81.5q65 114 72.5 134t7.5 35q-1 14 -11 26t-23 15q-17 -3 -56.5 -32t-68.5 -60l-7 7q33 32 76.5 67t75.5 54q9 5 13 6t7 1q18 -1 34.5 -29t17.5 -54q0 -15 -11.5 -41.5
t-78.5 -141.5q-4 -7 -40 -69.5t-44 -88.5q-4 -19 11.5 -35.5t35.5 -16.5q36 0 140 100.5t185 217.5q11 16 24 37.5t37 61.5q13 23 18.5 32.5t9.5 15.5q7 3 15 4.5t14 1.5q16 0 21.5 -9.5t-2.5 -25.5q-25 -36 -55 -83t-59 -96q-44 -78 -70 -135t-27 -79q-1 -11 10.5 -25
t23.5 -18q23 10 63 40.5t68 59.5l6 -7q-51 -49 -86 -77.5t-68 -48.5q-2 -1 -7.5 -2t-12.5 -1q-8 0 -15 1t-10 3q-13 11 -22 30t-10 37q-1 16 10.5 45t39.5 79q9 17 31.5 56.5t34.5 61.5zM532 610q-11 0 -15.5 1t-8.5 5q-6 10 7.5 39t26.5 36q4 2 13 3t21 1q10 0 19.5 -2
t11.5 -5q2 -15 -16 -40t-33 -34q-5 -2 -11.5 -3t-14.5 -1zM337 610q-11 0 -15 1t-8 5q-6 10 7.5 39t26.5 36q3 2 12 3t21 1q10 0 20 -2t12 -5q1 -16 -17.5 -41.5t-32.5 -32.5q-4 -2 -10.5 -3t-15.5 -1z" />
    <glyph glyph-name="yacute" unicode="&#xfd;" horiz-adv-x="586" 
d="M0 0zM59 -124q-91 -78 -188.5 -117t-201.5 -39q-14 0 -22.5 2t-12.5 6q-3 2 -4 4t-1 5q0 9 11 22.5t22 18.5h90q90 0 163.5 25t137.5 78q42 35 54 46.5t21 20.5q31 94 50 220.5t19 217.5q0 27 -5.5 47t-16.5 31q-5 4 -10.5 6t-14.5 2q-11 -2 -48.5 -30t-64.5 -54l-6 7
q30 28 71.5 60.5t70.5 49.5q6 3 11.5 5t10.5 2q6 0 13.5 -3t12.5 -8q15 -15 23 -41t8 -60q0 -76 -16 -191.5t-42 -198.5q32 31 85.5 85t90.5 93q79 83 116 136.5t38 86.5q-1 23 -12 39t-28 20q-14 -3 -46.5 -27t-65.5 -55l-7 7q22 21 62.5 53t69.5 50q15 9 20.5 11.5
t10.5 3.5q20 0 35.5 -22.5t11.5 -49.5q-10 -38 -55 -97t-143 -162q-49 -52 -103.5 -106t-105.5 -102q-48 -44 -69.5 -63t-39.5 -35zM491 714q6 5 12 7.5t12 2.5q7 0 13.5 -7.5t5.5 -13.5q0 -5 -3 -11.5t-8 -10.5q-2 -2 -7.5 -5.5t-20.5 -13.5q-52 -33 -85 -57t-61 -47
q-1 -1 -1.5 -1h-1.5q-2 0 -3.5 1.5t-1.5 3.5q0 1 1.5 2l1.5 1q29 24 60 54.5t71 77.5q9 10 12 13z" />
    <glyph glyph-name="thorn" unicode="&#xfe;" horiz-adv-x="575" 
d="M-192 -233q22 20 50 62.5t120 202.5q33 58 73 129t115 205q73 131 98.5 176.5t37.5 64.5q47 76 109 132.5t138 93.5q61 30 120.5 44.5t120.5 14.5q20 0 41.5 -1.5t33.5 -3.5q4 -1 6 -2.5t2 -4.5q0 -12 -13 -26.5t-24 -14.5q-10 0 -23 1t-42 4q-37 4 -56.5 5.5t-36.5 1.5
q-42 0 -71.5 -6t-54.5 -19q-42 -22 -83 -67t-87 -120q-21 -34 -47.5 -78.5t-83.5 -144.5q-57 -101 -88 -153.5t-58 -97.5q60 69 121 132.5t113 111.5q53 49 94 77.5t63 31.5q18 -4 32.5 -23t21.5 -47q10 -38 -3.5 -95.5t-40.5 -106.5q-34 -63 -86 -115.5t-116 -89.5
q-45 -25 -78 -35.5t-63 -10.5q-28 0 -55.5 21t-50.5 61q-15 -26 -58 -101.5t-80 -139.5q-10 -17 -28 -48t-19 -34q5 -8 48.5 -13.5t77.5 -5.5q8 0 7.5 -4.5t-9.5 -4.5q-5 0 -15 0.5t-36 1.5q-36 2 -52.5 2.5t-26.5 0.5q-13 0 -40 -1t-88 -5q-34 -2 -45 -2.5t-15 -0.5
q-7 0 -6.5 4t6.5 4q62 4 86.5 12t43.5 25zM456 478q-12 -2 -38.5 -21t-70.5 -57q-74 -64 -148.5 -143t-113.5 -134q33 -52 63.5 -75t65.5 -23q23 0 43.5 5.5t43.5 17.5q48 31 85 75.5t65 105.5q26 56 36.5 112t3.5 91q-5 21 -13 32t-22 14z" />
    <glyph glyph-name="ydieresis" unicode="&#xff;" horiz-adv-x="586" 
d="M0 0zM59 -124q-91 -78 -188.5 -117t-201.5 -39q-14 0 -22.5 2t-12.5 6q-3 2 -4 4t-1 5q0 9 11 22.5t22 18.5h90q90 0 163.5 25t137.5 78q42 35 54 46.5t21 20.5q31 94 50 220.5t19 217.5q0 27 -5.5 47t-16.5 31q-5 4 -10.5 6t-14.5 2q-11 -2 -48.5 -30t-64.5 -54l-6 7
q30 28 71.5 60.5t70.5 49.5q6 3 11.5 5t10.5 2q6 0 13.5 -3t12.5 -8q15 -15 23 -41t8 -60q0 -76 -16 -191.5t-42 -198.5q32 31 85.5 85t90.5 93q79 83 116 136.5t38 86.5q-1 23 -12 39t-28 20q-14 -3 -46.5 -27t-65.5 -55l-7 7q22 21 62.5 53t69.5 50q15 9 20.5 11.5
t10.5 3.5q20 0 35.5 -22.5t11.5 -49.5q-10 -38 -55 -97t-143 -162q-49 -52 -103.5 -106t-105.5 -102q-48 -44 -69.5 -63t-39.5 -35zM515 610q-11 0 -15.5 1t-8.5 5q-6 10 7.5 39t26.5 36q4 2 13 3t21 1q10 0 19.5 -2t11.5 -5q2 -15 -16 -40t-33 -34q-5 -2 -11.5 -3t-14.5 -1
zM320 610q-11 0 -15 1t-8 5q-6 10 7.5 39t26.5 36q3 2 12 3t21 1q10 0 20 -2t12 -5q1 -16 -17.5 -41.5t-32.5 -32.5q-4 -2 -10.5 -3t-15.5 -1z" />
    <glyph glyph-name="Amacron" unicode="&#x100;" horiz-adv-x="1349" 
d="M32 0zM561 176q-134 -150 -196.5 -195t-132.5 -45q-52 0 -95.5 24.5t-71.5 68.5q-29 45 -32.5 96.5t20.5 90.5q22 37 62 72.5t89 62.5q45 23 93.5 35.5t95.5 12.5q26 0 70 -0.5t260 -3.5q30 36 67.5 81.5t112.5 137.5q68 83 98 119.5t52 62.5q-63 0 -97 -1t-60 -3
q-29 -2 -62 -5.5t-87 -9.5q-35 -4 -47 -5t-17 -1q-4 0 -1.5 5.5t37.5 43.5q5 2 30.5 3t130.5 1h182q68 0 138 0.5t170 3.5q35 1 47.5 1h20.5q12 0 19 -0.5t12 -2.5q0 -10 -9.5 -23.5t-21.5 -20.5q-7 -2 -30 -1t-96 5q-83 5 -125.5 7t-74.5 2q-22 -138 -37.5 -234t-26.5 -171
q83 -1 132 -1.5t64 -0.5q25 0 57.5 -0.5t48.5 -1.5q3 0 4 -1t1 -3t-2 -4.5t-5 -5.5q-9 -9 -22 -16.5t-21 -8.5q-14 -2 -41.5 -2h-28.5q-33 0 -80.5 1t-112.5 4q-7 -47 -12 -80.5t-8 -59.5q-5 -37 -5 -69.5t6 -62.5q2 -13 15 -24.5t28 -15.5q22 8 81 53t87 73l6 -7
q-42 -40 -100 -86.5t-94 -68.5q-5 -3 -16 -3t-16 3q-17 10 -28.5 29t-14.5 40q-6 36 -5 64t7 70q9 59 14.5 96t7.5 51q-59 3 -129 6.5t-147 7.5q-29 -35 -89 -108t-69 -82zM1069 793l-329 -398q40 -1 87.5 -1.5t173.5 -2.5q16 98 34.5 208.5t33.5 193.5zM209 345
q-34 -19 -60 -49.5t-45 -74.5q-18 -42 -13 -88t31 -85t66 -60.5t88 -21.5q43 0 73 17.5t75 62.5q23 23 52 54.5t66 74.5q9 10 22 26t48 58q34 42 53 65t36 43q-147 7 -224.5 10t-120.5 3q-41 0 -79 -9t-68 -26zM1059 950h73h55t38 1q7 0 19.5 0.5t12.5 -1.5q0 -3 -14 -18
t-21 -23h-8h-23q-28 1 -40 1h-17q-21 0 -46 -1t-32 -1q-22 -2 -27 -1.5t-5 2.5q0 1 2 3.5t9 9.5q8 10 13.5 16t10.5 12z" />
    <glyph glyph-name="amacron" unicode="&#x101;" horiz-adv-x="589" 
d="M29 0zM98 3q-3 -2 -7.5 -3.5t-10.5 -1.5q-7 0 -11.5 1t-6.5 3q-30 23 -33 85.5t20 131.5q25 82 92 154t151 112q28 13 53 20t44 7q44 0 74 -18.5t64 -65.5q6 5 36 37.5t39 42.5q6 5 8.5 2.5t0.5 -5.5q-82 -103 -161 -238.5t-77 -182.5q0 -13 11 -26.5t26 -17.5
q20 8 60 38.5t69 60.5l6 -7q-56 -54 -90 -82t-65 -47q-3 -1 -7.5 -2t-10.5 -1q-7 0 -15 1.5t-10 2.5q-14 13 -24 34.5t-11 38.5q-1 22 11.5 53t39.5 76q14 22 40.5 62t35.5 55q-41 -46 -102 -106.5t-135 -128.5q-29 -25 -56 -47t-48 -38zM102 224q-16 -59 -14.5 -111.5
t20.5 -71.5q9 1 28 13.5t56 41.5q57 47 140.5 129.5t155.5 162.5q-36 55 -68 79.5t-69 24.5q-13 0 -26.5 -3t-28.5 -10q-61 -28 -116.5 -100t-77.5 -155zM371 626h73h55t38 1q7 0 19.5 0.5t12.5 -1.5q0 -3 -14 -18t-21 -23h-8h-23q-28 1 -40 1h-17q-21 0 -46 -1t-32 -1
q-22 -2 -27 -1.5t-5 2.5q0 1 2 3.5t9 9.5q8 10 13.5 16t10.5 12z" />
    <glyph glyph-name="Abreve" unicode="&#x102;" horiz-adv-x="1349" 
d="M32 0zM561 176q-134 -150 -196.5 -195t-132.5 -45q-52 0 -95.5 24.5t-71.5 68.5q-29 45 -32.5 96.5t20.5 90.5q22 37 62 72.5t89 62.5q45 23 93.5 35.5t95.5 12.5q26 0 70 -0.5t260 -3.5q30 36 67.5 81.5t112.5 137.5q68 83 98 119.5t52 62.5q-63 0 -97 -1t-60 -3
q-29 -2 -62 -5.5t-87 -9.5q-35 -4 -47 -5t-17 -1q-4 0 -1.5 5.5t37.5 43.5q5 2 30.5 3t130.5 1h182q68 0 138 0.5t170 3.5q35 1 47.5 1h20.5q12 0 19 -0.5t12 -2.5q0 -10 -9.5 -23.5t-21.5 -20.5q-7 -2 -30 -1t-96 5q-83 5 -125.5 7t-74.5 2q-22 -138 -37.5 -234t-26.5 -171
q83 -1 132 -1.5t64 -0.5q25 0 57.5 -0.5t48.5 -1.5q3 0 4 -1t1 -3t-2 -4.5t-5 -5.5q-9 -9 -22 -16.5t-21 -8.5q-14 -2 -41.5 -2h-28.5q-33 0 -80.5 1t-112.5 4q-7 -47 -12 -80.5t-8 -59.5q-5 -37 -5 -69.5t6 -62.5q2 -13 15 -24.5t28 -15.5q22 8 81 53t87 73l6 -7
q-42 -40 -100 -86.5t-94 -68.5q-5 -3 -16 -3t-16 3q-17 10 -28.5 29t-14.5 40q-6 36 -5 64t7 70q9 59 14.5 96t7.5 51q-59 3 -129 6.5t-147 7.5q-29 -35 -89 -108t-69 -82zM1069 793l-329 -398q40 -1 87.5 -1.5t173.5 -2.5q16 98 34.5 208.5t33.5 193.5zM209 345
q-34 -19 -60 -49.5t-45 -74.5q-18 -42 -13 -88t31 -85t66 -60.5t88 -21.5q43 0 73 17.5t75 62.5q23 23 52 54.5t66 74.5q9 10 22 26t48 58q34 42 53 65t36 43q-147 7 -224.5 10t-120.5 3q-41 0 -79 -9t-68 -26zM1265 992q-30 -48 -65 -70.5t-78 -22.5q-45 0 -75.5 20.5
t-41.5 59.5q-2 7 2.5 12t17.5 10q12 5 18.5 3.5t9.5 -9.5q9 -39 31.5 -59t56.5 -20q36 0 65 22t42 58q2 4 4.5 6t5.5 2q6 0 8 -4t-1 -8z" />
    <glyph glyph-name="abreve" unicode="&#x103;" horiz-adv-x="589" 
d="M29 0zM98 3q-3 -2 -7.5 -3.5t-10.5 -1.5q-7 0 -11.5 1t-6.5 3q-30 23 -33 85.5t20 131.5q25 82 92 154t151 112q28 13 53 20t44 7q44 0 74 -18.5t64 -65.5q6 5 36 37.5t39 42.5q6 5 8.5 2.5t0.5 -5.5q-82 -103 -161 -238.5t-77 -182.5q0 -13 11 -26.5t26 -17.5
q20 8 60 38.5t69 60.5l6 -7q-56 -54 -90 -82t-65 -47q-3 -1 -7.5 -2t-10.5 -1q-7 0 -15 1.5t-10 2.5q-14 13 -24 34.5t-11 38.5q-1 22 11.5 53t39.5 76q14 22 40.5 62t35.5 55q-41 -46 -102 -106.5t-135 -128.5q-29 -25 -56 -47t-48 -38zM102 224q-16 -59 -14.5 -111.5
t20.5 -71.5q9 1 28 13.5t56 41.5q57 47 140.5 129.5t155.5 162.5q-36 55 -68 79.5t-69 24.5q-13 0 -26.5 -3t-28.5 -10q-61 -28 -116.5 -100t-77.5 -155zM577 668q-30 -48 -65 -70.5t-78 -22.5q-45 0 -75.5 20.5t-41.5 59.5q-2 7 2.5 12t17.5 10q12 5 18.5 3.5t9.5 -9.5
q9 -39 31.5 -59t56.5 -20q36 0 65 22t42 58q2 4 4.5 6t5.5 2q6 0 8 -4t-1 -8z" />
    <glyph glyph-name="Aogonek" unicode="&#x104;" horiz-adv-x="1349" 
d="M561 176q-134 -150 -196.5 -195t-132.5 -45q-52 0 -95.5 24.5t-71.5 67.5q-29 46 -32.5 97.5t19.5 90.5q23 38 63 73.5t89 61.5q45 23 93.5 35.5t95.5 12.5q26 0 70 -0.5t260 -3.5q30 36 67.5 81.5t112.5 137.5q68 83 98 119.5t52 62.5q-63 0 -97 -1t-60 -3
q-29 -2 -62 -5.5t-87 -9.5q-35 -4 -47 -5t-17 -1q-4 0 -1.5 5.5t37.5 43.5q5 2 30.5 3t130.5 1h182q68 0 138 0.5t170 3.5q35 1 47.5 1h20.5q12 0 19 -0.5t12 -2.5q0 -10 -9.5 -23.5t-21.5 -20.5q-8 -2 -45 -1t-141 8q-69 4 -95.5 5t-39.5 1h-2.5h-2.5q-22 -138 -37.5 -234
t-26.5 -171q83 -1 132 -1.5t64 -0.5q25 0 57.5 -0.5t48.5 -1.5q3 0 4 -1t1 -3t-2 -4.5t-5 -5.5q-9 -9 -22 -16.5t-21 -8.5q-14 -2 -41.5 -2h-28.5q-33 0 -80.5 1t-112.5 4q-7 -47 -12 -80.5t-8 -59.5q-5 -37 -5.5 -67t6.5 -65q2 -13 15 -24.5t28 -15.5q22 8 81 53t87 73
l6 -7q-39 -37 -98 -84.5t-98 -71.5q-55 -34 -80 -64t-25 -63q0 -25 15 -39.5t41 -14.5q17 0 31 4.5t30 15.5q6 3 -8 -23.5t-25 -33.5q-13 -7 -23.5 -10t-23.5 -3q-36 0 -56 23.5t-15 60.5q3 35 34.5 73t86.5 73q-5 1 -9.5 2t-6.5 2q-15 11 -25.5 29t-13.5 38q-6 39 -5 67
t7 67q9 59 14.5 96t7.5 51q-59 3 -129 6.5t-147 7.5q-29 -35 -89 -108t-69 -82zM1069 793l-329 -398q40 -1 87.5 -1.5t173.5 -2.5q16 98 34.5 208.5t33.5 193.5zM209 345q-34 -19 -60 -49.5t-45 -74.5q-18 -42 -13 -88t31 -85t66 -60.5t88 -21.5q43 0 73 17.5t75 62.5
q23 23 52 54.5t66 74.5q9 10 22 26t48 58q34 42 53 65t36 43q-147 7 -224.5 10t-120.5 3q-41 0 -79 -9t-68 -26z" />
    <glyph glyph-name="aogonek" unicode="&#x105;" horiz-adv-x="589" 
d="M421 -159q6 3 -7.5 -23.5t-25.5 -33.5q-11 -7 -21.5 -10t-24.5 -3q-36 0 -56.5 23.5t-15.5 59.5q3 35 30 72.5t74 73.5h-1.5h-1.5q-7 0 -14.5 1t-9.5 3q-14 13 -24 34.5t-11 38.5q-1 22 11 53t40 76q13 22 39.5 61.5t36.5 55.5q-42 -48 -104 -109t-134 -126
q-27 -24 -53.5 -46t-49.5 -39q-3 -2 -7.5 -3.5t-10.5 -1.5q-7 0 -11.5 1t-6.5 3q-31 23 -34 86t21 131q25 82 92 154t151 112q27 13 52 20t45 7q44 0 74 -18.5t64 -65.5q6 5 36 37.5t39 42.5q5 5 7.5 2.5t1.5 -5.5q-82 -103 -161 -238.5t-78 -182.5q1 -13 12 -26.5t26 -17.5
q20 8 60 38.5t69 60.5l6 -7q-39 -38 -71 -65.5t-61 -47.5q-57 -41 -82.5 -74t-25.5 -70q0 -25 14.5 -39.5t40.5 -14.5q18 0 32.5 4.5t28.5 15.5zM102 224q-17 -60 -15 -112t21 -71q10 1 29.5 14t53.5 41q58 47 141 129t156 163q-36 55 -68 79.5t-69 24.5q-13 0 -26.5 -3
t-28.5 -10q-62 -28 -117.5 -100.5t-76.5 -154.5z" />
    <glyph glyph-name="Cacute" unicode="&#x106;" horiz-adv-x="775" 
d="M66 0zM705 121q-77 -98 -171 -155t-183 -57q-110 0 -183.5 59.5t-94.5 164.5q-17 87 6 184.5t83 185.5q96 141 244 232t297 91q68 0 131.5 -21t119.5 -62q2 -2 2.5 -3t0.5 -2q0 -6 -16.5 -18t-25.5 -12q-3 0 -6.5 1t-6.5 3q-6 3 -48.5 27t-77.5 37q-34 13 -68.5 19
t-71.5 6q-113 0 -226.5 -76.5t-195.5 -203.5q-54 -84 -75.5 -177t-6.5 -176q19 -103 86.5 -161.5t170.5 -58.5q80 0 164.5 49.5t144.5 128.5q3 3 6.5 1.5t0.5 -6.5zM787 1038q6 5 12 7.5t12 2.5q7 0 13.5 -7.5t5.5 -13.5q0 -5 -3 -11.5t-8 -10.5q-2 -2 -7.5 -5.5
t-20.5 -13.5q-52 -33 -85 -57t-61 -47q-1 -1 -1.5 -1h-1.5q-2 0 -3.5 1.5t-1.5 3.5q0 1 1.5 2l1.5 1q29 24 60 54.5t71 77.5q9 10 12 13z" />
    <glyph glyph-name="cacute" unicode="&#x107;" horiz-adv-x="484" 
d="M35 0zM269 35q-46 -26 -71 -33.5t-49 -7.5q-35 0 -65.5 21.5t-40.5 56.5q-15 55 -3 110t50 118q28 51 82 101t115 82q32 17 61.5 25t60.5 8q44 0 69.5 -16.5t25.5 -43.5q0 -18 -13 -31.5t-32 -17.5q-8 39 -35.5 61t-69.5 22q-18 0 -32 -2.5t-32 -9.5q-36 -23 -72.5 -64.5
t-66.5 -93.5q-33 -57 -47 -113t-6 -106q9 -30 28 -47t46 -20q24 -4 55 3t64 24q21 10 54.5 38t55.5 54l8 -6q-31 -34 -66.5 -63t-73.5 -49zM494 714q6 5 12 7.5t12 2.5q7 0 13.5 -7.5t5.5 -13.5q0 -5 -3 -11.5t-8 -10.5q-2 -2 -7.5 -5.5t-20.5 -13.5q-52 -33 -85 -57
t-61 -47q-1 -1 -1.5 -1h-1.5q-2 0 -3.5 1.5t-1.5 3.5q0 1 1.5 2l1.5 1q29 24 60 54.5t71 77.5q9 10 12 13z" />
    <glyph glyph-name="Ccircumflex" unicode="&#x108;" horiz-adv-x="775" 
d="M66 0zM705 121q-77 -98 -171 -155t-183 -57q-110 0 -183.5 59.5t-94.5 164.5q-17 87 6 184.5t83 185.5q96 141 244 232t297 91q68 0 131.5 -21t119.5 -62q2 -2 2.5 -3t0.5 -2q0 -6 -16.5 -18t-25.5 -12q-3 0 -6.5 1t-6.5 3q-6 3 -48.5 27t-77.5 37q-34 13 -68.5 19
t-71.5 6q-113 0 -226.5 -76.5t-195.5 -203.5q-54 -84 -75.5 -177t-6.5 -176q19 -103 86.5 -161.5t170.5 -58.5q80 0 164.5 49.5t144.5 128.5q3 3 6.5 1.5t0.5 -6.5zM844 887q0 -7 -6 -11.5t-15 -4.5q-17 0 -25 6t-8 20q0 39 -6 70t-17 53q-1 3 -2.5 3.5t-4.5 -1.5
q-38 -20 -66 -43t-56 -57q-9 -11 -20.5 -16.5t-27.5 -5.5q-10 0 -15 3t-6 10q1 19 58 52.5t133 62.5q5 2 7.5 1t5.5 -5q30 -36 50.5 -77t20.5 -60z" />
    <glyph glyph-name="ccircumflex" unicode="&#x109;" horiz-adv-x="484" 
d="M35 0zM269 35q-46 -26 -71 -33.5t-49 -7.5q-35 0 -65.5 21.5t-40.5 56.5q-15 55 -3 110t50 118q28 51 82 101t115 82q32 17 61.5 25t60.5 8q44 0 69.5 -16.5t25.5 -43.5q0 -18 -13 -31.5t-32 -17.5q-8 39 -35.5 61t-69.5 22q-18 0 -32 -2.5t-32 -9.5q-36 -23 -72.5 -64.5
t-66.5 -93.5q-33 -57 -47 -113t-6 -106q9 -30 28 -47t46 -20q24 -4 55 3t64 24q21 10 54.5 38t55.5 54l8 -6q-31 -34 -66.5 -63t-73.5 -49zM551 563q0 -7 -6 -11.5t-15 -4.5q-17 0 -25 6t-8 20q0 39 -6 70t-17 53q-1 3 -2.5 3.5t-4.5 -1.5q-38 -20 -66 -43t-56 -57
q-9 -11 -20.5 -16.5t-27.5 -5.5q-10 0 -15 3t-6 10q1 19 58 52.5t133 62.5q5 2 7.5 1t5.5 -5q30 -36 50.5 -77t20.5 -60z" />
    <glyph glyph-name="Cdotaccent" unicode="&#x10a;" horiz-adv-x="775" 
d="M66 0zM705 121q-77 -98 -171 -155t-183 -57q-110 0 -183.5 59.5t-94.5 164.5q-17 87 6 184.5t83 185.5q96 141 244 232t297 91q68 0 131.5 -21t119.5 -62q2 -2 2.5 -3t0.5 -2q0 -6 -16.5 -18t-25.5 -12q-3 0 -6.5 1t-6.5 3q-6 3 -48.5 27t-77.5 37q-34 13 -68.5 19
t-71.5 6q-113 0 -226.5 -76.5t-195.5 -203.5q-54 -84 -75.5 -177t-6.5 -176q19 -103 86.5 -161.5t170.5 -58.5q80 0 164.5 49.5t144.5 128.5q3 3 6.5 1.5t0.5 -6.5zM712 941q-13 0 -17.5 1.5t-8.5 5.5q-6 10 8.5 41.5t28.5 38.5q3 3 13.5 4.5t22.5 1.5q11 0 21.5 -2.5
t12.5 -6.5q2 -16 -18.5 -43.5t-35.5 -35.5q-3 -2 -10 -3.5t-17 -1.5z" />
    <glyph glyph-name="cdotaccent" unicode="&#x10b;" horiz-adv-x="484" 
d="M35 0zM269 35q-46 -26 -71 -33.5t-49 -7.5q-35 0 -65.5 21.5t-40.5 56.5q-15 55 -3 110t50 118q28 51 82 101t115 82q32 17 61.5 25t60.5 8q44 0 69.5 -16.5t25.5 -43.5q0 -18 -13 -31.5t-32 -17.5q-8 39 -35.5 61t-69.5 22q-18 0 -32 -2.5t-32 -9.5q-36 -23 -72.5 -64.5
t-66.5 -93.5q-33 -57 -47 -113t-6 -106q9 -30 28 -47t46 -20q24 -4 55 3t64 24q21 10 54.5 38t55.5 54l8 -6q-31 -34 -66.5 -63t-73.5 -49zM419 617q-13 0 -17.5 1.5t-8.5 5.5q-6 10 8.5 41.5t28.5 38.5q3 3 13.5 4.5t22.5 1.5q11 0 21.5 -2.5t12.5 -6.5q2 -16 -18.5 -43.5
t-35.5 -35.5q-3 -2 -10 -3.5t-17 -1.5z" />
    <glyph glyph-name="Ccaron" unicode="&#x10c;" horiz-adv-x="775" 
d="M66 0zM705 121q-77 -98 -171 -155t-183 -57q-110 0 -183.5 59.5t-94.5 164.5q-17 87 6 184.5t83 185.5q96 141 244 232t297 91q68 0 131.5 -21t119.5 -62q2 -2 2.5 -3t0.5 -2q0 -6 -16.5 -18t-25.5 -12q-3 0 -6.5 1t-6.5 3q-6 3 -48.5 27t-77.5 37q-34 13 -68.5 19
t-71.5 6q-113 0 -226.5 -76.5t-195.5 -203.5q-54 -84 -75.5 -177t-6.5 -176q19 -103 86.5 -161.5t170.5 -58.5q80 0 164.5 49.5t144.5 128.5q3 3 6.5 1.5t0.5 -6.5zM624 1021q1 7 6 11t14 4q18 0 26 -5.5t8 -19.5q0 -39 6 -70t17 -53q1 -3 3 -3.5t5 1.5q36 19 65 42.5
t57 57.5q9 11 20.5 16t27.5 5q10 0 15 -3.5t5 -9.5q0 -18 -54.5 -50.5t-136.5 -64.5q-4 -1 -6.5 -0.5t-6.5 4.5q-28 34 -49 76t-22 62z" />
    <glyph glyph-name="ccaron" unicode="&#x10d;" horiz-adv-x="484" 
d="M35 0zM269 35q-46 -26 -71 -33.5t-49 -7.5q-35 0 -65.5 21.5t-40.5 56.5q-15 55 -3 110t50 118q28 51 82 101t115 82q32 17 61.5 25t60.5 8q44 0 69.5 -16.5t25.5 -43.5q0 -18 -13 -31.5t-32 -17.5q-8 39 -35.5 61t-69.5 22q-18 0 -32 -2.5t-32 -9.5q-36 -23 -72.5 -64.5
t-66.5 -93.5q-33 -57 -47 -113t-6 -106q9 -30 28 -47t46 -20q24 -4 55 3t64 24q21 10 54.5 38t55.5 54l8 -6q-31 -34 -66.5 -63t-73.5 -49zM331 697q1 7 6 11t14 4q18 0 26 -5.5t8 -19.5q0 -39 6 -70t17 -53q1 -3 3 -3.5t5 1.5q36 19 65 42.5t57 57.5q9 11 20.5 16t27.5 5
q10 0 15 -3.5t5 -9.5q0 -18 -54.5 -50.5t-136.5 -64.5q-4 -1 -6.5 -0.5t-6.5 4.5q-28 34 -49 76t-22 62z" />
    <glyph glyph-name="Dcaron" unicode="&#x10e;" horiz-adv-x="1138" 
d="M52 0zM126 -3q-19 -1 -25 -1h-9q-15 0 -25 3.5t-15 9.5q-1 11 12.5 31t26.5 26q8 1 21.5 -1t50.5 -10q54 -12 83 -16t53 -4q26 0 48 8.5t41 26.5q26 23 49 60.5t50 102.5q9 23 32 83.5t38 95.5q73 179 125 253.5t114 111.5l3 -3q-27 -19 -54 -60.5t-59 -115.5
q-13 -32 -39.5 -98t-39.5 -97q-71 -175 -128 -254t-131 -115q58 -1 147 0.5t164 4.5q88 3 157 23.5t119 58.5q32 24 57.5 57.5t44.5 76.5q45 99 40.5 200.5t-57.5 182.5q-52 79 -141.5 122t-204.5 43q-75 0 -139 -15t-117 -44q-69 -37 -120 -96.5t-83 -138.5
q-10 -24 -22 -34t-30 -10q-20 0 -23.5 13t11.5 36q41 68 108.5 130t152.5 108q76 40 154.5 61t154.5 20q114 0 203.5 -43.5t143.5 -124.5q55 -83 61 -185.5t-39 -197.5q-22 -44 -60.5 -87t-89.5 -81q-31 -23 -65 -42t-71 -34q-48 -20 -97.5 -30t-98.5 -10l-142 2
q-75 1 -155.5 0t-184.5 -3zM881 998q1 7 6 11t14 4q18 0 26 -5.5t8 -19.5q0 -39 6 -70t17 -53q1 -3 3 -3.5t5 1.5q36 19 65 42.5t57 57.5q9 11 20.5 16t27.5 5q10 0 15 -3.5t5 -9.5q0 -18 -54.5 -50.5t-136.5 -64.5q-4 -1 -6.5 -0.5t-6.5 4.5q-28 34 -49 76t-22 62z" />
    <glyph glyph-name="dcaron" unicode="&#x10f;" horiz-adv-x="608" 
d="M28 0zM102 224q-17 -60 -15 -112t21 -71q10 1 27.5 12t51.5 39q52 43 130.5 122.5t165.5 176.5q-36 54 -66 77.5t-66 23.5q-14 0 -28.5 -3.5t-29.5 -10.5q-61 -30 -115.5 -101.5t-75.5 -152.5zM512 441q50 83 130.5 221.5t89.5 153.5q1 5 -1 10.5t-7 9.5q-8 7 -24.5 7
t-39.5 -5q-24 -6 -73 -14.5t-89 -13.5l-2 6q66 10 149 28.5t157 41.5q8 -1 12 -4t6 -9q-10 -16 -22 -36.5t-38 -65.5q-39 -67 -60.5 -103.5t-41.5 -69.5q-122 -205 -170 -288.5t-71 -128.5q-17 -32 -27 -59t-10 -39q0 -14 10 -30t21 -18q24 11 64.5 42t67.5 59l6 -7
q-44 -43 -82 -73.5t-73 -52.5q-3 -1 -8.5 -1.5t-11.5 -0.5q-10 0 -16 1t-8 3q-12 11 -21 33t-8 37q0 17 11.5 46t34.5 71q17 32 40.5 72.5t53.5 89.5q-52 -61 -126 -136.5t-140 -134.5q-29 -26 -54.5 -47t-42.5 -33q-3 -2 -8 -3.5t-10 -1.5q-7 0 -11.5 1t-6.5 3
q-31 23 -34 86t21 131q25 82 91.5 154t149.5 111q29 14 54.5 21t44.5 7q37 0 66 -16.5t57 -54.5zM869 840q0 15 14 26.5t30 11.5q9 0 13 -7t4 -22q0 -61 -43.5 -118.5t-109.5 -88.5q-4 -4 -7 0t2 6q51 26 75.5 59.5t24.5 75.5q0 8 -0.5 16t-1.5 21q-1 9 -1 13v7z" />
    <glyph glyph-name="Dcroat" unicode="&#x110;" horiz-adv-x="1138" 
d="M52 0zM126 -3q-19 -1 -25 -1h-9q-15 0 -25 3.5t-15 9.5q-1 11 12.5 31t26.5 26q8 1 21.5 -1t50.5 -10q54 -12 83 -16t53 -4q26 0 48 8.5t41 26.5q25 22 47 57.5t47 93.5q11 27 32.5 83t33.5 85q-59 -1 -110 -2.5t-82 -3.5q-7 2 -4.5 11t10.5 10q28 -2 78 -3.5t111 -2.5
q1 1 1.5 2.5l1.5 4.5l1.5 4.5t1.5 2.5q73 179 125 253.5t114 111.5l3 -3q-27 -19 -54 -60.5t-59 -115.5q-13 -32 -39.5 -98t-39.5 -97l-2 -5q65 0 128 1.5t106 4.5q6 -2 3.5 -11t-9.5 -10q-46 3 -107.5 4.5t-124.5 1.5q-67 -164 -123.5 -241.5t-129.5 -113.5q58 -1 147 0.5
t164 4.5q88 3 157 23.5t119 58.5q32 24 57.5 57.5t44.5 76.5q45 99 40.5 200.5t-57.5 182.5q-52 79 -141.5 122t-204.5 43q-75 0 -139 -15t-117 -44q-65 -36 -116 -95t-87 -140q-10 -24 -22 -34t-30 -10q-20 0 -23.5 13t11.5 36q41 68 108.5 130t152.5 108q76 40 154.5 61
t154.5 20q114 0 203.5 -43.5t143.5 -124.5q55 -83 61 -186t-39 -197q-21 -43 -59 -86t-91 -82q-31 -23 -65 -42t-71 -34q-48 -20 -97.5 -30t-98.5 -10l-142 2q-75 1 -155.5 0t-184.5 -3z" />
    <glyph glyph-name="dcroat" unicode="&#x111;" horiz-adv-x="598" 
d="M98 3q-3 -2 -7.5 -3.5t-10.5 -1.5q-7 0 -11.5 1t-6.5 3q-30 23 -33 85.5t20 131.5q25 82 91.5 154t149.5 111q29 14 54.5 21t44.5 7q38 0 66.5 -16.5t55.5 -52.5q33 53 64 103t44 69q3 5 6 9t6 9q-51 0 -106 -1.5t-89 -3.5q-5 2 -4 11t8 10q33 -2 90 -4t108 -3
q46 64 101.5 111.5t122.5 79.5q63 31 128.5 45t149.5 14q33 0 63.5 -1.5t46.5 -4.5q5 -1 7.5 -3t2.5 -5q0 -10 -15 -25.5t-26 -15.5q-14 0 -32.5 1t-59.5 5q-50 5 -77 6.5t-51 1.5q-43 0 -74.5 -6t-58.5 -19q-40 -21 -82 -65t-94 -119q56 1 98 3t68 4q6 -1 4 -10t-8 -11
q-35 2 -80.5 3.5t-88.5 1.5q-12 -19 -18.5 -28.5t-12.5 -18.5q-41 -62 -117 -192.5t-118 -212.5q-16 -31 -26 -58t-10 -40q0 -14 9.5 -30t20.5 -18q23 11 64 42t69 59l6 -7q-50 -47 -86 -76t-70 -50q-3 -1 -8.5 -1.5t-11.5 -0.5q-10 0 -15.5 1t-7.5 3q-13 11 -22 33t-8 37
q0 17 11.5 46t34.5 71q13 23 29.5 52.5t66.5 111.5l16 20q-46 -57 -126.5 -140t-157.5 -153q-35 -31 -58 -50t-39 -30zM102 224q-16 -59 -14.5 -111.5t20.5 -71.5q11 1 29.5 13.5t49.5 37.5q52 43 130.5 122.5t165.5 176.5q-36 54 -66 77.5t-66 23.5q-14 0 -28.5 -3.5
t-28.5 -10.5q-61 -30 -115.5 -101t-76.5 -153z" />
    <glyph glyph-name="Emacron" unicode="&#x112;" horiz-adv-x="1066" 
d="M57 0zM142 -1q-26 -1 -34 -1h-11q-16 0 -26.5 3t-13.5 9q-2 11 11.5 26.5t29.5 23.5q5 1 19.5 -0.5t56.5 -8.5q60 -10 90 -13.5t50 -3.5q23 0 41.5 4.5t32.5 13.5q34 20 62.5 60.5t58.5 111.5q15 34 40.5 102.5t36.5 97.5q-91 7 -145.5 9.5t-98.5 3.5q-4 0 -6.5 1t-2.5 3
t2.5 3t8.5 1h125.5h125.5q57 142 115.5 220.5t127.5 110.5q-60 14 -110 21t-91 7q-55 0 -104.5 -10.5t-92.5 -30.5q-74 -36 -134.5 -108t-102.5 -172q-10 -24 -22 -34t-29 -10q-20 0 -23.5 12t10.5 36q54 95 130 167t168 116q60 28 128 43t140 15q64 0 145 -13t186 -40
q80 -21 125.5 -36t47.5 -22t-9.5 -21t-20.5 -15q-3 1 -13.5 4l-45.5 13q-47 14 -75.5 22.5t-53.5 15.5q-46 13 -80 22t-65 17q-43 -22 -86.5 -92t-110.5 -238q53 1 111.5 1h141.5q39 0 66 -1t38 -3q10 -2 -6.5 -21.5t-30.5 -22.5q-12 -2 -26 -2.5t-56 1.5q-12 1 -31.5 2.5
t-71.5 6.5q-55 5 -86.5 8t-59.5 5q-78 -191 -133.5 -268.5t-126.5 -112.5q9 -1 22.5 -1.5t47.5 -0.5q63 0 137.5 2.5t129.5 6.5q24 2 51.5 4t76.5 7q43 4 58 5t21 1q2 0 2.5 -1t0.5 -2q-3 -9 -20 -28t-27 -22q-3 -2 -47 -3t-119 -1h-25t-65 1h-66h-25q-74 0 -165.5 -1.5
t-223.5 -5.5zM914 932h73h55t38 1q7 0 19.5 0.5t12.5 -1.5q0 -3 -14 -18t-21 -23h-8h-23q-28 1 -40 1h-17q-21 0 -46 -1t-32 -1q-22 -2 -27 -1.5t-5 2.5q0 1 2 3.5t9 9.5q8 10 13.5 16t10.5 12z" />
    <glyph glyph-name="emacron" unicode="&#x113;" horiz-adv-x="488" 
d="M34 0zM265 35q-43 -24 -70 -32.5t-53 -8.5q-32 0 -62 23t-39 56q-14 50 -1.5 105.5t51.5 121.5q29 50 80.5 99.5t104.5 78.5q30 17 62.5 26.5t61.5 9.5q41 0 65.5 -16t24.5 -43q0 -36 -51 -85t-168 -123q-53 -33 -95 -58.5t-83 -48.5q0 -9 1 -18.5t2 -19.5
q9 -34 30.5 -51.5t54.5 -17.5q25 0 53 7.5t56 22.5q22 11 60.5 43.5t60.5 59.5l9 -5q-29 -35 -71 -69t-84 -57zM288 477q-36 -24 -75 -69t-66 -95q-24 -43 -37.5 -84t-15.5 -79q44 26 86.5 51.5t85.5 53.5q80 52 116.5 84t44.5 56q2 6 3 11.5t1 12.5q0 28 -25 49t-58 21
q-14 0 -28.5 -3t-31.5 -9zM368 619h73h55t38 1q7 0 19.5 0.5t12.5 -1.5q0 -3 -14 -18t-21 -23h-8h-23q-28 1 -40 1h-17q-21 0 -46 -1t-32 -1q-22 -2 -27 -1.5t-5 2.5q0 1 2 3.5t9 9.5q8 10 13.5 16t10.5 12z" />
    <glyph glyph-name="Ebreve" unicode="&#x114;" horiz-adv-x="1066" 
d="M57 0zM142 -1q-26 -1 -34 -1h-11q-16 0 -26.5 3t-13.5 9q-2 11 11.5 26.5t29.5 23.5q5 1 19.5 -0.5t56.5 -8.5q60 -10 90 -13.5t50 -3.5q23 0 41.5 4.5t32.5 13.5q34 20 62.5 60.5t58.5 111.5q15 34 40.5 102.5t36.5 97.5q-91 7 -145.5 9.5t-98.5 3.5q-4 0 -6.5 1t-2.5 3
t2.5 3t8.5 1h125.5h125.5q57 142 115.5 220.5t127.5 110.5q-60 14 -110 21t-91 7q-55 0 -104.5 -10.5t-92.5 -30.5q-74 -36 -134.5 -108t-102.5 -172q-10 -24 -22 -34t-29 -10q-20 0 -23.5 12t10.5 36q54 95 130 167t168 116q60 28 128 43t140 15q64 0 145 -13t186 -40
q80 -21 125.5 -36t47.5 -22t-9.5 -21t-20.5 -15q-3 1 -13.5 4l-45.5 13q-47 14 -75.5 22.5t-53.5 15.5q-46 13 -80 22t-65 17q-43 -22 -86.5 -92t-110.5 -238q53 1 111.5 1h141.5q39 0 66 -1t38 -3q10 -2 -6.5 -21.5t-30.5 -22.5q-12 -2 -26 -2.5t-56 1.5q-12 1 -31.5 2.5
t-71.5 6.5q-55 5 -86.5 8t-59.5 5q-78 -191 -133.5 -268.5t-126.5 -112.5q9 -1 22.5 -1.5t47.5 -0.5q63 0 137.5 2.5t129.5 6.5q24 2 51.5 4t76.5 7q43 4 58 5t21 1q2 0 2.5 -1t0.5 -2q-3 -9 -20 -28t-27 -22q-3 -2 -47 -3t-119 -1h-25t-65 1h-66h-25q-74 0 -165.5 -1.5
t-223.5 -5.5zM1120 974q-30 -48 -65 -70.5t-78 -22.5q-45 0 -75.5 20.5t-41.5 59.5q-2 7 2.5 12t17.5 10q12 5 18.5 3.5t9.5 -9.5q9 -39 31.5 -59t56.5 -20q36 0 65 22t42 58q2 4 4.5 6t5.5 2q6 0 8 -4t-1 -8z" />
    <glyph glyph-name="ebreve" unicode="&#x115;" horiz-adv-x="488" 
d="M34 0zM265 35q-43 -24 -70 -32.5t-53 -8.5q-32 0 -62 23t-39 56q-14 50 -1.5 105.5t51.5 121.5q29 50 80.5 99.5t104.5 78.5q30 17 62.5 26.5t61.5 9.5q41 0 65.5 -16t24.5 -43q0 -36 -51 -85t-168 -123q-53 -33 -95 -58.5t-83 -48.5q0 -9 1 -18.5t2 -19.5
q9 -34 30.5 -51.5t54.5 -17.5q25 0 53 7.5t56 22.5q22 11 60.5 43.5t60.5 59.5l9 -5q-29 -35 -71 -69t-84 -57zM288 477q-36 -24 -75 -69t-66 -95q-24 -43 -37.5 -84t-15.5 -79q44 26 86.5 51.5t85.5 53.5q80 52 116.5 84t44.5 56q2 6 3 11.5t1 12.5q0 28 -25 49t-58 21
q-14 0 -28.5 -3t-31.5 -9zM581 665q-30 -48 -65 -70.5t-78 -22.5q-45 0 -75.5 20.5t-41.5 59.5q-2 7 2.5 12t17.5 10q12 5 18.5 3.5t9.5 -9.5q9 -39 31.5 -59t56.5 -20q36 0 65 22t42 58q2 4 4.5 6t5.5 2q6 0 8 -4t-1 -8z" />
    <glyph glyph-name="Edotaccent" unicode="&#x116;" horiz-adv-x="1066" 
d="M57 0zM142 -1q-26 -1 -34 -1h-11q-16 0 -26.5 3t-13.5 9q-2 11 11.5 26.5t29.5 23.5q5 1 19.5 -0.5t56.5 -8.5q60 -10 90 -13.5t50 -3.5q23 0 41.5 4.5t32.5 13.5q34 20 62.5 60.5t58.5 111.5q15 34 40.5 102.5t36.5 97.5q-91 7 -145.5 9.5t-98.5 3.5q-4 0 -6.5 1t-2.5 3
t2.5 3t8.5 1h125.5h125.5q57 142 115.5 220.5t127.5 110.5q-60 14 -110 21t-91 7q-55 0 -104.5 -10.5t-92.5 -30.5q-74 -36 -134.5 -108t-102.5 -172q-10 -24 -22 -34t-29 -10q-20 0 -23.5 12t10.5 36q54 95 130 167t168 116q60 28 128 43t140 15q64 0 145 -13t186 -40
q80 -21 125.5 -36t47.5 -22t-9.5 -21t-20.5 -15q-3 1 -13.5 4l-45.5 13q-47 14 -75.5 22.5t-53.5 15.5q-46 13 -80 22t-65 17q-43 -22 -86.5 -92t-110.5 -238q53 1 111.5 1h141.5q39 0 66 -1t38 -3q10 -2 -6.5 -21.5t-30.5 -22.5q-12 -2 -26 -2.5t-56 1.5q-12 1 -31.5 2.5
t-71.5 6.5q-55 5 -86.5 8t-59.5 5q-78 -191 -133.5 -268.5t-126.5 -112.5q9 -1 22.5 -1.5t47.5 -0.5q63 0 137.5 2.5t129.5 6.5q24 2 51.5 4t76.5 7q43 4 58 5t21 1q2 0 2.5 -1t0.5 -2q-3 -9 -20 -28t-27 -22q-3 -2 -47 -3t-119 -1h-25t-65 1h-66h-25q-74 0 -165.5 -1.5
t-223.5 -5.5zM990 923q-13 0 -17.5 1.5t-8.5 5.5q-6 10 8.5 41.5t28.5 38.5q3 3 13.5 4.5t22.5 1.5q11 0 21.5 -2.5t12.5 -6.5q2 -16 -18.5 -43.5t-35.5 -35.5q-3 -2 -10 -3.5t-17 -1.5z" />
    <glyph glyph-name="edotaccent" unicode="&#x117;" horiz-adv-x="488" 
d="M34 0zM265 35q-43 -24 -70 -32.5t-53 -8.5q-32 0 -62 23t-39 56q-14 50 -1.5 105.5t51.5 121.5q29 50 80.5 99.5t104.5 78.5q30 17 62.5 26.5t61.5 9.5q41 0 65.5 -16t24.5 -43q0 -36 -51 -85t-168 -123q-53 -33 -95 -58.5t-83 -48.5q0 -9 1 -18.5t2 -19.5
q9 -34 30.5 -51.5t54.5 -17.5q25 0 53 7.5t56 22.5q22 11 60.5 43.5t60.5 59.5l9 -5q-29 -35 -71 -69t-84 -57zM288 477q-36 -24 -75 -69t-66 -95q-24 -43 -37.5 -84t-15.5 -79q44 26 86.5 51.5t85.5 53.5q80 52 116.5 84t44.5 56q2 6 3 11.5t1 12.5q0 28 -25 49t-58 21
q-14 0 -28.5 -3t-31.5 -9zM436 592q-13 0 -17.5 1.5t-8.5 5.5q-6 10 8.5 41.5t28.5 38.5q3 3 13.5 4.5t22.5 1.5q11 0 21.5 -2.5t12.5 -6.5q2 -16 -18.5 -43.5t-35.5 -35.5q-3 -2 -10 -3.5t-17 -1.5z" />
    <glyph glyph-name="Eogonek" unicode="&#x118;" horiz-adv-x="1066" 
d="M786 406q-56 5 -88 8t-60 5q-81 -193 -136 -269.5t-125 -111.5q10 -1 23 -1.5t47 -0.5q63 0 138 2.5t130 6.5q23 2 50 4t75 7q46 4 61 5t21 1q2 0 2.5 -1t0.5 -2q-4 -9 -21 -28t-26 -22q-4 -2 -48 -3t-97 -1q-58 -37 -83 -67t-25 -64q0 -25 14.5 -39.5t40.5 -14.5
q18 0 32.5 4.5t28.5 15.5q6 3 -7.5 -23.5t-25.5 -33.5q-13 -8 -23 -10.5t-23 -2.5q-36 0 -56.5 23.5t-15.5 60.5q4 37 37 75.5t91 75.5h-3h-3h-25t-65 1h-66h-25q-73 0 -164.5 -1.5t-223.5 -5.5q-28 -1 -36 -1h-11q-16 0 -26 3t-14 9q-1 11 12.5 26.5t29.5 23.5q5 1 19 -0.5
t56 -8.5q61 -10 91 -13.5t50 -3.5q23 0 41 4.5t33 13.5q34 20 62.5 60.5t58.5 111.5q15 34 40.5 102.5t36.5 97.5q-90 7 -145 9.5t-100 3.5q-4 0 -6.5 1t-2.5 3t3 3t9 1h125.5h125.5q56 141 114.5 220t128.5 112q-62 14 -111.5 20.5t-89.5 6.5q-55 0 -104.5 -10.5
t-92.5 -30.5q-72 -36 -132.5 -107t-104.5 -173q-10 -24 -22 -34t-29 -10q-20 0 -23.5 12t10.5 36q54 95 130 167t168 116q60 28 128 43t140 15q64 0 145 -13t186 -40q80 -21 125.5 -36t47.5 -22t-9.5 -21t-20.5 -15q-3 1 -14.5 4t-48.5 14q-46 14 -73 22t-52 15
q-40 11 -76 21t-70 18q-43 -22 -86 -92t-110 -238q53 1 111.5 1h141.5q39 0 65.5 -1t38.5 -3q9 -2 -7 -21.5t-30 -22.5q-12 -2 -26 -2.5t-57 1.5q-11 1 -30.5 2.5t-69.5 6.5z" />
    <glyph glyph-name="eogonek" unicode="&#x119;" horiz-adv-x="488" 
d="M242 -217q-11 -7 -21.5 -10t-24.5 -3q-36 0 -56 24.5t-15 64.5q4 40 33.5 81t83.5 82q-29 -15 -53.5 -21.5t-46.5 -6.5q-32 0 -62 23t-39 56q-14 50 -1.5 105.5t51.5 121.5q29 50 80.5 99.5t104.5 78.5q30 17 62.5 26.5t61.5 9.5q41 0 65.5 -16t24.5 -43q0 -36 -51 -85
t-168 -123q-53 -33 -95 -58.5t-83 -48.5q0 -9 1 -18.5t2 -19.5q9 -34 30.5 -51.5t54.5 -17.5q25 0 53 7.5t56 22.5q21 10 60 42.5t61 60.5l9 -5q-22 -27 -53 -54t-64 -48q-77 -53 -110.5 -95t-33.5 -85q0 -28 14.5 -43.5t40.5 -15.5q18 0 32.5 4.5t28.5 15.5q6 3 -7.5 -23.5
t-25.5 -33.5zM288 477q-36 -24 -75 -69t-66 -95q-24 -43 -37.5 -84t-15.5 -79q44 26 86.5 51.5t85.5 53.5q80 52 116.5 84t44.5 56q2 6 3 11.5t1 12.5q0 28 -25 49t-58 21q-14 0 -28.5 -3t-31.5 -9z" />
    <glyph glyph-name="Ecaron" unicode="&#x11a;" horiz-adv-x="1066" 
d="M57 0zM142 -1q-26 -1 -34 -1h-11q-16 0 -26.5 3t-13.5 9q-2 11 11.5 26.5t29.5 23.5q5 1 19.5 -0.5t56.5 -8.5q60 -10 90 -13.5t50 -3.5q23 0 41.5 4.5t32.5 13.5q34 20 62.5 60.5t58.5 111.5q15 34 40.5 102.5t36.5 97.5q-91 7 -145.5 9.5t-98.5 3.5q-4 0 -6.5 1t-2.5 3
t2.5 3t8.5 1h125.5h125.5q57 142 115.5 220.5t127.5 110.5q-60 14 -110 21t-91 7q-55 0 -104.5 -10.5t-92.5 -30.5q-74 -36 -134.5 -108t-102.5 -172q-10 -24 -22 -34t-29 -10q-20 0 -23.5 12t10.5 36q54 95 130 167t168 116q60 28 128 43t140 15q64 0 145 -13t186 -40
q80 -21 125.5 -36t47.5 -22t-9.5 -21t-20.5 -15q-3 1 -13.5 4l-45.5 13q-47 14 -75.5 22.5t-53.5 15.5q-46 13 -80 22t-65 17q-43 -22 -86.5 -92t-110.5 -238q53 1 111.5 1h141.5q39 0 66 -1t38 -3q10 -2 -6.5 -21.5t-30.5 -22.5q-12 -2 -26 -2.5t-56 1.5q-12 1 -31.5 2.5
t-71.5 6.5q-55 5 -86.5 8t-59.5 5q-78 -191 -133.5 -268.5t-126.5 -112.5q9 -1 22.5 -1.5t47.5 -0.5q63 0 137.5 2.5t129.5 6.5q24 2 51.5 4t76.5 7q43 4 58 5t21 1q2 0 2.5 -1t0.5 -2q-3 -9 -20 -28t-27 -22q-3 -2 -47 -3t-119 -1h-25t-65 1h-66h-25q-74 0 -165.5 -1.5
t-223.5 -5.5zM902 1003q1 7 6 11t14 4q18 0 26 -5.5t8 -19.5q0 -39 6 -70t17 -53q1 -3 3 -3.5t5 1.5q36 19 65 42.5t57 57.5q9 11 20.5 16t27.5 5q10 0 15 -3.5t5 -9.5q0 -18 -54.5 -50.5t-136.5 -64.5q-4 -1 -6.5 -0.5t-6.5 4.5q-28 34 -49 76t-22 62z" />
    <glyph glyph-name="ecaron" unicode="&#x11b;" horiz-adv-x="488" 
d="M34 0zM265 35q-43 -24 -70 -32.5t-53 -8.5q-32 0 -62 23t-39 56q-14 50 -1.5 105.5t51.5 121.5q29 50 80.5 99.5t104.5 78.5q30 17 62.5 26.5t61.5 9.5q41 0 65.5 -16t24.5 -43q0 -36 -51 -85t-168 -123q-53 -33 -95 -58.5t-83 -48.5q0 -9 1 -18.5t2 -19.5
q9 -34 30.5 -51.5t54.5 -17.5q25 0 53 7.5t56 22.5q22 11 60.5 43.5t60.5 59.5l9 -5q-29 -35 -71 -69t-84 -57zM288 477q-36 -24 -75 -69t-66 -95q-24 -43 -37.5 -84t-15.5 -79q44 26 86.5 51.5t85.5 53.5q80 52 116.5 84t44.5 56q2 6 3 11.5t1 12.5q0 28 -25 49t-58 21
q-14 0 -28.5 -3t-31.5 -9zM337 699q1 7 6 11t14 4q18 0 26 -5.5t8 -19.5q0 -39 6 -70t17 -53q1 -3 3 -3.5t5 1.5q36 19 65 42.5t57 57.5q9 11 20.5 16t27.5 5q10 0 15 -3.5t5 -9.5q0 -18 -54.5 -50.5t-136.5 -64.5q-4 -1 -6.5 -0.5t-6.5 4.5q-28 34 -49 76t-22 62z" />
    <glyph glyph-name="Gcircumflex" unicode="&#x11c;" horiz-adv-x="1003" 
d="M114 0zM713 -80q-21 -45 -86 -83.5t-143 -56.5q-7 -2 -8.5 2.5t5.5 6.5q59 12 96.5 40t68.5 82q3 5 31 54t49 86q24 42 43 77.5t33 64.5q-93 -92 -198 -143.5t-199 -51.5q-111 0 -183.5 52t-97.5 148q-20 82 -0.5 178t74.5 180q38 58 95 108t125 85q72 39 153 59t169 20
q71 0 143 -13t154 -40q2 -1 3.5 -2t1.5 -3q0 -8 -18 -23t-28 -15q-3 0 -10 2t-18 5q-113 36 -181.5 49.5t-124.5 13.5q-62 0 -122 -15.5t-117 -46.5q-52 -29 -96.5 -71t-76.5 -93q-53 -84 -72.5 -177t-0.5 -172q23 -94 93 -146t179 -53q140 -2 255 92.5t184 270.5
q-27 4 -53.5 6t-53.5 3q-59 0 -125 -4.5t-160 -16.5q-25 -3 -33 -4t-11 -1q-2 0 -2.5 1t-0.5 2q0 2 2.5 6.5t6.5 9.5q8 10 18.5 18t20.5 11q8 3 49.5 4t167.5 1q32 0 67 0.5t89 1.5h27h11q16 0 32 -16.5t14 -27.5q-54 -90 -124.5 -226t-116.5 -239zM904 887q0 -7 -6 -11.5
t-15 -4.5q-17 0 -25 6t-8 20q0 39 -6 70t-17 53q-1 3 -2.5 3.5t-4.5 -1.5q-38 -20 -66 -43t-56 -57q-9 -11 -20.5 -16.5t-27.5 -5.5q-10 0 -15 3t-6 10q1 19 58 52.5t133 62.5q5 2 7.5 1t5.5 -5q30 -36 50.5 -77t20.5 -60z" />
    <glyph glyph-name="gcircumflex" unicode="&#x11d;" horiz-adv-x="567" 
d="M0 0zM260 -264q-40 -62 -124 -97.5t-184 -34.5q-80 0 -137.5 22t-73.5 61q-6 15 -5.5 32t8.5 33q11 24 40 49.5t109 76.5q101 64 131 84.5t56 39.5q-4 -1 -7 -1.5t-5 -0.5q-3 0 -6.5 1t-6.5 3q-30 22 -32.5 84t21.5 131q26 83 94.5 156t151.5 112q28 13 52 19.5t43 6.5
q40 0 67 -18t66 -72q3 2 10.5 10t28.5 29l32 32l13 13q1 2 4.5 0t2.5 -4q-25 -31 -47 -61t-41 -57q-67 -102 -111 -193t-71 -187q-15 -51 -34 -140.5t-45 -128.5zM98 223q-18 -61 -14.5 -115.5t25.5 -68.5q36 15 159 130.5t212 217.5q-40 58 -69.5 82t-62.5 24
q-13 0 -27 -3.5t-28 -9.5q-63 -29 -118.5 -101.5t-76.5 -155.5zM-195 -304q16 -38 63.5 -60t111.5 -22q68 0 125 28.5t94 81.5q16 23 27.5 54.5t29.5 109.5q12 57 21 89t18 61q23 71 54.5 137.5t79.5 141.5q-78 -83 -177 -176t-157 -137q-16 -11 -34 -23.5t-52 -36.5
q-46 -32 -67 -47t-37 -27q-43 -32 -65 -55t-32 -45q-9 -18 -9.5 -37.5t6.5 -36.5zM561 563q0 -7 -6 -11.5t-15 -4.5q-17 0 -25 6t-8 20q0 39 -6 70t-17 53q-1 3 -2.5 3.5t-4.5 -1.5q-38 -20 -66 -43t-56 -57q-9 -11 -20.5 -16.5t-27.5 -5.5q-10 0 -15 3t-6 10q1 19 58 52.5
t133 62.5q5 2 7.5 1t5.5 -5q30 -36 50.5 -77t20.5 -60z" />
    <glyph glyph-name="Gbreve" unicode="&#x11e;" horiz-adv-x="1003" 
d="M114 0zM713 -80q-21 -45 -86 -83.5t-143 -56.5q-7 -2 -8.5 2.5t5.5 6.5q59 12 96.5 40t68.5 82q3 5 31 54t49 86q24 42 43 77.5t33 64.5q-93 -92 -198 -143.5t-199 -51.5q-111 0 -183.5 52t-97.5 148q-20 82 -0.5 178t74.5 180q38 58 95 108t125 85q72 39 153 59t169 20
q71 0 143 -13t154 -40q2 -1 3.5 -2t1.5 -3q0 -8 -18 -23t-28 -15q-3 0 -10 2t-18 5q-113 36 -181.5 49.5t-124.5 13.5q-62 0 -122 -15.5t-117 -46.5q-52 -29 -96.5 -71t-76.5 -93q-53 -84 -72.5 -177t-0.5 -172q23 -94 93 -146t179 -53q140 -2 255 92.5t184 270.5
q-27 4 -53.5 6t-53.5 3q-59 0 -125 -4.5t-160 -16.5q-25 -3 -33 -4t-11 -1q-2 0 -2.5 1t-0.5 2q0 2 2.5 6.5t6.5 9.5q8 10 18.5 18t20.5 11q8 3 49.5 4t167.5 1q32 0 67 0.5t89 1.5h27h11q16 0 32 -16.5t14 -27.5q-54 -90 -124.5 -226t-116.5 -239zM902 992
q-30 -48 -65 -70.5t-78 -22.5q-45 0 -75.5 20.5t-41.5 59.5q-2 7 2.5 12t17.5 10q12 5 18.5 3.5t9.5 -9.5q9 -39 31.5 -59t56.5 -20q36 0 65 22t42 58q2 4 4.5 6t5.5 2q6 0 8 -4t-1 -8z" />
    <glyph glyph-name="gbreve" unicode="&#x11f;" horiz-adv-x="567" 
d="M0 0zM260 -264q-40 -62 -124 -97.5t-184 -34.5q-80 0 -137.5 22t-73.5 61q-6 15 -5.5 32t8.5 33q11 24 40 49.5t109 76.5q101 64 131 84.5t56 39.5q-4 -1 -7 -1.5t-5 -0.5q-3 0 -6.5 1t-6.5 3q-30 22 -32.5 84t21.5 131q26 83 94.5 156t151.5 112q28 13 52 19.5t43 6.5
q40 0 67 -18t66 -72q3 2 10.5 10t28.5 29l32 32l13 13q1 2 4.5 0t2.5 -4q-25 -31 -47 -61t-41 -57q-67 -102 -111 -193t-71 -187q-15 -51 -34 -140.5t-45 -128.5zM98 223q-18 -61 -14.5 -115.5t25.5 -68.5q36 15 159 130.5t212 217.5q-40 58 -69.5 82t-62.5 24
q-13 0 -27 -3.5t-28 -9.5q-63 -29 -118.5 -101.5t-76.5 -155.5zM-195 -304q16 -38 63.5 -60t111.5 -22q68 0 125 28.5t94 81.5q16 23 27.5 54.5t29.5 109.5q12 57 21 89t18 61q23 71 54.5 137.5t79.5 141.5q-78 -83 -177 -176t-157 -137q-16 -11 -34 -23.5t-52 -36.5
q-46 -32 -67 -47t-37 -27q-43 -32 -65 -55t-32 -45q-9 -18 -9.5 -37.5t6.5 -36.5zM559 668q-30 -48 -65 -70.5t-78 -22.5q-45 0 -75.5 20.5t-41.5 59.5q-2 7 2.5 12t17.5 10q12 5 18.5 3.5t9.5 -9.5q9 -39 31.5 -59t56.5 -20q36 0 65 22t42 58q2 4 4.5 6t5.5 2q6 0 8 -4
t-1 -8z" />
    <glyph glyph-name="Gdotaccent" unicode="&#x120;" horiz-adv-x="1003" 
d="M114 0zM713 -80q-21 -45 -86 -83.5t-143 -56.5q-7 -2 -8.5 2.5t5.5 6.5q59 12 96.5 40t68.5 82q3 5 31 54t49 86q24 42 43 77.5t33 64.5q-93 -92 -198 -143.5t-199 -51.5q-111 0 -183.5 52t-97.5 148q-20 82 -0.5 178t74.5 180q38 58 95 108t125 85q72 39 153 59t169 20
q71 0 143 -13t154 -40q2 -1 3.5 -2t1.5 -3q0 -8 -18 -23t-28 -15q-3 0 -10 2t-18 5q-113 36 -181.5 49.5t-124.5 13.5q-62 0 -122 -15.5t-117 -46.5q-52 -29 -96.5 -71t-76.5 -93q-53 -84 -72.5 -177t-0.5 -172q23 -94 93 -146t179 -53q140 -2 255 92.5t184 270.5
q-27 4 -53.5 6t-53.5 3q-59 0 -125 -4.5t-160 -16.5q-25 -3 -33 -4t-11 -1q-2 0 -2.5 1t-0.5 2q0 2 2.5 6.5t6.5 9.5q8 10 18.5 18t20.5 11q8 3 49.5 4t167.5 1q32 0 67 0.5t89 1.5h27h11q16 0 32 -16.5t14 -27.5q-54 -90 -124.5 -226t-116.5 -239zM772 941q-13 0 -17.5 1.5
t-8.5 5.5q-6 10 8.5 41.5t28.5 38.5q3 3 13.5 4.5t22.5 1.5q11 0 21.5 -2.5t12.5 -6.5q2 -16 -18.5 -43.5t-35.5 -35.5q-3 -2 -10 -3.5t-17 -1.5z" />
    <glyph glyph-name="gdotaccent" unicode="&#x121;" horiz-adv-x="567" 
d="M0 0zM260 -264q-40 -62 -124 -97.5t-184 -34.5q-80 0 -137.5 22t-73.5 61q-6 15 -5.5 32t8.5 33q11 24 40 49.5t109 76.5q101 64 131 84.5t56 39.5q-4 -1 -7 -1.5t-5 -0.5q-3 0 -6.5 1t-6.5 3q-30 22 -32.5 84t21.5 131q26 83 94.5 156t151.5 112q28 13 52 19.5t43 6.5
q40 0 67 -18t66 -72q3 2 10.5 10t28.5 29l32 32l13 13q1 2 4.5 0t2.5 -4q-25 -31 -47 -61t-41 -57q-67 -102 -111 -193t-71 -187q-15 -51 -34 -140.5t-45 -128.5zM98 223q-18 -61 -14.5 -115.5t25.5 -68.5q36 15 159 130.5t212 217.5q-40 58 -69.5 82t-62.5 24
q-13 0 -27 -3.5t-28 -9.5q-63 -29 -118.5 -101.5t-76.5 -155.5zM-195 -304q16 -38 63.5 -60t111.5 -22q68 0 125 28.5t94 81.5q16 23 27.5 54.5t29.5 109.5q12 57 21 89t18 61q23 71 54.5 137.5t79.5 141.5q-78 -83 -177 -176t-157 -137q-16 -11 -34 -23.5t-52 -36.5
q-46 -32 -67 -47t-37 -27q-43 -32 -65 -55t-32 -45q-9 -18 -9.5 -37.5t6.5 -36.5zM429 617q-13 0 -17.5 1.5t-8.5 5.5q-6 10 8.5 41.5t28.5 38.5q3 3 13.5 4.5t22.5 1.5q11 0 21.5 -2.5t12.5 -6.5q2 -16 -18.5 -43.5t-35.5 -35.5q-3 -2 -10 -3.5t-17 -1.5z" />
    <glyph glyph-name="uni0122" unicode="&#x122;" horiz-adv-x="1003" 
d="M114 0zM713 -80q-21 -45 -86 -83.5t-143 -56.5q-7 -2 -8.5 2.5t5.5 6.5q59 12 96.5 40t68.5 82q3 5 31 54t49 86q24 42 43 77.5t33 64.5q-93 -92 -198 -143.5t-199 -51.5q-111 0 -183.5 52t-97.5 148q-20 82 -0.5 178t74.5 180q38 58 95 108t125 85q72 39 153 59t169 20
q71 0 143 -13t154 -40q2 -1 3.5 -2t1.5 -3q0 -8 -18 -23t-28 -15q-3 0 -10 2t-18 5q-113 36 -181.5 49.5t-124.5 13.5q-62 0 -122 -15.5t-117 -46.5q-52 -29 -96.5 -71t-76.5 -93q-53 -84 -72.5 -177t-0.5 -172q23 -94 93 -146t179 -53q140 -2 255 92.5t184 270.5
q-27 4 -53.5 6t-53.5 3q-59 0 -125 -4.5t-160 -16.5q-25 -3 -33 -4t-11 -1q-2 0 -2.5 1t-0.5 2q0 2 2.5 6.5t6.5 9.5q8 10 18.5 18t20.5 11q8 3 49.5 4t167.5 1q32 0 67 0.5t89 1.5h27h11q16 0 32 -16.5t14 -27.5q-54 -90 -124.5 -226t-116.5 -239zM393 -135h-1
q-7 -7 -15.5 -12t-16.5 -5t-14.5 3.5t-9.5 9.5q-4 9 3 27.5t17 28.5q3 3 13 5.5t20 2.5t18.5 -2.5t11.5 -7.5q2 -2 2.5 -5.5t0.5 -12.5q0 -44 -34 -83t-92 -60q-3 -1 -3.5 1.5t2.5 3.5q38 14 63 41t35 65z" />
    <glyph glyph-name="uni0123" unicode="&#x123;" horiz-adv-x="567" 
d="M0 0zM260 -264q-40 -62 -124 -97.5t-184 -34.5q-80 0 -137.5 22t-73.5 61q-6 15 -5.5 32t8.5 33q11 24 40 49.5t109 76.5q101 64 131 84.5t56 39.5q-4 -1 -7 -1.5t-5 -0.5q-3 0 -6.5 1t-6.5 3q-30 22 -32.5 84t21.5 131q26 83 94.5 156t151.5 112q28 13 52 19.5t43 6.5
q40 0 67 -18t66 -72q3 2 10.5 10t28.5 29l32 32l13 13q1 2 4.5 0t2.5 -4q-25 -31 -47 -61t-41 -57q-67 -102 -111 -193t-71 -187q-15 -51 -34 -140.5t-45 -128.5zM98 223q-18 -61 -14.5 -115.5t25.5 -68.5q36 15 159 130.5t212 217.5q-40 58 -69.5 82t-62.5 24
q-13 0 -27 -3.5t-28 -9.5q-63 -29 -118.5 -101.5t-76.5 -155.5zM-195 -304q16 -38 63.5 -60t111.5 -22q68 0 125 28.5t94 81.5q16 23 27.5 54.5t29.5 109.5q12 57 21 89t18 61q23 71 54.5 137.5t79.5 141.5q-78 -83 -177 -176t-157 -137q-16 -11 -34 -23.5t-52 -36.5
q-46 -32 -67 -47t-37 -27q-43 -32 -65 -55t-32 -45q-9 -18 -9.5 -37.5t6.5 -36.5zM422 652h2q6 8 14.5 13t17.5 5q7 0 13.5 -3.5t9.5 -9.5q4 -9 -2.5 -27.5t-16.5 -28.5q-4 -3 -14 -5.5t-20 -2.5q-9 0 -17.5 2.5t-12.5 7.5q-2 2 -2.5 5.5t-0.5 12.5q0 44 34 83t92 60
q3 1 4 -1.5t-2 -3.5q-38 -14 -63.5 -41.5t-35.5 -65.5z" />
    <glyph glyph-name="Hcircumflex" unicode="&#x124;" horiz-adv-x="1353" 
d="M48 0zM424 -36q-37 -26 -70 -40t-57 -14q-63 0 -118 28.5t-90 79.5q-37 54 -40.5 115t28.5 113q48 80 153.5 137t214.5 57q48 0 124 -1.5t170 -3.5q14 24 29.5 51t54.5 97q30 57 44.5 95.5t13.5 59.5q0 13 -8 25t-21 18q-22 -8 -80 -51.5t-86 -72.5l-6 6q34 34 95.5 84
t98.5 71q3 3 15 2.5t15 -3.5q15 -12 25 -34.5t11 -41.5q1 -22 -17 -65.5t-53 -104.5q-18 -31 -38.5 -66.5t-41.5 -70.5q28 0 61.5 -1t98.5 -2q88 -1 128 -2t69 -1q39 67 59.5 100t30.5 48q80 122 202.5 198t238.5 79q45 2 150 -13.5t138 -24.5q4 -1 6 -3t2 -4q0 -9 -16 -21
t-28 -12q-9 0 -28.5 3t-72.5 15q-92 19 -137 25.5t-75 6.5q-92 0 -173.5 -63t-159.5 -192q-20 -33 -51.5 -86t-33.5 -56h58.5t91.5 -1h40h17q3 0 4 -0.5t1 -2.5q0 -5 -11.5 -16t-23.5 -16q-6 -2 -13 -3.5t-15 -1.5q-24 -1 -92 -1h-81q-19 -33 -39 -68.5t-44 -80.5
q-31 -55 -44.5 -92.5t-12.5 -61.5q1 -12 9.5 -25.5t19.5 -18.5q22 8 80 52t87 73l6 -7q-41 -39 -98 -84.5t-93 -67.5q-5 -3 -19 -2t-16 3q-14 12 -23.5 33t-10.5 41q-2 21 12.5 58.5t55.5 111.5q47 83 58 101.5t20 34.5q-28 1 -115.5 5.5t-234.5 13.5q-45 -76 -82.5 -137.5
t-57.5 -91.5q-40 -61 -92.5 -114.5t-116.5 -97.5zM411 421q-100 0 -174.5 -44t-113.5 -127q-22 -46 -16.5 -102t36.5 -105t78.5 -76.5t102.5 -27.5q30 0 51.5 7t44.5 23q34 24 73.5 74t90.5 132q30 49 67 111t72 122q-120 7 -193 10t-119 3zM1378 887q0 -7 -6 -11.5
t-15 -4.5q-17 0 -25 6t-8 20q0 39 -6 70t-17 53q-1 3 -2.5 3.5t-4.5 -1.5q-38 -20 -66 -43t-56 -57q-9 -11 -20.5 -16.5t-27.5 -5.5q-10 0 -15 3t-6 10q1 19 58 52.5t133 62.5q5 2 7.5 1t5.5 -5q30 -36 50.5 -77t20.5 -60z" />
    <glyph glyph-name="hcircumflex" unicode="&#x125;" horiz-adv-x="579" 
d="M0 0zM0 5q-5 -1 -7.5 -1h-4.5q-17 0 -22 9.5t3 26.5q24 37 66 110t138 242q63 113 87 154t35 59q47 76 109.5 134t136.5 94q59 29 126 44t140 15q40 0 69 -1.5t44 -3.5q4 -1 6 -3t2 -6q0 -10 -13.5 -24.5t-24.5 -14.5q-16 0 -35.5 1t-60.5 4q-49 4 -75 5.5t-49 1.5
q-41 0 -70.5 -6t-55.5 -18q-43 -21 -84.5 -67t-86.5 -121q-39 -61 -133.5 -228.5t-120.5 -211.5q88 108 205 205t172 109q51 -11 40 -74t-84 -185q-64 -111 -73.5 -134.5t-9.5 -40.5q1 -13 9.5 -26t19.5 -17q24 10 64 40.5t68 59.5l6 -7q-48 -47 -84.5 -76t-70.5 -50
q-2 -1 -6.5 -2t-10.5 -1q-7 0 -12.5 1t-9.5 3q-13 11 -22.5 30.5t-10.5 37.5q0 16 8.5 39t30.5 62q8 14 27 46t29 49q56 95 69.5 145t-15.5 66q-57 -14 -174.5 -119t-195.5 -220q-10 -15 -22 -34.5t-33 -58.5q-11 -18 -15.5 -26.5t-8.5 -14.5h-3t-6 -1zM647 911
q0 -7 -6 -11.5t-15 -4.5q-17 0 -25 6t-8 20q0 39 -6 70t-17 53q-1 3 -2.5 3.5t-4.5 -1.5q-38 -20 -66 -43t-56 -57q-9 -11 -20.5 -16.5t-27.5 -5.5q-10 0 -15 3t-6 10q1 19 58 52.5t133 62.5q5 2 7.5 1t5.5 -5q30 -36 50.5 -77t20.5 -60z" />
    <glyph glyph-name="Hbar" unicode="&#x126;" horiz-adv-x="1353" 
d="M89 18q-37 54 -40.5 115t28.5 113q48 80 153.5 137t214.5 57q48 0 124 -1.5t170 -3.5q33 56 53.5 92.5t37.5 68.5h-39.5h-39.5q-57 0 -68 28.5t28 67.5q29 29 79 67.5t84 58.5q3 3 15 2.5t15 -3.5q15 -12 25 -34.5t11 -41.5t-12 -52.5t-39 -82.5h68h68h152.5t80.5 1
q81 109 196.5 176t223.5 70q45 2 150 -13.5t138 -24.5q4 -1 6 -3t2 -4q0 -9 -16 -21t-28 -12q-9 0 -28.5 3t-72.5 15q-92 19 -137 25.5t-75 6.5q-85 0 -161.5 -54t-148.5 -164q76 1 136.5 2t102.5 3q6 -2 2.5 -11t-10.5 -10q-42 3 -101 4t-137 1l-6.5 -10t-9.5 -16
q-20 -33 -51.5 -86t-33.5 -56h58.5t91.5 -1h40h17q3 0 4 -0.5t1 -2.5q0 -5 -11.5 -16t-23.5 -16q-6 -2 -13 -3.5t-15 -1.5q-24 -1 -92 -1h-81q-19 -33 -39 -68.5t-44 -80.5q-31 -55 -44.5 -92.5t-12.5 -61.5q1 -12 9.5 -25.5t19.5 -18.5q22 8 80 52t87 73l6 -7
q-41 -39 -98 -84.5t-93 -67.5q-5 -3 -19 -2t-16 3q-14 12 -23.5 33t-10.5 41q-2 21 12.5 58.5t55.5 111.5q47 83 58 101.5t20 34.5q-28 1 -115.5 5.5t-234.5 13.5q-45 -76 -82.5 -137.5t-57.5 -91.5q-40 -61 -92.5 -114.5t-116.5 -97.5q-37 -26 -70 -40t-57 -14
q-63 0 -118 28.5t-90 79.5zM851 782q-20 -8 -64 -39.5t-68 -55.5q-34 -34 -25.5 -58t57.5 -24h42h42q25 52 36 83.5t10 49.5q0 13 -8 25.5t-22 18.5zM1022 597h-69h-69q-18 -33 -36.5 -64.5t-57.5 -98.5q28 0 61.5 -1t98.5 -2q88 -1 128 -2t69 -1q39 67 59.5 100t30.5 48
q1 2 2.5 4l4.5 6q3 5 4.5 7t2.5 4h-114.5h-114.5zM411 421q-100 0 -174.5 -44t-113.5 -127q-22 -46 -16.5 -102t36.5 -105t78.5 -76.5t102.5 -27.5q30 0 51.5 7t44.5 23q34 24 73.5 74t90.5 132q30 49 67 111t72 122q-120 7 -193 10t-119 3z" />
    <glyph glyph-name="hbar" unicode="&#x127;" horiz-adv-x="579" 
d="M0 5q-5 -1 -7.5 -1h-4.5q-17 0 -22 9.5t3 26.5q24 37 66 110t138 242q63 113 87 154t35 59q7 11 11 17t7 11q-71 -1 -101 -2t-49 -3q-6 2 -4 11t9 10q23 -2 63 -3.5t89 -2.5q44 62 100 110t121 80q59 29 126 44t140 15q40 0 69 -1.5t44 -3.5q4 -1 6 -3t2 -6
q0 -10 -13.5 -24.5t-24.5 -14.5q-16 0 -35.5 1t-60.5 4q-49 4 -75 5.5t-49 1.5q-41 0 -70.5 -6t-55.5 -18q-42 -21 -83.5 -66.5t-85.5 -118.5h10h10q46 0 99 2t90 5q5 -2 3.5 -11t-8.5 -10q-38 2 -89 3.5t-96 1.5h-12.5h-12.5q-20 -32 -49.5 -83t-98.5 -172l-63 -111
t-39 -68q88 108 205 205t172 109q51 -11 40 -74t-84 -185q-64 -111 -73.5 -134.5t-9.5 -40.5q1 -13 9.5 -26t19.5 -17q24 10 64 40.5t68 59.5l6 -7q-48 -47 -84.5 -76t-70.5 -50q-2 -1 -6.5 -2t-10.5 -1q-7 0 -12.5 1t-9.5 3q-13 11 -22.5 30.5t-10.5 37.5q0 16 8.5 39
t30.5 62q8 14 27 46t29 49q56 95 69.5 145t-15.5 66q-57 -14 -174.5 -119t-195.5 -220q-10 -15 -22 -34.5t-33 -58.5q-11 -18 -15.5 -26.5t-8.5 -14.5h-3t-6 -1z" />
    <glyph glyph-name="Itilde" unicode="&#x128;" horiz-adv-x="732" 
d="M0 0zM55 -1q-22 -1 -29 -1h-10q-15 0 -27.5 3t-15.5 8q0 8 14.5 21.5t25.5 15.5q5 1 16.5 0t43.5 -6q44 -6 67.5 -8.5t42.5 -2.5q30 0 53 6.5t43 20.5q29 21 55 60t56 110q11 24 37 88t43 103q42 95 63.5 138.5t41.5 76.5q40 66 81.5 105.5t88.5 56.5h-7h-13q-9 1 -14 1
h-9q-36 0 -84.5 -4t-136.5 -15q-40 -5 -53.5 -6.5t-19.5 -1.5q-15 0 4.5 22t34.5 27q4 1 54 1.5t147 0.5q33 0 89 1t165 4q40 1 52 1.5t16 0.5q20 0 34 -3t17 -8q1 -6 -10 -17.5t-25 -19.5q-6 -2 -19.5 -1t-49.5 6q-42 6 -65 8t-42 2q-23 0 -44.5 -4t-38.5 -11
q-33 -15 -62 -54.5t-60 -115.5q-12 -27 -37.5 -94.5t-41.5 -104.5q-68 -157 -135.5 -250t-138.5 -128q6 -1 12.5 -1.5t13.5 -0.5q22 0 59 2.5t122 11.5q77 8 107 10t46 2q9 0 6 -12t-15 -24q-8 -8 -18 -12.5t-21 -4.5l-148 3q-74 1 -159.5 -0.5t-201.5 -5.5zM601 907
q-2 -3 -6 -1t0 6q29 42 55.5 62.5t52.5 20.5q12 0 27.5 -3t48.5 -11q31 -9 45.5 -11.5t25.5 -2.5q19 0 32 15t27 53q2 5 6.5 3.5t2.5 -6.5q-18 -47 -46.5 -77t-54.5 -30q-14 0 -31 3t-52 13q-31 8 -45 10.5t-24 2.5q-18 0 -32.5 -10.5t-31.5 -36.5z" />
    <glyph glyph-name="itilde" unicode="&#x129;" horiz-adv-x="297" 
d="M20 0zM99 3q-2 -1 -8 -2t-13 -1t-14 1t-9 3q-14 11 -24 30t-11 35q0 16 13 45.5t93 158.5q68 107 77 125t11 32q2 16 -8 30t-22 15q-15 -3 -57 -34t-71 -60l-7 6q25 25 72.5 62.5t80.5 58.5q8 5 15 6t13 0q15 -5 30 -30.5t15 -46.5q0 -28 -48 -101t-51 -77
q-74 -119 -85 -144t-10 -39q1 -12 12 -24.5t24 -16.5q23 10 61.5 40.5t68.5 60.5l6 -7q-51 -49 -86 -77.5t-68 -48.5zM160 583q-2 -3 -6 -1t0 6q29 42 55.5 62.5t52.5 20.5q12 0 27.5 -3t48.5 -11q31 -9 45.5 -11.5t25.5 -2.5q19 0 32 15t27 53q2 5 6.5 3.5t2.5 -6.5
q-18 -47 -46.5 -77t-54.5 -30q-14 0 -31 3t-52 13q-31 8 -45 10.5t-24 2.5q-18 0 -32.5 -10.5t-31.5 -36.5z" />
    </font>
</defs>
</svg>
