<svg xmlns="http://www.w3.org/2000/svg">
<defs>
<font id="OggRegularItalic" horiz-adv-x="809" >
  <font-face 
    font-family="Ogg"
    font-weight="400"
    font-style="italic"
    font-stretch="normal"
    units-per-em="1000"
    panose-1="2 9 5 4 8 7 6 10 2 3"
    ascent="800"
    descent="-200"
    x-height="511"
    cap-height="829"
    bbox="-516 -425.286 1997 1085"
    underline-thickness="50"
    underline-position="-150"
    slope="-29"
    unicode-range="U+000D-FB03"
  />
<missing-glyph horiz-adv-x="1414" 
d="M1229 695q53 -55 79 -152t26 -236q0 -126 -32.5 -230.5t-84.5 -158.5q-62 -62 -199.5 -107t-293.5 -45q-185 0 -342 46t-215 113q-45 51 -66 142t-21 237q0 114 28.5 216.5t75.5 155.5q67 77 202.5 117.5t327.5 40.5q189 0 322.5 -36t192.5 -103zM253 -6
q-18 -19 -32.5 -25.5t-32.5 -6.5q-3 0 -9 1.5t-15 4.5q4 -9 8.5 -16.5t10.5 -14.5q46 -51 196.5 -84t340.5 -33q162 0 299.5 33t181.5 76q37 38 56 134.5t19 245.5q0 182 -13 259.5t-48 114.5q-44 52 -172 78.5t-331 26.5q-176 0 -322 -34.5t-194 -87.5q-31 -36 -46.5 -127
t-15.5 -232v-64q44 31 62.5 39.5t35.5 8.5t35 -2.5t52 -11.5q32 -8 48 -10.5t31 -2.5q12 0 20.5 6.5t9.5 16.5q-18 -2 -37.5 6.5t-26.5 24.5q25 -9 47.5 -1.5t29.5 26.5q22 -11 40 -3t24 30q26 -2 42 7.5t22 31.5q29 -6 50 16.5t22 23.5q17 -1 39.5 6.5t43.5 22.5q5 2 10 5
l15 9l15 9t10 5q8 1 14 0t8 -4q-3 2 -12 -1.5t-13 -9.5q-32 -30 -46 -40.5t-29 -18.5q-26 -15 -40.5 -35.5t-21.5 -51.5q-4 -16 -11 -31t-18 -31q-5 -6 -10.5 -8.5t-13.5 -3.5q-21 -3 -25 -5t-5 -5q-1 -7 6 -12t17 -5q9 -1 25.5 -0.5t19.5 0.5q7 0 11 6t4 17q0 3 3.5 7
t15.5 13q15 11 20.5 17t7.5 12q2 9 0.5 16t-6.5 13q7 9 17 15t28 10q20 5 32.5 13t21.5 22q18 22 27.5 49t4.5 46q17 -10 33.5 -15t37.5 -5q17 0 26.5 4t14.5 12q18 -2 29.5 3t15.5 17q3 5 1.5 10t-6.5 6q19 -1 35 5.5t16 14.5q0 1 -3 1.5t-8 0.5q-6 0 -12.5 0.5t-17.5 3.5
q-10 2 -15 2.5t-10 0.5q-11 0 -20 -2.5t-15 -6.5l-2 2q5 8 14 11.5t28 3.5q4 0 8.5 -0.5t15.5 -1.5q14 -2 21.5 -2.5t14.5 -0.5q14 0 25 4.5t18 12.5q-15 0 -30 1t-41 5q-22 3 -32.5 4t-20.5 1q-17 0 -30.5 -10t-20.5 -28q-9 -17 -26.5 -20t-35.5 8q-7 5 -14 8t-14 3

<glyph glyph-name="uniFB00" unicode="ff" horiz-adv-x="683" 
d="M325 -17q-57 -103 -142.5 -166.5t-156.5 -63.5q-43 0 -71.5 24.5t-28.5 60.5v4q-46 -42 -95 -65.5t-88 -23.5q-47 0 -74 21.5t-27 58.5q0 30 19.5 54t48.5 28q-1 -14 0 -33t4 -33q7 -32 26 -53.5t43 -21.5q34 0 56.5 18t52.5 62q14 22 32 52t41 71q15 26 40.5 75
t89.5 173q50 99 75 146.5t44 83.5h-68q-5 0 -5 3t4 6l107 61q11 21 21.5 38.5t18.5 30.5q58 91 118 155.5t121 98.5q36 21 71.5 31t71.5 10q25 0 46.5 -3.5t41.5 -11.5q3 -1 4 -2.5t1 -4.5q0 -14 -17 -33t-32 -19q-9 0 -21.5 3t-42.5 12q-33 11 -49 14.5t-28 3.5
q-36 0 -62.5 -22t-64.5 -81q-16 -25 -36.5 -60t-50.5 -88l-31.5 -57t-19.5 -35h218q26 48 35.5 63.5t15.5 25.5q53 83 114.5 145.5t128.5 101.5q48 28 97 42t98 14q43 0 87 -6.5t70 -16.5q2 -1 3.5 -3t1.5 -4q0 -13 -20 -32t-36 -19q-13 0 -28 3t-48 12q-49 15 -78 19.5
t-57 4.5q-26 0 -46.5 -5t-38.5 -16q-35 -21 -75.5 -75t-101.5 -162q-1 -1 -20 -35.5t-30 -56.5q28 1 55 2t65 4q20 1 25.5 1h7.5q1 0 1.5 -0.5t0.5 -1.5q0 -10 -23 -35t-35 -26h-4.5t-16.5 1q-36 1 -59.5 2t-44.5 2q-18 -34 -39 -74t-62 -118q-61 -118 -91.5 -175
t-56.5 -104zM190 271q-64 -122 -95.5 -181t-58.5 -107q-13 -23 -26.5 -43t-27.5 -38q3 -58 25.5 -93t57.5 -35t59 18t54 61q16 22 34.5 53t41.5 71q15 26 40.5 75t89.5 173q50 99 75 146.5t44 83.5h-217q-18 -33 -38 -71t-58 -113z" />
    <glyph glyph-name="uniFB01" unicode="fi" horiz-adv-x="686" 
d="M452 509q0 -9 -23 -34.5t-35 -26.5h-6.5t-25.5 1q-28 0 -45.5 0.5t-33.5 0.5q-20 -38 -43 -81.5t-67 -128.5q-57 -109 -85 -161.5t-52 -95.5q-58 -104 -141 -167t-152 -63q-47 0 -74 21.5t-27 58.5q0 31 19 54.5t49 27.5q-1 -14 0 -33t4 -33q7 -32 26 -53.5t43 -21.5
q34 0 56 17.5t52 62.5q15 22 33 52t41 71q14 26 38.5 73t86.5 166q52 100 77 149t45 86h-13h-13h-37q-6 1 -6.5 5.5t3.5 6.5l105 61q17 31 26 46t15 24q91 144 205.5 223.5t232.5 79.5q37 0 65.5 -2.5t53.5 -7.5q3 -1 4 -2.5t1 -5.5q0 -14 -17 -34.5t-32 -20.5q-9 0 -23 1.5
t-48 7.5q-49 9 -74.5 11.5t-45.5 2.5q-51 0 -83.5 -20t-69.5 -71q-19 -26 -42.5 -64t-55.5 -95q-6 -10 -12.5 -22l-19.5 -36l-10.5 -19.5t-6.5 -11.5q24 0 51.5 0.5t67.5 1.5q10 1 13 1h4t1.5 -0.5t0.5 -1.5zM949 851q-40 -46 -141 -148t-116 -117l-6 6q75 77 139.5 151
t101.5 126q2 3 5.5 4.5t8.5 1.5q9 0 12.5 -8t-4.5 -16zM495 3q-2 -2 -7 -2.5t-17 -0.5q-10 0 -19.5 1t-11.5 3q-17 13 -28.5 34.5t-12.5 39.5q-1 14 8 37.5t29 58.5q11 19 30 50t24 39q15 25 52 81.5t43 78.5q3 13 -7 27t-23 17q-18 -6 -57 -32.5t-67 -51.5l-7 5
q27 26 77 64t88 61q8 5 17 5.5t16 -2.5q16 -8 32 -37t16 -49q0 -26 -51.5 -100.5t-56.5 -82.5q-5 -9 -22.5 -36t-25.5 -42q-18 -30 -26 -50t-7 -34q1 -11 13 -21.5t30 -15.5q23 8 57 32.5t63 54.5l6 -7q-45 -44 -82.5 -74t-72.5 -51z" />
    <glyph glyph-name="uniFB03" unicode="ffi" horiz-adv-x="976" 
d="M-257 -247q-47 0 -74 21.5t-27 58.5q0 30 19.5 54t48.5 28q-1 -14 0 -33t4 -33q7 -32 26 -53.5t43 -21.5q34 0 56.5 18t52.5 62q14 22 32 52t41 71q15 26 40.5 75t89.5 173q50 99 75 146.5t44 83.5h-68q-5 0 -5 3t4 6l107 61q11 21 21.5 38.5t18.5 30.5q58 91 118 155.5
t121 98.5q36 21 71.5 31t71.5 10q25 0 46.5 -3.5t41.5 -11.5q3 -1 4 -2.5t1 -4.5q0 -14 -17 -33t-32 -19q-9 0 -21.5 3t-42.5 12q-33 11 -49 14.5t-28 3.5q-36 0 -62.5 -22t-64.5 -81q-16 -25 -36.5 -60t-50.5 -88l-31.5 -57t-19.5 -35h218q22 41 33 60.5t19 31.5
q91 143 204 221.5t232 78.5q37 0 65.5 -2.5t53.5 -7.5q3 -1 4 -2.5t1 -5.5q0 -14 -17 -34.5t-32 -20.5q-9 0 -23 1.5t-48 7.5q-49 9 -74.5 11.5t-45.5 2.5q-52 0 -84 -19.5t-68 -69.5q-19 -26 -42.5 -64t-54.5 -94q-14 -25 -27 -48.5t-25 -46.5q28 1 54 2t58 4q16 1 20 1h6
q1 0 1.5 -0.5t0.5 -1.5q0 -10 -23 -35t-35 -26h-4t-14 1q-30 1 -51 2t-41 2q-18 -34 -38 -72.5t-59 -113.5q-63 -121 -93.5 -179t-57.5 -106q-57 -103 -142.5 -166.5t-156.5 -63.5q-43 0 -71.5 24.5t-28.5 60.5v4q-46 -42 -95 -65.5t-88 -23.5zM1237 851q-40 -46 -141 -148
t-116 -117l-6 6q75 77 139.5 151t101.5 126q2 3 5.5 4.5t8.5 1.5q9 0 12.5 -8t-4.5 -16zM783 3q-2 -2 -7 -2.5t-17 -0.5q-10 0 -19.5 1t-11.5 3q-17 13 -28.5 34.5t-12.5 39.5q-1 14 8 37.5t29 58.5q11 19 30 50t24 39q15 25 52 81.5t43 78.5q3 13 -7 27t-23 17
q-18 -6 -57 -32.5t-67 -51.5l-7 5q27 26 77 64t88 61q8 5 17 5.5t16 -2.5q16 -8 32 -37t16 -49q0 -26 -51.5 -100.5t-56.5 -82.5q-5 -9 -22.5 -36t-25.5 -42q-18 -30 -26 -50t-7 -34q1 -11 13 -21.5t30 -15.5q23 8 57 32.5t63 54.5l6 -7q-45 -44 -82.5 -74t-72.5 -51z
M190 271q-64 -122 -95.5 -181t-58.5 -107q-13 -23 -26.5 -43t-27.5 -38q3 -58 25.5 -93t57.5 -35t59 18t54 61q16 22 34.5 53t41.5 71q15 26 40.5 75t89.5 173q50 99 75 146.5t44 83.5h-217q-18 -33 -38 -71t-58 -113z" />
    <glyph glyph-name="f_j" unicode="fj" horiz-adv-x="676" 
d="M452 509q0 -9 -23 -34.5t-35 -26.5h-6.5t-25.5 1q-28 0 -45.5 0.5t-33.5 0.5q-20 -38 -43 -81.5t-67 -128.5q-57 -109 -85 -161.5t-52 -95.5q-58 -104 -141 -167t-152 -63q-47 0 -74 21.5t-27 58.5q0 31 19 54.5t49 27.5q-1 -14 0 -33t4 -33q7 -32 26 -53.5t43 -21.5
q34 0 56 17.5t52 62.5q15 22 33 52t41 71q14 26 38.5 73t86.5 166q52 100 77 149t45 86h-13h-13h-37q-6 1 -6.5 5.5t3.5 6.5l105 61q17 31 26 46t15 24q91 144 205.5 223.5t232.5 79.5q37 0 65.5 -2.5t53.5 -7.5q3 -1 4 -2.5t1 -5.5q0 -14 -17 -34.5t-32 -20.5q-9 0 -23 1.5
t-48 7.5q-49 9 -74.5 11.5t-45.5 2.5q-51 0 -83.5 -20t-69.5 -71q-19 -26 -42.5 -64t-55.5 -95q-6 -10 -12.5 -22l-19.5 -36l-10.5 -19.5t-6.5 -11.5q24 0 51.5 0.5t67.5 1.5q10 1 13 1h4t1.5 -0.5t0.5 -1.5zM949 851q-40 -46 -141 -148t-116 -117l-6 6q75 77 139.5 151
t101.5 126q2 3 5.5 4.5t8.5 1.5q9 0 12.5 -8t-4.5 -16zM224 -180q-57 -30 -103.5 -44t-88.5 -14q-23 0 -41 4.5t-25 12.5q-5 15 15.5 40t32.5 25q3 0 9 -1t23 -4q50 -10 80 -13.5t55 -3.5q41 0 77.5 30t79.5 101q20 34 55.5 101.5t46.5 87.5q84 155 108 206.5t26 70.5
q2 17 -4 32.5t-16 18.5q-23 -6 -64.5 -34.5t-68.5 -55.5l-7 6q25 26 78 65.5t95 65.5q8 4 18.5 4.5t18.5 -3.5q15 -7 21.5 -38t1.5 -67q-1 -18 -38 -93t-111 -205q-65 -117 -124.5 -183t-149.5 -112z" />
    <glyph glyph-name="f_f_j" unicode="ffj" horiz-adv-x="966" 
d="M-257 -247q-47 0 -74 21.5t-27 58.5q0 30 19.5 54t48.5 28q-1 -14 0 -33t4 -33q7 -32 26 -53.5t43 -21.5q34 0 56.5 18t52.5 62q14 22 32 52t41 71q15 26 40.5 75t89.5 173q50 99 75 146.5t44 83.5h-68q-5 0 -5 3t4 6l107 61q11 21 21.5 38.5t18.5 30.5q58 91 118 155.5
t121 98.5q36 21 71.5 31t71.5 10q25 0 46.5 -3.5t41.5 -11.5q3 -1 4 -2.5t1 -4.5q0 -14 -17 -33t-32 -19q-9 0 -21.5 3t-42.5 12q-33 11 -49 14.5t-28 3.5q-36 0 -62.5 -22t-64.5 -81q-16 -25 -36.5 -60t-50.5 -88l-31.5 -57t-19.5 -35h218q26 48 35.5 63.5t15.5 25.5
q91 144 205.5 223.5t232.5 79.5q37 0 65.5 -2.5t53.5 -7.5q3 -1 4 -2.5t1 -5.5q0 -14 -17 -34.5t-32 -20.5q-9 0 -23 1.5t-48 7.5q-49 9 -74.5 11.5t-45.5 2.5q-51 0 -83.5 -20t-69.5 -70q-19 -27 -43 -65.5t-55 -94.5q-4 -8 -9.5 -17.5l-16.5 -28.5q-10 -19 -15.5 -28.5
t-9.5 -17.5q28 1 54 2t58 4q16 1 20 1h6q1 0 1.5 -0.5t0.5 -1.5q0 -10 -23 -35t-35 -26h-4t-14 1q-30 1 -51 2t-40 2q-21 -39 -44.5 -84t-69.5 -132q-56 -108 -83.5 -160t-51.5 -95q-57 -103 -142.5 -166.5t-156.5 -63.5q-43 0 -71.5 24.5t-28.5 60.5v4q-46 -42 -95 -65.5
t-88 -23.5zM1238 851q-40 -46 -141 -148t-116 -117l-6 6q75 77 139.5 151t101.5 126q2 3 5.5 4.5t8.5 1.5q9 0 12.5 -8t-4.5 -16zM513 -180q-57 -30 -103.5 -44t-88.5 -14q-23 0 -41 4.5t-25 12.5q-5 15 15.5 40t32.5 25q3 0 9 -1t23 -4q50 -10 80 -13.5t55 -3.5
q41 0 77.5 30t79.5 101q20 34 55.5 101.5t46.5 87.5q84 155 108 206.5t26 70.5q2 17 -4 32.5t-16 18.5q-23 -6 -64.5 -34.5t-68.5 -55.5l-7 6q25 26 78 65.5t95 65.5q8 4 18.5 4.5t18.5 -3.5q15 -7 21.5 -38t1.5 -67q-1 -18 -38 -93t-111 -205q-65 -117 -124.5 -183
t-149.5 -112zM190 271q-64 -122 -95.5 -181t-58.5 -107q-13 -23 -26.5 -43t-27.5 -38q3 -58 25.5 -93t57.5 -35t59 18t54 61q16 22 34.5 53t41.5 71q15 26 40.5 75t89.5 173q50 99 75 146.5t44 83.5h-217q-18 -33 -38 -71t-58 -113z" />
    <glyph glyph-name="lslash_lslash" unicode="&#x142;&#x142;" horiz-adv-x="610" 
d="M740 983q128 -30 183.5 -39t91.5 -9q16 0 39 20.5t44 54.5l4 -1q-22 -52 -73.5 -85.5t-106.5 -33.5q-43 0 -106 10.5t-202 42.5q-117 28 -166 36.5t-79 8.5q-40 0 -59.5 -18.5t-21.5 -59.5q-2 -44 -11.5 -64.5t-27.5 -20.5t-32 13t-10 27q17 59 98.5 112.5t154.5 53.5
q37 0 94 -9.5t186 -38.5zM414 3q-3 -1 -8.5 -2t-12.5 -1q-9 0 -17.5 1t-10.5 3q-15 11 -24 33.5t-10 46.5q-2 22 13 60.5t57 115.5q45 82 97.5 173t72.5 121q36 61 99 118.5t138 97.5q66 35 131.5 54t121.5 19q24 0 48.5 -1.5t37.5 -3.5q5 -1 8 -3.5t3 -7.5
q0 -18 -15.5 -38.5t-29.5 -20.5q-8 0 -20 1t-43 5q-51 7 -78.5 9t-50.5 2q-39 0 -63.5 -5.5t-45.5 -17.5q-39 -23 -80 -74t-93 -141q-18 -29 -60 -104t-108 -195q-38 -69 -50.5 -102.5t-11.5 -55.5q1 -14 10 -25t23 -15q24 8 59 32.5t62 52.5l6 -7q-45 -44 -82.5 -74
t-72.5 -51zM482 841q9 -2 14 -5t7 -12q-56 -94 -108 -183.5t-234 -408.5q-30 -53 -44.5 -92.5t-12.5 -60.5q1 -10 9.5 -18.5t20.5 -10.5q25 8 59.5 32.5t60.5 52.5l6 -7q-40 -40 -78.5 -71.5t-74.5 -53.5q-3 -1 -8.5 -2t-12.5 -1q-9 0 -18.5 1t-11.5 3q-13 11 -22 29.5
t-10 36.5q-2 25 13.5 66t51.5 104q116 202 191 331t108 186q-2 8 -4 12t-5 7q-4 4 -11 6.5t-17 2.5q-13 0 -21 -0.5t-10 -1.5q-26 -6 -68 -12.5t-82 -11.5l-1 6q73 10 156 30t157 46z" />
    <glyph glyph-name=".notdef" horiz-adv-x="1414" 
d="M1229 695q53 -55 79 -152t26 -236q0 -126 -32.5 -230.5t-84.5 -158.5q-62 -62 -199.5 -107t-293.5 -45q-185 0 -342 46t-215 113q-45 51 -66 142t-21 237q0 114 28.5 216.5t75.5 155.5q67 77 202.5 117.5t327.5 40.5q189 0 322.5 -36t192.5 -103zM253 -6
q-18 -19 -32.5 -25.5t-32.5 -6.5q-3 0 -9 1.5t-15 4.5q4 -9 8.5 -16.5t10.5 -14.5q46 -51 196.5 -84t340.5 -33q162 0 299.5 33t181.5 76q37 38 56 134.5t19 245.5q0 182 -13 259.5t-48 114.5q-44 52 -172 78.5t-331 26.5q-176 0 -322 -34.5t-194 -87.5q-31 -36 -46.5 -127
t-15.5 -232v-64q44 31 62.5 39.5t35.5 8.5t35 -2.5t52 -11.5q32 -8 48 -10.5t31 -2.5q12 0 20.5 6.5t9.5 16.5q-18 -2 -37.5 6.5t-26.5 24.5q25 -9 47.5 -1.5t29.5 26.5q22 -11 40 -3t24 30q26 -2 42 7.5t22 31.5q29 -6 50 16.5t22 23.5q17 -1 39.5 6.5t43.5 22.5q5 2 10 5
l15 9l15 9t10 5q8 1 14 0t8 -4q-3 2 -12 -1.5t-13 -9.5q-32 -30 -46 -40.5t-29 -18.5q-26 -15 -40.5 -35.5t-21.5 -51.5q-4 -16 -11 -31t-18 -31q-5 -6 -10.5 -8.5t-13.5 -3.5q-21 -3 -25 -5t-5 -5q-1 -7 6 -12t17 -5q9 -1 25.5 -0.5t19.5 0.5q7 0 11 6t4 17q0 3 3.5 7
t15.5 13q15 11 20.5 17t7.5 12q2 9 0.5 16t-6.5 13q7 9 17 15t28 10q20 5 32.5 13t21.5 22q18 22 27.5 49t4.5 46q17 -10 33.5 -15t37.5 -5q17 0 26.5 4t14.5 12q18 -2 29.5 3t15.5 17q3 5 1.5 10t-6.5 6q19 -1 35 5.5t16 14.5q0 1 -3 1.5t-8 0.5q-6 0 -12.5 0.5t-17.5 3.5
q-10 2 -15 2.5t-10 0.5q-11 0 -20 -2.5t-15 -6.5l-2 2q5 8 14 11.5t28 3.5q4 0 8.5 -0.5t15.5 -1.5q14 -2 21.5 -2.5t14.5 -0.5q14 0 25 4.5t18 12.5q-15 0 -30 1t-41 5q-22 3 -32.5 4t-20.5 1q-17 0 -30.5 -10t-20.5 -28q-9 -17 -26.5 -20t-35.5 8q-7 5 -14 8t-14 3
q-5 0 -9.5 -1.5t-20.5 -11.5q-16 -13 -35 -26.5t-36 -22.5q-2 -1 -5 -2t-9 -2q-7 -1 -10.5 -2.5t-5.5 -2.5q-9 -3 -12.5 -8.5t-4.5 -17.5q-26 -6 -58 -20t-97 -51q-58 -32 -83 -43t-43 -14q-5 -1 -10.5 -1t-13.5 2q-3 1 -5 1h-4t-5.5 -1t-13.5 -4q-18 -7 -27.5 -9t-16.5 -2
q-8 0 -13 10.5t-5 26.5q-13 5 -23 32t-10 52q0 11 9.5 25t26.5 27q17 12 30.5 27t21.5 28l7 14t8 15q5 8 11 13.5t13 9.5q5 7 14 32t19 38q11 15 27 25t39 15q-14 -14 -13 -26t15 -12q11 0 23 1t37 4q-11 -11 6.5 -19.5t45.5 0.5q-7 -27 1 -35.5t35 -2.5q-9 -25 -1 -35.5
t32 -1.5q-8 -21 -2 -30.5t27 -13.5q-13 -26 -2 -33t45 6q-8 53 -14.5 77.5t-14.5 37.5t-19.5 23t-33.5 22q-35 16 -45 26t-10 24q0 15 9.5 24.5t24.5 9.5q13 0 22 -6t19 -21q2 -3 4 -7.5t6 -15.5q5 -14 8 -21t7 -13q11 -17 28 -27t48 -19l-17 -16l-35 22q15 -37 18 -47
t5 -18q14 1 24.5 -2.5t17.5 -11.5q12 0 19.5 3t12.5 12q2 5 4 6t4 1q7 0 13.5 -1t23.5 -7q6 -3 18.5 -4.5t17.5 -2.5q9 8 14.5 22.5t5.5 28.5q0 25 -10.5 37t-32.5 12q-12 0 -21.5 -5.5t-12.5 -15.5q-3 -6 -2 -9.5t5 -3.5q12 0 17.5 -2.5t5.5 -7.5q0 -4 -1.5 -5t-7.5 -1
q-3 0 -6 1t-8 4q-1 0 -2 0.5l-1 0.5q-2 0 -4 -1t-5 -3q-4 -3 -6 -4t-4 -1q-4 0 -6.5 1t-2.5 3q0 4 4 9t7 6q1 2 2 3.5t1 5.5t1 7l2 6q6 13 20 21t29 8q23 0 39.5 -12t22.5 -33q6 13 15.5 23.5t22.5 17.5q8 5 18.5 7.5t32.5 3.5q25 2 38.5 5t26.5 9l4 -6q-10 -13 -20 -19
t-22 -6q4 -12 0.5 -22.5t-13.5 -15.5q4 -6 -3.5 -16t-17.5 -10q25 -4 55 -5t59 0l1 -5q-6 -15 -24.5 -24.5t-40.5 -10.5q4 -13 -13 -24t-36 -8q0 -17 -15.5 -27t-40.5 -10q-3 -7 -15.5 -11t-28.5 -4q-10 0 -22.5 2.5t-30.5 7.5q-6 -26 -5 -36t9 -12q5 -2 12.5 -1.5t25.5 5.5
q19 5 28.5 6.5t18.5 1.5q23 0 42 -9t35 -27q5 -6 10.5 -13t15.5 -21l19.5 -25.5t13.5 -16.5q22 -24 39 -34.5t33 -10.5q26 0 40.5 20t14.5 56q0 20 -5 37.5t-31 58.5q-8 14 -11.5 27t-3.5 25q0 31 24.5 79t26.5 54h11q2 -16 2.5 -36t-0.5 -61q-2 -30 -2 -44t1 -25
q1 -5 9.5 -43.5t8.5 -65.5q0 -45 -23 -72t-60 -27q-17 0 -32.5 5t-61.5 34v-48q0 -47 13 -58t69 -7q40 1 54.5 -13.5t10.5 -51.5q-3 -46 -8 -86.5t-11 -74.5q-4 -25 -37 -44t-78 -19q-12 0 -19 1.5t-7 4.5q-2 9 -0.5 18t5.5 10l6 6t7 6q4 4 7.5 5.5t7.5 1.5h5t9 -1
q5 -1 7.5 -1h4.5q19 1 26.5 7.5t7.5 22.5q-4 24 -5.5 41t-1.5 54q0 22 -6 30.5t-23 8.5q-5 0 -12 -0.5t-22 -2.5q-16 -2 -24 -2.5t-15 -0.5q-39 0 -60 27t-21 75q0 21 -1.5 29.5t-4.5 10.5q-7 -11 -11.5 -24t-4.5 -26q0 -44 15.5 -70.5t48.5 -39.5q2 -2 2 -11.5t-2 -14.5
q-5 -6 -11.5 -13.5t-19.5 -21.5q-20 -24 -30.5 -36t-18.5 -23q-16 -27 -53 -42t-80 -14q-5 0 -14.5 3t-9.5 6q-1 10 -0.5 19.5t2.5 12.5q1 1 12.5 9t18.5 8h7.5t10.5 -1q5 -1 7.5 -1h4.5q21 0 30.5 3.5t17.5 12.5q2 4 5 8t8 11q6 9 9 13t5 8q20 30 16 46t-33 27
q-37 14 -49 35t0 51q10 26 27 44t54 38q-21 6 -47 -7t-47 -42q-11 -16 -31 -47t-29 -44q-21 -28 -42 -39.5t-48 -11.5q-20 0 -41 7.5t-47 23.5q12 20 14 46.5t-7 42.5q-17 -68 -34 -88t-57 -13q-11 -23 -35 -32.5t-58 -4.5q-9 -22 -34.5 -38t-51.5 -15q-6 0 -12 -3t-16 -14z
M626 670q4 -2 5.5 -3t2.5 -1q-3 4 -5.5 8.5l-7.5 13.5q-4 9 -7 14t-6 9q-8 9 -10.5 10.5t-6.5 1.5q-5 0 -8.5 -4.5t-3.5 -9.5q0 -8 7.5 -15.5t22.5 -16.5q3 -1 6.5 -2.5zM771 582q0 3 2.5 5.5t8.5 4.5q5 2 9.5 0.5t4.5 -5.5q0 -3 -2 -4.5t-9 -2.5q-7 0 -10.5 0.5t-3.5 1.5z
M448 548q0 -10 -2 -15.5t-7 -9.5v-7q15 8 22.5 19t7.5 27q0 12 -10 21t-23 9q-12 0 -22.5 -8t-22.5 -25l3 -5q10 9 16.5 13t12.5 4q10 0 17.5 -6.5t7.5 -16.5zM725 539q-2 5 -9.5 7t-16.5 1q-4 -4 -1 -16t7 -12q7 0 15.5 8t4.5 12zM314 492q1 -4 1 -6v-3q0 -2 -0.5 -4
t-3.5 -6l-1.5 -3t-0.5 -2q0 -3 1 -4t3 -1l1 1t4 5q4 8 6.5 10.5t4.5 3.5q7 5 12 10t10 12h-4.5t-7.5 1q-7 1 -10 1h-6q-5 0 -7 -1.5t-2 -5.5v-3v-5zM228 442l-0.5 -2t-0.5 -6q0 -16 3 -25.5t9 -9.5q1 0 2 1.5t1 4.5v14t1 6q2 2 4.5 3.5t6.5 3.5q5 2 6 3.5t1 3.5q0 4 -1.5 5
t-3.5 -2q-7 -5 -17.5 -2.5zM324 371q-39 -4 -51 -2t-22 8l-3 -2q8 -12 17 -17.5t25 -3.5q2 3 10 5t15 2q3 0 5.5 -1t7.5 -4q2 -2 3 -2.5t2 -0.5q3 0 4 1t1 4q0 6 -4 9.5t-10 3.5zM153 161q-11 -5 -14 -11t-3 -17q1 -24 4 -50t7 -50q9 5 17.5 8t23.5 4q42 7 74 22t57 39
q7 7 17 14t30 20q32 20 43 32.5t14 27.5q-16 -14 -28.5 -18.5t-30.5 -4.5q-16 0 -27.5 7.5t-17.5 22.5q-19 -16 -41.5 -12.5t-31.5 24.5q-4 10 -7.5 12.5t-9.5 2.5q-4 0 -8 -3t-12 -14q-10 -14 -17.5 -19.5t-15.5 -6.5q-2 -11 -7 -18t-16 -12z" />
    <glyph glyph-name=".null" horiz-adv-x="0" 
 />
    <glyph glyph-name="nonmarkingreturn" horiz-adv-x="333" 
 />
    <glyph glyph-name="NULL" horiz-adv-x="0" 
 />
    <glyph glyph-name="NULL" horiz-adv-x="0" 
 />
    <glyph glyph-name="CR" unicode="&#xd;" horiz-adv-x="290" 
 />
    <glyph glyph-name="space" unicode=" " horiz-adv-x="290" 
 />
    <glyph glyph-name="exclam" unicode="!" horiz-adv-x="305" 
d="M233 401q-30 -53 -58 -107t-56 -114l-9 2q53 110 94 204t102 246q33 85 56 137t42 88q3 5 10.5 7.5t18.5 2.5q13 0 26 -3.5t19 -8.5q2 -1 3 -3.5t0 -4.5q-14 -32 -37.5 -77t-86.5 -155q-14 -24 -55.5 -94.5t-68.5 -119.5zM89 5q-4 -3 -14 -4.5t-23 -1.5q-19 0 -28 2
t-13 6q-8 13 2.5 46t26.5 41q5 3 17.5 5t24.5 2t24 -3t14 -7q3 -22 -7 -49t-24 -37z" />
    <glyph glyph-name="quotedbl" unicode="&#x22;" horiz-adv-x="289" 
d="M357 687q6 12 14.5 17.5t21.5 5.5q15 0 20 -10.5t-2 -23.5q-1 -3 -6.5 -12t-23.5 -37q-48 -77 -74.5 -123t-43.5 -82q-3 -7 -7 -6t-1 8q19 40 40 93t50 137q7 18 9 24zM231 686q6 12 14.5 17.5t21.5 5.5q15 0 20 -10.5t-2 -23.5q-1 -3 -6.5 -12t-23.5 -37
q-48 -77 -74.5 -123t-43.5 -82q-3 -7 -7 -6t-1 8q19 40 40 93t50 137q7 18 9 24z" />
    <glyph glyph-name="numbersign" unicode="#" 
d="M563 218q-19 1 -42.5 1h-78.5h-85.5t-45.5 -1q1 -36 2 -101t2 -103q-2 -1 -8.5 -6.5t-16.5 -3.5q2 40 5.5 108t4.5 106q-31 -1 -62.5 -2t-132.5 -5q-1 2 -6.5 8.5t-3.5 16.5q60 -4 106 -5.5t100 -2.5q1 17 1 40v82v64v64q-36 -1 -72.5 -2t-124.5 -4q-1 2 -6.5 8.5
t-3.5 16.5q52 -3 97.5 -5t108.5 -4v38.5t-1 59.5q-1 35 -1.5 55t-0.5 40q7 5 10.5 6.5t16.5 -0.5q-1 -16 -6 -86t-6 -113q19 -1 44 -1h84h80t43 1v38.5t-1 59.5q-1 35 -1.5 55t-0.5 40q7 5 10.5 6.5t16.5 -0.5q-1 -16 -6 -86t-6 -113q24 0 49 0.5t71 1.5l49.5 1.5t31.5 0.5
q5 -7 6.5 -10.5t-0.5 -16.5q-64 5 -110.5 8t-96.5 4q-1 -36 -1.5 -65.5t-0.5 -60.5v-61.5v-61.5q24 0 49.5 0.5t71.5 1.5q33 1 50 1.5t32 0.5q5 -7 6.5 -10.5t-0.5 -16.5q-67 6 -113 8.5t-96 3.5q0 -19 0.5 -39t1.5 -65q1 -35 1.5 -56.5t0.5 -42.5q-2 -1 -8.5 -6.5
t-16.5 -3.5q2 40 5.5 108.5t4.5 105.5zM313 478q-1 -38 -1.5 -67t-0.5 -60v-61.5v-61.5q20 -1 45 -1h85h79.5t43.5 1q1 17 1 40v82v64v64q-19 1 -43.5 1h-79.5h-85t-44 -1z" />
    <glyph glyph-name="dollar" unicode="$" horiz-adv-x="561" 
d="M579 431q-3 -6 -7 -4.5t-2 6.5q49 96 32.5 166t-92.5 89q-35 -64 -71.5 -135t-84.5 -167q74 -53 97.5 -89.5t23.5 -80.5q0 -97 -85 -165.5t-201 -68.5q-9 0 -18.5 0.5t-19.5 2.5q-19 -38 -28.5 -58t-17.5 -37q-5 -6 -11 -7t-16 1q4 7 8 14.5l12 22.5l22.5 40.5t13.5 25.5
q-37 6 -78 21t-94 41q-7 3 -8 5.5t1 7.5q3 8 16 32.5t49 91.5q20 37 29 54t16 29q2 5 7 4t2 -7q-52 -104 -35 -177t100 -91q43 80 84.5 160t82.5 161q-48 36 -60 46.5t-21 19.5q-21 22 -30.5 45.5t-9.5 49.5q0 91 80.5 157t190.5 66q11 0 21 -1l20 -2q17 35 25.5 52t15.5 32
q5 3 10.5 4t14.5 -1q-4 -7 -21 -39t-27 -51q20 -4 40.5 -10t40.5 -15q22 -9 49 -24l27 -15q5 -2 6 -4.5t0 -6.5q-2 -5 -10.5 -21.5t-33.5 -64.5q-25 -47 -36.5 -69t-18.5 -36zM455 694q-87 0 -145.5 -46t-58.5 -121q0 -34 19.5 -64t74.5 -70q15 29 31.5 62.5t47.5 96.5
q29 58 43 86.5t26 52.5q-9 2 -18.5 2.5t-19.5 0.5zM195 -8q90 0 148 56.5t58 130.5q0 37 -19 68t-67 66q-54 -107 -90.5 -179t-68.5 -139q9 -1 18.5 -2t20.5 -1z" />
    <glyph glyph-name="percent" unicode="%" horiz-adv-x="839" 
d="M860 689q-87 -70 -204.5 -168.5t-211.5 -180.5q-31 -27 -126 -112.5t-253 -229.5q-9 -2 -19 5.5t-11 8.5q21 18 168 138.5t230 191.5q42 37 101 90t178 161q56 51 80.5 73.5t42.5 38.5q5 1 9 -0.5t8 -8.5l4.5 -4.5t3.5 -2.5zM357 695q62 0 89 -44.5t9 -112.5
q-11 -40 -40.5 -74t-70.5 -55q-32 -16 -56 -24.5t-37 -8.5q-63 0 -92.5 46t-11.5 110q10 40 39.5 74t71.5 56q32 17 56 25t43 8zM198 538q-16 -58 6.5 -95.5t72.5 -37.5q25 0 39 2t27 7q20 21 34.5 49.5t25.5 68.5q17 63 -4.5 100.5t-71.5 37.5q-19 0 -36.5 -3.5t-28.5 -8.5
q-22 -22 -38 -52t-26 -68zM640 312q62 0 89 -44.5t9 -112.5q-11 -40 -40.5 -74t-70.5 -55q-32 -16 -56 -24.5t-37 -8.5q-63 0 -92.5 46t-11.5 110q10 40 39.5 74t71.5 56q32 17 56 25t43 8zM481 155q-16 -58 6.5 -95.5t72.5 -37.5q25 0 39 2t27 7q20 21 34.5 49.5t25.5 68.5
q17 63 -4.5 100.5t-71.5 37.5q-19 0 -36.5 -3.5t-28.5 -8.5q-22 -22 -38 -52t-26 -68z" />
    <glyph glyph-name="ampersand" unicode="&#x26;" horiz-adv-x="1092" 
d="M493 172q-51 -86 -117 -139.5t-144 -70.5q-45 1 -88 32t-72 82q-29 52 -33 105t21 90q40 57 119 107.5t173 77.5q-9 30 -13.5 58t-3.5 52q1 40 31.5 91.5t83.5 102.5q33 33 82.5 52t102.5 19q48 0 91.5 -20t64.5 -52q-38 -43 -72 -85.5t-64 -84.5l-7 4q31 42 53 75t34 52
q-23 34 -62.5 52t-90.5 18q-49 0 -85.5 -13.5t-60.5 -40.5q-21 -21 -32 -51t-12 -70q-2 -60 31.5 -151.5t92.5 -187.5q68 -110 138.5 -178t118.5 -68q13 0 25.5 3t23.5 9q28 16 51.5 53t44.5 97q30 90 17 149.5t-68 86.5q-22 10 -50 15.5t-63 5.5q-20 0 -51.5 -2.5
t-43.5 -4.5q-4 -1 -5.5 0t-1.5 4t2.5 8t8.5 13q9 13 17.5 23.5t14.5 16.5q3 4 6 5.5t7 1.5q25 0 105 1.5t110 3.5q60 5 103.5 13t80.5 22q3 1 6 2.5t9 3.5q7 2 10 3.5t6 2.5t4.5 0.5t1.5 -1.5q0 -2 -1 -3.5t-3 -3.5q-10 -10 -56 -46t-69 -51q-8 -5 -11 -6.5t-4 -1.5h-23
q-22 1 -45 2.5t-64 4.5q-38 4 -55.5 5t-32.5 1q-5 0 -2 -0.5t5 -0.5q24 -5 46 -12t41 -17q83 -41 118 -113.5t7 -142.5q-14 -36 -52 -69t-119 -75q-9 -4 -19 -9.5t-30 -15.5q-26 -14 -39 -20.5t-24 -12.5q-43 5 -101.5 57t-117.5 137zM357 440q-85 -13 -146.5 -50.5
t-92.5 -94.5q-17 -33 -10 -80t36 -95q29 -47 68 -76t75 -29q53 0 103 40.5t98 123.5q-11 15 -20.5 30t-17.5 29q-31 53 -55 104.5t-38 97.5z" />
    <glyph glyph-name="quotesingle" unicode="'" horiz-adv-x="164" 
d="M231 686q6 12 14.5 17.5t21.5 5.5q15 0 20 -10.5t-2 -23.5q-1 -3 -6.5 -12t-23.5 -37q-48 -77 -74.5 -123t-43.5 -82q-3 -7 -7 -6t-1 8q19 40 40 93t50 137q7 18 9 24z" />
    <glyph glyph-name="parenleft" unicode="(" horiz-adv-x="400" 
d="M189 -263q4 -5 -2 -9t-9 1q-73 109 -71.5 273.5t76.5 324.5q69 150 191.5 270t279.5 192q8 5 11.5 0.5t-5.5 -9.5q-147 -68 -261.5 -186t-187.5 -274q-76 -166 -82.5 -323t60.5 -260z" />
    <glyph glyph-name="parenright" unicode=")" horiz-adv-x="400" 
d="M195 781q-4 5 2 9t9 -1q73 -109 71.5 -273.5t-76.5 -324.5q-69 -150 -191.5 -270t-279.5 -192q-8 -5 -11.5 -0.5t5.5 9.5q147 68 261.5 186t187.5 274q76 166 82.5 323t-60.5 260z" />
    <glyph glyph-name="asterisk" unicode="*" horiz-adv-x="351" 
d="M170 401q-8 4 -11 20t5 32l2 2.5t9 10.5q29 32 43 50t18 28q-13 -1 -34.5 -7.5t-60.5 -21.5l-12 -4l-3 -1q-17 -2 -31 6t-17 18q2 11 14.5 20t29.5 11q1 0 3.5 -0.5t11.5 -2.5q42 -9 65 -12.5t34 -1.5q-8 12 -27 29.5t-51 43.5q-4 3 -5.5 4l-1.5 1q-10 15 -10 31t8 22
q9 6 23.5 0t24.5 -22q1 -1 2.5 -4.5t5.5 -17.5q14 -39 21.5 -57.5t13.5 -26.5q5 11 9.5 30t11.5 56q3 15 3.5 19.5t1.5 5.5q7 16 20.5 24t23.5 5q8 -4 11 -20t-5 -32q0 -1 -2.5 -4t-11.5 -13q-28 -31 -41 -47.5t-17 -26.5q13 1 35 8t61 21q9 3 11.5 4l2.5 1q17 2 31 -6
t17 -19q-2 -10 -14.5 -19t-29.5 -11l-2.5 0.5t-10.5 2.5q-42 9 -65.5 12.5t-35.5 1.5q8 -12 28 -30.5t52 -43.5q3 -3 4 -3.5l1 -0.5q10 -15 10 -31t-9 -23q-8 -5 -22.5 1.5t-24.5 21.5q-1 0 -2.5 4.5l-6.5 19.5q-13 38 -20.5 56t-13.5 26q-5 -11 -9.5 -29.5t-11.5 -56.5
q-2 -15 -3 -19.5t-2 -5.5q-7 -16 -20.5 -24t-23.5 -5z" />
    <glyph glyph-name="plus" unicode="+" horiz-adv-x="558" 
d="M480 347q5 -4 5 -12.5t-5 -11.5q-66 5 -96 6t-67 1q0 -40 1 -71t6 -93q-3 -5 -11.5 -5t-12.5 5q2 28 2.5 57t0.5 107q-38 0 -68 -1t-95 -6q-5 3 -5 11.5t5 12.5q69 -4 99 -5t64 -1q0 81 -0.5 109.5t-2.5 55.5q4 5 12.5 5t11.5 -5q-5 -66 -6 -96.5t-1 -68.5q36 0 67 1
t96 5z" />
    <glyph glyph-name="comma" unicode="," horiz-adv-x="247" 
d="M123 28q-18 -33 -55 -61t-99 -53q-2 -1 -3 0.5t1 2.5q30 14 59 38t49 52q1 1 7.5 10.5t9.5 15.5h-2q-8 -12 -24.5 -23t-28.5 -11q-9 0 -14.5 3t-11.5 10q-6 11 4 39t24 39q5 4 19 6.5t27 2.5q14 0 26 -3.5t17 -9.5q6 -7 4.5 -25.5t-9.5 -32.5z" />
    <glyph glyph-name="hyphen" unicode="-" horiz-adv-x="375" 
d="M76 269q24 -2 51 -3t64 -1t65 1t52 3q6 -4 3 -19t-10 -19q-25 3 -51 4t-64 1q-29 0 -56.5 -1t-60.5 -4q-5 4 -2.5 18.5t9.5 19.5z" />
    <glyph glyph-name="period" unicode="." horiz-adv-x="247" 
d="M54 -1q-19 0 -28 2t-13 6q-8 13 2.5 46t26.5 41q5 3 17.5 5t24.5 2t24 -3t14 -7q3 -22 -7 -49t-24 -37q-4 -3 -14 -4.5t-23 -1.5z" />
    <glyph glyph-name="slash" unicode="/" horiz-adv-x="356" 
d="M646 778q-78 -82 -195.5 -213.5t-278.5 -317.5q-184 -210 -280.5 -321t-169.5 -197q-19 -5 -22 -4t-7 5q57 61 124 135.5t341 385.5q107 123 240 276t220 255q11 3 15 2.5t13 -6.5z" />
    <glyph glyph-name="zero" unicode="0" horiz-adv-x="912" 
d="M473 26q-37 -13 -92.5 -26.5t-80.5 -13.5q-42 0 -86 19t-61 46q-45 69 -42 158.5t57 180.5q58 97 161 186.5t192 129.5q29 13 87.5 25.5t90.5 12.5q40 0 78 -19.5t57 -48.5q42 -65 35.5 -164.5t-62.5 -194.5q-55 -92 -144.5 -169t-189.5 -122zM225 90q20 -29 68 -49
t96 -20q24 0 45.5 3.5t36.5 9.5q65 31 94.5 54t58.5 56q25 29 51.5 68t55.5 89q51 91 60.5 190.5t-26.5 153.5q-22 32 -66 51t-95 19q-19 0 -40.5 -4.5t-36.5 -11.5q-92 -44 -155 -111.5t-127 -179.5q-47 -84 -52 -174t32 -144z" />
    <glyph glyph-name="one" unicode="1" horiz-adv-x="381" 
d="M-17 2q-35 -1 -47.5 -1.5t-17.5 -0.5q-4 0 -3 3t5 3q49 0 85 23t70 77q18 29 150 261.5t144 255.5q6 12 5 17.5t-9 5.5q-10 0 -34 -9.5t-75 -33.5q-6 -3 -8 0.5t3 5.5q70 32 128 65t100 64q9 8 13 9t8 -1q5 -2 6 -6t-2 -8q-172 -308 -263 -469t-99 -177
q-24 -45 -10.5 -62.5t72.5 -17.5q4 0 3.5 -3t-4.5 -3q-8 0 -24 0.5t-57 1.5q-34 1 -47 1.5t-18 0.5q-6 0 -21 -0.5t-53 -1.5z" />
    <glyph glyph-name="two" unicode="2" horiz-adv-x="795" 
d="M-14 -4h-23h-6q-4 0 -5.5 7.5t2.5 9.5q119 60 213 109.5t170 92.5q162 93 247.5 162t110.5 127q37 86 -8 145t-149 59q-27 0 -50 -4t-42 -12q-45 -19 -77.5 -64t-57.5 -123q-9 -30 -22 -41.5t-35 -11.5q-17 0 -25 6.5t-8 19.5q0 7 2.5 16t8.5 21q25 55 82.5 105t129.5 79
q39 16 78.5 24t78.5 8q110 0 163.5 -65t14.5 -159q-14 -35 -60.5 -74t-141.5 -95q-42 -24 -125 -70t-109 -60q-68 -38 -128 -73t-117 -70l169 1q75 0 129 5t93 15q52 13 90 39t87 89q4 5 7 3t-1 -7q-4 -6 -11.5 -17.5t-27.5 -43.5q-33 -55 -50 -81t-28 -42q-8 -12 -14 -17
t-15 -6q-8 -1 -34 -1.5t-99 -0.5q-36 -1 -52.5 -1h-28.5q-64 0 -142.5 -1t-183.5 -3z" />
    <glyph glyph-name="three" unicode="3" horiz-adv-x="733" 
d="M430 36q-57 -29 -114 -45t-101 -16q-96 0 -153.5 51t-36.5 125q10 37 55.5 67t102.5 40q4 1 4.5 -1.5t-2.5 -3.5q-35 -6 -57.5 -24.5t-29.5 -48.5q-16 -71 45.5 -120t153.5 -49q32 0 65 8.5t63 24.5q34 18 60.5 42.5t41.5 53.5q24 45 27.5 93.5t-12.5 90.5
q-18 47 -56.5 73.5t-90.5 26.5q-23 0 -46.5 -7.5t-60.5 -29.5q-22 -13 -31 -16.5t-16 -3.5q-10 0 -15 4.5t-5 12.5q0 10 7 16t22 8q220 37 289.5 65t96.5 74q42 70 10 131.5t-110 61.5q-16 0 -31.5 -2t-29.5 -6q-44 -12 -73 -44t-47 -86q-10 -31 -21 -41.5t-29 -10.5
q-23 0 -30 15t5 38q26 47 76 81.5t118 52.5q27 7 54.5 10.5t54.5 3.5q43 0 79 -16t57 -45q24 -31 24 -69t-23 -76q-17 -27 -50 -45.5t-94 -33.5q-26 -7 -82 -18.5t-84 -17.5q22 3 41 4.5t31 1.5q52 0 90.5 -26t52.5 -70q13 -39 4 -84.5t-39 -92.5q-20 -32 -61.5 -65
t-98.5 -62z" />
    <glyph glyph-name="four" unicode="4" horiz-adv-x="741" 
d="M369 2q-41 1 -60.5 1.5t-32.5 0.5q-14 0 -36.5 -0.5t-70.5 -2.5q-26 -1 -35 -1h-13q-5 0 -4.5 3t5.5 3q57 0 93 21t71 76q7 12 36 60.5t64 108.5h-160.5t-170.5 1q-4 0 -5 5.5t3 7.5q138 91 331.5 228t311.5 228q5 4 9.5 6t8.5 2q5 0 7.5 -2t2.5 -7q0 -3 -1.5 -6.5
t-3.5 -7.5q-9 -13 -61.5 -104t-169.5 -297h33h33q68 0 102.5 18t78.5 80q3 4 8 1t1 -7q-16 -18 -41.5 -52.5t-61.5 -84.5q-5 -6 -10 -8t-15 -2q-35 0 -76.5 0.5t-81.5 0.5q-23 -41 -47 -84t-52 -94q-24 -50 -7 -69t78 -19q4 0 3.5 -3t-4.5 -3q-6 0 -18 0.5t-42 1.5zM569 637
l-374 -265q-23 -18 -36.5 -28.5t-17.5 -14.5q12 -2 31.5 -3t48.5 -1q54 0 104.5 0.5t91.5 0.5q42 73 94 162.5t90 154.5q2 4 4 8.5t2 5.5t-0.5 2t-1.5 1q-3 0 -13.5 -7t-22.5 -16z" />
    <glyph glyph-name="five" unicode="5" horiz-adv-x="720" 
d="M411 43q-63 -33 -122.5 -50.5t-107.5 -17.5q-95 0 -144 44.5t-28 117.5q12 41 69.5 79.5t117.5 48.5q5 1 5.5 -2.5t-2.5 -4.5q-56 -10 -84.5 -32t-38.5 -61q-15 -61 39 -104t143 -43q46 0 82.5 7.5t66.5 23.5q36 18 65.5 48t51.5 71q25 45 29 92.5t-13 86.5
q-18 44 -57 68.5t-90 24.5q-46 0 -90 -17.5t-96 -55.5q-30 -22 -35.5 -24.5t-10.5 -2.5q-9 0 -13.5 4.5t-4.5 13.5t9 15.5t22 6.5q8 0 14 1.5t11 5.5q6 5 12.5 12t13.5 18l196 303q3 3 6 5t6 2h324q46 0 72 15.5t51 61.5q3 4 6.5 2t0.5 -6q-13 -24 -31 -57t-41 -73
q-4 -7 -9 -9.5t-16 -2.5q-6 0 -35.5 0.5t-120.5 1.5q-125 1 -172 1.5t-60 0.5q-3 0 -5.5 -1.5t-4.5 -3.5q-51 -76 -107 -161.5t-64 -100.5q0 -1 -1 -2t-1 -2t0.5 -1.5t1.5 -0.5q3 0 10 3t15 8q66 38 116.5 53t99.5 15q51 0 91.5 -25.5t60.5 -68.5q19 -41 14 -88t-33 -93
q-21 -36 -71 -76.5t-113 -73.5z" />
    <glyph glyph-name="six" unicode="6" horiz-adv-x="810" 
d="M473 19q-37 -17 -81.5 -28t-80.5 -11q-45 0 -86 19.5t-65 52.5q-52 73 -47 156t64 182q94 157 289.5 256.5t443.5 123.5q12 1 12.5 -3t-10.5 -6q-236 -23 -395 -109t-254 -240q-1 -2 -3 -5t-6 -11q-3 -6 -5 -9.5t-4 -6.5q24 20 51 36t58 30q48 21 93 32t86 11
q44 0 82 -22.5t56 -57.5q30 -55 27.5 -120t-39.5 -126q-27 -44 -69.5 -77.5t-116.5 -66.5zM228 90q27 -38 69 -59t90 -21q26 0 45 3t36 11q52 22 82.5 55.5t56.5 91.5q21 48 17.5 110t-26.5 98t-63 56.5t-90 20.5q-24 0 -45.5 -4t-41.5 -12q-52 -20 -87 -55t-59 -89
q-23 -53 -18 -109.5t34 -96.5z" />
    <glyph glyph-name="seven" unicode="7" horiz-adv-x="686" 
d="M217 -35q-16 -37 -27.5 -46.5t-29.5 -9.5q-27 0 -34 21.5t11 46.5q34 50 95 123t146 165q95 102 200.5 208.5t188.5 185.5h-346q-70 0 -117.5 -25t-91.5 -88q-2 -4 -6.5 -0.5t-1.5 7.5q16 20 46 63t75 109q3 4 38.5 3t71.5 -1h408l3 -10q-188 -174 -283.5 -270.5
t-159.5 -174.5q-61 -76 -105.5 -149t-80.5 -158z" />
    <glyph glyph-name="eight" unicode="8" horiz-adv-x="721" 
d="M484 58q-58 -38 -118.5 -59.5t-112.5 -21.5q-116 0 -178.5 54.5t-39.5 134.5q15 53 87.5 107.5t225.5 122.5q-69 40 -89 77.5t-2 84.5q12 30 46 62.5t84 60.5q54 31 110.5 48.5t103.5 17.5q100 0 151.5 -51.5t26.5 -119.5q-19 -44 -65 -79t-169 -88l-7 4
q86 36 124.5 67.5t52.5 82.5q16 57 -33.5 102.5t-136.5 45.5q-43 0 -82 -9.5t-71 -27.5q-29 -16 -49.5 -39.5t-31.5 -51.5t-0.5 -52t43.5 -48q12 -9 29 -19t75 -40t88 -51t48 -43q28 -33 31 -71.5t-18 -83.5q-12 -25 -45 -56.5t-78 -60.5zM358 391q-120 -46 -181.5 -94
t-74.5 -103q-14 -69 50 -120t168 -51q49 0 89 9.5t70 29.5q23 15 40 34.5t28 42.5q19 42 15 77t-31 66q-17 18 -43.5 36t-84.5 49q-4 2 -20 10.5t-25 13.5z" />
    <glyph glyph-name="nine" unicode="9" horiz-adv-x="818" 
d="M400 39q-54 -26 -104.5 -40t-88.5 -14q-87 0 -128 42t-20 107q10 31 38.5 52t76.5 32q3 1 3 -1t-2 -3q-15 -7 -27.5 -22t-17.5 -33q-16 -59 30.5 -98.5t127.5 -39.5q29 0 56 6t52 17q54 25 109 84.5t138 185.5l8 12q-14 -9 -29.5 -18.5t-37.5 -21.5q-41 -23 -101 -39.5
t-109 -16.5q-43 0 -81 18t-63 50q-40 49 -40.5 119.5t39.5 135.5q28 47 74 86t105 66q33 15 87.5 28.5t88.5 13.5q43 0 89.5 -21.5t69.5 -52.5q54 -69 46.5 -163t-77.5 -206q-50 -80 -132.5 -149.5t-179.5 -115.5zM306 338q27 -33 65.5 -50.5t87.5 -17.5q37 0 67.5 6
t52.5 17q43 23 52 30t17 16q12 13 22.5 30.5t21.5 41.5q27 57 21 128t-39 112q-25 32 -69 48t-105 16q-29 0 -49.5 -4t-38.5 -12q-48 -23 -75.5 -51t-52.5 -77q-28 -53 -21.5 -120t43.5 -113z" />
    <glyph glyph-name="colon" unicode=":" horiz-adv-x="247" 
d="M171 404q-19 0 -28 2t-13 6q-8 13 2.5 46t26.5 41q5 3 17.5 5t24.5 2t24 -3t14 -7q3 -22 -7 -49t-24 -37q-4 -3 -14 -4.5t-23 -1.5zM54 -1q-19 0 -28 2t-13 6q-8 13 2.5 46t26.5 41q5 3 17.5 5t24.5 2t24 -3t14 -7q3 -22 -7 -49t-24 -37q-4 -3 -14 -4.5t-23 -1.5z" />
    <glyph glyph-name="semicolon" unicode=";" horiz-adv-x="247" 
d="M171 404q-19 0 -28 2t-13 6q-8 13 2.5 46t26.5 41q5 3 17.5 5t24.5 2t24 -3t14 -7q3 -22 -7 -49t-24 -37q-4 -3 -14 -4.5t-23 -1.5zM123 28q-18 -33 -55 -61t-99 -53q-2 -1 -3 0.5t1 2.5q30 14 59 38t49 52q1 1 7.5 10.5t9.5 15.5h-2q-8 -12 -24.5 -23t-28.5 -11
q-9 0 -14.5 3t-11.5 10q-6 11 4 39t24 39q5 4 19 6.5t27 2.5q14 0 26 -3.5t17 -9.5q6 -7 4.5 -25.5t-9.5 -32.5z" />
    <glyph glyph-name="less" unicode="&#x3c;" horiz-adv-x="558" 
d="M310 271q63 -27 90.5 -38t59.5 -21q2 -6 -0.5 -12t-6.5 -8q-14 8 -51.5 25t-98.5 43q-41 19 -67.5 31t-80.5 36q-1 0 -1 6t1 6q11 5 21.5 10t30.5 13q33 15 53.5 24.5t44.5 20.5q57 25 85 38.5t58 29.5q5 -3 7 -8.5t1 -11.5q-33 -11 -80 -31.5t-66 -28.5q-51 -22 -77 -34
t-60 -28q10 -4 20 -9t29 -13q32 -14 50 -22.5t38 -17.5z" />
    <glyph glyph-name="equal" unicode="=" horiz-adv-x="558" 
d="M311 421q60 0 96.5 1t74.5 3q4 -5 5 -11t-2 -13q-41 7 -106.5 6.5t-66.5 -0.5q-16 0 -72 0.5t-100 -2.5q-4 3 -5.5 9.5t0.5 12.5q31 -3 56 -4.5t120 -1.5zM311 266q60 0 96.5 1t74.5 3q5 -3 5.5 -10t-2.5 -14q-41 7 -106.5 6.5t-66.5 -0.5q-16 0 -72 0.5t-100 -2.5
q-5 1 -6.5 8.5t1.5 13.5q31 -3 56 -4.5t120 -1.5z" />
    <glyph glyph-name="greater" unicode="&#x3e;" horiz-adv-x="558" 
d="M316 397q-19 8 -66 28.5t-80 31.5q-1 6 1 11.5t7 8.5q30 -16 58 -29.5t85 -38.5q24 -11 44.5 -20.5t53.5 -24.5q20 -8 30.5 -13t21.5 -10q1 0 1 -6t-1 -6q-54 -24 -80.5 -36t-67.5 -31q-61 -26 -98.5 -43t-51.5 -25q-4 2 -6.5 8t-0.5 12q32 10 59.5 21t90.5 38
q20 9 38 17.5t50 22.5q19 8 29 13t20 9q-34 16 -60 28t-77 34z" />
    <glyph glyph-name="question" unicode="?" horiz-adv-x="599" 
d="M239 180q-3 -2 -9 -3t-15 -1q-10 0 -19.5 1t-11.5 3q-15 11 -24.5 34.5t-10.5 46.5t6 45t22 45q19 30 62 58t154 78q122 54 167.5 87t61.5 68q18 40 10 79t-40 67q-26 23 -65 35.5t-86 12.5q-83 0 -134 -27t-64 -78q-11 -53 17 -88.5t80 -35.5q19 0 46 9t52 22l5 -6
q-67 -34 -102 -45t-65 -11q-60 0 -90.5 37.5t-16.5 94.5q20 62 99 99.5t173 34.5q62 0 112.5 -12.5t85.5 -37.5q47 -32 60.5 -80t-9.5 -101q-15 -36 -61.5 -69.5t-172.5 -88.5q-107 -46 -147 -72t-57 -53q-10 -17 -14.5 -31t-4.5 -30q1 -14 11 -27.5t24 -17.5q24 11 60.5 35
t71.5 52l6 -7q-43 -34 -83.5 -64t-83.5 -58zM174 5q-4 -3 -14 -4.5t-23 -1.5q-19 0 -28 2t-13 6q-8 13 2.5 46t26.5 41q5 3 17.5 5t24.5 2t24 -3t14 -7q3 -22 -7 -49t-24 -37z" />
    <glyph glyph-name="at" unicode="@" horiz-adv-x="977" 
d="M480 -220q-191 0 -309.5 106.5t-118.5 283.5q0 100 39.5 189t114.5 159q73 69 166.5 107.5t185.5 38.5q76 0 139.5 -21t112.5 -61q55 -45 86 -109t32 -126q0 -144 -93 -245t-225 -101q-8 0 -33 7t-29 11q-11 12 -18.5 33t-8.5 38q-1 24 14 62.5t56 111.5
q-51 -61 -119 -129t-125 -117q-5 -5 -21 -4.5t-20 4.5q-32 23 -35 87.5t24 128.5q17 41 45.5 78.5t67.5 68.5q42 34 88 54.5t80 20.5q31 0 51 -12t59 -55q10 10 29.5 29t30.5 32q5 4 7.5 4t3.5 -5q-51 -64 -111.5 -187.5t-57.5 -170.5q1 -12 19.5 -40t30.5 -31
q55 0 107 26.5t90 74.5q35 44 53 98.5t18 115.5q0 59 -30.5 122t-82.5 108q-49 42 -111 63t-136 21q-86 0 -172.5 -35t-154.5 -98q-70 -65 -107.5 -147t-37.5 -173q0 -185 114 -290t309 -105q70 0 152 33.5t141 82.5l3 -2q-63 -62 -146 -98.5t-167 -36.5zM358 245
q-19 -61 -18 -112t20 -73q31 9 124 104.5t156 182.5q-47 55 -67 70t-43 15q-46 0 -97 -55t-75 -132z" />
    <glyph glyph-name="A" unicode="A" horiz-adv-x="1349" 
d="M560 176q-139 -154 -196.5 -195t-128.5 -41q-51 0 -93.5 23.5t-70.5 66.5q-30 46 -34.5 98.5t18.5 86.5q28 42 71 78.5t93 60.5q44 22 89 33t90 11q55 0 143 -1t181 -2q90 109 178.5 214.5t146.5 174.5q-56 0 -98 -1.5t-74 -5.5t-66 -9t-89 -14q-33 -6 -43.5 -7.5
t-15.5 -1.5q-7 0 0 10t35 40l15 15t5 6q7 4 45.5 6t117.5 2h182q66 0 135 1t171 4q39 1 53 1.5t22 0.5q12 0 20 -1t12 -2q0 -12 -13.5 -32.5t-29.5 -30.5q-10 -3 -46 -1t-132 10q-61 6 -84 7.5t-35 1.5h-7.5h-7.5q-14 -75 -33 -183t-36 -208q38 -1 80 -1h107q32 0 66.5 -0.5
t54.5 -1.5q3 0 4 -1t1 -3t-2.5 -5.5t-7.5 -8.5q-12 -12 -29 -22.5t-26 -11.5q-21 -4 -52.5 -3.5t-35.5 0.5q-30 0 -71.5 1t-97.5 4q-9 -54 -14.5 -86t-6.5 -42q-5 -38 -4.5 -72.5t6.5 -57.5q3 -11 13 -19.5t27 -13.5q23 8 79 48.5t82 67.5l6 -7q-40 -38 -98.5 -85t-95.5 -69
q-7 -4 -25 -3t-22 4q-14 11 -23.5 30t-11.5 40q-5 36 -4.5 66t6.5 65q4 24 13.5 79t10.5 58q-29 1 -63.5 3t-105.5 6q-41 3 -61.5 4t-38.5 2q-13 -16 -76 -93.5t-74 -87.5zM1063 782l-324 -387q97 -1 151 -1.5t98 -0.5q18 95 39.5 206t35.5 183zM141 58q26 -38 65 -59.5
t86 -21.5q37 0 55.5 8.5t42.5 28.5q15 13 34 32.5t44 46.5q15 17 33.5 37t39.5 45q9 11 24 28t52 62q30 36 46 55.5t31 37.5q-148 8 -227 11.5t-128 3.5q-34 0 -63 -6t-53 -19q-30 -16 -54 -45t-46 -75q-17 -38 -12 -84t30 -86z" />
    <glyph glyph-name="B" unicode="B" horiz-adv-x="1030" 
d="M123 -2q-12 -1 -16 -1h-7q-23 0 -38.5 4t-21.5 11q-1 1 -1 1.5v2.5q0 6 2 13t5 14q8 16 20 30t23 20q1 1 2.5 1h5.5q9 0 23.5 -3.5t51.5 -14.5q59 -18 89.5 -24t53.5 -6q21 0 33.5 3t21.5 10q23 17 45 55t52 114q7 19 31 82t40 103q56 141 122 237t129 127l7 -2
q-17 -8 -42 -50.5t-62 -127.5q-16 -36 -43.5 -102t-38.5 -91l-1 -4q55 13 116 22.5t133 16.5q41 23 68.5 56.5t36.5 71.5q12 52 -6 99.5t-63 78.5q-35 25 -84.5 37.5t-111.5 12.5q-75 0 -139 -14t-118 -43q-71 -38 -124.5 -101.5t-91.5 -155.5q-13 -30 -30.5 -43.5
t-43.5 -13.5q-15 0 -23.5 5t-10.5 15q-1 8 3 19t12 23q50 77 129.5 146t173.5 117q77 40 158.5 61t158.5 21q66 0 118.5 -13.5t89.5 -39.5q47 -34 62.5 -85t-3.5 -107q-13 -38 -56 -80.5t-93 -69.5q60 -27 77 -103t-14 -142q-12 -26 -40.5 -56t-66.5 -57q-19 -13 -35 -23
t-32 -17q-38 -19 -75 -29.5t-69 -10.5q-38 0 -78 0.5t-100 0.5q-26 1 -36.5 1h-16.5q-75 1 -137.5 0.5t-123.5 -2.5zM605 393q-73 -172 -128.5 -250t-113.5 -94q53 -5 146 -5.5t167 5.5q54 5 87.5 13.5t55.5 23.5q18 12 32 31.5t26 48.5q28 65 5.5 136t-83.5 95
q-37 5 -92.5 4t-101.5 -8z" />
    <glyph glyph-name="C" unicode="C" horiz-adv-x="760" 
d="M703 111q-70 -86 -164 -144t-172 -58q-111 0 -186.5 58.5t-100.5 161.5q-22 88 -0.5 186.5t81.5 187.5q96 140 248.5 232.5t306.5 92.5q64 0 125 -19.5t116 -59.5q2 -1 3 -3t1 -4q0 -8 -24 -24t-34 -16h-3.5t-9.5 2q-8 3 -18.5 7.5t-34.5 17.5q-71 38 -119.5 51.5
t-98.5 13.5q-106 0 -208 -68.5t-179 -189.5q-54 -85 -73.5 -179.5t-1.5 -177.5q22 -101 91.5 -158.5t173.5 -57.5q67 0 144.5 45t129.5 110q3 3 7 0.5t0 -7.5z" />
    <glyph glyph-name="D" unicode="D" horiz-adv-x="1138" 
d="M128 -2q-15 -1 -20.5 -1h-7.5q-23 0 -38.5 4t-21.5 11q-2 17 14 43t35 38q7 2 23 -0.5t62 -14.5q62 -16 94 -21.5t56 -5.5q22 0 37.5 4t27.5 12q28 19 50.5 55t49.5 108q5 14 28 77t41 106q57 142 120.5 234.5t125.5 123.5l4 -3q-16 -8 -40 -49.5t-60 -125.5
q-15 -35 -42 -100t-37 -89q-63 -148 -125.5 -235.5t-129.5 -123.5q38 -3 150 -2.5t183 6.5q75 6 124.5 20t86.5 40q33 24 60 59t50 85q45 95 39.5 195.5t-59.5 181.5q-53 78 -141.5 120t-201.5 42q-86 0 -146 -11.5t-105 -35.5q-59 -31 -103 -86t-76 -137q-11 -29 -29 -42.5
t-45 -13.5q-28 0 -33 16t14 45q40 63 110 121.5t157 103.5q79 40 154 59.5t152 19.5q114 0 205.5 -42.5t148.5 -121.5q62 -84 71 -189t-38 -193q-25 -46 -72 -94t-107 -89q-32 -22 -61 -38t-56 -27q-45 -19 -88 -29t-81 -10l-195 2q-75 1 -150 0.5t-164 -2.5z" />
    <glyph glyph-name="E" unicode="E" horiz-adv-x="1066" 
d="M153 -2q-27 -1 -35 -1h-11q-23 0 -38.5 4t-21.5 11q-3 16 12 37t37 35q7 2 22.5 0t60.5 -12q61 -13 92.5 -17.5t56.5 -4.5q24 0 43 4.5t32 13.5q27 18 51 56t53 108q11 28 34.5 90.5t36.5 94.5q-77 9 -134.5 13.5t-104.5 6.5q-4 0 -7 1t-3 3t3 3t11 1q53 0 118.5 1
t128.5 2q48 117 107.5 197t124.5 115q-70 17 -123 25.5t-94 8.5q-55 0 -100.5 -9.5t-82.5 -29.5q-67 -36 -120.5 -105.5t-96.5 -177.5q-11 -29 -29 -42.5t-44 -13.5q-29 0 -34 16t14 45q60 94 138 166.5t168 117.5q67 33 138.5 50t147.5 17q58 0 133 -12t198 -41
q95 -23 132.5 -35.5t40.5 -20.5t-11.5 -27.5t-25.5 -22.5q-8 0 -58 12.5t-141 37.5q-71 20 -95 26.5t-46 12.5q-24 -18 -62 -87.5t-103 -221.5q23 0 49.5 0.5t74.5 1.5q52 1 72.5 1h34.5q40 0 70.5 -2t44.5 -5q13 -2 -9.5 -30t-39.5 -31t-35 -3.5t-58 2.5q-33 2 -123 13
t-99 12q-61 -141 -126.5 -231.5t-131.5 -125.5q20 -1 35.5 -1.5t31.5 -0.5q105 0 160.5 2t89.5 6l58.5 6.5t87.5 10.5q49 7 65 8.5t22 1.5q2 0 3 -1.5t0 -3.5q-4 -10 -26.5 -34.5t-32.5 -32.5q-7 -3 -51 -5t-131 -2h-182q-73 0 -158.5 -1.5t-208.5 -5.5z" />
    <glyph glyph-name="F" unicode="F" horiz-adv-x="965" 
d="M367 24q-57 -29 -118 -44t-124 -15q-49 0 -73.5 3.5t-32.5 12.5q-3 14 11.5 35t33.5 32q1 1 3 1h6q9 0 23 -2t52 -10q60 -12 91.5 -16t55.5 -4q25 0 44.5 4.5t32.5 13.5q28 19 55 60t61 119q13 29 41.5 95.5t44.5 103.5l1 2t1 3q-78 9 -130 13t-97 6q-4 0 -7 1t-3 3
t3.5 3t9.5 1q55 0 117 1t121 2q58 128 115 203t122 110q-66 17 -118.5 25t-94.5 8q-47 0 -88.5 -8.5t-78.5 -25.5q-74 -34 -130.5 -105t-101.5 -183q-11 -29 -29 -42.5t-45 -13.5q-28 0 -33 16t14 45q64 99 146 173.5t176 118.5q64 29 131.5 44t137.5 15q58 0 134 -12
t198 -41q94 -23 131.5 -35t40.5 -21q3 -8 -11.5 -27.5t-24.5 -22.5q-9 0 -58.5 12.5t-141.5 37.5q-7 2 -15.5 4.5t-26.5 7.5q-41 11 -62.5 17t-40.5 11q-21 -17 -44.5 -52.5t-52.5 -95.5q-17 -33 -43.5 -92t-31.5 -70q55 1 105 2t84 1q41 0 71.5 -2t44.5 -5q13 -2 -9.5 -27
t-39.5 -28q-20 -4 -40 -4t-53 3q-22 2 -54 5.5t-127 15.5l-1.5 -3l-1.5 -3q-68 -153 -137.5 -248.5t-138.5 -131.5z" />
    <glyph glyph-name="G" unicode="G" horiz-adv-x="1016" 
d="M602 -181q-29 -12 -73 -27.5t-48 -17.5q-7 -2 -8.5 2t5.5 7q59 23 84 41.5t43 44.5q33 51 88.5 142.5t90.5 154.5q-93 -76 -198 -122t-188 -46q-109 0 -182 51t-99 144q-22 82 -3.5 177t73.5 176q45 65 110.5 120.5t142.5 92.5q69 34 144.5 51.5t154.5 17.5
q77 0 148 -12.5t158 -41.5q2 -1 3.5 -2.5t1.5 -3.5q0 -12 -26.5 -34t-39.5 -22q-5 0 -12 1.5t-17 4.5q-13 4 -67 22t-88 28q-47 13 -86 19.5t-74 6.5q-51 0 -99.5 -11.5t-94.5 -34.5q-55 -28 -101.5 -71.5t-81.5 -98.5q-53 -85 -71.5 -177t1.5 -169q24 -90 95 -140t179 -51
q135 -2 241 83t169 247q-40 6 -72.5 8.5t-67.5 3.5q-45 0 -100.5 -4.5t-146.5 -18.5q-31 -5 -41 -6t-15 -1q-2 0 -3 1t-1 3q0 3 3 8t9 13q11 14 25 26t24 15q5 2 25 3.5t138 1.5q46 0 95.5 1t119.5 3q21 1 28 1h10q18 0 42 -24.5t21 -39.5q-60 -85 -137.5 -227t-124.5 -249
q-7 -16 -33.5 -33.5t-72.5 -36.5z" />
    <glyph glyph-name="H" unicode="H" horiz-adv-x="1337" 
d="M415 -44q-36 -21 -67.5 -33.5t-47.5 -12.5q-60 0 -115.5 29.5t-92.5 80.5q-39 55 -43 116t30 111q54 80 157.5 137.5t207.5 57.5q55 0 134 -1t162 -2q23 39 44 76t38 68q29 53 42.5 90t12.5 61q0 13 -8.5 24t-22.5 15q-23 -8 -78.5 -48.5t-82.5 -67.5l-6 6q33 33 93.5 82
t100.5 73q6 4 24.5 3t22.5 -4q15 -11 25 -33.5t11 -42.5q2 -22 -13 -59.5t-56 -109.5l-29 -50.5t-49 -83.5q30 -1 111 -2t214 -2q21 35 43 71t40 64q81 123 208.5 201t249.5 85q52 3 163 -14.5t150 -29.5q4 -1 6.5 -3.5t2.5 -5.5q0 -11 -22.5 -28.5t-38.5 -17.5
q-12 0 -37 4.5t-92 18.5q-98 22 -142.5 29t-72.5 7q-89 0 -160 -58t-149 -187q-23 -37 -43 -70.5t-38 -65.5q76 0 132 -0.5t77 -1.5q2 0 3.5 -1t1.5 -3q0 -5 -14 -18t-29 -22q-6 -4 -11.5 -6t-11.5 -3q-10 -1 -55.5 -2t-126.5 -1q-19 -33 -38.5 -68t-38.5 -71
q-29 -52 -42 -89t-12 -62q1 -13 9.5 -23.5t22.5 -14.5q22 8 78 48.5t83 67.5l6 -7q-40 -38 -98.5 -85t-95.5 -69q-7 -4 -25.5 -3t-21.5 4q-15 11 -25.5 33.5t-11.5 42.5q-2 20 11.5 54t57.5 115q37 65 50 87t24 41q-47 1 -110 4.5t-207 13.5q-41 -69 -80.5 -133t-53.5 -85
q-45 -68 -105.5 -124.5t-129.5 -96.5zM384 417q-83 0 -143 -40t-94 -118q-21 -46 -15.5 -102t36.5 -105q30 -50 77 -78t101 -28q20 0 34.5 3.5t29.5 12.5q34 20 75.5 70.5t97.5 142.5q27 45 62.5 104.5t71.5 120.5q-133 10 -207.5 13.5t-125.5 3.5z" />
    <glyph glyph-name="I" unicode="I" horiz-adv-x="732" 
d="M67 -2q-25 -1 -33 -1h-11q-22 0 -37.5 4t-21.5 11q-1 10 16.5 27t32.5 21q6 2 18.5 1t45.5 -7q43 -8 66.5 -10.5t43.5 -2.5q39 0 63 6.5t42 20.5q25 20 46 55t52 114q43 110 53.5 135t21.5 49q76 168 138 251t133 116q-8 1 -15 1.5t-13 0.5q-37 0 -92.5 -6.5
t-157.5 -24.5q-37 -6 -49.5 -8t-16.5 -2q-14 0 11 28.5t45 36.5q5 3 27.5 4.5t136.5 1.5q45 0 112 1.5t184 5.5q35 1 45.5 1.5t13.5 0.5q23 0 38.5 -3.5t20.5 -10.5q2 -9 -11 -24t-34 -28q-7 -2 -20.5 -1t-51.5 8q-46 9 -71 11.5t-45 2.5q-26 0 -47.5 -5.5t-36.5 -15.5
q-26 -18 -45.5 -51.5t-48.5 -115.5q-30 -85 -43 -118.5t-27 -64.5q-62 -138 -136.5 -236.5t-146.5 -136.5q4 -1 9.5 -2t13.5 -1q19 0 53.5 4t117.5 16q85 13 118.5 16.5t49.5 2.5q12 0 7.5 -17.5t-22.5 -33.5q-12 -11 -26.5 -17t-30.5 -6l-139 3q-72 0 -153 -1.5t-193 -5.5z
" />
    <glyph glyph-name="J" unicode="J" horiz-adv-x="394" 
d="M-19 -178q-32 -20 -96 -56.5t-76 -43.5q-7 -4 -10 2t4 10q109 63 171.5 120.5t106.5 133.5q29 50 58 121.5t82 232.5q64 182 127.5 271.5t155.5 137.5q25 13 38.5 18.5t29.5 10.5q-16 1 -25.5 1.5t-19.5 0.5q-33 0 -78 -5.5t-132 -22.5q-49 -10 -67 -12.5t-28 -2.5
q-2 0 -3 1t-1 3q0 10 23.5 34.5t39.5 31.5q17 7 52.5 9.5t108.5 2.5q38 0 73.5 1.5t87.5 5.5q30 2 43.5 2.5t25.5 0.5q2 0 3 -1t1 -2q0 -4 -6 -12t-16 -18q-12 -12 -23 -19t-18 -7q-29 0 -55 -7t-50 -21q-41 -24 -74.5 -71.5t-64.5 -127.5q-18 -46 -45.5 -130.5
t-34.5 -104.5q-22 -65 -38 -109.5t-30 -78.5q-24 -60 -45.5 -101.5t-45.5 -72.5q-26 -34 -60 -63t-89 -63z" />
    <glyph glyph-name="K" unicode="K" horiz-adv-x="1116" 
d="M317 39q-53 -30 -112 -45.5t-119 -15.5q-41 0 -71 6t-39 15q-1 9 14 31.5t26 28.5q2 1 3.5 1.5t3.5 0.5q5 0 14.5 -2t33.5 -8q55 -14 86.5 -19t57.5 -5q36 0 61.5 5.5t41.5 16.5q12 9 24 22t24 31q20 31 43.5 80.5t82.5 195.5q63 155 127 253.5t127 135.5q9 6 16 9.5
t14 6.5q-13 1 -21 1.5t-15 0.5q-33 0 -77 -5t-129 -21q-46 -8 -63 -10.5t-26 -2.5q-2 0 -3 1t-1 3q0 10 23.5 34t39.5 32q11 5 38.5 6.5t121.5 1.5q38 0 73.5 1.5t87.5 5.5q30 2 43.5 2.5t25.5 0.5q3 0 4 -1t1 -3t-5 -9t-13 -17q-11 -13 -16.5 -16.5t-12.5 -3.5
q-38 0 -57 -3t-32 -11q-25 -16 -47 -51t-57 -123q-3 -6 -30 -73.5t-48 -118.5q-16 -41 -35 -79.5t-39 -72.5q124 118 275.5 252t228.5 194q48 37 98 63t100 40q34 10 67.5 15t68.5 5q12 0 19.5 -4t7.5 -9q0 -6 -4 -15t-11 -19q-10 -13 -19 -21t-15 -8q-11 0 -24.5 0.5
t-43.5 3.5l-51 3t-31 1q-30 0 -67.5 -15t-73.5 -42q-32 -23 -81.5 -64.5t-192.5 -166.5l9 6q18 -102 51.5 -205.5t63.5 -154.5q15 -25 32 -41t36 -23q20 6 51.5 28.5t81.5 68.5l6 -4q-69 -66 -103.5 -93t-64.5 -44q-3 -1 -8 -2t-11 -1q-8 0 -15.5 1t-10.5 3q-14 11 -29.5 30
t-28.5 41q-30 48 -61.5 147.5t-47.5 197.5q-22 -19 -101 -90t-116 -103q-41 -67 -85.5 -114.5t-89.5 -73.5z" />
    <glyph glyph-name="L" unicode="L" horiz-adv-x="1008" 
d="M328 14q-64 -101 -135.5 -157.5t-138.5 -56.5q-37 0 -68.5 16t-51.5 46q-21 30 -25.5 65.5t8.5 67.5q22 55 103 102t160 47q26 0 62.5 -13t88.5 -42q12 30 26 71.5t44 133.5q45 139 68 203t44 108q54 121 162.5 185.5t257.5 64.5q45 0 116.5 -13.5t94.5 -24.5q4 -1 6 -4
t2 -7q0 -14 -22 -34t-34 -20q-5 0 -12 1t-13 2q-11 3 -26.5 8t-49.5 18q-71 28 -108 37t-66 9q-53 0 -84.5 -17.5t-60.5 -59.5q-18 -25 -37.5 -62.5t-43.5 -91.5q-13 -29 -28.5 -64.5t-45.5 -109.5q-59 -139 -89.5 -206t-57.5 -120l-13 -25q27 -16 93.5 -58t104.5 -64
q71 -40 123 -59t92 -19q33 0 63.5 11t60.5 35q17 12 34 29t60 66l8 -6q-39 -46 -50 -58t-19 -20q-74 -73 -123 -97t-107 -24q-34 0 -81 20t-115 64q-35 23 -96.5 66.5t-80.5 56.5zM118 116q-51 0 -86 -23t-52 -69q-10 -26 -1.5 -58t32.5 -60q22 -26 51 -40.5t60 -14.5
q57 0 97.5 40t85.5 139q-65 45 -110.5 65.5t-76.5 20.5z" />
    <glyph glyph-name="M" unicode="M" horiz-adv-x="1553" 
d="M368 90q-54 -43 -110 -67t-103 -24q-46 0 -116.5 11.5t-77.5 20.5q-10 12 7.5 38t34.5 31q10 0 27 -2.5t58 -11.5q62 -15 95.5 -19.5t60.5 -4.5q36 0 64 8.5t49 25.5q37 29 97 96t153 185q40 50 118.5 151.5t114.5 146.5q-2 58 -6.5 106t-12.5 85q-8 35 -17 53t-22 27
q-4 3 -8 4.5t-10 3.5q-20 -6 -91 -58t-124 -96l-4 6q147 120 188.5 150t66.5 43q7 4 25.5 3t22.5 -4q14 -13 24.5 -39.5t20.5 -74.5q22 -117 17 -347.5t-29 -412.5q58 61 140.5 143t198.5 194q64 62 181.5 174.5t163.5 156.5q5 4 8.5 5t6.5 -1q2 -2 1.5 -5t-3.5 -7
q-57 -72 -124.5 -214t-136.5 -333q-13 -36 -18 -72t-3 -79q1 -13 9.5 -23.5t22.5 -14.5q21 8 86.5 57t94.5 78l6 -6q-40 -39 -108.5 -95.5t-105.5 -78.5q-7 -4 -25.5 -3t-21.5 4q-16 12 -28 35t-13 41q-2 28 6.5 74t25.5 95q31 89 74.5 190t65.5 135q13 23 26 43.5t27 40.5
q-245 -234 -366 -354.5t-188 -193.5q-3 -3 -5 -8.5t-5 -14.5q-2 -8 -3.5 -18.5t-4.5 -32.5q-1 -12 -1.5 -17t-1.5 -8t-10.5 -5.5t-21.5 -2.5q-16 0 -23 1t-9 5q-5 5 1.5 50t8.5 68q18 172 25.5 303t5.5 232q-243 -316 -336.5 -427.5t-135.5 -144.5z" />
    <glyph glyph-name="N" unicode="N" horiz-adv-x="947" 
d="M55 -5q-73 -80 -149.5 -115.5t-173.5 -35.5q-52 0 -126 17.5t-81 26.5q-6 8 21 36t45 33q4 1 13.5 -1t39.5 -13q73 -24 120.5 -33.5t89.5 -9.5q59 0 113 36.5t122 122.5q29 36 65 86.5t106 154.5l263 390q-15 81 -38 117.5t-61 36.5q-9 0 -19.5 -2t-21.5 -6
q-22 -7 -103 -64t-119 -89l-6 7q60 49 140 109t110 76q21 11 42 16.5t43 5.5q52 0 77.5 -49t44.5 -184q22 -159 35 -263t36 -307q96 159 165 267t125 188q111 162 198 229t196 67q50 0 126.5 -10t98.5 -17l3 -1.5t1 -2.5q0 -10 -28 -36t-41 -26h-8.5t-7.5 1q-7 1 -18 3
t-37 7q-77 15 -120 20.5t-77 5.5q-59 0 -119.5 -54t-160.5 -198q-59 -83 -122 -182t-183 -298q-3 -4 -20 -33t-21 -33q-2 -2 -4.5 -3t-5.5 -1q-6 0 -8 7t-6 43q-16 139 -28 238.5t-50 366.5q0 3 -0.5 6.5t-1.5 9.5q-1 8 -1.5 11.5t-1.5 6.5l-255 -380q-126 -187 -157 -228.5
t-59 -72.5z" />
    <glyph glyph-name="O" unicode="O" horiz-adv-x="972" 
d="M677 85q-69 -42 -138 -64.5t-130 -22.5q-112 0 -186.5 50t-102.5 141q-26 82 -7.5 178t75.5 177q41 60 102 115t130 95q64 37 126.5 57t116.5 20q113 0 189.5 -49t105.5 -140q26 -82 8 -178.5t-75 -178.5q-40 -57 -95.5 -109.5t-118.5 -90.5zM195 232q23 -92 93 -143.5
t179 -52.5q54 -1 105 13.5t97 42.5q41 26 78 64.5t69 90.5q52 84 71.5 177t0.5 173q-23 95 -93.5 146.5t-178.5 51.5q-53 0 -100.5 -12.5t-90.5 -37.5q-45 -27 -83.5 -67.5t-73.5 -97.5q-53 -84 -72.5 -176.5t-0.5 -171.5z" />
    <glyph glyph-name="P" unicode="P" horiz-adv-x="1004" 
d="M136 -2q-27 -1 -35 -1h-11q-22 0 -38 4t-21 11q-2 14 9.5 29t39.5 33q7 2 21.5 0t57.5 -10q56 -11 85.5 -15t52.5 -4q27 0 46 4.5t32 13.5q29 20 53.5 57.5t53.5 106.5q13 29 37 92t37 94q54 135 117 227.5t125 126.5q-28 10 -60 15t-67 5q-81 0 -147 -13t-112 -39
q-58 -32 -94 -76.5t-53 -103.5q-9 -31 -24 -44t-41 -13t-29 14.5t19 47.5q32 47 89.5 95t126.5 88q77 42 153 64t142 21q87 1 156.5 -22.5t115.5 -69.5q57 -57 70.5 -134t-20.5 -137q-24 -42 -67.5 -74.5t-99.5 -49.5q-30 -9 -59 -14t-57 -5q-34 0 -68.5 8.5t-64.5 23.5
q-59 -130 -118.5 -203.5t-129.5 -105.5h11.5h21.5q22 -1 34.5 -1h23.5q46 0 89 2t80 6q34 3 68 8.5t82 16.5q24 4 32 5.5t12 1.5q1 0 2 -1t1 -2q0 -4 -7.5 -13.5t-29.5 -32.5q-12 -12 -16 -16.5t-5 -6.5q-8 -4 -40.5 -5.5t-103.5 -1.5h-110q-73 0 -159 -1.5t-209 -5.5z
M853 349q32 11 57 32t40 50q23 45 24 97t-21 100q-21 47 -59 81.5t-89 54.5q-25 -18 -63 -93.5t-111 -261.5q34 -29 82 -48t90 -19q14 0 26.5 2t23.5 5z" />
    <glyph glyph-name="Q" unicode="Q" horiz-adv-x="1012" 
d="M1478 -253q-80 -71 -134 -96.5t-114 -25.5q-71 0 -173 28t-317 115q-169 68 -238 88.5t-111 20.5q-35 0 -70.5 -9t-91.5 -36q-19 -9 -61.5 -34t-105.5 -64q-13 -8 -23 -6t-13 12q-2 10 4 19.5t19 14.5q6 3 16.5 7t40.5 16q129 49 209 84.5t141 67.5q137 73 235 156
t171 193q49 73 58.5 163.5t-23.5 167.5q-34 81 -106 124.5t-173 43.5q-45 0 -93.5 -15t-95.5 -43q-64 -37 -120.5 -90.5t-92.5 -112.5q-47 -77 -61.5 -154.5t4.5 -146.5q23 -81 85 -129t145 -48q27 0 70.5 22t88.5 56q5 4 8 1.5t-2 -6.5q-69 -55 -133.5 -88.5t-102.5 -33.5
q-83 0 -148 50.5t-89 133.5q-20 71 -5 150t65 158q39 62 115.5 129t166.5 118q76 43 146.5 65t131.5 22q107 0 182 -49.5t105 -138.5q27 -81 9 -174t-77 -176q-66 -92 -175.5 -176.5t-283.5 -179.5q-4 -2 -24.5 -13.5t-34.5 -17.5q19 2 28 3t17 1q55 0 136 -21t262 -88
q187 -70 272 -91.5t144 -21.5q58 0 108.5 16t97.5 50q15 11 31 24t33 29q13 13 33.5 33t26.5 26l7 -3q-26 -30 -61.5 -65.5t-58.5 -54.5z" />
    <glyph glyph-name="R" unicode="R" horiz-adv-x="1001" 
d="M281 37q-58 -31 -112.5 -45.5t-112.5 -14.5q-43 0 -76 6.5t-42 15.5q-4 9 10.5 32t30.5 32q2 1 4 1h8q9 0 23 -2.5t49 -11.5q64 -14 96.5 -18.5t57.5 -4.5q20 0 37 5t32 16q16 11 29.5 27.5t26.5 40.5q12 21 24.5 51.5t38.5 101.5q20 56 31.5 86.5t22.5 57.5
q61 146 132 240t149 131q-21 6 -42 8.5t-44 2.5q-72 0 -128 -12.5t-99 -37.5q-48 -28 -84.5 -73.5t-67.5 -116.5q-15 -35 -29 -46t-37 -11q-26 0 -28.5 15t19.5 47q34 50 94 101t130 90q69 39 138.5 59.5t130.5 19.5q73 1 131.5 -19t96.5 -60q44 -47 53 -110t-20 -120
q-26 -51 -87 -81.5t-174 -45.5q8 -77 29 -148t54 -134q15 -28 31 -45.5t34 -25.5q23 6 58.5 31t78.5 65l5 -8q-41 -40 -89.5 -77.5t-88.5 -59.5q-7 -4 -22 -3.5t-20 4.5q-15 11 -29 31t-34 58q-33 65 -55 145.5t-29 165.5q-1 10 3 13.5t18 3.5h10h23q23 -1 33.5 -1h17.5
q60 0 99 23.5t63 73.5q41 83 1 165.5t-139 111.5q-28 -16 -58.5 -59t-65.5 -119q-21 -44 -52.5 -120t-34.5 -82q-67 -160 -126.5 -245.5t-126.5 -120.5z" />
    <glyph glyph-name="S" unicode="S" horiz-adv-x="761" 
d="M555 87q-66 -45 -135.5 -70t-130.5 -25q-77 0 -144.5 29t-131.5 92q31 35 90 96t129 131l9 -4q-2 -2 -32.5 -33t-47.5 -51q-31 -33 -45.5 -56.5t-15.5 -39.5q8 -16 41 -41t72 -43q35 -16 69.5 -24t68.5 -8q53 0 104.5 14.5t92.5 41.5q27 17 47 39t32 47q20 46 12 83
t-46 68q-20 17 -51.5 33.5t-97.5 44.5q-68 28 -94.5 41.5t-45.5 26.5q-39 29 -50.5 61.5t4.5 72.5q13 31 50.5 65.5t94.5 66.5q67 38 137 60.5t121 22.5q77 0 146.5 -28t93.5 -70q-16 -22 -35.5 -46.5t-57.5 -69.5q-40 -48 -59 -72t-34 -45l-6 4q12 17 25 35t40 53
q26 34 40 52.5t26 36.5q-35 51 -99.5 80t-146.5 29q-48 0 -96.5 -13t-89.5 -37q-33 -20 -56 -44.5t-33 -51.5q-13 -34 3.5 -62t66.5 -56q27 -15 80 -37.5t59 -25.5q126 -55 159.5 -111t-0.5 -129q-14 -30 -49.5 -65.5t-82.5 -67.5z" />
    <glyph glyph-name="T" unicode="T" horiz-adv-x="803" 
d="M362 75q-52 -39 -109 -58.5t-120 -19.5q-45 0 -104.5 10t-66.5 19q-9 12 8 37.5t35 31.5q2 1 6 1.5t7 0.5q9 0 22.5 -3.5t47.5 -14.5q59 -20 92.5 -26.5t62.5 -6.5q35 0 63.5 9t50.5 27q17 14 31 32t27 42q10 18 20.5 43.5t32.5 86.5q19 50 29.5 78t21.5 54
q56 136 119.5 222t134.5 124q-160 26 -229 34.5t-106 8.5q-20 0 -38.5 -3.5t-36.5 -10.5q-46 -20 -83.5 -69.5t-73.5 -138.5q-15 -37 -26.5 -47t-37.5 -10q-27 0 -31.5 14.5t12.5 46.5q40 74 100 127t137 84q43 17 91 26t97 9q42 0 94 -3t160 -13q123 -12 187 -15.5
t119 -3.5q20 0 38.5 2t42.5 8q7 1 9.5 1.5t3.5 0.5q2 0 2.5 -0.5t0.5 -1.5q0 -7 -20.5 -30t-32.5 -29q-23 -13 -46 -17.5t-60 -4.5q-31 0 -90 7.5t-175 26.5q-30 -21 -54.5 -58t-52.5 -108q-9 -23 -33 -85.5t-40 -102.5q-44 -107 -105.5 -193t-133.5 -141z" />
    <glyph glyph-name="U" unicode="U" horiz-adv-x="928" 
d="M622 205q-89 -100 -197.5 -176.5t-170.5 -76.5q-74 0 -126.5 61t-57.5 148q-2 42 12.5 87.5t47.5 100.5q17 28 39.5 60.5t76.5 104.5q7 9 40.5 53.5t50.5 67.5q35 50 49.5 81t13.5 52q-1 13 -7.5 26.5t-19.5 28.5q-22 -6 -100 -59.5t-113 -84.5l-6 8q40 35 122.5 96
t122.5 82q3 1 7 2t8 1q9 0 17.5 -2t11.5 -4q13 -11 21.5 -31t13.5 -54q3 -24 -13.5 -60.5t-57.5 -95.5q-20 -30 -60.5 -84l-43.5 -58q-94 -128 -126.5 -195t-29.5 -117q6 -76 49 -127t110 -51q50 0 155.5 81t178.5 165q8 13 17.5 28.5t31.5 50.5q32 51 50 80.5t35 56.5
q27 44 60.5 97.5t34.5 55.5q48 76 59 103t9 59q-1 14 -8 27t-20 28q-22 -6 -101 -59.5t-111 -82.5l-6 8q40 34 122.5 95t121.5 83q3 1 7 2t8 1q9 0 17.5 -2t11.5 -4q15 -12 24 -33t12 -52q4 -31 -10 -66.5t-63 -115.5q-16 -26 -52 -85t-53 -86q-45 -73 -72 -117t-36 -58
q-45 -77 -62 -118t-16 -69q2 -15 14.5 -34t23.5 -21q19 6 86.5 56t113.5 91l5 -7q-109 -95 -157.5 -132.5t-76.5 -52.5q-2 -1 -6.5 -2t-9.5 -1q-9 0 -17 1.5t-10 3.5q-22 17 -34 38.5t-14 45.5q-2 31 10 67t43 90z" />
    <glyph glyph-name="V" unicode="V" horiz-adv-x="608" 
d="M921 817q-452 -517 -564.5 -649t-211.5 -252q-2 -3 -5.5 -4.5t-7.5 -1.5q-5 0 -9 2t-4 4v2.5t1 3.5q20 98 61 336t60 363q8 52 8 93.5t-8 57.5q-6 12 -15 17t-29 6q-24 1 -57 -3.5t-101 -18.5q-50 -10 -69 -12.5t-28 -1.5q-3 1 -4 2t-1 4q0 9 15 27.5t25 24.5q5 3 26 4.5
t64 1.5q14 0 45.5 -0.5t46.5 -0.5h104q66 0 140 1.5t191 5.5q44 1 59.5 1.5t23.5 0.5q15 0 23.5 -2t8.5 -6q0 -10 -13.5 -29t-29.5 -29q-4 -1 -8 -1.5t-9 -0.5q-13 0 -35.5 1.5t-81.5 7.5q-91 10 -141 13.5t-91 4.5q5 -7 9 -14.5t5 -14.5q5 -26 5 -61t-6 -73
q-12 -78 -47.5 -280.5t-61.5 -339.5q253 295 404.5 470t301.5 347q21 24 43.5 51t46.5 59q20 25 48.5 64t36.5 49q2 2 3.5 2.5t3.5 0.5q9 0 18 -8t9 -16q0 -3 -1 -5t-3 -3q-25 -19 -82.5 -79t-111.5 -122z" />
    <glyph glyph-name="W" unicode="W" horiz-adv-x="1025" 
d="M135 -101q-1 -2 -3.5 -3t-5.5 -1q-12 0 -21 7t-8 15q78 386 105.5 526t34.5 188q9 57 10 96t-6 54q-6 13 -15 18t-29 5q-23 1 -55.5 -3.5t-99.5 -17.5q-52 -11 -71 -13t-29 -1q-3 1 -4 2.5t-1 4.5t2 7t6 10q8 11 17 20.5t15 13.5q5 3 26 4t64 1q13 0 44.5 -0.5t47.5 -0.5
h465q66 0 132 1.5t160 5.5q35 2 48.5 2.5t21.5 0.5q12 0 20 -1t12 -3q0 -11 -13.5 -31.5t-29.5 -30.5q-4 -1 -9 -1.5t-11 -0.5q-15 0 -39 1t-167 10q-17 -112 -40.5 -315t-52.5 -483q31 43 65 90.5t81 112.5q164 229 261.5 368.5t186.5 271.5q43 63 79.5 120.5t59.5 96.5
q4 7 9.5 11t10.5 4q9 0 15.5 -7.5t6.5 -16.5q0 -5 -1.5 -9.5t-5.5 -8.5q-33 -37 -74.5 -89t-83.5 -110q-15 -21 -183 -256.5t-272 -382.5q-18 -26 -39.5 -56t-63.5 -90l-60 -85.5t-37 -52.5q-2 -3 -7 -4.5t-12 -1.5q-11 0 -19.5 4t-7.5 10q15 81 47 342.5t47 413.5
q-133 -189 -251 -359.5t-222 -325.5l-31.5 -48t-19.5 -29zM314 771q4 -20 3 -56.5t-8 -78.5q-8 -51 -34 -190t-84 -441q124 179 227 328.5t314 451.5q-93 6 -196 10t-212 5h-29q8 -7 13 -14t6 -15z" />
    <glyph glyph-name="X" unicode="X" horiz-adv-x="756" 
d="M-36 -13q-5 -5 -10 -7.5t-10 -2.5q-9 0 -15 6t-6 16q0 6 4 12.5t11 11.5q85 56 142.5 96.5t100.5 74.5l261 204q13 85 19.5 130t10.5 75q6 49 3 88t-15 56q-6 9 -17.5 17t-24.5 13q-26 -8 -90.5 -48.5t-97.5 -68.5l-6 7q49 39 117.5 85.5t111.5 69.5q3 1 7 2t8 1
q7 0 11.5 -1t6.5 -3q17 -14 27.5 -26t15.5 -21q14 -30 17 -70t-4 -92q-4 -25 -11 -70.5t-15 -104.5q80 63 155 123t167 134q53 43 107 90t118 107q5 5 11 8t12 3q8 0 13.5 -6t5.5 -14t-3.5 -14.5t-11.5 -12.5q-50 -32 -115.5 -79t-120.5 -90q-78 -59 -160.5 -123.5
t-179.5 -141.5q-9 -62 -16.5 -115t-11.5 -84q-8 -65 -6 -97t12 -46q6 -10 18 -18.5t26 -12.5q25 8 89 49t94 67l7 -7q-58 -45 -122.5 -89t-104.5 -65q-3 -2 -6 -2.5t-10 -0.5q-5 0 -9.5 1t-6.5 3q-18 16 -30 28.5t-18 23.5q-11 21 -10.5 68t16.5 157q1 6 2 13.5t3 23.5
q4 26 6 40t4 26l-251 -201q-63 -50 -122.5 -102t-102.5 -94z" />
    <glyph glyph-name="Y" unicode="Y" horiz-adv-x="599" 
d="M425 5q-9 -5 -64 -3.5t-104 1.5q-38 0 -84 -0.5t-129 -1.5q-46 -1 -64.5 -1h-29.5q-2 0 -3.5 1.5t-1.5 3.5q0 7 17 23.5t32 24.5q2 1 4 1.5t6 0.5h28q43 0 81 8t70 24q43 23 79.5 66t90.5 144q5 9 10.5 19.5t17.5 32.5q17 32 26.5 49t17.5 32q-19 111 -43 186.5
t-52 114.5q-8 11 -24 20.5t-39 17.5q-25 -8 -90 -48.5t-98 -67.5l-5 7q60 46 130 94.5t111 70.5q3 1 6.5 2t7.5 1q5 0 10 -1t9 -3q13 -7 28.5 -23.5t22.5 -29.5q37 -66 62 -153t35 -176q27 22 40.5 33.5t24.5 20.5q104 86 167.5 139t86.5 73q20 18 42.5 37.5t62.5 54.5
q55 49 77 68.5t36 32.5q6 6 12 9t11 3q8 0 14 -5.5t6 -13.5q0 -9 -3.5 -15.5t-11.5 -11.5q-55 -37 -119.5 -83.5t-116.5 -86.5q-65 -51 -131 -105t-124 -106q-33 -31 -49.5 -46t-30.5 -28q-34 -63 -47 -87t-24 -42q-55 -95 -110.5 -140t-173.5 -93h21q32 1 76.5 4t132.5 11
q56 5 77 6.5t32 1.5q3 0 4.5 -1.5t1.5 -3.5q0 -12 -19.5 -35t-35.5 -28z" />
    <glyph glyph-name="Z" unicode="Z" horiz-adv-x="892" 
d="M661 66q-52 -34 -101.5 -51.5t-95.5 -17.5q-42 0 -90.5 3.5t-142.5 14.5q-85 10 -126 13.5t-76 3.5q-16 0 -32 -0.5t-33 -2.5q-2 0 -3 1t-1 3t2 6.5t6 9.5q6 8 14 16t16 12q4 2 7.5 3.5t6.5 1.5q43 0 86 16t89 48q31 22 64.5 53t75.5 75q26 28 70 77t58 64
q136 149 240 221t211 98q-7 -1 -14 -1.5t-15 -0.5q-29 0 -70 6.5t-130 26.5q-87 20 -126.5 26t-67.5 6q-37 0 -54.5 -2.5t-30.5 -8.5q-25 -12 -46 -45.5t-59 -126.5q-13 -32 -27 -44t-37 -12q-15 0 -22.5 7t-7.5 20q0 7 3 16t8 19q34 60 82 104t108 70q42 18 89.5 27.5
t97.5 9.5q32 0 69 -4.5t107 -17.5q65 -13 97.5 -17t59.5 -4q19 0 37 2t42 7q7 2 10 2.5t5 0.5q3 0 4 -1t1 -3q0 -3 -5.5 -10.5t-18.5 -21.5q-10 -10 -15 -14.5t-10 -7.5q-7 -4 -12 -5.5t-19 -3.5q-48 -4 -99.5 -35.5t-117.5 -96.5q-35 -34 -96 -102t-80 -88
q-145 -157 -258.5 -233.5t-231.5 -105.5q30 8 62 11.5t67 3.5q33 0 70.5 -3.5t111.5 -14.5q78 -11 116 -14t70 -2q51 1 70.5 5t33.5 13q23 15 44.5 54.5t62.5 150.5q11 30 27 44.5t39 14.5q13 0 21 -6t8 -17q0 -8 -3.5 -18t-9.5 -21q-36 -64 -84 -118t-101 -89z" />
    <glyph glyph-name="bracketleft" unicode="[" horiz-adv-x="400" 
d="M-71 -270l239 516l237 525q2 4 5 6t7 2h26h44q31 -1 47 -1h30h26h42q29 1 43 1h26q5 0 2.5 -5t-7.5 -5h-31.5h-53.5q-23 1 -34.5 1h-20.5h-115q-3 0 -5 -1t-2 -2l-239 -521l-237 -512q0 -2 1 -2.5t4 -0.5h115h20.5t35.5 1h54h32q5 0 2 -5t-8 -5h-26h-42q-27 1 -41 1h-26
h-30.5t-48.5 -1h-43h-25q-4 0 -4.5 2t1.5 6z" />
    <glyph glyph-name="backslash" unicode="\" horiz-adv-x="356" 
d="M205 -271q-4 67 -9.5 151t-26.5 367q-12 167 -25 305.5t-25 225.5q9 5 15.5 6t14.5 -2q2 -72 9.5 -191.5t23.5 -339.5q13 -162 25.5 -290.5t25.5 -230.5q-5 -4 -12.5 -4.5t-15.5 3.5z" />
    <glyph glyph-name="bracketright" unicode="]" horiz-adv-x="400" 
d="M456 771l-239 -516l-237 -525q-2 -4 -5 -6t-7 -2h-26h-44q-31 1 -47 1h-30h-26h-42q-29 -1 -43 -1h-26q-5 0 -2.5 5t7.5 5h31.5h53.5q23 -1 34.5 -1h20.5h115q3 0 5 1t2 2l239 521l237 512q0 2 -1 2.5t-4 0.5h-115h-20.5t-35.5 -1h-54h-32q-5 0 -2 5t8 5h26h42
q27 -1 41 -1h26h30.5t48.5 1h43h25q4 0 4.5 -2t-1.5 -6z" />
    <glyph glyph-name="asciicircum" unicode="^" horiz-adv-x="396" 
d="M413 503l22 177q0 2 -1.5 2.5t-3.5 -1.5l-160 -184q-20 -23 -32 -30.5t-26 -7.5q-10 0 -15 4t-5 12t7 16t25 23l204 173q5 4 9 2.5t5 -8.5l21 -175q2 -21 -5.5 -32.5t-22.5 -11.5q-14 0 -19.5 9t-2.5 32z" />
    <glyph glyph-name="underscore" unicode="_" horiz-adv-x="500" 
d="M-165 -73h564q6 0 7 -12t-6 -12h-566q-8 0 -7.5 12t8.5 12z" />
    <glyph glyph-name="grave" unicode="`" 
d="M590 536q-1 0 -2 0.5t-2 1.5q-17 21 -39 42.5t-58 50.5q-12 9 -15.5 12.5l-5.5 5.5q-5 4 -9.5 16t-3.5 19q2 6 10 12t15 6q6 0 13.5 -5.5t16.5 -17.5q1 -2 3.5 -6t8.5 -17q21 -42 37 -67.5t33 -45.5q1 -1 1 -1.5v-1.5q0 -2 -1 -3t-2 -1z" />
    <glyph glyph-name="a" unicode="a" horiz-adv-x="579" 
d="M109 3q-3 -2 -7.5 -3t-10.5 -1t-13 1t-9 3q-35 26 -36 99.5t30 151.5q29 71 91 132t138 97q30 14 57 21.5t48 7.5q43 0 70.5 -15.5t65.5 -57.5q13 11 34.5 31.5t35.5 36.5q5 5 7 4.5t2 -6.5q-75 -94 -151 -227.5t-73 -184.5q1 -13 11.5 -25.5t24.5 -16.5q25 11 60 36
t60 52l6 -7q-49 -48 -86.5 -78.5t-71.5 -50.5q-3 -1 -9 -2t-14 -1q-11 0 -21.5 1.5t-11.5 2.5q-13 15 -22 38t-10 42q-1 20 7.5 46t28.5 59q12 19 33.5 51t28.5 43q-42 -45 -94 -96.5t-104 -99.5q-37 -34 -58 -52t-37 -32zM137 267q-23 -72 -24.5 -131t19.5 -83
q9 2 24.5 12.5t37.5 28.5q58 48 140 132t145 160q-44 56 -75.5 79t-64.5 23q-10 0 -20.5 -2.5t-22.5 -8.5q-48 -22 -92 -80.5t-67 -129.5z" />
    <glyph glyph-name="b" unicode="b" horiz-adv-x="615" 
d="M338 49q-51 -28 -88.5 -41t-65.5 -13q-17 0 -34.5 7t-34.5 21q-12 10 -23.5 22.5t-21.5 26.5q-4 -6 -8.5 -13.5t-14.5 -22.5q-8 -13 -11.5 -18.5t-5.5 -9.5h-4t-7 -1q-7 -1 -11 -1h-7q-23 0 -29 10.5t3 32.5q13 21 43.5 74.5t110.5 197.5q83 148 114 202.5t44 74.5
q38 62 103.5 121.5t141.5 99.5q68 36 139 54.5t142 18.5q42 0 71.5 -1.5t44.5 -3.5q6 -1 9 -4.5t3 -8.5q0 -15 -16.5 -36t-29.5 -21q-15 0 -35 1.5t-65 5.5q-60 6 -92 8t-60 2q-38 0 -62 -5t-46 -17q-38 -20 -79 -71t-96 -145q-29 -48 -71.5 -123.5t-148.5 -267.5
q45 45 100.5 96t140.5 125q48 41 86.5 65.5t57.5 24.5q17 -3 34 -25t24 -49q10 -38 -2 -92t-39 -102q-31 -55 -81.5 -104.5t-122.5 -94.5zM471 466q-12 0 -35.5 -13t-49.5 -35q-85 -71 -164 -148.5t-118 -129.5q33 -53 68.5 -78.5t78.5 -25.5q25 0 44.5 4.5t38.5 14.5
q54 45 80.5 80.5t47.5 82.5q27 59 37.5 114.5t2.5 89.5q-4 18 -10.5 27.5t-20.5 16.5z" />
    <glyph glyph-name="c" unicode="c" horiz-adv-x="493" 
d="M282 37q-39 -23 -69.5 -33t-57.5 -10q-37 0 -67.5 21.5t-41.5 54.5q-17 57 -5.5 111.5t48.5 118.5q29 49 85 98.5t125 87.5q30 16 59 23.5t62 7.5q44 0 69 -17.5t25 -46.5q0 -21 -18 -38t-40 -20q-11 45 -38.5 68t-69.5 23q-13 0 -22.5 -1.5t-21.5 -4.5q-36 -25 -68 -60
t-57 -77q-34 -56 -49 -115.5t-10 -116.5q7 -26 23 -43t39 -23q22 -6 55 -1t63 19q24 11 59 39t56 54l9 -5q-27 -32 -61 -59.5t-81 -54.5z" />
    <glyph glyph-name="d" unicode="d" horiz-adv-x="594" 
d="M109 3q-3 -2 -7.5 -3t-10.5 -1t-13 1t-9 3q-35 26 -36 99.5t30 151.5q28 70 88 130t137 97q31 15 59 23t50 8q31 0 56 -12t52 -41q10 14 21.5 31t32.5 50q28 41 38 56t15 22q41 58 103.5 110t139.5 92q76 38 145 55t155 17q42 0 71 -1.5t44 -3.5q5 -1 8 -4t3 -7
q0 -14 -19 -36.5t-33 -22.5q-15 0 -35 1.5t-65 6.5q-59 6 -91 8t-60 2q-39 0 -66 -5.5t-51 -18.5q-47 -26 -103.5 -94t-155.5 -220q-53 -82 -104.5 -171.5t-79.5 -146.5q-14 -30 -21 -50t-7 -31q0 -19 9 -34.5t24 -16.5q26 11 62 36t62 52l6 -7q-44 -42 -83 -72.5t-75 -52.5
q-3 -1 -9 -2t-14 -1q-10 0 -19.5 1t-11.5 3q-13 14 -23 41t-9 43t11 42t31 64q11 21 25.5 45.5t57.5 92.5l9 12q-44 -56 -112.5 -128.5t-138.5 -137.5q-22 -21 -44 -41t-39 -34zM137 267q-23 -72 -24.5 -131t19.5 -83q8 2 21.5 11t31.5 24q53 44 134.5 130.5t151.5 171.5
q-45 57 -72 77.5t-60 20.5q-10 0 -22 -3t-26 -10q-47 -24 -89.5 -81t-64.5 -127z" />
    <glyph glyph-name="e" unicode="e" horiz-adv-x="486" 
d="M271 37q-42 -23 -72 -33t-57 -10q-30 0 -60.5 23.5t-40.5 55.5q-15 50 -2 104.5t52 122.5q28 48 80 98t105 80q32 17 64 26.5t60 9.5q43 0 66.5 -15t23.5 -41q0 -37 -49 -84.5t-157 -116.5q-64 -39 -99 -60t-68 -40q-1 -11 -1.5 -22t0.5 -24q10 -35 30.5 -52t53.5 -17
q20 0 46 6.5t48 16.5q23 11 62.5 42.5t60.5 58.5l9 -5q-28 -34 -69.5 -67t-85.5 -57zM295 479q-27 -18 -60.5 -59t-59.5 -90q-23 -41 -37.5 -82.5t-19.5 -80.5q47 28 87 52.5t73 45.5q63 41 93 68t39 50q2 5 3 10.5t1 11.5q0 31 -28 54.5t-65 23.5q-7 0 -13.5 -1t-12.5 -3z
" />
    <glyph glyph-name="f" unicode="f" horiz-adv-x="395" 
d="M467 509q0 -9 -23 -34.5t-35 -26.5h-9t-34 1q-31 0 -49 0.5t-34 0.5q-18 -34 -38.5 -73t-60.5 -115q-61 -118 -91.5 -175t-56.5 -104q-58 -104 -141 -167t-152 -63q-47 0 -74 21.5t-27 58.5q0 30 19.5 54t48.5 28q-1 -14 0 -33t4 -33q7 -32 26 -53.5t43 -21.5
q34 0 56 17.5t52 62.5q15 22 33 52t41 71q14 26 38.5 73t86.5 166q52 100 77 149t45 86h-13h-13h-37q-6 1 -6.5 5.5t3.5 6.5l105 61q17 31 26 46t15 24q53 83 114.5 145.5t128.5 101.5q48 28 97 42t98 14q43 0 87 -6.5t70 -16.5q2 -1 3.5 -3t1.5 -4q0 -13 -20 -32t-36 -19
q-13 0 -28 3t-48 12q-49 15 -78 19.5t-57 4.5q-26 0 -46.5 -5t-38.5 -16q-35 -21 -75.5 -75t-101.5 -162q-6 -10 -12.5 -22l-19.5 -36l-10.5 -19.5t-6.5 -11.5q24 0 54.5 0.5t77.5 1.5q11 1 14.5 1h4.5t1.5 -0.5t0.5 -1.5z" />
    <glyph glyph-name="g" unicode="g" horiz-adv-x="571" 
d="M282 -259q-36 -61 -132.5 -100t-201.5 -37q-75 1 -129 22t-70 59q-6 14 -5.5 29.5t8.5 31.5q12 27 46.5 58.5t101.5 75.5q3 2 71.5 46.5t108.5 73.5h-3h-3q-4 0 -7.5 1t-6.5 2q-35 26 -36.5 99.5t30.5 150.5q30 72 94 134.5t143 98.5q28 13 54.5 20t47.5 7q36 0 57.5 -14
t68.5 -70q23 19 46 39.5t40 36.5l7 -4q-25 -30 -47.5 -60t-40.5 -58q-64 -101 -107 -195.5t-68 -187.5q-7 -26 -13.5 -53.5t-14.5 -75.5q-12 -62 -20 -87t-19 -43zM128 266q-24 -75 -24.5 -132t21.5 -83q58 39 168.5 144t173.5 188q-57 70 -80.5 88t-49.5 18q-10 0 -20.5 -3
t-22.5 -8q-51 -23 -97.5 -82t-68.5 -130zM-165 -307q16 -38 58.5 -58.5t104.5 -20.5q55 0 107 29.5t90 83.5q14 21 24.5 51t26.5 105q12 60 21 94.5t19 65.5q23 69 51 129.5t65 119.5q-72 -74 -160 -157.5t-142 -129.5q-104 -75 -132 -96.5t-49 -40.5q-31 -27 -51 -50.5
t-30 -45.5q-9 -20 -10 -40t7 -39z" />
    <glyph glyph-name="h" unicode="h" horiz-adv-x="600" 
d="M23 7q-7 -1 -11 -1h-7q-22 0 -28 10.5t2 32.5q13 21 43.5 74.5t110.5 197.5q83 148 114 202.5t44 74.5q38 62 103.5 121.5t141.5 99.5q68 36 139 54.5t142 18.5q42 0 71.5 -1.5t44.5 -3.5q6 -1 9 -4.5t3 -8.5q0 -15 -16.5 -36t-29.5 -21q-15 0 -35 1.5t-65 5.5
q-60 6 -92 8t-60 2q-38 0 -62 -5t-46 -17q-38 -20 -79 -71t-96 -145q-36 -60 -115 -203t-98 -178q85 105 200 197.5t166 100.5q51 -11 40 -75t-84 -186q-7 -12 -22 -38.5t-23 -39.5q-17 -31 -24 -50.5t-6 -33.5q1 -15 8.5 -25.5t20.5 -14.5q26 9 62 33.5t62 51.5l6 -7
q-39 -38 -79.5 -70t-78.5 -55q-3 -1 -7.5 -2t-10.5 -1q-9 0 -17 1t-10 3q-16 12 -26.5 35.5t-11.5 43.5q-1 14 8 37t29 58q9 17 27.5 47t25.5 42q51 88 65 134.5t-8 67.5q-55 -12 -160.5 -107t-181.5 -206q-12 -17 -24.5 -39t-36.5 -64q-11 -21 -16 -29.5t-9 -15.5h-4t-8 -1
z" />
    <glyph glyph-name="i" unicode="i" horiz-adv-x="309" 
d="M561 852q-40 -46 -141.5 -148.5t-116.5 -117.5l-6 6q75 77 139.5 151t101.5 126q2 3 5.5 4.5t8.5 1.5q6 0 10 -3.5t4 -8.5q0 -3 -1 -5.5t-4 -5.5zM118 3q-2 -2 -7 -2.5t-17 -0.5q-10 0 -19.5 1t-11.5 3q-17 13 -28.5 34.5t-12.5 39.5t12.5 49t78.5 136q11 18 50 77.5
t45 82.5q3 13 -7 27t-23 17q-18 -6 -57 -32.5t-67 -51.5l-7 5q27 26 77 64t88 61q8 5 17 5.5t16 -2.5q16 -8 32 -37t16 -49q0 -26 -51.5 -100.5t-56.5 -82.5q-7 -12 -23.5 -38.5t-24.5 -39.5q-18 -31 -26 -51t-7 -33q1 -11 13 -21.5t30 -15.5q23 8 57 32.5t63 54.5l6 -7
q-45 -44 -82.5 -74t-72.5 -51z" />
    <glyph glyph-name="j" unicode="j" horiz-adv-x="303" 
d="M561 852q-40 -46 -141.5 -148.5t-116.5 -117.5l-6 6q75 77 139.5 151t101.5 126q2 3 5.5 4.5t8.5 1.5q6 0 10 -3.5t4 -8.5q0 -3 -1 -5.5t-4 -5.5zM-156 -177q-56 -30 -118 -45.5t-128 -15.5q-52 0 -78 4t-34 13q-1 2 -1.5 3.5t-0.5 3.5q0 14 13.5 33t29.5 29q7 2 24 0
t65 -11q64 -13 97 -17t59 -4t45.5 5t31.5 14q35 26 73.5 76.5t150.5 242.5q91 156 113.5 201.5t24.5 63.5q2 17 -4 32.5t-16 18.5q-23 -6 -64.5 -34.5t-68.5 -55.5l-7 6q25 26 78 65.5t95 65.5q5 2 10 3.5t10 1.5q25 0 35 -28t6 -81q-2 -20 -76.5 -151.5t-76.5 -134.5
q-66 -116 -127 -183.5t-161 -120.5z" />
    <glyph glyph-name="k" unicode="k" horiz-adv-x="606" 
d="M23 7q-7 -1 -11 -1h-7q-23 0 -29.5 10.5t2.5 32.5q11 18 35 59t85 151q10 18 91 163t101 176q38 61 102.5 120t140.5 100q67 36 139 55t144 19q42 0 71.5 -1.5t44.5 -3.5q6 -1 9 -4t3 -8q0 -16 -16.5 -37t-29.5 -21q-15 0 -35 1.5t-65 5.5q-60 6 -92 8t-60 2
q-39 0 -63.5 -5.5t-45.5 -17.5q-39 -21 -80 -72t-94 -143q-20 -33 -50.5 -87.5t-121.5 -218.5q95 103 182 168t130 65q31 -7 58.5 -47.5t18.5 -70.5q-7 -26 -29 -54t-49 -45q-28 -17 -72 -28t-173 -29q24 -4 44.5 -16.5t33.5 -29.5q6 -8 11.5 -22.5t14.5 -50.5
q9 -31 13.5 -45t9.5 -23q5 -8 15.5 -14t22.5 -6q23 8 61.5 36.5t68.5 59.5l6 -7q-45 -44 -83 -74.5t-73 -51.5q-2 -1 -8.5 -2t-15.5 -1q-24 0 -40 4.5t-22 13.5q-9 13 -16 32t-16 61q-9 39 -15 55t-13 27q-18 24 -40 33t-56 7q-4 -8 -9 -16.5t-9 -16.5q-41 -75 -65 -118
t-43 -76h-4t-7 -1zM501 408q3 20 -14.5 48t-37.5 30q-45 -10 -134 -85.5t-147 -151.5q-1 -2 -1.5 -4t-2.5 -4q165 22 249.5 63.5t87.5 103.5z" />
    <glyph glyph-name="l" unicode="l" horiz-adv-x="303" 
d="M107 3q-3 -1 -8.5 -2t-12.5 -1q-9 0 -17.5 1t-10.5 3q-15 11 -24 33.5t-10 46.5q-2 22 13 60.5t57 115.5q49 89 112 196t89 147q36 61 99 118.5t138 97.5q68 36 139.5 54.5t143.5 18.5q42 0 71.5 -1.5t44.5 -3.5q5 -1 8 -4t3 -7q0 -18 -15.5 -38.5t-29.5 -20.5
q-15 0 -35 1.5t-65 5.5q-60 6 -92 8t-60 2q-39 0 -63.5 -5.5t-45.5 -17.5q-39 -23 -80 -74t-93 -141q-43 -71 -90 -153.5t-109 -194.5q-38 -69 -50.5 -102.5t-11.5 -55.5q1 -14 10 -25t23 -15q24 8 59 32.5t62 52.5l6 -7q-45 -44 -82.5 -74t-72.5 -51z" />
    <glyph glyph-name="m" unicode="m" horiz-adv-x="913" 
d="M60 4q-14 -1 -19.5 -1.5t-11.5 -0.5q-23 0 -30 10.5t1 32.5q76 104 132 212t53 156q-1 15 -9.5 26.5t-22.5 15.5q-23 -6 -56.5 -29t-60.5 -52l-7 7q38 37 81 70t81 55q5 3 9.5 4t8.5 1q21 0 37 -31t18 -66q2 -26 -15.5 -70.5t-69.5 -134.5q81 103 188.5 195.5
t162.5 108.5q26 -6 33.5 -43.5t-7.5 -94.5q-8 -34 -23.5 -70t-36.5 -72q76 93 182.5 178.5t161.5 101.5q49 -11 37 -73.5t-85 -187.5q-55 -96 -65 -121t-9 -41q1 -15 8.5 -25.5t20.5 -14.5q24 8 59 32.5t62 52.5l6 -7q-45 -44 -82.5 -74t-72.5 -51q-2 -2 -6 -2.5t-14 -0.5
q-8 0 -15.5 1t-9.5 3q-16 12 -26.5 35.5t-11.5 43.5q-1 14 7.5 37t28.5 58q10 18 28.5 48t24.5 41q53 90 67 132.5t-6 62.5q-59 -18 -161.5 -109.5t-169.5 -196.5q-21 -32 -46.5 -75t-43.5 -77q-11 -1 -18 -1.5t-13 -0.5q-23 1 -30 11.5t0 32.5q6 11 14.5 25.5t29.5 47.5
q34 55 51 84.5t30 54.5q28 54 41.5 95t14.5 73q1 11 -1.5 19.5t-7.5 16.5q-53 -16 -150 -106.5t-172 -199.5q-14 -21 -31 -48.5t-63 -103.5z" />
    <glyph glyph-name="n" unicode="n" horiz-adv-x="620" 
d="M154 156q-14 -21 -31 -48.5t-63 -103.5q-14 -1 -19.5 -1.5t-10.5 -0.5q-24 0 -31 10.5t1 32.5q76 104 132 212t53 156q-1 15 -9.5 26.5t-22.5 15.5q-23 -6 -55.5 -28.5t-60.5 -52.5l-7 7q39 38 81.5 71t79.5 54q5 2 9.5 3.5t7.5 1.5q21 0 37.5 -31t18.5 -66
q2 -27 -16 -72.5t-69 -133.5q81 102 191.5 195.5t166.5 109.5q51 -11 40 -75t-84 -186q-7 -12 -22 -38.5t-23 -39.5q-17 -31 -24 -50.5t-6 -33.5q1 -15 8.5 -25.5t20.5 -14.5q24 8 59 32.5t62 52.5l6 -7q-45 -44 -82.5 -74t-72.5 -51q-4 -2 -7.5 -2.5t-12.5 -0.5
q-8 0 -15.5 1t-9.5 3q-16 12 -26.5 35.5t-11.5 43.5q-1 14 8 37t29 58q9 17 27.5 47t25.5 42q51 88 65 131t-8 64q-55 -17 -155 -107.5t-174 -198.5z" />
    <glyph glyph-name="o" unicode="o" horiz-adv-x="532" 
d="M259 34q-46 -26 -67.5 -33t-40.5 -7q-36 0 -69 23t-43 56q-14 50 -2 104.5t52 122.5q28 49 81 100.5t105 80.5q33 18 63 27t56 9q33 0 62.5 -23t40.5 -57q13 -40 -1 -104t-54 -133q-27 -46 -75 -89.5t-108 -76.5zM114 111q10 -35 31.5 -52.5t55.5 -17.5q17 0 38.5 5
t46.5 14q16 8 35 33t38 63q31 58 49 123t15 111q-3 47 -28.5 71t-72.5 24q-8 0 -16 -1t-15 -3q-21 -13 -47 -43t-50 -68q-42 -68 -63.5 -135.5t-16.5 -123.5z" />
    <glyph glyph-name="p" unicode="p" horiz-adv-x="606" 
d="M-230 -274q-40 -3 -53.5 -3.5t-17.5 -0.5q-7 0 -6.5 3.5t6.5 4.5q61 6 88 15.5t50 31.5q25 24 59.5 76.5t107.5 181.5q125 219 155 285t28 93q-1 13 -11 25t-25 16q-22 -5 -55 -28.5t-61 -54.5l-7 7q46 44 86 76t75 52q5 2 9.5 3.5t7.5 1.5q23 0 40 -31t19 -66
q2 -26 -16 -68.5t-93 -164.5q52 59 102.5 113t94.5 97q62 60 106.5 92t66.5 33q17 -3 34 -25t24 -49q10 -38 -2 -92t-39 -102q-32 -58 -85.5 -110t-119.5 -91q-51 -29 -82.5 -40.5t-62.5 -11.5q-24 0 -48 19t-47 57q-21 -34 -62 -105t-77 -136q-13 -22 -23.5 -41t-19.5 -34
q6 -7 47.5 -13.5t69.5 -6.5q8 0 7.5 -4.5t-11.5 -4.5q-5 0 -17 0.5t-43 1.5q-40 2 -56.5 2.5t-25.5 0.5t-33 -1t-84 -4zM472 466q-10 -1 -38.5 -22t-72.5 -61q-66 -60 -128 -127.5t-98 -119.5q35 -57 63 -78.5t64 -21.5q21 0 36.5 4t36.5 15q54 45 80.5 80.5t47.5 82.5
q27 59 37.5 114.5t2.5 89.5q-4 18 -10.5 27.5t-20.5 16.5z" />
    <glyph glyph-name="q" unicode="q" horiz-adv-x="590" 
d="M134 -276q-2 -1 -3.5 -1h-2.5q-14 0 -19.5 4t-5.5 12q0 13 5 25.5t17 31.5q52 87 137 224.5t135 216.5q1 1 16 24.5t29 42.5q-58 -58 -128 -122.5t-131 -115.5q-25 -21 -44 -36.5t-35 -26.5q-3 -2 -7 -3t-10 -1q-7 0 -14 1t-9 3q-35 26 -36 94.5t30 146.5q30 76 97.5 139
t154.5 100q34 14 62 21.5t51 7.5q41 0 67 -15.5t66 -59.5q4 4 12 11.5t28 27.5q15 16 22.5 23.5t13.5 12.5q5 5 7.5 4.5t1.5 -6.5q-16 -23 -42 -64t-114 -187q-166 -275 -206.5 -343.5t-72.5 -126.5q1 -12 6.5 -19.5t16.5 -12.5q15 -6 42 -9t68 -2q9 0 9 -4.5t-10 -4.5
q-41 0 -93 -3.5t-111 -9.5zM133 257q-25 -70 -26.5 -124.5t20.5 -79.5q4 -2 21 7.5t43 29.5q68 51 161 139t150 155q-47 59 -76.5 81.5t-60.5 22.5q-13 0 -26 -2.5t-25 -8.5q-55 -24 -105 -84.5t-76 -135.5z" />
    <glyph glyph-name="r" unicode="r" horiz-adv-x="480" 
d="M48 3q-7 -1 -11 -1h-8q-23 0 -30 10.5t1 32.5q76 104 132 212t53 156q-1 15 -9.5 26.5t-22.5 15.5q-23 -6 -56.5 -29t-60.5 -52l-7 7q40 39 82.5 72t79.5 53q5 2 9.5 3.5t7.5 1.5q22 -1 38 -31.5t18 -65.5q1 -17 -6.5 -42t-25.5 -63q67 88 108.5 130.5t76.5 58.5
q9 4 17.5 7t15.5 4q29 3 65.5 1t38.5 -7q-1 -16 -25 -43.5t-38 -30.5q-6 0 -13 1t-23 4q-28 4 -45 5.5t-33 1.5q-4 -1 -9 -3.5t-10 -4.5q-33 -17 -70 -64t-135 -212q-5 -8 -11 -18l-18 -30q-25 -41 -38.5 -63t-25.5 -42h-4t-8 -1z" />
    <glyph glyph-name="s" unicode="s" horiz-adv-x="397" 
d="M229 31q-33 -20 -65.5 -29.5t-70.5 -9.5q-34 -1 -63.5 12.5t-43.5 36.5q-18 30 -1 69t57 49l4 -3q-1 -31 10 -58.5t33 -46.5q27 -24 56 -29.5t60 7.5q26 12 30.5 37.5t-11.5 74.5q-4 14 -11 31.5t-35 86.5q-41 99 -34 156.5t62 82.5q32 14 60 21t54 6q42 0 66 -10t34 -31
q9 -19 -1 -43t-33 -40h-4q-26 52 -55.5 77.5t-64.5 25.5q-8 0 -15 -1t-14 -3q-35 -21 -31.5 -64.5t53.5 -149.5q42 -92 35.5 -156.5t-61.5 -98.5z" />
    <glyph glyph-name="t" unicode="t" horiz-adv-x="376" 
d="M293 158l7 -5q-39 -35 -100 -82t-99 -69q-3 -1 -7.5 -2t-10.5 -1q-8 0 -16 1t-10 3q-14 11 -23.5 34.5t-10.5 48.5q-2 26 12 65t46 93q28 48 59 99t68 110h-5.5h-5.5q-10 0 -32.5 -0.5t-25.5 0.5q-4 1 -4 3.5t5 5.5q31 18 50 28.5t25 14.5q44 27 84 54t73 52q4 4 7.5 2.5
t0.5 -6.5q-11 -18 -33.5 -53.5t-30.5 -48.5q33 0 65 1t68 2q6 1 8 1h3t2 -1t1 -3q0 -3 -6.5 -11.5t-15.5 -17.5q-10 -10 -21 -17.5t-17 -8.5h-2.5h-8.5q-29 1 -55.5 2t-53.5 1q-42 -66 -74.5 -120t-60.5 -106q-28 -51 -37.5 -79t-8.5 -55q1 -18 8.5 -30.5t20.5 -16.5
q20 7 74.5 44.5t87.5 67.5z" />
    <glyph glyph-name="u" unicode="u" horiz-adv-x="607" 
d="M430 301q-91 -117 -187.5 -206t-144.5 -98q-27 4 -50.5 22t-29.5 44q-3 22 43.5 99t59.5 101q45 81 55 109t9 46q-1 13 -9.5 23t-23.5 14q-23 -6 -56.5 -29t-60.5 -52l-7 7q36 35 80 69t82 56q5 3 9 4t9 1q22 -1 39.5 -32.5t19.5 -64.5q0 -13 -12.5 -41.5t-64.5 -122.5
q-12 -22 -45.5 -79.5t-41.5 -80.5q-1 -15 10 -26t30 -16q38 0 132 92.5t181 215.5q12 17 24.5 38t34.5 61q11 21 15.5 29t8.5 14q15 5 26.5 7t19.5 2q21 0 26.5 -10t-2.5 -31q-23 -33 -53 -80.5t-57 -93.5q-42 -73 -65 -124.5t-25 -77.5q-1 -12 11 -23.5t29 -16.5
q24 8 59 32.5t62 52.5l6 -7q-45 -44 -82.5 -74t-72.5 -51q-3 -1 -9 -2t-14 -1q-10 0 -20.5 1t-12.5 3q-15 11 -25.5 33.5t-12.5 45.5q-2 18 14.5 56t88.5 162z" />
    <glyph glyph-name="v" unicode="v" horiz-adv-x="572" 
d="M172 2q-4 -4 -9.5 -5.5t-12.5 -1.5q-13 0 -30.5 11.5t-17.5 26.5q32 161 43.5 233t11.5 103q-1 40 -13 64.5t-30 25.5q-15 -4 -45 -23t-55 -41l-5 4q29 28 69.5 58.5t73.5 48.5q7 4 12.5 5.5t10.5 1.5q26 0 42 -32t18 -88q1 -30 -13.5 -120t-37.5 -200q1 -11 9 -19t19 -8
q51 43 111.5 98t102.5 97q43 42 64 81.5t21 77.5q0 23 -10.5 42t-27.5 24q-18 -4 -48.5 -23t-61.5 -44l-4 4q26 26 70.5 56t86.5 52q3 2 5.5 2.5t4.5 0.5q20 0 37.5 -26t16.5 -54q-1 -30 -35.5 -77.5t-111.5 -121.5q-70 -67 -134.5 -124.5t-126.5 -108.5z" />
    <glyph glyph-name="w" unicode="w" horiz-adv-x="860" 
d="M191 6q-6 -3 -14 -4t-24 -1q-23 0 -29 7t-2 27q2 17 18 156t15 158q0 47 -13 77.5t-33 36.5q-14 -4 -43.5 -23t-55.5 -42l-5 5q28 28 68.5 58t74.5 48q6 3 12 5t12 2q27 0 42.5 -37.5t16.5 -104.5q0 -47 -19 -185.5t-21 -158.5q33 21 76 58t86 82q56 58 75.5 84t26.5 50
q4 14 5.5 31.5t0.5 44.5q-1 33 -13 56t-30 28q-14 -4 -43 -23t-55 -42l-7 4q28 27 69 57t75 49q6 3 12 4.5t11 1.5q26 0 42.5 -38.5t18.5 -102.5q0 -12 -4 -50.5t-17 -146.5q-8 -66 -12 -96.5t-6 -52.5q23 13 50 34.5t54 47.5q90 88 136 164.5t41 130.5q-5 24 -18.5 42
t-29.5 23q-20 -6 -40.5 -19t-61.5 -48l-5 6q27 27 69.5 57t74.5 45q5 2 9.5 3t9.5 1q22 0 39.5 -17.5t27.5 -49.5q7 -38 -14.5 -82t-78.5 -107q-20 -24 -49 -53.5t-104 -102.5q-40 -40 -69 -66t-41 -31q-7 -3 -15 -4t-22 -1q-24 0 -30.5 6.5t-2.5 27.5q1 14 3.5 32t6.5 58
q8 64 11 93.5t5 49.5q-15 -19 -50.5 -55.5t-48.5 -49.5q-73 -76 -113 -113.5t-55 -43.5z" />
    <glyph glyph-name="x" unicode="x" horiz-adv-x="513" 
d="M-114 -93q-3 -2 -6.5 -3.5t-7.5 -1.5q-9 0 -16 5t-7 12q0 5 1.5 10.5t5.5 10.5q78 58 136.5 104t103.5 85l115 102q-12 90 -19.5 140t-10.5 59q-4 14 -13 27t-17 15q-17 -6 -56 -32.5t-68 -52.5l-6 5q28 27 77 65t86 60q5 3 9.5 4t8.5 1q3 0 6.5 -1t9.5 -3
q16 -7 27.5 -27t17.5 -49q3 -13 6 -35.5t16 -127.5q18 17 25 24l13 13q103 100 143.5 139.5t65.5 64.5q4 3 8 4t7 1q7 0 11.5 -4t4.5 -10q0 -2 -1 -5l-2 -6q-52 -39 -114.5 -90t-114.5 -99l-45 -41q12 -95 17.5 -129t10.5 -51q4 -14 16 -26.5t26 -16.5q22 8 53.5 31.5
t64.5 55.5l7 -6q-53 -50 -87.5 -77.5t-67.5 -47.5q-4 -2 -8.5 -2.5t-15.5 -0.5q-12 0 -20 1t-12 3q-13 10 -22.5 29t-15.5 50q-4 17 -8.5 49t-11.5 89q-20 -17 -53 -47.5t-56 -52.5q-50 -48 -100 -97.5t-117 -116.5z" />
    <glyph glyph-name="y" unicode="y" horiz-adv-x="575" 
d="M62 -122q-88 -80 -181.5 -122t-186.5 -42q-13 0 -23 3t-14 9q-2 2 -2.5 4t-0.5 7q0 11 12 27.5t27 27.5h111q82 0 140 20.5t112 70.5q29 26 41.5 37.5t23.5 24.5q31 57 48.5 173.5t17.5 234.5q0 39 -5 62t-15 36q-5 6 -12 8.5t-17 1.5q-13 -6 -43 -26.5t-52 -39.5l-6 6
q30 27 70 56.5t73 48.5q5 3 11 4.5t11 1.5q8 0 16.5 -4t14.5 -10q16 -17 23.5 -49.5t7.5 -83.5q0 -81 -12.5 -177.5t-31.5 -144.5l105 110q109 112 147.5 163.5t40.5 80.5q-1 22 -12 38t-29 23q-18 -6 -42 -22t-55 -43l-6 6q19 19 57 48t69 47q11 7 21 12t17 7
q17 4 34.5 -19.5t10.5 -49.5q-18 -39 -64.5 -97t-181.5 -200q-62 -65 -101 -105t-55 -56q-45 -44 -68.5 -66t-45.5 -42z" />
    <glyph glyph-name="z" unicode="z" horiz-adv-x="524" 
d="M317 4q-3 -2 -9 -3t-16 -1t-20.5 1t-12.5 3q-5 2 -35 19t-50 27q-29 14 -51.5 21t-39.5 7q-35 0 -64 -16.5t-67 -56.5q-16 -17 -27.5 -6.5t8.5 26.5q210 151 346.5 252t200.5 151q1 3 0 4t-3 1q-38 -19 -70.5 -30t-53.5 -11q-18 0 -38 8t-57 33q-30 20 -43.5 26t-24.5 5
q-8 -3 -20.5 -12.5t-31.5 -27.5l-24 -24l-23 -23l-8 5q54 58 87.5 88.5t57.5 46.5q4 2 12 3.5t21 1.5q9 0 16 -1t11 -2q3 -2 8 -5t17 -13q42 -33 72 -45t59 -12q42 0 67.5 12.5t56.5 45.5q4 4 10 3.5t10 -5.5t3.5 -11t-6.5 -8q-32 -17 -152.5 -103.5t-403.5 -296.5
q-1 -2 -0.5 -3.5t2.5 -1.5q58 34 89.5 48t48.5 14q15 0 37 -9t68 -36q36 -21 50.5 -27t22.5 -6q13 3 29 13.5t87 72.5l6 -6q-24 -25 -76 -71.5t-76 -64.5z" />
    <glyph glyph-name="braceleft" unicode="{" horiz-adv-x="445" 
d="M133 267q27 -14 42.5 -59t-2.5 -82q-10 -22 -25 -49t-51 -82t-53 -84.5t-30 -55.5q-33 -77 -7.5 -107t113.5 -30q11 0 10.5 -9.5t-12.5 -9.5q-88 0 -122 51.5t-1 122.5q14 30 33.5 62.5t59.5 92.5q35 50 49 74t23 44q22 45 3.5 79.5t-58.5 34.5q-3 0 -4 1.5t0 6.5
q1 4 3 5.5t6 1.5q47 0 86.5 27.5t61.5 75.5q9 20 16.5 44.5t20.5 78.5q15 65 26 100t25 65q28 61 99 94.5t170 33.5q10 0 9.5 -8.5t-10.5 -8.5q-110 0 -162.5 -20.5t-74.5 -69.5q-12 -27 -23 -60.5t-27 -99.5q-15 -60 -23.5 -87.5t-18.5 -48.5q-20 -42 -60.5 -74.5
t-91.5 -49.5z" />
    <glyph glyph-name="bar" unicode="|" horiz-adv-x="267" 
d="M146 780q-6 -92 -9 -235.5t-3 -297.5q0 -127 1.5 -262.5t4.5 -250.5q-13 -10 -17.5 -11t-11.5 1q5 115 7.5 251.5t2.5 270.5q0 59 -0.5 138.5t-5.5 389.5q7 5 12 6.5t19 -0.5z" />
    <glyph glyph-name="braceright" unicode="}" horiz-adv-x="445" 
d="M270 226q-27 14 -42.5 59t2.5 82q10 22 25 49t51 82t53 84.5t30 55.5q33 77 7.5 107t-113.5 30q-11 0 -10.5 9.5t12.5 9.5q88 0 122 -51.5t1 -122.5q-14 -30 -33.5 -62.5t-59.5 -92.5q-35 -50 -49 -74t-23 -44q-22 -45 -3.5 -79.5t58.5 -34.5q3 0 4 -1.5t0 -6.5
q-1 -4 -3 -5.5t-6 -1.5q-47 0 -86.5 -27.5t-61.5 -75.5q-9 -20 -16.5 -44.5t-20.5 -78.5q-15 -65 -26 -100t-25 -65q-28 -61 -99 -94.5t-170 -33.5q-10 0 -9.5 8.5t10.5 8.5q110 0 162.5 20.5t74.5 69.5q12 27 23 60.5t27 99.5q15 60 23.5 87.5t18.5 48.5q20 42 60.5 74.5
t91.5 49.5z" />
    <glyph glyph-name="asciitilde" unicode="~" horiz-adv-x="466" 
d="M249 340q-34 18 -49.5 23.5t-27.5 5.5q-25 0 -45 -16.5t-39 -50.5q-4 -6 -8 -3.5t0 8.5q34 55 74.5 84t81.5 29q19 0 40 -7t63 -30q38 -21 57 -27.5t35 -6.5q25 0 42.5 19.5t28.5 59.5q1 4 4 2.5t2 -5.5q-18 -60 -52.5 -93.5t-77.5 -33.5q-26 0 -53.5 8.5t-75.5 33.5z
" />
    <glyph glyph-name="exclamdown" unicode="&#xa1;" horiz-adv-x="305" 
d="M203 501q4 3 14 4.5t23 1.5q19 0 28 -2t13 -6q8 -13 -2.5 -46t-26.5 -41q-5 -3 -17.5 -5t-24.5 -2t-24 3t-14 7q-3 22 7 49t24 37zM59 105q30 53 58 107t56 114l9 -2q-53 -110 -94 -204t-102 -246q-33 -85 -56 -137t-42 -88q-3 -5 -10.5 -7.5t-18.5 -2.5q-13 0 -26 3.5
t-19 8.5q-2 1 -3 3.5t0 4.5q14 32 37.5 77t86.5 155q14 24 55.5 94.5t68.5 119.5z" />
    <glyph glyph-name="cent" unicode="&#xa2;" horiz-adv-x="503" 
d="M484 181q-46 -88 -117.5 -139.5t-146.5 -51.5q-16 0 -31.5 2t-29.5 6q-30 -60 -54 -109.5t-46 -95.5q-18 -10 -22.5 -11t-10.5 1q21 38 44.5 81t74.5 139q-80 30 -99.5 116.5t31.5 188.5q45 91 132.5 145t193.5 57q7 15 15.5 32.5t26.5 52.5l25.5 52.5t15.5 32.5
q9 5 14 6.5t17 -0.5q-8 -15 -17.5 -32.5l-28.5 -52.5q-21 -37 -31 -56t-19 -35q61 -2 108 -29t46 -57q-1 -16 -18 -29t-37 -13q-15 0 -26.5 9t-25.5 40q-15 31 -27.5 43.5t-28.5 17.5q-38 -71 -68 -129t-58 -113q-17 -32 -35.5 -69t-58.5 -115q17 -9 37.5 -13.5t44.5 -4.5
q67 0 114.5 32t89.5 104q2 3 5 1.5t1 -4.5zM383 496q-81 0 -139 -38.5t-97 -115.5q-41 -83 -31.5 -159t66.5 -111q20 38 42 81t49 96q34 67 64.5 127.5t58.5 118.5q-2 1 -4.5 1h-8.5z" />
    <glyph glyph-name="sterling" unicode="&#xa3;" horiz-adv-x="663" 
d="M264 359h7h7q53 0 109.5 1.5t101.5 4.5q5 -4 5 -12.5t-5 -11.5q-45 3 -99.5 5t-110.5 2h-10h-10q-45 -90 -94 -162t-100 -123q24 -3 86.5 -12t97.5 -14q60 -8 105 -12t80 -4q23 0 48 12.5t43 31.5q21 19 43.5 48t50.5 74l27 44q3 5 8.5 4.5t2.5 -5.5l-27 -45
q-31 -52 -60.5 -98.5t-54.5 -84.5q-13 -20 -38 -36.5t-48 -16.5q-33 0 -80 10t-108 30q-13 4 -58.5 21t-124.5 46q-13 -13 -25.5 -23.5t-25.5 -19.5q-24 -17 -44.5 -26t-36.5 -9q-17 0 -27 10t-10 28q0 25 23.5 40.5t62.5 15.5q11 0 28.5 -1.5t51.5 -5.5q21 41 56.5 117.5
t72.5 164.5q-24 0 -51 -1.5t-80 -4.5q-5 3 -5 9.5t5 10.5q17 -1 44 -1.5t92 -0.5q2 5 4.5 11l7.5 18q62 148 159 229.5t200 81.5q52 0 81.5 -18t29.5 -49q0 -24 -13 -38t-35 -14t-34 13t-12 37q0 17 -0.5 27t-1.5 13q-3 9 -11.5 13t-22.5 4q-68 0 -127 -69t-141 -241
q-2 -5 -4.5 -9t-4.5 -9z" />
    <glyph glyph-name="yen" unicode="&#xa5;" horiz-adv-x="615" 
d="M231 9h18q6 0 4 -4.5t-8 -4.5q-8 0 -22 0.5t-43 1.5q-19 1 -26.5 1h-10.5h-10.5t-28.5 -1q-34 -1 -49 -1.5t-24 -0.5q-6 0 -4 4.5t8 4.5h18q34 0 59.5 31.5t77.5 134.5q-45 -1 -81 -2.5t-75 -4.5q-4 2 -2.5 10.5t6.5 11.5q34 -4 68 -5.5t89 -1.5q9 19 19 38t19 38l32 63
q-47 -1 -84.5 -2.5t-77.5 -4.5q-4 2 -2 10.5t6 11.5q34 -4 69 -5.5t92 -1.5l-13 179q-9 119 -21.5 147t-45.5 28h-8q-9 0 -7.5 4.5t9.5 4.5q9 0 22 -0.5t41 -1.5q18 -1 25 -1h10h12t34 1q39 1 56 1.5t26 0.5q6 0 6 -4.5t-6 -4.5h-31q-39 0 -52.5 -41.5t-6.5 -138.5l13 -172
l200 180q66 60 93 116.5t-29 56.5q-4 0 -8.5 -0.5t-12.5 -2.5q-4 -1 -5.5 -1h-2.5q-8 0 -8 6t11 6h16.5t42.5 -1q30 -1 41.5 -1h15.5h11t31 1q36 1 51 1h23q6 0 5 -4.5t-6 -4.5h-8q-27 0 -74 -30.5t-177 -144.5l-198 -179q52 1 92 3.5t69 6.5q4 -3 2.5 -11t-6.5 -13
q-33 3 -75 4.5t-90 1.5l-32 -63q-9 -19 -19 -38t-19 -38q55 1 97.5 3.5t72.5 6.5q4 -3 2.5 -11.5t-6.5 -12.5q-34 3 -77 4.5t-93 1.5q-9 -19 -16.5 -34.5t-13.5 -27.5q-9 -21 -15.5 -36t-10.5 -26q-8 -24 -4 -33t30 -9z" />
    <glyph glyph-name="brokenbar" unicode="&#xa6;" horiz-adv-x="267" 
d="M140 299q-7 -7 -11.5 -8t-10.5 2q0 9 0.5 34t1.5 91q0 63 0.5 86t0.5 32l-6 238q4 8 11 9.5t14 -3.5q0 -9 -0.5 -34t-2.5 -91q-2 -64 -2.5 -87t-0.5 -32t0.5 -33t2.5 -87q2 -62 2.5 -85t0.5 -32zM139 -278q-6 -6 -12.5 -7.5t-12.5 1.5q0 9 0.5 34t3.5 91q2 63 2.5 86
t0.5 32l-3 238q3 6 9.5 7.5t12.5 -1.5q0 -9 -0.5 -34t-2.5 -91q-2 -64 -2.5 -87t-0.5 -32t0.5 -33t2.5 -87q1 -62 1.5 -85t0.5 -32z" />
    <glyph glyph-name="section" unicode="&#xa7;" horiz-adv-x="543" 
d="M-35 -125q13 -33 26.5 -43t33.5 -10q35 0 70 22.5t52 54.5q21 38 22 89t-26 163q-31 126 -28 187.5t31 110.5q23 40 59.5 70.5t101.5 63.5q33 48 86 81.5t100 33.5q46 0 74.5 -19t28.5 -49q0 -17 -12 -29.5t-29 -12.5q-15 0 -25 7.5t-22 33.5q-14 31 -28.5 41t-37.5 10
q-36 0 -67 -44t-31 -109q0 -28 6.5 -62.5t28.5 -106.5q36 -120 37 -176t-22 -98q-23 -41 -66 -76t-115 -71q-38 -55 -103 -92.5t-126 -37.5q-46 0 -74.5 19t-28.5 49q0 17 12 29.5t29 12.5q14 0 23 -8t20 -34zM214 212q31 -113 30.5 -166t-22.5 -94q-2 -2 -3 -4.5t-3 -4.5
q40 22 63.5 43.5t41.5 54.5q25 45 25.5 105t-35.5 184q-31 107 -32.5 154.5t17.5 81.5q1 3 2.5 5.5t4.5 5.5q-32 -18 -57.5 -42.5t-39.5 -50.5q-23 -44 -23.5 -99.5t31.5 -172.5z" />
    <glyph glyph-name="dieresis" unicode="&#xa8;" 
d="M481 597q-16 0 -20.5 1.5t-8.5 5.5q-7 12 9.5 47t32.5 43q4 3 15.5 4.5t24.5 1.5q12 0 24.5 -3t14.5 -6q2 -19 -21 -49.5t-40 -39.5q-5 -3 -12.5 -4t-18.5 -1zM295 597q-16 0 -20.5 1.5t-8.5 5.5q-7 12 9.5 47t32.5 43q4 3 15.5 4.5t24.5 1.5q12 0 24.5 -3t14.5 -6
q2 -19 -21 -49.5t-40 -39.5q-5 -3 -12.5 -4t-18.5 -1z" />
    <glyph glyph-name="copyright" unicode="&#xa9;" horiz-adv-x="816" 
d="M683 95q-55 -52 -123 -81.5t-133 -29.5q-148 0 -249 102t-101 255q0 69 30 134.5t87 118.5q55 52 123 81.5t133 29.5q148 0 248 -102t100 -255q0 -70 -30 -135t-85 -118zM197 105q48 -50 110.5 -77t129.5 -27q143 0 241 97t98 242t-98.5 247t-236.5 102q-142 0 -242 -98
t-100 -242q0 -69 25.5 -132t72.5 -112zM624 252q2 2 5 -0.5t1 -5.5q-50 -60 -98 -86.5t-99 -25.5q-87 0 -143 56t-56 144q0 91 66 154t157 63q40 0 74 -6.5t62 -18.5q1 -1 2 -2.5t1 -3.5q1 -10 4.5 -74t4.5 -76q0 -4 -4 -4.5t-4 3.5q-6 83 -42.5 128t-98.5 45
q-82 0 -124.5 -46.5t-42.5 -137.5q0 -81 51.5 -135t132.5 -54q24 0 45.5 5.5t40.5 16.5q13 8 25 19t40 42z" />
    <glyph glyph-name="ordfeminine" unicode="&#xaa;" horiz-adv-x="396" 
d="M276 401q-7 9 -12 21.5t-6 25.5q-1 12 6 28.5t22 39.5q9 12 24.5 32.5t19.5 27.5q-37 -37 -97 -90t-98 -85q-4 -3 -17 -2.5t-15 2.5q-18 18 -17 57.5t20 87.5q15 38 52 72t87 57q22 10 42.5 15.5t34.5 5.5q30 0 46 -9t35 -30q9 8 19 18t17 18q3 3 5.5 3t4.5 -4
q-43 -53 -87.5 -131.5t-42.5 -107.5q0 -8 5.5 -15t14.5 -9q13 5 32.5 20t34.5 32l7 -5q-34 -32 -54 -48t-38 -27q-4 -3 -23 -2.5t-22 2.5zM159 554q-13 -42 -15.5 -72.5t6.5 -46.5q3 1 11 5.5t21 14.5q42 31 96 81.5t84 87.5q-21 27 -40 39t-45 12q-6 0 -12.5 -1.5
t-14.5 -4.5q-28 -13 -53 -44.5t-38 -70.5z" />
    <glyph glyph-name="guillemotleft" unicode="&#xab;" horiz-adv-x="530" 
d="M78 149q-12 42 -18.5 63t-13.5 39q-1 4 0 7t4 6q86 77 140.5 126t77.5 70q12 11 23.5 17t21.5 6q5 0 8.5 -4.5t3.5 -11.5q0 -15 -10.5 -29.5t-31.5 -28.5q-46 -29 -125 -82t-97 -65q-4 -2 -5 -4.5t0 -4.5q11 -20 25.5 -43.5t45.5 -71.5q16 -25 23.5 -37t14.5 -23
q2 -3 3 -7t1 -9q0 -15 -10.5 -26.5t-21.5 -11.5q-8 0 -15.5 5.5t-10.5 14.5q-7 18 -13.5 39.5t-19.5 65.5zM311 44l-105 192q-2 3 -1 6.5t5 6.5l328 214q19 11 29 15.5t16 4.5q5 0 8.5 -4.5t3.5 -11.5q0 -14 -11 -28.5t-31 -26.5l-332 -165q-4 -2 -5 -4.5t0 -4.5l149 -160
q2 -3 3 -7t1 -9q0 -15 -10.5 -26.5t-21.5 -11.5q-7 0 -14 5.5t-12 14.5z" />
    <glyph glyph-name="logicalnot" unicode="&#xac;" horiz-adv-x="558" 
d="M475 410h-165q-46 0 -84 -1.5t-96 -5.5q-5 3 -5 11.5t5 12.5q60 -4 98 -5t81 -1q84 0 114.5 1t58.5 4q2 0 5 -3t3 -5q-1 -46 0 -91t6 -107q-3 -5 -11.5 -5t-12.5 5q2 35 3 83.5t0 106.5z" />
    <glyph glyph-name="uni00AD" unicode="&#xad;" horiz-adv-x="375" 
d="M66 231zM76 269q24 -2 51 -3t64 -1t65 1t52 3q6 -4 3 -19t-10 -19q-25 3 -51 4t-64 1q-29 0 -56.5 -1t-60.5 -4q-5 4 -2.5 18.5t9.5 19.5z" />
    <glyph glyph-name="registered" unicode="&#xae;" horiz-adv-x="804" 
d="M529 246q1 -82 12.5 -102.5t42.5 -20.5t68.5 28.5t63.5 74.5q21 37 32 79.5t11 88.5q0 130 -90 212t-231 82q-73 0 -140 -28t-118 -79t-78.5 -118t-27.5 -141q0 -143 89 -232t229 -89q59 0 108 12t84 35q4 3 5.5 1t-2.5 -5q-42 -28 -96.5 -44t-108.5 -16
q-150 0 -240 89.5t-90 240.5q0 74 31.5 145t89.5 127t129.5 87t144.5 31q149 0 241 -81t92 -212q0 -53 -15 -103.5t-43 -92.5q-34 -49 -78.5 -77t-90.5 -28q-49 0 -70 30t-21 102q0 82 -13 102t-60 21h-25l-31 -60q-13 -26 -23 -45t-17 -33q-19 -40 -20.5 -55t18.5 -15h17
q3 0 2.5 -4t-4.5 -4h-16t-36 1h-22.5h-7.5h-12.5t-35.5 -1h-18.5h-5.5q-3 0 -2.5 4t3.5 4q13 0 19 1t11 4q9 4 17.5 14.5t21.5 34.5t32.5 60.5t29.5 58.5l40 80q15 28 24.5 47.5t16.5 33.5q19 39 19 53t-25 14h-14q-4 0 -2 4t5 4h15t33 -1h20h7h7h20q27 1 39.5 1h19.5
q72 0 109 -36.5t12 -91.5q-16 -34 -61 -52t-121 -20q40 -6 60 -35.5t21 -84.5zM416 469l-49 -98h24h24q58 0 96 21.5t58 65.5q22 48 5.5 74.5t-67.5 26.5h-20q-18 0 -28 -13t-43 -77z" />
    <glyph glyph-name="macron" unicode="&#xaf;" 
d="M526 629h1h54.5t36.5 1q25 1 29.5 0.5t4.5 -1.5q0 -2 -3 -6t-16 -16q-10 -11 -16 -17t-11 -12h-10.5h-22.5q-24 1 -37 1h-23q-21 0 -44.5 -1t-32.5 -1q-24 -1 -29 -0.5t-5 2.5q0 1 2 3.5t10 9.5q13 12 20.5 20.5t14.5 17.5h9.5h17.5q18 -1 29 -1h21z" />
    <glyph glyph-name="degree" unicode="&#xb0;" horiz-adv-x="376" 
d="M278 447q-54 0 -92 38t-38 92t38 92t92 38t92 -38t38 -92t-38 -92t-92 -38zM278 693q-47 0 -81 -34.5t-34 -81.5t34 -81.5t81 -34.5t81 34.5t34 81.5t-34 81.5t-81 34.5z" />
    <glyph glyph-name="plusminus" unicode="&#xb1;" horiz-adv-x="558" 
d="M470 467q5 -4 5 -12.5t-5 -11.5q-75 6 -98.5 6.5t-54.5 0.5q0 -33 1 -58t6 -96q-3 -5 -11.5 -5t-12.5 5q2 29 2.5 55t0.5 99q-32 0 -56 -1t-97 -6q-5 3 -5 11.5t5 12.5q79 -5 102 -5.5t51 -0.5q0 76 -0.5 102t-2.5 53q4 5 12.5 5t11.5 -5q-6 -75 -6.5 -99t-0.5 -56
q30 0 54.5 0.5t98.5 5.5zM309 216q31 0 55.5 0.5t103.5 5.5q5 -4 5 -12.5t-5 -11.5q-75 6 -100 6.5t-58 0.5t-58 -0.5t-100 -6.5q-5 3 -5 11.5t5 12.5q79 -5 103 -5.5t54 -0.5z" />
    <glyph glyph-name="two.sup" unicode="&#xb2;" horiz-adv-x="373" 
d="M126 496zM414 499q-6 -1 -28.5 -1h-72.5q-30 0 -70 -0.5t-98 -1.5h-12.5h-3.5q-2 0 -2.5 3.5t1.5 4.5q57 29 101 53.5t79 45.5q74 45 117.5 81.5t54.5 63.5q17 39 2.5 64t-53.5 25q-24 0 -39 -6.5t-26 -21.5q-9 -11 -17 -30t-16 -48q-5 -18 -16.5 -27.5t-28.5 -9.5
q-18 0 -22.5 12.5t5.5 31.5q12 22 33 42t48 36q29 18 59.5 27.5t57.5 9.5q55 0 78.5 -27.5t5.5 -70.5q-8 -19 -39.5 -42.5t-108.5 -66.5q-68 -38 -109 -61t-54 -31h76q83 0 119 12.5t70 58.5q3 5 6.5 3t0.5 -6q-4 -7 -27.5 -40.5t-51.5 -71.5q-3 -4 -7 -6.5t-12 -4.5z" />
    <glyph glyph-name="three.sup" unicode="&#xb3;" horiz-adv-x="349" 
d="M172 485zM379 521q-32 -17 -65 -26.5t-63 -9.5q-44 0 -64.5 16t-12.5 45q5 19 27 32.5t68 22.5q4 1 5 -2.5t-3 -4.5q-12 -3 -20.5 -10t-11.5 -17q-6 -20 15 -34t55 -14q30 0 44 2t22 7q11 7 18 14t18 29q22 42 7 77.5t-56 35.5q-10 0 -19.5 -4.5t-23.5 -18.5
q-12 -11 -18 -14.5t-12 -3.5q-9 0 -14 4.5t-5 11.5q0 9 7 15t20 8q74 12 113 28t52 39q17 33 3.5 60t-48.5 27q-17 0 -30 -5t-22 -15t-15.5 -22.5t-11.5 -28.5q-6 -18 -15.5 -26.5t-23.5 -8.5q-15 0 -20.5 10.5t1.5 24.5q8 18 29 34t52 29q25 11 52 17t49 6q47 0 69.5 -30.5
t0.5 -66.5q-7 -12 -26 -22t-54 -20q-16 -5 -47 -12.5t-42 -10.5q27 4 36.5 5t16.5 1q49 0 67 -31t-8 -73q-9 -14 -31.5 -30.5t-64.5 -39.5z" />
    <glyph glyph-name="acute" unicode="&#xb4;" 
d="M451 689q9 7 16.5 10t14.5 3q8 0 15.5 -9t5.5 -15q-1 -6 -5 -14t-9 -11q-3 -2 -8.5 -6t-23.5 -15q-51 -32 -82.5 -54t-57.5 -43q-1 -1 -1.5 -1h-1.5q-2 0 -3.5 2t-1.5 4q0 1 0.5 1.5l1.5 1.5q28 23 58 53.5t69 77.5q7 9 9.5 11.5z" />
    <glyph glyph-name="paragraph" unicode="&#xb6;" horiz-adv-x="644" 
d="M171 -91l220 444h-42q-118 0 -163.5 63.5t4.5 153.5q29 52 87.5 77t151.5 25h29h100q74 -1 99 -1h29h11t30 1q33 1 48 1h23q6 0 6 -4.5t-6 -4.5h-13q-36 0 -52.5 -11.5t-37.5 -42.5q-11 -16 -25 -39.5t-33 -57.5q-11 -19 -24 -43.5t-30 -55.5l-94 -175
q-112 -207 -198.5 -299.5t-168.5 -92.5q-63 0 -110 23.5t-47 52.5q0 16 18 32.5t30 12.5q8 -2 15.5 -8.5t13.5 -18.5q4 -6 9.5 -18.5t8.5 -17.5q12 -24 26.5 -36t31.5 -12q15 0 27 12t26 40zM638 661h-81l-395 -798q39 11 77 42t82 87q34 44 73 107t82 142l93 173
q12 23 21 39t16 29q11 22 19.5 38.5t15.5 29.5q12 24 20 40.5t12 28.5q9 24 4.5 33t-39.5 9z" />
    <glyph glyph-name="periodcentered" unicode="&#xb7;" horiz-adv-x="247" 
d="M112 206q-19 0 -28 2t-13 6q-8 13 2.5 46t26.5 41q5 3 17.5 5t24.5 2t24 -3t14 -7q3 -22 -7 -49t-24 -37q-4 -3 -14 -4.5t-23 -1.5z" />
    <glyph glyph-name="cedilla" unicode="&#xb8;" 
d="M347 -170q-9 -40 -54.5 -71t-97.5 -31q-31 0 -49.5 9t-18.5 23q0 12 19 21t36 9q9 0 15.5 -3.5t14.5 -14.5q10 -12 17.5 -16t18.5 -4q21 0 40.5 14.5t23.5 33.5q7 36 -25.5 56.5t-93.5 12.5q-5 -1 -9 -3.5t-9 -8.5q-5 -5 -7.5 -6.5t-5.5 -1.5q-9 0 -7.5 5.5t13.5 17.5
q55 55 83 83.5t42 44.5q4 4 9 2t1 -6q-32 -32 -45 -46l-26 -28q-1 -2 0.5 -2.5t4.5 -0.5q60 2 89.5 -22t20.5 -67z" />
    <glyph glyph-name="one.sup" unicode="&#xb9;" horiz-adv-x="221" 
d="M130 498zM282 762q-5 -2 -6 1.5t3 5.5q40 18 76 37.5t54 32.5q7 5 10 6t8 1q4 0 6.5 -3.5t0.5 -6.5q-3 -6 -22.5 -41t-76.5 -135q-30 -55 -42 -76t-18 -32q-12 -22 -4.5 -34.5t33.5 -12.5q4 0 3.5 -3.5t-4.5 -3.5h-13.5t-35.5 1h-30h-10h-11t-31 -1h-29.5h-9.5
q-4 0 -3 3.5t5 3.5q26 0 44 10t32 33q10 16 65.5 113.5t59.5 106.5q3 5 1.5 8.5t-7.5 3.5t-17 -4t-31 -14z" />
    <glyph glyph-name="ordmasculine" unicode="&#xba;" horiz-adv-x="330" 
d="M236 422q-20 -11 -41 -19t-35 -8q-21 0 -41.5 13.5t-27.5 31.5q-3 25 7.5 62t32.5 72q17 29 41 52.5t52 39.5q24 12 50 21.5t40 9.5q19 0 36 -13.5t23 -32.5q7 -24 -1 -60.5t-31 -75.5q-14 -26 -41.5 -50t-63.5 -43zM148 467q4 -14 14.5 -24t26.5 -14q12 -3 26.5 -1
t35.5 10q8 4 16.5 14.5t17.5 27.5q17 32 27 70.5t8 67.5q-1 19 -8.5 30.5t-21.5 16.5q-10 4 -26.5 4t-29.5 -4q-14 -8 -29.5 -27.5t-27.5 -44.5q-17 -32 -24.5 -64.5t-4.5 -61.5z" />
    <glyph glyph-name="guillemotright" unicode="&#xbb;" horiz-adv-x="530" 
d="M471 358q12 -42 18.5 -63t13.5 -39q1 -4 0 -7t-4 -6q-86 -77 -140.5 -126t-77.5 -70q-12 -11 -23.5 -17t-21.5 -6q-5 0 -8.5 4.5t-3.5 11.5q0 15 10.5 29.5t31.5 28.5q46 29 125 82t97 65q4 2 5 4.5t0 4.5q-11 20 -25.5 43.5t-45.5 71.5q-16 25 -23.5 37t-14.5 23
q-2 3 -3 7t-1 9q0 15 10.5 26.5t21.5 11.5q8 0 15.5 -5.5t10.5 -14.5q7 -18 13.5 -39.5t19.5 -65.5zM238 463l105 -192q2 -3 1 -6.5t-5 -6.5l-328 -214q-19 -11 -29 -15.5t-16 -4.5q-5 0 -8.5 4.5t-3.5 11.5q0 14 11 28.5t31 26.5l332 165q4 2 5 4.5t0 4.5l-149 160
q-2 3 -3 7t-1 9q0 15 10.5 26.5t21.5 11.5q7 0 14 -5.5t12 -14.5z" />
    <glyph glyph-name="onequarter" unicode="&#xbc;" horiz-adv-x="636" 
d="M64 0zM255 -92q-22 1 -32.5 1h-16.5t-18.5 -0.5t-39.5 -0.5q-16 -1 -21.5 -1h-7.5q-4 0 -3 3.5t5 3.5q26 0 46 12.5t37 41.5l39 66q-42 1 -85.5 1h-87.5q-5 0 -6 4t4 6q95 59 198.5 125.5t152.5 101.5q4 3 6.5 3.5t5.5 -0.5t3.5 -4t-1.5 -6t-9 -15.5t-30 -51.5
q-26 -47 -41 -73t-27 -47h49q32 0 48.5 8.5t38.5 38.5q3 5 7 2.5t0 -6.5q-11 -14 -25.5 -34.5t-33.5 -47.5q-2 -3 -6 -4t-10 -1h-46h-46l-40 -69q-14 -25 -7.5 -38t34.5 -13q3 0 2.5 -3.5t-4.5 -3.5h-9t-23 1zM314 192l-169 -110q-2 -2 -3 -2.5t-2 -1.5h128q8 15 18 31.5
t27 45.5q9 15 12.5 21t5.5 10q4 7 4.5 11.5t-1.5 4.5t-7 -2.5t-13 -7.5zM100 354q33 -2 123.5 -4t135.5 -2t136.5 2t124.5 4q5 -3 2 -12t-9 -12q-35 3 -123.5 5t-135.5 2q-48 0 -137 -2t-124 -5q-5 3 -2 11.5t9 12.5zM296 429zM448 693q-5 -2 -6 1.5t3 5.5q40 18 76 37.5
t54 32.5q7 5 10 6t8 1q4 0 6.5 -3.5t0.5 -6.5q-3 -6 -22.5 -41t-76.5 -135q-30 -55 -42 -76t-18 -32q-12 -22 -4.5 -34.5t33.5 -12.5q4 0 3.5 -3.5t-4.5 -3.5h-13.5t-35.5 1h-30h-10h-11t-31 -1h-29.5h-9.5q-4 0 -3 3.5t5 3.5q26 0 44 10t32 33q10 16 65.5 113.5t59.5 106.5
q3 5 1.5 8.5t-7.5 3.5t-17 -4t-31 -14z" />
    <glyph glyph-name="onehalf" unicode="&#xbd;" horiz-adv-x="636" 
d="M0 0zM100 354q33 -2 123.5 -4t135.5 -2t136.5 2t124.5 4q5 -3 2 -12t-9 -12q-35 3 -123.5 5t-135.5 2q-48 0 -137 -2t-124 -5q-5 3 -2 11.5t9 12.5zM296 429zM448 693q-5 -2 -6 1.5t3 5.5q40 18 76 37.5t54 32.5q7 5 10 6t8 1q4 0 6.5 -3.5t0.5 -6.5q-3 -6 -22.5 -41
t-76.5 -135q-30 -55 -42 -76t-18 -32q-12 -22 -4.5 -34.5t33.5 -12.5q4 0 3.5 -3.5t-4.5 -3.5h-13.5t-35.5 1h-30h-10h-11t-31 -1h-29.5h-9.5q-4 0 -3 3.5t5 3.5q26 0 44 10t32 33q10 16 65.5 113.5t59.5 106.5q3 5 1.5 8.5t-7.5 3.5t-17 -4t-31 -14zM272 -95
q-6 -1 -28.5 -1h-72.5q-30 0 -70 -0.5t-98 -1.5h-12.5h-3.5q-2 0 -2.5 3.5t1.5 4.5q57 29 101 53.5t79 45.5q74 45 117.5 81.5t54.5 63.5q17 39 2.5 64t-53.5 25q-24 0 -39 -6.5t-26 -21.5q-9 -11 -17 -30t-16 -48q-5 -18 -16.5 -27.5t-28.5 -9.5q-18 0 -22.5 12.5t5.5 31.5
q12 22 33 42t48 36q29 18 59.5 27.5t57.5 9.5q55 0 78.5 -27.5t5.5 -70.5q-8 -19 -39.5 -42.5t-108.5 -66.5q-68 -38 -109 -61t-54 -31h76q83 0 119 12.5t70 58.5q3 5 6.5 3t0.5 -6q-4 -7 -27.5 -40.5t-51.5 -71.5q-3 -4 -7 -6.5t-12 -4.5z" />
    <glyph glyph-name="threequarters" unicode="&#xbe;" horiz-adv-x="636" 
d="M64 0zM255 -92q-22 1 -32.5 1h-16.5t-18.5 -0.5t-39.5 -0.5q-16 -1 -21.5 -1h-7.5q-4 0 -3 3.5t5 3.5q26 0 46 12.5t37 41.5l39 66q-42 1 -85.5 1h-87.5q-5 0 -6 4t4 6q95 59 198.5 125.5t152.5 101.5q4 3 6.5 3.5t5.5 -0.5t3.5 -4t-1.5 -6t-9 -15.5t-30 -51.5
q-26 -47 -41 -73t-27 -47h49q32 0 48.5 8.5t38.5 38.5q3 5 7 2.5t0 -6.5q-11 -14 -25.5 -34.5t-33.5 -47.5q-2 -3 -6 -4t-10 -1h-46h-46l-40 -69q-14 -25 -7.5 -38t34.5 -13q3 0 2.5 -3.5t-4.5 -3.5h-9t-23 1zM314 192l-169 -110q-2 -2 -3 -2.5t-2 -1.5h128q8 15 18 31.5
t27 45.5q9 15 12.5 21t5.5 10q4 7 4.5 11.5t-1.5 4.5t-7 -2.5t-13 -7.5zM100 354q33 -2 123.5 -4t135.5 -2t136.5 2t124.5 4q5 -3 2 -12t-9 -12q-35 3 -123.5 5t-135.5 2q-48 0 -137 -2t-124 -5q-5 3 -2 11.5t9 12.5zM278 419zM485 455q-32 -17 -65 -26.5t-63 -9.5
q-44 0 -64.5 16t-12.5 45q5 19 27 32.5t68 22.5q4 1 5 -2.5t-3 -4.5q-12 -3 -20.5 -10t-11.5 -17q-6 -20 15 -34t55 -14q30 0 44 2t22 7q11 7 18 14t18 29q22 42 7 77.5t-56 35.5q-10 0 -19.5 -4.5t-23.5 -18.5q-12 -11 -18 -14.5t-12 -3.5q-9 0 -14 4.5t-5 11.5q0 9 7 15
t20 8q74 12 113 28t52 39q17 33 3.5 60t-48.5 27q-17 0 -30 -5t-22 -15t-15.5 -22.5t-11.5 -28.5q-6 -18 -15.5 -26.5t-23.5 -8.5q-15 0 -20.5 10.5t1.5 24.5q8 18 29 34t52 29q25 11 52 17t49 6q47 0 69.5 -30.5t0.5 -66.5q-7 -12 -26 -22t-54 -20q-16 -5 -47 -12.5
t-42 -10.5q27 4 36.5 5t16.5 1q49 0 67 -31t-8 -73q-9 -14 -31.5 -30.5t-64.5 -39.5z" />
    <glyph glyph-name="questiondown" unicode="&#xbf;" horiz-adv-x="551" 
d="M376 504q4 3 14 4.5t23 1.5q19 0 28 -2t13 -6q8 -13 -2.5 -46t-26.5 -41q-5 -3 -17.5 -5t-24.5 -2t-24 3t-14 7q-3 22 7 49t24 37zM311 329q3 2 9 3t15 1q10 0 19.5 -1t11.5 -3q15 -11 24.5 -34.5t10.5 -46.5t-6 -45t-22 -45q-19 -30 -62 -58t-154 -78
q-122 -54 -167.5 -87t-61.5 -68q-18 -40 -10 -79t40 -67q26 -23 65 -35.5t86 -12.5q83 0 134 27t64 78q11 53 -17 88.5t-80 35.5q-19 0 -46 -9t-52 -22l-5 6q67 34 102 45t65 11q60 0 90.5 -37.5t16.5 -94.5q-20 -62 -99 -99.5t-173 -34.5q-62 0 -112.5 12.5t-85.5 37.5
q-47 32 -60.5 80t9.5 101q15 36 61.5 69.5t172.5 88.5q107 46 147 72t57 53q10 17 14.5 31t4.5 30q-1 14 -11 27.5t-24 17.5q-24 -11 -60.5 -35t-71.5 -52l-6 7q43 34 83.5 64t83.5 58z" />
    <glyph glyph-name="Agrave" unicode="&#xc0;" horiz-adv-x="1349" 
d="M36 0zM560 176q-139 -154 -196.5 -195t-128.5 -41q-51 0 -93.5 23.5t-70.5 66.5q-30 46 -34.5 98.5t18.5 86.5q28 42 71 78.5t93 60.5q44 22 89 33t90 11q55 0 143 -1t181 -2q90 109 178.5 214.5t146.5 174.5q-56 0 -98 -1.5t-74 -5.5t-66 -9t-89 -14q-33 -6 -43.5 -7.5
t-15.5 -1.5q-7 0 0 10t35 40l15 15t5 6q7 4 45.5 6t117.5 2h182q66 0 135 1t171 4q39 1 53 1.5t22 0.5q12 0 20 -1t12 -2q0 -12 -13.5 -32.5t-29.5 -30.5q-10 -3 -46 -1t-132 10q-61 6 -84 7.5t-35 1.5h-7.5h-7.5q-14 -75 -33 -183t-36 -208q38 -1 80 -1h107q32 0 66.5 -0.5
t54.5 -1.5q3 0 4 -1t1 -3t-2.5 -5.5t-7.5 -8.5q-12 -12 -29 -22.5t-26 -11.5q-21 -4 -52.5 -3.5t-35.5 0.5q-30 0 -71.5 1t-97.5 4q-9 -54 -14.5 -86t-6.5 -42q-5 -38 -4.5 -72.5t6.5 -57.5q3 -11 13 -19.5t27 -13.5q23 8 79 48.5t82 67.5l6 -7q-40 -38 -98.5 -85t-95.5 -69
q-7 -4 -25 -3t-22 4q-14 11 -23.5 30t-11.5 40q-5 36 -4.5 66t6.5 65q4 24 13.5 79t10.5 58q-29 1 -63.5 3t-105.5 6q-41 3 -61.5 4t-38.5 2q-13 -16 -76 -93.5t-74 -87.5zM1063 782l-324 -387q97 -1 151 -1.5t98 -0.5q18 95 39.5 206t35.5 183zM141 58q26 -38 65 -59.5
t86 -21.5q37 0 55.5 8.5t42.5 28.5q15 13 34 32.5t44 46.5q15 17 33.5 37t39.5 45q9 11 24 28t52 62q30 36 46 55.5t31 37.5q-148 8 -227 11.5t-128 3.5q-34 0 -63 -6t-53 -19q-30 -16 -54 -45t-46 -75q-17 -38 -12 -84t30 -86zM1150 882q-1 0 -2 0.5t-2 1.5
q-17 21 -39 42.5t-58 50.5q-12 9 -15.5 12.5l-5.5 5.5q-5 4 -9.5 16t-3.5 19q2 6 10 12t15 6q6 0 13.5 -5.5t16.5 -17.5q1 -2 3.5 -6t8.5 -17q21 -42 37 -67.5t33 -45.5q1 -1 1 -1.5v-1.5q0 -2 -1 -3t-2 -1z" />
    <glyph glyph-name="Aacute" unicode="&#xc1;" horiz-adv-x="1349" 
d="M36 0zM560 176q-139 -154 -196.5 -195t-128.5 -41q-51 0 -93.5 23.5t-70.5 66.5q-30 46 -34.5 98.5t18.5 86.5q28 42 71 78.5t93 60.5q44 22 89 33t90 11q55 0 143 -1t181 -2q90 109 178.5 214.5t146.5 174.5q-56 0 -98 -1.5t-74 -5.5t-66 -9t-89 -14q-33 -6 -43.5 -7.5
t-15.5 -1.5q-7 0 0 10t35 40l15 15t5 6q7 4 45.5 6t117.5 2h182q66 0 135 1t171 4q39 1 53 1.5t22 0.5q12 0 20 -1t12 -2q0 -12 -13.5 -32.5t-29.5 -30.5q-10 -3 -46 -1t-132 10q-61 6 -84 7.5t-35 1.5h-7.5h-7.5q-14 -75 -33 -183t-36 -208q38 -1 80 -1h107q32 0 66.5 -0.5
t54.5 -1.5q3 0 4 -1t1 -3t-2.5 -5.5t-7.5 -8.5q-12 -12 -29 -22.5t-26 -11.5q-21 -4 -52.5 -3.5t-35.5 0.5q-30 0 -71.5 1t-97.5 4q-9 -54 -14.5 -86t-6.5 -42q-5 -38 -4.5 -72.5t6.5 -57.5q3 -11 13 -19.5t27 -13.5q23 8 79 48.5t82 67.5l6 -7q-40 -38 -98.5 -85t-95.5 -69
q-7 -4 -25 -3t-22 4q-14 11 -23.5 30t-11.5 40q-5 36 -4.5 66t6.5 65q4 24 13.5 79t10.5 58q-29 1 -63.5 3t-105.5 6q-41 3 -61.5 4t-38.5 2q-13 -16 -76 -93.5t-74 -87.5zM1063 782l-324 -387q97 -1 151 -1.5t98 -0.5q18 95 39.5 206t35.5 183zM141 58q26 -38 65 -59.5
t86 -21.5q37 0 55.5 8.5t42.5 28.5q15 13 34 32.5t44 46.5q15 17 33.5 37t39.5 45q9 11 24 28t52 62q30 36 46 55.5t31 37.5q-148 8 -227 11.5t-128 3.5q-34 0 -63 -6t-53 -19q-30 -16 -54 -45t-46 -75q-17 -38 -12 -84t30 -86zM1202 1035q9 7 16.5 10t14.5 3q8 0 15.5 -9
t5.5 -15q-1 -6 -5 -14t-9 -11q-3 -2 -8.5 -6t-23.5 -15q-51 -32 -82.5 -54t-57.5 -43q-1 -1 -1.5 -1h-1.5q-2 0 -3.5 2t-1.5 4q0 1 0.5 1.5l1.5 1.5q28 23 58 53.5t69 77.5q7 9 9.5 11.5z" />
    <glyph glyph-name="Acircumflex" unicode="&#xc2;" horiz-adv-x="1349" 
d="M36 0zM560 176q-139 -154 -196.5 -195t-128.5 -41q-51 0 -93.5 23.5t-70.5 66.5q-30 46 -34.5 98.5t18.5 86.5q28 42 71 78.5t93 60.5q44 22 89 33t90 11q55 0 143 -1t181 -2q90 109 178.5 214.5t146.5 174.5q-56 0 -98 -1.5t-74 -5.5t-66 -9t-89 -14q-33 -6 -43.5 -7.5
t-15.5 -1.5q-7 0 0 10t35 40l15 15t5 6q7 4 45.5 6t117.5 2h182q66 0 135 1t171 4q39 1 53 1.5t22 0.5q12 0 20 -1t12 -2q0 -12 -13.5 -32.5t-29.5 -30.5q-10 -3 -46 -1t-132 10q-61 6 -84 7.5t-35 1.5h-7.5h-7.5q-14 -75 -33 -183t-36 -208q38 -1 80 -1h107q32 0 66.5 -0.5
t54.5 -1.5q3 0 4 -1t1 -3t-2.5 -5.5t-7.5 -8.5q-12 -12 -29 -22.5t-26 -11.5q-21 -4 -52.5 -3.5t-35.5 0.5q-30 0 -71.5 1t-97.5 4q-9 -54 -14.5 -86t-6.5 -42q-5 -38 -4.5 -72.5t6.5 -57.5q3 -11 13 -19.5t27 -13.5q23 8 79 48.5t82 67.5l6 -7q-40 -38 -98.5 -85t-95.5 -69
q-7 -4 -25 -3t-22 4q-14 11 -23.5 30t-11.5 40q-5 36 -4.5 66t6.5 65q4 24 13.5 79t10.5 58q-29 1 -63.5 3t-105.5 6q-41 3 -61.5 4t-38.5 2q-13 -16 -76 -93.5t-74 -87.5zM1063 782l-324 -387q97 -1 151 -1.5t98 -0.5q18 95 39.5 206t35.5 183zM141 58q26 -38 65 -59.5
t86 -21.5q37 0 55.5 8.5t42.5 28.5q15 13 34 32.5t44 46.5q15 17 33.5 37t39.5 45q9 11 24 28t52 62q30 36 46 55.5t31 37.5q-148 8 -227 11.5t-128 3.5q-34 0 -63 -6t-53 -19q-30 -16 -54 -45t-46 -75q-17 -38 -12 -84t30 -86zM1275 889q0 -8 -6 -12t-18 -4q-20 0 -29.5 6
t-9.5 19q0 50 -4.5 78.5t-14.5 46.5q-1 2 -2.5 3t-3.5 0q-35 -20 -62.5 -43.5t-60.5 -63.5q-8 -9 -21 -14t-30 -5q-11 0 -17 4t-6 11q0 20 57 53t139 63q4 2 7 1t6 -5q32 -39 54 -78.5t22 -59.5z" />
    <glyph glyph-name="Atilde" unicode="&#xc3;" horiz-adv-x="1349" 
d="M36 0zM560 176q-139 -154 -196.5 -195t-128.5 -41q-51 0 -93.5 23.5t-70.5 66.5q-30 46 -34.5 98.5t18.5 86.5q28 42 71 78.5t93 60.5q44 22 89 33t90 11q55 0 143 -1t181 -2q90 109 178.5 214.5t146.5 174.5q-56 0 -98 -1.5t-74 -5.5t-66 -9t-89 -14q-33 -6 -43.5 -7.5
t-15.5 -1.5q-7 0 0 10t35 40l15 15t5 6q7 4 45.5 6t117.5 2h182q66 0 135 1t171 4q39 1 53 1.5t22 0.5q12 0 20 -1t12 -2q0 -12 -13.5 -32.5t-29.5 -30.5q-10 -3 -46 -1t-132 10q-61 6 -84 7.5t-35 1.5h-7.5h-7.5q-14 -75 -33 -183t-36 -208q38 -1 80 -1h107q32 0 66.5 -0.5
t54.5 -1.5q3 0 4 -1t1 -3t-2.5 -5.5t-7.5 -8.5q-12 -12 -29 -22.5t-26 -11.5q-21 -4 -52.5 -3.5t-35.5 0.5q-30 0 -71.5 1t-97.5 4q-9 -54 -14.5 -86t-6.5 -42q-5 -38 -4.5 -72.5t6.5 -57.5q3 -11 13 -19.5t27 -13.5q23 8 79 48.5t82 67.5l6 -7q-40 -38 -98.5 -85t-95.5 -69
q-7 -4 -25 -3t-22 4q-14 11 -23.5 30t-11.5 40q-5 36 -4.5 66t6.5 65q4 24 13.5 79t10.5 58q-29 1 -63.5 3t-105.5 6q-41 3 -61.5 4t-38.5 2q-13 -16 -76 -93.5t-74 -87.5zM1063 782l-324 -387q97 -1 151 -1.5t98 -0.5q18 95 39.5 206t35.5 183zM141 58q26 -38 65 -59.5
t86 -21.5q37 0 55.5 8.5t42.5 28.5q15 13 34 32.5t44 46.5q15 17 33.5 37t39.5 45q9 11 24 28t52 62q30 36 46 55.5t31 37.5q-148 8 -227 11.5t-128 3.5q-34 0 -63 -6t-53 -19q-30 -16 -54 -45t-46 -75q-17 -38 -12 -84t30 -86zM964 904q-2 -3 -6.5 -0.5t-0.5 6.5
q33 45 63.5 67.5t57.5 22.5q11 0 27 -3t52 -12q34 -8 48.5 -10.5t23.5 -2.5q19 0 32.5 16t30.5 57q2 5 6.5 3.5t2.5 -7.5q-23 -54 -56 -88t-62 -34q-14 0 -33 3.5t-59 13.5q-32 8 -45 10.5t-22 2.5q-17 0 -29.5 -9.5t-30.5 -35.5z" />
    <glyph glyph-name="Adieresis" unicode="&#xc4;" horiz-adv-x="1349" 
d="M36 0zM560 176q-139 -154 -196.5 -195t-128.5 -41q-51 0 -93.5 23.5t-70.5 66.5q-30 46 -34.5 98.5t18.5 86.5q28 42 71 78.5t93 60.5q44 22 89 33t90 11q55 0 143 -1t181 -2q90 109 178.5 214.5t146.5 174.5q-56 0 -98 -1.5t-74 -5.5t-66 -9t-89 -14q-33 -6 -43.5 -7.5
t-15.5 -1.5q-7 0 0 10t35 40l15 15t5 6q7 4 45.5 6t117.5 2h182q66 0 135 1t171 4q39 1 53 1.5t22 0.5q12 0 20 -1t12 -2q0 -12 -13.5 -32.5t-29.5 -30.5q-10 -3 -46 -1t-132 10q-61 6 -84 7.5t-35 1.5h-7.5h-7.5q-14 -75 -33 -183t-36 -208q38 -1 80 -1h107q32 0 66.5 -0.5
t54.5 -1.5q3 0 4 -1t1 -3t-2.5 -5.5t-7.5 -8.5q-12 -12 -29 -22.5t-26 -11.5q-21 -4 -52.5 -3.5t-35.5 0.5q-30 0 -71.5 1t-97.5 4q-9 -54 -14.5 -86t-6.5 -42q-5 -38 -4.5 -72.5t6.5 -57.5q3 -11 13 -19.5t27 -13.5q23 8 79 48.5t82 67.5l6 -7q-40 -38 -98.5 -85t-95.5 -69
q-7 -4 -25 -3t-22 4q-14 11 -23.5 30t-11.5 40q-5 36 -4.5 66t6.5 65q4 24 13.5 79t10.5 58q-29 1 -63.5 3t-105.5 6q-41 3 -61.5 4t-38.5 2q-13 -16 -76 -93.5t-74 -87.5zM1063 782l-324 -387q97 -1 151 -1.5t98 -0.5q18 95 39.5 206t35.5 183zM141 58q26 -38 65 -59.5
t86 -21.5q37 0 55.5 8.5t42.5 28.5q15 13 34 32.5t44 46.5q15 17 33.5 37t39.5 45q9 11 24 28t52 62q30 36 46 55.5t31 37.5q-148 8 -227 11.5t-128 3.5q-34 0 -63 -6t-53 -19q-30 -16 -54 -45t-46 -75q-17 -38 -12 -84t30 -86zM1217 921q-16 0 -20.5 1.5t-8.5 5.5
q-7 12 9.5 47t32.5 43q4 3 15.5 4.5t24.5 1.5q12 0 24.5 -3t14.5 -6q2 -19 -21 -49.5t-40 -39.5q-5 -3 -12.5 -4t-18.5 -1zM1031 921q-16 0 -20.5 1.5t-8.5 5.5q-7 12 9.5 47t32.5 43q4 3 15.5 4.5t24.5 1.5q12 0 24.5 -3t14.5 -6q2 -19 -21 -49.5t-40 -39.5q-5 -3 -12.5 -4
t-18.5 -1z" />
    <glyph glyph-name="Aring" unicode="&#xc5;" horiz-adv-x="1349" 
d="M36 0zM560 176q-139 -154 -196.5 -195t-128.5 -41q-51 0 -93.5 23.5t-70.5 66.5q-30 46 -34.5 98.5t18.5 86.5q28 42 71 78.5t93 60.5q44 22 89 33t90 11q55 0 143 -1t181 -2q90 109 178.5 214.5t146.5 174.5q-56 0 -98 -1.5t-74 -5.5t-66 -9t-89 -14q-33 -6 -43.5 -7.5
t-15.5 -1.5q-7 0 0 10t35 40l15 15t5 6q7 4 45.5 6t117.5 2h182q66 0 135 1t171 4q39 1 53 1.5t22 0.5q12 0 20 -1t12 -2q0 -12 -13.5 -32.5t-29.5 -30.5q-10 -3 -46 -1t-132 10q-61 6 -84 7.5t-35 1.5h-7.5h-7.5q-14 -75 -33 -183t-36 -208q38 -1 80 -1h107q32 0 66.5 -0.5
t54.5 -1.5q3 0 4 -1t1 -3t-2.5 -5.5t-7.5 -8.5q-12 -12 -29 -22.5t-26 -11.5q-21 -4 -52.5 -3.5t-35.5 0.5q-30 0 -71.5 1t-97.5 4q-9 -54 -14.5 -86t-6.5 -42q-5 -38 -4.5 -72.5t6.5 -57.5q3 -11 13 -19.5t27 -13.5q23 8 79 48.5t82 67.5l6 -7q-40 -38 -98.5 -85t-95.5 -69
q-7 -4 -25 -3t-22 4q-14 11 -23.5 30t-11.5 40q-5 36 -4.5 66t6.5 65q4 24 13.5 79t10.5 58q-29 1 -63.5 3t-105.5 6q-41 3 -61.5 4t-38.5 2q-13 -16 -76 -93.5t-74 -87.5zM1063 782l-324 -387q97 -1 151 -1.5t98 -0.5q18 95 39.5 206t35.5 183zM141 58q26 -38 65 -59.5
t86 -21.5q37 0 55.5 8.5t42.5 28.5q15 13 34 32.5t44 46.5q15 17 33.5 37t39.5 45q9 11 24 28t52 62q30 36 46 55.5t31 37.5q-148 8 -227 11.5t-128 3.5q-34 0 -63 -6t-53 -19q-30 -16 -54 -45t-46 -75q-17 -38 -12 -84t30 -86zM1136 880q-39 0 -66 26.5t-27 65.5t27.5 66.5
t65.5 27.5q39 0 66.5 -27.5t27.5 -66.5q0 -38 -27.5 -65t-66.5 -27zM1136 1053q-33 0 -55.5 -23.5t-22.5 -57.5q0 -33 22.5 -56t55.5 -23t56 23t23 56q0 34 -23 57.5t-56 23.5z" />
    <glyph glyph-name="AE" unicode="&#xc6;" horiz-adv-x="1632" 
d="M1247 782q-9 1 -18 1h-20q-112 0 -139.5 -1.5t-53.5 -4.5q-32 -4 -66 -9t-89 -14q-33 -6 -43.5 -7.5t-15.5 -1.5q-7 0 0 10t35 40l15 15t5 6q7 4 45.5 6t117.5 2h170q66 0 167 1t291 4q71 1 94.5 1.5t31.5 0.5q12 0 20 -1t12 -2q0 -12 -13.5 -32.5t-29.5 -30.5
q-10 -2 -72.5 -1t-368.5 15q-25 -99 -48 -188.5t-40 -148.5q36 -1 74 -1h95q33 0 67.5 -0.5t52.5 -1.5q2 0 3.5 -1t1.5 -3t-3.5 -6.5t-12.5 -12.5q-14 -12 -27 -20t-21 -9q-16 -2 -31 -2.5t-57 -0.5q-35 0 -76 1t-84 3q-42 -115 -121 -211t-152 -127h11.5h22.5
q27 -1 42.5 -1h29.5q74 0 136 2t98 6q28 3 60.5 7t87.5 11q43 6 56.5 7.5t19.5 1.5q1 0 2 -1t1 -2q0 -4 -8.5 -14.5t-32.5 -34.5q-10 -10 -13.5 -14t-4.5 -6q-7 -3 -48.5 -5t-124.5 -2h-82q-73 0 -160.5 -1.5t-214.5 -5.5q-28 -1 -36.5 -1h-11.5q-23 0 -38.5 4t-21.5 11
q-3 16 12 37t37 35q34 -8 65.5 -12t62.5 -4q29 0 55 6.5t48 19.5q48 30 85 97t77 199q-25 1 -55.5 2.5t-94.5 4.5l-70.5 3t-44.5 2q-54 -57 -124.5 -127t-87.5 -85q-146 -148 -233.5 -199t-190.5 -51q-58 0 -104.5 24.5t-76.5 71.5q-30 48 -37 105.5t13 98.5
q40 83 141 145.5t208 62.5q43 0 142 -0.5t366 -3.5q36 37 77.5 78.5t121.5 118.5q64 62 92.5 90.5t49.5 50.5zM1170 442l2 6q3 9 44 153t51 180h-2l-342 -337q49 0 106 -0.5t141 -1.5zM339 423q-79 0 -133.5 -43t-82.5 -127q-14 -40 -7 -89.5t32 -92.5q27 -45 66.5 -69.5
t87.5 -24.5q62 0 105 15.5t93 53.5q32 23 70.5 58.5t88.5 85.5q5 5 15 14.5t35 35.5q66 64 102 100l63 63q-255 12 -367.5 16t-167.5 4z" />
    <glyph glyph-name="Ccedilla" unicode="&#xc7;" horiz-adv-x="760" 
d="M703 111q-70 -86 -164 -144t-172 -58h-13.5t-8.5 1q-4 -4 -26.5 -27t-36.5 -39q-1 -2 0.5 -2.5t4.5 -0.5q60 2 89.5 -22t20.5 -67q-9 -40 -54.5 -71t-97.5 -31q-31 0 -49.5 9t-18.5 23q0 12 19 21t36 9q9 0 15.5 -3.5t14.5 -14.5q10 -12 17.5 -16t18.5 -4q21 0 40.5 14.5
t23.5 33.5q7 36 -25.5 56.5t-93.5 12.5q-5 -1 -9 -3.5t-9 -8.5q-5 -5 -7.5 -6.5t-5.5 -1.5q-9 0 -7.5 5.5t13.5 17.5q48 48 73.5 74t41.5 43q-102 9 -169.5 71.5t-87.5 163.5q-17 85 5.5 179t79.5 178q96 140 248.5 232.5t306.5 92.5q64 0 125 -19.5t116 -59.5q2 -1 3 -3
t1 -4q0 -8 -24 -24t-34 -16h-3.5t-9.5 2q-8 3 -18.5 7.5t-34.5 17.5q-71 38 -119.5 51.5t-98.5 13.5q-106 0 -208 -68.5t-179 -189.5q-54 -85 -73.5 -179.5t-1.5 -177.5q22 -101 91.5 -158.5t173.5 -57.5q67 0 144.5 45t129.5 110q3 3 7 0.5t0 -7.5z" />
    <glyph glyph-name="Egrave" unicode="&#xc8;" horiz-adv-x="1066" 
d="M46 0zM153 -2q-27 -1 -35 -1h-11q-23 0 -38.5 4t-21.5 11q-3 16 12 37t37 35q7 2 22.5 0t60.5 -12q61 -13 92.5 -17.5t56.5 -4.5q24 0 43 4.5t32 13.5q27 18 51 56t53 108q11 28 34.5 90.5t36.5 94.5q-77 9 -134.5 13.5t-104.5 6.5q-4 0 -7 1t-3 3t3 3t11 1q53 0 118.5 1
t128.5 2q48 117 107.5 197t124.5 115q-70 17 -123 25.5t-94 8.5q-55 0 -100.5 -9.5t-82.5 -29.5q-67 -36 -120.5 -105.5t-96.5 -177.5q-11 -29 -29 -42.5t-44 -13.5q-29 0 -34 16t14 45q60 94 138 166.5t168 117.5q67 33 138.5 50t147.5 17q58 0 133 -12t198 -41
q95 -23 132.5 -35.5t40.5 -20.5t-11.5 -27.5t-25.5 -22.5q-8 0 -58 12.5t-141 37.5q-71 20 -95 26.5t-46 12.5q-24 -18 -62 -87.5t-103 -221.5q23 0 49.5 0.5t74.5 1.5q52 1 72.5 1h34.5q40 0 70.5 -2t44.5 -5q13 -2 -9.5 -30t-39.5 -31t-35 -3.5t-58 2.5q-33 2 -123 13
t-99 12q-61 -141 -126.5 -231.5t-131.5 -125.5q20 -1 35.5 -1.5t31.5 -0.5q105 0 160.5 2t89.5 6l58.5 6.5t87.5 10.5q49 7 65 8.5t22 1.5q2 0 3 -1.5t0 -3.5q-4 -10 -26.5 -34.5t-32.5 -32.5q-7 -3 -51 -5t-131 -2h-182q-73 0 -158.5 -1.5t-208.5 -5.5zM1005 864
q-1 0 -2 0.5t-2 1.5q-17 21 -39 42.5t-58 50.5q-12 9 -15.5 12.5l-5.5 5.5q-5 4 -9.5 16t-3.5 19q2 6 10 12t15 6q6 0 13.5 -5.5t16.5 -17.5q1 -2 3.5 -6t8.5 -17q21 -42 37 -67.5t33 -45.5q1 -1 1 -1.5v-1.5q0 -2 -1 -3t-2 -1z" />
    <glyph glyph-name="Eacute" unicode="&#xc9;" horiz-adv-x="1066" 
d="M46 0zM153 -2q-27 -1 -35 -1h-11q-23 0 -38.5 4t-21.5 11q-3 16 12 37t37 35q7 2 22.5 0t60.5 -12q61 -13 92.5 -17.5t56.5 -4.5q24 0 43 4.5t32 13.5q27 18 51 56t53 108q11 28 34.5 90.5t36.5 94.5q-77 9 -134.5 13.5t-104.5 6.5q-4 0 -7 1t-3 3t3 3t11 1q53 0 118.5 1
t128.5 2q48 117 107.5 197t124.5 115q-70 17 -123 25.5t-94 8.5q-55 0 -100.5 -9.5t-82.5 -29.5q-67 -36 -120.5 -105.5t-96.5 -177.5q-11 -29 -29 -42.5t-44 -13.5q-29 0 -34 16t14 45q60 94 138 166.5t168 117.5q67 33 138.5 50t147.5 17q58 0 133 -12t198 -41
q95 -23 132.5 -35.5t40.5 -20.5t-11.5 -27.5t-25.5 -22.5q-8 0 -58 12.5t-141 37.5q-71 20 -95 26.5t-46 12.5q-24 -18 -62 -87.5t-103 -221.5q23 0 49.5 0.5t74.5 1.5q52 1 72.5 1h34.5q40 0 70.5 -2t44.5 -5q13 -2 -9.5 -30t-39.5 -31t-35 -3.5t-58 2.5q-33 2 -123 13
t-99 12q-61 -141 -126.5 -231.5t-131.5 -125.5q20 -1 35.5 -1.5t31.5 -0.5q105 0 160.5 2t89.5 6l58.5 6.5t87.5 10.5q49 7 65 8.5t22 1.5q2 0 3 -1.5t0 -3.5q-4 -10 -26.5 -34.5t-32.5 -32.5q-7 -3 -51 -5t-131 -2h-182q-73 0 -158.5 -1.5t-208.5 -5.5zM1057 1017
q9 7 16.5 10t14.5 3q8 0 15.5 -9t5.5 -15q-1 -6 -5 -14t-9 -11q-3 -2 -8.5 -6t-23.5 -15q-51 -32 -82.5 -54t-57.5 -43q-1 -1 -1.5 -1h-1.5q-2 0 -3.5 2t-1.5 4q0 1 0.5 1.5l1.5 1.5q28 23 58 53.5t69 77.5q7 9 9.5 11.5z" />
    <glyph glyph-name="Ecircumflex" unicode="&#xca;" horiz-adv-x="1066" 
d="M46 0zM153 -2q-27 -1 -35 -1h-11q-23 0 -38.5 4t-21.5 11q-3 16 12 37t37 35q7 2 22.5 0t60.5 -12q61 -13 92.5 -17.5t56.5 -4.5q24 0 43 4.5t32 13.5q27 18 51 56t53 108q11 28 34.5 90.5t36.5 94.5q-77 9 -134.5 13.5t-104.5 6.5q-4 0 -7 1t-3 3t3 3t11 1q53 0 118.5 1
t128.5 2q48 117 107.5 197t124.5 115q-70 17 -123 25.5t-94 8.5q-55 0 -100.5 -9.5t-82.5 -29.5q-67 -36 -120.5 -105.5t-96.5 -177.5q-11 -29 -29 -42.5t-44 -13.5q-29 0 -34 16t14 45q60 94 138 166.5t168 117.5q67 33 138.5 50t147.5 17q58 0 133 -12t198 -41
q95 -23 132.5 -35.5t40.5 -20.5t-11.5 -27.5t-25.5 -22.5q-8 0 -58 12.5t-141 37.5q-71 20 -95 26.5t-46 12.5q-24 -18 -62 -87.5t-103 -221.5q23 0 49.5 0.5t74.5 1.5q52 1 72.5 1h34.5q40 0 70.5 -2t44.5 -5q13 -2 -9.5 -30t-39.5 -31t-35 -3.5t-58 2.5q-33 2 -123 13
t-99 12q-61 -141 -126.5 -231.5t-131.5 -125.5q20 -1 35.5 -1.5t31.5 -0.5q105 0 160.5 2t89.5 6l58.5 6.5t87.5 10.5q49 7 65 8.5t22 1.5q2 0 3 -1.5t0 -3.5q-4 -10 -26.5 -34.5t-32.5 -32.5q-7 -3 -51 -5t-131 -2h-182q-73 0 -158.5 -1.5t-208.5 -5.5zM1130 871
q0 -8 -6 -12t-18 -4q-20 0 -29.5 6t-9.5 19q0 50 -4.5 78.5t-14.5 46.5q-1 2 -2.5 3t-3.5 0q-35 -20 -62.5 -43.5t-60.5 -63.5q-8 -9 -21 -14t-30 -5q-11 0 -17 4t-6 11q0 20 57 53t139 63q4 2 7 1t6 -5q32 -39 54 -78.5t22 -59.5z" />
    <glyph glyph-name="Edieresis" unicode="&#xcb;" horiz-adv-x="1066" 
d="M46 0zM153 -2q-27 -1 -35 -1h-11q-23 0 -38.5 4t-21.5 11q-3 16 12 37t37 35q7 2 22.5 0t60.5 -12q61 -13 92.5 -17.5t56.5 -4.5q24 0 43 4.5t32 13.5q27 18 51 56t53 108q11 28 34.5 90.5t36.5 94.5q-77 9 -134.5 13.5t-104.5 6.5q-4 0 -7 1t-3 3t3 3t11 1q53 0 118.5 1
t128.5 2q48 117 107.5 197t124.5 115q-70 17 -123 25.5t-94 8.5q-55 0 -100.5 -9.5t-82.5 -29.5q-67 -36 -120.5 -105.5t-96.5 -177.5q-11 -29 -29 -42.5t-44 -13.5q-29 0 -34 16t14 45q60 94 138 166.5t168 117.5q67 33 138.5 50t147.5 17q58 0 133 -12t198 -41
q95 -23 132.5 -35.5t40.5 -20.5t-11.5 -27.5t-25.5 -22.5q-8 0 -58 12.5t-141 37.5q-71 20 -95 26.5t-46 12.5q-24 -18 -62 -87.5t-103 -221.5q23 0 49.5 0.5t74.5 1.5q52 1 72.5 1h34.5q40 0 70.5 -2t44.5 -5q13 -2 -9.5 -30t-39.5 -31t-35 -3.5t-58 2.5q-33 2 -123 13
t-99 12q-61 -141 -126.5 -231.5t-131.5 -125.5q20 -1 35.5 -1.5t31.5 -0.5q105 0 160.5 2t89.5 6l58.5 6.5t87.5 10.5q49 7 65 8.5t22 1.5q2 0 3 -1.5t0 -3.5q-4 -10 -26.5 -34.5t-32.5 -32.5q-7 -3 -51 -5t-131 -2h-182q-73 0 -158.5 -1.5t-208.5 -5.5zM1072 903
q-16 0 -20.5 1.5t-8.5 5.5q-7 12 9.5 47t32.5 43q4 3 15.5 4.5t24.5 1.5q12 0 24.5 -3t14.5 -6q2 -19 -21 -49.5t-40 -39.5q-5 -3 -12.5 -4t-18.5 -1zM886 903q-16 0 -20.5 1.5t-8.5 5.5q-7 12 9.5 47t32.5 43q4 3 15.5 4.5t24.5 1.5q12 0 24.5 -3t14.5 -6q2 -19 -21 -49.5
t-40 -39.5q-5 -3 -12.5 -4t-18.5 -1z" />
    <glyph glyph-name="Igrave" unicode="&#xcc;" horiz-adv-x="732" 
d="M0 0zM67 -2q-25 -1 -33 -1h-11q-22 0 -37.5 4t-21.5 11q-1 10 16.5 27t32.5 21q6 2 18.5 1t45.5 -7q43 -8 66.5 -10.5t43.5 -2.5q39 0 63 6.5t42 20.5q25 20 46 55t52 114q43 110 53.5 135t21.5 49q76 168 138 251t133 116q-8 1 -15 1.5t-13 0.5q-37 0 -92.5 -6.5
t-157.5 -24.5q-37 -6 -49.5 -8t-16.5 -2q-14 0 11 28.5t45 36.5q5 3 27.5 4.5t136.5 1.5q45 0 112 1.5t184 5.5q35 1 45.5 1.5t13.5 0.5q23 0 38.5 -3.5t20.5 -10.5q2 -9 -11 -24t-34 -28q-7 -2 -20.5 -1t-51.5 8q-46 9 -71 11.5t-45 2.5q-26 0 -47.5 -5.5t-36.5 -15.5
q-26 -18 -45.5 -51.5t-48.5 -115.5q-30 -85 -43 -118.5t-27 -64.5q-62 -138 -136.5 -236.5t-146.5 -136.5q4 -1 9.5 -2t13.5 -1q19 0 53.5 4t117.5 16q85 13 118.5 16.5t49.5 2.5q12 0 7.5 -17.5t-22.5 -33.5q-12 -11 -26.5 -17t-30.5 -6l-139 3q-72 0 -153 -1.5t-193 -5.5z
M778 882q-1 0 -2 0.5t-2 1.5q-17 21 -39 42.5t-58 50.5q-12 9 -15.5 12.5l-5.5 5.5q-5 4 -9.5 16t-3.5 19q2 6 10 12t15 6q6 0 13.5 -5.5t16.5 -17.5q1 -2 3.5 -6t8.5 -17q21 -42 37 -67.5t33 -45.5q1 -1 1 -1.5v-1.5q0 -2 -1 -3t-2 -1z" />
    <glyph glyph-name="Iacute" unicode="&#xcd;" horiz-adv-x="732" 
d="M0 0zM67 -2q-25 -1 -33 -1h-11q-22 0 -37.5 4t-21.5 11q-1 10 16.5 27t32.5 21q6 2 18.5 1t45.5 -7q43 -8 66.5 -10.5t43.5 -2.5q39 0 63 6.5t42 20.5q25 20 46 55t52 114q43 110 53.5 135t21.5 49q76 168 138 251t133 116q-8 1 -15 1.5t-13 0.5q-37 0 -92.5 -6.5
t-157.5 -24.5q-37 -6 -49.5 -8t-16.5 -2q-14 0 11 28.5t45 36.5q5 3 27.5 4.5t136.5 1.5q45 0 112 1.5t184 5.5q35 1 45.5 1.5t13.5 0.5q23 0 38.5 -3.5t20.5 -10.5q2 -9 -11 -24t-34 -28q-7 -2 -20.5 -1t-51.5 8q-46 9 -71 11.5t-45 2.5q-26 0 -47.5 -5.5t-36.5 -15.5
q-26 -18 -45.5 -51.5t-48.5 -115.5q-30 -85 -43 -118.5t-27 -64.5q-62 -138 -136.5 -236.5t-146.5 -136.5q4 -1 9.5 -2t13.5 -1q19 0 53.5 4t117.5 16q85 13 118.5 16.5t49.5 2.5q12 0 7.5 -17.5t-22.5 -33.5q-12 -11 -26.5 -17t-30.5 -6l-139 3q-72 0 -153 -1.5t-193 -5.5z
M830 1035q9 7 16.5 10t14.5 3q8 0 15.5 -9t5.5 -15q-1 -6 -5 -14t-9 -11q-3 -2 -8.5 -6t-23.5 -15q-51 -32 -82.5 -54t-57.5 -43q-1 -1 -1.5 -1h-1.5q-2 0 -3.5 2t-1.5 4q0 1 0.5 1.5l1.5 1.5q28 23 58 53.5t69 77.5q7 9 9.5 11.5z" />
    <glyph glyph-name="Icircumflex" unicode="&#xce;" horiz-adv-x="732" 
d="M0 0zM67 -2q-25 -1 -33 -1h-11q-22 0 -37.5 4t-21.5 11q-1 10 16.5 27t32.5 21q6 2 18.5 1t45.5 -7q43 -8 66.5 -10.5t43.5 -2.5q39 0 63 6.5t42 20.5q25 20 46 55t52 114q43 110 53.5 135t21.5 49q76 168 138 251t133 116q-8 1 -15 1.5t-13 0.5q-37 0 -92.5 -6.5
t-157.5 -24.5q-37 -6 -49.5 -8t-16.5 -2q-14 0 11 28.5t45 36.5q5 3 27.5 4.5t136.5 1.5q45 0 112 1.5t184 5.5q35 1 45.5 1.5t13.5 0.5q23 0 38.5 -3.5t20.5 -10.5q2 -9 -11 -24t-34 -28q-7 -2 -20.5 -1t-51.5 8q-46 9 -71 11.5t-45 2.5q-26 0 -47.5 -5.5t-36.5 -15.5
q-26 -18 -45.5 -51.5t-48.5 -115.5q-30 -85 -43 -118.5t-27 -64.5q-62 -138 -136.5 -236.5t-146.5 -136.5q4 -1 9.5 -2t13.5 -1q19 0 53.5 4t117.5 16q85 13 118.5 16.5t49.5 2.5q12 0 7.5 -17.5t-22.5 -33.5q-12 -11 -26.5 -17t-30.5 -6l-139 3q-72 0 -153 -1.5t-193 -5.5z
M903 889q0 -8 -6 -12t-18 -4q-20 0 -29.5 6t-9.5 19q0 50 -4.5 78.5t-14.5 46.5q-1 2 -2.5 3t-3.5 0q-35 -20 -62.5 -43.5t-60.5 -63.5q-8 -9 -21 -14t-30 -5q-11 0 -17 4t-6 11q0 20 57 53t139 63q4 2 7 1t6 -5q32 -39 54 -78.5t22 -59.5z" />
    <glyph glyph-name="Idieresis" unicode="&#xcf;" horiz-adv-x="732" 
d="M0 0zM67 -2q-25 -1 -33 -1h-11q-22 0 -37.5 4t-21.5 11q-1 10 16.5 27t32.5 21q6 2 18.5 1t45.5 -7q43 -8 66.5 -10.5t43.5 -2.5q39 0 63 6.5t42 20.5q25 20 46 55t52 114q43 110 53.5 135t21.5 49q76 168 138 251t133 116q-8 1 -15 1.5t-13 0.5q-37 0 -92.5 -6.5
t-157.5 -24.5q-37 -6 -49.5 -8t-16.5 -2q-14 0 11 28.5t45 36.5q5 3 27.5 4.5t136.5 1.5q45 0 112 1.5t184 5.5q35 1 45.5 1.5t13.5 0.5q23 0 38.5 -3.5t20.5 -10.5q2 -9 -11 -24t-34 -28q-7 -2 -20.5 -1t-51.5 8q-46 9 -71 11.5t-45 2.5q-26 0 -47.5 -5.5t-36.5 -15.5
q-26 -18 -45.5 -51.5t-48.5 -115.5q-30 -85 -43 -118.5t-27 -64.5q-62 -138 -136.5 -236.5t-146.5 -136.5q4 -1 9.5 -2t13.5 -1q19 0 53.5 4t117.5 16q85 13 118.5 16.5t49.5 2.5q12 0 7.5 -17.5t-22.5 -33.5q-12 -11 -26.5 -17t-30.5 -6l-139 3q-72 0 -153 -1.5t-193 -5.5z
M845 921q-16 0 -20.5 1.5t-8.5 5.5q-7 12 9.5 47t32.5 43q4 3 15.5 4.5t24.5 1.5q12 0 24.5 -3t14.5 -6q2 -19 -21 -49.5t-40 -39.5q-5 -3 -12.5 -4t-18.5 -1zM659 921q-16 0 -20.5 1.5t-8.5 5.5q-7 12 9.5 47t32.5 43q4 3 15.5 4.5t24.5 1.5q12 0 24.5 -3t14.5 -6
q2 -19 -21 -49.5t-40 -39.5q-5 -3 -12.5 -4t-18.5 -1z" />
    <glyph glyph-name="Eth" unicode="&#xd0;" horiz-adv-x="1138" 
d="M128 -2q-15 -1 -20.5 -1h-7.5q-23 0 -38.5 4t-21.5 11q-2 17 14 43t35 38q7 2 23 -0.5t62 -14.5q62 -16 94 -21.5t56 -5.5q22 0 37.5 4t27.5 12q27 19 49 52.5t46 97.5q9 22 29.5 79t34.5 92q-56 -1 -105 -2.5t-83 -3.5q-7 3 -4.5 12.5t10.5 10.5q35 -2 87 -4t99 -3l6 15
q57 142 120.5 234.5t125.5 123.5l4 -3q-16 -8 -40 -49.5t-60 -125.5q-14 -32 -40.5 -96t-38.5 -92l-3 -7q53 1 113 3t104 4q6 -3 3.5 -12.5t-9.5 -10.5q-39 2 -95.5 3.5t-119.5 2.5q-59 -139 -120 -223.5t-128 -119.5q38 -3 150 -2.5t183 6.5q75 6 124.5 20t86.5 40
q33 24 60 59t50 85q45 95 39.5 195.5t-59.5 181.5q-53 78 -141.5 120t-201.5 42q-86 0 -146 -11.5t-105 -35.5q-58 -30 -102 -85t-77 -138q-12 -29 -29.5 -42.5t-44.5 -13.5q-28 0 -32.5 16t13.5 45q39 62 109 121t158 104q80 41 158 61t148 18q114 0 205.5 -42.5
t148.5 -121.5q62 -84 71 -189t-38 -193q-25 -46 -72 -94t-107 -89q-32 -22 -61 -38t-56 -27q-45 -19 -88 -29t-81 -10l-195 2q-75 1 -150 0.5t-164 -2.5z" />
    <glyph glyph-name="Ntilde" unicode="&#xd1;" horiz-adv-x="947" 
d="M0 0zM55 -5q-73 -80 -149.5 -115.5t-173.5 -35.5q-52 0 -126 17.5t-81 26.5q-6 8 21 36t45 33q4 1 13.5 -1t39.5 -13q73 -24 120.5 -33.5t89.5 -9.5q59 0 113 36.5t122 122.5q29 36 65 86.5t106 154.5l263 390q-15 81 -38 117.5t-61 36.5q-9 0 -19.5 -2t-21.5 -6
q-22 -7 -103 -64t-119 -89l-6 7q60 49 140 109t110 76q21 11 42 16.5t43 5.5q52 0 77.5 -49t44.5 -184q22 -159 35 -263t36 -307q96 159 165 267t125 188q111 162 198 229t196 67q50 0 126.5 -10t98.5 -17l3 -1.5t1 -2.5q0 -10 -28 -36t-41 -26h-8.5t-7.5 1q-7 1 -18 3
t-37 7q-77 15 -120 20.5t-77 5.5q-59 0 -119.5 -54t-160.5 -198q-59 -83 -122 -182t-183 -298q-3 -4 -20 -33t-21 -33q-2 -2 -4.5 -3t-5.5 -1q-6 0 -8 7t-6 43q-16 139 -28 238.5t-50 366.5q0 3 -0.5 6.5t-1.5 9.5q-1 8 -1.5 11.5t-1.5 6.5l-255 -380q-126 -187 -157 -228.5
t-59 -72.5zM778 904q-2 -3 -6.5 -0.5t-0.5 6.5q33 45 63.5 67.5t57.5 22.5q11 0 27 -3t52 -12q34 -8 48.5 -10.5t23.5 -2.5q19 0 32.5 16t30.5 57q2 5 6.5 3.5t2.5 -7.5q-23 -54 -56 -88t-62 -34q-14 0 -33 3.5t-59 13.5q-32 8 -45 10.5t-22 2.5q-17 0 -29.5 -9.5
t-30.5 -35.5z" />
    <glyph glyph-name="Ograve" unicode="&#xd2;" horiz-adv-x="972" 
d="M105 0zM677 85q-69 -42 -138 -64.5t-130 -22.5q-112 0 -186.5 50t-102.5 141q-26 82 -7.5 178t75.5 177q41 60 102 115t130 95q64 37 126.5 57t116.5 20q113 0 189.5 -49t105.5 -140q26 -82 8 -178.5t-75 -178.5q-40 -57 -95.5 -109.5t-118.5 -90.5zM195 232
q23 -92 93 -143.5t179 -52.5q54 -1 105 13.5t97 42.5q41 26 78 64.5t69 90.5q52 84 71.5 177t0.5 173q-23 95 -93.5 146.5t-178.5 51.5q-53 0 -100.5 -12.5t-90.5 -37.5q-45 -27 -83.5 -67.5t-73.5 -97.5q-53 -84 -72.5 -176.5t-0.5 -171.5zM728 882q-1 0 -2 0.5t-2 1.5
q-17 21 -39 42.5t-58 50.5q-12 9 -15.5 12.5l-5.5 5.5q-5 4 -9.5 16t-3.5 19q2 6 10 12t15 6q6 0 13.5 -5.5t16.5 -17.5q1 -2 3.5 -6t8.5 -17q21 -42 37 -67.5t33 -45.5q1 -1 1 -1.5v-1.5q0 -2 -1 -3t-2 -1z" />
    <glyph glyph-name="Oacute" unicode="&#xd3;" horiz-adv-x="972" 
d="M105 0zM677 85q-69 -42 -138 -64.5t-130 -22.5q-112 0 -186.5 50t-102.5 141q-26 82 -7.5 178t75.5 177q41 60 102 115t130 95q64 37 126.5 57t116.5 20q113 0 189.5 -49t105.5 -140q26 -82 8 -178.5t-75 -178.5q-40 -57 -95.5 -109.5t-118.5 -90.5zM195 232
q23 -92 93 -143.5t179 -52.5q54 -1 105 13.5t97 42.5q41 26 78 64.5t69 90.5q52 84 71.5 177t0.5 173q-23 95 -93.5 146.5t-178.5 51.5q-53 0 -100.5 -12.5t-90.5 -37.5q-45 -27 -83.5 -67.5t-73.5 -97.5q-53 -84 -72.5 -176.5t-0.5 -171.5zM780 1035q9 7 16.5 10t14.5 3
q8 0 15.5 -9t5.5 -15q-1 -6 -5 -14t-9 -11q-3 -2 -8.5 -6t-23.5 -15q-51 -32 -82.5 -54t-57.5 -43q-1 -1 -1.5 -1h-1.5q-2 0 -3.5 2t-1.5 4q0 1 0.5 1.5l1.5 1.5q28 23 58 53.5t69 77.5q7 9 9.5 11.5z" />
    <glyph glyph-name="Ocircumflex" unicode="&#xd4;" horiz-adv-x="972" 
d="M105 0zM677 85q-69 -42 -138 -64.5t-130 -22.5q-112 0 -186.5 50t-102.5 141q-26 82 -7.5 178t75.5 177q41 60 102 115t130 95q64 37 126.5 57t116.5 20q113 0 189.5 -49t105.5 -140q26 -82 8 -178.5t-75 -178.5q-40 -57 -95.5 -109.5t-118.5 -90.5zM195 232
q23 -92 93 -143.5t179 -52.5q54 -1 105 13.5t97 42.5q41 26 78 64.5t69 90.5q52 84 71.5 177t0.5 173q-23 95 -93.5 146.5t-178.5 51.5q-53 0 -100.5 -12.5t-90.5 -37.5q-45 -27 -83.5 -67.5t-73.5 -97.5q-53 -84 -72.5 -176.5t-0.5 -171.5zM853 889q0 -8 -6 -12t-18 -4
q-20 0 -29.5 6t-9.5 19q0 50 -4.5 78.5t-14.5 46.5q-1 2 -2.5 3t-3.5 0q-35 -20 -62.5 -43.5t-60.5 -63.5q-8 -9 -21 -14t-30 -5q-11 0 -17 4t-6 11q0 20 57 53t139 63q4 2 7 1t6 -5q32 -39 54 -78.5t22 -59.5z" />
    <glyph glyph-name="Otilde" unicode="&#xd5;" horiz-adv-x="972" 
d="M105 0zM677 85q-69 -42 -138 -64.5t-130 -22.5q-112 0 -186.5 50t-102.5 141q-26 82 -7.5 178t75.5 177q41 60 102 115t130 95q64 37 126.5 57t116.5 20q113 0 189.5 -49t105.5 -140q26 -82 8 -178.5t-75 -178.5q-40 -57 -95.5 -109.5t-118.5 -90.5zM195 232
q23 -92 93 -143.5t179 -52.5q54 -1 105 13.5t97 42.5q41 26 78 64.5t69 90.5q52 84 71.5 177t0.5 173q-23 95 -93.5 146.5t-178.5 51.5q-53 0 -100.5 -12.5t-90.5 -37.5q-45 -27 -83.5 -67.5t-73.5 -97.5q-53 -84 -72.5 -176.5t-0.5 -171.5zM542 904q-2 -3 -6.5 -0.5
t-0.5 6.5q33 45 63.5 67.5t57.5 22.5q11 0 27 -3t52 -12q34 -8 48.5 -10.5t23.5 -2.5q19 0 32.5 16t30.5 57q2 5 6.5 3.5t2.5 -7.5q-23 -54 -56 -88t-62 -34q-14 0 -33 3.5t-59 13.5q-32 8 -45 10.5t-22 2.5q-17 0 -29.5 -9.5t-30.5 -35.5z" />
    <glyph glyph-name="Odieresis" unicode="&#xd6;" horiz-adv-x="972" 
d="M105 0zM677 85q-69 -42 -138 -64.5t-130 -22.5q-112 0 -186.5 50t-102.5 141q-26 82 -7.5 178t75.5 177q41 60 102 115t130 95q64 37 126.5 57t116.5 20q113 0 189.5 -49t105.5 -140q26 -82 8 -178.5t-75 -178.5q-40 -57 -95.5 -109.5t-118.5 -90.5zM195 232
q23 -92 93 -143.5t179 -52.5q54 -1 105 13.5t97 42.5q41 26 78 64.5t69 90.5q52 84 71.5 177t0.5 173q-23 95 -93.5 146.5t-178.5 51.5q-53 0 -100.5 -12.5t-90.5 -37.5q-45 -27 -83.5 -67.5t-73.5 -97.5q-53 -84 -72.5 -176.5t-0.5 -171.5zM795 921q-16 0 -20.5 1.5
t-8.5 5.5q-7 12 9.5 47t32.5 43q4 3 15.5 4.5t24.5 1.5q12 0 24.5 -3t14.5 -6q2 -19 -21 -49.5t-40 -39.5q-5 -3 -12.5 -4t-18.5 -1zM609 921q-16 0 -20.5 1.5t-8.5 5.5q-7 12 9.5 47t32.5 43q4 3 15.5 4.5t24.5 1.5q12 0 24.5 -3t14.5 -6q2 -19 -21 -49.5t-40 -39.5
q-5 -3 -12.5 -4t-18.5 -1z" />
    <glyph glyph-name="multiply" unicode="&#xd7;" horiz-adv-x="558" 
d="M455 497q6 0 11 -4t9 -11q-16 -11 -34 -27t-42 -40q-11 -11 -35.5 -36t-37.5 -38q39 -39 75.5 -72t70.5 -60q0 -5 -4.5 -10t-13.5 -10q-11 16 -26.5 33t-38.5 41q-10 10 -34 33.5t-37 36.5q-58 -58 -88 -90.5t-50 -59.5q-5 1 -11 5.5t-12 13.5q31 25 67 57.5t86 81.5
q-24 23 -49 46t-96 85q-1 4 4 10t12 11q20 -25 45.5 -52t91.5 -91q14 14 48 50.5t89 96.5z" />
    <glyph glyph-name="Oslash" unicode="&#xd8;" horiz-adv-x="972" 
d="M677 85q-69 -42 -138 -64.5t-130 -22.5q-70 0 -125 19.5t-95 57.5q-23 -21 -48.5 -46.5l-73.5 -73.5q-10 -4 -18.5 -0.5t-7.5 12.5q20 18 43 38.5t92 82.5q-75 83 -71 212.5t83 243.5q41 60 102 115t130 95q64 37 126.5 57t116.5 20q73 0 131.5 -21t99.5 -62
q34 33 61.5 60t50.5 49q12 2 17 -2t4 -14q-34 -30 -63.5 -56t-56.5 -51q72 -82 66.5 -209.5t-82.5 -239.5q-40 -57 -95.5 -109.5t-118.5 -90.5zM425 745q-44 -26 -82.5 -66.5t-74.5 -98.5q-72 -117 -80.5 -240.5t52.5 -203.5q122 111 181 165.5t105 99.5q19 19 43.5 42
t75.5 72q80 77 120.5 115.5t73.5 70.5q-37 46 -93.5 70t-129.5 24q-53 0 -100.5 -12.5t-90.5 -37.5zM250 123q37 -42 92 -64t125 -23q54 -1 105 13.5t97 42.5q41 26 78 64.5t69 90.5q70 112 80 234.5t-46 205.5q-77 -70 -159 -147t-154 -146q-17 -16 -120.5 -113
t-166.5 -158z" />
    <glyph glyph-name="Ugrave" unicode="&#xd9;" horiz-adv-x="928" 
d="M70 0zM622 205q-89 -100 -197.5 -176.5t-170.5 -76.5q-74 0 -126.5 61t-57.5 148q-2 42 12.5 87.5t47.5 100.5q17 28 39.5 60.5t76.5 104.5q7 9 40.5 53.5t50.5 67.5q35 50 49.5 81t13.5 52q-1 13 -7.5 26.5t-19.5 28.5q-22 -6 -100 -59.5t-113 -84.5l-6 8
q40 35 122.5 96t122.5 82q3 1 7 2t8 1q9 0 17.5 -2t11.5 -4q13 -11 21.5 -31t13.5 -54q3 -24 -13.5 -60.5t-57.5 -95.5q-20 -30 -60.5 -84l-43.5 -58q-94 -128 -126.5 -195t-29.5 -117q6 -76 49 -127t110 -51q50 0 155.5 81t178.5 165q8 13 17.5 28.5t31.5 50.5
q32 51 50 80.5t35 56.5q27 44 60.5 97.5t34.5 55.5q48 76 59 103t9 59q-1 14 -8 27t-20 28q-22 -6 -101 -59.5t-111 -82.5l-6 8q40 34 122.5 95t121.5 83q3 1 7 2t8 1q9 0 17.5 -2t11.5 -4q15 -12 24 -33t12 -52q4 -31 -10 -66.5t-63 -115.5q-16 -26 -52 -85t-53 -86
q-45 -73 -72 -117t-36 -58q-45 -77 -62 -118t-16 -69q2 -15 14.5 -34t23.5 -21q19 6 86.5 56t113.5 91l5 -7q-109 -95 -157.5 -132.5t-76.5 -52.5q-2 -1 -6.5 -2t-9.5 -1q-9 0 -17 1.5t-10 3.5q-22 17 -34 38.5t-14 45.5q-2 31 10 67t43 90zM726 882q-1 0 -2 0.5t-2 1.5
q-17 21 -39 42.5t-58 50.5q-12 9 -15.5 12.5l-5.5 5.5q-5 4 -9.5 16t-3.5 19q2 6 10 12t15 6q6 0 13.5 -5.5t16.5 -17.5q1 -2 3.5 -6t8.5 -17q21 -42 37 -67.5t33 -45.5q1 -1 1 -1.5v-1.5q0 -2 -1 -3t-2 -1z" />
    <glyph glyph-name="Uacute" unicode="&#xda;" horiz-adv-x="928" 
d="M70 0zM622 205q-89 -100 -197.5 -176.5t-170.5 -76.5q-74 0 -126.5 61t-57.5 148q-2 42 12.5 87.5t47.5 100.5q17 28 39.5 60.5t76.5 104.5q7 9 40.5 53.5t50.5 67.5q35 50 49.5 81t13.5 52q-1 13 -7.5 26.5t-19.5 28.5q-22 -6 -100 -59.5t-113 -84.5l-6 8
q40 35 122.5 96t122.5 82q3 1 7 2t8 1q9 0 17.5 -2t11.5 -4q13 -11 21.5 -31t13.5 -54q3 -24 -13.5 -60.5t-57.5 -95.5q-20 -30 -60.5 -84l-43.5 -58q-94 -128 -126.5 -195t-29.5 -117q6 -76 49 -127t110 -51q50 0 155.5 81t178.5 165q8 13 17.5 28.5t31.5 50.5
q32 51 50 80.5t35 56.5q27 44 60.5 97.5t34.5 55.5q48 76 59 103t9 59q-1 14 -8 27t-20 28q-22 -6 -101 -59.5t-111 -82.5l-6 8q40 34 122.5 95t121.5 83q3 1 7 2t8 1q9 0 17.5 -2t11.5 -4q15 -12 24 -33t12 -52q4 -31 -10 -66.5t-63 -115.5q-16 -26 -52 -85t-53 -86
q-45 -73 -72 -117t-36 -58q-45 -77 -62 -118t-16 -69q2 -15 14.5 -34t23.5 -21q19 6 86.5 56t113.5 91l5 -7q-109 -95 -157.5 -132.5t-76.5 -52.5q-2 -1 -6.5 -2t-9.5 -1q-9 0 -17 1.5t-10 3.5q-22 17 -34 38.5t-14 45.5q-2 31 10 67t43 90zM778 1035q9 7 16.5 10t14.5 3
q8 0 15.5 -9t5.5 -15q-1 -6 -5 -14t-9 -11q-3 -2 -8.5 -6t-23.5 -15q-51 -32 -82.5 -54t-57.5 -43q-1 -1 -1.5 -1h-1.5q-2 0 -3.5 2t-1.5 4q0 1 0.5 1.5l1.5 1.5q28 23 58 53.5t69 77.5q7 9 9.5 11.5z" />
    <glyph glyph-name="Ucircumflex" unicode="&#xdb;" horiz-adv-x="928" 
d="M70 0zM622 205q-89 -100 -197.5 -176.5t-170.5 -76.5q-74 0 -126.5 61t-57.5 148q-2 42 12.5 87.5t47.5 100.5q17 28 39.5 60.5t76.5 104.5q7 9 40.5 53.5t50.5 67.5q35 50 49.5 81t13.5 52q-1 13 -7.5 26.5t-19.5 28.5q-22 -6 -100 -59.5t-113 -84.5l-6 8
q40 35 122.5 96t122.5 82q3 1 7 2t8 1q9 0 17.5 -2t11.5 -4q13 -11 21.5 -31t13.5 -54q3 -24 -13.5 -60.5t-57.5 -95.5q-20 -30 -60.5 -84l-43.5 -58q-94 -128 -126.5 -195t-29.5 -117q6 -76 49 -127t110 -51q50 0 155.5 81t178.5 165q8 13 17.5 28.5t31.5 50.5
q32 51 50 80.5t35 56.5q27 44 60.5 97.5t34.5 55.5q48 76 59 103t9 59q-1 14 -8 27t-20 28q-22 -6 -101 -59.5t-111 -82.5l-6 8q40 34 122.5 95t121.5 83q3 1 7 2t8 1q9 0 17.5 -2t11.5 -4q15 -12 24 -33t12 -52q4 -31 -10 -66.5t-63 -115.5q-16 -26 -52 -85t-53 -86
q-45 -73 -72 -117t-36 -58q-45 -77 -62 -118t-16 -69q2 -15 14.5 -34t23.5 -21q19 6 86.5 56t113.5 91l5 -7q-109 -95 -157.5 -132.5t-76.5 -52.5q-2 -1 -6.5 -2t-9.5 -1q-9 0 -17 1.5t-10 3.5q-22 17 -34 38.5t-14 45.5q-2 31 10 67t43 90zM851 889q0 -8 -6 -12t-18 -4
q-20 0 -29.5 6t-9.5 19q0 50 -4.5 78.5t-14.5 46.5q-1 2 -2.5 3t-3.5 0q-35 -20 -62.5 -43.5t-60.5 -63.5q-8 -9 -21 -14t-30 -5q-11 0 -17 4t-6 11q0 20 57 53t139 63q4 2 7 1t6 -5q32 -39 54 -78.5t22 -59.5z" />
    <glyph glyph-name="Udieresis" unicode="&#xdc;" horiz-adv-x="928" 
d="M70 0zM622 205q-89 -100 -197.5 -176.5t-170.5 -76.5q-74 0 -126.5 61t-57.5 148q-2 42 12.5 87.5t47.5 100.5q17 28 39.5 60.5t76.5 104.5q7 9 40.5 53.5t50.5 67.5q35 50 49.5 81t13.5 52q-1 13 -7.5 26.5t-19.5 28.5q-22 -6 -100 -59.5t-113 -84.5l-6 8
q40 35 122.5 96t122.5 82q3 1 7 2t8 1q9 0 17.5 -2t11.5 -4q13 -11 21.5 -31t13.5 -54q3 -24 -13.5 -60.5t-57.5 -95.5q-20 -30 -60.5 -84l-43.5 -58q-94 -128 -126.5 -195t-29.5 -117q6 -76 49 -127t110 -51q50 0 155.5 81t178.5 165q8 13 17.5 28.5t31.5 50.5
q32 51 50 80.5t35 56.5q27 44 60.5 97.5t34.5 55.5q48 76 59 103t9 59q-1 14 -8 27t-20 28q-22 -6 -101 -59.5t-111 -82.5l-6 8q40 34 122.5 95t121.5 83q3 1 7 2t8 1q9 0 17.5 -2t11.5 -4q15 -12 24 -33t12 -52q4 -31 -10 -66.5t-63 -115.5q-16 -26 -52 -85t-53 -86
q-45 -73 -72 -117t-36 -58q-45 -77 -62 -118t-16 -69q2 -15 14.5 -34t23.5 -21q19 6 86.5 56t113.5 91l5 -7q-109 -95 -157.5 -132.5t-76.5 -52.5q-2 -1 -6.5 -2t-9.5 -1q-9 0 -17 1.5t-10 3.5q-22 17 -34 38.5t-14 45.5q-2 31 10 67t43 90zM793 921q-16 0 -20.5 1.5
t-8.5 5.5q-7 12 9.5 47t32.5 43q4 3 15.5 4.5t24.5 1.5q12 0 24.5 -3t14.5 -6q2 -19 -21 -49.5t-40 -39.5q-5 -3 -12.5 -4t-18.5 -1zM607 921q-16 0 -20.5 1.5t-8.5 5.5q-7 12 9.5 47t32.5 43q4 3 15.5 4.5t24.5 1.5q12 0 24.5 -3t14.5 -6q2 -19 -21 -49.5t-40 -39.5
q-5 -3 -12.5 -4t-18.5 -1z" />
    <glyph glyph-name="Yacute" unicode="&#xdd;" horiz-adv-x="599" 
d="M0 0zM425 5q-9 -5 -64 -3.5t-104 1.5q-38 0 -84 -0.5t-129 -1.5q-46 -1 -64.5 -1h-29.5q-2 0 -3.5 1.5t-1.5 3.5q0 7 17 23.5t32 24.5q2 1 4 1.5t6 0.5h28q43 0 81 8t70 24q43 23 79.5 66t90.5 144q5 9 10.5 19.5t17.5 32.5q17 32 26.5 49t17.5 32q-19 111 -43 186.5
t-52 114.5q-8 11 -24 20.5t-39 17.5q-25 -8 -90 -48.5t-98 -67.5l-5 7q60 46 130 94.5t111 70.5q3 1 6.5 2t7.5 1q5 0 10 -1t9 -3q13 -7 28.5 -23.5t22.5 -29.5q37 -66 62 -153t35 -176q27 22 40.5 33.5t24.5 20.5q104 86 167.5 139t86.5 73q20 18 42.5 37.5t62.5 54.5
q55 49 77 68.5t36 32.5q6 6 12 9t11 3q8 0 14 -5.5t6 -13.5q0 -9 -3.5 -15.5t-11.5 -11.5q-55 -37 -119.5 -83.5t-116.5 -86.5q-65 -51 -131 -105t-124 -106q-33 -31 -49.5 -46t-30.5 -28q-34 -63 -47 -87t-24 -42q-55 -95 -110.5 -140t-173.5 -93h21q32 1 76.5 4t132.5 11
q56 5 77 6.5t32 1.5q3 0 4.5 -1.5t1.5 -3.5q0 -12 -19.5 -35t-35.5 -28zM786 1035q9 7 16.5 10t14.5 3q8 0 15.5 -9t5.5 -15q-1 -6 -5 -14t-9 -11q-3 -2 -8.5 -6t-23.5 -15q-51 -32 -82.5 -54t-57.5 -43q-1 -1 -1.5 -1h-1.5q-2 0 -3.5 2t-1.5 4q0 1 0.5 1.5l1.5 1.5
q28 23 58 53.5t69 77.5q7 9 9.5 11.5z" />
    <glyph glyph-name="Thorn" unicode="&#xde;" horiz-adv-x="983" 
d="M391 236q29 75 47.5 121.5t26.5 63.5q80 173 141 254t130 113q-6 1 -13.5 1h-24.5q-36 0 -89.5 -6.5t-152.5 -23.5q-36 -7 -48 -8.5t-16 -1.5q-14 0 11 28.5t45 36.5q5 3 27.5 4.5t136.5 1.5q45 0 112 1.5t184 5.5q35 1 45.5 1.5t13.5 0.5q23 0 38.5 -3.5t20.5 -10.5
q2 -9 -11 -24t-34 -28q-7 -2 -21 -0.5t-53 8.5q-48 8 -72.5 10.5t-43.5 2.5q-26 0 -46.5 -5.5t-35.5 -15.5q-26 -18 -46 -51.5t-49 -115.5q-31 -89 -43.5 -121t-25.5 -62q-7 -16 -15.5 -33.5t-19.5 -38.5q104 123 230.5 239.5t169.5 123.5q41 -35 62.5 -83t21.5 -105
q0 -64 -27.5 -127.5t-77.5 -111.5q-48 -48 -110.5 -73.5t-132.5 -25.5q-47 0 -97 16t-97 45q-47 -73 -95.5 -124t-94.5 -75q5 -2 15.5 -3t26.5 -1q30 0 81.5 4t169.5 18q96 11 133.5 14t56.5 3q7 0 0 -19.5t-24 -34.5q-12 -11 -27 -16.5t-32 -5.5l-249 6q-72 0 -153 -1.5
t-193 -5.5q-25 -1 -33 -1h-11q-22 0 -37.5 4t-21.5 11q-1 10 16.5 27t32.5 21q6 2 18.5 1t45.5 -7q43 -8 66.5 -10.5t43.5 -2.5q39 0 63 6.5t42 20.5q25 20 47 56t52 112zM925 464q0 59 -21 108.5t-61 82.5q-61 -42 -175 -155t-183 -212q44 -38 105.5 -62.5t116.5 -24.5
q94 0 156 77.5t62 185.5z" />
    <glyph glyph-name="germandbls" unicode="&#xdf;" horiz-adv-x="635" 
d="M146 463l111 64v0q11 17 23 33.5t25 32.5q82 101 181 161t183 60q74 0 109.5 -46t9.5 -102q-22 -48 -110 -91t-94 -46q-61 -35 -80 -54t-27 -44q-9 -28 -3 -63t29 -83q18 -39 27.5 -74t9.5 -65q0 -38 -15.5 -66.5t-46.5 -48.5q-33 -20 -65.5 -29.5t-70.5 -9.5
q-34 -1 -63.5 12.5t-43.5 36.5q-18 30 -1 69t57 49l4 -3q-1 -31 10 -58.5t33 -46.5q26 -23 55 -28.5t61 7.5q16 7 24 20t8 32q0 21 -9 51.5t-48 127.5q-12 30 -12 63.5t11 70.5q11 34 41 64t110 76q73 41 101 65.5t41 51.5q24 55 -8.5 96.5t-101.5 41.5q-75 0 -142 -63.5
t-150 -210.5q-33 -59 -65 -119.5t-87 -166.5q-50 -97 -77 -148t-54 -99q-58 -104 -141 -167t-152 -63q-47 0 -74 21.5t-27 58.5q0 30 19.5 54t48.5 28q-1 -14 0 -33t4 -33q7 -32 26 -53.5t43 -21.5q34 0 56 17.5t52 62.5q15 22 33 52t41 71q13 23 32 60.5t65 127.5
q66 127 97 186.5t53 99.5h-63q-6 1 -6.5 5.5t3.5 6.5z" />
    <glyph glyph-name="agrave" unicode="&#xe0;" horiz-adv-x="579" 
d="M33 0zM109 3q-3 -2 -7.5 -3t-10.5 -1t-13 1t-9 3q-35 26 -36 99.5t30 151.5q29 71 91 132t138 97q30 14 57 21.5t48 7.5q43 0 70.5 -15.5t65.5 -57.5q13 11 34.5 31.5t35.5 36.5q5 5 7 4.5t2 -6.5q-75 -94 -151 -227.5t-73 -184.5q1 -13 11.5 -25.5t24.5 -16.5
q25 11 60 36t60 52l6 -7q-49 -48 -86.5 -78.5t-71.5 -50.5q-3 -1 -9 -2t-14 -1q-11 0 -21.5 1.5t-11.5 2.5q-13 15 -22 38t-10 42q-1 20 7.5 46t28.5 59q12 19 33.5 51t28.5 43q-42 -45 -94 -96.5t-104 -99.5q-37 -34 -58 -52t-37 -32zM137 267q-23 -72 -24.5 -131t19.5 -83
q9 2 24.5 12.5t37.5 28.5q58 48 140 132t145 160q-44 56 -75.5 79t-64.5 23q-10 0 -20.5 -2.5t-22.5 -8.5q-48 -22 -92 -80.5t-67 -129.5zM462 558q-1 0 -2 0.5t-2 1.5q-17 21 -39 42.5t-58 50.5q-12 9 -15.5 12.5l-5.5 5.5q-5 4 -9.5 16t-3.5 19q2 6 10 12t15 6
q6 0 13.5 -5.5t16.5 -17.5q1 -2 3.5 -6t8.5 -17q21 -42 37 -67.5t33 -45.5q1 -1 1 -1.5v-1.5q0 -2 -1 -3t-2 -1z" />
    <glyph glyph-name="aacute" unicode="&#xe1;" horiz-adv-x="579" 
d="M33 0zM109 3q-3 -2 -7.5 -3t-10.5 -1t-13 1t-9 3q-35 26 -36 99.5t30 151.5q29 71 91 132t138 97q30 14 57 21.5t48 7.5q43 0 70.5 -15.5t65.5 -57.5q13 11 34.5 31.5t35.5 36.5q5 5 7 4.5t2 -6.5q-75 -94 -151 -227.5t-73 -184.5q1 -13 11.5 -25.5t24.5 -16.5
q25 11 60 36t60 52l6 -7q-49 -48 -86.5 -78.5t-71.5 -50.5q-3 -1 -9 -2t-14 -1q-11 0 -21.5 1.5t-11.5 2.5q-13 15 -22 38t-10 42q-1 20 7.5 46t28.5 59q12 19 33.5 51t28.5 43q-42 -45 -94 -96.5t-104 -99.5q-37 -34 -58 -52t-37 -32zM137 267q-23 -72 -24.5 -131t19.5 -83
q9 2 24.5 12.5t37.5 28.5q58 48 140 132t145 160q-44 56 -75.5 79t-64.5 23q-10 0 -20.5 -2.5t-22.5 -8.5q-48 -22 -92 -80.5t-67 -129.5zM514 711q9 7 16.5 10t14.5 3q8 0 15.5 -9t5.5 -15q-1 -6 -5 -14t-9 -11q-3 -2 -8.5 -6t-23.5 -15q-51 -32 -82.5 -54t-57.5 -43
q-1 -1 -1.5 -1h-1.5q-2 0 -3.5 2t-1.5 4q0 1 0.5 1.5l1.5 1.5q28 23 58 53.5t69 77.5q7 9 9.5 11.5z" />
    <glyph glyph-name="acircumflex" unicode="&#xe2;" horiz-adv-x="579" 
d="M33 0zM109 3q-3 -2 -7.5 -3t-10.5 -1t-13 1t-9 3q-35 26 -36 99.5t30 151.5q29 71 91 132t138 97q30 14 57 21.5t48 7.5q43 0 70.5 -15.5t65.5 -57.5q13 11 34.5 31.5t35.5 36.5q5 5 7 4.5t2 -6.5q-75 -94 -151 -227.5t-73 -184.5q1 -13 11.5 -25.5t24.5 -16.5
q25 11 60 36t60 52l6 -7q-49 -48 -86.5 -78.5t-71.5 -50.5q-3 -1 -9 -2t-14 -1q-11 0 -21.5 1.5t-11.5 2.5q-13 15 -22 38t-10 42q-1 20 7.5 46t28.5 59q12 19 33.5 51t28.5 43q-42 -45 -94 -96.5t-104 -99.5q-37 -34 -58 -52t-37 -32zM137 267q-23 -72 -24.5 -131t19.5 -83
q9 2 24.5 12.5t37.5 28.5q58 48 140 132t145 160q-44 56 -75.5 79t-64.5 23q-10 0 -20.5 -2.5t-22.5 -8.5q-48 -22 -92 -80.5t-67 -129.5zM587 565q0 -8 -6 -12t-18 -4q-20 0 -29.5 6t-9.5 19q0 50 -4.5 78.5t-14.5 46.5q-1 2 -2.5 3t-3.5 0q-35 -20 -62.5 -43.5
t-60.5 -63.5q-8 -9 -21 -14t-30 -5q-11 0 -17 4t-6 11q0 20 57 53t139 63q4 2 7 1t6 -5q32 -39 54 -78.5t22 -59.5z" />
    <glyph glyph-name="atilde" unicode="&#xe3;" horiz-adv-x="579" 
d="M33 0zM109 3q-3 -2 -7.5 -3t-10.5 -1t-13 1t-9 3q-35 26 -36 99.5t30 151.5q29 71 91 132t138 97q30 14 57 21.5t48 7.5q43 0 70.5 -15.5t65.5 -57.5q13 11 34.5 31.5t35.5 36.5q5 5 7 4.5t2 -6.5q-75 -94 -151 -227.5t-73 -184.5q1 -13 11.5 -25.5t24.5 -16.5
q25 11 60 36t60 52l6 -7q-49 -48 -86.5 -78.5t-71.5 -50.5q-3 -1 -9 -2t-14 -1q-11 0 -21.5 1.5t-11.5 2.5q-13 15 -22 38t-10 42q-1 20 7.5 46t28.5 59q12 19 33.5 51t28.5 43q-42 -45 -94 -96.5t-104 -99.5q-37 -34 -58 -52t-37 -32zM137 267q-23 -72 -24.5 -131t19.5 -83
q9 2 24.5 12.5t37.5 28.5q58 48 140 132t145 160q-44 56 -75.5 79t-64.5 23q-10 0 -20.5 -2.5t-22.5 -8.5q-48 -22 -92 -80.5t-67 -129.5zM276 580q-2 -3 -6.5 -0.5t-0.5 6.5q33 45 63.5 67.5t57.5 22.5q11 0 27 -3t52 -12q34 -8 48.5 -10.5t23.5 -2.5q19 0 32.5 16t30.5 57
q2 5 6.5 3.5t2.5 -7.5q-23 -54 -56 -88t-62 -34q-14 0 -33 3.5t-59 13.5q-32 8 -45 10.5t-22 2.5q-17 0 -29.5 -9.5t-30.5 -35.5z" />
    <glyph glyph-name="adieresis" unicode="&#xe4;" horiz-adv-x="579" 
d="M33 0zM109 3q-3 -2 -7.5 -3t-10.5 -1t-13 1t-9 3q-35 26 -36 99.5t30 151.5q29 71 91 132t138 97q30 14 57 21.5t48 7.5q43 0 70.5 -15.5t65.5 -57.5q13 11 34.5 31.5t35.5 36.5q5 5 7 4.5t2 -6.5q-75 -94 -151 -227.5t-73 -184.5q1 -13 11.5 -25.5t24.5 -16.5
q25 11 60 36t60 52l6 -7q-49 -48 -86.5 -78.5t-71.5 -50.5q-3 -1 -9 -2t-14 -1q-11 0 -21.5 1.5t-11.5 2.5q-13 15 -22 38t-10 42q-1 20 7.5 46t28.5 59q12 19 33.5 51t28.5 43q-42 -45 -94 -96.5t-104 -99.5q-37 -34 -58 -52t-37 -32zM137 267q-23 -72 -24.5 -131t19.5 -83
q9 2 24.5 12.5t37.5 28.5q58 48 140 132t145 160q-44 56 -75.5 79t-64.5 23q-10 0 -20.5 -2.5t-22.5 -8.5q-48 -22 -92 -80.5t-67 -129.5zM529 597q-16 0 -20.5 1.5t-8.5 5.5q-7 12 9.5 47t32.5 43q4 3 15.5 4.5t24.5 1.5q12 0 24.5 -3t14.5 -6q2 -19 -21 -49.5t-40 -39.5
q-5 -3 -12.5 -4t-18.5 -1zM343 597q-16 0 -20.5 1.5t-8.5 5.5q-7 12 9.5 47t32.5 43q4 3 15.5 4.5t24.5 1.5q12 0 24.5 -3t14.5 -6q2 -19 -21 -49.5t-40 -39.5q-5 -3 -12.5 -4t-18.5 -1z" />
    <glyph glyph-name="aring" unicode="&#xe5;" horiz-adv-x="579" 
d="M33 0zM109 3q-3 -2 -7.5 -3t-10.5 -1t-13 1t-9 3q-35 26 -36 99.5t30 151.5q29 71 91 132t138 97q30 14 57 21.5t48 7.5q43 0 70.5 -15.5t65.5 -57.5q13 11 34.5 31.5t35.5 36.5q5 5 7 4.5t2 -6.5q-75 -94 -151 -227.5t-73 -184.5q1 -13 11.5 -25.5t24.5 -16.5
q25 11 60 36t60 52l6 -7q-49 -48 -86.5 -78.5t-71.5 -50.5q-3 -1 -9 -2t-14 -1q-11 0 -21.5 1.5t-11.5 2.5q-13 15 -22 38t-10 42q-1 20 7.5 46t28.5 59q12 19 33.5 51t28.5 43q-42 -45 -94 -96.5t-104 -99.5q-37 -34 -58 -52t-37 -32zM137 267q-23 -72 -24.5 -131t19.5 -83
q9 2 24.5 12.5t37.5 28.5q58 48 140 132t145 160q-44 56 -75.5 79t-64.5 23q-10 0 -20.5 -2.5t-22.5 -8.5q-48 -22 -92 -80.5t-67 -129.5zM448 556q-39 0 -66 26.5t-27 65.5t27.5 66.5t65.5 27.5q39 0 66.5 -27.5t27.5 -66.5q0 -38 -27.5 -65t-66.5 -27zM448 729
q-33 0 -55.5 -23.5t-22.5 -57.5q0 -33 22.5 -56t55.5 -23t56 23t23 56q0 34 -23 57.5t-56 23.5z" />
    <glyph glyph-name="ae" unicode="&#xe6;" horiz-adv-x="784" 
d="M69 3q-35 26 -36 99.5t30 151.5q29 71 91 132t138 97q30 14 57 21.5t48 7.5q42 0 68.5 -14.5t61.5 -51.5q9 8 20 15t27 17q32 17 64 26.5t60 9.5q43 0 66.5 -15t23.5 -41q0 -37 -49 -84.5t-157 -116.5q-32 -20 -70.5 -43.5t-86.5 -50.5q-1 -12 -1.5 -25t0.5 -27
q10 -35 29.5 -52t50.5 -17q20 0 46 6.5t48 16.5q21 10 58 42t59 59l9 -5q-30 -36 -70 -69.5t-79 -54.5q-42 -23 -72 -33t-57 -10q-29 0 -58 23.5t-39 55.5q-12 44 -5 88t32 96q-34 -36 -77 -78.5t-95 -91.5q-23 -21 -47.5 -42.5t-47.5 -41.5q-3 -2 -7.5 -3t-10.5 -1t-13 1
t-9 3zM194 94q68 56 147.5 142t128.5 159q-39 50 -68.5 71.5t-62.5 21.5q-10 0 -20.5 -2.5t-22.5 -8.5q-48 -22 -92 -80.5t-67 -129.5q-23 -72 -24.5 -131t19.5 -83q9 2 24.5 12.5t37.5 28.5zM593 479q-22 -15 -51.5 -55t-58.5 -94q-22 -40 -36.5 -80t-20.5 -77q26 15 52 31
t98 61q65 42 94.5 68.5t37.5 49.5q2 5 3 10.5t1 11.5q1 31 -27.5 54.5t-65.5 23.5q-7 0 -13.5 -1t-12.5 -3z" />
    <glyph glyph-name="ccedilla" unicode="&#xe7;" horiz-adv-x="493" 
d="M161 -6h-3h-3q-36 0 -67 21t-42 55q-17 62 -5.5 115t48.5 115q27 49 83 98t127 88q30 16 59 23.5t62 7.5q44 0 69 -17.5t25 -46.5q0 -21 -18 -38t-40 -20q-11 45 -38.5 68t-69.5 23q-13 0 -22.5 -1.5t-21.5 -4.5q-36 -25 -68 -60t-57 -77q-34 -56 -49 -115.5t-10 -116.5
q7 -26 23 -43t39 -23q22 -6 55 -1t63 19q24 11 59 39t56 54l9 -5q-28 -34 -63 -62t-79 -52q-38 -21 -61.5 -30t-44.5 -12q-27 -26 -41.5 -41t-29.5 -32q-1 -2 0.5 -2.5t4.5 -0.5q60 2 89.5 -22t20.5 -67q-9 -40 -54.5 -71t-97.5 -31q-31 0 -49.5 9t-18.5 23q0 12 19 21t36 9
q9 0 15.5 -3.5t14.5 -14.5q10 -12 17.5 -16t18.5 -4q21 0 40.5 14.5t23.5 33.5q7 36 -25.5 56.5t-93.5 12.5q-5 -1 -9 -3.5t-9 -8.5q-5 -5 -7.5 -6.5t-5.5 -1.5q-9 0 -7.5 5.5t13.5 17.5q51 51 78 78.5t42 43.5z" />
    <glyph glyph-name="egrave" unicode="&#xe8;" horiz-adv-x="486" 
d="M33 0zM271 37q-42 -23 -72 -33t-57 -10q-30 0 -60.5 23.5t-40.5 55.5q-15 50 -2 104.5t52 122.5q28 48 80 98t105 80q32 17 64 26.5t60 9.5q43 0 66.5 -15t23.5 -41q0 -37 -49 -84.5t-157 -116.5q-64 -39 -99 -60t-68 -40q-1 -11 -1.5 -22t0.5 -24q10 -35 30.5 -52
t53.5 -17q20 0 46 6.5t48 16.5q23 11 62.5 42.5t60.5 58.5l9 -5q-28 -34 -69.5 -67t-85.5 -57zM295 479q-27 -18 -60.5 -59t-59.5 -90q-23 -41 -37.5 -82.5t-19.5 -80.5q47 28 87 52.5t73 45.5q63 41 93 68t39 50q2 5 3 10.5t1 11.5q0 31 -28 54.5t-65 23.5q-7 0 -13.5 -1
t-12.5 -3zM407 560q-1 0 -2 0.5t-2 1.5q-17 21 -39 42.5t-58 50.5q-12 9 -15.5 12.5l-5.5 5.5q-5 4 -9.5 16t-3.5 19q2 6 10 12t15 6q6 0 13.5 -5.5t16.5 -17.5q1 -2 3.5 -6t8.5 -17q21 -42 37 -67.5t33 -45.5q1 -1 1 -1.5v-1.5q0 -2 -1 -3t-2 -1z" />
    <glyph glyph-name="eacute" unicode="&#xe9;" horiz-adv-x="486" 
d="M33 0zM271 37q-42 -23 -72 -33t-57 -10q-30 0 -60.5 23.5t-40.5 55.5q-15 50 -2 104.5t52 122.5q28 48 80 98t105 80q32 17 64 26.5t60 9.5q43 0 66.5 -15t23.5 -41q0 -37 -49 -84.5t-157 -116.5q-64 -39 -99 -60t-68 -40q-1 -11 -1.5 -22t0.5 -24q10 -35 30.5 -52
t53.5 -17q20 0 46 6.5t48 16.5q23 11 62.5 42.5t60.5 58.5l9 -5q-28 -34 -69.5 -67t-85.5 -57zM295 479q-27 -18 -60.5 -59t-59.5 -90q-23 -41 -37.5 -82.5t-19.5 -80.5q47 28 87 52.5t73 45.5q63 41 93 68t39 50q2 5 3 10.5t1 11.5q0 31 -28 54.5t-65 23.5q-7 0 -13.5 -1
t-12.5 -3zM469 719q9 7 16.5 10t14.5 3q8 0 15.5 -9t5.5 -15q-1 -6 -5 -14t-9 -11q-3 -2 -8.5 -6t-23.5 -15q-51 -32 -82.5 -54t-57.5 -43q-1 -1 -1.5 -1h-1.5q-2 0 -3.5 2t-1.5 4q0 1 0.5 1.5l1.5 1.5q28 23 58 53.5t69 77.5q7 9 9.5 11.5z" />
    <glyph glyph-name="ecircumflex" unicode="&#xea;" horiz-adv-x="486" 
d="M33 0zM271 37q-42 -23 -72 -33t-57 -10q-30 0 -60.5 23.5t-40.5 55.5q-15 50 -2 104.5t52 122.5q28 48 80 98t105 80q32 17 64 26.5t60 9.5q43 0 66.5 -15t23.5 -41q0 -37 -49 -84.5t-157 -116.5q-64 -39 -99 -60t-68 -40q-1 -11 -1.5 -22t0.5 -24q10 -35 30.5 -52
t53.5 -17q20 0 46 6.5t48 16.5q23 11 62.5 42.5t60.5 58.5l9 -5q-28 -34 -69.5 -67t-85.5 -57zM295 479q-27 -18 -60.5 -59t-59.5 -90q-23 -41 -37.5 -82.5t-19.5 -80.5q47 28 87 52.5t73 45.5q63 41 93 68t39 50q2 5 3 10.5t1 11.5q0 31 -28 54.5t-65 23.5q-7 0 -13.5 -1
t-12.5 -3zM559 560q0 -8 -6 -12t-18 -4q-20 0 -29.5 6t-9.5 19q0 50 -4.5 78.5t-14.5 46.5q-1 2 -2.5 3t-3.5 0q-35 -20 -62.5 -43.5t-60.5 -63.5q-8 -9 -21 -14t-30 -5q-11 0 -17 4t-6 11q0 20 57 53t139 63q4 2 7 1t6 -5q32 -39 54 -78.5t22 -59.5z" />
    <glyph glyph-name="edieresis" unicode="&#xeb;" horiz-adv-x="486" 
d="M33 0zM271 37q-42 -23 -72 -33t-57 -10q-30 0 -60.5 23.5t-40.5 55.5q-15 50 -2 104.5t52 122.5q28 48 80 98t105 80q32 17 64 26.5t60 9.5q43 0 66.5 -15t23.5 -41q0 -37 -49 -84.5t-157 -116.5q-64 -39 -99 -60t-68 -40q-1 -11 -1.5 -22t0.5 -24q10 -35 30.5 -52
t53.5 -17q20 0 46 6.5t48 16.5q23 11 62.5 42.5t60.5 58.5l9 -5q-28 -34 -69.5 -67t-85.5 -57zM295 479q-27 -18 -60.5 -59t-59.5 -90q-23 -41 -37.5 -82.5t-19.5 -80.5q47 28 87 52.5t73 45.5q63 41 93 68t39 50q2 5 3 10.5t1 11.5q0 31 -28 54.5t-65 23.5q-7 0 -13.5 -1
t-12.5 -3zM485 597q-16 0 -20.5 1.5t-8.5 5.5q-7 12 9.5 47t32.5 43q4 3 15.5 4.5t24.5 1.5q12 0 24.5 -3t14.5 -6q2 -19 -21 -49.5t-40 -39.5q-5 -3 -12.5 -4t-18.5 -1zM299 597q-16 0 -20.5 1.5t-8.5 5.5q-7 12 9.5 47t32.5 43q4 3 15.5 4.5t24.5 1.5q12 0 24.5 -3
t14.5 -6q2 -19 -21 -49.5t-40 -39.5q-5 -3 -12.5 -4t-18.5 -1z" />
    <glyph glyph-name="igrave" unicode="&#xec;" horiz-adv-x="309" 
d="M22 0zM118 3q-2 -2 -7 -2.5t-17 -0.5q-10 0 -19.5 1t-11.5 3q-17 13 -28.5 34.5t-12.5 39.5q-1 14 8 37.5t29 58.5q11 19 30 50t24 39q15 25 52 81.5t43 78.5q3 13 -7 27t-23 17q-18 -6 -57 -32.5t-67 -51.5l-7 5q27 26 77 64t88 61q8 5 17 5.5t16 -2.5q16 -8 32 -37
t16 -49q0 -26 -51.5 -100.5t-56.5 -82.5q-5 -9 -22.5 -36t-25.5 -42q-18 -30 -26 -50t-7 -34q1 -11 13 -21.5t30 -15.5q23 8 57 32.5t63 54.5l6 -7q-45 -44 -82.5 -74t-72.5 -51zM337 558q-1 0 -2 0.5t-2 1.5q-17 21 -39 42.5t-58 50.5q-12 9 -15.5 12.5l-5.5 5.5
q-5 4 -9.5 16t-3.5 19q2 6 10 12t15 6q6 0 13.5 -5.5t16.5 -17.5q1 -2 3.5 -6t8.5 -17q21 -42 37 -67.5t33 -45.5q1 -1 1 -1.5v-1.5q0 -2 -1 -3t-2 -1z" />
    <glyph glyph-name="iacute" unicode="&#xed;" horiz-adv-x="309" 
d="M22 0zM118 3q-2 -2 -7 -2.5t-17 -0.5q-10 0 -19.5 1t-11.5 3q-17 13 -28.5 34.5t-12.5 39.5q-1 14 8 37.5t29 58.5q11 19 30 50t24 39q15 25 52 81.5t43 78.5q3 13 -7 27t-23 17q-18 -6 -57 -32.5t-67 -51.5l-7 5q27 26 77 64t88 61q8 5 17 5.5t16 -2.5q16 -8 32 -37
t16 -49q0 -26 -51.5 -100.5t-56.5 -82.5q-5 -9 -22.5 -36t-25.5 -42q-18 -30 -26 -50t-7 -34q1 -11 13 -21.5t30 -15.5q23 8 57 32.5t63 54.5l6 -7q-45 -44 -82.5 -74t-72.5 -51zM389 711q9 7 16.5 10t14.5 3q8 0 15.5 -9t5.5 -15q-1 -6 -5 -14t-9 -11q-3 -2 -8.5 -6
t-23.5 -15q-51 -32 -82.5 -54t-57.5 -43q-1 -1 -1.5 -1h-1.5q-2 0 -3.5 2t-1.5 4q0 1 0.5 1.5l1.5 1.5q28 23 58 53.5t69 77.5q7 9 9.5 11.5z" />
    <glyph glyph-name="icircumflex" unicode="&#xee;" horiz-adv-x="309" 
d="M22 0zM118 3q-2 -2 -7 -2.5t-17 -0.5q-10 0 -19.5 1t-11.5 3q-17 13 -28.5 34.5t-12.5 39.5q-1 14 8 37.5t29 58.5q11 19 30 50t24 39q15 25 52 81.5t43 78.5q3 13 -7 27t-23 17q-18 -6 -57 -32.5t-67 -51.5l-7 5q27 26 77 64t88 61q8 5 17 5.5t16 -2.5q16 -8 32 -37
t16 -49q0 -26 -51.5 -100.5t-56.5 -82.5q-5 -9 -22.5 -36t-25.5 -42q-18 -30 -26 -50t-7 -34q1 -11 13 -21.5t30 -15.5q23 8 57 32.5t63 54.5l6 -7q-45 -44 -82.5 -74t-72.5 -51zM462 565q0 -8 -6 -12t-18 -4q-20 0 -29.5 6t-9.5 19q0 50 -4.5 78.5t-14.5 46.5q-1 2 -2.5 3
t-3.5 0q-35 -20 -62.5 -43.5t-60.5 -63.5q-8 -9 -21 -14t-30 -5q-11 0 -17 4t-6 11q0 20 57 53t139 63q4 2 7 1t6 -5q32 -39 54 -78.5t22 -59.5z" />
    <glyph glyph-name="idieresis" unicode="&#xef;" horiz-adv-x="309" 
d="M22 0zM118 3q-2 -2 -7 -2.5t-17 -0.5q-10 0 -19.5 1t-11.5 3q-17 13 -28.5 34.5t-12.5 39.5q-1 14 8 37.5t29 58.5q11 19 30 50t24 39q15 25 52 81.5t43 78.5q3 13 -7 27t-23 17q-18 -6 -57 -32.5t-67 -51.5l-7 5q27 26 77 64t88 61q8 5 17 5.5t16 -2.5q16 -8 32 -37
t16 -49q0 -26 -51.5 -100.5t-56.5 -82.5q-5 -9 -22.5 -36t-25.5 -42q-18 -30 -26 -50t-7 -34q1 -11 13 -21.5t30 -15.5q23 8 57 32.5t63 54.5l6 -7q-45 -44 -82.5 -74t-72.5 -51zM404 597q-16 0 -20.5 1.5t-8.5 5.5q-7 12 9.5 47t32.5 43q4 3 15.5 4.5t24.5 1.5
q12 0 24.5 -3t14.5 -6q2 -19 -21 -49.5t-40 -39.5q-5 -3 -12.5 -4t-18.5 -1zM218 597q-16 0 -20.5 1.5t-8.5 5.5q-7 12 9.5 47t32.5 43q4 3 15.5 4.5t24.5 1.5q12 0 24.5 -3t14.5 -6q2 -19 -21 -49.5t-40 -39.5q-5 -3 -12.5 -4t-18.5 -1z" />
    <glyph glyph-name="eth" unicode="&#xf0;" horiz-adv-x="534" 
d="M260 34q-44 -25 -66.5 -32.5t-42.5 -7.5q-36 0 -68.5 23t-43.5 56q-14 53 -1.5 107t51.5 120q28 49 81 100.5t105 80.5q30 16 61 26t51 10q28 0 46.5 -10.5t29.5 -31.5q10 71 7.5 131t-18.5 107q-16 -8 -34.5 -18t-52.5 -29q-22 -13 -32.5 -18.5t-18.5 -9.5q-7 2 -10.5 9
t-0.5 13q40 15 79 31t68 29q-18 52 -52.5 88t-85.5 56q-4 2 -0.5 6.5t7.5 2.5q49 -23 88 -59t68 -83q15 8 33 17.5t51 27.5q22 12 32 17.5t18 9.5q7 -1 11 -8.5t0 -13.5q-63 -24 -91.5 -35.5t-49.5 -21.5q28 -50 43 -107t15 -113q0 -147 -78.5 -276t-198.5 -194zM114 111
q8 -28 22.5 -44t35.5 -22q22 -6 51.5 -2t62.5 17q36 18 88 132.5t71 201.5q-5 30 -25 51t-55 33q-17 6 -38.5 5.5t-41.5 -6.5q-28 -18 -63 -64t-62 -101q-26 -54 -38 -105.5t-8 -95.5z" />
    <glyph glyph-name="ntilde" unicode="&#xf1;" horiz-adv-x="620" 
d="M0 0zM154 156q-14 -21 -31 -48.5t-63 -103.5q-14 -1 -19.5 -1.5t-10.5 -0.5q-24 0 -31 10.5t1 32.5q76 104 132 212t53 156q-1 15 -9.5 26.5t-22.5 15.5q-23 -6 -55.5 -28.5t-60.5 -52.5l-7 7q39 38 81.5 71t79.5 54q5 2 9.5 3.5t7.5 1.5q21 0 37.5 -31t18.5 -66
q2 -27 -16 -72.5t-69 -133.5q81 102 191.5 195.5t166.5 109.5q51 -11 40 -75t-84 -186q-7 -12 -22 -38.5t-23 -39.5q-17 -31 -24 -50.5t-6 -33.5q1 -15 8.5 -25.5t20.5 -14.5q24 8 59 32.5t62 52.5l6 -7q-45 -44 -82.5 -74t-72.5 -51q-4 -2 -7.5 -2.5t-12.5 -0.5
q-8 0 -15.5 1t-9.5 3q-16 12 -26.5 35.5t-11.5 43.5q-1 14 8 37t29 58q9 17 27.5 47t25.5 42q51 88 65 131t-8 64q-55 -17 -155 -107.5t-174 -198.5zM262 580q-2 -3 -6.5 -0.5t-0.5 6.5q33 45 63.5 67.5t57.5 22.5q11 0 27 -3t52 -12q34 -8 48.5 -10.5t23.5 -2.5
q19 0 32.5 16t30.5 57q2 5 6.5 3.5t2.5 -7.5q-23 -54 -56 -88t-62 -34q-14 0 -33 3.5t-59 13.5q-32 8 -45 10.5t-22 2.5q-17 0 -29.5 -9.5t-30.5 -35.5z" />
    <glyph glyph-name="ograve" unicode="&#xf2;" horiz-adv-x="532" 
d="M31 0zM259 34q-46 -26 -67.5 -33t-40.5 -7q-36 0 -69 23t-43 56q-14 50 -2 104.5t52 122.5q28 49 81 100.5t105 80.5q33 18 63 27t56 9q33 0 62.5 -23t40.5 -57q13 -40 -1 -104t-54 -133q-27 -46 -75 -89.5t-108 -76.5zM114 111q10 -35 31.5 -52.5t55.5 -17.5
q17 0 38.5 5t46.5 14q16 8 35 33t38 63q31 58 49 123t15 111q-3 47 -28.5 71t-72.5 24q-8 0 -16 -1t-15 -3q-21 -13 -47 -43t-50 -68q-42 -68 -63.5 -135.5t-16.5 -123.5zM407 558q-1 0 -2 0.5t-2 1.5q-17 21 -39 42.5t-58 50.5q-12 9 -15.5 12.5l-5.5 5.5q-5 4 -9.5 16
t-3.5 19q2 6 10 12t15 6q6 0 13.5 -5.5t16.5 -17.5q1 -2 3.5 -6t8.5 -17q21 -42 37 -67.5t33 -45.5q1 -1 1 -1.5v-1.5q0 -2 -1 -3t-2 -1z" />
    <glyph glyph-name="oacute" unicode="&#xf3;" horiz-adv-x="532" 
d="M31 0zM259 34q-46 -26 -67.5 -33t-40.5 -7q-36 0 -69 23t-43 56q-14 50 -2 104.5t52 122.5q28 49 81 100.5t105 80.5q33 18 63 27t56 9q33 0 62.5 -23t40.5 -57q13 -40 -1 -104t-54 -133q-27 -46 -75 -89.5t-108 -76.5zM114 111q10 -35 31.5 -52.5t55.5 -17.5
q17 0 38.5 5t46.5 14q16 8 35 33t38 63q31 58 49 123t15 111q-3 47 -28.5 71t-72.5 24q-8 0 -16 -1t-15 -3q-21 -13 -47 -43t-50 -68q-42 -68 -63.5 -135.5t-16.5 -123.5zM459 711q9 7 16.5 10t14.5 3q8 0 15.5 -9t5.5 -15q-1 -6 -5 -14t-9 -11q-3 -2 -8.5 -6t-23.5 -15
q-51 -32 -82.5 -54t-57.5 -43q-1 -1 -1.5 -1h-1.5q-2 0 -3.5 2t-1.5 4q0 1 0.5 1.5l1.5 1.5q28 23 58 53.5t69 77.5q7 9 9.5 11.5z" />
    <glyph glyph-name="ocircumflex" unicode="&#xf4;" horiz-adv-x="532" 
d="M31 0zM259 34q-46 -26 -67.5 -33t-40.5 -7q-36 0 -69 23t-43 56q-14 50 -2 104.5t52 122.5q28 49 81 100.5t105 80.5q33 18 63 27t56 9q33 0 62.5 -23t40.5 -57q13 -40 -1 -104t-54 -133q-27 -46 -75 -89.5t-108 -76.5zM114 111q10 -35 31.5 -52.5t55.5 -17.5
q17 0 38.5 5t46.5 14q16 8 35 33t38 63q31 58 49 123t15 111q-3 47 -28.5 71t-72.5 24q-8 0 -16 -1t-15 -3q-21 -13 -47 -43t-50 -68q-42 -68 -63.5 -135.5t-16.5 -123.5zM532 565q0 -8 -6 -12t-18 -4q-20 0 -29.5 6t-9.5 19q0 50 -4.5 78.5t-14.5 46.5q-1 2 -2.5 3t-3.5 0
q-35 -20 -62.5 -43.5t-60.5 -63.5q-8 -9 -21 -14t-30 -5q-11 0 -17 4t-6 11q0 20 57 53t139 63q4 2 7 1t6 -5q32 -39 54 -78.5t22 -59.5z" />
    <glyph glyph-name="otilde" unicode="&#xf5;" horiz-adv-x="532" 
d="M31 0zM259 34q-46 -26 -67.5 -33t-40.5 -7q-36 0 -69 23t-43 56q-14 50 -2 104.5t52 122.5q28 49 81 100.5t105 80.5q33 18 63 27t56 9q33 0 62.5 -23t40.5 -57q13 -40 -1 -104t-54 -133q-27 -46 -75 -89.5t-108 -76.5zM114 111q10 -35 31.5 -52.5t55.5 -17.5
q17 0 38.5 5t46.5 14q16 8 35 33t38 63q31 58 49 123t15 111q-3 47 -28.5 71t-72.5 24q-8 0 -16 -1t-15 -3q-21 -13 -47 -43t-50 -68q-42 -68 -63.5 -135.5t-16.5 -123.5zM221 580q-2 -3 -6.5 -0.5t-0.5 6.5q33 45 63.5 67.5t57.5 22.5q11 0 27 -3t52 -12q34 -8 48.5 -10.5
t23.5 -2.5q19 0 32.5 16t30.5 57q2 5 6.5 3.5t2.5 -7.5q-23 -54 -56 -88t-62 -34q-14 0 -33 3.5t-59 13.5q-32 8 -45 10.5t-22 2.5q-17 0 -29.5 -9.5t-30.5 -35.5z" />
    <glyph glyph-name="odieresis" unicode="&#xf6;" horiz-adv-x="532" 
d="M31 0zM259 34q-46 -26 -67.5 -33t-40.5 -7q-36 0 -69 23t-43 56q-14 50 -2 104.5t52 122.5q28 49 81 100.5t105 80.5q33 18 63 27t56 9q33 0 62.5 -23t40.5 -57q13 -40 -1 -104t-54 -133q-27 -46 -75 -89.5t-108 -76.5zM114 111q10 -35 31.5 -52.5t55.5 -17.5
q17 0 38.5 5t46.5 14q16 8 35 33t38 63q31 58 49 123t15 111q-3 47 -28.5 71t-72.5 24q-8 0 -16 -1t-15 -3q-21 -13 -47 -43t-50 -68q-42 -68 -63.5 -135.5t-16.5 -123.5zM474 597q-16 0 -20.5 1.5t-8.5 5.5q-7 12 9.5 47t32.5 43q4 3 15.5 4.5t24.5 1.5q12 0 24.5 -3
t14.5 -6q2 -19 -21 -49.5t-40 -39.5q-5 -3 -12.5 -4t-18.5 -1zM288 597q-16 0 -20.5 1.5t-8.5 5.5q-7 12 9.5 47t32.5 43q4 3 15.5 4.5t24.5 1.5q12 0 24.5 -3t14.5 -6q2 -19 -21 -49.5t-40 -39.5q-5 -3 -12.5 -4t-18.5 -1z" />
    <glyph glyph-name="divide" unicode="&#xf7;" horiz-adv-x="558" 
d="M350 473q0 -15 -11.5 -26.5t-26.5 -11.5q-16 0 -27 11t-11 27t11 27t27 11q15 0 26.5 -11.5t11.5 -26.5zM309 341q38 0 70.5 1t100.5 5q5 -4 5 -12.5t-5 -11.5q-65 5 -97 6t-73 1t-73 -1t-97 -6q-5 3 -5 11.5t5 12.5q69 -4 100.5 -5t68.5 -1zM350 199q0 -15 -11.5 -26.5
t-26.5 -11.5q-16 0 -27 11t-11 27t11 27t27 11q15 0 26.5 -11.5t11.5 -26.5z" />
    <glyph glyph-name="oslash" unicode="&#xf8;" horiz-adv-x="532" 
d="M52 47q-18 -17 -35.5 -33.5t-35.5 -34.5q-11 -4 -20 -1.5t-11 10.5q39 34 57.5 50t33.5 29q0 1 -0.5 1.5t-0.5 1.5t-0.5 1.5t-0.5 1.5q-14 50 -2 104.5t52 122.5q28 49 81 100.5t105 80.5q33 18 63 27t56 9q25 0 49 -14t40 -37q13 14 37.5 37t25.5 24q10 2 17.5 -1
t9.5 -10q-9 -7 -18.5 -15.5t-28.5 -24.5q-14 -12 -20.5 -17.5t-12.5 -10.5q1 -3 2 -5.5t2 -5.5q11 -44 -3 -107.5t-52 -129.5q-27 -46 -75 -89.5t-108 -76.5q-46 -26 -67.5 -33t-40.5 -7q-28 0 -55 14.5t-44 38.5zM291 481q-21 -13 -47 -43t-50 -68q-42 -67 -62.5 -132
t-17.5 -119q58 54 94 88t50 47q23 22 46.5 45t65.5 65q21 20 31 30.5t19 18.5q-8 36 -32.5 54t-65.5 18q-8 0 -16 -1t-15 -3zM118 99q11 -29 31.5 -43.5t51.5 -14.5q17 0 38.5 5t46.5 14q16 8 35 33t38 63q31 58 49 123t15 111v3q-33 -31 -69 -65.5t-86 -82.5
q-45 -43 -97 -94t-53 -52z" />
    <glyph glyph-name="ugrave" unicode="&#xf9;" horiz-adv-x="607" 
d="M18 0zM430 301q-91 -117 -187.5 -206t-144.5 -98q-27 4 -50.5 22t-29.5 44q-3 22 43.5 99t59.5 101q45 81 55 109t9 46q-1 13 -9.5 23t-23.5 14q-23 -6 -56.5 -29t-60.5 -52l-7 7q36 35 80 69t82 56q5 3 9 4t9 1q22 -1 39.5 -32.5t19.5 -64.5q0 -13 -12.5 -41.5
t-64.5 -122.5q-12 -22 -45.5 -79.5t-41.5 -80.5q-1 -15 10 -26t30 -16q38 0 132 92.5t181 215.5q12 17 24.5 38t34.5 61q11 21 15.5 29t8.5 14q15 5 26.5 7t19.5 2q21 0 26.5 -10t-2.5 -31q-23 -33 -53 -80.5t-57 -93.5q-42 -73 -65 -124.5t-25 -77.5q-1 -12 11 -23.5
t29 -16.5q24 8 59 32.5t62 52.5l6 -7q-45 -44 -82.5 -74t-72.5 -51q-3 -1 -9 -2t-14 -1q-10 0 -20.5 1t-12.5 3q-15 11 -25.5 33.5t-12.5 45.5q-2 18 14.5 56t88.5 162zM453 558q-1 0 -2 0.5t-2 1.5q-17 21 -39 42.5t-58 50.5q-12 9 -15.5 12.5l-5.5 5.5q-5 4 -9.5 16
t-3.5 19q2 6 10 12t15 6q6 0 13.5 -5.5t16.5 -17.5q1 -2 3.5 -6t8.5 -17q21 -42 37 -67.5t33 -45.5q1 -1 1 -1.5v-1.5q0 -2 -1 -3t-2 -1z" />
    <glyph glyph-name="uacute" unicode="&#xfa;" horiz-adv-x="607" 
d="M18 0zM430 301q-91 -117 -187.5 -206t-144.5 -98q-27 4 -50.5 22t-29.5 44q-3 22 43.5 99t59.5 101q45 81 55 109t9 46q-1 13 -9.5 23t-23.5 14q-23 -6 -56.5 -29t-60.5 -52l-7 7q36 35 80 69t82 56q5 3 9 4t9 1q22 -1 39.5 -32.5t19.5 -64.5q0 -13 -12.5 -41.5
t-64.5 -122.5q-12 -22 -45.5 -79.5t-41.5 -80.5q-1 -15 10 -26t30 -16q38 0 132 92.5t181 215.5q12 17 24.5 38t34.5 61q11 21 15.5 29t8.5 14q15 5 26.5 7t19.5 2q21 0 26.5 -10t-2.5 -31q-23 -33 -53 -80.5t-57 -93.5q-42 -73 -65 -124.5t-25 -77.5q-1 -12 11 -23.5
t29 -16.5q24 8 59 32.5t62 52.5l6 -7q-45 -44 -82.5 -74t-72.5 -51q-3 -1 -9 -2t-14 -1q-10 0 -20.5 1t-12.5 3q-15 11 -25.5 33.5t-12.5 45.5q-2 18 14.5 56t88.5 162zM505 711q9 7 16.5 10t14.5 3q8 0 15.5 -9t5.5 -15q-1 -6 -5 -14t-9 -11q-3 -2 -8.5 -6t-23.5 -15
q-51 -32 -82.5 -54t-57.5 -43q-1 -1 -1.5 -1h-1.5q-2 0 -3.5 2t-1.5 4q0 1 0.5 1.5l1.5 1.5q28 23 58 53.5t69 77.5q7 9 9.5 11.5z" />
    <glyph glyph-name="ucircumflex" unicode="&#xfb;" horiz-adv-x="607" 
d="M18 0zM430 301q-91 -117 -187.5 -206t-144.5 -98q-27 4 -50.5 22t-29.5 44q-3 22 43.5 99t59.5 101q45 81 55 109t9 46q-1 13 -9.5 23t-23.5 14q-23 -6 -56.5 -29t-60.5 -52l-7 7q36 35 80 69t82 56q5 3 9 4t9 1q22 -1 39.5 -32.5t19.5 -64.5q0 -13 -12.5 -41.5
t-64.5 -122.5q-12 -22 -45.5 -79.5t-41.5 -80.5q-1 -15 10 -26t30 -16q38 0 132 92.5t181 215.5q12 17 24.5 38t34.5 61q11 21 15.5 29t8.5 14q15 5 26.5 7t19.5 2q21 0 26.5 -10t-2.5 -31q-23 -33 -53 -80.5t-57 -93.5q-42 -73 -65 -124.5t-25 -77.5q-1 -12 11 -23.5
t29 -16.5q24 8 59 32.5t62 52.5l6 -7q-45 -44 -82.5 -74t-72.5 -51q-3 -1 -9 -2t-14 -1q-10 0 -20.5 1t-12.5 3q-15 11 -25.5 33.5t-12.5 45.5q-2 18 14.5 56t88.5 162zM578 565q0 -8 -6 -12t-18 -4q-20 0 -29.5 6t-9.5 19q0 50 -4.5 78.5t-14.5 46.5q-1 2 -2.5 3t-3.5 0
q-35 -20 -62.5 -43.5t-60.5 -63.5q-8 -9 -21 -14t-30 -5q-11 0 -17 4t-6 11q0 20 57 53t139 63q4 2 7 1t6 -5q32 -39 54 -78.5t22 -59.5z" />
    <glyph glyph-name="udieresis" unicode="&#xfc;" horiz-adv-x="607" 
d="M18 0zM430 301q-91 -117 -187.5 -206t-144.5 -98q-27 4 -50.5 22t-29.5 44q-3 22 43.5 99t59.5 101q45 81 55 109t9 46q-1 13 -9.5 23t-23.5 14q-23 -6 -56.5 -29t-60.5 -52l-7 7q36 35 80 69t82 56q5 3 9 4t9 1q22 -1 39.5 -32.5t19.5 -64.5q0 -13 -12.5 -41.5
t-64.5 -122.5q-12 -22 -45.5 -79.5t-41.5 -80.5q-1 -15 10 -26t30 -16q38 0 132 92.5t181 215.5q12 17 24.5 38t34.5 61q11 21 15.5 29t8.5 14q15 5 26.5 7t19.5 2q21 0 26.5 -10t-2.5 -31q-23 -33 -53 -80.5t-57 -93.5q-42 -73 -65 -124.5t-25 -77.5q-1 -12 11 -23.5
t29 -16.5q24 8 59 32.5t62 52.5l6 -7q-45 -44 -82.5 -74t-72.5 -51q-3 -1 -9 -2t-14 -1q-10 0 -20.5 1t-12.5 3q-15 11 -25.5 33.5t-12.5 45.5q-2 18 14.5 56t88.5 162zM520 597q-16 0 -20.5 1.5t-8.5 5.5q-7 12 9.5 47t32.5 43q4 3 15.5 4.5t24.5 1.5q12 0 24.5 -3t14.5 -6
q2 -19 -21 -49.5t-40 -39.5q-5 -3 -12.5 -4t-18.5 -1zM334 597q-16 0 -20.5 1.5t-8.5 5.5q-7 12 9.5 47t32.5 43q4 3 15.5 4.5t24.5 1.5q12 0 24.5 -3t14.5 -6q2 -19 -21 -49.5t-40 -39.5q-5 -3 -12.5 -4t-18.5 -1z" />
    <glyph glyph-name="yacute" unicode="&#xfd;" horiz-adv-x="575" 
d="M0 0zM62 -122q-88 -80 -181.5 -122t-186.5 -42q-13 0 -23 3t-14 9q-2 2 -2.5 4t-0.5 7q0 11 12 27.5t27 27.5h111q82 0 140 20.5t112 70.5q29 26 41.5 37.5t23.5 24.5q31 57 48.5 173.5t17.5 234.5q0 39 -5 62t-15 36q-5 6 -12 8.5t-17 1.5q-13 -6 -43 -26.5t-52 -39.5
l-6 6q30 27 70 56.5t73 48.5q5 3 11 4.5t11 1.5q8 0 16.5 -4t14.5 -10q16 -17 23.5 -49.5t7.5 -83.5q0 -81 -12.5 -177.5t-31.5 -144.5l105 110q109 112 147.5 163.5t40.5 80.5q-1 22 -12 38t-29 23q-18 -6 -42 -22t-55 -43l-6 6q19 19 57 48t69 47q11 7 21 12t17 7
q17 4 34.5 -19.5t10.5 -49.5q-18 -39 -64.5 -97t-181.5 -200q-62 -65 -101 -105t-55 -56q-45 -44 -68.5 -66t-45.5 -42zM469 711q9 7 16.5 10t14.5 3q8 0 15.5 -9t5.5 -15q-1 -6 -5 -14t-9 -11q-3 -2 -8.5 -6t-23.5 -15q-51 -32 -82.5 -54t-57.5 -43q-1 -1 -1.5 -1h-1.5
q-2 0 -3.5 2t-1.5 4q0 1 0.5 1.5l1.5 1.5q28 23 58 53.5t69 77.5q7 9 9.5 11.5z" />
    <glyph glyph-name="thorn" unicode="&#xfe;" horiz-adv-x="591" 
d="M-178 -223q25 24 59.5 76.5t107.5 181.5q32 56 69.5 124t109.5 198q73 133 99 179t38 66q38 61 101.5 117.5t143.5 99.5q75 40 132 56.5t111 16.5q23 0 46.5 -1.5t35.5 -3.5q5 -1 8 -4t3 -7q0 -18 -15.5 -38.5t-29.5 -20.5q-8 0 -20 1t-42 5q-46 7 -70.5 9t-45.5 2
q-39 0 -63.5 -5.5t-45.5 -17.5q-37 -22 -77 -71.5t-96 -143.5q-20 -34 -43 -74t-68 -121q-52 -92 -77.5 -135.5t-46.5 -78.5q47 54 97 107t95 97q62 60 106.5 92t66.5 33q17 -3 34 -25t24 -49q10 -38 -2 -92t-39 -102q-31 -56 -82.5 -106.5t-122.5 -94.5q-57 -31 -87 -41.5
t-58 -10.5q-24 0 -48 19t-47 57q-21 -34 -62 -105t-77 -136q-12 -22 -23 -41t-20 -34q6 -7 47.5 -13.5t69.5 -6.5q8 0 7.5 -4.5t-11.5 -4.5q-5 0 -17 0.5t-43 1.5q-40 2 -56.5 2.5t-25.5 0.5t-33 -1t-84 -4q-40 -3 -53.5 -3.5t-17.5 -0.5q-7 0 -6.5 3.5t6.5 4.5
q61 6 88 15.5t50 31.5zM457 466q-10 -1 -38.5 -22t-72.5 -61q-66 -60 -128 -127.5t-98 -119.5q35 -57 63 -78.5t64 -21.5q21 0 36.5 4t36.5 15q54 45 80.5 80.5t47.5 82.5q27 59 37.5 114.5t2.5 89.5q-4 18 -10.5 27.5t-20.5 16.5z" />
    <glyph glyph-name="ydieresis" unicode="&#xff;" horiz-adv-x="575" 
d="M0 0zM62 -122q-88 -80 -181.5 -122t-186.5 -42q-13 0 -23 3t-14 9q-2 2 -2.5 4t-0.5 7q0 11 12 27.5t27 27.5h111q82 0 140 20.5t112 70.5q29 26 41.5 37.5t23.5 24.5q31 57 48.5 173.5t17.5 234.5q0 39 -5 62t-15 36q-5 6 -12 8.5t-17 1.5q-13 -6 -43 -26.5t-52 -39.5
l-6 6q30 27 70 56.5t73 48.5q5 3 11 4.5t11 1.5q8 0 16.5 -4t14.5 -10q16 -17 23.5 -49.5t7.5 -83.5q0 -81 -12.5 -177.5t-31.5 -144.5l105 110q109 112 147.5 163.5t40.5 80.5q-1 22 -12 38t-29 23q-18 -6 -42 -22t-55 -43l-6 6q19 19 57 48t69 47q11 7 21 12t17 7
q17 4 34.5 -19.5t10.5 -49.5q-18 -39 -64.5 -97t-181.5 -200q-62 -65 -101 -105t-55 -56q-45 -44 -68.5 -66t-45.5 -42zM484 597q-16 0 -20.5 1.5t-8.5 5.5q-7 12 9.5 47t32.5 43q4 3 15.5 4.5t24.5 1.5q12 0 24.5 -3t14.5 -6q2 -19 -21 -49.5t-40 -39.5q-5 -3 -12.5 -4
t-18.5 -1zM298 597q-16 0 -20.5 1.5t-8.5 5.5q-7 12 9.5 47t32.5 43q4 3 15.5 4.5t24.5 1.5q12 0 24.5 -3t14.5 -6q2 -19 -21 -49.5t-40 -39.5q-5 -3 -12.5 -4t-18.5 -1z" />
    <glyph glyph-name="Amacron" unicode="&#x100;" horiz-adv-x="1349" 
d="M36 0zM560 176q-139 -154 -196.5 -195t-128.5 -41q-51 0 -93.5 23.5t-70.5 66.5q-30 46 -34.5 98.5t18.5 86.5q28 42 71 78.5t93 60.5q44 22 89 33t90 11q55 0 143 -1t181 -2q90 109 178.5 214.5t146.5 174.5q-56 0 -98 -1.5t-74 -5.5t-66 -9t-89 -14q-33 -6 -43.5 -7.5
t-15.5 -1.5q-7 0 0 10t35 40l15 15t5 6q7 4 45.5 6t117.5 2h182q66 0 135 1t171 4q39 1 53 1.5t22 0.5q12 0 20 -1t12 -2q0 -12 -13.5 -32.5t-29.5 -30.5q-10 -3 -46 -1t-132 10q-61 6 -84 7.5t-35 1.5h-7.5h-7.5q-14 -75 -33 -183t-36 -208q38 -1 80 -1h107q32 0 66.5 -0.5
t54.5 -1.5q3 0 4 -1t1 -3t-2.5 -5.5t-7.5 -8.5q-12 -12 -29 -22.5t-26 -11.5q-21 -4 -52.5 -3.5t-35.5 0.5q-30 0 -71.5 1t-97.5 4q-9 -54 -14.5 -86t-6.5 -42q-5 -38 -4.5 -72.5t6.5 -57.5q3 -11 13 -19.5t27 -13.5q23 8 79 48.5t82 67.5l6 -7q-40 -38 -98.5 -85t-95.5 -69
q-7 -4 -25 -3t-22 4q-14 11 -23.5 30t-11.5 40q-5 36 -4.5 66t6.5 65q4 24 13.5 79t10.5 58q-29 1 -63.5 3t-105.5 6q-41 3 -61.5 4t-38.5 2q-13 -16 -76 -93.5t-74 -87.5zM1063 782l-324 -387q97 -1 151 -1.5t98 -0.5q18 95 39.5 206t35.5 183zM141 58q26 -38 65 -59.5
t86 -21.5q37 0 55.5 8.5t42.5 28.5q15 13 34 32.5t44 46.5q15 17 33.5 37t39.5 45q9 11 24 28t52 62q30 36 46 55.5t31 37.5q-148 8 -227 11.5t-128 3.5q-34 0 -63 -6t-53 -19q-30 -16 -54 -45t-46 -75q-17 -38 -12 -84t30 -86zM1138 953h1h54.5t36.5 1q25 1 29.5 0.5
t4.5 -1.5q0 -2 -3 -6t-16 -16q-10 -11 -16 -17t-11 -12h-10.5h-22.5q-24 1 -37 1h-23q-21 0 -44.5 -1t-32.5 -1q-24 -1 -29 -0.5t-5 2.5q0 1 2 3.5t10 9.5q13 12 20.5 20.5t14.5 17.5h9.5h17.5q18 -1 29 -1h21z" />
    <glyph glyph-name="amacron" unicode="&#x101;" horiz-adv-x="579" 
d="M33 0zM109 3q-3 -2 -7.5 -3t-10.5 -1t-13 1t-9 3q-35 26 -36 99.5t30 151.5q29 71 91 132t138 97q30 14 57 21.5t48 7.5q43 0 70.5 -15.5t65.5 -57.5q13 11 34.5 31.5t35.5 36.5q5 5 7 4.5t2 -6.5q-75 -94 -151 -227.5t-73 -184.5q1 -13 11.5 -25.5t24.5 -16.5
q25 11 60 36t60 52l6 -7q-49 -48 -86.5 -78.5t-71.5 -50.5q-3 -1 -9 -2t-14 -1q-11 0 -21.5 1.5t-11.5 2.5q-13 15 -22 38t-10 42q-1 20 7.5 46t28.5 59q12 19 33.5 51t28.5 43q-42 -45 -94 -96.5t-104 -99.5q-37 -34 -58 -52t-37 -32zM137 267q-23 -72 -24.5 -131t19.5 -83
q9 2 24.5 12.5t37.5 28.5q58 48 140 132t145 160q-44 56 -75.5 79t-64.5 23q-10 0 -20.5 -2.5t-22.5 -8.5q-48 -22 -92 -80.5t-67 -129.5zM450 629h1h54.5t36.5 1q25 1 29.5 0.5t4.5 -1.5q0 -2 -3 -6t-16 -16q-10 -11 -16 -17t-11 -12h-10.5h-22.5q-24 1 -37 1h-23
q-21 0 -44.5 -1t-32.5 -1q-24 -1 -29 -0.5t-5 2.5q0 1 2 3.5t10 9.5q13 12 20.5 20.5t14.5 17.5h9.5h17.5q18 -1 29 -1h21z" />
    <glyph glyph-name="Abreve" unicode="&#x102;" horiz-adv-x="1349" 
d="M36 0zM560 176q-139 -154 -196.5 -195t-128.5 -41q-51 0 -93.5 23.5t-70.5 66.5q-30 46 -34.5 98.5t18.5 86.5q28 42 71 78.5t93 60.5q44 22 89 33t90 11q55 0 143 -1t181 -2q90 109 178.5 214.5t146.5 174.5q-56 0 -98 -1.5t-74 -5.5t-66 -9t-89 -14q-33 -6 -43.5 -7.5
t-15.5 -1.5q-7 0 0 10t35 40l15 15t5 6q7 4 45.5 6t117.5 2h182q66 0 135 1t171 4q39 1 53 1.5t22 0.5q12 0 20 -1t12 -2q0 -12 -13.5 -32.5t-29.5 -30.5q-10 -3 -46 -1t-132 10q-61 6 -84 7.5t-35 1.5h-7.5h-7.5q-14 -75 -33 -183t-36 -208q38 -1 80 -1h107q32 0 66.5 -0.5
t54.5 -1.5q3 0 4 -1t1 -3t-2.5 -5.5t-7.5 -8.5q-12 -12 -29 -22.5t-26 -11.5q-21 -4 -52.5 -3.5t-35.5 0.5q-30 0 -71.5 1t-97.5 4q-9 -54 -14.5 -86t-6.5 -42q-5 -38 -4.5 -72.5t6.5 -57.5q3 -11 13 -19.5t27 -13.5q23 8 79 48.5t82 67.5l6 -7q-40 -38 -98.5 -85t-95.5 -69
q-7 -4 -25 -3t-22 4q-14 11 -23.5 30t-11.5 40q-5 36 -4.5 66t6.5 65q4 24 13.5 79t10.5 58q-29 1 -63.5 3t-105.5 6q-41 3 -61.5 4t-38.5 2q-13 -16 -76 -93.5t-74 -87.5zM1063 782l-324 -387q97 -1 151 -1.5t98 -0.5q18 95 39.5 206t35.5 183zM141 58q26 -38 65 -59.5
t86 -21.5q37 0 55.5 8.5t42.5 28.5q15 13 34 32.5t44 46.5q15 17 33.5 37t39.5 45q9 11 24 28t52 62q30 36 46 55.5t31 37.5q-148 8 -227 11.5t-128 3.5q-34 0 -63 -6t-53 -19q-30 -16 -54 -45t-46 -75q-17 -38 -12 -84t30 -86zM1265 995q-25 -44 -63 -68t-84 -24
q-43 0 -73 20t-40 55q-2 9 3.5 14.5t21.5 11.5q15 5 22 4t9 -8q7 -38 28.5 -58t55.5 -20t63 22t41 55q2 4 4.5 6t5.5 2q6 0 7.5 -4t-1.5 -8z" />
    <glyph glyph-name="abreve" unicode="&#x103;" horiz-adv-x="579" 
d="M33 0zM109 3q-3 -2 -7.5 -3t-10.5 -1t-13 1t-9 3q-35 26 -36 99.5t30 151.5q29 71 91 132t138 97q30 14 57 21.5t48 7.5q43 0 70.5 -15.5t65.5 -57.5q13 11 34.5 31.5t35.5 36.5q5 5 7 4.5t2 -6.5q-75 -94 -151 -227.5t-73 -184.5q1 -13 11.5 -25.5t24.5 -16.5
q25 11 60 36t60 52l6 -7q-49 -48 -86.5 -78.5t-71.5 -50.5q-3 -1 -9 -2t-14 -1q-11 0 -21.5 1.5t-11.5 2.5q-13 15 -22 38t-10 42q-1 20 7.5 46t28.5 59q12 19 33.5 51t28.5 43q-42 -45 -94 -96.5t-104 -99.5q-37 -34 -58 -52t-37 -32zM137 267q-23 -72 -24.5 -131t19.5 -83
q9 2 24.5 12.5t37.5 28.5q58 48 140 132t145 160q-44 56 -75.5 79t-64.5 23q-10 0 -20.5 -2.5t-22.5 -8.5q-48 -22 -92 -80.5t-67 -129.5zM577 671q-25 -44 -63 -68t-84 -24q-43 0 -73 20t-40 55q-2 9 3.5 14.5t21.5 11.5q15 5 22 4t9 -8q7 -38 28.5 -58t55.5 -20t63 22
t41 55q2 4 4.5 6t5.5 2q6 0 7.5 -4t-1.5 -8z" />
    <glyph glyph-name="Aogonek" unicode="&#x104;" horiz-adv-x="1349" 
d="M560 176q-139 -154 -196.5 -195t-128.5 -41q-51 0 -93.5 23.5t-71.5 66.5q-30 47 -34.5 99t19.5 86q27 41 70 77.5t94 61.5q44 22 89 33t90 11q55 0 143 -1t181 -2q90 109 178.5 214.5t146.5 174.5q-56 0 -98 -1.5t-74 -5.5t-66 -9t-89 -14q-33 -6 -43.5 -7.5t-15.5 -1.5
q-7 0 0 10t35 40l15 15t5 6q7 4 45.5 6t117.5 2h182q66 0 135 1t171 4q39 1 53 1.5t22 0.5q12 0 20 -1t12 -2q0 -12 -13.5 -32.5t-29.5 -30.5q-10 -3 -46 -1t-132 10q-61 6 -84 7.5t-35 1.5h-7.5h-7.5q-14 -75 -33 -183t-36 -208q38 -1 80 -1h107q32 0 66.5 -0.5t54.5 -1.5
q3 0 4 -1t1 -3t-2.5 -5.5t-7.5 -8.5q-12 -12 -29 -22.5t-26 -11.5q-21 -4 -52.5 -3.5t-35.5 0.5q-30 0 -71.5 1t-97.5 4q-7 -39 -12 -72t-8 -56q-5 -35 -4.5 -67t6.5 -63q3 -11 13 -19.5t27 -13.5q23 8 79 48.5t82 67.5l6 -7q-46 -43 -103 -88.5t-95 -67.5
q-52 -29 -78.5 -61t-26.5 -64q0 -23 14 -36t39 -13q20 0 36 5t29 16q7 3 -10.5 -30.5t-31.5 -41.5q-13 -8 -23 -10.5t-22 -2.5q-40 0 -59 25.5t-11 67.5q8 36 42 75.5t83 68.5q-7 0 -14.5 1t-9.5 3q-15 11 -24.5 31t-10.5 39q-5 65 -3.5 85.5t5.5 45.5q4 26 10 61.5t13 75.5
q-29 1 -63.5 3t-105.5 6q-41 3 -61.5 4t-38.5 2q-13 -16 -76 -93.5t-74 -87.5zM1063 782l-324 -387q97 -1 151 -1.5t98 -0.5q18 95 39.5 206t35.5 183zM141 58q25 -38 64.5 -59.5t86.5 -21.5q37 0 55.5 8.5t42.5 28.5q15 13 34 32.5t44 46.5q15 17 33.5 37t39.5 45
q9 11 24 28t52 62q30 36 46 55.5t31 37.5q-148 8 -227 11.5t-128 3.5q-34 0 -63 -6t-53 -19q-31 -17 -55.5 -46t-44.5 -74q-18 -38 -13 -84t31 -86z" />
    <glyph glyph-name="aogonek" unicode="&#x105;" horiz-adv-x="579" 
d="M444 -151q7 3 -10.5 -30.5t-31.5 -41.5q-13 -8 -23 -10.5t-22 -2.5q-40 0 -59 25.5t-11 67.5q7 34 32 71.5t63 72.5q-2 -1 -4.5 -1h-8.5q-11 0 -21.5 1.5t-11.5 2.5q-13 15 -22 38t-10 42q-1 20 7.5 46t28.5 59q12 19 33.5 51t28.5 43q-42 -45 -94 -96.5t-104 -99.5
q-23 -21 -47.5 -42.5t-47.5 -41.5q-3 -2 -7.5 -3t-10.5 -1t-13 1t-9 3q-35 26 -36 99.5t30 151.5q29 71 91 132t138 97q30 14 57 21.5t48 7.5q43 0 70.5 -15.5t65.5 -57.5q13 11 34.5 31.5t35.5 36.5q5 5 7 4.5t2 -6.5q-75 -94 -151 -227.5t-73 -184.5q1 -13 11.5 -25.5
t24.5 -16.5q25 11 60 36t60 52l6 -7q-38 -37 -65.5 -60.5t-52.5 -41.5q-53 -39 -79.5 -76t-26.5 -77q0 -23 14 -36t39 -13q20 0 36 5t29 16zM137 267q-23 -72 -24.5 -131t19.5 -83q9 2 24.5 12.5t37.5 28.5q58 48 140 132t145 160q-44 56 -75.5 79t-64.5 23
q-10 0 -20.5 -2.5t-22.5 -8.5q-48 -22 -92 -80.5t-67 -129.5z" />
    <glyph glyph-name="Cacute" unicode="&#x106;" horiz-adv-x="760" 
d="M69 0zM703 111q-70 -86 -164 -144t-172 -58q-111 0 -186.5 58.5t-100.5 161.5q-22 88 -0.5 186.5t81.5 187.5q96 140 248.5 232.5t306.5 92.5q64 0 125 -19.5t116 -59.5q2 -1 3 -3t1 -4q0 -8 -24 -24t-34 -16h-3.5t-9.5 2q-8 3 -18.5 7.5t-34.5 17.5q-71 38 -119.5 51.5
t-98.5 13.5q-106 0 -208 -68.5t-179 -189.5q-54 -85 -73.5 -179.5t-1.5 -177.5q22 -101 91.5 -158.5t173.5 -57.5q67 0 144.5 45t129.5 110q3 3 7 0.5t0 -7.5zM779 1035q9 7 16.5 10t14.5 3q8 0 15.5 -9t5.5 -15q-1 -6 -5 -14t-9 -11q-3 -2 -8.5 -6t-23.5 -15
q-51 -32 -82.5 -54t-57.5 -43q-1 -1 -1.5 -1h-1.5q-2 0 -3.5 2t-1.5 4q0 1 0.5 1.5l1.5 1.5q28 23 58 53.5t69 77.5q7 9 9.5 11.5z" />
    <glyph glyph-name="cacute" unicode="&#x107;" horiz-adv-x="493" 
d="M36 0zM282 37q-39 -23 -69.5 -33t-57.5 -10q-37 0 -67.5 21.5t-41.5 54.5q-17 57 -5.5 111.5t48.5 118.5q29 49 85 98.5t125 87.5q30 16 59 23.5t62 7.5q44 0 69 -17.5t25 -46.5q0 -21 -18 -38t-40 -20q-11 45 -38.5 68t-69.5 23q-13 0 -22.5 -1.5t-21.5 -4.5
q-36 -25 -68 -60t-57 -77q-34 -56 -49 -115.5t-10 -116.5q7 -26 23 -43t39 -23q22 -6 55 -1t63 19q24 11 59 39t56 54l9 -5q-27 -32 -61 -59.5t-81 -54.5zM486 711q9 7 16.5 10t14.5 3q8 0 15.5 -9t5.5 -15q-1 -6 -5 -14t-9 -11q-3 -2 -8.5 -6t-23.5 -15q-51 -32 -82.5 -54
t-57.5 -43q-1 -1 -1.5 -1h-1.5q-2 0 -3.5 2t-1.5 4q0 1 0.5 1.5l1.5 1.5q28 23 58 53.5t69 77.5q7 9 9.5 11.5z" />
    <glyph glyph-name="Ccircumflex" unicode="&#x108;" horiz-adv-x="760" 
d="M69 0zM703 111q-70 -86 -164 -144t-172 -58q-111 0 -186.5 58.5t-100.5 161.5q-22 88 -0.5 186.5t81.5 187.5q96 140 248.5 232.5t306.5 92.5q64 0 125 -19.5t116 -59.5q2 -1 3 -3t1 -4q0 -8 -24 -24t-34 -16h-3.5t-9.5 2q-8 3 -18.5 7.5t-34.5 17.5q-71 38 -119.5 51.5
t-98.5 13.5q-106 0 -208 -68.5t-179 -189.5q-54 -85 -73.5 -179.5t-1.5 -177.5q22 -101 91.5 -158.5t173.5 -57.5q67 0 144.5 45t129.5 110q3 3 7 0.5t0 -7.5zM852 889q0 -8 -6 -12t-18 -4q-20 0 -29.5 6t-9.5 19q0 50 -4.5 78.5t-14.5 46.5q-1 2 -2.5 3t-3.5 0
q-35 -20 -62.5 -43.5t-60.5 -63.5q-8 -9 -21 -14t-30 -5q-11 0 -17 4t-6 11q0 20 57 53t139 63q4 2 7 1t6 -5q32 -39 54 -78.5t22 -59.5z" />
    <glyph glyph-name="ccircumflex" unicode="&#x109;" horiz-adv-x="493" 
d="M36 0zM282 37q-39 -23 -69.5 -33t-57.5 -10q-37 0 -67.5 21.5t-41.5 54.5q-17 57 -5.5 111.5t48.5 118.5q29 49 85 98.5t125 87.5q30 16 59 23.5t62 7.5q44 0 69 -17.5t25 -46.5q0 -21 -18 -38t-40 -20q-11 45 -38.5 68t-69.5 23q-13 0 -22.5 -1.5t-21.5 -4.5
q-36 -25 -68 -60t-57 -77q-34 -56 -49 -115.5t-10 -116.5q7 -26 23 -43t39 -23q22 -6 55 -1t63 19q24 11 59 39t56 54l9 -5q-27 -32 -61 -59.5t-81 -54.5zM559 565q0 -8 -6 -12t-18 -4q-20 0 -29.5 6t-9.5 19q0 50 -4.5 78.5t-14.5 46.5q-1 2 -2.5 3t-3.5 0
q-35 -20 -62.5 -43.5t-60.5 -63.5q-8 -9 -21 -14t-30 -5q-11 0 -17 4t-6 11q0 20 57 53t139 63q4 2 7 1t6 -5q32 -39 54 -78.5t22 -59.5z" />
    <glyph glyph-name="Cdotaccent" unicode="&#x10a;" horiz-adv-x="760" 
d="M69 0zM703 111q-70 -86 -164 -144t-172 -58q-111 0 -186.5 58.5t-100.5 161.5q-22 88 -0.5 186.5t81.5 187.5q96 140 248.5 232.5t306.5 92.5q64 0 125 -19.5t116 -59.5q2 -1 3 -3t1 -4q0 -8 -24 -24t-34 -16h-3.5t-9.5 2q-8 3 -18.5 7.5t-34.5 17.5q-71 38 -119.5 51.5
t-98.5 13.5q-106 0 -208 -68.5t-179 -189.5q-54 -85 -73.5 -179.5t-1.5 -177.5q22 -101 91.5 -158.5t173.5 -57.5q67 0 144.5 45t129.5 110q3 3 7 0.5t0 -7.5zM704 927q-15 0 -20.5 1.5t-10.5 6.5q-7 13 10.5 51t34.5 46q5 3 18 5t25 2q13 0 26.5 -3t15.5 -7q3 -20 -22 -53
t-44 -43q-6 -3 -14.5 -4.5t-18.5 -1.5z" />
    <glyph glyph-name="cdotaccent" unicode="&#x10b;" horiz-adv-x="493" 
d="M36 0zM282 37q-39 -23 -69.5 -33t-57.5 -10q-37 0 -67.5 21.5t-41.5 54.5q-17 57 -5.5 111.5t48.5 118.5q29 49 85 98.5t125 87.5q30 16 59 23.5t62 7.5q44 0 69 -17.5t25 -46.5q0 -21 -18 -38t-40 -20q-11 45 -38.5 68t-69.5 23q-13 0 -22.5 -1.5t-21.5 -4.5
q-36 -25 -68 -60t-57 -77q-34 -56 -49 -115.5t-10 -116.5q7 -26 23 -43t39 -23q22 -6 55 -1t63 19q24 11 59 39t56 54l9 -5q-27 -32 -61 -59.5t-81 -54.5zM411 603q-15 0 -20.5 1.5t-10.5 6.5q-7 13 10.5 51t34.5 46q5 3 18 5t25 2q13 0 26.5 -3t15.5 -7q3 -20 -22 -53
t-44 -43q-6 -3 -14.5 -4.5t-18.5 -1.5z" />
    <glyph glyph-name="Ccaron" unicode="&#x10c;" horiz-adv-x="760" 
d="M69 0zM703 111q-70 -86 -164 -144t-172 -58q-111 0 -186.5 58.5t-100.5 161.5q-22 88 -0.5 186.5t81.5 187.5q96 140 248.5 232.5t306.5 92.5q64 0 125 -19.5t116 -59.5q2 -1 3 -3t1 -4q0 -8 -24 -24t-34 -16h-3.5t-9.5 2q-8 3 -18.5 7.5t-34.5 17.5q-71 38 -119.5 51.5
t-98.5 13.5q-106 0 -208 -68.5t-179 -189.5q-54 -85 -73.5 -179.5t-1.5 -177.5q22 -101 91.5 -158.5t173.5 -57.5q67 0 144.5 45t129.5 110q3 3 7 0.5t0 -7.5zM621 1021q0 8 6 12t16 4q21 0 30.5 -6t9.5 -19q0 -47 5 -76.5t15 -48.5q2 -3 3 -3.5t3 0.5q35 20 62.5 43.5
t60.5 63.5q8 9 21 14t30 5q11 0 17 -4t6 -11q0 -20 -57 -53t-139 -63q-4 -2 -7 -1t-6 5q-32 39 -54 78.5t-22 59.5z" />
    <glyph glyph-name="ccaron" unicode="&#x10d;" horiz-adv-x="493" 
d="M36 0zM282 37q-39 -23 -69.5 -33t-57.5 -10q-37 0 -67.5 21.5t-41.5 54.5q-17 57 -5.5 111.5t48.5 118.5q29 49 85 98.5t125 87.5q30 16 59 23.5t62 7.5q44 0 69 -17.5t25 -46.5q0 -21 -18 -38t-40 -20q-11 45 -38.5 68t-69.5 23q-13 0 -22.5 -1.5t-21.5 -4.5
q-36 -25 -68 -60t-57 -77q-34 -56 -49 -115.5t-10 -116.5q7 -26 23 -43t39 -23q22 -6 55 -1t63 19q24 11 59 39t56 54l9 -5q-27 -32 -61 -59.5t-81 -54.5zM328 697q0 8 6 12t16 4q21 0 30.5 -6t9.5 -19q0 -47 5 -76.5t15 -48.5q2 -3 3 -3.5t3 0.5q35 20 62.5 43.5t60.5 63.5
q8 9 21 14t30 5q11 0 17 -4t6 -11q0 -20 -57 -53t-139 -63q-4 -2 -7 -1t-6 5q-32 39 -54 78.5t-22 59.5z" />
    <glyph glyph-name="Dcaron" unicode="&#x10e;" horiz-adv-x="1138" 
d="M40 0zM128 -2q-15 -1 -20.5 -1h-7.5q-23 0 -38.5 4t-21.5 11q-2 17 14 43t35 38q7 2 23 -0.5t62 -14.5q62 -16 94 -21.5t56 -5.5q22 0 37.5 4t27.5 12q28 19 50.5 55t49.5 108q5 14 28 77t41 106q57 142 120.5 234.5t125.5 123.5l4 -3q-16 -8 -40 -49.5t-60 -125.5
q-15 -35 -42 -100t-37 -89q-63 -148 -125.5 -235.5t-129.5 -123.5q38 -3 150 -2.5t183 6.5q75 6 124.5 20t86.5 40q33 24 60 59t50 85q45 95 39.5 195.5t-59.5 181.5q-53 78 -141.5 120t-201.5 42q-86 0 -146 -11.5t-105 -35.5q-59 -31 -103 -86t-76 -137q-11 -29 -29 -42.5
t-45 -13.5q-28 0 -33 16t14 45q40 63 110 121.5t157 103.5q79 40 154 59.5t152 19.5q114 0 205.5 -42.5t148.5 -121.5q62 -84 71 -189t-38 -193q-25 -46 -72 -94t-107 -89q-32 -22 -61 -38t-56 -27q-45 -19 -88 -29t-81 -10l-195 2q-75 1 -150 0.5t-164 -2.5zM878 998
q0 8 6 12t16 4q21 0 30.5 -6t9.5 -19q0 -47 5 -76.5t15 -48.5q2 -3 3 -3.5t3 0.5q35 20 62.5 43.5t60.5 63.5q8 9 21 14t30 5q11 0 17 -4t6 -11q0 -20 -57 -53t-139 -63q-4 -2 -7 -1t-6 5q-32 39 -54 78.5t-22 59.5z" />
    <glyph glyph-name="dcaron" unicode="&#x10f;" horiz-adv-x="595" 
d="M33 0zM137 267q-23 -72 -24.5 -131t19.5 -83q8 2 21.5 11t31.5 24q53 44 134.5 130.5t151.5 171.5q-45 57 -72 77.5t-60 20.5q-10 0 -22 -3t-26 -10q-47 -24 -89.5 -81t-64.5 -127zM507 457q84 141 124.5 210.5t73.5 129.5q-1 8 -4.5 14t-8.5 11q-9 7 -23.5 8.5
t-31.5 -2.5q-26 -6 -69.5 -13t-82.5 -12l-1 6q72 11 155.5 31.5t157.5 45.5q9 -2 14.5 -5.5t8.5 -11.5q-13 -22 -28 -47.5t-42 -73.5q-33 -58 -51 -88t-34 -57q-129 -210 -175.5 -291t-71.5 -133q-14 -30 -21 -50t-7 -31q0 -19 9 -34.5t24 -16.5q26 11 62 36t62 52l6 -7
q-44 -42 -83 -72.5t-75 -52.5q-3 -1 -9 -2t-14 -1q-10 0 -19.5 1t-11.5 3q-13 14 -23 41t-9 43t11 42t31 64q11 21 25.5 45.5t57.5 92.5l9 12q-44 -56 -112.5 -128.5t-138.5 -137.5q-22 -21 -44 -41t-39 -34q-3 -2 -7.5 -3t-10.5 -1t-13 1t-9 3q-35 26 -36 99.5t30 151.5
q28 70 88 130t137 97q31 15 59 23t50 8q31 0 56 -12.5t54 -42.5zM862 831q0 18 18 32t37 14q11 0 16 -8.5t5 -26.5q0 -59 -52 -118.5t-123 -90.5q-4 -4 -7 0t2 7q51 25 78 57.5t27 68.5v17t-1 23v16v9z" />
    <glyph glyph-name="Dcroat" unicode="&#x110;" horiz-adv-x="1138" 
d="M40 0zM128 -2q-15 -1 -20.5 -1h-7.5q-23 0 -38.5 4t-21.5 11q-2 17 14 43t35 38q7 2 23 -0.5t62 -14.5q62 -16 94 -21.5t56 -5.5q22 0 37.5 4t27.5 12q27 19 49 52.5t46 97.5q9 22 29.5 79t34.5 92q-56 -1 -105 -2.5t-83 -3.5q-7 3 -4.5 12.5t10.5 10.5q35 -2 87 -4
t99 -3l6 15q57 142 120.5 234.5t125.5 123.5l4 -3q-16 -8 -40 -49.5t-60 -125.5q-14 -32 -40.5 -96t-38.5 -92l-3 -7q53 1 113 3t104 4q6 -3 3.5 -12.5t-9.5 -10.5q-39 2 -95.5 3.5t-119.5 2.5q-59 -139 -120 -223.5t-128 -119.5q38 -3 150 -2.5t183 6.5q75 6 124.5 20
t86.5 40q33 24 60 59t50 85q45 95 39.5 195.5t-59.5 181.5q-53 78 -141.5 120t-201.5 42q-86 0 -146 -11.5t-105 -35.5q-58 -30 -102 -85t-77 -138q-12 -29 -29.5 -42.5t-44.5 -13.5q-28 0 -32.5 16t13.5 45q39 62 109 121t158 104q80 41 158 61t148 18q114 0 205.5 -42.5
t148.5 -121.5q62 -84 71 -189t-38 -193q-25 -46 -72 -94t-107 -89q-32 -22 -61 -38t-56 -27q-45 -19 -88 -29t-81 -10l-195 2q-75 1 -150 0.5t-164 -2.5z" />
    <glyph glyph-name="dcroat" unicode="&#x111;" horiz-adv-x="594" 
d="M109 3q-3 -2 -7.5 -3t-10.5 -1t-13 1t-9 3q-35 26 -36 99.5t30 151.5q28 70 88 130t137 97q31 15 59 23t50 8q31 0 56 -12t52 -41q10 14 21.5 31t32.5 50q28 41 38 56t15 22q1 1 2 2.5t4 5.5l3 4.5t2 2.5q-56 -1 -105 -2.5t-83 -3.5q-5 2 -4 12t7 11q44 -3 97 -5t95 -3
q41 51 98.5 96.5t126.5 81.5q76 38 145 55t155 17q42 0 71 -1.5t44 -3.5q5 -1 8 -4t3 -7q0 -14 -19 -36.5t-33 -22.5q-15 0 -35 1.5t-65 6.5q-59 6 -91 8t-60 2q-39 0 -66 -5.5t-51 -18.5q-34 -19 -71 -58t-89 -111q33 1 74 3t80 5q5 -1 3.5 -11t-6.5 -12q-29 2 -70.5 3.5
t-87.5 2.5q-16 -23 -37 -53.5t-55 -82.5q-53 -82 -104.5 -171.5t-79.5 -146.5q-14 -30 -21 -50t-7 -31q0 -19 9 -34.5t24 -16.5q26 11 62 36t62 52l6 -7q-44 -42 -83 -72.5t-75 -52.5q-3 -1 -9 -2t-14 -1q-10 0 -19.5 1t-11.5 3q-13 14 -23 41t-9 43t11 42t31 64
q11 21 25.5 45.5t57.5 92.5l9 12q-44 -56 -112.5 -128.5t-138.5 -137.5q-22 -21 -44 -41t-39 -34zM137 267q-23 -72 -24.5 -131t19.5 -83q8 2 21.5 11t31.5 24q53 44 134.5 130.5t151.5 171.5q-45 57 -72 77.5t-60 20.5q-10 0 -22 -3t-26 -10q-47 -24 -89.5 -81t-64.5 -127z
" />
    <glyph glyph-name="Emacron" unicode="&#x112;" horiz-adv-x="1066" 
d="M46 0zM153 -2q-27 -1 -35 -1h-11q-23 0 -38.5 4t-21.5 11q-3 16 12 37t37 35q7 2 22.5 0t60.5 -12q61 -13 92.5 -17.5t56.5 -4.5q24 0 43 4.5t32 13.5q27 18 51 56t53 108q11 28 34.5 90.5t36.5 94.5q-77 9 -134.5 13.5t-104.5 6.5q-4 0 -7 1t-3 3t3 3t11 1q53 0 118.5 1
t128.5 2q48 117 107.5 197t124.5 115q-70 17 -123 25.5t-94 8.5q-55 0 -100.5 -9.5t-82.5 -29.5q-67 -36 -120.5 -105.5t-96.5 -177.5q-11 -29 -29 -42.5t-44 -13.5q-29 0 -34 16t14 45q60 94 138 166.5t168 117.5q67 33 138.5 50t147.5 17q58 0 133 -12t198 -41
q95 -23 132.5 -35.5t40.5 -20.5t-11.5 -27.5t-25.5 -22.5q-8 0 -58 12.5t-141 37.5q-71 20 -95 26.5t-46 12.5q-24 -18 -62 -87.5t-103 -221.5q23 0 49.5 0.5t74.5 1.5q52 1 72.5 1h34.5q40 0 70.5 -2t44.5 -5q13 -2 -9.5 -30t-39.5 -31t-35 -3.5t-58 2.5q-33 2 -123 13
t-99 12q-61 -141 -126.5 -231.5t-131.5 -125.5q20 -1 35.5 -1.5t31.5 -0.5q105 0 160.5 2t89.5 6l58.5 6.5t87.5 10.5q49 7 65 8.5t22 1.5q2 0 3 -1.5t0 -3.5q-4 -10 -26.5 -34.5t-32.5 -32.5q-7 -3 -51 -5t-131 -2h-182q-73 0 -158.5 -1.5t-208.5 -5.5zM993 935h1h54.5
t36.5 1q25 1 29.5 0.5t4.5 -1.5q0 -2 -3 -6t-16 -16q-10 -11 -16 -17t-11 -12h-10.5h-22.5q-24 1 -37 1h-23q-21 0 -44.5 -1t-32.5 -1q-24 -1 -29 -0.5t-5 2.5q0 1 2 3.5t10 9.5q13 12 20.5 20.5t14.5 17.5h9.5h17.5q18 -1 29 -1h21z" />
    <glyph glyph-name="emacron" unicode="&#x113;" horiz-adv-x="486" 
d="M33 0zM271 37q-42 -23 -72 -33t-57 -10q-30 0 -60.5 23.5t-40.5 55.5q-15 50 -2 104.5t52 122.5q28 48 80 98t105 80q32 17 64 26.5t60 9.5q43 0 66.5 -15t23.5 -41q0 -37 -49 -84.5t-157 -116.5q-64 -39 -99 -60t-68 -40q-1 -11 -1.5 -22t0.5 -24q10 -35 30.5 -52
t53.5 -17q20 0 46 6.5t48 16.5q23 11 62.5 42.5t60.5 58.5l9 -5q-28 -34 -69.5 -67t-85.5 -57zM295 479q-27 -18 -60.5 -59t-59.5 -90q-23 -41 -37.5 -82.5t-19.5 -80.5q47 28 87 52.5t73 45.5q63 41 93 68t39 50q2 5 3 10.5t1 11.5q0 31 -28 54.5t-65 23.5q-7 0 -13.5 -1
t-12.5 -3zM410 629h1h54.5t36.5 1q25 1 29.5 0.5t4.5 -1.5q0 -2 -3 -6t-16 -16q-10 -11 -16 -17t-11 -12h-10.5h-22.5q-24 1 -37 1h-23q-21 0 -44.5 -1t-32.5 -1q-24 -1 -29 -0.5t-5 2.5q0 1 2 3.5t10 9.5q13 12 20.5 20.5t14.5 17.5h9.5h17.5q18 -1 29 -1h21z" />
    <glyph glyph-name="Ebreve" unicode="&#x114;" horiz-adv-x="1066" 
d="M46 0zM153 -2q-27 -1 -35 -1h-11q-23 0 -38.5 4t-21.5 11q-3 16 12 37t37 35q7 2 22.5 0t60.5 -12q61 -13 92.5 -17.5t56.5 -4.5q24 0 43 4.5t32 13.5q27 18 51 56t53 108q11 28 34.5 90.5t36.5 94.5q-77 9 -134.5 13.5t-104.5 6.5q-4 0 -7 1t-3 3t3 3t11 1q53 0 118.5 1
t128.5 2q48 117 107.5 197t124.5 115q-70 17 -123 25.5t-94 8.5q-55 0 -100.5 -9.5t-82.5 -29.5q-67 -36 -120.5 -105.5t-96.5 -177.5q-11 -29 -29 -42.5t-44 -13.5q-29 0 -34 16t14 45q60 94 138 166.5t168 117.5q67 33 138.5 50t147.5 17q58 0 133 -12t198 -41
q95 -23 132.5 -35.5t40.5 -20.5t-11.5 -27.5t-25.5 -22.5q-8 0 -58 12.5t-141 37.5q-71 20 -95 26.5t-46 12.5q-24 -18 -62 -87.5t-103 -221.5q23 0 49.5 0.5t74.5 1.5q52 1 72.5 1h34.5q40 0 70.5 -2t44.5 -5q13 -2 -9.5 -30t-39.5 -31t-35 -3.5t-58 2.5q-33 2 -123 13
t-99 12q-61 -141 -126.5 -231.5t-131.5 -125.5q20 -1 35.5 -1.5t31.5 -0.5q105 0 160.5 2t89.5 6l58.5 6.5t87.5 10.5q49 7 65 8.5t22 1.5q2 0 3 -1.5t0 -3.5q-4 -10 -26.5 -34.5t-32.5 -32.5q-7 -3 -51 -5t-131 -2h-182q-73 0 -158.5 -1.5t-208.5 -5.5zM1120 977
q-25 -44 -63 -68t-84 -24q-43 0 -73 20t-40 55q-2 9 3.5 14.5t21.5 11.5q15 5 22 4t9 -8q7 -38 28.5 -58t55.5 -20t63 22t41 55q2 4 4.5 6t5.5 2q6 0 7.5 -4t-1.5 -8z" />
    <glyph glyph-name="ebreve" unicode="&#x115;" horiz-adv-x="486" 
d="M33 0zM271 37q-42 -23 -72 -33t-57 -10q-30 0 -60.5 23.5t-40.5 55.5q-15 50 -2 104.5t52 122.5q28 48 80 98t105 80q32 17 64 26.5t60 9.5q43 0 66.5 -15t23.5 -41q0 -37 -49 -84.5t-157 -116.5q-64 -39 -99 -60t-68 -40q-1 -11 -1.5 -22t0.5 -24q10 -35 30.5 -52
t53.5 -17q20 0 46 6.5t48 16.5q23 11 62.5 42.5t60.5 58.5l9 -5q-28 -34 -69.5 -67t-85.5 -57zM295 479q-27 -18 -60.5 -59t-59.5 -90q-23 -41 -37.5 -82.5t-19.5 -80.5q47 28 87 52.5t73 45.5q63 41 93 68t39 50q2 5 3 10.5t1 11.5q0 31 -28 54.5t-65 23.5q-7 0 -13.5 -1
t-12.5 -3zM524 673q-25 -44 -63 -68t-84 -24q-43 0 -73 20t-40 55q-2 9 3.5 14.5t21.5 11.5q15 5 22 4t9 -8q7 -38 28.5 -58t55.5 -20t63 22t41 55q2 4 4.5 6t5.5 2q6 0 7.5 -4t-1.5 -8z" />
    <glyph glyph-name="Edotaccent" unicode="&#x116;" horiz-adv-x="1066" 
d="M46 0zM153 -2q-27 -1 -35 -1h-11q-23 0 -38.5 4t-21.5 11q-3 16 12 37t37 35q7 2 22.5 0t60.5 -12q61 -13 92.5 -17.5t56.5 -4.5q24 0 43 4.5t32 13.5q27 18 51 56t53 108q11 28 34.5 90.5t36.5 94.5q-77 9 -134.5 13.5t-104.5 6.5q-4 0 -7 1t-3 3t3 3t11 1q53 0 118.5 1
t128.5 2q48 117 107.5 197t124.5 115q-70 17 -123 25.5t-94 8.5q-55 0 -100.5 -9.5t-82.5 -29.5q-67 -36 -120.5 -105.5t-96.5 -177.5q-11 -29 -29 -42.5t-44 -13.5q-29 0 -34 16t14 45q60 94 138 166.5t168 117.5q67 33 138.5 50t147.5 17q58 0 133 -12t198 -41
q95 -23 132.5 -35.5t40.5 -20.5t-11.5 -27.5t-25.5 -22.5q-8 0 -58 12.5t-141 37.5q-71 20 -95 26.5t-46 12.5q-24 -18 -62 -87.5t-103 -221.5q23 0 49.5 0.5t74.5 1.5q52 1 72.5 1h34.5q40 0 70.5 -2t44.5 -5q13 -2 -9.5 -30t-39.5 -31t-35 -3.5t-58 2.5q-33 2 -123 13
t-99 12q-61 -141 -126.5 -231.5t-131.5 -125.5q20 -1 35.5 -1.5t31.5 -0.5q105 0 160.5 2t89.5 6l58.5 6.5t87.5 10.5q49 7 65 8.5t22 1.5q2 0 3 -1.5t0 -3.5q-4 -10 -26.5 -34.5t-32.5 -32.5q-7 -3 -51 -5t-131 -2h-182q-73 0 -158.5 -1.5t-208.5 -5.5zM982 909
q-15 0 -20.5 1.5t-10.5 6.5q-7 13 10.5 51t34.5 46q5 3 18 5t25 2q13 0 26.5 -3t15.5 -7q3 -20 -22 -53t-44 -43q-6 -3 -14.5 -4.5t-18.5 -1.5z" />
    <glyph glyph-name="edotaccent" unicode="&#x117;" horiz-adv-x="486" 
d="M33 0zM271 37q-42 -23 -72 -33t-57 -10q-30 0 -60.5 23.5t-40.5 55.5q-15 50 -2 104.5t52 122.5q28 48 80 98t105 80q32 17 64 26.5t60 9.5q43 0 66.5 -15t23.5 -41q0 -37 -49 -84.5t-157 -116.5q-64 -39 -99 -60t-68 -40q-1 -11 -1.5 -22t0.5 -24q10 -35 30.5 -52
t53.5 -17q20 0 46 6.5t48 16.5q23 11 62.5 42.5t60.5 58.5l9 -5q-28 -34 -69.5 -67t-85.5 -57zM295 479q-27 -18 -60.5 -59t-59.5 -90q-23 -41 -37.5 -82.5t-19.5 -80.5q47 28 87 52.5t73 45.5q63 41 93 68t39 50q2 5 3 10.5t1 11.5q0 31 -28 54.5t-65 23.5q-7 0 -13.5 -1
t-12.5 -3zM391 603q-15 0 -20.5 1.5t-10.5 6.5q-7 13 10.5 51t34.5 46q5 3 18 5t25 2q13 0 26.5 -3t15.5 -7q3 -20 -22 -53t-44 -43q-6 -3 -14.5 -4.5t-18.5 -1.5z" />
    <glyph glyph-name="Eogonek" unicode="&#x118;" horiz-adv-x="1066" 
d="M153 -2q-27 -1 -35 -1h-11q-23 0 -38.5 4t-21.5 11q-3 16 12 37t37 35q7 2 22.5 0t60.5 -12q61 -13 92.5 -17.5t56.5 -4.5q24 0 43 4.5t32 13.5q27 18 51 56t53 108q11 28 34.5 90.5t36.5 94.5q-77 9 -134.5 13.5t-104.5 6.5q-4 0 -7 1t-3 3t3 3t11 1q53 0 118.5 1
t128.5 2q48 117 107.5 197t124.5 115q-70 17 -123 25.5t-94 8.5q-55 0 -100.5 -9.5t-82.5 -29.5q-66 -35 -119 -104.5t-98 -178.5q-6 -27 -25 -41.5t-48 -14.5t-34 16t14 45q60 94 138 166.5t168 117.5q67 33 138.5 50t147.5 17q58 0 133 -12t198 -41q95 -23 132.5 -35.5
t40.5 -20.5t-11.5 -27.5t-25.5 -22.5q-8 0 -58 12.5t-141 37.5q-71 20 -95 26.5t-46 12.5q-24 -18 -62 -87.5t-103 -221.5q23 0 49.5 0.5t74.5 1.5q52 1 72.5 1h34.5q40 0 70.5 -2t44.5 -5q13 -2 -9.5 -30t-39.5 -31t-35 -3.5t-58 2.5q-33 2 -123 13t-99 12
q-61 -141 -126.5 -231.5t-131.5 -125.5q20 -1 35.5 -1.5t31.5 -0.5q105 0 160.5 2t89.5 6l58.5 6.5t87.5 10.5q49 7 65 8.5t22 1.5q2 0 3 -1.5t0 -3.5q-4 -10 -26.5 -34.5t-32.5 -32.5q-6 -3 -45.5 -5t-105.5 -2q-53 -32 -79.5 -64.5t-26.5 -64.5q0 -23 14 -36t39 -13
q20 0 36 5t29 16q7 3 -10.5 -30.5t-31.5 -41.5q-13 -8 -23 -10.5t-22 -2.5q-40 0 -59 25.5t-11 67.5q8 36 42 76t87 73h-7.5h-7.5h-182q-73 0 -158.5 -1.5t-208.5 -5.5z" />
    <glyph glyph-name="eogonek" unicode="&#x119;" horiz-adv-x="486" 
d="M259 -224q-13 -8 -23 -10.5t-22 -2.5q-40 0 -59 28.5t-10 73.5q8 41 40.5 85.5t83.5 84.5q-43 -23 -72.5 -32t-54.5 -9q-30 0 -60.5 23.5t-40.5 55.5q-15 50 -2 104.5t52 122.5q28 48 80 98t105 80q32 17 64 26.5t60 9.5q43 0 66.5 -15t23.5 -41q0 -37 -49 -84.5
t-157 -116.5q-64 -39 -99 -60t-68 -40q-1 -11 -1.5 -22t0.5 -24q10 -35 30.5 -52t53.5 -17q20 0 46 6.5t48 16.5q23 11 62.5 42.5t60.5 58.5l9 -5q-19 -22 -43 -44.5t-49 -39.5q-75 -52 -112.5 -100t-37.5 -92q0 -28 13.5 -43t38.5 -15q20 0 36 5t29 16q7 3 -10.5 -30.5
t-31.5 -41.5zM295 479q-27 -18 -60.5 -59t-59.5 -90q-23 -41 -37.5 -82.5t-19.5 -80.5q47 28 87 52.5t73 45.5q65 42 94.5 68.5t37.5 49.5q2 5 3 10.5t1 11.5q1 31 -27.5 54.5t-65.5 23.5q-7 0 -13.5 -1t-12.5 -3z" />
    <glyph glyph-name="Ecaron" unicode="&#x11a;" horiz-adv-x="1066" 
d="M46 0zM153 -2q-27 -1 -35 -1h-11q-23 0 -38.5 4t-21.5 11q-3 16 12 37t37 35q7 2 22.5 0t60.5 -12q61 -13 92.5 -17.5t56.5 -4.5q24 0 43 4.5t32 13.5q27 18 51 56t53 108q11 28 34.5 90.5t36.5 94.5q-77 9 -134.5 13.5t-104.5 6.5q-4 0 -7 1t-3 3t3 3t11 1q53 0 118.5 1
t128.5 2q48 117 107.5 197t124.5 115q-70 17 -123 25.5t-94 8.5q-55 0 -100.5 -9.5t-82.5 -29.5q-67 -36 -120.5 -105.5t-96.5 -177.5q-11 -29 -29 -42.5t-44 -13.5q-29 0 -34 16t14 45q60 94 138 166.5t168 117.5q67 33 138.5 50t147.5 17q58 0 133 -12t198 -41
q95 -23 132.5 -35.5t40.5 -20.5t-11.5 -27.5t-25.5 -22.5q-8 0 -58 12.5t-141 37.5q-71 20 -95 26.5t-46 12.5q-24 -18 -62 -87.5t-103 -221.5q23 0 49.5 0.5t74.5 1.5q52 1 72.5 1h34.5q40 0 70.5 -2t44.5 -5q13 -2 -9.5 -30t-39.5 -31t-35 -3.5t-58 2.5q-33 2 -123 13
t-99 12q-61 -141 -126.5 -231.5t-131.5 -125.5q20 -1 35.5 -1.5t31.5 -0.5q105 0 160.5 2t89.5 6l58.5 6.5t87.5 10.5q49 7 65 8.5t22 1.5q2 0 3 -1.5t0 -3.5q-4 -10 -26.5 -34.5t-32.5 -32.5q-7 -3 -51 -5t-131 -2h-182q-73 0 -158.5 -1.5t-208.5 -5.5zM899 1003q0 8 6 12
t16 4q21 0 30.5 -6t9.5 -19q0 -47 5 -76.5t15 -48.5q2 -3 3 -3.5t3 0.5q35 20 62.5 43.5t60.5 63.5q8 9 21 14t30 5q11 0 17 -4t6 -11q0 -20 -57 -53t-139 -63q-4 -2 -7 -1t-6 5q-32 39 -54 78.5t-22 59.5z" />
    <glyph glyph-name="ecaron" unicode="&#x11b;" horiz-adv-x="486" 
d="M33 0zM271 37q-42 -23 -72 -33t-57 -10q-30 0 -60.5 23.5t-40.5 55.5q-15 50 -2 104.5t52 122.5q28 48 80 98t105 80q32 17 64 26.5t60 9.5q43 0 66.5 -15t23.5 -41q0 -37 -49 -84.5t-157 -116.5q-64 -39 -99 -60t-68 -40q-1 -11 -1.5 -22t0.5 -24q10 -35 30.5 -52
t53.5 -17q20 0 46 6.5t48 16.5q23 11 62.5 42.5t60.5 58.5l9 -5q-28 -34 -69.5 -67t-85.5 -57zM295 479q-27 -18 -60.5 -59t-59.5 -90q-23 -41 -37.5 -82.5t-19.5 -80.5q47 28 87 52.5t73 45.5q63 41 93 68t39 50q2 5 3 10.5t1 11.5q0 31 -28 54.5t-65 23.5q-7 0 -13.5 -1
t-12.5 -3zM303 705q0 8 6 12t16 4q21 0 30.5 -6t9.5 -19q0 -47 5 -76.5t15 -48.5q2 -3 3 -3.5t3 0.5q35 20 62.5 43.5t60.5 63.5q8 9 21 14t30 5q11 0 17 -4t6 -11q0 -20 -57 -53t-139 -63q-4 -2 -7 -1t-6 5q-32 39 -54 78.5t-22 59.5z" />
    <glyph glyph-name="Gcircumflex" unicode="&#x11c;" horiz-adv-x="1016" 
d="M105 0zM602 -181q-29 -12 -73 -27.5t-48 -17.5q-7 -2 -8.5 2t5.5 7q59 23 84 41.5t43 44.5q33 51 88.5 142.5t90.5 154.5q-93 -76 -198 -122t-188 -46q-109 0 -182 51t-99 144q-22 82 -3.5 177t73.5 176q45 65 110.5 120.5t142.5 92.5q69 34 144.5 51.5t154.5 17.5
q77 0 148 -12.5t158 -41.5q2 -1 3.5 -2.5t1.5 -3.5q0 -12 -26.5 -34t-39.5 -22q-5 0 -12 1.5t-17 4.5q-13 4 -67 22t-88 28q-47 13 -86 19.5t-74 6.5q-51 0 -99.5 -11.5t-94.5 -34.5q-55 -28 -101.5 -71.5t-81.5 -98.5q-53 -85 -71.5 -177t1.5 -169q24 -90 95 -140t179 -51
q135 -2 241 83t169 247q-40 6 -72.5 8.5t-67.5 3.5q-45 0 -100.5 -4.5t-146.5 -18.5q-31 -5 -41 -6t-15 -1q-2 0 -3 1t-1 3q0 3 3 8t9 13q11 14 25 26t24 15q5 2 25 3.5t138 1.5q46 0 95.5 1t119.5 3q21 1 28 1h10q18 0 42 -24.5t21 -39.5q-60 -85 -137.5 -227t-124.5 -249
q-7 -16 -33.5 -33.5t-72.5 -36.5zM912 889q0 -8 -6 -12t-18 -4q-20 0 -29.5 6t-9.5 19q0 50 -4.5 78.5t-14.5 46.5q-1 2 -2.5 3t-3.5 0q-35 -20 -62.5 -43.5t-60.5 -63.5q-8 -9 -21 -14t-30 -5q-11 0 -17 4t-6 11q0 20 57 53t139 63q4 2 7 1t6 -5q32 -39 54 -78.5t22 -59.5z
" />
    <glyph glyph-name="gcircumflex" unicode="&#x11d;" horiz-adv-x="571" 
d="M0 0zM282 -259q-36 -61 -132.5 -100t-201.5 -37q-75 1 -129 22t-70 59q-6 14 -5.5 29.5t8.5 31.5q12 27 46.5 58.5t101.5 75.5q3 2 71.5 46.5t108.5 73.5h-3h-3q-4 0 -7.5 1t-6.5 2q-35 26 -36.5 99.5t30.5 150.5q30 72 94 134.5t143 98.5q28 13 54.5 20t47.5 7
q36 0 57.5 -14t68.5 -70q23 19 46 39.5t40 36.5l7 -4q-25 -30 -47.5 -60t-40.5 -58q-64 -101 -107 -195.5t-68 -187.5q-7 -26 -13.5 -53.5t-14.5 -75.5q-12 -62 -20 -87t-19 -43zM128 266q-24 -75 -24.5 -132t21.5 -83q58 39 168.5 144t173.5 188q-57 70 -80.5 88t-49.5 18
q-10 0 -20.5 -3t-22.5 -8q-51 -23 -97.5 -82t-68.5 -130zM-165 -307q16 -38 58.5 -58.5t104.5 -20.5q55 0 107 29.5t90 83.5q14 21 24.5 51t26.5 105q12 60 21 94.5t19 65.5q23 69 51 129.5t65 119.5q-72 -74 -160 -157.5t-142 -129.5q-104 -75 -132 -96.5t-49 -40.5
q-31 -27 -51 -50.5t-30 -45.5q-9 -20 -10 -40t7 -39zM571 565q0 -8 -6 -12t-18 -4q-20 0 -29.5 6t-9.5 19q0 50 -4.5 78.5t-14.5 46.5q-1 2 -2.5 3t-3.5 0q-35 -20 -62.5 -43.5t-60.5 -63.5q-8 -9 -21 -14t-30 -5q-11 0 -17 4t-6 11q0 20 57 53t139 63q4 2 7 1t6 -5
q32 -39 54 -78.5t22 -59.5z" />
    <glyph glyph-name="Gbreve" unicode="&#x11e;" horiz-adv-x="1016" 
d="M105 0zM602 -181q-29 -12 -73 -27.5t-48 -17.5q-7 -2 -8.5 2t5.5 7q59 23 84 41.5t43 44.5q33 51 88.5 142.5t90.5 154.5q-93 -76 -198 -122t-188 -46q-109 0 -182 51t-99 144q-22 82 -3.5 177t73.5 176q45 65 110.5 120.5t142.5 92.5q69 34 144.5 51.5t154.5 17.5
q77 0 148 -12.5t158 -41.5q2 -1 3.5 -2.5t1.5 -3.5q0 -12 -26.5 -34t-39.5 -22q-5 0 -12 1.5t-17 4.5q-13 4 -67 22t-88 28q-47 13 -86 19.5t-74 6.5q-51 0 -99.5 -11.5t-94.5 -34.5q-55 -28 -101.5 -71.5t-81.5 -98.5q-53 -85 -71.5 -177t1.5 -169q24 -90 95 -140t179 -51
q135 -2 241 83t169 247q-40 6 -72.5 8.5t-67.5 3.5q-45 0 -100.5 -4.5t-146.5 -18.5q-31 -5 -41 -6t-15 -1q-2 0 -3 1t-1 3q0 3 3 8t9 13q11 14 25 26t24 15q5 2 25 3.5t138 1.5q46 0 95.5 1t119.5 3q21 1 28 1h10q18 0 42 -24.5t21 -39.5q-60 -85 -137.5 -227t-124.5 -249
q-7 -16 -33.5 -33.5t-72.5 -36.5zM902 995q-25 -44 -63 -68t-84 -24q-43 0 -73 20t-40 55q-2 9 3.5 14.5t21.5 11.5q15 5 22 4t9 -8q7 -38 28.5 -58t55.5 -20t63 22t41 55q2 4 4.5 6t5.5 2q6 0 7.5 -4t-1.5 -8z" />
    <glyph glyph-name="gbreve" unicode="&#x11f;" horiz-adv-x="571" 
d="M0 0zM282 -259q-36 -61 -132.5 -100t-201.5 -37q-75 1 -129 22t-70 59q-6 14 -5.5 29.5t8.5 31.5q12 27 46.5 58.5t101.5 75.5q3 2 71.5 46.5t108.5 73.5h-3h-3q-4 0 -7.5 1t-6.5 2q-35 26 -36.5 99.5t30.5 150.5q30 72 94 134.5t143 98.5q28 13 54.5 20t47.5 7
q36 0 57.5 -14t68.5 -70q23 19 46 39.5t40 36.5l7 -4q-25 -30 -47.5 -60t-40.5 -58q-64 -101 -107 -195.5t-68 -187.5q-7 -26 -13.5 -53.5t-14.5 -75.5q-12 -62 -20 -87t-19 -43zM128 266q-24 -75 -24.5 -132t21.5 -83q58 39 168.5 144t173.5 188q-57 70 -80.5 88t-49.5 18
q-10 0 -20.5 -3t-22.5 -8q-51 -23 -97.5 -82t-68.5 -130zM-165 -307q16 -38 58.5 -58.5t104.5 -20.5q55 0 107 29.5t90 83.5q14 21 24.5 51t26.5 105q12 60 21 94.5t19 65.5q23 69 51 129.5t65 119.5q-72 -74 -160 -157.5t-142 -129.5q-104 -75 -132 -96.5t-49 -40.5
q-31 -27 -51 -50.5t-30 -45.5q-9 -20 -10 -40t7 -39zM561 671q-25 -44 -63 -68t-84 -24q-43 0 -73 20t-40 55q-2 9 3.5 14.5t21.5 11.5q15 5 22 4t9 -8q7 -38 28.5 -58t55.5 -20t63 22t41 55q2 4 4.5 6t5.5 2q6 0 7.5 -4t-1.5 -8z" />
    <glyph glyph-name="Gdotaccent" unicode="&#x120;" horiz-adv-x="1016" 
d="M105 0zM602 -181q-29 -12 -73 -27.5t-48 -17.5q-7 -2 -8.5 2t5.5 7q59 23 84 41.5t43 44.5q33 51 88.5 142.5t90.5 154.5q-93 -76 -198 -122t-188 -46q-109 0 -182 51t-99 144q-22 82 -3.5 177t73.5 176q45 65 110.5 120.5t142.5 92.5q69 34 144.5 51.5t154.5 17.5
q77 0 148 -12.5t158 -41.5q2 -1 3.5 -2.5t1.5 -3.5q0 -12 -26.5 -34t-39.5 -22q-5 0 -12 1.5t-17 4.5q-13 4 -67 22t-88 28q-47 13 -86 19.5t-74 6.5q-51 0 -99.5 -11.5t-94.5 -34.5q-55 -28 -101.5 -71.5t-81.5 -98.5q-53 -85 -71.5 -177t1.5 -169q24 -90 95 -140t179 -51
q135 -2 241 83t169 247q-40 6 -72.5 8.5t-67.5 3.5q-45 0 -100.5 -4.5t-146.5 -18.5q-31 -5 -41 -6t-15 -1q-2 0 -3 1t-1 3q0 3 3 8t9 13q11 14 25 26t24 15q5 2 25 3.5t138 1.5q46 0 95.5 1t119.5 3q21 1 28 1h10q18 0 42 -24.5t21 -39.5q-60 -85 -137.5 -227t-124.5 -249
q-7 -16 -33.5 -33.5t-72.5 -36.5zM764 927q-15 0 -20.5 1.5t-10.5 6.5q-7 13 10.5 51t34.5 46q5 3 18 5t25 2q13 0 26.5 -3t15.5 -7q3 -20 -22 -53t-44 -43q-6 -3 -14.5 -4.5t-18.5 -1.5z" />
    <glyph glyph-name="gdotaccent" unicode="&#x121;" horiz-adv-x="571" 
d="M0 0zM282 -259q-36 -61 -132.5 -100t-201.5 -37q-75 1 -129 22t-70 59q-6 14 -5.5 29.5t8.5 31.5q12 27 46.5 58.5t101.5 75.5q3 2 71.5 46.5t108.5 73.5h-3h-3q-4 0 -7.5 1t-6.5 2q-35 26 -36.5 99.5t30.5 150.5q30 72 94 134.5t143 98.5q28 13 54.5 20t47.5 7
q36 0 57.5 -14t68.5 -70q23 19 46 39.5t40 36.5l7 -4q-25 -30 -47.5 -60t-40.5 -58q-64 -101 -107 -195.5t-68 -187.5q-7 -26 -13.5 -53.5t-14.5 -75.5q-12 -62 -20 -87t-19 -43zM128 266q-24 -75 -24.5 -132t21.5 -83q58 39 168.5 144t173.5 188q-57 70 -80.5 88t-49.5 18
q-10 0 -20.5 -3t-22.5 -8q-51 -23 -97.5 -82t-68.5 -130zM-165 -307q16 -38 58.5 -58.5t104.5 -20.5q55 0 107 29.5t90 83.5q14 21 24.5 51t26.5 105q12 60 21 94.5t19 65.5q23 69 51 129.5t65 119.5q-72 -74 -160 -157.5t-142 -129.5q-104 -75 -132 -96.5t-49 -40.5
q-31 -27 -51 -50.5t-30 -45.5q-9 -20 -10 -40t7 -39zM423 603q-15 0 -20.5 1.5t-10.5 6.5q-7 13 10.5 51t34.5 46q5 3 18 5t25 2q13 0 26.5 -3t15.5 -7q3 -20 -22 -53t-44 -43q-6 -3 -14.5 -4.5t-18.5 -1.5z" />
    <glyph glyph-name="uni0122" unicode="&#x122;" horiz-adv-x="1016" 
d="M105 0zM602 -181q-29 -12 -73 -27.5t-48 -17.5q-7 -2 -8.5 2t5.5 7q59 23 84 41.5t43 44.5q33 51 88.5 142.5t90.5 154.5q-93 -76 -198 -122t-188 -46q-109 0 -182 51t-99 144q-22 82 -3.5 177t73.5 176q45 65 110.5 120.5t142.5 92.5q69 34 144.5 51.5t154.5 17.5
q77 0 148 -12.5t158 -41.5q2 -1 3.5 -2.5t1.5 -3.5q0 -12 -26.5 -34t-39.5 -22q-5 0 -12 1.5t-17 4.5q-13 4 -67 22t-88 28q-47 13 -86 19.5t-74 6.5q-51 0 -99.5 -11.5t-94.5 -34.5q-55 -28 -101.5 -71.5t-81.5 -98.5q-53 -85 -71.5 -177t1.5 -169q24 -90 95 -140t179 -51
q135 -2 241 83t169 247q-40 6 -72.5 8.5t-67.5 3.5q-45 0 -100.5 -4.5t-146.5 -18.5q-31 -5 -41 -6t-15 -1q-2 0 -3 1t-1 3q0 3 3 8t9 13q11 14 25 26t24 15q5 2 25 3.5t138 1.5q46 0 95.5 1t119.5 3q21 1 28 1h10q18 0 42 -24.5t21 -39.5q-60 -85 -137.5 -227t-124.5 -249
q-7 -16 -33.5 -33.5t-72.5 -36.5zM399 -145h-2q-8 -10 -18 -16t-20 -6q-9 0 -16 3.5t-11 10.5q-6 10 3.5 34t21.5 35q5 4 17 7t24 3q11 0 20.5 -3.5t13.5 -8.5q2 -2 2.5 -6.5t0.5 -11.5q0 -54 -40.5 -99t-108.5 -68q-2 -1 -3 1.5t1 3.5q43 15 73.5 46.5t41.5 74.5z" />
    <glyph glyph-name="uni0123" unicode="&#x123;" horiz-adv-x="571" 
d="M0 0zM282 -259q-36 -61 -132.5 -100t-201.5 -37q-75 1 -129 22t-70 59q-6 14 -5.5 29.5t8.5 31.5q12 27 46.5 58.5t101.5 75.5q3 2 71.5 46.5t108.5 73.5h-3h-3q-4 0 -7.5 1t-6.5 2q-35 26 -36.5 99.5t30.5 150.5q30 72 94 134.5t143 98.5q28 13 54.5 20t47.5 7
q36 0 57.5 -14t68.5 -70q23 19 46 39.5t40 36.5l7 -4q-25 -30 -47.5 -60t-40.5 -58q-64 -101 -107 -195.5t-68 -187.5q-7 -26 -13.5 -53.5t-14.5 -75.5q-12 -62 -20 -87t-19 -43zM128 266q-24 -75 -24.5 -132t21.5 -83q58 39 168.5 144t173.5 188q-57 70 -80.5 88t-49.5 18
q-10 0 -20.5 -3t-22.5 -8q-51 -23 -97.5 -82t-68.5 -130zM-165 -307q16 -38 58.5 -58.5t104.5 -20.5q55 0 107 29.5t90 83.5q14 21 24.5 51t26.5 105q12 60 21 94.5t19 65.5q23 69 51 129.5t65 119.5q-72 -74 -160 -157.5t-142 -129.5q-104 -75 -132 -96.5t-49 -40.5
q-31 -27 -51 -50.5t-30 -45.5q-9 -20 -10 -40t7 -39zM427 662h2q8 10 18 16t20 6q9 0 16 -3.5t11 -10.5q6 -10 -3.5 -34t-21.5 -35q-5 -4 -17 -7t-24 -3q-11 0 -20.5 3.5t-13.5 8.5q-1 2 -2 6.5t-1 11.5q0 54 40.5 99t108.5 68q2 1 3 -1.5t-1 -3.5q-43 -15 -73.5 -46.5
t-41.5 -74.5z" />
    <glyph glyph-name="Hcircumflex" unicode="&#x124;" horiz-adv-x="1337" 
d="M49 0zM415 -44q-36 -21 -67.5 -33.5t-47.5 -12.5q-60 0 -115.5 29.5t-92.5 80.5q-39 55 -43 116t30 111q54 80 157.5 137.5t207.5 57.5q55 0 134 -1t162 -2q23 39 44 76t38 68q29 53 42.5 90t12.5 61q0 13 -8.5 24t-22.5 15q-23 -8 -78.5 -48.5t-82.5 -67.5l-6 6
q33 33 93.5 82t100.5 73q6 4 24.5 3t22.5 -4q15 -11 25 -33.5t11 -42.5q2 -22 -13 -59.5t-56 -109.5l-29 -50.5t-49 -83.5q30 -1 111 -2t214 -2q21 35 43 71t40 64q81 123 208.5 201t249.5 85q52 3 163 -14.5t150 -29.5q4 -1 6.5 -3.5t2.5 -5.5q0 -11 -22.5 -28.5
t-38.5 -17.5q-12 0 -37 4.5t-92 18.5q-98 22 -142.5 29t-72.5 7q-89 0 -160 -58t-149 -187q-23 -37 -43 -70.5t-38 -65.5q76 0 132 -0.5t77 -1.5q2 0 3.5 -1t1.5 -3q0 -5 -14 -18t-29 -22q-6 -4 -11.5 -6t-11.5 -3q-10 -1 -55.5 -2t-126.5 -1q-19 -33 -38.5 -68t-38.5 -71
q-29 -52 -42 -89t-12 -62q1 -13 9.5 -23.5t22.5 -14.5q22 8 78 48.5t83 67.5l6 -7q-40 -38 -98.5 -85t-95.5 -69q-7 -4 -25.5 -3t-21.5 4q-15 11 -25.5 33.5t-11.5 42.5q-2 20 11.5 54t57.5 115q37 65 50 87t24 41q-47 1 -110 4.5t-207 13.5q-41 -69 -80.5 -133t-53.5 -85
q-45 -68 -105.5 -124.5t-129.5 -96.5zM384 417q-83 0 -143 -40t-94 -118q-21 -46 -15.5 -102t36.5 -105q30 -50 77 -78t101 -28q20 0 34.5 3.5t29.5 12.5q34 20 75.5 70.5t97.5 142.5q27 45 62.5 104.5t71.5 120.5q-133 10 -207.5 13.5t-125.5 3.5zM1386 889q0 -8 -6 -12
t-18 -4q-20 0 -29.5 6t-9.5 19q0 50 -4.5 78.5t-14.5 46.5q-1 2 -2.5 3t-3.5 0q-35 -20 -62.5 -43.5t-60.5 -63.5q-8 -9 -21 -14t-30 -5q-11 0 -17 4t-6 11q0 20 57 53t139 63q4 2 7 1t6 -5q32 -39 54 -78.5t22 -59.5z" />
    <glyph glyph-name="hcircumflex" unicode="&#x125;" horiz-adv-x="600" 
d="M0 0zM23 7q-7 -1 -11 -1h-7q-22 0 -28 10.5t2 32.5q13 21 43.5 74.5t110.5 197.5q83 148 114 202.5t44 74.5q38 62 103.5 121.5t141.5 99.5q68 36 139 54.5t142 18.5q42 0 71.5 -1.5t44.5 -3.5q6 -1 9 -4.5t3 -8.5q0 -15 -16.5 -36t-29.5 -21q-15 0 -35 1.5t-65 5.5
q-60 6 -92 8t-60 2q-38 0 -62 -5t-46 -17q-38 -20 -79 -71t-96 -145q-36 -60 -115 -203t-98 -178q85 105 200 197.5t166 100.5q51 -11 40 -75t-84 -186q-7 -12 -22 -38.5t-23 -39.5q-17 -31 -24 -50.5t-6 -33.5q1 -15 8.5 -25.5t20.5 -14.5q26 9 62 33.5t62 51.5l6 -7
q-39 -38 -79.5 -70t-78.5 -55q-3 -1 -7.5 -2t-10.5 -1q-9 0 -17 1t-10 3q-16 12 -26.5 35.5t-11.5 43.5q-1 14 8 37t29 58q9 17 27.5 47t25.5 42q51 88 65 134.5t-8 67.5q-55 -12 -160.5 -107t-181.5 -206q-12 -17 -24.5 -39t-36.5 -64q-11 -21 -16 -29.5t-9 -15.5h-4t-8 -1
zM665 913q0 -8 -6 -12t-18 -4q-20 0 -29.5 6t-9.5 19q0 50 -4.5 78.5t-14.5 46.5q-1 2 -2.5 3t-3.5 0q-35 -20 -62.5 -43.5t-60.5 -63.5q-8 -9 -21 -14t-30 -5q-11 0 -17 4t-6 11q0 20 57 53t139 63q4 2 7 1t6 -5q32 -39 54 -78.5t22 -59.5z" />
    <glyph glyph-name="Hbar" unicode="&#x126;" horiz-adv-x="1337" 
d="M92 20q-39 55 -43 116t30 111q54 80 157.5 137.5t207.5 57.5q55 0 134 -1t162 -2q23 39 44 76t38 68q2 5 3.5 7.5t3.5 4.5h-38.5h-38.5q-57 0 -68 29t28 68q31 31 76 66.5t85 59.5q6 4 24.5 3t22.5 -4q15 -11 25 -33.5t11 -42.5t-11 -53t-40 -83q30 1 65 1h91h91.5h91.5
q82 108 200.5 175.5t230.5 73.5q40 3 162 -16t151 -28q4 -1 6.5 -3.5t2.5 -5.5q0 -12 -22.5 -29t-38.5 -17q-12 0 -37 4.5t-92 18.5q-98 22 -142.5 29t-72.5 7q-83 0 -149 -49.5t-137 -158.5q82 1 141.5 2.5t100.5 3.5q6 -3 1.5 -12t-12.5 -11q-48 3 -107 4t-131 1
q-1 -2 -2 -3.5t-4 -5.5q-4 -6 -6 -9.5t-4 -6.5q-19 -31 -39.5 -64.5t-42.5 -71.5q76 0 133 -0.5t77 -1.5q2 0 3.5 -1t1.5 -3q0 -5 -14 -18t-29 -22q-6 -4 -11.5 -6t-11.5 -3q-10 -1 -55.5 -2t-126.5 -1q-19 -33 -38.5 -68t-38.5 -71q-29 -52 -42 -89t-12 -62
q1 -13 9.5 -23.5t22.5 -14.5q22 8 78 48.5t83 67.5l6 -7q-40 -38 -98.5 -85t-95.5 -69q-7 -4 -25.5 -3t-21.5 4q-15 11 -25.5 33.5t-11.5 42.5q-2 20 11.5 54t57.5 115q15 28 41.5 74t31.5 54q-46 1 -109 4.5t-207 13.5q-41 -69 -80.5 -133t-53.5 -85q-45 -68 -105.5 -124.5
t-129.5 -96.5q-36 -21 -67.5 -33.5t-47.5 -12.5q-60 0 -115.5 29.5t-92.5 80.5zM846 773q-24 -9 -62 -34.5t-64 -51.5q-34 -34 -25 -58.5t57 -24.5h40.5h40.5q24 47 34.5 78t9.5 52q0 13 -8.5 24t-22.5 15zM894 584l-4.5 -7.5t-2.5 -4.5l-29 -50.5t-49 -83.5q30 -1 111 -2
t214 -2q32 54 52.5 87t30.5 48q7 11 11 16.5t8 10.5h-89h-89h-79h-79q-1 -2 -2.5 -4.5t-3.5 -7.5zM384 417q-83 0 -143 -40t-94 -118q-21 -46 -15.5 -102t36.5 -105q30 -50 77 -78t101 -28q20 0 34.5 3.5t29.5 12.5q34 20 75.5 70.5t97.5 142.5q27 45 62.5 104.5t71.5 120.5
q-133 10 -207.5 13.5t-125.5 3.5z" />
    <glyph glyph-name="hbar" unicode="&#x127;" horiz-adv-x="600" 
d="M23 7q-7 -1 -11 -1h-7q-22 0 -28 10.5t2 32.5q13 21 43.5 74.5t110.5 197.5q83 148 114 202.5t44 74.5l5 7.5t8 12.5q4 6 6 8.5t4 5.5q-64 -1 -93 -2t-49 -3q-5 2 -4 12t7 11q18 -2 46.5 -3t101.5 -4q42 53 97 98.5t116 77.5q68 36 139 54.5t142 18.5q42 0 71.5 -1.5
t44.5 -3.5q6 -1 9 -4.5t3 -8.5q0 -15 -16.5 -36t-29.5 -21q-15 0 -35 1.5t-65 5.5q-60 6 -92 8t-60 2q-38 0 -62 -5t-46 -17q-33 -18 -68.5 -58.5t-78.5 -111.5h11q42 0 95.5 2.5t93.5 5.5q5 -1 3.5 -11t-6.5 -12q-35 3 -86 4.5t-100 1.5h-17l-13.5 -22.5t-8.5 -14.5
q-36 -60 -115 -203t-98 -178q85 105 200 197.5t166 100.5q51 -11 40 -75t-84 -186q-7 -12 -22 -38.5t-23 -39.5q-17 -31 -24 -50.5t-6 -33.5q1 -15 8.5 -25.5t20.5 -14.5q26 9 62 33.5t62 51.5l6 -7q-39 -38 -79.5 -70t-78.5 -55q-3 -1 -7.5 -2t-10.5 -1q-9 0 -17 1t-10 3
q-16 12 -26.5 35.5t-11.5 43.5q-1 14 8 37t29 58q9 17 27.5 47t25.5 42q51 88 65 134.5t-8 67.5q-55 -12 -160.5 -107t-181.5 -206q-12 -17 -24.5 -39t-36.5 -64q-11 -21 -16 -29.5t-9 -15.5h-4t-8 -1z" />
    </font>
</defs>
</svg>
