<svg xmlns="http://www.w3.org/2000/svg">
<defs>
<font id="OggRegular" horiz-adv-x="516" >
  <font-face 
    font-family="Ogg"
    font-weight="400"
    font-stretch="normal"
    units-per-em="1000"
    panose-1="2 9 5 4 8 7 6 3 2 3"
    ascent="800"
    descent="-200"
    x-height="500"
    cap-height="693"
    bbox="-254 -326.727 1334 1001"
    underline-thickness="50"
    underline-position="-150"
    unicode-range="U+000D-FB01"
  />
<missing-glyph horiz-adv-x="1414" 
d="M1229 695q53 -55 79 -152t26 -236q0 -126 -32.5 -230.5t-84.5 -158.5q-62 -62 -199.5 -107t-293.5 -45q-185 0 -342 46t-215 113q-45 51 -66 142t-21 237q0 114 28.5 216.5t75.5 155.5q67 77 202.5 117.5t327.5 40.5q189 0 322.5 -36t192.5 -103zM253 -6
q-18 -19 -32.5 -25.5t-32.5 -6.5q-3 0 -9 1.5t-15 4.5q4 -9 8.5 -16.5t10.5 -14.5q46 -51 196.5 -84t340.5 -33q162 0 299.5 33t181.5 76q37 38 56 134.5t19 245.5q0 182 -13 259.5t-48 114.5q-44 52 -172 78.5t-331 26.5q-176 0 -322 -34.5t-194 -87.5q-31 -36 -46.5 -127
t-15.5 -232v-64q44 31 62.5 39.5t35.5 8.5t35 -2.5t52 -11.5q32 -8 48 -10.5t31 -2.5q12 0 20.5 6.5t9.5 16.5q-18 -2 -37.5 6.5t-26.5 24.5q25 -9 47.5 -1.5t29.5 26.5q22 -11 40 -3t24 30q26 -2 42 7.5t22 31.5q29 -6 50 16.5t22 23.5q17 -1 39.5 6.5t43.5 22.5q5 2 10 5
l15 9l15 9t10 5q8 1 14 0t8 -4q-3 2 -12 -1.5t-13 -9.5q-32 -30 -46 -40.5t-29 -18.5q-26 -15 -40.5 -35.5t-21.5 -51.5q-4 -16 -11 -31t-18 -31q-5 -6 -10.5 -8.5t-13.5 -3.5q-21 -3 -25 -5t-5 -5q-1 -7 6 -12t17 -5q9 -1 25.5 -0.5t19.5 0.5q7 0 11 6t4 17q0 3 3.5 7
t15.5 13q15 11 20.5 17t7.5 12q2 9 0.5 16t-6.5 13q7 9 17 15t28 10q20 5 32.5 13t21.5 22q18 22 27.5 49t4.5 46q17 -10 33.5 -15t37.5 -5q17 0 26.5 4t14.5 12q18 -2 29.5 3t15.5 17q3 5 1.5 10t-6.5 6q19 -1 35 5.5t16 14.5q0 1 -3 1.5t-8 0.5q-6 0 -12.5 0.5t-17.5 3.5
q-10 2 -15 2.5t-10 0.5q-11 0 -20 -2.5t-15 -6.5l-2 2q5 8 14 11.5t28 3.5q4 0 8.5 -0.5t15.5 -1.5q14 -2 21.5 -2.5t14.5 -0.5q14 0 25 4.5t18 12.5q-15 0 -30 1t-41 5q-22 3 -32.5 4t-20.5 1q-17 0 -30.5 -10t-20.5 -28q-9 -17 -26.5 -20t-35.5 8q-7 5 -14 8t-14 3

<glyph glyph-name="uniFB01" unicode="fi" horiz-adv-x="533" 
d="M81 1q-28 -1 -41 -1h-22q-6 0 -6 4.5t6 4.5q39 0 48.5 14t9.5 87q0 154 -0.5 236t-0.5 91v4v4h-20.5h-20.5q-8 0 -11 1.5t-3 4.5l35 48h27q25 108 114 189t179 81q39 0 70.5 -8t31.5 -18q0 -16 -16.5 -33.5t-37.5 -17.5q-8 0 -18 1.5t-33 5.5q-35 7 -55 9.5t-38 2.5
q-64 0 -96.5 -53t-32.5 -159h17.5h28.5q21 1 32 1h21h10q25 0 30 -0.5t5 -1.5q0 -4 -22 -27.5t-25 -26.5q-16 1 -34.5 1h-62.5v-135.5t1 -199.5q0 -33 1.5 -49t3.5 -25q4 -16 14 -21.5t45 -5.5q6 0 6 -4.5t-6 -4.5h-22.5t-42.5 1q-18 1 -25 1h-10h-10t-24 -1zM386 1
q-29 -1 -42.5 -1h-22.5q-6 0 -6 4.5t6 4.5q40 0 50.5 15.5t10.5 85.5v267q0 50 -10.5 63.5t-53.5 4.5q-6 -1 -7.5 3t4.5 5q33 7 62 20.5t63 36.5q3 2 10.5 -1t7.5 -6v-393q0 -70 10.5 -85.5t49.5 -15.5q6 0 6 -4.5t-6 -4.5h-22t-40 1q-18 1 -24.5 1h-9.5h-10t-26 -1zM75 437
v-1v-1v2v1v0v-1z" />
    <glyph glyph-name="f_b" unicode="fb" horiz-adv-x="905" 
d="M75 445h-20.5h-20.5q-8 0 -11 1.5t-3 4.5l35 48h26q22 109 100 191.5t158 82.5q16 0 33 -2t31 -5q15 6 24.5 15.5t17.5 27.5q3 2 6.5 1t3.5 -4v-404q36 51 89.5 79.5t110.5 28.5q88 0 149.5 -67.5t61.5 -167.5q0 -118 -86 -201.5t-200 -83.5q-42 0 -82 16t-70 44
q-21 -29 -30 -40t-13 -11q-2 0 -3.5 2.5t-1.5 6.5v673v5.5v5.5q-21 14 -53 22.5t-68 8.5q-54 0 -81.5 -56.5t-27.5 -167.5q15 1 32.5 1h56.5h10q25 0 30 -0.5t5 -1.5q0 -4 -22 -27.5t-25 -26.5q-16 1 -32.5 1h-54.5v-135.5t1 -199.5q0 -33 1.5 -49t3.5 -25q4 -16 14 -21.5
t45 -5.5q6 0 6 -4.5t-6 -4.5h-22.5t-42.5 1q-18 1 -25 1h-10h-10t-24 -1q-28 -1 -41 -1h-22q-6 0 -6 4.5t6 4.5q39 0 48.5 14t9.5 87q0 154 -0.5 236t-0.5 92v3.5v3.5zM792 239q0 101 -51.5 169.5t-134.5 68.5q-43 0 -84.5 -23.5t-66.5 -62.5v-285q46 -49 87 -71.5t80 -22.5
q82 0 126 59t44 168zM75 438v-3v1.5v1.5z" />
    <glyph glyph-name="f_h" unicode="fh" horiz-adv-x="868" 
d="M75 445h-20.5h-20.5q-8 0 -11 1.5t-3 4.5l35 48h26q22 109 100 191.5t158 82.5q16 0 33 -2t31 -5q15 6 24.5 15.5t17.5 27.5q3 2 6.5 1t3.5 -4v-402q43 55 87 80.5t96 25.5q82 0 122.5 -51t40.5 -152v-257q0 -24 9 -33t39 -8q6 0 6 -4.5t-6 -4.5h-8t-24 1q-28 0 -40 0.5
t-17 0.5h-9t-22 -1q-24 -1 -36 -1h-21q-6 0 -6 4.5t6 4.5q30 0 38.5 7.5t11.5 28.5q1 11 2 28t1 44v200q0 79 -31.5 121t-88.5 42q-45 0 -79 -20t-71 -69v-382h61q6 0 6 -4.5t-6 -4.5h-7.5t-22.5 1q-27 0 -38.5 0.5t-16.5 0.5h-9.5t-24.5 -1q-27 -1 -40 -1h-22q-6 0 -6 4.5
t6 4.5q30 0 37.5 16t7.5 94v562v5.5v5.5q-21 14 -53 22.5t-68 8.5q-54 0 -81.5 -56.5t-27.5 -167.5q15 1 32.5 1h56.5h10q25 0 30 -0.5t5 -1.5q0 -4 -22 -27.5t-25 -26.5q-16 1 -32.5 1h-54.5v-135.5t1 -199.5q0 -33 1.5 -49t3.5 -25q4 -16 14 -21.5t45 -5.5q6 0 6 -4.5
t-6 -4.5h-22.5t-42.5 1q-18 1 -25 1h-10h-10t-24 -1q-28 -1 -41 -1h-22q-6 0 -6 4.5t6 4.5q39 0 48.5 14t9.5 87q0 154 -0.5 236t-0.5 92v3.5v3.5zM75 438v-3v1.5v1.5z" />
    <glyph glyph-name="f_hbar" unicode="f&#x127;" horiz-adv-x="868" 
d="M75 445h-20.5h-20.5q-8 0 -11 1.5t-3 4.5l35 48h26q22 109 100 191.5t158 82.5q16 0 33 -2t31 -5q15 6 24.5 15.5t17.5 27.5q3 2 6.5 1t3.5 -4v-190h3q46 0 86 1t64 3q3 -3 3 -12.5t-3 -10.5q-26 2 -65.5 3t-83.5 1h-4v-197q43 55 87 80.5t96 25.5q82 0 122.5 -51
t40.5 -152v-257q0 -24 9 -33t39 -8q6 0 6 -4.5t-6 -4.5h-8t-24 1q-28 0 -40 0.5t-17 0.5h-9t-22 -1q-24 -1 -36 -1h-21q-6 0 -6 4.5t6 4.5q30 0 38.5 7.5t11.5 28.5q1 11 2 28t1 44v200q0 79 -31.5 121t-88.5 42q-45 0 -79 -20t-71 -69v-382h61q6 0 6 -4.5t-6 -4.5h-7.5
t-22.5 1q-27 0 -38.5 0.5t-16.5 0.5h-9.5t-24.5 -1q-27 -1 -40 -1h-22q-6 0 -6 4.5t6 4.5q30 0 37.5 16t7.5 94v481q-22 0 -42.5 -1t-36.5 -2q-3 1 -3 10.5t3 12.5q14 -1 35 -2t44 -1v64v5.5v5.5q-21 14 -53 22.5t-68 8.5q-54 0 -81.5 -56.5t-27.5 -167.5q15 1 32.5 1h56.5
h10q25 0 30 -0.5t5 -1.5q0 -4 -22 -27.5t-25 -26.5q-16 1 -32.5 1h-54.5v-135.5t1 -199.5q0 -33 1.5 -49t3.5 -25q4 -16 14 -21.5t45 -5.5q6 0 6 -4.5t-6 -4.5h-22.5t-42.5 1q-18 1 -25 1h-10h-10t-24 -1q-28 -1 -41 -1h-22q-6 0 -6 4.5t6 4.5q39 0 48.5 14t9.5 87
q0 154 -0.5 236t-0.5 92v3.5v3.5zM75 438v-3v1.5v1.5z" />
    <glyph glyph-name="f_iacute" unicode="f&#xed;" horiz-adv-x="533" 
d="M81 1q-28 -1 -41 -1h-22q-6 0 -6 4.5t6 4.5q39 0 48.5 14t9.5 87q0 156 -0.5 238t-0.5 90v7h-41q-8 0 -11 1.5t-3 4.5l35 48h26q21 108 98.5 189t155.5 81q39 0 70.5 -8t31.5 -18q0 -16 -16.5 -33.5t-37.5 -17.5q-8 0 -18 1.5t-33 5.5q-35 7 -55 9.5t-38 2.5
q-45 0 -67 -53t-22 -159h17.5h28.5q21 1 32 1h21h10q25 0 30 -0.5t5 -1.5q0 -4 -22 -27.5t-25 -26.5q-16 1 -34.5 1h-62.5v-135.5t1 -199.5q0 -33 1.5 -49t3.5 -25q4 -16 14 -21.5t45 -5.5q6 0 6 -4.5t-6 -4.5h-22.5t-42.5 1q-18 1 -25 1h-10h-10t-24 -1zM500 655
q-53 -38 -79 -59.5t-40 -36.5q-1 -1 -2 -1.5t-2 -0.5t-2.5 1.5t-1.5 2.5t0.5 1.5l2.5 2.5q16 15 37.5 42.5t57.5 79.5q11 14 14 18.5t4 5.5q6 6 13.5 9.5t14.5 3.5q8 0 16 -8t8 -15q0 -6 -3 -13t-7 -10q-2 -2 -8 -6.5t-23 -16.5zM386 1q-29 -1 -42.5 -1h-22.5q-6 0 -6 4.5
t6 4.5q40 0 50.5 15.5t10.5 85.5v267q0 50 -10.5 63.5t-53.5 4.5q-6 -1 -7.5 3t4.5 5q33 7 62 20.5t63 36.5q3 2 10.5 -1t7.5 -6v-393q0 -70 10.5 -85.5t49.5 -15.5q6 0 6 -4.5t-6 -4.5h-22t-40 1q-18 1 -24.5 1h-9.5h-10t-26 -1z" />
    <glyph glyph-name="f_imacron" unicode="f&#x12b;" horiz-adv-x="533" 
d="M81 1q-28 -1 -41 -1h-22q-6 0 -6 4.5t6 4.5q39 0 48.5 14t9.5 87q0 154 -0.5 236t-0.5 91v8h-41q-8 0 -11 1.5t-3 4.5l35 48h27q25 108 114 189t179 81q39 0 70.5 -8t31.5 -18q0 -16 -16.5 -33.5t-37.5 -17.5q-8 0 -18 1.5t-33 5.5q-35 7 -55 9.5t-38 2.5
q-64 0 -96.5 -53t-32.5 -159h17.5h28.5q21 1 32 1h21h10q25 0 30 -0.5t5 -1.5q0 -4 -22 -27.5t-25 -26.5q-16 1 -34.5 1h-62.5v-135.5t1 -199.5q0 -33 1.5 -49t3.5 -25q4 -16 14 -21.5t45 -5.5q6 0 6 -4.5t-6 -4.5h-22.5t-42.5 1q-18 1 -25 1h-10h-10t-24 -1zM363 630
q16 -1 27.5 -1h23.5h1h54t36 1q25 1 30 0.5t5 -1.5q0 -4 -9 -14t-37 -37h-4h-12q-22 1 -36 1h-26q-21 0 -44.5 -1t-31.5 -1q-20 -1 -27.5 -0.5t-7.5 2.5q0 4 9 14t37 37h3.5h8.5zM386 1q-29 -1 -42.5 -1h-22.5q-6 0 -6 4.5t6 4.5q40 0 50.5 15.5t10.5 85.5v267
q0 50 -10.5 63.5t-53.5 4.5q-6 -1 -7.5 3t4.5 5q33 7 62 20.5t63 36.5q3 2 10.5 -1t7.5 -6v-393q0 -70 10.5 -85.5t49.5 -15.5q6 0 6 -4.5t-6 -4.5h-22t-40 1q-18 1 -24.5 1h-9.5h-10t-26 -1z" />
    <glyph glyph-name="f_j" unicode="fj" horiz-adv-x="532" 
d="M81 1q-28 -1 -41 -1h-22q-6 0 -6 4.5t6 4.5q39 0 48.5 14t9.5 87q0 154 -0.5 236t-0.5 91v4v4h-20.5h-20.5q-8 0 -11 1.5t-3 4.5l35 48h27q25 108 114 189t179 81q39 0 70.5 -8t31.5 -18q0 -16 -16.5 -33.5t-37.5 -17.5q-8 0 -18 1.5t-33 5.5q-35 7 -55 9.5t-38 2.5
q-64 0 -96.5 -53t-32.5 -159h17.5h28.5q21 1 32 1h21h10q25 0 30 -0.5t5 -1.5q0 -4 -22 -27.5t-25 -26.5q-16 1 -34.5 1h-62.5v-135.5t1 -199.5q0 -33 1.5 -49t3.5 -25q4 -16 14 -21.5t45 -5.5q6 0 6 -4.5t-6 -4.5h-22.5t-42.5 1q-18 1 -25 1h-10h-10t-24 -1zM352 -177
q-37 -45 -62 -64.5t-45 -19.5q-17 0 -28.5 6t-11.5 14q0 19 17 36.5t40 17.5q5 0 36.5 -0.5t43.5 11.5q18 21 25 42.5t11 52.5q2 21 3.5 47t1.5 56v355q0 49 -11.5 63.5t-54.5 4.5q-6 -1 -7.5 3t4.5 5q33 7 62 20.5t63 36.5q3 2 10.5 -1t7.5 -6l1 -454q-2 -54 -25 -104.5
t-81 -121.5zM75 437v-1v-1v2v1v0v-1z" />
    <glyph glyph-name="f_k" unicode="fk" horiz-adv-x="862" 
d="M75 445h-20.5h-20.5q-8 0 -11 1.5t-3 4.5l35 48h26q22 109 100 191.5t158 82.5q16 0 33 -2t31 -5q15 6 24.5 15.5t17.5 27.5q3 2 6.5 1t3.5 -4v-619l157 162q30 31 47.5 57.5t19.5 46.5q2 18 -9 27.5t-33 9.5q-5 0 -5 4.5t5 4.5q8 0 22 -0.5t44 -0.5q18 -1 24.5 -1h9.5
q4 0 18.5 0.5t51.5 0.5q23 1 30 1h9q5 0 5 -4.5t-5 -4.5q-45 0 -98.5 -34.5t-128.5 -112.5l-12 -13l96 -154q54 -86 94 -126.5t73 -40.5q6 0 6.5 -4.5t-6.5 -4.5h-94q-12 0 -21 2.5t-17 7.5q-18 11 -40 41t-58 92l-82 137l-103 -105v-166h61q6 0 6 -4.5t-6 -4.5h-7.5
t-22.5 1q-27 0 -38.5 0.5t-16.5 0.5h-9.5t-24.5 -1q-27 -1 -40 -1h-22q-6 0 -6 4.5t6 4.5q30 0 37.5 16t7.5 94v562v5.5v5.5q-21 14 -53 22.5t-68 8.5q-54 0 -81.5 -56.5t-27.5 -167.5q15 1 32.5 1h56.5h10q25 0 30 -0.5t5 -1.5q0 -4 -22 -27.5t-25 -26.5q-16 1 -32.5 1
h-54.5v-135.5t1 -199.5q0 -33 1.5 -49t3.5 -25q4 -16 14 -21.5t45 -5.5q6 0 6 -4.5t-6 -4.5h-22.5t-42.5 1q-18 1 -25 1h-10h-10t-24 -1q-28 -1 -41 -1h-22q-6 0 -6 4.5t6 4.5q39 0 48.5 14t9.5 87q0 154 -0.5 236t-0.5 92v3.5v3.5zM75 438v-3v1.5v1.5z" />
    <glyph glyph-name="f_l" unicode="fl" horiz-adv-x="527" 
d="M75 445h-20.5h-20.5q-8 0 -11 1.5t-3 4.5l35 48h26q22 109 100 191.5t158 82.5q16 0 33 -2t31 -5q15 6 24.5 15.5t17.5 27.5q3 2 6.5 1t3.5 -4v-687q0 -77 8.5 -93.5t50.5 -16.5q6 0 6 -4.5t-6 -4.5h-20.5t-33.5 1q-14 1 -20 1h-9h-9.5t-24.5 -1q-27 -1 -40 -1h-22
q-6 0 -6 4.5t6 4.5q30 0 37.5 16t7.5 94v562v5.5v5.5q-21 14 -53 22.5t-68 8.5q-54 0 -81.5 -56.5t-27.5 -167.5q15 1 32.5 1h56.5h10q25 0 30 -0.5t5 -1.5q0 -4 -22 -27.5t-25 -26.5q-16 1 -32.5 1h-54.5v-135.5t1 -199.5q0 -33 1.5 -49t3.5 -25q4 -16 14 -21.5t45 -5.5
q6 0 6 -4.5t-6 -4.5h-22.5t-42.5 1q-18 1 -25 1h-10h-10t-24 -1q-28 -1 -41 -1h-22q-6 0 -6 4.5t6 4.5q39 0 48.5 14t9.5 87q0 154 -0.5 236t-0.5 92v3.5v3.5zM75 438v-3v1.5v1.5z" />
    <glyph glyph-name="f_lcaron" unicode="f&#x13e;" horiz-adv-x="527" 
d="M12 0zM75 445h-20.5h-20.5q-8 0 -11 1.5t-3 4.5l35 48h26q22 109 100 191.5t158 82.5q16 0 33 -2t31 -5q15 6 24.5 15.5t17.5 27.5q3 2 6.5 1t3.5 -4v-687q0 -77 8.5 -93.5t50.5 -16.5q6 0 6 -4.5t-6 -4.5h-20.5t-33.5 1q-14 1 -20 1h-9h-9.5t-24.5 -1q-27 -1 -40 -1h-22
q-6 0 -6 4.5t6 4.5q30 0 37.5 16t7.5 94v562v5.5v5.5q-21 14 -53 22.5t-68 8.5q-54 0 -81.5 -56.5t-27.5 -167.5q15 1 32.5 1h56.5h10q25 0 30 -0.5t5 -1.5q0 -4 -22 -27.5t-25 -26.5q-16 1 -32.5 1h-54.5v-135.5t1 -199.5q0 -33 1.5 -49t3.5 -25q4 -16 14 -21.5t45 -5.5
q6 0 6 -4.5t-6 -4.5h-22.5t-42.5 1q-18 1 -25 1h-10h-10t-24 -1q-28 -1 -41 -1h-22q-6 0 -6 4.5t6 4.5q39 0 48.5 14t9.5 87q0 154 -0.5 236t-0.5 92v3.5v3.5zM75 438v-3v1.5v1.5zM539 743q-8 13 -10 18.5t-2 10.5q0 13 14 27t26 14q16 0 27 -24t11 -60q0 -34 -14.5 -75
t-44.5 -90q-2 -3 -5.5 -1.5t-1.5 5.5q18 40 22 57.5t4 38.5q0 19 -5 36t-21 43z" />
    <glyph glyph-name="g_g" unicode="gg" horiz-adv-x="985" 
d="M510 531q0 -16 -13.5 -31.5t-31.5 -15.5q-6 0 -17.5 1t-42.5 5q-55 7 -84 9.5t-51 2.5v-2q75 -10 118.5 -56t43.5 -115q0 -77 -58.5 -124.5t-152.5 -47.5h-11t-7 1q-54 -4 -86 -18.5t-32 -36.5q0 -24 26.5 -33.5t106.5 -9.5h89q74 0 117.5 -32t43.5 -83
q0 -46 -29.5 -92.5t-81.5 -83.5q-45 -33 -98 -51t-103 -18q-81 -1 -122.5 30.5t-41.5 92.5q0 51 48.5 99.5t119.5 73.5q-67 2 -97.5 18.5t-30.5 49.5t40.5 60.5t101.5 36.5q-67 12 -104 55.5t-37 110.5q0 76 60.5 128.5t148.5 52.5q34 0 76 6t113 22q27 7 36.5 8.5t13.5 1.5
q12 0 20.5 -4t8.5 -11zM993 531q0 -16 -13.5 -31.5t-31.5 -15.5q-6 0 -17.5 1t-42.5 5q-55 7 -84 9.5t-51 2.5v-2q75 -10 118.5 -56t43.5 -115q0 -77 -58.5 -124.5t-152.5 -47.5h-11t-7 1q-54 -4 -86 -18.5t-32 -36.5q0 -24 26.5 -33.5t106.5 -9.5h106q84 0 129.5 -30.5
t45.5 -83.5q0 -48 -29.5 -94.5t-82.5 -83.5q-46 -32 -100 -49.5t-104 -17.5q-72 -1 -112.5 32t-40.5 91q0 51 48.5 99t119.5 73h-5q-84 0 -122.5 16.5t-38.5 51.5q0 33 40.5 60.5t101.5 36.5q-67 12 -104 55.5t-37 110.5q0 76 60.5 128.5t148.5 52.5q34 0 76 6t113 22
q27 7 36.5 8.5t13.5 1.5q12 0 20.5 -4t8.5 -11zM108 338q0 -79 33 -125t91 -46q61 0 93.5 42t32.5 120q0 72 -34 120.5t-88 48.5q-64 0 -96 -40t-32 -120zM591 338q0 -79 33 -125t91 -46q61 0 93.5 42t32.5 120q0 72 -34 120.5t-88 48.5q-64 0 -96 -40t-32 -120zM36 -138
q0 -51 47 -79t133 -28h4q97 0 158 42t61 105q0 49 -40.5 71.5t-126.5 22.5h-89h-2q-66 -20 -105.5 -56.5t-39.5 -77.5zM557 -137q0 -52 43.5 -79.5t124.5 -27.5h5q95 0 159 41.5t64 105.5q0 50 -44 71.5t-143 21.5h-63q-66 -20 -106 -56t-40 -77z" />
    <glyph glyph-name="g_gdotaccent" unicode="g&#x121;" horiz-adv-x="985" 
d="M0 0zM510 531q0 -16 -13.5 -31.5t-31.5 -15.5q-6 0 -17.5 1t-42.5 5q-55 7 -84 9.5t-51 2.5v-2q75 -10 118.5 -56t43.5 -115q0 -77 -58.5 -124.5t-152.5 -47.5h-11t-7 1q-54 -4 -86 -18.5t-32 -36.5q0 -24 26.5 -33.5t106.5 -9.5h89q74 0 117.5 -32t43.5 -83
q0 -46 -29.5 -92.5t-81.5 -83.5q-45 -33 -98 -51t-103 -18q-81 -1 -122.5 30.5t-41.5 92.5q0 51 48.5 99.5t119.5 73.5q-67 2 -97.5 18.5t-30.5 49.5t40.5 60.5t101.5 36.5q-67 12 -104 55.5t-37 110.5q0 76 60.5 128.5t148.5 52.5q34 0 76 6t113 22q27 7 36.5 8.5t13.5 1.5
q12 0 20.5 -4t8.5 -11zM993 531q0 -16 -13.5 -31.5t-31.5 -15.5q-6 0 -17.5 1t-42.5 5q-55 7 -84 9.5t-51 2.5v-2q75 -10 118.5 -56t43.5 -115q0 -77 -58.5 -124.5t-152.5 -47.5h-11t-7 1q-54 -4 -86 -18.5t-32 -36.5q0 -24 26.5 -33.5t106.5 -9.5h106q84 0 129.5 -30.5
t45.5 -83.5q0 -48 -29.5 -94.5t-82.5 -83.5q-46 -32 -100 -49.5t-104 -17.5q-72 -1 -112.5 32t-40.5 91q0 51 48.5 99t119.5 73h-5q-84 0 -122.5 16.5t-38.5 51.5q0 33 40.5 60.5t101.5 36.5q-67 12 -104 55.5t-37 110.5q0 76 60.5 128.5t148.5 52.5q34 0 76 6t113 22
q27 7 36.5 8.5t13.5 1.5q12 0 20.5 -4t8.5 -11zM108 338q0 -79 33 -125t91 -46q61 0 93.5 42t32.5 120q0 72 -34 120.5t-88 48.5q-64 0 -96 -40t-32 -120zM591 338q0 -79 33 -125t91 -46q61 0 93.5 42t32.5 120q0 72 -34 120.5t-88 48.5q-64 0 -96 -40t-32 -120zM36 -138
q0 -51 47 -79t133 -28h4q97 0 158 42t61 105q0 49 -40.5 71.5t-126.5 22.5h-89h-2q-66 -20 -105.5 -56.5t-39.5 -77.5zM557 -137q0 -52 43.5 -79.5t124.5 -27.5h5q95 0 159 41.5t64 105.5q0 50 -44 71.5t-143 21.5h-63q-66 -20 -106 -56t-40 -77zM719 596q-22 0 -37 15
t-15 37t15 37.5t37 15.5t37.5 -15.5t15.5 -37.5t-15.5 -37t-37.5 -15z" />
    <glyph glyph-name="gbreve_g" unicode="&#x11f;g" horiz-adv-x="985" 
d="M0 0zM510 531q0 -16 -13.5 -31.5t-31.5 -15.5q-6 0 -17.5 1t-42.5 5q-55 7 -84 9.5t-51 2.5v-2q75 -10 118.5 -56t43.5 -115q0 -77 -58.5 -124.5t-152.5 -47.5h-11t-7 1q-54 -4 -86 -18.5t-32 -36.5q0 -24 26.5 -33.5t106.5 -9.5h89q74 0 117.5 -32t43.5 -83
q0 -46 -29.5 -92.5t-81.5 -83.5q-45 -33 -98 -51t-103 -18q-81 -1 -122.5 30.5t-41.5 92.5q0 51 48.5 99.5t119.5 73.5q-67 2 -97.5 18.5t-30.5 49.5t40.5 60.5t101.5 36.5q-67 12 -104 55.5t-37 110.5q0 76 60.5 128.5t148.5 52.5q34 0 76 6t113 22q27 7 36.5 8.5t13.5 1.5
q12 0 20.5 -4t8.5 -11zM993 531q0 -16 -13.5 -31.5t-31.5 -15.5q-6 0 -17.5 1t-42.5 5q-55 7 -84 9.5t-51 2.5v-2q75 -10 118.5 -56t43.5 -115q0 -77 -58.5 -124.5t-152.5 -47.5h-11t-7 1q-54 -4 -86 -18.5t-32 -36.5q0 -24 26.5 -33.5t106.5 -9.5h106q84 0 129.5 -30.5
t45.5 -83.5q0 -48 -29.5 -94.5t-82.5 -83.5q-46 -32 -100 -49.5t-104 -17.5q-72 -1 -112.5 32t-40.5 91q0 51 48.5 99t119.5 73h-5q-84 0 -122.5 16.5t-38.5 51.5q0 33 40.5 60.5t101.5 36.5q-67 12 -104 55.5t-37 110.5q0 76 60.5 128.5t148.5 52.5q34 0 76 6t113 22
q27 7 36.5 8.5t13.5 1.5q12 0 20.5 -4t8.5 -11zM108 338q0 -79 33 -125t91 -46q61 0 93.5 42t32.5 120q0 72 -34 120.5t-88 48.5q-64 0 -96 -40t-32 -120zM591 338q0 -79 33 -125t91 -46q61 0 93.5 42t32.5 120q0 72 -34 120.5t-88 48.5q-64 0 -96 -40t-32 -120zM36 -138
q0 -51 47 -79t133 -28h4q97 0 158 42t61 105q0 49 -40.5 71.5t-126.5 22.5h-89h-2q-66 -20 -105.5 -56.5t-39.5 -77.5zM557 -137q0 -52 43.5 -79.5t124.5 -27.5h5q95 0 159 41.5t64 105.5q0 50 -44 71.5t-143 21.5h-63q-66 -20 -106 -56t-40 -77zM360 674q-18 -44 -49.5 -69
t-72.5 -26q-42 0 -74.5 19.5t-48.5 55.5q-4 9 0.5 15.5t16.5 10.5q15 5 22 4.5t10 -7.5q19 -40 44 -59.5t57 -19.5q29 0 48 20.5t28 59.5q1 3 3.5 5t6.5 2q5 0 7.5 -3.5t1.5 -7.5z" />
    <glyph glyph-name="gdotaccent_g" unicode="&#x121;g" horiz-adv-x="985" 
d="M0 0zM510 531q0 -16 -13.5 -31.5t-31.5 -15.5q-6 0 -17.5 1t-42.5 5q-55 7 -84 9.5t-51 2.5v-2q75 -10 118.5 -56t43.5 -115q0 -77 -58.5 -124.5t-152.5 -47.5h-11t-7 1q-54 -4 -86 -18.5t-32 -36.5q0 -24 26.5 -33.5t106.5 -9.5h89q74 0 117.5 -32t43.5 -83
q0 -46 -29.5 -92.5t-81.5 -83.5q-45 -33 -98 -51t-103 -18q-81 -1 -122.5 30.5t-41.5 92.5q0 51 48.5 99.5t119.5 73.5q-67 2 -97.5 18.5t-30.5 49.5t40.5 60.5t101.5 36.5q-67 12 -104 55.5t-37 110.5q0 76 60.5 128.5t148.5 52.5q34 0 76 6t113 22q27 7 36.5 8.5t13.5 1.5
q12 0 20.5 -4t8.5 -11zM993 531q0 -16 -13.5 -31.5t-31.5 -15.5q-6 0 -17.5 1t-42.5 5q-55 7 -84 9.5t-51 2.5v-2q75 -10 118.5 -56t43.5 -115q0 -77 -58.5 -124.5t-152.5 -47.5h-11t-7 1q-54 -4 -86 -18.5t-32 -36.5q0 -24 26.5 -33.5t106.5 -9.5h106q84 0 129.5 -30.5
t45.5 -83.5q0 -48 -29.5 -94.5t-82.5 -83.5q-46 -32 -100 -49.5t-104 -17.5q-72 -1 -112.5 32t-40.5 91q0 51 48.5 99t119.5 73h-5q-84 0 -122.5 16.5t-38.5 51.5q0 33 40.5 60.5t101.5 36.5q-67 12 -104 55.5t-37 110.5q0 76 60.5 128.5t148.5 52.5q34 0 76 6t113 22
q27 7 36.5 8.5t13.5 1.5q12 0 20.5 -4t8.5 -11zM108 338q0 -79 33 -125t91 -46q61 0 93.5 42t32.5 120q0 72 -34 120.5t-88 48.5q-64 0 -96 -40t-32 -120zM591 338q0 -79 33 -125t91 -46q61 0 93.5 42t32.5 120q0 72 -34 120.5t-88 48.5q-64 0 -96 -40t-32 -120zM36 -138
q0 -51 47 -79t133 -28h4q97 0 158 42t61 105q0 49 -40.5 71.5t-126.5 22.5h-89h-2q-66 -20 -105.5 -56.5t-39.5 -77.5zM557 -137q0 -52 43.5 -79.5t124.5 -27.5h5q95 0 159 41.5t64 105.5q0 50 -44 71.5t-143 21.5h-63q-66 -20 -106 -56t-40 -77zM236 596q-22 0 -37 15
t-15 37t15 37.5t37 15.5t37.5 -15.5t15.5 -37.5t-15.5 -37t-37.5 -15z" />
    <glyph glyph-name="gdotaccent_gdotaccent" unicode="&#x121;&#x121;" horiz-adv-x="985" 
d="M0 0zM510 531q0 -16 -13.5 -31.5t-31.5 -15.5q-6 0 -17.5 1t-42.5 5q-55 7 -84 9.5t-51 2.5v-2q75 -10 118.5 -56t43.5 -115q0 -77 -58.5 -124.5t-152.5 -47.5h-11t-7 1q-54 -4 -86 -18.5t-32 -36.5q0 -24 26.5 -33.5t106.5 -9.5h89q74 0 117.5 -32t43.5 -83
q0 -46 -29.5 -92.5t-81.5 -83.5q-45 -33 -98 -51t-103 -18q-81 -1 -122.5 30.5t-41.5 92.5q0 51 48.5 99.5t119.5 73.5q-67 2 -97.5 18.5t-30.5 49.5t40.5 60.5t101.5 36.5q-67 12 -104 55.5t-37 110.5q0 76 60.5 128.5t148.5 52.5q34 0 76 6t113 22q27 7 36.5 8.5t13.5 1.5
q12 0 20.5 -4t8.5 -11zM993 531q0 -16 -13.5 -31.5t-31.5 -15.5q-6 0 -17.5 1t-42.5 5q-55 7 -84 9.5t-51 2.5v-2q75 -10 118.5 -56t43.5 -115q0 -77 -58.5 -124.5t-152.5 -47.5h-11t-7 1q-54 -4 -86 -18.5t-32 -36.5q0 -24 26.5 -33.5t106.5 -9.5h106q84 0 129.5 -30.5
t45.5 -83.5q0 -48 -29.5 -94.5t-82.5 -83.5q-46 -32 -100 -49.5t-104 -17.5q-72 -1 -112.5 32t-40.5 91q0 51 48.5 99t119.5 73h-5q-84 0 -122.5 16.5t-38.5 51.5q0 33 40.5 60.5t101.5 36.5q-67 12 -104 55.5t-37 110.5q0 76 60.5 128.5t148.5 52.5q34 0 76 6t113 22
q27 7 36.5 8.5t13.5 1.5q12 0 20.5 -4t8.5 -11zM108 338q0 -79 33 -125t91 -46q61 0 93.5 42t32.5 120q0 72 -34 120.5t-88 48.5q-64 0 -96 -40t-32 -120zM591 338q0 -79 33 -125t91 -46q61 0 93.5 42t32.5 120q0 72 -34 120.5t-88 48.5q-64 0 -96 -40t-32 -120zM36 -138
q0 -51 47 -79t133 -28h4q97 0 158 42t61 105q0 49 -40.5 71.5t-126.5 22.5h-89h-2q-66 -20 -105.5 -56.5t-39.5 -77.5zM557 -137q0 -52 43.5 -79.5t124.5 -27.5h5q95 0 159 41.5t64 105.5q0 50 -44 71.5t-143 21.5h-63q-66 -20 -106 -56t-40 -77zM236 596q-22 0 -37 15
t-15 37t15 37.5t37 15.5t37.5 -15.5t15.5 -37.5t-15.5 -37t-37.5 -15zM719 596q-22 0 -37 15t-15 37t15 37.5t37 15.5t37.5 -15.5t15.5 -37.5t-15.5 -37t-37.5 -15z" />
    <glyph glyph-name=".notdef" horiz-adv-x="1414" 
d="M1229 695q53 -55 79 -152t26 -236q0 -126 -32.5 -230.5t-84.5 -158.5q-62 -62 -199.5 -107t-293.5 -45q-185 0 -342 46t-215 113q-45 51 -66 142t-21 237q0 114 28.5 216.5t75.5 155.5q67 77 202.5 117.5t327.5 40.5q189 0 322.5 -36t192.5 -103zM253 -6
q-18 -19 -32.5 -25.5t-32.5 -6.5q-3 0 -9 1.5t-15 4.5q4 -9 8.5 -16.5t10.5 -14.5q46 -51 196.5 -84t340.5 -33q162 0 299.5 33t181.5 76q37 38 56 134.5t19 245.5q0 182 -13 259.5t-48 114.5q-44 52 -172 78.5t-331 26.5q-176 0 -322 -34.5t-194 -87.5q-31 -36 -46.5 -127
t-15.5 -232v-64q44 31 62.5 39.5t35.5 8.5t35 -2.5t52 -11.5q32 -8 48 -10.5t31 -2.5q12 0 20.5 6.5t9.5 16.5q-18 -2 -37.5 6.5t-26.5 24.5q25 -9 47.5 -1.5t29.5 26.5q22 -11 40 -3t24 30q26 -2 42 7.5t22 31.5q29 -6 50 16.5t22 23.5q17 -1 39.5 6.5t43.5 22.5q5 2 10 5
l15 9l15 9t10 5q8 1 14 0t8 -4q-3 2 -12 -1.5t-13 -9.5q-32 -30 -46 -40.5t-29 -18.5q-26 -15 -40.5 -35.5t-21.5 -51.5q-4 -16 -11 -31t-18 -31q-5 -6 -10.5 -8.5t-13.5 -3.5q-21 -3 -25 -5t-5 -5q-1 -7 6 -12t17 -5q9 -1 25.5 -0.5t19.5 0.5q7 0 11 6t4 17q0 3 3.5 7
t15.5 13q15 11 20.5 17t7.5 12q2 9 0.5 16t-6.5 13q7 9 17 15t28 10q20 5 32.5 13t21.5 22q18 22 27.5 49t4.5 46q17 -10 33.5 -15t37.5 -5q17 0 26.5 4t14.5 12q18 -2 29.5 3t15.5 17q3 5 1.5 10t-6.5 6q19 -1 35 5.5t16 14.5q0 1 -3 1.5t-8 0.5q-6 0 -12.5 0.5t-17.5 3.5
q-10 2 -15 2.5t-10 0.5q-11 0 -20 -2.5t-15 -6.5l-2 2q5 8 14 11.5t28 3.5q4 0 8.5 -0.5t15.5 -1.5q14 -2 21.5 -2.5t14.5 -0.5q14 0 25 4.5t18 12.5q-15 0 -30 1t-41 5q-22 3 -32.5 4t-20.5 1q-17 0 -30.5 -10t-20.5 -28q-9 -17 -26.5 -20t-35.5 8q-7 5 -14 8t-14 3
q-5 0 -9.5 -1.5t-20.5 -11.5q-16 -13 -35 -26.5t-36 -22.5q-2 -1 -5 -2t-9 -2q-7 -1 -10.5 -2.5t-5.5 -2.5q-9 -3 -12.5 -8.5t-4.5 -17.5q-26 -6 -58 -20t-97 -51q-58 -32 -83 -43t-43 -14q-5 -1 -10.5 -1t-13.5 2q-3 1 -5 1h-4t-5.5 -1t-13.5 -4q-18 -7 -27.5 -9t-16.5 -2
q-8 0 -13 10.5t-5 26.5q-13 5 -23 32t-10 52q0 11 9.5 25t26.5 27q17 12 30.5 27t21.5 28l7 14t8 15q5 8 11 13.5t13 9.5q5 7 14 32t19 38q11 15 27 25t39 15q-14 -14 -13 -26t15 -12q11 0 23 1t37 4q-11 -11 6.5 -19.5t45.5 0.5q-7 -27 1 -35.5t35 -2.5q-9 -25 -1 -35.5
t32 -1.5q-8 -21 -2 -30.5t27 -13.5q-13 -26 -2 -33t45 6q-8 53 -14.5 77.5t-14.5 37.5t-19.5 23t-33.5 22q-35 16 -45 26t-10 24q0 15 9.5 24.5t24.5 9.5q13 0 22 -6t19 -21q2 -3 4 -7.5t6 -15.5q5 -14 8 -21t7 -13q11 -17 28 -27t48 -19l-17 -16l-35 22q15 -37 18 -47
t5 -18q14 1 24.5 -2.5t17.5 -11.5q12 0 19.5 3t12.5 12q2 5 4 6t4 1q7 0 13.5 -1t23.5 -7q6 -3 18.5 -4.5t17.5 -2.5q9 8 14.5 22.5t5.5 28.5q0 25 -10.5 37t-32.5 12q-12 0 -21.5 -5.5t-12.5 -15.5q-3 -6 -2 -9.5t5 -3.5q12 0 17.5 -2.5t5.5 -7.5q0 -4 -1.5 -5t-7.5 -1
q-3 0 -6 1t-8 4q-1 0 -2 0.5l-1 0.5q-2 0 -4 -1t-5 -3q-4 -3 -6 -4t-4 -1q-4 0 -6.5 1t-2.5 3q0 4 4 9t7 6q1 2 2 3.5t1 5.5t1 7l2 6q6 13 20 21t29 8q23 0 39.5 -12t22.5 -33q6 13 15.5 23.5t22.5 17.5q8 5 18.5 7.5t32.5 3.5q25 2 38.5 5t26.5 9l4 -6q-10 -13 -20 -19
t-22 -6q4 -12 0.5 -22.5t-13.5 -15.5q4 -6 -3.5 -16t-17.5 -10q25 -4 55 -5t59 0l1 -5q-6 -15 -24.5 -24.5t-40.5 -10.5q4 -13 -13 -24t-36 -8q0 -17 -15.5 -27t-40.5 -10q-3 -7 -15.5 -11t-28.5 -4q-10 0 -22.5 2.5t-30.5 7.5q-6 -26 -5 -36t9 -12q5 -2 12.5 -1.5t25.5 5.5
q19 5 28.5 6.5t18.5 1.5q23 0 42 -9t35 -27q5 -6 10.5 -13t15.5 -21l19.5 -25.5t13.5 -16.5q22 -24 39 -34.5t33 -10.5q26 0 40.5 20t14.5 56q0 20 -5 37.5t-31 58.5q-8 14 -11.5 27t-3.5 25q0 31 24.5 79t26.5 54h11q2 -16 2.5 -36t-0.5 -61q-2 -30 -2 -44t1 -25
q1 -5 9.5 -43.5t8.5 -65.5q0 -45 -23 -72t-60 -27q-17 0 -32.5 5t-61.5 34v-48q0 -47 13 -58t69 -7q40 1 54.5 -13.5t10.5 -51.5q-3 -46 -8 -86.5t-11 -74.5q-4 -25 -37 -44t-78 -19q-12 0 -19 1.5t-7 4.5q-2 9 -0.5 18t5.5 10l6 6t7 6q4 4 7.5 5.5t7.5 1.5h5t9 -1
q5 -1 7.5 -1h4.5q19 1 26.5 7.5t7.5 22.5q-4 24 -5.5 41t-1.5 54q0 22 -6 30.5t-23 8.5q-5 0 -12 -0.5t-22 -2.5q-16 -2 -24 -2.5t-15 -0.5q-39 0 -60 27t-21 75q0 21 -1.5 29.5t-4.5 10.5q-7 -11 -11.5 -24t-4.5 -26q0 -44 15.5 -70.5t48.5 -39.5q2 -2 2 -11.5t-2 -14.5
q-5 -6 -11.5 -13.5t-19.5 -21.5q-20 -24 -30.5 -36t-18.5 -23q-16 -27 -53 -42t-80 -14q-5 0 -14.5 3t-9.5 6q-1 10 -0.5 19.5t2.5 12.5q1 1 12.5 9t18.5 8h7.5t10.5 -1q5 -1 7.5 -1h4.5q21 0 30.5 3.5t17.5 12.5q2 4 5 8t8 11q6 9 9 13t5 8q20 30 16 46t-33 27
q-37 14 -49 35t0 51q10 26 27 44t54 38q-21 6 -47 -7t-47 -42q-11 -16 -31 -47t-29 -44q-21 -28 -42 -39.5t-48 -11.5q-20 0 -41 7.5t-47 23.5q12 20 14 46.5t-7 42.5q-17 -68 -34 -88t-57 -13q-11 -23 -35 -32.5t-58 -4.5q-9 -22 -34.5 -38t-51.5 -15q-6 0 -12 -3t-16 -14z
M626 670q4 -2 5.5 -3t2.5 -1q-3 4 -5.5 8.5l-7.5 13.5q-4 9 -7 14t-6 9q-8 9 -10.5 10.5t-6.5 1.5q-5 0 -8.5 -4.5t-3.5 -9.5q0 -8 7.5 -15.5t22.5 -16.5q3 -1 6.5 -2.5zM771 582q0 3 2.5 5.5t8.5 4.5q5 2 9.5 0.5t4.5 -5.5q0 -3 -2 -4.5t-9 -2.5q-7 0 -10.5 0.5t-3.5 1.5z
M448 548q0 -10 -2 -15.5t-7 -9.5v-7q15 8 22.5 19t7.5 27q0 12 -10 21t-23 9q-12 0 -22.5 -8t-22.5 -25l3 -5q10 9 16.5 13t12.5 4q10 0 17.5 -6.5t7.5 -16.5zM725 539q-2 5 -9.5 7t-16.5 1q-4 -4 -1 -16t7 -12q7 0 15.5 8t4.5 12zM314 492q1 -4 1 -6v-3q0 -2 -0.5 -4
t-3.5 -6l-1.5 -3t-0.5 -2q0 -3 1 -4t3 -1l1 1t4 5q4 8 6.5 10.5t4.5 3.5q7 5 12 10t10 12h-4.5t-7.5 1q-7 1 -10 1h-6q-5 0 -7 -1.5t-2 -5.5v-3v-5zM228 442l-0.5 -2t-0.5 -6q0 -16 3 -25.5t9 -9.5q1 0 2 1.5t1 4.5v14t1 6q2 2 4.5 3.5t6.5 3.5q5 2 6 3.5t1 3.5q0 4 -1.5 5
t-3.5 -2q-7 -5 -17.5 -2.5zM324 371q-39 -4 -51 -2t-22 8l-3 -2q8 -12 17 -17.5t25 -3.5q2 3 10 5t15 2q3 0 5.5 -1t7.5 -4q2 -2 3 -2.5t2 -0.5q3 0 4 1t1 4q0 6 -4 9.5t-10 3.5zM153 161q-11 -5 -14 -11t-3 -17q1 -24 4 -50t7 -50q9 5 17.5 8t23.5 4q42 7 74 22t57 39
q7 7 17 14t30 20q32 20 43 32.5t14 27.5q-16 -14 -28.5 -18.5t-30.5 -4.5q-16 0 -27.5 7.5t-17.5 22.5q-19 -16 -41.5 -12.5t-31.5 24.5q-4 10 -7.5 12.5t-9.5 2.5q-4 0 -8 -3t-12 -14q-10 -14 -17.5 -19.5t-15.5 -6.5q-2 -11 -7 -18t-16 -12z" />
    <glyph glyph-name=".null" horiz-adv-x="0" 
 />
    <glyph glyph-name="nonmarkingreturn" horiz-adv-x="333" 
 />
    <glyph glyph-name="NULL" horiz-adv-x="0" 
 />
    <glyph glyph-name="NULL" horiz-adv-x="0" 
 />
    <glyph glyph-name="CR" unicode="&#xd;" horiz-adv-x="216" 
 />
    <glyph glyph-name="space" unicode=" " horiz-adv-x="216" 
 />
    <glyph glyph-name="exclam" unicode="!" horiz-adv-x="252" 
d="M94 608v5q0 15 22.5 46t31.5 31q11 0 17.5 -9.5t6.5 -25.5v-4q0 -24 -3 -61t-14 -127q-14 -125 -19 -188t-5 -112q0 -4 -3 -4t-3 4q0 51 -4 115t-16 184q-7 72 -9 100.5t-2 45.5zM126 -4q-25 0 -41.5 16.5t-16.5 41.5q0 24 17 41t41 17q23 0 40.5 -17.5t17.5 -40.5
q0 -24 -17 -41t-41 -17z" />
    <glyph glyph-name="quotedbl" unicode="&#x22;" horiz-adv-x="281" 
d="M54 416zM54 680q0 12 8.5 20.5t19.5 8.5q12 0 20.5 -8.5t8.5 -20.5q0 -3 -1 -11t-4 -33q-11 -79 -15.5 -127.5t-4.5 -85.5q0 -7 -5 -7t-5 7q0 37 -3.5 85.5t-13.5 127.5q-3 25 -4 33t-1 11zM170 680q0 12 8.5 20.5t19.5 8.5q12 0 20.5 -8.5t8.5 -20.5q0 -3 -1 -11t-4 -33
q-11 -79 -15.5 -127.5t-4.5 -85.5q0 -7 -5 -7t-5 7q0 37 -3.5 85.5t-13.5 127.5q-3 25 -4 33t-1 11z" />
    <glyph glyph-name="numbersign" unicode="#" horiz-adv-x="809" 
d="M539 477q-1 -36 -1.5 -65.5t-0.5 -60.5v-61.5v-61.5q24 0 49.5 0.5t71.5 1.5q33 1 50 1.5t32 0.5q5 -7 6.5 -10.5t-0.5 -16.5q-67 6 -113 8.5t-96 3.5q0 -1 1 -66.5t3 -136.5q-2 -1 -8.5 -6.5t-16.5 -3.5q1 30 2.5 58.5t3.5 73.5q2 34 3 50.5t1 31.5q-19 1 -42.5 1h-78.5
h-86.5t-44.5 -1q0 -1 1 -67.5t3 -136.5q-2 -1 -8.5 -6.5t-16.5 -3.5q1 30 2.5 58t3.5 73l3 51t1 32q-36 -1 -72.5 -2.5t-122.5 -4.5q-1 2 -6.5 8.5t-3.5 16.5q60 -4 106 -5.5t100 -2.5v16.5v29.5q1 28 1 44v32v85.5t-1 42.5q-35 -1 -70.5 -2t-125.5 -4q-1 2 -6.5 8.5
t-3.5 16.5q53 -3 98 -5t108 -4v38.5t-1 59.5q-1 35 -1.5 55t-0.5 40q7 5 10.5 6.5t16.5 -0.5q-1 -16 -6 -86t-6 -113q19 -1 44 -1h84h80t43 1v38.5t-1 59.5q-1 35 -1.5 55t-0.5 40q7 5 10.5 6.5t16.5 -0.5q-1 -16 -6 -86t-6 -113q23 0 48 0.5t69 1.5q35 1 52 1.5t32 0.5
q5 -7 6.5 -10.5t-0.5 -16.5q-64 5 -110.5 8t-96.5 4zM276 478q-1 -38 -1.5 -67t-0.5 -60v-61.5v-61.5q20 -1 45 -1h85h79t43 1q1 36 1.5 64t0.5 58v85.5t-1 42.5q-19 1 -43 1h-79h-85t-44 -1z" />
    <glyph glyph-name="dollar" unicode="$" horiz-adv-x="541" 
d="M477 461q0 -9 -5 -9t-5 9q0 112 -46 168.5t-141 63.5q-2 -55 -3 -117.5t-2 -179.5q77 -35 102.5 -48.5t44.5 -27.5q41 -29 60 -63t19 -75q0 -89 -61.5 -144.5t-162.5 -55.5h-1q0 -8 0.5 -17t0.5 -27t0.5 -27t0.5 -17q-4 -8 -9.5 -10t-14.5 0q0 9 0.5 19.5l1.5 31.5
q1 19 1.5 29t0.5 18q-48 1 -97.5 8t-96.5 19q-8 3 -10 5.5t-3 7.5q-1 7 -0.5 27t2.5 79q3 53 3.5 77.5t0.5 40.5q0 8 5 8t5 -8q0 -117 48.5 -181t142.5 -72q3 101 4 180.5t1 150.5q-56 25 -90.5 42t-47.5 25q-43 27 -62.5 56.5t-19.5 65.5q0 84 61 136t157 54v15t-1 24v24
v15q8 6 10.5 7t13.5 -1q0 -7 -1.5 -36.5t-1.5 -47.5q41 0 76 -4t115 -22q7 -2 8.5 -4t2.5 -7q1 -6 0.5 -24t-2.5 -70q-3 -51 -3.5 -74t-0.5 -37zM106 560q0 -46 33.5 -81.5t123.5 -76.5q0 57 -0.5 119t-1.5 173h-2q-71 0 -112 -36.5t-41 -97.5zM285 -8q72 0 114 39t42 104
q0 56 -37 98.5t-129 84.5q-1 -96 -0.5 -173.5t1.5 -152.5h4.5h4.5z" />
    <glyph glyph-name="percent" unicode="%" horiz-adv-x="777" 
d="M183 351q-71 0 -107 38.5t-36 115.5q0 45 20 85t53 65q21 15 56.5 29.5t58.5 14.5q75 0 110.5 -38.5t35.5 -119.5q0 -42 -21 -80.5t-54 -60.5q-29 -21 -61 -35t-55 -14zM690 690q-60 -64 -145 -161.5t-161 -188.5q-24 -28 -92.5 -113.5t-181.5 -227.5q-15 -3 -25 -3
t-16 3q59 65 132.5 148t170.5 195q51 61 123 150.5t160 199.5q11 2 19 1.5t16 -3.5zM293 405q11 11 16 41t5 79q0 74 -27.5 106.5t-88.5 32.5q-27 0 -47 -4t-33 -12q-11 -17 -15.5 -44.5t-4.5 -74.5q0 -69 30.5 -104.5t88.5 -35.5q20 0 41.5 4.5t34.5 11.5zM543 -7
q-71 0 -107 38.5t-36 115.5q0 45 20 85t53 65q21 15 56.5 29.5t58.5 14.5q75 0 110.5 -38.5t35.5 -119.5q0 -42 -21 -80.5t-54 -60.5q-29 -21 -61 -35t-55 -14zM653 47q11 11 16 41t5 79q0 74 -27.5 106.5t-88.5 32.5q-27 0 -47 -4t-33 -12q-11 -17 -15.5 -44.5t-4.5 -74.5
q0 -69 30.5 -104.5t88.5 -35.5q20 0 41.5 4.5t34.5 11.5z" />
    <glyph glyph-name="ampersand" unicode="&#x26;" horiz-adv-x="839" 
d="M795 182q0 -60 -66.5 -122t-130.5 -62q-27 0 -76.5 35t-117.5 102q-26 -47 -87 -93.5t-109 -46.5q-52 0 -98.5 49.5t-46.5 104.5q0 56 56.5 111.5t117.5 59.5q-51 62 -77.5 108t-26.5 73q0 86 52 139t135 55q36 1 96.5 -13t75.5 -25q-5 -45 -7.5 -88t-2.5 -84
q0 -12 -5.5 -12t-5.5 12q-3 44 -14 80.5t-29 62.5q-19 29 -46.5 44t-62.5 15q-62 0 -96.5 -32t-34.5 -89q0 -43 38.5 -104.5t154.5 -190.5q101 -113 178 -173.5t117 -60.5q24 0 37 40.5t13 110.5q0 48 -8.5 88t-23.5 61l-112 1q-57 0 -76.5 -0.5t-31.5 -2.5q-4 -1 -5.5 0.5
t1.5 4.5q4 5 23.5 31.5t25.5 26.5h138q22 0 49.5 2t40.5 4q7 1 8 -0.5t-4 -5.5q-7 -5 -13.5 -12.5t-16.5 -22.5q-7 -11 -10.5 -16t-7.5 -9q47 -34 69.5 -73t22.5 -83zM241 314q-64 -16 -89.5 -41.5t-28.5 -74.5q3 -56 49.5 -103.5t90.5 -47.5q38 0 73 25t61 70
q-17 17 -37.5 39t-46.5 50q-15 16 -31.5 35.5t-40.5 47.5z" />
    <glyph glyph-name="quotesingle" unicode="'" horiz-adv-x="164" 
d="M54 680q0 12 8.5 20.5t19.5 8.5q12 0 20.5 -8.5t8.5 -20.5q0 -3 -1 -11t-4 -33q-11 -79 -15.5 -127.5t-4.5 -85.5q0 -7 -5 -7t-5 7q0 37 -3.5 85.5t-13.5 127.5q-3 25 -4 33t-1 11z" />
    <glyph glyph-name="parenleft" unicode="(" horiz-adv-x="400" 
d="M357 -271q-114 77 -184.5 225t-70.5 308q0 156 72 302t188 225q7 5 11.5 0.5t-1.5 -9.5q-108 -77 -173.5 -219.5t-65.5 -298.5q0 -160 64 -304.5t169 -219.5q7 -5 2 -9t-11 0z" />
    <glyph glyph-name="parenright" unicode=")" horiz-adv-x="400" 
d="M43 789q114 -77 184.5 -225t70.5 -308q0 -156 -72 -302t-188 -225q-7 -5 -11.5 -0.5t1.5 9.5q108 77 173.5 219.5t65.5 298.5q0 160 -64 304.5t-169 219.5q-7 5 -2 9t11 0z" />
    <glyph glyph-name="asterisk" unicode="*" horiz-adv-x="351" 
d="M173 385q-10 0 -19 13.5t-9 31.5l0.5 2.5t3.5 11.5q12 41 17 64t5 34q-12 -7 -29.5 -23t-46.5 -46l-7.5 -7.5l-1.5 -1.5q-15 -9 -31 -8t-22 9q-4 9 3 23.5t23 23.5q1 0 3.5 1t11.5 3q41 10 63 17t32 13q-12 6 -34 13.5t-62 16.5q-8 2 -10.5 3t-3.5 1q-16 9 -23 23.5
t-3 22.5q6 9 22 10t31 -8q1 0 3.5 -2.5t10.5 -11.5q30 -31 46 -45t25 -19q-1 13 -5.5 35t-16.5 61q-2 10 -3 12.5t-1 3.5q0 18 9 31.5t19 13.5t19 -13.5t9 -31.5q0 -1 -1 -4.5t-4 -15.5q-12 -40 -16.5 -60.5t-4.5 -31.5q12 7 29.5 23t46.5 46l7.5 7.5l1.5 1.5q15 9 31 8
t22 -10q4 -8 -3 -22.5t-23 -23.5l-3 -1t-13 -3q-41 -10 -62.5 -17t-30.5 -13q11 -6 32.5 -13t60.5 -17q10 -2 13 -3l3 -1q16 -9 23 -23.5t3 -23.5q-6 -8 -22 -9t-31 8l-2.5 2.5l-11.5 11.5q-29 30 -45.5 44.5t-25.5 19.5q1 -14 6 -37t16 -62q3 -8 3.5 -10.5l0.5 -2.5
q0 -18 -9 -31.5t-19 -13.5z" />
    <glyph glyph-name="plus" unicode="+" horiz-adv-x="558" 
d="M448 347q5 -4 5 -12.5t-5 -11.5q-66 5 -96 6t-67 1q0 -40 1 -71t6 -93q-3 -5 -11.5 -5t-12.5 5q2 28 2.5 57t0.5 107q-39 0 -70 -1t-93 -6q-5 3 -5 11.5t5 12.5q69 -4 99 -5t64 -1q0 81 -0.5 109.5t-2.5 55.5q4 5 12.5 5t11.5 -5q-5 -66 -6 -96.5t-1 -68.5q36 0 67 1
t96 5z" />
    <glyph glyph-name="comma" unicode="," horiz-adv-x="269" 
d="M204 8q0 -36 -26.5 -73t-61.5 -58q-4 -2 -5.5 -0.5t2.5 4.5q29 17 45 45t16 65q0 9 -1.5 17.5t-4.5 15.5q-7 -12 -18 -18t-25 -6q-22 0 -37 15t-15 37q0 25 16.5 41.5t43.5 16.5q33 0 52 -27.5t19 -74.5z" />
    <glyph glyph-name="hyphen" unicode="-" horiz-adv-x="375" 
d="M71 269q24 -2 51.5 -3t64.5 -1t65 1t51 3q7 -4 6.5 -19t-6.5 -19q-26 3 -52 4t-64 1q-28 0 -55.5 -1t-60.5 -4q-6 4 -6 18.5t6 19.5z" />
    <glyph glyph-name="period" unicode="." horiz-adv-x="252" 
d="M126 -4q-25 0 -41.5 16.5t-16.5 41.5q0 24 17 41t41 17q23 0 40.5 -17.5t17.5 -40.5q0 -24 -17 -41t-41 -17z" />
    <glyph glyph-name="slash" unicode="/" horiz-adv-x="356" 
d="M415 778q-39 -81 -94 -209.5t-133 -321.5q-84 -204 -129 -317t-79 -201q-1 0 -9.5 -3t-18.5 4q33 71 71 159.5t152 361.5q81 203 131.5 329t80.5 202q10 2 13 2t15 -6z" />
    <glyph glyph-name="zero" unicode="0" horiz-adv-x="706" 
d="M515 48q-37 -26 -83 -42t-88 -16q-145 0 -217 87.5t-72 263.5q0 100 32.5 174.5t95.5 121.5q34 25 89 45.5t94 20.5q146 0 217 -86t71 -264q0 -94 -40 -179t-99 -126zM582 347q0 159 -61.5 239t-183.5 80q-42 0 -81 -8.5t-68 -24.5q-31 -34 -45.5 -102.5t-14.5 -180.5
q0 -156 65 -238.5t188 -82.5q35 0 72.5 7t57.5 17q37 39 54 107t17 187z" />
    <glyph glyph-name="one" unicode="1" horiz-adv-x="257" 
d="M15 9h15q38 0 50 24t12 128v395q0 50 -15 58.5t-60 -6.5q-6 -2 -8 3t4 7q31 10 60.5 26.5t74.5 53.5q2 2 10 -0.5t8 -6.5v-530q0 -104 12.5 -128t52.5 -24h17q4 0 4 -4.5t-4 -4.5q-9 0 -24 0.5t-49 1.5q-21 1 -29 1.5t-11 0.5t-11.5 -0.5t-31.5 -1.5q-36 -1 -52 -1.5
t-25 -0.5q-5 0 -5 4.5t5 4.5z" />
    <glyph glyph-name="two" unicode="2" horiz-adv-x="602" 
d="M384 -2q-83 1 -117 1h-48q-24 0 -56 -0.5t-88 -1.5q-17 -1 -22.5 -1h-7.5q-1 17 -1 26.5t3 11.5q56 47 105 89.5t112 100.5q114 106 153.5 172.5t39.5 141.5q0 77 -41 119t-116 42q-69 0 -111 -21t-65 -67q-18 -36 -26.5 -92.5t-8.5 -136.5q0 -7 -4.5 -7t-4.5 7
q0 39 -3 85.5t-12 120.5l-4 36t-1 13q0 11 2.5 16t8.5 6q2 0 46.5 14t73.5 20q33 8 63.5 11.5t61.5 3.5q105 0 164.5 -44.5t59.5 -123.5q0 -38 -25.5 -80.5t-83.5 -98.5q-32 -31 -94 -85t-67 -59q-40 -35 -80.5 -73.5t-83.5 -81.5q124 0 194 0.5t108 1.5q64 1 97 30.5
t42 92.5l10 68q1 5 6.5 4.5t4.5 -5.5l-10 -69q-14 -98 -21 -138.5t-10 -45.5q-2 -2 -13 -3t-31 -1h-25t-74 1z" />
    <glyph glyph-name="three" unicode="3" horiz-adv-x="565" 
d="M256 -15q-40 0 -93.5 5t-87.5 12q-10 2 -9.5 6t7.5 3q31 -5 61 -7.5t58 -2.5q124 0 186.5 54t62.5 161q0 61 -41 105t-97 44q-21 0 -43.5 -11t-58.5 -42q-18 -16 -25.5 -20.5t-12.5 -4.5q-13 0 -14.5 15t3.5 25q115 37 181.5 98.5t66.5 132.5q0 67 -36.5 103.5
t-104.5 36.5q-41 0 -74.5 -15.5t-57.5 -45.5q-26 -33 -39.5 -83.5t-13.5 -115.5q0 -7 -4.5 -7t-4.5 7q0 44 -1.5 86.5t-5.5 93.5q-1 11 -1 15v6q0 11 2.5 16t8.5 6q66 23 124.5 35.5t98.5 12.5q85 0 138 -37.5t54 -97.5q1 -43 -43.5 -88t-178.5 -122q25 9 46 13.5t39 4.5
q79 0 128 -48t49 -127q0 -100 -71 -161t-196 -61z" />
    <glyph glyph-name="four" unicode="4" horiz-adv-x="603" 
d="M279 29q8 9 11.5 28.5t3.5 73.5v89h-214q-12 0 -26 -1t-31 -2q-16 -2 -12 9.5t31 44.5q76 93 127 164.5t164 251.5q7 12 13 16.5t14 6.5q28 8 39 1.5t2 -25.5q-2 -3 -20.5 -33t-18.5 -58v-321h78q59 1 92.5 29.5t42.5 85.5l6 38q1 5 6 4.5t4 -5.5l-6 -39
q-10 -67 -18 -112.5t-10 -49.5q-1 -2 -17 -3.5t-40 -1.5h-138v-89q0 -54 2 -71t6 -26q7 -13 22 -18t68 -6q4 0 4 -4.5t-4 -4.5h-26.5t-57.5 1q-26 1 -35 1h-12h-13.5t-40.5 -1q-48 -1 -67.5 -1h-28.5q-5 0 -5 4.5t5 4.5q57 2 74 5.5t26 13.5zM174 415q-42 -51 -67 -81
t-49 -60h236v287q-23 -29 -47.5 -58.5t-72.5 -87.5z" />
    <glyph glyph-name="five" unicode="5" horiz-adv-x="559" 
d="M213 1q102 0 159 56t57 152q0 74 -51.5 124.5t-130.5 50.5q-41 0 -78.5 -16.5t-96.5 -65.5q-4 -2 -9.5 1t-5.5 8l3 328q0 6 33 29t39 23h14t38 -1q50 0 73.5 -0.5t37.5 -0.5h156q24 0 33.5 -1t9.5 -3q0 -3 -1 -10.5t-4 -29.5q-7 -46 -10 -71t-4 -44l-5 -71
q0 -5 -4.5 -5.5t-4.5 4.5l5 72q4 62 -19 81.5t-97 20.5h-222l-18 -292q48 37 91 55t83 18q104 0 164.5 -56t60.5 -151q0 -100 -70.5 -160.5t-191.5 -60.5q-32 0 -78 5t-81 12q-10 2 -9.5 6t7.5 3q30 -5 63.5 -7.5t63.5 -2.5z" />
    <glyph glyph-name="six" unicode="6" horiz-adv-x="571" 
d="M279 -13q-104 0 -171.5 76.5t-67.5 204.5q0 61 28 131t78 131q45 57 103.5 100t126.5 68q5 2 7 -1t-3 -5q-122 -48 -190.5 -160.5t-68.5 -251.5q0 -106 58 -187.5t130 -81.5q31 0 55 5.5t43 16.5q27 38 37.5 75t10.5 92q0 84 -51.5 136.5t-125.5 52.5q-26 0 -61 -13.5
t-57 -33.5q-4 -2 -6 -0.5t1 4.5q32 32 79.5 55.5t82.5 23.5q98 0 155 -54.5t57 -153.5q0 -45 -19 -86.5t-62 -84.5q-49 -28 -94 -43.5t-75 -15.5z" />
    <glyph glyph-name="seven" unicode="7" horiz-adv-x="542" 
d="M285 0q-34 1 -45.5 1h-15.5h-12.5t-36.5 -1q-39 -1 -56 -1h-24q-6 0 -5.5 4.5t6.5 4.5h28q38 0 76 46.5t86 152.5l70 153q61 133 79 174t31 75h-273q-86 -1 -107 -18t-25 -80l-6 -100q0 -8 -5.5 -7.5t-4.5 8.5l7 99q1 20 2.5 49.5t2.5 84.5q0 20 0.5 27t0.5 10q0 2 9 3
t32 1h134q13 0 49 0.5t123 0.5q51 1 67 1h20t7 -33.5t0 -37.5q-42 -77 -73 -138.5t-60 -122.5l-70 -154q-16 -37 -25 -72.5t-9 -65.5q0 -28 16.5 -42.5t48.5 -14.5q5 0 11 0.5t14 1.5q3 1 4 1h2q3 0 4.5 -1.5t1.5 -4.5t-2.5 -4t-9.5 -1h-18t-49 1z" />
    <glyph glyph-name="eight" unicode="8" horiz-adv-x="574" 
d="M505 201q0 -53 -22.5 -92t-71.5 -69q-31 -17 -78 -33.5t-74 -16.5q-98 0 -156.5 49t-58.5 125q0 55 43 108.5t117 94.5q-66 38 -94 76t-28 84t19.5 80t62.5 60q29 16 69.5 29t64.5 13q84 0 132.5 -40.5t48.5 -106.5q0 -40 -29 -80t-112 -100q95 -52 131 -93t36 -88z
M167 663q-18 -28 -24.5 -48.5t-6.5 -48.5q0 -30 18.5 -57t57.5 -54q13 -10 29.5 -19.5t92.5 -51.5q40 40 58 80t18 88q0 63 -38 95t-113 32q-24 0 -52.5 -5t-39.5 -11zM304 27q29 0 57 4.5t47 12.5q25 29 33 47.5t8 49.5q0 40 -21 74t-67 65q-28 19 -82 47t-69 37
q-46 -30 -71.5 -74t-25.5 -95q0 -75 52.5 -121.5t138.5 -46.5z" />
    <glyph glyph-name="nine" unicode="9" horiz-adv-x="578" 
d="M421 150q-46 -57 -105 -100t-127 -69q-5 -2 -7 1t3 5q123 48 189 159t70 266q2 112 -52 188t-136 76q-30 0 -53 -5.5t-42 -16.5q-30 -43 -41.5 -80t-11.5 -87q0 -86 48 -138t120 -52q29 0 62 13t56 34q4 2 6 0.5t-1 -4.5q-33 -33 -80.5 -57t-83.5 -24q-95 0 -147.5 54
t-52.5 154q0 47 20 90.5t60 83.5q48 27 94 43t77 16q107 0 175 -77.5t68 -208.5q0 -58 -29 -129.5t-79 -134.5z" />
    <glyph glyph-name="colon" unicode=":" horiz-adv-x="252" 
d="M126 302q-25 0 -41.5 16.5t-16.5 41.5q0 24 17 41t41 17q23 0 40.5 -17.5t17.5 -40.5q0 -24 -17 -41t-41 -17zM126 -4q-25 0 -41.5 16.5t-16.5 41.5q0 24 17 41t41 17q23 0 40.5 -17.5t17.5 -40.5q0 -24 -17 -41t-41 -17z" />
    <glyph glyph-name="semicolon" unicode=";" horiz-adv-x="269" 
d="M126 302q-25 0 -41.5 16.5t-16.5 41.5q0 24 17 41t41 17q23 0 40.5 -17.5t17.5 -40.5q0 -24 -17 -41t-41 -17zM204 8q0 -36 -26.5 -73t-61.5 -58q-4 -2 -5.5 -0.5t2.5 4.5q29 17 45 45t16 65q0 9 -1.5 17.5t-4.5 15.5q-7 -12 -18 -18t-25 -6q-22 0 -37 15t-15 37
q0 25 16.5 41.5t43.5 16.5q33 0 52 -27.5t19 -74.5z" />
    <glyph glyph-name="less" unicode="&#x3c;" horiz-adv-x="558" 
d="M428 212q2 -6 -0.5 -12t-6.5 -8q-14 8 -51.5 25t-98.5 43q-41 19 -67.5 31t-80.5 36q-1 0 -1 6t1 6q11 5 21.5 10t30.5 13q33 15 53.5 24.5t44.5 20.5q57 25 85 38.5t58 29.5q5 -3 7 -8.5t1 -11.5q-33 -11 -80 -31.5t-66 -28.5q-25 -11 -45.5 -20t-90.5 -42
q40 -18 68 -30.5t68 -31.5q63 -27 90.5 -38t59.5 -21z" />
    <glyph glyph-name="equal" unicode="=" horiz-adv-x="558" 
d="M279 421q60 0 96.5 1t74.5 3q4 -5 5 -11t-2 -13q-41 7 -106.5 6.5t-66.5 -0.5q-25 0 -78.5 1t-93.5 -2q-4 3 -5.5 9.5t0.5 12.5q38 -4 67.5 -5.5t108.5 -1.5zM279 266q60 0 96.5 1t74.5 3q5 -3 5.5 -10t-2.5 -14q-41 7 -106.5 6.5t-66.5 -0.5q-25 0 -78.5 1t-93.5 -2
q-5 1 -6.5 8.5t1.5 13.5q38 -4 67.5 -5.5t108.5 -1.5z" />
    <glyph glyph-name="greater" unicode="&#x3e;" horiz-adv-x="558" 
d="M289 261q-51 -22 -82 -37t-64 -33q-5 3 -7 8.5t-1 11.5q32 10 79.5 31t69.5 31q55 25 81.5 37t53.5 25q-11 5 -22.5 10.5t-35.5 16.5q-28 12 -44.5 19.5t-32.5 15.5q-54 23 -90.5 38t-55.5 21q-2 6 0.5 12t6.5 8q28 -15 57 -28.5t89 -39.5q41 -19 67.5 -31t80.5 -36
q1 0 1 -6t-1 -6q-11 -5 -21.5 -10t-30.5 -13q-33 -15 -53.5 -24.5t-44.5 -20.5zM426 338v0v0v0z" />
    <glyph glyph-name="question" unicode="?" horiz-adv-x="395" 
d="M132 185q0 3 -0.5 41.5t-0.5 114.5q0 5 2 7t6 4q85 42 118.5 79.5t32.5 88.5q-1 57 -54 88.5t-150 31.5q-3 0 -4.5 1.5t-1.5 4.5t3 13t11 41q10 32 13.5 46.5t5.5 22.5q1 4 3.5 3.5t2.5 -4.5q-2 -11 -6 -32.5t-3 -24.5q0 -2 2.5 -3t15.5 -1q93 0 150.5 -42t57.5 -104
q0 -55 -41 -108.5t-99 -81.5q0 -5 1 -17t3 -45q4 -47 5 -63.5t0 -19.5q-1 -4 -36.5 -24.5t-36.5 -16.5zM178 -4q-25 0 -41.5 16.5t-16.5 41.5q0 24 17.5 41t41.5 17q23 0 40 -17.5t17 -40.5q0 -24 -17 -41t-41 -17z" />
    <glyph glyph-name="at" unicode="@" horiz-adv-x="977" 
d="M790 -83l3 -2q-63 -62 -146 -98.5t-167 -36.5q-191 0 -309.5 106.5t-118.5 283.5q0 100 39.5 189t114.5 159q73 69 166.5 107.5t185.5 38.5q76 0 139.5 -21t112.5 -61q55 -45 86 -109t32 -126q0 -144 -93 -245t-225 -101q-8 0 -33 7t-29 11q-11 12 -18.5 33t-8.5 38
q-1 24 14 62.5t56 111.5q-51 -61 -119 -129t-125 -117q-5 -5 -21 -4.5t-20 4.5q-32 23 -35 87.5t24 128.5q17 41 45.5 78.5t67.5 68.5q42 34 88 54.5t80 20.5q31 0 51 -12t59 -55q10 10 29.5 29t30.5 32q5 4 7.5 4t3.5 -5q-51 -64 -111.5 -187.5t-57.5 -170.5
q1 -12 19.5 -40t30.5 -31q55 0 107 26.5t90 74.5q35 44 53 98.5t18 115.5q0 59 -30.5 122t-82.5 108q-49 42 -111 63t-136 21q-86 0 -172.5 -35t-154.5 -98q-70 -65 -107.5 -147t-37.5 -173q0 -185 114 -290t309 -105q70 0 152 33.5t141 82.5zM358 245q-19 -61 -18 -112
t20 -73q31 9 124 104.5t156 182.5q-47 55 -67 70t-43 15q-46 0 -97 -55t-75 -132z" />
    <glyph glyph-name="A" unicode="A" horiz-adv-x="711" 
d="M465 248l-117 -3q-27 0 -79.5 1t-99.5 3l-17 -43q-16 -40 -26 -80.5t-10 -68.5q0 -24 14.5 -36.5t41.5 -12.5q2 0 6 0.5l12 1.5q5 1 7 1h3q3 0 5 -1.5t2 -3.5q0 -3 -3 -4.5t-9 -1.5h-16.5t-41.5 1t-41 1h-15h-8.5t-20.5 -1q-24 -1 -35 -1h-19q-3 0 -4.5 1.5t-1.5 3.5
q0 1 2 2.5t4 1.5h4q20 0 38 14.5t34 45.5q16 28 34 66t32 76l193 482q1 2 2.5 2.5t4.5 0.5h10q4 0 6.5 -0.5t3.5 -2.5l182 -434q21 -51 36 -85t27 -58q29 -63 48 -85t51 -22h8q3 0 5 -1t2 -3t-1.5 -3.5t-4.5 -1.5q-9 0 -22.5 0.5t-42.5 1.5q-19 1 -26 1h-10h-11.5t-31.5 -1
q-37 -1 -53 -1.5t-25 -0.5q-6 0 -7.5 4.5t4.5 4.5h21q31 0 31 24t-23 88q-9 23 -21.5 54.5t-30.5 72.5zM460 258v1l-149 349l-139 -351l170 1h118z" />
    <glyph glyph-name="B" unicode="B" horiz-adv-x="605" 
d="M90 2q-33 -1 -48 -1.5t-23 -0.5q-6 0 -6 4.5t6 4.5h18q30 0 38 13t12 49q1 16 2 38.5t2 55.5v40.5v53.5v175v53.5v40.5q-1 33 -2 55.5t-2 38.5q-4 36 -12 49t-38 13h-18q-6 0 -6 4.5t6 4.5q8 0 23 -0.5t48 -1.5q21 -1 29 -1h11t17.5 0.5t56.5 0.5q51 1 69 1.5t23 0.5
q139 0 201 -39t62 -124q0 -69 -52.5 -111.5t-151.5 -54.5q106 -8 166.5 -54t60.5 -121q0 -95 -65 -142t-195 -47q-5 0 -26 0.5t-80 1.5q-49 0 -66 0.5t-20 0.5h-11t-29 -1zM281 681h-72q-28 0 -33.5 -12t-6.5 -52v-23.5t1 -68.5v-49v-42v-67h114q99 0 144.5 39.5t45.5 124.5
q0 81 -42.5 115.5t-150.5 34.5zM174 72q3 -37 11 -50t37 -13h85q98 0 144 43.5t46 136.5q0 87 -48 127t-152 40h-127v-97v-55v-39q1 -33 1.5 -55t2.5 -38z" />
    <glyph glyph-name="C" unicode="C" horiz-adv-x="756" 
d="M422 -10q-162 0 -270.5 101.5t-108.5 254.5q0 152 111.5 254.5t271.5 102.5q62 0 135 -13t114 -31l12 -218q0 -5 -4 -5t-5 5q-6 61 -24.5 107.5t-48.5 78.5q-32 33 -76 49.5t-101 16.5q-133 0 -214 -95.5t-81 -251.5q0 -159 77 -252.5t210 -93.5q60 0 107 18.5t80 54.5
q31 33 49.5 82t24.5 112q0 3 4 3t4 -3l-12 -233q-46 -20 -114 -32t-141 -12z" />
    <glyph glyph-name="D" unicode="D" horiz-adv-x="733" 
d="M157 3q-15 0 -50 -0.5t-91 -2.5q-8 0 -8 3.5t8 3.5q36 0 48.5 9t17.5 34q4 14 6 35t3 55q1 12 1 75v178q0 12 -0.5 30t-0.5 62q-1 49 -1.5 71t-0.5 37q0 66 -8.5 78.5t-57.5 12.5q-6 0 -6 4.5t6 4.5h10.5t35.5 -1q40 -1 55.5 -1h20.5h14.5t44.5 1q52 1 73.5 1h30.5
q162 0 272 -98.5t110 -248.5q0 -151 -107 -248.5t-271 -97.5q-7 0 -21.5 0.5t-50.5 0.5q-40 1 -57 1.5t-26 0.5zM314 10q134 0 210.5 90t76.5 246q0 154 -80 246t-215 92h-66q-38 0 -49 -11t-15 -42q-2 -16 -3 -39t-2 -60v-36.5v-61.5v-273q0 -51 -2.5 -91.5t-5.5 -55.5
q5 0 15.5 -0.5t38.5 -1.5q43 -1 63 -1.5t34 -0.5z" />
    <glyph glyph-name="E" unicode="E" horiz-adv-x="622" 
d="M157 3l-141 -3q-8 0 -8 3.5t8 3.5q36 0 47.5 9t17.5 35q3 13 5.5 33.5t4.5 55.5q2 28 3 73.5t1 220.5v52.5t-1 42.5q0 32 -1.5 54.5t-3.5 38.5q-4 35 -13 48.5t-39 13.5h-18q-6 0 -6 4.5t6 4.5q8 0 23 -0.5t48 -1.5q21 -1 29 -1h11h23.5t88.5 1q129 1 179 1.5t61 0.5
q18 0 30.5 -1t16.5 -3q2 -1 9 -47t20 -137l4 -36q1 -5 -3.5 -5t-6.5 5l-5 36q-14 83 -69.5 129t-141.5 47h-127q-26 0 -31.5 -12.5t-6.5 -52.5q0 -11 -0.5 -28t0.5 -63v-52v-39v-69h83q80 0 116 26t36 89v21q0 6 5 6t5 -6q0 -9 -0.5 -27.5t-2.5 -63.5q-1 -28 -1.5 -38
t-0.5 -13q0 -4 0.5 -17t1.5 -50q2 -38 2.5 -52t0.5 -18q0 -6 -5 -6t-5 6v15q0 63 -36 89.5t-116 26.5h-83v-192q0 -51 -2.5 -91.5t-5.5 -55.5q8 0 26 -0.5t66 -0.5q50 -1 69.5 -1.5t27.5 -0.5q80 0 140 59t71 143l6 53q1 5 6.5 4.5t4.5 -5.5l-6 -54q-13 -118 -19.5 -160
t-11.5 -47q-2 -2 -27 -3t-106 -1q-35 0 -98.5 1t-154.5 2z" />
    <glyph glyph-name="F" unicode="F" horiz-adv-x="622" 
d="M96 2q-31 -1 -45.5 -1.5t-22.5 -0.5q-6 0 -6 4.5t6 4.5h13q30 0 38 13t12 49q1 16 2 38.5t2 55.5v40.5v53.5v175v52.5t-1 42.5q0 32 -1.5 54.5t-3.5 38.5q-4 35 -13 48.5t-39 13.5h-18q-6 0 -6 4.5t6 4.5h13.5h24.5q33 -1 54.5 -1h44.5q93 0 168 0.5t145 2.5h21.5h9.5
q17 0 31 -1t22 -2q1 -1 2 -9.5t5 -41.5q5 -53 9.5 -93.5t9.5 -83.5l8 -66q1 -5 -4.5 -5.5t-6.5 4.5l-8 65q-14 103 -67.5 161.5t-135.5 57.5h-156q-26 0 -31.5 -12.5t-6.5 -52.5q0 -11 -0.5 -28t0.5 -63v-52v-39v-88h80q80 0 116 30t36 101v14q0 6 5 6t5 -6q0 -9 -0.5 -29.5
t-2.5 -68.5q-1 -30 -1.5 -40t-0.5 -13q0 -4 0.5 -19t1.5 -57q2 -42 2.5 -57t0.5 -19q0 -6 -5 -6t-5 6v16q0 71 -36 100.5t-116 29.5h-80v-75v-53.5v-40.5q1 -32 2 -54.5t2 -38.5q4 -36 12 -49.5t37 -13.5h37q6 0 6 -4.5t-6 -4.5q-9 0 -26 0.5t-56 1.5q-25 1 -33.5 1h-11.5
h-10.5t-27.5 -1z" />
    <glyph glyph-name="G" unicode="G" horiz-adv-x="770" 
d="M565 14q-52 -14 -83 -19t-60 -5q-162 0 -270.5 101.5t-108.5 254.5q0 152 111.5 254.5t271.5 102.5q62 0 135 -13t114 -31l12 -213q1 -6 -3.5 -7t-5.5 6q-5 51 -18.5 91.5t-35.5 70.5q-32 43 -81 64.5t-115 21.5q-135 0 -215 -94t-80 -253t77 -252.5t210 -93.5
q54 0 100.5 12.5t100.5 43.5q2 4 2.5 21t0.5 109q0 36 -0.5 70t-1.5 42q-12 3 -30.5 5t-47.5 3q-36 2 -100 3t-117 1q-5 0 -4.5 3.5t5.5 3.5q121 0 207 2.5t159 8.5q2 0 4 -2.5t2 -5.5q-1 -51 -1 -115.5v-206.5q0 -4 -2 -4.5t-6 3.5q-14 11 -33 20.5t-29 9.5
q-9 0 -21.5 -2.5t-42.5 -10.5z" />
    <glyph glyph-name="H" unicode="H" horiz-adv-x="696" 
d="M91 259v175v53.5v40.5q-1 33 -2 55.5t-2 38.5q-4 36 -12 49t-38 13h-13q-6 0 -6 4.5t6 4.5q8 0 22.5 -0.5t45.5 -1.5q20 -1 27.5 -1h10.5h10.5t28.5 1q33 1 48 1.5t24 0.5q6 0 6 -4.5t-6 -4.5h-20q-30 0 -38 -13t-12 -49q-1 -16 -2 -38.5t-2 -55.5v-40.5v-53.5v-80l184 2
l178 -3v81v53.5v40.5q-1 33 -2 55.5t-2 38.5q-4 36 -12 49t-38 13h-21q-6 0 -6 4.5t6 4.5q9 0 24 -0.5t48 -1.5q21 -1 29 -1h11h10.5t27.5 1q32 1 46.5 1.5t23.5 0.5q6 0 6 -4.5t-6 -4.5h-16q-29 0 -37 -13t-12 -49q-1 -16 -2 -39t-2 -55v-41v-53v-175v-53.5v-40.5
q1 -32 2 -54.5t2 -38.5q3 -36 11.5 -49.5t37.5 -13.5h16q6 0 6 -4.5t-6 -4.5q-9 0 -23.5 0.5t-46.5 1.5q-20 1 -27.5 1h-10.5h-11t-29 -1q-33 -1 -48 -1.5t-24 -0.5q-6 0 -6 4.5t6 4.5h21q30 0 38 13t12 49q1 16 2 38.5t2 55.5v40.5v53.5v85l-177 -2q-47 0 -99.5 0.5
t-85.5 1.5v-85v-53.5v-40.5q1 -33 2 -55.5t2 -38.5q4 -36 12 -49t38 -13h20q6 0 6 -4.5t-6 -4.5q-9 0 -24 0.5t-48 1.5q-21 1 -28.5 1h-10.5h-10.5t-27.5 -1q-31 -1 -45.5 -1.5t-22.5 -0.5q-6 0 -6 4.5t6 4.5h13q30 0 38 13t12 49q1 16 2 38.5t2 55.5v40.5v53.5z" />
    <glyph glyph-name="I" unicode="I" horiz-adv-x="281" 
d="M102 259v175v53.5v40.5q-1 33 -2 55.5t-2 38.5q-4 36 -12 49t-38 13h-21q-6 0 -6 4.5t6 4.5q9 0 24 -0.5t50 -1.5q22 -1 29.5 -1h10.5h11t30 1q34 1 49 1.5t23 0.5q6 0 6 -4.5t-6 -4.5h-21q-30 0 -38 -13t-12 -49q-1 -16 -2 -38.5t-2 -55.5v-40.5v-53.5v-175v-53.5v-40.5
q1 -33 2 -55.5t2 -38.5q4 -36 12 -49t38 -13h21q6 0 6 -4.5t-6 -4.5q-8 0 -23 0.5t-49 1.5q-22 1 -30 1h-11h-10.5t-29.5 -1q-35 -1 -50 -1.5t-24 -0.5q-6 0 -6 4.5t6 4.5h21q30 0 38 13t12 49q1 16 2 38.5t2 55.5v40.5v53.5z" />
    <glyph glyph-name="J" unicode="J" horiz-adv-x="285" 
d="M26 -154q-21 -20 -48.5 -39t-38.5 -19q-22 0 -35 7t-13 18q0 25 14.5 42t40.5 17q7 0 26 -1t29 -1q19 0 31 4t20 12q35 38 46.5 116.5t11.5 256.5v175v41.5v30.5q0 22 -0.5 39.5t-0.5 30.5q-1 25 -2 42t-3 28q-4 22 -11.5 30t-36.5 8h-26q-6 0 -6 4.5t6 4.5q9 0 25 -0.5
t53 -1.5q23 -1 31 -1h11h11t31 1q33 1 48.5 1.5t23.5 0.5q6 0 6 -4.5t-6 -4.5h-20q-33 0 -41.5 -12.5t-11.5 -46.5q-1 -16 -1.5 -38.5t-1.5 -57.5v-36.5v-58.5v-115v-17v-34q1 -25 1 -36v-19q0 -70 -7.5 -119t-24.5 -87q-15 -33 -40 -65t-91 -96z" />
    <glyph glyph-name="K" unicode="K" horiz-adv-x="668" 
d="M65 1q-25 -1 -33 -1h-10q-6 0 -6 4.5t6 4.5q16 0 28 0.5t18 1.5q10 10 14 28.5t6 61.5q1 35 2 95.5t1 104.5v133v53.5v40.5q-1 33 -2 55.5t-2 38.5q-4 36 -12 49t-38 13h-18q-6 0 -6 4.5t6 4.5q8 0 23 -0.5t49 -1.5q22 -1 30 -1h11h10.5t27.5 1q32 1 46.5 1.5t23.5 0.5
q6 0 6 -4.5t-6 -4.5h-18q-30 0 -38.5 -13t-11.5 -49q-2 -16 -3 -38.5t-1 -55.5q-1 -18 -1 -41v-53v-140l180 194q55 60 85.5 105t30.5 67q-1 12 -11 18.5t-28 6.5q-2 0 -5.5 -0.5t-9.5 -2.5q-4 0 -5.5 -0.5t-2.5 -0.5q-4 0 -6.5 2t-2.5 4q0 3 3 4.5t8 1.5h16t40 -1
q28 -1 38.5 -1h14.5h10t28 1q32 1 46 1h22q5 0 5 -4.5t-5 -4.5h-2q-43 0 -81.5 -27t-178.5 -175l-97 -103q18 11 35.5 16t35.5 5q21 0 34 -2.5t28 -10.5q23 -12 39.5 -31t31.5 -50q8 -17 22 -52t21 -51q47 -119 74 -156.5t67 -37.5h12q10 0 9 -4.5t-11 -4.5h-34
q-11 0 -22 -0.5t-29 -2.5q-9 0 -13.5 -0.5t-7.5 -0.5q-17 0 -28 5.5t-22 18.5q-13 17 -29.5 52t-39.5 99q-22 63 -30.5 84t-16.5 38q-21 44 -42.5 65.5t-44.5 21.5q-19 0 -32 -6t-31 -21l-68 -72v-22v-53.5v-40.5q1 -33 2 -55.5t2 -38.5q4 -36 12 -49t38 -13h22q6 0 6 -4.5
t-6 -4.5h-9.5t-30.5 1q-35 1 -48.5 1h-18.5h-19.5t-51.5 -1z" />
    <glyph glyph-name="L" unicode="L" horiz-adv-x="609" 
d="M157 3l-141 -3q-8 0 -8 3.5t8 3.5q36 0 47.5 9t17.5 35q3 13 5.5 33.5t4.5 55.5q1 20 2 51t0 75q0 27 -0.5 71.5t-0.5 55.5q0 12 -0.5 30t-0.5 62q-1 49 -1.5 71t-0.5 37q0 66 -8.5 78.5t-57.5 12.5q-6 0 -6 4.5t6 4.5h10.5t35.5 -1q40 -1 55.5 -1h20.5h11.5t32.5 1
q37 1 53.5 1h25.5q6 0 6 -4.5t-6 -4.5h-28q-38 0 -49 -11t-15 -42q-2 -16 -3 -39t-2 -60v-36.5v-61.5v-273q0 -51 -2.5 -91.5t-5.5 -55.5q8 0 26 -0.5t67 -0.5q51 -1 70.5 -1.5t27.5 -0.5q77 0 136 69t71 160l10 91q1 5 6.5 4.5t4.5 -5.5l-10 -92q-14 -131 -21 -179.5
t-12 -52.5q-3 -3 -39.5 -4.5t-93.5 -1.5q-35 0 -97.5 1t-151.5 2z" />
    <glyph glyph-name="M" unicode="M" horiz-adv-x="855" 
d="M68 2q-21 -1 -32.5 -1.5t-19.5 -0.5q-6 0 -6 4.5t7 4.5h6q35 1 48.5 25t19.5 82q3 27 4.5 62.5t1.5 80.5v83t1 144v82.5v35.5q0 14 -3.5 25t-9.5 18q-17 19 -33.5 28.5t-31.5 9.5h-5q-5 0 -5 4t5 4q41 0 71 1.5t51 4.5q3 1 4 1h2q4 0 6 -1.5t4 -4.5q5 -9 16.5 -27
t23.5 -35l242 -354l202 315q4 6 15 24t30 49q12 20 19.5 27t14.5 7q4 0 14.5 -0.5t40.5 -2.5q32 -3 44 -3.5t17 -0.5q6 0 6 -4.5t-6 -4.5h-15q-30 0 -38 -13t-12 -49q-1 -16 -2 -38.5t-2 -55.5v-40.5v-53.5v-175v-53.5v-40.5q1 -33 2 -55.5t2 -38.5q4 -36 12 -49t38 -13h15
q6 0 6 -4.5t-6 -4.5q-9 0 -23.5 0.5t-46.5 1.5q-20 1 -27 1h-10h-11t-30 -1q-33 -1 -48 -1.5t-23 -0.5q-6 0 -6 4.5t6 4.5h20q30 0 38 13t12 49q1 16 2 38.5t2 55.5v40.5v53.5v354q0 12 -1 16.5t-4 4.5q-2 0 -7 -6.5t-27 -40.5l-236 -369q-2 -4 -4 -5.5t-5 -1.5h-9
q-2 0 -4 1.5t-4 5.5l-275 401l-1 -360q0 -48 2.5 -86t8.5 -67q10 -50 30 -73.5t64 -23.5h14q5 0 5 -4.5t-5 -4.5h-30.5t-66.5 2q-19 1 -25.5 1h-9.5h-9t-20 -1z" />
    <glyph glyph-name="N" unicode="N" horiz-adv-x="716" 
d="M618 -3q-4 0 -11 6.5t-14 15.5l-482 602l-1 -362q0 -48 3 -86t8 -66q10 -51 30 -74.5t64 -23.5h14q5 0 5 -4.5t-5 -4.5h-30.5t-66.5 2q-19 1 -25.5 1h-9.5h-9t-20 -1q-21 -1 -32.5 -1.5t-19.5 -0.5q-6 0 -6 4.5t7 4.5h6q35 1 48.5 25t19.5 82q3 27 4.5 62.5t1.5 80.5
l1 359q0 7 -4 15t-12 16q-20 20 -38 28t-41 8h-4q-5 0 -5 4t5 4q41 0 75.5 1t64.5 3h6.5h2.5q4 0 6 -1.5t4 -4.5q5 -9 15 -23t24 -30l416 -517v313q0 48 -3.5 86.5t-10.5 67.5q-11 50 -33 73t-67 23h-14q-6 0 -6 4.5t6 4.5q9 0 26.5 -0.5t59.5 -1.5q26 -1 35.5 -1h12.5h8
t18 1q21 1 32 1.5t20 0.5q6 0 6 -4.5t-6 -4.5h-7q-31 0 -41 -13t-15 -46q-3 -17 -4.5 -40.5t-2.5 -55.5q0 -20 -0.5 -43.5t-0.5 -51.5v-427q0 -6 -2 -8t-6 -2z" />
    <glyph glyph-name="O" unicode="O" horiz-adv-x="794" 
d="M645 94q-51 -50 -117 -77t-136 -27q-145 0 -247 103t-102 253q0 73 26.5 138t76.5 115t115.5 77t136.5 27q70 0 135.5 -27.5t114.5 -77.5t75.5 -115t26.5 -137t-27 -137t-78 -115zM133 346q0 -159 68.5 -252.5t186.5 -93.5q122 0 197.5 96t75.5 250q0 159 -70 253
t-189 94q-122 0 -195.5 -95.5t-73.5 -251.5z" />
    <glyph glyph-name="P" unicode="P" horiz-adv-x="613" 
d="M68 1q-27 -1 -35.5 -1h-10.5q-6 0 -6 4.5t6 4.5q23 0 32 0.5t14 1.5q10 10 14 28.5t6 61.5q1 35 2 95.5t1 104.5v133v53.5v40.5q-1 33 -2 55.5t-2 38.5q-4 36 -12 49t-38 13h-18q-6 0 -6 4.5t6 4.5q8 0 23 -0.5t48 -1.5q21 -1 29 -1h11t18.5 0.5t61.5 0.5q55 1 74.5 1.5
t24.5 0.5q124 0 194 -50.5t70 -141.5q0 -92 -71.5 -149t-186.5 -57q-26 1 -56.5 1h-91.5v-36v-50t1 -42q0 -29 1.5 -51.5t2.5 -39.5q4 -38 11.5 -53t30.5 -15h51q6 0 6 -4.5t-6 -4.5h-25t-53 1q-23 1 -31.5 1h-11.5h-20.5t-55.5 -1zM294 683h-88q-25 0 -31 -12.5t-7 -50.5
q-1 -13 -1 -32v-55v-227h126q91 0 142.5 52t51.5 144q0 90 -48.5 135.5t-144.5 45.5z" />
    <glyph glyph-name="Q" unicode="Q" horiz-adv-x="794" 
d="M623 -92q-27 -47 -67 -75t-83 -28q-65 0 -95 47.5t-30 150.5q-131 16 -218 114.5t-87 233.5q0 72 26.5 136.5t76.5 113.5t115.5 75.5t135.5 26.5t135 -26.5t114 -76.5q50 -49 76.5 -113t26.5 -136q0 -135 -91.5 -234t-225.5 -115q1 -97 22.5 -133t70.5 -36q23 0 44 19.5
t42 61.5q3 6 9.5 3.5t2.5 -9.5zM133 351q0 -157 68.5 -250t186.5 -93q121 0 196.5 95.5t75.5 247.5q0 156 -70 249t-189 93q-121 0 -194.5 -94t-73.5 -248z" />
    <glyph glyph-name="R" unicode="R" horiz-adv-x="642" 
d="M63 1q-24 -1 -31.5 -1h-9.5q-6 0 -6 4.5t6 4.5q16 0 28 0.5t18 1.5q10 10 14 28.5t6 61.5q1 35 2 95.5t1 104.5v133v53.5v40.5q-1 33 -2 55.5t-2 38.5q-4 36 -12 49t-38 13h-18q-6 0 -6 4.5t6 4.5q8 0 23 -0.5t48 -1.5q21 -1 29 -1h11q4 0 14.5 0.5t41.5 0.5q36 1 49 1.5
t18 0.5q126 0 191 -42t65 -123q0 -58 -59.5 -102t-153.5 -59q64 -2 100 -34t85 -130q21 -44 35.5 -72.5t25.5 -48.5q24 -42 44.5 -57.5t57.5 -15.5h7q7 0 7 -4.5t-7 -4.5h-36q-11 0 -21.5 -0.5t-27.5 -2.5q-9 0 -13 -0.5t-7 -0.5q-17 0 -28 5.5t-23 18.5q-18 21 -39 59
t-44 92q-22 51 -38.5 83t-31.5 51q-23 30 -49.5 42t-84.5 13h-41v-101v-53.5v-40.5q1 -33 2 -55.5t2 -38.5q4 -36 12 -49t38 -13h20q6 0 6 -4.5t-6 -4.5q-9 0 -23.5 0.5t-47.5 0.5q-20 1 -27.5 1h-10.5h-19t-50 -1zM168 621q-1 -13 -1 -32.5v-55.5v-163q11 1 26.5 1h57.5
q73 0 121 43t48 115q0 81 -42 118t-133 37h-39q-25 0 -31 -12.5t-7 -50.5z" />
    <glyph glyph-name="S" unicode="S" horiz-adv-x="561" 
d="M505 620q-3 -56 -4 -101t-1 -94v-3q0 -10 -5 -10t-5 10v3q0 151 -50 209.5t-163 58.5q-83 0 -127 -34.5t-44 -98.5q0 -35 18 -63.5t57 -54.5q19 -12 45 -25t86 -38t88 -40t49 -30q37 -26 54.5 -57.5t17.5 -69.5q0 -83 -62.5 -137.5t-155.5 -54.5q-67 0 -116.5 6
t-116.5 24q-6 1 -8 3t-2 7v36.5v87.5q-1 66 -1 92.5v39.5q0 10 5.5 10t5.5 -10q0 -146 57 -216t176 -70q76 0 117 35t41 100q0 35 -17.5 64t-54.5 54q-18 12 -43 24.5t-87 38.5q-59 24 -88.5 39t-51.5 30q-39 27 -57.5 58.5t-18.5 69.5q0 84 66.5 137t167.5 53
q55 0 102.5 -5.5t115.5 -20.5q7 -2 8.5 -4t2.5 -7v-12t-1 -34z" />
    <glyph glyph-name="T" unicode="T" horiz-adv-x="658" 
d="M290 2q-33 -1 -48 -1.5t-23 -0.5q-6 0 -6 4.5t6 4.5h18q30 0 38 13t12 49q1 16 2 38.5t2 55.5v40.5v53.5v427q-14 -1 -32 -1h-50q-71 0 -109.5 -46t-55.5 -158l-8 -57q-2 -5 -6.5 -5t-3.5 5l8 57q4 33 6 70.5t3 94.5q0 27 0.5 34t1.5 8q5 3 40.5 5t81.5 2h17.5t43.5 -1
q46 -1 67 -1h34h18.5t27.5 1q32 0 57.5 0.5t57.5 0.5q46 0 82 -2t41 -5q1 -1 1.5 -8t0.5 -33q1 -57 3 -94.5t7 -71.5l7 -57q1 -5 -3 -5t-6 5l-9 57q-17 112 -55.5 158t-110.5 47h-80v-427v-53.5v-40.5q1 -33 2 -55.5t2 -38.5q4 -36 12 -49t38 -13h18q6 0 6 -4.5t-6 -4.5
q-9 0 -23.5 0.5t-47.5 1.5q-21 1 -28.5 1h-10.5h-11t-29 -1z" />
    <glyph glyph-name="U" unicode="U" horiz-adv-x="665" 
d="M327 -10q-110 0 -174.5 70.5t-64.5 191.5v182v53.5v40.5q-1 32 -2 54.5t-2 38.5q-3 36 -11.5 49.5t-37.5 13.5h-14q-6 0 -6 4.5t6 4.5q8 0 22.5 -0.5t45.5 -1.5q20 -1 27.5 -1h10.5h10.5t28.5 1q33 1 47.5 1.5t23.5 0.5q6 0 6 -4.5t-6 -4.5h-18q-29 0 -37.5 -13
t-12.5 -49q-2 -16 -3 -38.5t-1 -55.5q0 -18 -0.5 -40.5t-0.5 -53.5l-1 -155q0 -120 57 -188.5t157 -68.5q80 0 135 64.5t55 157.5v190q0 48 -3 86.5t-10 67.5q-11 50 -32.5 73t-66.5 23h-9q-6 0 -6 4.5t6 4.5q9 0 26 -0.5t55 -1.5q25 -1 34 -1h12h8.5t19.5 1l33 1.5t19 0.5
q6 0 6 -4.5t-6 -4.5h-7q-31 0 -41 -13t-16 -47q-2 -16 -4 -39.5t-3 -55.5q0 -20 -0.5 -43.5t-0.5 -51.5v-190q0 -109 -70.5 -181.5t-183.5 -72.5z" />
    <glyph glyph-name="V" unicode="V" horiz-adv-x="692" 
d="M358 -3h-10q-4 0 -5.5 0.5t-2.5 2.5l-191 483q-17 43 -29 72t-22 49q-21 47 -37.5 63.5t-52.5 16.5h-8q-9 0 -8 4.5t7 4.5q9 0 22.5 -0.5t41.5 -1.5q18 -1 25 -1h10h11.5t31.5 1q37 1 53 1.5t25 0.5q6 0 5.5 -4.5t-6.5 -4.5h-17q-31 0 -32 -17.5t20 -76.5
q5 -14 12.5 -33.5t31.5 -80.5l147 -375q1 -2 2.5 -3.5t2.5 -1.5t2.5 1.5t2.5 3.5l148 386q15 38 25.5 78t10.5 64q0 27 -14.5 41.5t-41.5 14.5q-2 0 -6 -0.5t-12 -2.5q-5 0 -7 -0.5t-3 -0.5q-3 0 -5 1.5t-2 4.5t3 4.5t9 1.5h16.5t41.5 -1t41 -1h15h8.5t20.5 1q24 1 35 1h19
q2 0 3.5 -1t1.5 -2q0 -2 -2 -4t-5 -2h-2q-21 0 -39 -14.5t-33 -43.5q-19 -36 -37 -75.5t-30 -68.5l-184 -482q-1 -2 -2.5 -2.5t-4.5 -0.5z" />
    <glyph glyph-name="W" unicode="W" horiz-adv-x="982" 
d="M336 -3h-8q-4 0 -5.5 0.5t-2.5 2.5l-184 485q-17 45 -29 73t-20 47q-22 47 -38 63t-51 16h-2q-9 0 -8 4.5t7 4.5q9 0 21.5 -0.5t38.5 -1.5q17 -1 23.5 -1h9.5h13t38 1q43 1 61.5 1.5t27.5 0.5q6 0 6.5 -4.5t-5.5 -4.5h-26q-21 0 -32 -7t-12 -21q0 -17 18.5 -73t55.5 -149
l129 -338q1 -2 2.5 -3.5t2.5 -1.5t2 1t2 4l115 254l-78 183q-17 39 -26.5 60t-16.5 35q-18 33 -31 44.5t-46 11.5h-8q-8 0 -7.5 4.5t6.5 4.5q9 0 22.5 -0.5t41.5 -1.5q18 -1 25 -1h10h10.5t29.5 1q32 1 47 1.5t24 0.5q6 0 6 -4.5t-6 -4.5h-8q-18 0 -26 -6t-8 -19
q0 -21 10 -53t31 -84l43 -100l41 100q13 30 21.5 63t8.5 52q0 23 -9 35.5t-26 12.5q-2 0 -5.5 -0.5l-10.5 -1.5q-4 -1 -5.5 -1h-2.5q-3 0 -4.5 1t-1.5 4t2.5 4.5t8.5 1.5h15t34 -1q22 -1 31 -1h13h10t27 1q31 1 44.5 1h20.5q6 0 5.5 -4.5t-5.5 -4.5h-26q-36 0 -66.5 -37.5
t-66.5 -128.5l-47 -111l136 -316q1 -2 2 -3.5t3 -1.5q1 0 2 1t2 4l152 396q16 43 25.5 82t9.5 66q0 25 -13 37.5t-38 12.5q-2 0 -6 -0.5t-12 -2.5q-5 0 -7 -0.5t-3 -0.5q-3 0 -5 1.5t-2 4.5t3 4.5t9 1.5h16.5t40.5 -1t40 -1h15h9t21 1q24 1 35.5 1h19.5q6 0 5.5 -4.5
t-5.5 -4.5h-3q-35 0 -67.5 -46t-74.5 -156l-187 -483q-1 -2 -2.5 -2.5t-4.5 -0.5h-10q-3 0 -4.5 0.5t-2.5 2.5l-143 336l-151 -335q-1 -2 -2 -2.5t-4 -0.5z" />
    <glyph glyph-name="X" unicode="X" horiz-adv-x="683" 
d="M533 1q-38 -1 -55 -1.5t-26 -0.5q-7 0 -9 4.5t4 4.5h22q19 0 26.5 4t7.5 13q0 16 -23 57.5t-83 132.5l-76 121l-97 -134q-32 -44 -53.5 -86t-21.5 -61q0 -20 13.5 -34t33.5 -14q6 0 14 1t22 3q6 1 7.5 1h2.5q3 0 4.5 -2t0.5 -5t-4.5 -4.5t-10.5 -1.5h-20.5t-56.5 1
q-39 1 -53 1h-18h-9t-21 -1q-24 -1 -36 -1h-20q-6 0 -5.5 4.5t6.5 4.5h7q33 0 68.5 30.5t137.5 169.5l103 139l-85 135q-30 47 -47.5 74.5t-29.5 45.5q-34 49 -53 65t-54 16h-8q-10 0 -9.5 4.5t7.5 4.5q9 0 23 -0.5t43 -1.5q19 -1 26 -1h11h11.5t32.5 1q39 1 56.5 1.5
t26.5 0.5q7 0 7.5 -4.5t-8.5 -4.5h-17q-20 0 -26 -4t-6 -13q0 -16 20 -54.5t66 -109.5l65 -103l69 95q41 56 60.5 95t19.5 66q0 14 -10.5 21.5t-31.5 7.5q-3 0 -7.5 -0.5t-14.5 -1.5q-5 -1 -6.5 -1h-2.5q-3 0 -4.5 1t-0.5 4t4.5 4.5t9.5 1.5h16.5t45.5 -1q34 -1 46.5 -1
h16.5h9t22 1q23 1 34.5 1h18.5t6 -4.5t-6 -4.5h-2q-24 0 -49.5 -14t-46.5 -39q-23 -25 -53.5 -62t-62.5 -79l-74 -100l114 -181q25 -40 44 -69t34 -50q32 -46 53.5 -63.5t53.5 -17.5h9q9 0 8.5 -4.5t-6.5 -4.5q-9 0 -24 0.5l-45 1.5q-18 1 -25 1h-10h-12.5t-33.5 -1z" />
    <glyph glyph-name="Y" unicode="Y" horiz-adv-x="615" 
d="M403 9h18q6 0 6 -4.5t-6 -4.5q-8 0 -22.5 0.5t-46.5 1.5q-21 1 -29 1h-11h-10.5t-28.5 -1q-33 -1 -47.5 -1.5t-23.5 -0.5q-6 0 -6 4.5t6 4.5h18q30 0 38 13t12 49q1 16 2 38.5t2 55.5v40.5v53.5v55l-108 195q-63 114 -91 144.5t-63 30.5h-8q-3 0 -5 1t-2 3t1.5 3.5
t4.5 1.5q9 0 22.5 -0.5t41.5 -1.5q18 -1 25 -1h10h11.5t31.5 1q37 1 53 1.5t25 0.5q6 0 7.5 -4.5t-4.5 -4.5h-21q-34 0 -27.5 -32.5t69.5 -147.5l95 -174l106 182q41 69 41 121t-53 52q-2 0 -6 -0.5t-12 -2.5q-5 0 -7 -0.5t-3 -0.5q-3 0 -5 1.5t-2 4.5t3 4.5t9 1.5h15.5
t38.5 -1q26 -1 36.5 -1h14.5h10.5t28.5 1q33 1 47.5 1h22.5q6 0 4.5 -4.5t-6.5 -4.5h-2q-30 0 -76.5 -51.5t-87.5 -123.5l-110 -191v-59v-53.5v-40.5q1 -33 2 -55.5t2 -38.5q4 -36 12 -49t38 -13z" />
    <glyph glyph-name="Z" unicode="Z" horiz-adv-x="625" 
d="M136 3l-98 -6q-5 0 -5.5 3t5.5 13l441 668h-185q-89 -1 -145.5 -47.5t-65.5 -128.5l-10 -106q-1 -5 -6.5 -4.5t-5.5 5.5l11 105q7 89 13 135.5t9 48.5q4 2 17.5 3t30.5 1q11 0 57.5 -0.5t166.5 -1.5q63 -1 82 -1h22h9.5t23.5 1l37.5 1.5t20.5 0.5q10 0 12 -2.5t-1 -7.5
l-443 -669q10 0 33.5 -0.5t86.5 -1.5q56 0 76.5 -0.5t28.5 -0.5q80 0 138 59t66 143l7 99q1 5 6 4.5t4 -5.5l-6 -100q-9 -114 -14 -158t-10 -49q-2 -2 -27 -3t-106 -1q-35 0 -104 1t-172 2z" />
    <glyph glyph-name="bracketleft" unicode="[" horiz-adv-x="400" 
d="M111 -270l3 516l-3 525q0 4 1.5 6t5.5 2h26h44q31 -1 47 -1h30h26h43q28 1 42 1h26q5 0 5 -5t-5 -5h-31.5h-53.5q-23 1 -34.5 1h-20.5h-115q-3 0 -5 -1t-2 -2l1 -521l-1 -512q0 -1 2 -2t5 -1h115h20.5t34.5 1h53.5h31.5q5 0 5 -5t-5 -5h-26h-42q-29 1 -43 1h-26h-30
t-47 -1h-44h-26q-4 0 -5.5 2t-1.5 6z" />
    <glyph glyph-name="backslash" unicode="\" horiz-adv-x="356" 
d="M387 -271q-34 88 -79 201t-129 317q-78 193 -133 321.5t-94 209.5q12 6 15 6t13 -2q30 -76 80.5 -202t131.5 -329q114 -273 152 -361.5t71 -159.5q-10 -7 -18.5 -4t-9.5 3z" />
    <glyph glyph-name="bracketright" unicode="]" horiz-adv-x="400" 
d="M289 771l-3 -516l3 -525q0 -4 -1.5 -6t-5.5 -2h-26h-44q-31 1 -47 1h-30h-26h-43q-28 -1 -42 -1h-26q-5 0 -5 5t5 5h31.5h53.5q23 -1 34.5 -1h20.5h115q3 0 5 1t2 2l-1 521l1 512q0 1 -2 2t-5 1h-115h-20.5t-34.5 -1h-53.5h-31.5q-5 0 -5 5t5 5h26h42q29 -1 43 -1h26h30
t47 1h44h26q4 0 5.5 -2t1.5 -6z" />
    <glyph glyph-name="asciicircum" unicode="^" horiz-adv-x="396" 
d="M272 493l-75 187q-1 2 -2.5 2t-2.5 -2l-73 -192q-7 -19 -14 -24t-17 -5q-11 0 -17 5t-6 14q0 6 2 12t6 12l117 187q2 2 4.5 2t4.5 -2l121 -177q6 -8 8.5 -15t2.5 -13q0 -10 -7.5 -16t-18.5 -6t-18.5 6.5t-14.5 24.5z" />
    <glyph glyph-name="underscore" unicode="_" horiz-adv-x="500" 
d="M-31 -73h564q6 0 7 -12t-6 -12h-566q-8 0 -7.5 12t8.5 12z" />
    <glyph glyph-name="grave" unicode="`" horiz-adv-x="809" 
d="M483 535q-1 0 -2 0.5t-2 1.5q-14 15 -40 36.5t-79 59.5q-17 12 -23 16.5t-8 6.5q-4 3 -7 10t-3 13q0 7 8 15t16 8q7 0 14.5 -3.5t13.5 -9.5q1 -1 4 -5.5t14 -18.5q36 -52 57.5 -79.5t37.5 -42.5l2.5 -2.5t0.5 -1.5t-1.5 -2.5t-2.5 -1.5z" />
    <glyph glyph-name="a" unicode="a" horiz-adv-x="513" 
d="M358 137q-23 -49 -84 -98.5t-112 -49.5q-58 0 -94 31.5t-36 80.5q0 55 61 105t189 100l84 33q-4 89 -28 125.5t-80 36.5q-20 0 -36.5 -5t-30.5 -16q-22 -17 -41.5 -52.5t-20.5 -37.5q-7 -11 -16.5 -14.5t-28.5 -3.5q-18 0 -29 6.5t-11 16.5q0 11 9.5 24t25.5 23
q45 29 99 48.5t96 19.5q82 0 125 -46.5t43 -135.5q0 -20 -1 -48.5t-4 -88.5q-2 -41 -2.5 -57t-0.5 -25q0 -46 6.5 -65.5t21.5 -19.5q11 0 26.5 16.5t27.5 38.5q4 6 10 2t2 -10q-18 -25 -55.5 -53t-61.5 -28q-28 0 -42.5 18t-14.5 53q0 16 1 36.5t3 39.5zM102 130
q0 -41 31.5 -69t77.5 -28q43 0 90.5 44.5t57.5 80.5q5 65 6 94t1 58v10.5v10.5l-82 -35q-112 -47 -147 -79.5t-35 -86.5z" />
    <glyph glyph-name="b" unicode="b" horiz-adv-x="592" 
d="M553 275q0 -118 -86 -201.5t-200 -83.5q-42 0 -82 16t-70 44q-21 -29 -30 -40t-13 -11q-2 0 -3.5 2.5t-1.5 6.5v673q0 25 -1.5 39.5t-5.5 22.5t-11.5 10.5t-45.5 -4.5q-6 -1 -6 3.5t6 5.5q15 3 30.5 8.5t32.5 13.5q13 7 32.5 18.5t25.5 14.5q3 2 10.5 -1t7.5 -6v-404
q36 51 89.5 79.5t110.5 28.5q88 0 149.5 -67.5t61.5 -167.5zM142 391v-285q46 -49 87 -71.5t80 -22.5q82 0 126 59t44 168q0 101 -51.5 169.5t-134.5 68.5q-43 0 -84.5 -23.5t-66.5 -62.5z" />
    <glyph glyph-name="c" unicode="c" horiz-adv-x="542" 
d="M548 180q-45 -85 -119.5 -137.5t-151.5 -52.5q-106 0 -173 67t-67 173q0 108 87.5 194t197.5 86q68 0 117.5 -23t49.5 -52q0 -16 -14 -28.5t-35 -12.5q-9 0 -18 6t-28 27q-33 36 -58.5 48.5t-55.5 12.5q-79 0 -128.5 -58.5t-49.5 -154.5q0 -100 64.5 -164.5t164.5 -64.5
q68 0 119 33.5t90 103.5q1 3 3 4t4 0t2 -3t-1 -4z" />
    <glyph glyph-name="d" unicode="d" horiz-adv-x="599" 
d="M451 102q-36 -52 -91 -82t-114 -30q-88 0 -149 67.5t-61 167.5q0 118 86 201.5t201 83.5q34 0 66 -12t62 -35v218q0 25 -2 40.5t-6 24.5q-5 12 -16 15t-42 -3q-6 -1 -6 3.5t6 5.5q30 5 58 15.5t63 30.5q3 2 11.5 -1t8.5 -6v-687q0 -80 8.5 -95t42.5 -15q6 0 6 -4.5
t-6 -4.5q-41 0 -67 -2t-54 -8q-6 -1 -9 1t-3 8v3t1 8q3 28 4.5 49.5t1.5 42.5zM281 488q-84 0 -129.5 -58t-45.5 -165q0 -100 53.5 -171t137.5 -71q45 0 87.5 26.5t66.5 69.5v270q-51 54 -91 76.5t-79 22.5z" />
    <glyph glyph-name="e" unicode="e" 
d="M436 37q-36 -24 -73.5 -35.5t-77.5 -11.5q-112 0 -181.5 67t-69.5 173q0 52 22 102.5t63 91.5q40 41 91 63.5t102 22.5q37 0 67 -7.5t52 -22.5q29 -19 44 -48t11 -57q-2 -16 -12 -23.5t-30 -7.5h-341q-4 -17 -6.5 -36.5t-2.5 -40.5q0 -92 70 -155.5t172 -63.5
q83 0 144 47t107 147q4 9 7.5 7.5t-0.5 -9.5q-28 -66 -69 -118.5t-89 -84.5zM399 397q0 36 -32.5 63.5t-82.5 27.5q-68 0 -114.5 -35.5t-64.5 -100.5q34 0 67.5 0.5t88.5 1.5q39 1 56.5 1.5t32.5 0.5q10 0 24 3.5t16 5.5q4 5 6.5 13.5t2.5 18.5z" />
    <glyph glyph-name="f" unicode="f" horiz-adv-x="296" 
d="M81 1q-28 -1 -41 -1h-22q-6 0 -6 4.5t6 4.5q39 0 48.5 14t9.5 87q0 154 -0.5 236t-0.5 92v3.5v3.5h-20.5h-20.5q-8 0 -11 1.5t-3 4.5l35 48h26q23 112 106.5 197t167.5 85q39 0 70.5 -8t31.5 -18q0 -16 -16.5 -33.5t-37.5 -17.5q-8 0 -18 1.5t-33 5.5q-35 7 -55 9.5
t-38 2.5q-54 0 -81.5 -56.5t-27.5 -167.5l109 1q25 0 30 -0.5t5 -1.5q0 -4 -22 -27.5t-25 -26.5q-16 1 -34.5 1h-62.5v-135.5t1 -199.5q0 -33 1.5 -49t3.5 -25q4 -16 14 -21.5t45 -5.5q6 0 6 -4.5t-6 -4.5h-22.5t-42.5 1q-18 1 -25 1h-10h-10t-24 -1zM75 438v-1v-2v1.5v1.5z
" />
    <glyph glyph-name="g" unicode="g" horiz-adv-x="502" 
d="M382 -233q-51 -34 -108.5 -52.5t-110.5 -18.5q-74 -1 -119.5 34.5t-45.5 92.5q0 51 48.5 99.5t119.5 73.5q-69 3 -101.5 19.5t-32.5 48.5q0 33 40.5 60.5t101.5 36.5q-67 12 -104 55.5t-37 110.5q0 76 60.5 128.5t148.5 52.5q34 0 76 6t113 22q27 7 36.5 8.5t13.5 1.5
q12 0 20.5 -4t8.5 -11q0 -16 -13.5 -31.5t-31.5 -15.5q-6 0 -17.5 1t-42.5 5q-55 7 -84 9.5t-51 2.5v-2q75 -10 118.5 -56t43.5 -115q0 -77 -58.5 -124.5t-152.5 -47.5h-11t-7 1q-54 -4 -86 -18.5t-32 -36.5q0 -24 26.5 -33.5t106.5 -9.5h134q75 0 116 -29t41 -79
q0 -48 -34 -97t-93 -88zM108 338q0 -79 33 -125t91 -46q61 0 93.5 42t32.5 120q0 72 -34 120.5t-88 48.5q-64 0 -96 -40t-32 -120zM187 -4q-66 -20 -105.5 -56.5t-39.5 -77.5q0 -53 48.5 -82t136.5 -29q100 0 176.5 47t76.5 111q0 46 -37.5 66.5t-125.5 20.5h-124h-3h-3z
" />
    <glyph glyph-name="h" unicode="h" horiz-adv-x="558" 
d="M87 1q-27 -1 -40 -1h-22q-6 0 -6 4.5t6 4.5q30 0 37.5 16t7.5 94v562q0 25 -1.5 40.5t-5.5 24.5q-5 12 -16 15t-41 -2q-6 -1 -6 3.5t6 5.5q31 6 59.5 16.5t61.5 28.5q3 2 10.5 -1t7.5 -6v-402q43 55 87 80.5t96 25.5q82 0 122.5 -51t40.5 -152v-257q0 -24 9 -33t39 -8
q6 0 6 -4.5t-6 -4.5h-8t-24 1q-28 0 -40 0.5t-17 0.5h-9t-22 -1q-24 -1 -36 -1h-21q-6 0 -6 4.5t6 4.5q30 0 38.5 7.5t11.5 28.5q1 11 2 28t1 44v200q0 79 -31.5 121t-88.5 42q-45 0 -79 -20t-71 -69v-382h61q6 0 6 -4.5t-6 -4.5h-7.5t-22.5 1q-27 0 -38.5 0.5t-16.5 0.5
h-9.5t-24.5 -1z" />
    <glyph glyph-name="i" unicode="i" horiz-adv-x="226" 
d="M162 648q0 -22 -15.5 -37t-37.5 -15t-37 15t-15 37t15 37.5t37 15.5t37.5 -15.5t15.5 -37.5zM79 1q-29 -1 -42.5 -1h-22.5q-6 0 -6 4.5t6 4.5q40 0 50.5 15.5t10.5 85.5v267q0 50 -10.5 63.5t-53.5 4.5q-6 -1 -7.5 3t4.5 5q33 7 62 20.5t63 36.5q3 2 10.5 -1t7.5 -6v-393
q0 -70 10.5 -85.5t49.5 -15.5q6 0 6 -4.5t-6 -4.5h-22t-40 1q-18 1 -24.5 1h-9.5h-10t-26 -1z" />
    <glyph glyph-name="j" unicode="j" horiz-adv-x="223" 
d="M159 648q0 -22 -15.5 -37t-37.5 -15t-37 15t-15 37t15 37.5t37 15.5t37.5 -15.5t15.5 -37.5zM43 -177q-37 -45 -62 -64.5t-45 -19.5q-16 0 -28 6t-12 14q0 19 17 36.5t40 17.5q5 0 36.5 -0.5t43.5 11.5q18 21 25 42.5t11 52.5q2 21 3.5 47t1.5 56v355q0 49 -11.5 63.5
t-54.5 4.5q-6 -1 -7.5 3t4.5 5q33 7 62 20.5t63 36.5q3 2 10.5 -1t7.5 -6l1 -454q-2 -54 -25 -104.5t-81 -121.5z" />
    <glyph glyph-name="k" unicode="k" horiz-adv-x="552" 
d="M176 1q-27 0 -38.5 0.5t-16.5 0.5h-9.5t-24.5 -1q-27 -1 -40 -1h-22q-6 0 -6 4.5t6 4.5q30 0 37.5 16t7.5 94v562q0 25 -1.5 40.5t-5.5 24.5q-5 12 -16 15t-41 -2q-6 -1 -6 3.5t6 5.5q31 6 59.5 16.5t61.5 28.5q3 2 10.5 -1t7.5 -6v-619l157 162q30 31 47.5 57.5
t19.5 46.5q2 18 -9 27.5t-33 9.5q-5 0 -5 4.5t5 4.5q8 0 22 -0.5t44 -0.5q18 -1 24.5 -1h9.5q4 0 18.5 0.5t51.5 0.5q23 1 30 1h9q5 0 5 -4.5t-5 -4.5q-45 0 -98.5 -34.5t-128.5 -112.5l-12 -13l96 -154q54 -86 94 -126.5t73 -40.5q6 0 6.5 -4.5t-6.5 -4.5h-94
q-12 0 -21 2.5t-17 7.5q-18 11 -40 41t-58 92l-82 137l-103 -105v-166h61q6 0 6 -4.5t-6 -4.5h-7.5t-22.5 1z" />
    <glyph glyph-name="l" unicode="l" horiz-adv-x="217" 
d="M87 1q-27 -1 -40 -1h-22q-6 0 -6 4.5t6 4.5q30 0 37.5 16t7.5 94v562q0 25 -1.5 40.5t-5.5 24.5q-5 12 -16 15t-41 -2q-6 -1 -6 3.5t6 5.5q31 6 59.5 16.5t61.5 28.5q3 2 10.5 -1t7.5 -6v-687q0 -77 8.5 -93.5t50.5 -16.5q6 0 6 -4.5t-6 -4.5h-20.5t-33.5 1q-14 1 -20 1
h-9h-9.5t-24.5 -1z" />
    <glyph glyph-name="m" unicode="m" horiz-adv-x="891" 
d="M89 1q-28 -1 -41 -1h-22q-6 0 -6 4.5t6 4.5q29 0 36 8t9 31q1 9 1.5 24.5t0.5 46.5v258q0 17 -11 35.5t-35 40.5q-2 2 -2 3.5t2 2.5q21 8 42 20t31 22q2 2 3 1.5t3 -2.5q16 -16 28 -44.5t12 -55.5q41 58 83.5 84t94.5 26q57 0 96.5 -28.5t55.5 -83.5q43 59 86 85.5
t95 26.5q81 0 124 -51.5t43 -151.5v-257q0 -30 8 -36t43 -5q6 0 6 -4.5t-6 -4.5h-8t-25 1q-30 0 -42 0.5t-17 0.5h-10t-27 -1q-29 -1 -43 -1h-23q-6 0 -6 4.5t6 4.5q40 0 51 6t14 22q2 9 3 24.5t1 55.5v200q0 78 -33.5 120.5t-91.5 42.5q-41 0 -72 -18t-72 -75v-337
q0 -26 10 -34t50 -7q6 0 6 -4.5t-6 -4.5h-8.5t-25.5 1q-32 0 -44.5 0.5t-17.5 0.5h-10t-25 -1q-29 -1 -42.5 -1h-22.5q-6 0 -6 4.5t6 4.5q37 0 46.5 6t12.5 25q1 8 1.5 21.5t0.5 55.5v200q0 80 -29 121.5t-85 41.5q-43 0 -74.5 -19.5t-69.5 -71.5v-380h59q6 0 6 -4.5
t-6 -4.5h-7.5t-21.5 1q-26 0 -37 0.5t-16 0.5h-10t-25 -1z" />
    <glyph glyph-name="n" unicode="n" horiz-adv-x="562" 
d="M90 1q-27 -1 -40 -1h-22q-6 0 -6 4.5t6 4.5q30 0 37.5 16t7.5 94v258q0 17 -11 35.5t-35 40.5q-2 2 -2 3.5t2 2.5q21 8 42 20t31 22q2 2 3 1.5t3 -2.5q17 -16 29 -44.5t12 -54.5q42 56 87 82.5t98 26.5q82 0 122.5 -51t40.5 -152v-209q0 -21 1 -36t3 -25q4 -16 12 -22.5
t32 -5.5q6 0 6 -4.5t-6 -4.5h-8t-24 1q-28 0 -40 0.5t-17 0.5h-9t-21 -1q-23 -1 -34.5 -1h-20.5q-6 0 -6 4.5t6 4.5q34 0 42.5 18t8.5 77v213q-1 79 -32.5 121t-88.5 42q-46 0 -80 -20.5t-71 -70.5v-380h52q6 0 6 -4.5t-6 -4.5h-7t-20 1q-24 0 -34 0.5t-15 0.5h-9.5
t-24.5 -1z" />
    <glyph glyph-name="o" unicode="o" horiz-adv-x="581" 
d="M546 257q0 -104 -77.5 -185.5t-184.5 -81.5q-109 0 -178.5 70t-69.5 180q0 112 76 191t188 79q109 0 177.5 -70t68.5 -183zM119 257q0 -105 51.5 -180.5t130.5 -75.5q78 0 121 63.5t43 176.5q0 105 -51 182t-126 77q-82 0 -125.5 -62.5t-43.5 -180.5z" />
    <glyph glyph-name="p" unicode="p" horiz-adv-x="596" 
d="M557 275q0 -118 -86 -201.5t-200 -83.5q-32 0 -63.5 9.5t-60.5 28.5v-291h71q6 0 6 -4.5t-6 -4.5h-9t-28 1q-34 0 -47.5 0.5t-18.5 0.5h-11t-30 -1q-34 -1 -49.5 -1h-24.5q-6 0 -6 4.5t6 4.5q52 0 63 18t11 99v528q0 25 -2.5 40.5t-7.5 23.5q-5 7 -14 9t-46 -5
q-6 -1 -6 3.5t6 5.5q16 2 32 7t34 14q14 7 34.5 19t25.5 15q3 2 10.5 -1t7.5 -6v-51v-51q36 49 88.5 77t109.5 28q88 0 149.5 -67.5t61.5 -167.5zM483 239q0 101 -51.5 169.5t-134.5 68.5q-42 0 -83 -23t-66 -61v-289q45 -47 85.5 -69.5t79.5 -22.5q82 0 126 59t44 168z" />
    <glyph glyph-name="q" unicode="q" horiz-adv-x="589" 
d="M521 -226q-12 -6 -31.5 -17.5t-25.5 -15.5q-3 -2 -11 1t-8 6v348q-35 -50 -88.5 -78t-111.5 -28q-93 0 -151.5 65t-58.5 170q0 118 85.5 201.5t199.5 83.5q41 0 80 -15.5t70 -43.5q24 34 32 43.5t12 9.5t5 -1.5t1 -5.5v-625q0 -25 1.5 -39.5t5.5 -22.5q4 -7 11.5 -9.5
t45.5 4.5q6 1 6 -3.5t-6 -5.5q-15 -3 -30.5 -8.5t-32.5 -13.5zM278 488q-83 0 -128 -57.5t-45 -165.5q0 -97 54.5 -169.5t135.5 -72.5q42 0 83.5 24t66.5 63v284q-47 50 -87.5 72t-79.5 22z" />
    <glyph glyph-name="r" unicode="r" horiz-adv-x="327" 
d="M87 1q-30 -1 -43.5 -1h-22.5q-6 0 -6 4.5t6 4.5q30 0 39.5 7.5t13.5 28.5q1 11 2 28t1 46v258q0 17 -11 35.5t-35 40.5q-2 2 -2 3.5t2 2.5q17 7 37.5 19t31.5 23q2 2 3 1.5t3 -2.5q15 -15 27.5 -41t15.5 -51q7 26 22 46t44 39q13 8 27.5 12.5t29.5 4.5q21 0 33 -4.5
t12 -13.5q0 -18 -14.5 -35t-35.5 -17h-37q-31 0 -44.5 -3t-20.5 -11q-8 -8 -11 -25t-3 -57v-335h61q6 0 6 -4.5t-6 -4.5h-8t-24 1q-28 0 -40 0.5t-17 0.5h-10t-26 -1z" />
    <glyph glyph-name="s" unicode="s" horiz-adv-x="444" 
d="M416 144q0 -66 -51 -110t-128 -44q-27 0 -51.5 2.5t-47.5 6.5q-26 5 -57.5 15.5t-36.5 11.5q-4 1 -5.5 4t-1.5 10v4.5t1 9.5q3 32 4 71.5t1 92.5q0 7 4 7t4 -7q0 -61 11.5 -103t34.5 -67q22 -25 56.5 -37t83.5 -12q64 0 97 25.5t33 74.5q0 37 -30 63t-129 59t-134 64.5
t-35 75.5q0 67 54 108t131 41q25 0 45 -1t39 -3q18 -2 45.5 -6.5t37.5 -6.5q4 -1 5.5 -2.5t1.5 -5.5q0 -8 -0.5 -25t-1.5 -59q-2 -45 -2.5 -63.5t-0.5 -27.5q0 -6 -4 -6t-4 6q0 44 -7.5 77t-22.5 57q-19 29 -51.5 43.5t-78.5 14.5q-62 0 -100 -24t-38 -63q0 -35 29 -61
t129 -61q104 -36 137.5 -69t33.5 -80z" />
    <glyph glyph-name="t" unicode="t" horiz-adv-x="326" 
d="M322 119q-29 -59 -71.5 -94t-87.5 -35q-50 0 -73 33t-23 105v317h-55q-1 0 -1 2t1 3l128 147q2 2 3 1.5t1 -2.5v-97q55 0 87 0.5t48 0.5q20 1 27.5 0.5t7.5 -2.5q0 -5 -13 -19t-36 -35h-6h-21q-42 1 -63 1h-33v-314q0 -54 16.5 -82t48.5 -28q31 0 58 27.5t44 76.5
q2 6 9 3t4 -9z" />
    <glyph glyph-name="u" unicode="u" horiz-adv-x="559" 
d="M413 99q-42 -56 -87 -82.5t-98 -26.5q-81 0 -121 50.5t-40 152.5v184q0 25 -1.5 40.5t-5.5 23.5q-5 11 -15 14t-42 -3q-6 -1 -6 3.5t6 5.5q31 6 60.5 16.5t61.5 28.5q3 2 10.5 -1t7.5 -6v-316q0 -79 30.5 -121t87.5 -42q45 0 80 21t72 71v265q0 25 -1.5 40.5t-5.5 23.5
q-5 11 -15 14t-42 -3q-6 -1 -6 3.5t6 5.5q31 6 59.5 16.5t61.5 28.5q3 2 10.5 -1t7.5 -6v-380q0 -76 8 -93t45 -17q5 0 5 -4.5t-5 -4.5q-18 0 -50.5 -2.5t-79.5 -7.5q-4 -1 -6 0.5t-2 8.5q0 1 0.5 3t1.5 8q4 28 6 48.5t2 40.5z" />
    <glyph glyph-name="v" unicode="v" horiz-adv-x="531" 
d="M274 -4h-16q-2 0 -2.5 0.5l-1.5 1.5l-160 367q-33 76 -54 101.5t-57 24.5q-5 0 -5 4.5t5 4.5h8.5t27.5 -1q33 0 46.5 -0.5t17.5 -0.5h10.5h27.5q30 1 43.5 1h20.5q6 0 6 -4t-6 -4q-45 0 -49 -17.5t24 -80.5l140 -320l115 277q29 70 18 105.5t-61 34.5q-6 0 -6 4.5t6 4.5
h20t38 -1h22h9q4 0 15.5 0.5t39.5 0.5q17 1 22.5 1h7.5q5 0 5 -4.5t-5 -4.5q-32 1 -60 -33t-62 -114l-146 -346l-1.5 -1.5t-2.5 -0.5z" />
    <glyph glyph-name="w" unicode="w" horiz-adv-x="829" 
d="M242 -4h-11q-2 0 -2.5 0.5l-1.5 1.5l-134 365q-29 80 -48.5 104t-60.5 24q-4 0 -4 4.5t4 4.5h6.5t22.5 -1q32 0 44.5 -0.5t16.5 -0.5h11.5t32.5 1q36 1 51 1h22q5 0 5 -4.5t-5 -4.5q-35 0 -43.5 -6.5t-6.5 -23.5q1 -10 5.5 -26t13.5 -42l112 -301l123 289q2 6 2.5 12
t-0.5 22q-1 9 -3.5 18.5t-6.5 17.5q-10 20 -26 30t-38 10q-5 0 -5.5 4.5t4.5 4.5q7 0 20 -0.5t41 -0.5q18 -1 24 -1h9h10t25 1q26 1 38 1h18t6.5 -4.5t-5.5 -4.5q-35 0 -42.5 -6.5t-4.5 -24.5q1 -10 6.5 -26t15.5 -41l121 -308l107 266q27 67 11 103.5t-69 36.5
q-5 0 -5.5 4.5t4.5 4.5q7 0 21 -0.5t46 -0.5q20 -1 26.5 -1h9.5h15t40 1q21 1 27.5 1h8.5q4 0 5 -4.5t-4 -4.5q-40 0 -65 -27.5t-62 -119.5l-139 -346q-1 -1 -2 -1.5t-4 -0.5h-10q-2 0 -2.5 0.5l-1.5 1.5l-153 388l-163 -388q-1 0 -1.5 -1t-1.5 -1z" />
    <glyph glyph-name="x" unicode="x" horiz-adv-x="531" 
d="M33 1q-16 -1 -21 -1h-7q-5 0 -5 4.5t5 4.5q26 -1 64.5 34t99.5 114l68 87l-80 119q-21 31 -34.5 50t-23.5 32q-21 27 -36.5 37t-45.5 9q-5 0 -6 4.5t4 4.5h7t26 -1q33 0 47 -0.5t18 -0.5h10.5t29.5 1q31 1 45 1h21q6 0 7 -4.5t-5 -4.5q-38 0 -44 -7t3 -27q5 -10 14 -24.5
t26 -39.5l70 -104l45 60q27 37 41 64.5t13 45.5q-1 16 -14 23.5t-40 7.5q-5 0 -5 4.5t5 4.5q8 0 21 -0.5t40 -0.5q16 -1 22 -1h9q4 0 15.5 0.5t40.5 0.5q18 1 23.5 1h7.5q5 0 5 -4.5t-5 -4.5q-32 1 -70.5 -32t-100.5 -115l-47 -62l97 -144q21 -32 34.5 -50.5t22.5 -31.5
q22 -28 36.5 -37.5t44.5 -8.5q5 0 6 -4.5t-4 -4.5h-8.5t-26.5 1q-30 1 -42 1h-16h-11.5t-33.5 -1q-36 -1 -51.5 -1h-22.5q-6 0 -7 4.5t5 4.5q39 0 47.5 7t1.5 25q-4 10 -13.5 26t-25.5 40l-86 129l-68 -86q-24 -31 -36 -56t-12 -43q0 -20 13 -31t38 -11q6 0 6 -4.5t-6 -4.5
q-8 0 -21 0.5t-42 0.5q-17 1 -23 1h-9q-4 0 -14.5 -0.5t-35.5 -0.5z" />
    <glyph glyph-name="y" unicode="y" horiz-adv-x="537" 
d="M53 -191q-36 0 -59.5 11.5t-23.5 27.5q0 15 17 30.5t38 15.5q9 0 18.5 -2.5t26.5 -11.5q18 -9 27.5 -12t19.5 -3q48 0 77.5 27.5t57.5 91.5l11 24l-159 352q-38 84 -58 108t-59 23q-5 0 -5 4.5t5 4.5h9t28 -1q32 -1 44.5 -1h17.5h10.5t27.5 1q32 1 46.5 1h22.5
q6 0 6 -4.5t-6 -4.5q-25 0 -36 -4t-14 -13t2.5 -27t22.5 -57l133 -295l112 252q30 68 17.5 106t-63.5 38q-6 0 -6 4.5t6 4.5q9 0 21.5 -0.5t39.5 -0.5q17 -1 23.5 -1h9.5h16.5t40.5 1q19 1 25 1h8q5 0 5 -4.5t-5 -4.5q-32 1 -62.5 -34.5t-66.5 -115.5l-160 -359
q-41 -92 -90 -132.5t-119 -40.5z" />
    <glyph glyph-name="z" unicode="z" horiz-adv-x="505" 
d="M117 2l-84 -2q-8 0 -12.5 2.5t-2.5 6.5l358 480h-130q-96 -1 -141.5 -44t-50.5 -138l-3 -62q0 -5 -4.5 -5t-4.5 5l3 62q1 11 5.5 99.5t5.5 89.5q4 2 16.5 3t30.5 1q11 0 50 -0.5t137 -0.5q54 -1 71 -1h20q4 0 12 0.5t27 1.5q18 0 25 0.5t11 0.5q6 0 6 -6.5t-6 -14.5
l-347 -468h32t58 -1q27 -1 38 -1h17q91 0 142 49.5t58 143.5l5 69q0 5 5 4.5t4 -5.5l-5 -69q-8 -107 -12.5 -151t-7.5 -47t-14.5 -3.5t-72.5 -0.5q-35 0 -94.5 0.5t-144.5 1.5z" />
    <glyph glyph-name="braceleft" unicode="{" horiz-adv-x="445" 
d="M122 258q40 0 68 29t28 74q0 20 -6 43t-25 72q-24 59 -31.5 92t-7.5 63q0 70 61 117.5t154 47.5q15 0 13.5 -8.5t-12.5 -8.5q-91 0 -141.5 -34t-50.5 -93q0 -27 7 -58.5t28 -92.5q19 -54 25 -80t6 -47q0 -42 -24 -74.5t-66 -48.5q43 -18 66.5 -50.5t23.5 -73.5
q0 -21 -6 -47t-25 -80q-21 -61 -28 -92.5t-7 -58.5q0 -64 45 -95.5t137 -31.5q13 0 14 -9.5t-15 -9.5q-98 0 -151.5 44t-53.5 123q0 30 7.5 63t31.5 92q19 49 25 72t6 43q0 45 -28 74t-68 29q-5 0 -6.5 1.5t-1.5 5.5q0 6 1.5 7t6.5 1z" />
    <glyph glyph-name="bar" unicode="|" horiz-adv-x="267" 
d="M154 780q-6 -92 -9 -235.5t-3 -297.5q0 -127 1.5 -262.5t4.5 -250.5q-13 -10 -17.5 -11t-11.5 1q5 115 7.5 251.5t2.5 270.5q0 59 -0.5 138.5t-5.5 389.5q7 5 12 6.5t19 -0.5z" />
    <glyph glyph-name="braceright" unicode="}" horiz-adv-x="445" 
d="M323 241q-40 0 -68 -29t-28 -74q0 -20 6 -43t25 -72q24 -59 31.5 -92t7.5 -63q0 -70 -61 -117.5t-154 -47.5q-15 0 -13.5 8.5t12.5 8.5q91 0 141.5 34t50.5 93q0 27 -7 58.5t-28 92.5q-19 54 -25 80t-6 47q0 42 24 74.5t66 48.5q-43 18 -66.5 50.5t-23.5 73.5q0 21 6 47
t25 80q21 61 28 92.5t7 58.5q0 64 -45 95.5t-137 31.5q-13 0 -14 9.5t15 9.5q98 0 151.5 -44t53.5 -123q0 -30 -7.5 -63t-31.5 -92q-19 -49 -25 -72t-6 -43q0 -45 28 -74t68 -29q5 0 6.5 -1.5t1.5 -5.5q0 -6 -1.5 -7t-6.5 -1z" />
    <glyph glyph-name="asciitilde" unicode="~" horiz-adv-x="466" 
d="M207 339q-45 19 -65.5 24.5t-35.5 5.5t-28.5 -17t-22.5 -50q-1 -5 -5 -4t-2 9q15 55 41.5 84t60.5 29q15 0 36.5 -6t69.5 -24q47 -19 68.5 -25t36.5 -6q16 0 28 17.5t23 54.5q1 5 5 4t2 -9q-16 -57 -43.5 -87.5t-61.5 -30.5q-17 0 -39 6t-68 25z" />
    <glyph glyph-name="exclamdown" unicode="&#xa1;" horiz-adv-x="252" 
d="M158 -96v-5q0 -15 -22.5 -46t-31.5 -31q-11 0 -17.5 9.5t-6.5 25.5v4q0 24 3 61t14 127q14 125 19 188t5 112q0 4 3 4t3 -4q0 -51 4 -115t16 -184q7 -72 9 -100.5t2 -45.5zM126 516q25 0 41.5 -16.5t16.5 -41.5q0 -24 -17 -41t-41 -17q-23 0 -40.5 17.5t-17.5 40.5
q0 24 17 41t41 17z" />
    <glyph glyph-name="cent" unicode="&#xa2;" horiz-adv-x="523" 
d="M277 -10v0q-106 0 -173 67t-67 173q0 99 72 180t172 97q0 31 -0.5 67t-1.5 106q7 5 11 6.5t17 -0.5q-1 -15 -1.5 -32.5t-2.5 -51.5q-1 -38 -2 -57.5t-2 -35.5q4 1 9 1h14q68 0 117.5 -23t49.5 -52q0 -16 -14 -28.5t-35 -12.5q-9 0 -18 6t-28 27q-29 32 -50 44.5t-45 15.5
q-2 -43 -3 -92.5t-2 -144.5q0 -19 -0.5 -88.5t0.5 -110.5q9 -2 18 -2.5t19 -0.5q69 0 120 33t89 103q1 3 3 4t4 0t2 -3t-1 -4q-43 -80 -112 -132t-142 -58q0 -48 0.5 -97t2.5 -101q-13 -10 -17 -11t-11 1q4 101 5.5 138t2.5 69zM97 267q0 -80 50.5 -139t132.5 -75
q2 50 2.5 99t0.5 97v50t-1 78v69v42h-2q-82 0 -132.5 -60t-50.5 -161z" />
    <glyph glyph-name="sterling" unicode="&#xa3;" horiz-adv-x="663" 
d="M193 342q-44 -1 -80.5 -2.5t-61.5 -3.5q-5 3 -5 9.5t5 10.5q17 -1 46 -1.5t97 -0.5q3 27 4.5 37t2.5 18q13 91 51 153t121 111q24 14 51 21.5t54 7.5q38 0 63 -17.5t25 -45.5q0 -20 -11.5 -32.5t-27.5 -12.5q-21 0 -32.5 11.5t-15.5 36.5q-4 20 -16.5 28t-37.5 8
q-12 0 -26 -5.5t-26 -14.5q-33 -26 -48.5 -54.5t-27.5 -77.5q-8 -29 -15 -67t-14 -87q-1 -4 -1.5 -9t-1.5 -9h5.5h5.5q53 0 109.5 1.5t101.5 4.5q5 -4 5 -12.5t-5 -11.5q-45 3 -99.5 5t-110.5 2h-7h-7q-13 -77 -35.5 -154.5t-47.5 -127.5q189 -31 241 -36.5t92 -5.5
q18 0 44 14t38 32q16 23 29.5 55.5t21.5 66.5l10 44q1 5 6.5 4.5t4.5 -5.5l-10 -45q-13 -57 -25 -106.5t-19 -76.5q-6 -19 -27.5 -36t-44.5 -17q-27 0 -75.5 12.5t-164.5 51.5q-55 19 -80.5 27t-44.5 14q-12 -23 -24.5 -38.5t-25.5 -22.5q-14 -7 -25 -10.5t-24 -3.5
q-21 0 -36 11t-15 29q0 24 19 38t51 14q9 0 24 -1.5t52 -7.5q5 29 8.5 64.5t6.5 110.5l3 64.5t3 40.5z" />
    <glyph glyph-name="yen" unicode="&#xa5;" horiz-adv-x="617" 
d="M403 9h18q6 0 6 -4.5t-6 -4.5q-8 0 -22.5 0.5t-46.5 1.5q-21 1 -29 1h-11h-10.5t-28.5 -1q-33 -1 -47.5 -1.5t-23.5 -0.5q-6 0 -6 4.5t6 4.5h18q30 0 38.5 14t11.5 53q2 17 3 40.5t1 58.5q-46 -1 -82.5 -2.5t-76.5 -4.5q-4 2 -5 9t2 13q35 -4 70 -5.5t92 -1.5v38v38v63
l-1 1q-51 -1 -86.5 -3t-71.5 -6q-4 3 -5 9.5t2 12.5q36 -3 71 -4t86 -1l-103 178q-69 120 -95 147.5t-59 27.5h-8q-3 0 -5 1t-2 3t1.5 3.5t4.5 1.5q9 0 22.5 -0.5t41.5 -1.5q18 -1 25 -1h10h11.5t31.5 1q37 1 53 1.5t25 0.5q6 0 7.5 -4.5t-4.5 -4.5h-21q-36 0 -27.5 -37
t69.5 -143l96 -165l105 173q41 69 41 121t-53 52q-2 0 -6 -0.5t-12 -2.5q-5 0 -7 -0.5t-3 -0.5q-3 0 -5 1.5t-2 4.5t3 4.5t9 1.5h15.5t38.5 -1q26 -1 36.5 -1h14.5h10.5t28.5 1q33 1 47.5 1h22.5q6 0 6 -4.5t-5 -4.5h-7q-20 0 -43.5 -17.5t-50.5 -54.5q-8 -10 -25 -36
t-43 -67l-107 -178q49 2 89 4t70 5q4 -4 4 -10t-3 -14q-24 4 -56 5.5t-107 1.5v-64v-38v-38q52 1 91.5 3.5t68.5 6.5q5 -3 5.5 -10t-2.5 -14q-34 3 -74.5 4.5t-88.5 1.5q0 -35 1 -58.5t3 -40.5q3 -39 11.5 -53t38.5 -14z" />
    <glyph glyph-name="brokenbar" unicode="&#xa6;" horiz-adv-x="267" 
d="M148 299q-7 -7 -11.5 -8t-10.5 2q0 9 0.5 34t1.5 91q0 63 0.5 86t0.5 32l-6 238q4 8 11 9.5t14 -3.5q0 -9 -0.5 -34t-2.5 -91q-2 -64 -2.5 -87t-0.5 -32t0.5 -33t2.5 -87q2 -62 2.5 -85t0.5 -32zM147 -278q-6 -6 -12.5 -7.5t-12.5 1.5q0 9 0.5 34t3.5 91q2 63 2.5 86
t0.5 32l-3 238q3 6 9.5 7.5t12.5 -1.5q0 -9 -0.5 -34t-2.5 -91q-2 -64 -2.5 -87t-0.5 -32t0.5 -33t2.5 -87q1 -62 1.5 -85t0.5 -32z" />
    <glyph glyph-name="section" unicode="&#xa7;" horiz-adv-x="585" 
d="M428 -64q-7 -53 -53.5 -91t-103.5 -38q-54 0 -93 21.5t-39 51.5q0 23 13 36.5t34 13.5q18 0 30.5 -9t26.5 -40q15 -34 30.5 -44.5t39.5 -10.5q32 0 52.5 21.5t18.5 51.5q0 36 -28.5 85t-121.5 157q-106 122 -139.5 182t-33.5 107q0 43 24 79t81 75q11 50 53.5 82t97.5 32
q51 0 87.5 -21t36.5 -49q0 -20 -11 -31.5t-30 -11.5q-16 0 -27.5 8t-25.5 35q-16 32 -31.5 42t-39.5 10q-31 0 -51 -22t-18 -51q0 -36 29.5 -86.5t125.5 -162.5q102 -119 134 -175t32 -97q0 -42 -23 -77.5t-77 -72.5zM273 207q96 -113 126 -164.5t30 -90.5v-4.5v-4.5
q28 22 39 43.5t11 54.5q0 38 -30.5 90.5t-129.5 168.5q-97 114 -127 165.5t-30 88.5q0 5 0.5 10t1.5 13q-28 -21 -41.5 -45.5t-13.5 -55.5q0 -42 31.5 -97.5t132.5 -171.5z" />
    <glyph glyph-name="dieresis" unicode="&#xa8;" horiz-adv-x="809" 
d="M493 599q-20 0 -34.5 14.5t-14.5 34.5t14.5 35t34.5 15t35 -15t15 -35t-15 -34.5t-35 -14.5zM307 599q-20 0 -34.5 14.5t-14.5 34.5t14.5 35t34.5 15t35 -15t15 -35t-15 -34.5t-35 -14.5z" />
    <glyph glyph-name="copyright" unicode="&#xa9;" horiz-adv-x="816" 
d="M653 95q-55 -52 -123 -81.5t-133 -29.5q-148 0 -249 102t-101 255q0 69 30 134.5t87 118.5q55 52 123 81.5t133 29.5q148 0 248 -102t100 -255q0 -70 -30 -135t-85 -118zM167 105q48 -50 110.5 -77t129.5 -27q143 0 241 97t98 242t-98.5 247t-236.5 102q-142 0 -242 -98
t-100 -242q0 -69 25.5 -132t72.5 -112zM600 246q-50 -60 -98 -86.5t-99 -25.5q-87 0 -143 56t-56 144q0 91 66 154t157 63q40 0 74.5 -6.5t64.5 -19.5l2 -5l7 -150q0 -4 -4 -4.5t-4 3.5q-6 83 -42.5 128t-98.5 45q-82 0 -124.5 -46.5t-42.5 -137.5q0 -81 51.5 -135
t132.5 -54q24 0 45.5 5.5t40.5 16.5q13 8 25 19t40 42q2 2 5 -0.5t1 -5.5z" />
    <glyph glyph-name="ordfeminine" unicode="&#xaa;" horiz-adv-x="376" 
d="M238 485q-17 -26 -56.5 -57t-60.5 -31q-32 0 -52 18t-20 46q0 31 35.5 60t108.5 58l49 19q-2 50 -16 71t-46 21q-15 0 -26.5 -5.5t-19.5 -16.5q-6 -9 -12.5 -25.5t-8.5 -21.5q-4 -8 -11 -11t-21 -3q-12 0 -19 4t-7 12q0 7 6.5 16t17.5 17q27 20 55.5 30.5t54.5 10.5
q51 0 77 -24.5t26 -72.5q0 -12 -0.5 -28.5t-1.5 -50.5q-1 -23 -1 -32v-14q0 -25 3.5 -34.5t13.5 -9.5q6 0 14.5 9t17.5 22q2 5 7.5 2t1.5 -8q-34 -37 -50 -48t-28 -11q-16 0 -24.5 10.5t-8.5 30.5q0 10 0.5 23.5t1.5 23.5zM100 486q0 -23 16 -40t38 -17q19 0 49 29t35 46
q2 14 3 34t1 44v9l-47 -20q-55 -23 -75 -40t-20 -45z" />
    <glyph glyph-name="guillemotleft" unicode="&#xab;" horiz-adv-x="633" 
d="M67 24zM172 151q-49 48 -70 67.5t-33 29.5q-2 2 -2 5t2 5q13 11 35 32t74 71q53 51 74.5 71.5t33.5 30.5q13 10 21.5 15t14.5 5q8 0 13 -6.5t5 -17.5q0 -9 -4.5 -16.5t-13.5 -14.5q-5 -4 -20 -14.5t-59 -40.5q-81 -55 -114.5 -79.5t-47.5 -36.5q-3 -2 -3 -4.5t3 -4.5
q12 -10 40.5 -30t99.5 -69q56 -39 75.5 -52.5t25.5 -18.5q9 -8 13.5 -16.5t4.5 -18.5q0 -9 -5 -14t-12 -5q-6 0 -15.5 5t-21.5 15q-13 11 -36 32t-78 75zM392 151q-49 48 -70 67.5t-33 29.5q-2 2 -2 5t2 5q13 11 35 32t74 71q53 51 74.5 71.5t33.5 30.5q13 10 21.5 15
t14.5 5q8 0 13 -6.5t5 -17.5q0 -9 -4.5 -16.5t-13.5 -14.5q-5 -4 -20 -14.5t-59 -40.5q-81 -55 -114.5 -79.5t-47.5 -36.5q-3 -2 -3 -4.5t3 -4.5q12 -10 40.5 -30t99.5 -69q56 -39 75.5 -52.5t25.5 -18.5q9 -8 13.5 -16.5t4.5 -18.5q0 -9 -5 -14t-12 -5q-6 0 -15.5 5
t-21.5 15q-13 11 -36 32t-78 75z" />
    <glyph glyph-name="logicalnot" unicode="&#xac;" horiz-adv-x="558" 
d="M464 220q-3 -5 -11.5 -5t-12.5 5q2 35 3 83.5t0 106.5h-165q-46 0 -84 -1.5t-96 -5.5q-5 3 -5 11.5t5 12.5q60 -4 98 -5t81 -1q84 0 114.5 1t58.5 4q2 0 5 -3t3 -5q-1 -46 0 -91t6 -107z" />
    <glyph glyph-name="uni00AD" unicode="&#xad;" horiz-adv-x="375" 
d="M65 231zM71 269q24 -2 51.5 -3t64.5 -1t65 1t51 3q7 -4 6.5 -19t-6.5 -19q-26 3 -52 4t-64 1q-28 0 -55.5 -1t-60.5 -4q-6 4 -6 18.5t6 19.5z" />
    <glyph glyph-name="registered" unicode="&#xae;" horiz-adv-x="804" 
d="M756 354q0 -89 -43.5 -167.5t-109.5 -78.5q-40 0 -67 25t-62 105q-34 78 -53 97t-65 20h-25v-61v-51.5t1 -33.5q1 -40 6 -53t26 -13h12q3 0 3 -3.5t-3 -3.5h-14.5t-29.5 1h-16h-6h-14.5t-41.5 -1h-22.5h-6.5q-4 0 -4 3.5t4 3.5q19 0 25 1t9 3q6 4 8.5 15.5t3.5 36.5
q1 17 1.5 45t0.5 76v80v51.5t-1 33.5q-1 40 -6 53t-25 13h-11q-4 0 -4 4t4 4h15.5t34.5 -1q16 -1 21.5 -1h7.5h9t26 1q22 1 30.5 1h11.5q85 0 123.5 -24t38.5 -76q0 -37 -37.5 -64.5t-96.5 -34.5q38 -2 63 -23t54 -76q6 -11 19.5 -39t22.5 -42q16 -27 32.5 -39t36.5 -12
q39 0 66 70.5t27 148.5q0 144 -97.5 242.5t-236.5 98.5q-140 0 -236 -97.5t-96 -242.5q0 -146 95 -247t231 -101q57 0 102 11.5t81 35.5q4 3 5.5 1t-2.5 -5q-43 -29 -93.5 -44.5t-102.5 -15.5q-146 0 -242 101t-96 256q0 69 29 134t82 118q54 52 120.5 82t131.5 30
q148 0 247 -99.5t99 -251.5zM331 460v-96h25.5h25.5q45 0 73.5 25t28.5 69q0 48 -25.5 70.5t-80.5 22.5h-23q-18 0 -21 -13t-3 -78z" />
    <glyph glyph-name="macron" unicode="&#xaf;" horiz-adv-x="809" 
d="M349 630q16 -1 27.5 -1h23.5h1h54t36 1q25 1 30 0.5t5 -1.5q0 -4 -9 -14t-37 -37h-4h-12q-22 1 -36 1h-26q-21 0 -44.5 -1t-31.5 -1q-20 -1 -27.5 -0.5t-7.5 2.5q0 4 9 14t37 37h3.5h8.5z" />
    <glyph glyph-name="degree" unicode="&#xb0;" horiz-adv-x="376" 
d="M188 447q-54 0 -92 38t-38 92t38 92t92 38t92 -38t38 -92t-38 -92t-92 -38zM188 693q-47 0 -81 -34.5t-34 -81.5t34 -81.5t81 -34.5t81 34.5t34 81.5t-34 81.5t-81 34.5z" />
    <glyph glyph-name="plusminus" unicode="&#xb1;" horiz-adv-x="558" 
d="M438 467q5 -4 5 -12.5t-5 -11.5q-75 6 -98.5 6.5t-54.5 0.5q0 -33 1 -58t6 -96q-3 -5 -11.5 -5t-12.5 5q2 29 2.5 55t0.5 99q-33 0 -58 -1t-95 -6q-5 3 -5 11.5t5 12.5q79 -5 102 -5.5t51 -0.5q0 76 -0.5 102t-2.5 53q4 5 12.5 5t11.5 -5q-6 -75 -6.5 -99t-0.5 -56
q30 0 54.5 0.5t98.5 5.5zM277 216q31 0 55.5 0.5t103.5 5.5q5 -4 5 -12.5t-5 -11.5q-75 6 -100 6.5t-58 0.5t-58 -0.5t-100 -6.5q-5 3 -5 11.5t5 12.5q79 -5 103 -5.5t54 -0.5z" />
    <glyph glyph-name="two.sup" unicode="&#xb2;" horiz-adv-x="371" 
d="M44 496zM226 496q-46 1 -65 1h-26h-28.5t-45.5 -1h-12h-4q-1 8 -0.5 12t1.5 5q17 14 45.5 36t47.5 40q60 57 83.5 97.5t23.5 87.5q0 33 -18 51t-52 18q-44 0 -73 -51.5t-29 -119.5q0 -4 -4.5 -4t-4.5 4q0 20 -2.5 45.5t-8.5 70.5q-3 16 -3.5 21t-0.5 7q0 7 1 9t4 2
q49 15 75 20t48 5q69 0 104.5 -23t35.5 -68q0 -24 -15 -46.5t-55 -53.5q-7 -5 -42 -31.5t-58 -46.5q-5 -4 -13.5 -11.5t-21.5 -17.5h83.5t47.5 1q44 0 54.5 7.5t14.5 28.5l6 42q1 8 5.5 8t3.5 -8l-6 -43q-9 -62 -11.5 -76t-3.5 -16q-1 -1 -8 -1.5t-18 -0.5h-13.5h-41.5z" />
    <glyph glyph-name="three.sup" unicode="&#xb3;" horiz-adv-x="350" 
d="M40 490zM313 600q0 -52 -38.5 -81t-108.5 -29q-27 0 -57 5t-63 16q-7 2 -6 6.5t8 2.5q47 -13 58.5 -14.5t21.5 -1.5q57 0 88.5 26t31.5 71q0 36 -18.5 55t-54.5 19q-13 0 -25.5 -6t-28.5 -22q-8 -7 -11 -9t-5 -2q-4 0 -5.5 3t-1.5 9q0 4 0.5 8t1.5 5q59 20 92 53t33 74
q0 27 -15.5 41t-45.5 15q-46 0 -73.5 -41.5t-27.5 -105.5q0 -4 -4.5 -4.5t-4.5 3.5q0 20 -1.5 42t-5.5 56q-1 12 -1.5 16t-0.5 6q0 7 1 9t4 2q66 20 85.5 23t41.5 3q55 0 85 -17.5t30 -50.5q0 -22 -12.5 -38.5t-42.5 -31.5q-13 -7 -43 -19.5t-43 -18.5q17 5 31.5 7.5
t25.5 2.5q53 0 79 -21.5t26 -65.5z" />
    <glyph glyph-name="acute" unicode="&#xb4;" horiz-adv-x="809" 
d="M436 633q-53 -38 -79 -59.5t-40 -36.5q-1 -1 -2 -1.5t-2 -0.5t-2.5 1.5t-1.5 2.5t0.5 1.5l2.5 2.5q16 15 37.5 42.5t57.5 79.5q11 14 14 18.5t4 5.5q6 6 13.5 9.5t14.5 3.5q8 0 16 -8t8 -15q0 -6 -3 -13t-7 -10q-2 -2 -8 -6.5t-23 -16.5z" />
    <glyph glyph-name="paragraph" unicode="&#xb6;" horiz-adv-x="644" 
d="M334 -149v502h-81q-91 0 -144 43.5t-53 117.5q0 77 49.5 117.5t143.5 40.5h25.5h85.5q63 -1 84.5 -1h25.5h11t29 1q33 1 48 1h23q6 0 6 -4.5t-6 -4.5h-18q-30 0 -38 -13t-12 -49q-1 -16 -2 -38.5t-2 -55.5v-40.5v-53.5v-563q0 -8 -5.5 -8t-5.5 8v563v53v37
q0 31 -0.5 52.5t-1.5 36.5q-2 40 -8 54t-29 14h-113v-810q0 -8 -6 -8t-6 8z" />
    <glyph glyph-name="periodcentered" unicode="&#xb7;" horiz-adv-x="252" 
d="M126 197q-25 0 -41.5 16.5t-16.5 41.5q0 24 17 41t41 17q23 0 40.5 -17.5t17.5 -40.5q0 -24 -17 -41t-41 -17z" />
    <glyph glyph-name="cedilla" unicode="&#xb8;" horiz-adv-x="809" 
d="M499 -153q0 -45 -38.5 -82t-91.5 -37q-32 0 -54 11t-22 27q0 12 16 22t30 10q9 0 17 -3.5t20 -14.5q15 -14 25.5 -18t22.5 -4q21 0 34 14t13 35q0 34 -36.5 51t-101.5 10q-4 0 -6.5 -2t-5.5 -8q-3 -5 -5 -6.5t-4 -1.5q-7 0 -8.5 5.5t5.5 13.5q44 56 68 87.5t35 47.5
q4 4 9 2t2 -6q-22 -28 -34.5 -45t-23.5 -33q-1 -2 0.5 -2.5t4.5 -0.5q59 7 94 -13.5t35 -58.5z" />
    <glyph glyph-name="one.sup" unicode="&#xb9;" horiz-adv-x="213" 
d="M32 498zM34 507h18q19 0 25 12.5t6 64.5v180q0 25 -7 29.5t-37 -6.5q-3 -1 -4.5 2.5t1.5 4.5q21 7 45 22.5t48 35.5q1 1 5 0.5t4 -2.5v-266q0 -53 6.5 -65t25.5 -12h19q2 0 2 -4.5t-2 -4.5h-12.5t-28.5 1h-26.5h-10.5h-10.5h-25.5q-20 -1 -28.5 -1h-12.5q-2 0 -2 4.5
t2 4.5z" />
    <glyph glyph-name="ordmasculine" unicode="&#xba;" horiz-adv-x="376" 
d="M335 551q0 -60 -45 -107t-106 -47q-63 0 -103 40t-40 104q0 65 43.5 110.5t108.5 45.5q63 0 102.5 -40.5t39.5 -105.5zM100 551q0 -66 24 -105.5t67 -39.5q42 0 64 35t22 101q0 65 -24 106t-65 41q-44 0 -66 -34.5t-22 -103.5z" />
    <glyph glyph-name="guillemotright" unicode="&#xbb;" horiz-adv-x="633" 
d="M73 24zM235 361q52 -50 74 -71t35 -32q2 -2 2 -5t-2 -5q-12 -10 -33 -29.5t-70 -67.5q-55 -54 -78 -75t-36 -32q-12 -10 -21.5 -15t-15.5 -5q-7 0 -12 5t-5 14q0 10 4.5 18.5t13.5 16.5q6 5 25.5 18.5t75.5 52.5q71 49 99.5 69t40.5 30q3 2 3 4.5t-3 4.5
q-14 12 -47.5 36.5t-114.5 79.5q-44 30 -59 40.5t-20 14.5q-9 7 -13.5 14.5t-4.5 16.5q0 11 5 17.5t13 6.5q6 0 14.5 -5t21.5 -15q12 -10 33.5 -30.5t74.5 -71.5zM455 361q52 -50 74 -71t35 -32q2 -2 2 -5t-2 -5q-12 -10 -33 -29.5t-70 -67.5q-55 -54 -78 -75t-36 -32
q-12 -10 -21.5 -15t-15.5 -5q-7 0 -12 5t-5 14q0 10 4.5 18.5t13.5 16.5q6 5 25.5 18.5t75.5 52.5q71 49 99.5 69t40.5 30q3 2 3 4.5t-3 4.5q-14 12 -47.5 36.5t-114.5 79.5q-44 30 -59 40.5t-20 14.5q-9 7 -13.5 14.5t-4.5 16.5q0 11 5 17.5t13 6.5q6 0 14.5 -5t21.5 -15
q12 -10 33.5 -30.5t74.5 -71.5z" />
    <glyph glyph-name="onequarter" unicode="&#xbc;" horiz-adv-x="636" 
d="M53 0zM58 354q33 -2 123.5 -4t135.5 -2t136.5 2t124.5 4q5 -4 5 -12.5t-5 -11.5q-35 3 -124 5t-136 2t-136 -2t-124 -5q-5 3 -5 11.5t5 12.5zM235 429zM237 438h18q19 0 25 12.5t6 64.5v180q0 25 -7 29.5t-37 -6.5q-3 -1 -4.5 2.5t1.5 4.5q21 7 45 22.5t48 35.5
q1 1 5 0.5t4 -2.5v-266q0 -53 6.5 -65t25.5 -12h19q2 0 2 -4.5t-2 -4.5h-12.5t-28.5 1h-26.5h-10.5h-10.5h-25.5q-20 -1 -28.5 -1h-12.5q-2 0 -2 4.5t2 4.5zM253 -83q38 1 47 11t9 54v21h-112q-7 0 -24 -0.5t-24 -1.5q-8 -1 -4.5 7t31.5 43q4 5 56.5 69t99.5 131q3 4 7.5 7
t10.5 5q13 4 19 0.5t1 -12.5q-5 -12 -7 -22t-2 -24v-158h34q39 0 50.5 9.5t16.5 39.5l4 24q1 5 5.5 5t3.5 -5l-3 -20q-1 -8 -2.5 -19t-4.5 -32q-4 -27 -5 -35t-2 -9t-11 -1.5t-22 -0.5h-64v-21q0 -45 8 -54.5t44 -10.5q4 0 4 -4.5t-4 -4.5h-15t-36 1h-21.5h-7.5h-7h-20
q-27 -1 -37.5 -1h-15.5q-4 0 -4 4.5t4 4.5zM260 134q-29 -32 -45 -50.5t-31 -36.5h125v143q-9 -11 -19 -22.5t-30 -33.5z" />
    <glyph glyph-name="onehalf" unicode="&#xbd;" horiz-adv-x="636" 
d="M53 0zM58 354q33 -2 123.5 -4t135.5 -2t136.5 2t124.5 4q5 -4 5 -12.5t-5 -11.5q-35 3 -124 5t-136 2t-136 -2t-124 -5q-5 3 -5 11.5t5 12.5zM235 429zM237 438h18q19 0 25 12.5t6 64.5v180q0 25 -7 29.5t-37 -6.5q-3 -1 -4.5 2.5t1.5 4.5q21 7 45 22.5t48 35.5
q1 1 5 0.5t4 -2.5v-266q0 -53 6.5 -65t25.5 -12h19q2 0 2 -4.5t-2 -4.5h-12.5t-28.5 1h-26.5h-10.5h-10.5h-25.5q-20 -1 -28.5 -1h-12.5q-2 0 -2 4.5t2 4.5zM354 -97q-46 1 -65 1h-26h-28.5t-45.5 -1h-12h-4q-1 8 -0.5 12t1.5 5q17 14 45.5 36t47.5 40q60 57 83.5 97.5
t23.5 87.5q0 33 -18 51t-52 18q-44 0 -73 -51.5t-29 -119.5q0 -4 -4.5 -4t-4.5 4q0 20 -2.5 45.5t-8.5 70.5q-3 16 -3.5 21t-0.5 7q0 7 1 9t4 2q49 15 75 20t48 5q69 0 104.5 -23t35.5 -68q0 -24 -15 -46.5t-55 -53.5q-7 -5 -42 -31.5t-58 -46.5q-5 -4 -13.5 -11.5
t-21.5 -17.5h83.5t47.5 1q44 0 54.5 7.5t14.5 28.5l6 42q1 8 5.5 8t3.5 -8l-6 -43q-9 -62 -11.5 -76t-3.5 -16q-1 -1 -8 -1.5t-18 -0.5h-13.5h-41.5z" />
    <glyph glyph-name="threequarters" unicode="&#xbe;" horiz-adv-x="636" 
d="M53 0zM58 354q33 -2 123.5 -4t135.5 -2t136.5 2t124.5 4q5 -4 5 -12.5t-5 -11.5q-35 3 -124 5t-136 2t-136 -2t-124 -5q-5 3 -5 11.5t5 12.5zM183 421zM456 531q0 -52 -38.5 -81t-108.5 -29q-27 0 -57 5t-63 16q-7 2 -6 6.5t8 2.5q47 -13 58.5 -14.5t21.5 -1.5
q57 0 88.5 26t31.5 71q0 36 -18.5 55t-54.5 19q-13 0 -25.5 -6t-28.5 -22q-8 -7 -11 -9t-5 -2q-4 0 -5.5 3t-1.5 9q0 4 0.5 8t1.5 5q59 20 92 53t33 74q0 27 -15.5 41t-45.5 15q-46 0 -73.5 -41.5t-27.5 -105.5q0 -4 -4.5 -4.5t-4.5 3.5q0 20 -1.5 42t-5.5 56q-1 12 -1.5 16
t-0.5 6q0 7 1 9t4 2q66 20 85.5 23t41.5 3q55 0 85 -17.5t30 -50.5q0 -22 -12.5 -38.5t-42.5 -31.5q-13 -7 -43 -19.5t-43 -18.5q17 5 31.5 7.5t25.5 2.5q53 0 79 -21.5t26 -65.5zM253 -83q38 1 47 11t9 54v21h-112q-7 0 -24 -0.5t-24 -1.5q-8 -1 -4.5 7t31.5 43
q4 5 56.5 69t99.5 131q3 4 7.5 7t10.5 5q13 4 19 0.5t1 -12.5q-5 -12 -7 -22t-2 -24v-158h34q39 0 50.5 9.5t16.5 39.5l4 24q1 5 5.5 5t3.5 -5l-3 -20q-1 -8 -2.5 -19t-4.5 -32q-4 -27 -5 -35t-2 -9t-11 -1.5t-22 -0.5h-64v-21q0 -45 8 -54.5t44 -10.5q4 0 4 -4.5t-4 -4.5
h-15t-36 1h-21.5h-7.5h-7h-20q-27 -1 -37.5 -1h-15.5q-4 0 -4 4.5t4 4.5zM260 134q-29 -32 -45 -50.5t-31 -36.5h125v143q-9 -11 -19 -22.5t-30 -33.5z" />
    <glyph glyph-name="questiondown" unicode="&#xbf;" horiz-adv-x="395" 
d="M260 327q0 -3 0.5 -41.5t0.5 -114.5q0 -5 -2 -7t-6 -4q-85 -42 -118.5 -79.5t-32.5 -88.5q1 -57 54 -88.5t150 -31.5q3 0 4.5 -1.5t1.5 -4.5t-3 -13t-11 -41q-10 -32 -13.5 -46.5t-5.5 -22.5q-1 -4 -3.5 -3.5t-2.5 4.5q2 11 6 32.5t3 24.5q0 2 -2.5 3t-15.5 1
q-93 0 -150.5 42t-57.5 104q0 55 41 108.5t99 81.5q0 5 -1 17t-3 45q-4 47 -5 63.5t0 19.5q1 4 36.5 24.5t36.5 16.5zM214 516q25 0 41.5 -16.5t16.5 -41.5q0 -24 -17.5 -41t-41.5 -17q-23 0 -40 17.5t-17 40.5q0 24 17 41t41 17z" />
    <glyph glyph-name="Agrave" unicode="&#xc0;" horiz-adv-x="711" 
d="M0 0zM465 248l-117 -3q-27 0 -79.5 1t-99.5 3l-17 -43q-16 -40 -26 -80.5t-10 -68.5q0 -24 14.5 -36.5t41.5 -12.5q2 0 6 0.5l12 1.5q5 1 7 1h3q3 0 5 -1.5t2 -3.5q0 -3 -3 -4.5t-9 -1.5h-16.5t-41.5 1t-41 1h-15h-8.5t-20.5 -1q-24 -1 -35 -1h-19q-3 0 -4.5 1.5
t-1.5 3.5q0 1 2 2.5t4 1.5h4q20 0 38 14.5t34 45.5q16 28 34 66t32 76l193 482q1 2 2.5 2.5t4.5 0.5h10q4 0 6.5 -0.5t3.5 -2.5l182 -434q21 -51 36 -85t27 -58q29 -63 48 -85t51 -22h8q3 0 5 -1t2 -3t-1.5 -3.5t-4.5 -1.5q-9 0 -22.5 0.5t-42.5 1.5q-19 1 -26 1h-10h-11.5
t-31.5 -1q-37 -1 -53 -1.5t-25 -0.5q-6 0 -7.5 4.5t4.5 4.5h21q31 0 31 24t-23 88q-9 23 -21.5 54.5t-30.5 72.5zM460 258v1l-149 349l-139 -351l170 1h118zM381 729q-1 0 -2 0.5t-2 1.5q-14 15 -40 36.5t-79 59.5q-17 12 -23 16.5t-8 6.5q-4 3 -7 10t-3 13q0 7 8 15t16 8
q7 0 14.5 -3.5t13.5 -9.5q1 -1 4 -5.5t14 -18.5q36 -52 57.5 -79.5t37.5 -42.5l2.5 -2.5t0.5 -1.5t-1.5 -2.5t-2.5 -1.5z" />
    <glyph glyph-name="Aacute" unicode="&#xc1;" horiz-adv-x="711" 
d="M0 0zM465 248l-117 -3q-27 0 -79.5 1t-99.5 3l-17 -43q-16 -40 -26 -80.5t-10 -68.5q0 -24 14.5 -36.5t41.5 -12.5q2 0 6 0.5l12 1.5q5 1 7 1h3q3 0 5 -1.5t2 -3.5q0 -3 -3 -4.5t-9 -1.5h-16.5t-41.5 1t-41 1h-15h-8.5t-20.5 -1q-24 -1 -35 -1h-19q-3 0 -4.5 1.5
t-1.5 3.5q0 1 2 2.5t4 1.5h4q20 0 38 14.5t34 45.5q16 28 34 66t32 76l193 482q1 2 2.5 2.5t4.5 0.5h10q4 0 6.5 -0.5t3.5 -2.5l182 -434q21 -51 36 -85t27 -58q29 -63 48 -85t51 -22h8q3 0 5 -1t2 -3t-1.5 -3.5t-4.5 -1.5q-9 0 -22.5 0.5t-42.5 1.5q-19 1 -26 1h-10h-11.5
t-31.5 -1q-37 -1 -53 -1.5t-25 -0.5q-6 0 -7.5 4.5t4.5 4.5h21q31 0 31 24t-23 88q-9 23 -21.5 54.5t-30.5 72.5zM460 258v1l-149 349l-139 -351l170 1h118zM426 827q-53 -38 -79 -59.5t-40 -36.5q-1 -1 -2 -1.5t-2 -0.5t-2.5 1.5t-1.5 2.5t0.5 1.5l2.5 2.5q16 15 37.5 42.5
t57.5 79.5q11 14 14 18.5t4 5.5q6 6 13.5 9.5t14.5 3.5q8 0 16 -8t8 -15q0 -6 -3 -13t-7 -10q-2 -2 -8 -6.5t-23 -16.5z" />
    <glyph glyph-name="Acircumflex" unicode="&#xc2;" horiz-adv-x="711" 
d="M0 0zM465 248l-117 -3q-27 0 -79.5 1t-99.5 3l-17 -43q-16 -40 -26 -80.5t-10 -68.5q0 -24 14.5 -36.5t41.5 -12.5q2 0 6 0.5l12 1.5q5 1 7 1h3q3 0 5 -1.5t2 -3.5q0 -3 -3 -4.5t-9 -1.5h-16.5t-41.5 1t-41 1h-15h-8.5t-20.5 -1q-24 -1 -35 -1h-19q-3 0 -4.5 1.5
t-1.5 3.5q0 1 2 2.5t4 1.5h4q20 0 38 14.5t34 45.5q16 28 34 66t32 76l193 482q1 2 2.5 2.5t4.5 0.5h10q4 0 6.5 -0.5t3.5 -2.5l182 -434q21 -51 36 -85t27 -58q29 -63 48 -85t51 -22h8q3 0 5 -1t2 -3t-1.5 -3.5t-4.5 -1.5q-9 0 -22.5 0.5t-42.5 1.5q-19 1 -26 1h-10h-11.5
t-31.5 -1q-37 -1 -53 -1.5t-25 -0.5q-6 0 -7.5 4.5t4.5 4.5h21q31 0 31 24t-23 88q-9 23 -21.5 54.5t-30.5 72.5zM460 258v1l-149 349l-139 -351l170 1h118zM342 876q-2 2 -4 2t-3 -2q-39 -58 -56.5 -84t-25.5 -38q-8 -11 -15.5 -15t-18.5 -4q-9 0 -14.5 4.5t-5.5 9.5
t4.5 12t13.5 17q25 26 57 55.5t60 51.5q2 1 5 1t4 -1q36 -27 66.5 -51.5t54.5 -45.5q10 -9 15 -16t5 -13q0 -7 -7 -14t-16 -7q-10 0 -18.5 5t-16.5 16q-6 8 -15 21t-31 43l-24 33t-14 20z" />
    <glyph glyph-name="Atilde" unicode="&#xc3;" horiz-adv-x="711" 
d="M0 0zM465 248l-117 -3q-27 0 -79.5 1t-99.5 3l-17 -43q-16 -40 -26 -80.5t-10 -68.5q0 -24 14.5 -36.5t41.5 -12.5q2 0 6 0.5l12 1.5q5 1 7 1h3q3 0 5 -1.5t2 -3.5q0 -3 -3 -4.5t-9 -1.5h-16.5t-41.5 1t-41 1h-15h-8.5t-20.5 -1q-24 -1 -35 -1h-19q-3 0 -4.5 1.5
t-1.5 3.5q0 1 2 2.5t4 1.5h4q20 0 38 14.5t34 45.5q16 28 34 66t32 76l193 482q1 2 2.5 2.5t4.5 0.5h10q4 0 6.5 -0.5t3.5 -2.5l182 -434q21 -51 36 -85t27 -58q29 -63 48 -85t51 -22h8q3 0 5 -1t2 -3t-1.5 -3.5t-4.5 -1.5q-9 0 -22.5 0.5t-42.5 1.5q-19 1 -26 1h-10h-11.5
t-31.5 -1q-37 -1 -53 -1.5t-25 -0.5q-6 0 -7.5 4.5t4.5 4.5h21q31 0 31 24t-23 88q-9 23 -21.5 54.5t-30.5 72.5zM460 258v1l-149 349l-139 -351l170 1h118zM207 752q-2 -3 -6 -1t-1 6q31 46 53.5 65.5t49.5 19.5q10 0 26 -4t50 -16q30 -10 42 -13t19 -3q21 0 33.5 11
t32.5 44q2 3 5.5 0.5t1.5 -5.5q-32 -54 -58 -77t-53 -23q-11 0 -26.5 3.5t-47.5 15.5q-29 11 -41 14t-21 3q-18 0 -31.5 -9.5t-27.5 -30.5z" />
    <glyph glyph-name="Adieresis" unicode="&#xc4;" horiz-adv-x="711" 
d="M0 0zM465 248l-117 -3q-27 0 -79.5 1t-99.5 3l-17 -43q-16 -40 -26 -80.5t-10 -68.5q0 -24 14.5 -36.5t41.5 -12.5q2 0 6 0.5l12 1.5q5 1 7 1h3q3 0 5 -1.5t2 -3.5q0 -3 -3 -4.5t-9 -1.5h-16.5t-41.5 1t-41 1h-15h-8.5t-20.5 -1q-24 -1 -35 -1h-19q-3 0 -4.5 1.5
t-1.5 3.5q0 1 2 2.5t4 1.5h4q20 0 38 14.5t34 45.5q16 28 34 66t32 76l193 482q1 2 2.5 2.5t4.5 0.5h10q4 0 6.5 -0.5t3.5 -2.5l182 -434q21 -51 36 -85t27 -58q29 -63 48 -85t51 -22h8q3 0 5 -1t2 -3t-1.5 -3.5t-4.5 -1.5q-9 0 -22.5 0.5t-42.5 1.5q-19 1 -26 1h-10h-11.5
t-31.5 -1q-37 -1 -53 -1.5t-25 -0.5q-6 0 -7.5 4.5t4.5 4.5h21q31 0 31 24t-23 88q-9 23 -21.5 54.5t-30.5 72.5zM460 258v1l-149 349l-139 -351l170 1h118zM435 771q-20 0 -34.5 14.5t-14.5 34.5t14.5 35t34.5 15t35 -15t15 -35t-15 -34.5t-35 -14.5zM249 771
q-20 0 -34.5 14.5t-14.5 34.5t14.5 35t34.5 15t35 -15t15 -35t-15 -34.5t-35 -14.5z" />
    <glyph glyph-name="Aring" unicode="&#xc5;" horiz-adv-x="711" 
d="M0 0zM465 248l-117 -3q-27 0 -79.5 1t-99.5 3l-17 -43q-16 -40 -26 -80.5t-10 -68.5q0 -24 14.5 -36.5t41.5 -12.5q2 0 6 0.5l12 1.5q5 1 7 1h3q3 0 5 -1.5t2 -3.5q0 -3 -3 -4.5t-9 -1.5h-16.5t-41.5 1t-41 1h-15h-8.5t-20.5 -1q-24 -1 -35 -1h-19q-3 0 -4.5 1.5
t-1.5 3.5q0 1 2 2.5t4 1.5h4q20 0 38 14.5t34 45.5q16 28 34 66t32 76l193 482q1 2 2.5 2.5t4.5 0.5h10q4 0 6.5 -0.5t3.5 -2.5l182 -434q21 -51 36 -85t27 -58q29 -63 48 -85t51 -22h8q3 0 5 -1t2 -3t-1.5 -3.5t-4.5 -1.5q-9 0 -22.5 0.5t-42.5 1.5q-19 1 -26 1h-10h-11.5
t-31.5 -1q-37 -1 -53 -1.5t-25 -0.5q-6 0 -7.5 4.5t4.5 4.5h21q31 0 31 24t-23 88q-9 23 -21.5 54.5t-30.5 72.5zM460 258v1l-149 349l-139 -351l170 1h118zM346 729q-39 0 -66 26.5t-27 65.5t27.5 66.5t65.5 27.5q39 0 66.5 -27.5t27.5 -66.5q0 -38 -27.5 -65t-66.5 -27z
M346 902q-33 0 -55.5 -23.5t-22.5 -57.5q0 -33 22.5 -56t55.5 -23t56 23t23 56q0 34 -23 57.5t-56 23.5z" />
    <glyph glyph-name="AE" unicode="&#xc6;" horiz-adv-x="1007" 
d="M471 248l-118 -3q-36 0 -90.5 1.5t-79.5 2.5l-20 -43q-19 -42 -31 -82t-13 -67q-1 -24 12 -36.5t40 -12.5q2 0 6 0.5l12 1.5q5 1 7 1h3q3 0 5 -1.5t2 -3.5q-1 -4 -4 -5t-8 -1h-16.5t-41.5 1t-41 1h-15h-9t-21 -1q-23 -1 -33.5 -1h-17.5q-3 0 -5 1.5t-1 3.5q0 1 2 2.5
t4 1.5h4q19 0 37 15t37 45q17 27 36.5 64.5t38.5 77.5l201 434q-9 23 -20 31t-40 8h-2q-6 0 -6 4.5t6 4.5h24t49 -1q22 -1 30 -1h11h241q25 0 55.5 0.5t87.5 0.5q33 1 46 1h21q16 0 29 -1t17 -3q2 -1 9 -47t20 -137l4 -36q1 -5 -4 -5t-6 5l-5 36q-14 83 -69.5 129t-141.5 46
h-275q-3 0 -4 -1.5t0 -4.5l84 -292h104q80 0 115.5 26t35.5 89v21q0 6 5 6t5 -6q0 -9 -0.5 -27.5t-2.5 -63.5q-1 -28 -1.5 -38t-0.5 -13q0 -4 0.5 -17t1.5 -50q2 -38 2.5 -52t0.5 -18q0 -6 -5 -6t-5 6v15q0 63 -36 89.5t-116 26.5h-99l32 -111q15 -50 25 -84t18 -58
q21 -62 37 -84t48 -22h69q79 0 134.5 57.5t66.5 144.5l6 53q1 5 6.5 4.5t4.5 -5.5l-6 -54q-13 -118 -19.5 -160t-11.5 -47q-2 -2 -27 -3t-106 -1h-109q-9 0 -22.5 0.5t-42.5 1.5q-19 1 -26 1h-10h-11.5t-32.5 -1q-37 -1 -53.5 -1.5t-25.5 -0.5q-6 0 -6 4.5t6 4.5h21
q31 0 34.5 24t-10.5 85q-6 24 -15 56t-21 74zM468 259l-107 361q-1 2 -1.5 4.5t-1.5 4.5l-171 -372l163 1h118v1z" />
    <glyph glyph-name="Ccedilla" unicode="&#xc7;" horiz-adv-x="756" 
d="M506 -153q0 -45 -38.5 -82t-91.5 -37q-32 0 -54 11t-22 27q0 12 16 22t30 10q9 0 17 -3.5t20 -14.5q15 -14 25.5 -18t22.5 -4q21 0 34 14t13 35q0 34 -36.5 51t-101.5 10q-4 0 -6.5 -2t-5.5 -8q-3 -5 -5 -6.5t-4 -1.5q-7 0 -8.5 5.5t5.5 13.5q24 29 50.5 64t42.5 57
q-158 5 -262 105.5t-104 250.5q0 152 111.5 254.5t271.5 102.5q62 0 135 -13t114 -31l12 -218q0 -5 -4 -5t-5 5q-6 61 -24.5 107.5t-48.5 78.5q-32 33 -76 49.5t-101 16.5q-133 0 -214 -95.5t-81 -251.5q0 -159 77 -252.5t210 -93.5q60 0 107 18.5t80 54.5q31 33 49.5 82
t24.5 112q0 3 4 3t4 -3l-12 -233q-46 -20 -114 -32t-141 -12q-27 -36 -35 -47t-15 -21q-1 -2 0.5 -2.5t4.5 -0.5q59 7 94 -13.5t35 -58.5z" />
    <glyph glyph-name="Egrave" unicode="&#xc8;" horiz-adv-x="622" 
d="M8 0zM157 3l-141 -3q-8 0 -8 3.5t8 3.5q36 0 47.5 9t17.5 35q3 13 5.5 33.5t4.5 55.5q2 28 3 73.5t1 220.5v52.5t-1 42.5q0 32 -1.5 54.5t-3.5 38.5q-4 35 -13 48.5t-39 13.5h-18q-6 0 -6 4.5t6 4.5q8 0 23 -0.5t48 -1.5q21 -1 29 -1h11h23.5t88.5 1q129 1 179 1.5
t61 0.5q18 0 30.5 -1t16.5 -3q2 -1 9 -47t20 -137l4 -36q1 -5 -3.5 -5t-6.5 5l-5 36q-14 83 -69.5 129t-141.5 47h-127q-26 0 -31.5 -12.5t-6.5 -52.5q0 -11 -0.5 -28t0.5 -63v-52v-39v-69h83q80 0 116 26t36 89v21q0 6 5 6t5 -6q0 -9 -0.5 -27.5t-2.5 -63.5
q-1 -28 -1.5 -38t-0.5 -13q0 -4 0.5 -17t1.5 -50q2 -38 2.5 -52t0.5 -18q0 -6 -5 -6t-5 6v15q0 63 -36 89.5t-116 26.5h-83v-192q0 -51 -2.5 -91.5t-5.5 -55.5q8 0 26 -0.5t66 -0.5q50 -1 69.5 -1.5t27.5 -0.5q80 0 140 59t71 143l6 53q1 5 6.5 4.5t4.5 -5.5l-6 -54
q-13 -118 -19.5 -160t-11.5 -47q-2 -2 -27 -3t-106 -1q-35 0 -98.5 1t-154.5 2zM350 750q-1 0 -2 0.5t-2 1.5q-14 15 -40 36.5t-79 59.5q-17 12 -23 16.5t-8 6.5q-4 3 -7 10t-3 13q0 7 8 15t16 8q7 0 14.5 -3.5t13.5 -9.5q1 -1 4 -5.5t14 -18.5q36 -52 57.5 -79.5
t37.5 -42.5l2.5 -2.5t0.5 -1.5t-1.5 -2.5t-2.5 -1.5z" />
    <glyph glyph-name="Eacute" unicode="&#xc9;" horiz-adv-x="622" 
d="M8 0zM157 3l-141 -3q-8 0 -8 3.5t8 3.5q36 0 47.5 9t17.5 35q3 13 5.5 33.5t4.5 55.5q2 28 3 73.5t1 220.5v52.5t-1 42.5q0 32 -1.5 54.5t-3.5 38.5q-4 35 -13 48.5t-39 13.5h-18q-6 0 -6 4.5t6 4.5q8 0 23 -0.5t48 -1.5q21 -1 29 -1h11h23.5t88.5 1q129 1 179 1.5
t61 0.5q18 0 30.5 -1t16.5 -3q2 -1 9 -47t20 -137l4 -36q1 -5 -3.5 -5t-6.5 5l-5 36q-14 83 -69.5 129t-141.5 47h-127q-26 0 -31.5 -12.5t-6.5 -52.5q0 -11 -0.5 -28t0.5 -63v-52v-39v-69h83q80 0 116 26t36 89v21q0 6 5 6t5 -6q0 -9 -0.5 -27.5t-2.5 -63.5
q-1 -28 -1.5 -38t-0.5 -13q0 -4 0.5 -17t1.5 -50q2 -38 2.5 -52t0.5 -18q0 -6 -5 -6t-5 6v15q0 63 -36 89.5t-116 26.5h-83v-192q0 -51 -2.5 -91.5t-5.5 -55.5q8 0 26 -0.5t66 -0.5q50 -1 69.5 -1.5t27.5 -0.5q80 0 140 59t71 143l6 53q1 5 6.5 4.5t4.5 -5.5l-6 -54
q-13 -118 -19.5 -160t-11.5 -47q-2 -2 -27 -3t-106 -1q-35 0 -98.5 1t-154.5 2zM395 848q-53 -38 -79 -59.5t-40 -36.5q-1 -1 -2 -1.5t-2 -0.5t-2.5 1.5t-1.5 2.5t0.5 1.5l2.5 2.5q16 15 37.5 42.5t57.5 79.5q11 14 14 18.5t4 5.5q6 6 13.5 9.5t14.5 3.5q8 0 16 -8t8 -15
q0 -6 -3 -13t-7 -10q-2 -2 -8 -6.5t-23 -16.5z" />
    <glyph glyph-name="Ecircumflex" unicode="&#xca;" horiz-adv-x="622" 
d="M8 0zM157 3l-141 -3q-8 0 -8 3.5t8 3.5q36 0 47.5 9t17.5 35q3 13 5.5 33.5t4.5 55.5q2 28 3 73.5t1 220.5v52.5t-1 42.5q0 32 -1.5 54.5t-3.5 38.5q-4 35 -13 48.5t-39 13.5h-18q-6 0 -6 4.5t6 4.5q8 0 23 -0.5t48 -1.5q21 -1 29 -1h11h23.5t88.5 1q129 1 179 1.5
t61 0.5q18 0 30.5 -1t16.5 -3q2 -1 9 -47t20 -137l4 -36q1 -5 -3.5 -5t-6.5 5l-5 36q-14 83 -69.5 129t-141.5 47h-127q-26 0 -31.5 -12.5t-6.5 -52.5q0 -11 -0.5 -28t0.5 -63v-52v-39v-69h83q80 0 116 26t36 89v21q0 6 5 6t5 -6q0 -9 -0.5 -27.5t-2.5 -63.5
q-1 -28 -1.5 -38t-0.5 -13q0 -4 0.5 -17t1.5 -50q2 -38 2.5 -52t0.5 -18q0 -6 -5 -6t-5 6v15q0 63 -36 89.5t-116 26.5h-83v-192q0 -51 -2.5 -91.5t-5.5 -55.5q8 0 26 -0.5t66 -0.5q50 -1 69.5 -1.5t27.5 -0.5q80 0 140 59t71 143l6 53q1 5 6.5 4.5t4.5 -5.5l-6 -54
q-13 -118 -19.5 -160t-11.5 -47q-2 -2 -27 -3t-106 -1q-35 0 -98.5 1t-154.5 2zM311 897q-2 2 -4 2t-3 -2q-39 -58 -56.5 -84t-25.5 -38q-8 -11 -15.5 -15t-18.5 -4q-9 0 -14.5 4.5t-5.5 9.5t4.5 12t13.5 17q25 26 57 55.5t60 51.5q2 1 5 1t4 -1q36 -27 66.5 -51.5
t54.5 -45.5q10 -9 15 -16t5 -13q0 -7 -7 -14t-16 -7q-10 0 -18.5 5t-16.5 16q-6 8 -15 21t-31 43l-24 33t-14 20z" />
    <glyph glyph-name="Edieresis" unicode="&#xcb;" horiz-adv-x="622" 
d="M8 0zM157 3l-141 -3q-8 0 -8 3.5t8 3.5q36 0 47.5 9t17.5 35q3 13 5.5 33.5t4.5 55.5q2 28 3 73.5t1 220.5v52.5t-1 42.5q0 32 -1.5 54.5t-3.5 38.5q-4 35 -13 48.5t-39 13.5h-18q-6 0 -6 4.5t6 4.5q8 0 23 -0.5t48 -1.5q21 -1 29 -1h11h23.5t88.5 1q129 1 179 1.5
t61 0.5q18 0 30.5 -1t16.5 -3q2 -1 9 -47t20 -137l4 -36q1 -5 -3.5 -5t-6.5 5l-5 36q-14 83 -69.5 129t-141.5 47h-127q-26 0 -31.5 -12.5t-6.5 -52.5q0 -11 -0.5 -28t0.5 -63v-52v-39v-69h83q80 0 116 26t36 89v21q0 6 5 6t5 -6q0 -9 -0.5 -27.5t-2.5 -63.5
q-1 -28 -1.5 -38t-0.5 -13q0 -4 0.5 -17t1.5 -50q2 -38 2.5 -52t0.5 -18q0 -6 -5 -6t-5 6v15q0 63 -36 89.5t-116 26.5h-83v-192q0 -51 -2.5 -91.5t-5.5 -55.5q8 0 26 -0.5t66 -0.5q50 -1 69.5 -1.5t27.5 -0.5q80 0 140 59t71 143l6 53q1 5 6.5 4.5t4.5 -5.5l-6 -54
q-13 -118 -19.5 -160t-11.5 -47q-2 -2 -27 -3t-106 -1q-35 0 -98.5 1t-154.5 2zM404 792q-20 0 -34.5 14.5t-14.5 34.5t14.5 35t34.5 15t35 -15t15 -35t-15 -34.5t-35 -14.5zM218 792q-20 0 -34.5 14.5t-14.5 34.5t14.5 35t34.5 15t35 -15t15 -35t-15 -34.5t-35 -14.5z" />
    <glyph glyph-name="Igrave" unicode="&#xcc;" horiz-adv-x="281" 
d="M15 0zM102 259v175v53.5v40.5q-1 33 -2 55.5t-2 38.5q-4 36 -12 49t-38 13h-21q-6 0 -6 4.5t6 4.5q9 0 24 -0.5t50 -1.5q22 -1 29.5 -1h10.5h11t30 1q34 1 49 1.5t23 0.5q6 0 6 -4.5t-6 -4.5h-21q-30 0 -38 -13t-12 -49q-1 -16 -2 -38.5t-2 -55.5v-40.5v-53.5v-175v-53.5
v-40.5q1 -33 2 -55.5t2 -38.5q4 -36 12 -49t38 -13h21q6 0 6 -4.5t-6 -4.5q-8 0 -23 0.5t-49 1.5q-22 1 -30 1h-11h-10.5t-29.5 -1q-35 -1 -50 -1.5t-24 -0.5q-6 0 -6 4.5t6 4.5h21q30 0 38 13t12 49q1 16 2 38.5t2 55.5v40.5v53.5zM179 750q-1 0 -2 0.5t-2 1.5
q-14 15 -40 36.5t-79 59.5q-17 12 -23 16.5t-8 6.5q-4 3 -7 10t-3 13q0 7 8 15t16 8q7 0 14.5 -3.5t13.5 -9.5q1 -1 4 -5.5t14 -18.5q36 -52 57.5 -79.5t37.5 -42.5l2.5 -2.5t0.5 -1.5t-1.5 -2.5t-2.5 -1.5z" />
    <glyph glyph-name="Iacute" unicode="&#xcd;" horiz-adv-x="281" 
d="M21 0zM102 259v175v53.5v40.5q-1 33 -2 55.5t-2 38.5q-4 36 -12 49t-38 13h-21q-6 0 -6 4.5t6 4.5q9 0 24 -0.5t50 -1.5q22 -1 29.5 -1h10.5h11t30 1q34 1 49 1.5t23 0.5q6 0 6 -4.5t-6 -4.5h-21q-30 0 -38 -13t-12 -49q-1 -16 -2 -38.5t-2 -55.5v-40.5v-53.5v-175v-53.5
v-40.5q1 -33 2 -55.5t2 -38.5q4 -36 12 -49t38 -13h21q6 0 6 -4.5t-6 -4.5q-8 0 -23 0.5t-49 1.5q-22 1 -30 1h-11h-10.5t-29.5 -1q-35 -1 -50 -1.5t-24 -0.5q-6 0 -6 4.5t6 4.5h21q30 0 38 13t12 49q1 16 2 38.5t2 55.5v40.5v53.5zM224 848q-53 -38 -79 -59.5t-40 -36.5
q-1 -1 -2 -1.5t-2 -0.5t-2.5 1.5t-1.5 2.5t0.5 1.5l2.5 2.5q16 15 37.5 42.5t57.5 79.5q11 14 14 18.5t4 5.5q6 6 13.5 9.5t14.5 3.5q8 0 16 -8t8 -15q0 -6 -3 -13t-7 -10q-2 -2 -8 -6.5t-23 -16.5z" />
    <glyph glyph-name="Icircumflex" unicode="&#xce;" horiz-adv-x="281" 
d="M0 0zM102 259v175v53.5v40.5q-1 33 -2 55.5t-2 38.5q-4 36 -12 49t-38 13h-21q-6 0 -6 4.5t6 4.5q9 0 24 -0.5t50 -1.5q22 -1 29.5 -1h10.5h11t30 1q34 1 49 1.5t23 0.5q6 0 6 -4.5t-6 -4.5h-21q-30 0 -38 -13t-12 -49q-1 -16 -2 -38.5t-2 -55.5v-40.5v-53.5v-175v-53.5
v-40.5q1 -33 2 -55.5t2 -38.5q4 -36 12 -49t38 -13h21q6 0 6 -4.5t-6 -4.5q-8 0 -23 0.5t-49 1.5q-22 1 -30 1h-11h-10.5t-29.5 -1q-35 -1 -50 -1.5t-24 -0.5q-6 0 -6 4.5t6 4.5h21q30 0 38 13t12 49q1 16 2 38.5t2 55.5v40.5v53.5zM140 897q-2 2 -4 2t-3 -2
q-39 -58 -56.5 -84t-25.5 -38q-8 -11 -15.5 -15t-18.5 -4q-9 0 -14.5 4.5t-5.5 9.5t4.5 12t13.5 17q25 26 57 55.5t60 51.5q2 1 5 1t4 -1q36 -27 66.5 -51.5t54.5 -45.5q10 -9 15 -16t5 -13q0 -7 -7 -14t-16 -7q-10 0 -18.5 5t-16.5 16q-6 8 -15 21t-31 43l-24 33t-14 20z
" />
    <glyph glyph-name="Idieresis" unicode="&#xcf;" horiz-adv-x="281" 
d="M0 0zM102 259v175v53.5v40.5q-1 33 -2 55.5t-2 38.5q-4 36 -12 49t-38 13h-21q-6 0 -6 4.5t6 4.5q9 0 24 -0.5t50 -1.5q22 -1 29.5 -1h10.5h11t30 1q34 1 49 1.5t23 0.5q6 0 6 -4.5t-6 -4.5h-21q-30 0 -38 -13t-12 -49q-1 -16 -2 -38.5t-2 -55.5v-40.5v-53.5v-175v-53.5
v-40.5q1 -33 2 -55.5t2 -38.5q4 -36 12 -49t38 -13h21q6 0 6 -4.5t-6 -4.5q-8 0 -23 0.5t-49 1.5q-22 1 -30 1h-11h-10.5t-29.5 -1q-35 -1 -50 -1.5t-24 -0.5q-6 0 -6 4.5t6 4.5h21q30 0 38 13t12 49q1 16 2 38.5t2 55.5v40.5v53.5zM233 792q-20 0 -34.5 14.5t-14.5 34.5
t14.5 35t34.5 15t35 -15t15 -35t-15 -34.5t-35 -14.5zM47 792q-20 0 -34.5 14.5t-14.5 34.5t14.5 35t34.5 15t35 -15t15 -35t-15 -34.5t-35 -14.5z" />
    <glyph glyph-name="Eth" unicode="&#xd0;" horiz-adv-x="733" 
d="M157 3q-15 0 -50 -0.5t-91 -2.5q-8 0 -8 3.5t8 3.5q36 0 48.5 9t17.5 34q4 14 6 35t3 55q1 35 1.5 94t-0.5 111q-27 -1 -44 -1.5t-30 -1.5q-3 2 -3 11t3 12q11 -1 27.5 -1.5t46.5 -1.5v15.5v15.5q0 12 -0.5 30t-0.5 62q-1 49 -1.5 71t-0.5 37q0 66 -8.5 78.5t-57.5 12.5
q-6 0 -6 4.5t6 4.5h10.5t35.5 -1q40 -1 55.5 -1h20.5h14.5t44.5 1q52 1 73.5 1h30.5q162 0 272 -98.5t110 -248.5q0 -151 -107 -248.5t-271 -97.5q-7 0 -21.5 0.5t-50.5 0.5q-40 1 -57 1.5t-26 0.5zM314 10q134 0 210.5 90t76.5 246q0 154 -80 246t-215 92h-66
q-38 0 -49 -11t-15 -42q-2 -16 -3 -39t-2 -60v-36.5v-61.5v-73h7h7q52 0 97.5 1t72.5 3q3 -3 3 -12t-3 -11q-30 2 -74.5 3t-94.5 1h-7.5h-7.5v-185q0 -51 -2.5 -91.5t-5.5 -55.5q5 0 15.5 -0.5t38.5 -1.5q43 -1 63 -1.5t34 -0.5z" />
    <glyph glyph-name="Ntilde" unicode="&#xd1;" horiz-adv-x="716" 
d="M0 0zM618 -3q-4 0 -11 6.5t-14 15.5l-482 602l-1 -362q0 -48 3 -86t8 -66q10 -51 30 -74.5t64 -23.5h14q5 0 5 -4.5t-5 -4.5h-30.5t-66.5 2q-19 1 -25.5 1h-9.5h-9t-20 -1q-21 -1 -32.5 -1.5t-19.5 -0.5q-6 0 -6 4.5t7 4.5h6q35 1 48.5 25t19.5 82q3 27 4.5 62.5
t1.5 80.5l1 359q0 7 -4 15t-12 16q-20 20 -38 28t-41 8h-4q-5 0 -5 4t5 4q41 0 75.5 1t64.5 3h6.5h2.5q4 0 6 -1.5t4 -4.5q5 -9 15 -23t24 -30l416 -517v313q0 48 -3.5 86.5t-10.5 67.5q-11 50 -33 73t-67 23h-14q-6 0 -6 4.5t6 4.5q9 0 26.5 -0.5t59.5 -1.5q26 -1 35.5 -1
h12.5h8t18 1q21 1 32 1.5t20 0.5q6 0 6 -4.5t-6 -4.5h-7q-31 0 -41 -13t-15 -46q-3 -17 -4.5 -40.5t-2.5 -55.5q0 -20 -0.5 -43.5t-0.5 -51.5v-427q0 -6 -2 -8t-6 -2zM243 773q-2 -3 -6 -1t-1 6q31 46 53.5 65.5t49.5 19.5q10 0 26 -4t50 -16q30 -10 42 -13t19 -3
q21 0 33.5 11t32.5 44q2 3 5.5 0.5t1.5 -5.5q-32 -54 -58 -77t-53 -23q-11 0 -26.5 3.5t-47.5 15.5q-29 11 -41 14t-21 3q-18 0 -31.5 -9.5t-27.5 -30.5z" />
    <glyph glyph-name="Ograve" unicode="&#xd2;" horiz-adv-x="794" 
d="M43 0zM645 94q-51 -50 -117 -77t-136 -27q-145 0 -247 103t-102 253q0 73 26.5 138t76.5 115t115.5 77t136.5 27q70 0 135.5 -27.5t114.5 -77.5t75.5 -115t26.5 -137t-27 -137t-78 -115zM133 346q0 -159 68.5 -252.5t186.5 -93.5q122 0 197.5 96t75.5 250q0 159 -70 253
t-189 94q-122 0 -195.5 -95.5t-73.5 -251.5zM436 750q-1 0 -2 0.5t-2 1.5q-14 15 -40 36.5t-79 59.5q-17 12 -23 16.5t-8 6.5q-4 3 -7 10t-3 13q0 7 8 15t16 8q7 0 14.5 -3.5t13.5 -9.5q1 -1 4 -5.5t14 -18.5q36 -52 57.5 -79.5t37.5 -42.5l2.5 -2.5t0.5 -1.5t-1.5 -2.5
t-2.5 -1.5z" />
    <glyph glyph-name="Oacute" unicode="&#xd3;" horiz-adv-x="794" 
d="M43 0zM645 94q-51 -50 -117 -77t-136 -27q-145 0 -247 103t-102 253q0 73 26.5 138t76.5 115t115.5 77t136.5 27q70 0 135.5 -27.5t114.5 -77.5t75.5 -115t26.5 -137t-27 -137t-78 -115zM133 346q0 -159 68.5 -252.5t186.5 -93.5q122 0 197.5 96t75.5 250q0 159 -70 253
t-189 94q-122 0 -195.5 -95.5t-73.5 -251.5zM481 848q-53 -38 -79 -59.5t-40 -36.5q-1 -1 -2 -1.5t-2 -0.5t-2.5 1.5t-1.5 2.5t0.5 1.5l2.5 2.5q16 15 37.5 42.5t57.5 79.5q11 14 14 18.5t4 5.5q6 6 13.5 9.5t14.5 3.5q8 0 16 -8t8 -15q0 -6 -3 -13t-7 -10q-2 -2 -8 -6.5
t-23 -16.5z" />
    <glyph glyph-name="Ocircumflex" unicode="&#xd4;" horiz-adv-x="794" 
d="M43 0zM645 94q-51 -50 -117 -77t-136 -27q-145 0 -247 103t-102 253q0 73 26.5 138t76.5 115t115.5 77t136.5 27q70 0 135.5 -27.5t114.5 -77.5t75.5 -115t26.5 -137t-27 -137t-78 -115zM133 346q0 -159 68.5 -252.5t186.5 -93.5q122 0 197.5 96t75.5 250q0 159 -70 253
t-189 94q-122 0 -195.5 -95.5t-73.5 -251.5zM397 897q-2 2 -4 2t-3 -2q-39 -58 -56.5 -84t-25.5 -38q-8 -11 -15.5 -15t-18.5 -4q-9 0 -14.5 4.5t-5.5 9.5t4.5 12t13.5 17q25 26 57 55.5t60 51.5q2 1 5 1t4 -1q36 -27 66.5 -51.5t54.5 -45.5q10 -9 15 -16t5 -13q0 -7 -7 -14
t-16 -7q-10 0 -18.5 5t-16.5 16q-6 8 -15 21t-31 43l-24 33t-14 20z" />
    <glyph glyph-name="Otilde" unicode="&#xd5;" horiz-adv-x="794" 
d="M43 0zM645 94q-51 -50 -117 -77t-136 -27q-145 0 -247 103t-102 253q0 73 26.5 138t76.5 115t115.5 77t136.5 27q70 0 135.5 -27.5t114.5 -77.5t75.5 -115t26.5 -137t-27 -137t-78 -115zM133 346q0 -159 68.5 -252.5t186.5 -93.5q122 0 197.5 96t75.5 250q0 159 -70 253
t-189 94q-122 0 -195.5 -95.5t-73.5 -251.5zM262 773q-2 -3 -6 -1t-1 6q31 46 53.5 65.5t49.5 19.5q10 0 26 -4t50 -16q30 -10 42 -13t19 -3q21 0 33.5 11t32.5 44q2 3 5.5 0.5t1.5 -5.5q-32 -54 -58 -77t-53 -23q-11 0 -26.5 3.5t-47.5 15.5q-29 11 -41 14t-21 3
q-18 0 -31.5 -9.5t-27.5 -30.5z" />
    <glyph glyph-name="Odieresis" unicode="&#xd6;" horiz-adv-x="794" 
d="M43 0zM645 94q-51 -50 -117 -77t-136 -27q-145 0 -247 103t-102 253q0 73 26.5 138t76.5 115t115.5 77t136.5 27q70 0 135.5 -27.5t114.5 -77.5t75.5 -115t26.5 -137t-27 -137t-78 -115zM133 346q0 -159 68.5 -252.5t186.5 -93.5q122 0 197.5 96t75.5 250q0 159 -70 253
t-189 94q-122 0 -195.5 -95.5t-73.5 -251.5zM490 792q-20 0 -34.5 14.5t-14.5 34.5t14.5 35t34.5 15t35 -15t15 -35t-15 -34.5t-35 -14.5zM304 792q-20 0 -34.5 14.5t-14.5 34.5t14.5 35t34.5 15t35 -15t15 -35t-15 -34.5t-35 -14.5z" />
    <glyph glyph-name="multiply" unicode="&#xd7;" horiz-adv-x="558" 
d="M367 415q-11 -11 -35 -35.5t-37 -37.5l-1 -1v0q39 -39 75.5 -72t70.5 -60q0 -5 -4.5 -10t-13.5 -10q-11 16 -26.5 33t-38.5 41q-10 10 -34 33.5t-37 36.5q-58 -58 -88 -90.5t-50 -59.5q-5 1 -11 5.5t-12 13.5q33 26 69.5 59.5t82.5 79.5q-24 24 -49.5 47.5t-94.5 83.5
q-1 4 4 10t12 11q18 -23 41 -47.5t95 -95.5h1q14 14 48 50.5t89 96.5q6 0 11 -4t9 -11q-16 -11 -33.5 -27t-42.5 -40z" />
    <glyph glyph-name="Oslash" unicode="&#xd8;" horiz-adv-x="794" 
d="M645 94q-51 -50 -117 -77t-136 -27q-53 0 -103.5 15.5t-93.5 45.5q-7 -8 -14.5 -18t-21.5 -30q-11 -14 -16 -21t-10 -13q-11 -4 -17.5 -1.5t-13.5 11.5q4 5 9 11t14 19q19 24 29 36t18 23q-62 51 -95.5 123t-33.5 155q0 73 26.5 138t76.5 115t115.5 77t136.5 27
q56 0 109 -17.5t98 -50.5q11 14 23 30.5t35 48.5q14 1 19.5 -1.5t10.5 -11.5q-21 -27 -36.5 -46.5t-29.5 -36.5q59 -50 91 -121t32 -151q0 -72 -27 -137t-78 -115zM402 693q-122 0 -195.5 -95.5t-73.5 -251.5q0 -76 16.5 -138.5t47.5 -108.5q67 85 119 151t81 103
q19 25 42.5 56.5t72.5 98.5l45 61.5t28 37.5q-34 42 -80.5 64t-102.5 22zM214 77q34 -38 77.5 -57.5t96.5 -19.5q122 0 197.5 96t75.5 250q0 72 -15.5 132.5t-44.5 105.5q-83 -105 -121.5 -154.5t-67.5 -88.5q-105 -139 -137.5 -182.5t-60.5 -81.5z" />
    <glyph glyph-name="Ugrave" unicode="&#xd9;" horiz-adv-x="665" 
d="M15 0zM327 -10q-110 0 -174.5 70.5t-64.5 191.5v182v53.5v40.5q-1 32 -2 54.5t-2 38.5q-3 36 -11.5 49.5t-37.5 13.5h-14q-6 0 -6 4.5t6 4.5q8 0 22.5 -0.5t45.5 -1.5q20 -1 27.5 -1h10.5h10.5t28.5 1q33 1 47.5 1.5t23.5 0.5q6 0 6 -4.5t-6 -4.5h-18q-29 0 -37.5 -13
t-12.5 -49q-2 -16 -3 -38.5t-1 -55.5q0 -18 -0.5 -40.5t-0.5 -53.5l-1 -155q0 -120 57 -188.5t157 -68.5q80 0 135 64.5t55 157.5v190q0 48 -3 86.5t-10 67.5q-11 50 -32.5 73t-66.5 23h-9q-6 0 -6 4.5t6 4.5q9 0 26 -0.5t55 -1.5q25 -1 34 -1h12h8.5t19.5 1l33 1.5t19 0.5
q6 0 6 -4.5t-6 -4.5h-7q-31 0 -41 -13t-16 -47q-2 -16 -4 -39.5t-3 -55.5q0 -20 -0.5 -43.5t-0.5 -51.5v-190q0 -109 -70.5 -181.5t-183.5 -72.5zM383 750q-1 0 -2 0.5t-2 1.5q-14 15 -40 36.5t-79 59.5q-17 12 -23 16.5t-8 6.5q-4 3 -7 10t-3 13q0 7 8 15t16 8
q7 0 14.5 -3.5t13.5 -9.5q1 -1 4 -5.5t14 -18.5q36 -52 57.5 -79.5t37.5 -42.5l2.5 -2.5t0.5 -1.5t-1.5 -2.5t-2.5 -1.5z" />
    <glyph glyph-name="Uacute" unicode="&#xda;" horiz-adv-x="665" 
d="M15 0zM327 -10q-110 0 -174.5 70.5t-64.5 191.5v182v53.5v40.5q-1 32 -2 54.5t-2 38.5q-3 36 -11.5 49.5t-37.5 13.5h-14q-6 0 -6 4.5t6 4.5q8 0 22.5 -0.5t45.5 -1.5q20 -1 27.5 -1h10.5h10.5t28.5 1q33 1 47.5 1.5t23.5 0.5q6 0 6 -4.5t-6 -4.5h-18q-29 0 -37.5 -13
t-12.5 -49q-2 -16 -3 -38.5t-1 -55.5q0 -18 -0.5 -40.5t-0.5 -53.5l-1 -155q0 -120 57 -188.5t157 -68.5q80 0 135 64.5t55 157.5v190q0 48 -3 86.5t-10 67.5q-11 50 -32.5 73t-66.5 23h-9q-6 0 -6 4.5t6 4.5q9 0 26 -0.5t55 -1.5q25 -1 34 -1h12h8.5t19.5 1l33 1.5t19 0.5
q6 0 6 -4.5t-6 -4.5h-7q-31 0 -41 -13t-16 -47q-2 -16 -4 -39.5t-3 -55.5q0 -20 -0.5 -43.5t-0.5 -51.5v-190q0 -109 -70.5 -181.5t-183.5 -72.5zM428 848q-53 -38 -79 -59.5t-40 -36.5q-1 -1 -2 -1.5t-2 -0.5t-2.5 1.5t-1.5 2.5t0.5 1.5l2.5 2.5q16 15 37.5 42.5t57.5 79.5
q11 14 14 18.5t4 5.5q6 6 13.5 9.5t14.5 3.5q8 0 16 -8t8 -15q0 -6 -3 -13t-7 -10q-2 -2 -8 -6.5t-23 -16.5z" />
    <glyph glyph-name="Ucircumflex" unicode="&#xdb;" horiz-adv-x="665" 
d="M15 0zM327 -10q-110 0 -174.5 70.5t-64.5 191.5v182v53.5v40.5q-1 32 -2 54.5t-2 38.5q-3 36 -11.5 49.5t-37.5 13.5h-14q-6 0 -6 4.5t6 4.5q8 0 22.5 -0.5t45.5 -1.5q20 -1 27.5 -1h10.5h10.5t28.5 1q33 1 47.5 1.5t23.5 0.5q6 0 6 -4.5t-6 -4.5h-18q-29 0 -37.5 -13
t-12.5 -49q-2 -16 -3 -38.5t-1 -55.5q0 -18 -0.5 -40.5t-0.5 -53.5l-1 -155q0 -120 57 -188.5t157 -68.5q80 0 135 64.5t55 157.5v190q0 48 -3 86.5t-10 67.5q-11 50 -32.5 73t-66.5 23h-9q-6 0 -6 4.5t6 4.5q9 0 26 -0.5t55 -1.5q25 -1 34 -1h12h8.5t19.5 1l33 1.5t19 0.5
q6 0 6 -4.5t-6 -4.5h-7q-31 0 -41 -13t-16 -47q-2 -16 -4 -39.5t-3 -55.5q0 -20 -0.5 -43.5t-0.5 -51.5v-190q0 -109 -70.5 -181.5t-183.5 -72.5zM344 897q-2 2 -4 2t-3 -2q-39 -58 -56.5 -84t-25.5 -38q-8 -11 -15.5 -15t-18.5 -4q-9 0 -14.5 4.5t-5.5 9.5t4.5 12t13.5 17
q25 26 57 55.5t60 51.5q2 1 5 1t4 -1q36 -27 66.5 -51.5t54.5 -45.5q10 -9 15 -16t5 -13q0 -7 -7 -14t-16 -7q-10 0 -18.5 5t-16.5 16q-6 8 -15 21t-31 43l-24 33t-14 20z" />
    <glyph glyph-name="Udieresis" unicode="&#xdc;" horiz-adv-x="665" 
d="M15 0zM327 -10q-110 0 -174.5 70.5t-64.5 191.5v182v53.5v40.5q-1 32 -2 54.5t-2 38.5q-3 36 -11.5 49.5t-37.5 13.5h-14q-6 0 -6 4.5t6 4.5q8 0 22.5 -0.5t45.5 -1.5q20 -1 27.5 -1h10.5h10.5t28.5 1q33 1 47.5 1.5t23.5 0.5q6 0 6 -4.5t-6 -4.5h-18q-29 0 -37.5 -13
t-12.5 -49q-2 -16 -3 -38.5t-1 -55.5q0 -18 -0.5 -40.5t-0.5 -53.5l-1 -155q0 -120 57 -188.5t157 -68.5q80 0 135 64.5t55 157.5v190q0 48 -3 86.5t-10 67.5q-11 50 -32.5 73t-66.5 23h-9q-6 0 -6 4.5t6 4.5q9 0 26 -0.5t55 -1.5q25 -1 34 -1h12h8.5t19.5 1l33 1.5t19 0.5
q6 0 6 -4.5t-6 -4.5h-7q-31 0 -41 -13t-16 -47q-2 -16 -4 -39.5t-3 -55.5q0 -20 -0.5 -43.5t-0.5 -51.5v-190q0 -109 -70.5 -181.5t-183.5 -72.5zM437 792q-20 0 -34.5 14.5t-14.5 34.5t14.5 35t34.5 15t35 -15t15 -35t-15 -34.5t-35 -14.5zM251 792q-20 0 -34.5 14.5
t-14.5 34.5t14.5 35t34.5 15t35 -15t15 -35t-15 -34.5t-35 -14.5z" />
    <glyph glyph-name="Yacute" unicode="&#xdd;" horiz-adv-x="615" 
d="M0 0zM403 9h18q6 0 6 -4.5t-6 -4.5q-8 0 -22.5 0.5t-46.5 1.5q-21 1 -29 1h-11h-10.5t-28.5 -1q-33 -1 -47.5 -1.5t-23.5 -0.5q-6 0 -6 4.5t6 4.5h18q30 0 38 13t12 49q1 16 2 38.5t2 55.5v40.5v53.5v55l-108 195q-63 114 -91 144.5t-63 30.5h-8q-3 0 -5 1t-2 3t1.5 3.5
t4.5 1.5q9 0 22.5 -0.5t41.5 -1.5q18 -1 25 -1h10h11.5t31.5 1q37 1 53 1.5t25 0.5q6 0 7.5 -4.5t-4.5 -4.5h-21q-34 0 -27.5 -32.5t69.5 -147.5l95 -174l106 182q41 69 41 121t-53 52q-2 0 -6 -0.5t-12 -2.5q-5 0 -7 -0.5t-3 -0.5q-3 0 -5 1.5t-2 4.5t3 4.5t9 1.5h15.5
t38.5 -1q26 -1 36.5 -1h14.5h10.5t28.5 1q33 1 47.5 1h22.5q6 0 4.5 -4.5t-6.5 -4.5h-2q-30 0 -76.5 -51.5t-87.5 -123.5l-110 -191v-59v-53.5v-40.5q1 -33 2 -55.5t2 -38.5q4 -36 12 -49t38 -13zM406 848q-53 -38 -79 -59.5t-40 -36.5q-1 -1 -2 -1.5t-2 -0.5t-2.5 1.5
t-1.5 2.5t0.5 1.5l2.5 2.5q16 15 37.5 42.5t57.5 79.5q11 14 14 18.5t4 5.5q6 6 13.5 9.5t14.5 3.5q8 0 16 -8t8 -15q0 -6 -3 -13t-7 -10q-2 -2 -8 -6.5t-23 -16.5z" />
    <glyph glyph-name="Thorn" unicode="&#xde;" horiz-adv-x="606" 
d="M95 165v40.5v53.5v175v53.5v40.5q-1 33 -2 55.5t-2 38.5q-4 36 -12 49t-38 13h-21q-6 0 -6 4.5t6 4.5q9 0 24 -0.5t50 -1.5q22 -1 29.5 -1h10.5h11t30 1q34 1 49 1.5t23 0.5q6 0 6 -4.5t-6 -4.5h-21q-28 0 -36.5 -11.5t-12.5 -42.5q-2 -14 -3 -35t-1 -50h141
q124 0 194 -51t70 -142q0 -92 -71.5 -148.5t-186.5 -56.5q-31 1 -83 0.5t-64 -0.5q0 -29 1 -49.5t3 -35.5q4 -30 12.5 -41.5t36.5 -11.5h21q6 0 6 -4.5t-6 -4.5q-8 0 -23 0.5t-49 1.5q-22 1 -30 1h-11h-10.5t-29.5 -1q-35 -1 -50 -1.5t-24 -0.5q-6 0 -6 4.5t6 4.5h21
q30 0 38 13t12 49q1 16 2 38.5t2 55.5zM172 434v-175v-67t1 -35h125q91 0 142.5 52t51.5 144q0 91 -48.5 136.5t-144.5 45.5h-126q-1 -15 -1 -35v-66z" />
    <glyph glyph-name="germandbls" unicode="&#xdf;" horiz-adv-x="581" 
d="M401 532q-52 -47 -67.5 -70.5t-15.5 -46.5t19 -43t83 -56q91 -50 120.5 -88t29.5 -86q0 -64 -43.5 -107t-106.5 -43q-71 0 -123.5 33.5t-52.5 74.5q0 10 6 16t17 6q15 0 27 -5t17 -13q3 -5 12.5 -32.5t22.5 -41.5q13 -15 31.5 -22t44.5 -7q50 0 78.5 25.5t28.5 70.5
q0 34 -22.5 61t-97.5 66q-79 42 -103.5 72.5t-24.5 69.5q0 33 16.5 64t69.5 82q47 47 61.5 72.5t14.5 52.5q0 46 -37 74.5t-99 28.5q-73 0 -115 -66t-42 -181l1 -484h54q6 0 6 -4.5t-6 -4.5h-21t-37 1q-16 1 -22.5 1h-9.5h-10t-24 -1q-28 -1 -41 -1h-22q-6 0 -6 4.5t6 4.5
q39 0 48.5 14t9.5 87l-1 335h-61q-8 0 -11 1.5t-3 4.5l35 48h46q23 114 109.5 198t178.5 84q62 0 95.5 -26.5t33.5 -76.5q0 -31 -19 -62t-78 -84z" />
    <glyph glyph-name="agrave" unicode="&#xe0;" horiz-adv-x="513" 
d="M32 0zM358 137q-23 -49 -84 -98.5t-112 -49.5q-58 0 -94 31.5t-36 80.5q0 55 61 105t189 100l84 33q-4 89 -28 125.5t-80 36.5q-20 0 -36.5 -5t-30.5 -16q-22 -17 -41.5 -52.5t-20.5 -37.5q-7 -11 -16.5 -14.5t-28.5 -3.5q-18 0 -29 6.5t-11 16.5q0 11 9.5 24t25.5 23
q45 29 99 48.5t96 19.5q82 0 125 -46.5t43 -135.5q0 -20 -1 -48.5t-4 -88.5q-2 -41 -2.5 -57t-0.5 -25q0 -46 6.5 -65.5t21.5 -19.5q11 0 26.5 16.5t27.5 38.5q4 6 10 2t2 -10q-18 -25 -55.5 -53t-61.5 -28q-28 0 -42.5 18t-14.5 53q0 16 1 36.5t3 39.5zM102 130
q0 -41 31.5 -69t77.5 -28q43 0 90.5 44.5t57.5 80.5q5 65 6 94t1 58v10.5v10.5l-82 -35q-112 -47 -147 -79.5t-35 -86.5zM289 557q-1 0 -2 0.5t-2 1.5q-14 15 -40 36.5t-79 59.5q-17 12 -23 16.5t-8 6.5q-4 3 -7 10t-3 13q0 7 8 15t16 8q7 0 14.5 -3.5t13.5 -9.5
q1 -1 4 -5.5t14 -18.5q36 -52 57.5 -79.5t37.5 -42.5l2.5 -2.5t0.5 -1.5t-1.5 -2.5t-2.5 -1.5z" />
    <glyph glyph-name="aacute" unicode="&#xe1;" horiz-adv-x="513" 
d="M32 0zM358 137q-23 -49 -84 -98.5t-112 -49.5q-58 0 -94 31.5t-36 80.5q0 55 61 105t189 100l84 33q-4 89 -28 125.5t-80 36.5q-20 0 -36.5 -5t-30.5 -16q-22 -17 -41.5 -52.5t-20.5 -37.5q-7 -11 -16.5 -14.5t-28.5 -3.5q-18 0 -29 6.5t-11 16.5q0 11 9.5 24t25.5 23
q45 29 99 48.5t96 19.5q82 0 125 -46.5t43 -135.5q0 -20 -1 -48.5t-4 -88.5q-2 -41 -2.5 -57t-0.5 -25q0 -46 6.5 -65.5t21.5 -19.5q11 0 26.5 16.5t27.5 38.5q4 6 10 2t2 -10q-18 -25 -55.5 -53t-61.5 -28q-28 0 -42.5 18t-14.5 53q0 16 1 36.5t3 39.5zM102 130
q0 -41 31.5 -69t77.5 -28q43 0 90.5 44.5t57.5 80.5q5 65 6 94t1 58v10.5v10.5l-82 -35q-112 -47 -147 -79.5t-35 -86.5zM334 655q-53 -38 -79 -59.5t-40 -36.5q-1 -1 -2 -1.5t-2 -0.5t-2.5 1.5t-1.5 2.5t0.5 1.5l2.5 2.5q16 15 37.5 42.5t57.5 79.5q11 14 14 18.5t4 5.5
q6 6 13.5 9.5t14.5 3.5q8 0 16 -8t8 -15q0 -6 -3 -13t-7 -10q-2 -2 -8 -6.5t-23 -16.5z" />
    <glyph glyph-name="acircumflex" unicode="&#xe2;" horiz-adv-x="513" 
d="M32 0zM358 137q-23 -49 -84 -98.5t-112 -49.5q-58 0 -94 31.5t-36 80.5q0 55 61 105t189 100l84 33q-4 89 -28 125.5t-80 36.5q-20 0 -36.5 -5t-30.5 -16q-22 -17 -41.5 -52.5t-20.5 -37.5q-7 -11 -16.5 -14.5t-28.5 -3.5q-18 0 -29 6.5t-11 16.5q0 11 9.5 24t25.5 23
q45 29 99 48.5t96 19.5q82 0 125 -46.5t43 -135.5q0 -20 -1 -48.5t-4 -88.5q-2 -41 -2.5 -57t-0.5 -25q0 -46 6.5 -65.5t21.5 -19.5q11 0 26.5 16.5t27.5 38.5q4 6 10 2t2 -10q-18 -25 -55.5 -53t-61.5 -28q-28 0 -42.5 18t-14.5 53q0 16 1 36.5t3 39.5zM102 130
q0 -41 31.5 -69t77.5 -28q43 0 90.5 44.5t57.5 80.5q5 65 6 94t1 58v10.5v10.5l-82 -35q-112 -47 -147 -79.5t-35 -86.5zM250 704q-2 2 -4 2t-3 -2q-39 -58 -56.5 -84t-25.5 -38q-8 -11 -15.5 -15t-18.5 -4q-9 0 -14.5 4.5t-5.5 9.5t4.5 12t13.5 17q25 26 57 55.5t60 51.5
q2 1 5 1t4 -1q36 -27 66.5 -51.5t54.5 -45.5q10 -9 15 -16t5 -13q0 -7 -7 -14t-16 -7q-10 0 -18.5 5t-16.5 16q-6 8 -15 21t-31 43l-24 33t-14 20z" />
    <glyph glyph-name="atilde" unicode="&#xe3;" horiz-adv-x="513" 
d="M32 0zM358 137q-23 -49 -84 -98.5t-112 -49.5q-58 0 -94 31.5t-36 80.5q0 55 61 105t189 100l84 33q-4 89 -28 125.5t-80 36.5q-20 0 -36.5 -5t-30.5 -16q-22 -17 -41.5 -52.5t-20.5 -37.5q-7 -11 -16.5 -14.5t-28.5 -3.5q-18 0 -29 6.5t-11 16.5q0 11 9.5 24t25.5 23
q45 29 99 48.5t96 19.5q82 0 125 -46.5t43 -135.5q0 -20 -1 -48.5t-4 -88.5q-2 -41 -2.5 -57t-0.5 -25q0 -46 6.5 -65.5t21.5 -19.5q11 0 26.5 16.5t27.5 38.5q4 6 10 2t2 -10q-18 -25 -55.5 -53t-61.5 -28q-28 0 -42.5 18t-14.5 53q0 16 1 36.5t3 39.5zM102 130
q0 -41 31.5 -69t77.5 -28q43 0 90.5 44.5t57.5 80.5q5 65 6 94t1 58v10.5v10.5l-82 -35q-112 -47 -147 -79.5t-35 -86.5zM115 580q-2 -3 -6 -1t-1 6q31 46 53.5 65.5t49.5 19.5q10 0 26 -4t50 -16q30 -10 42 -13t19 -3q21 0 33.5 11t32.5 44q2 3 5.5 0.5t1.5 -5.5
q-32 -54 -58 -77t-53 -23q-11 0 -26.5 3.5t-47.5 15.5q-29 11 -41 14t-21 3q-18 0 -31.5 -9.5t-27.5 -30.5z" />
    <glyph glyph-name="adieresis" unicode="&#xe4;" horiz-adv-x="513" 
d="M32 0zM358 137q-23 -49 -84 -98.5t-112 -49.5q-58 0 -94 31.5t-36 80.5q0 55 61 105t189 100l84 33q-4 89 -28 125.5t-80 36.5q-20 0 -36.5 -5t-30.5 -16q-22 -17 -41.5 -52.5t-20.5 -37.5q-7 -11 -16.5 -14.5t-28.5 -3.5q-18 0 -29 6.5t-11 16.5q0 11 9.5 24t25.5 23
q45 29 99 48.5t96 19.5q82 0 125 -46.5t43 -135.5q0 -20 -1 -48.5t-4 -88.5q-2 -41 -2.5 -57t-0.5 -25q0 -46 6.5 -65.5t21.5 -19.5q11 0 26.5 16.5t27.5 38.5q4 6 10 2t2 -10q-18 -25 -55.5 -53t-61.5 -28q-28 0 -42.5 18t-14.5 53q0 16 1 36.5t3 39.5zM102 130
q0 -41 31.5 -69t77.5 -28q43 0 90.5 44.5t57.5 80.5q5 65 6 94t1 58v10.5v10.5l-82 -35q-112 -47 -147 -79.5t-35 -86.5zM343 599q-20 0 -34.5 14.5t-14.5 34.5t14.5 35t34.5 15t35 -15t15 -35t-15 -34.5t-35 -14.5zM157 599q-20 0 -34.5 14.5t-14.5 34.5t14.5 35t34.5 15
t35 -15t15 -35t-15 -34.5t-35 -14.5z" />
    <glyph glyph-name="aring" unicode="&#xe5;" horiz-adv-x="513" 
d="M32 0zM358 137q-23 -49 -84 -98.5t-112 -49.5q-58 0 -94 31.5t-36 80.5q0 55 61 105t189 100l84 33q-4 89 -28 125.5t-80 36.5q-20 0 -36.5 -5t-30.5 -16q-22 -17 -41.5 -52.5t-20.5 -37.5q-7 -11 -16.5 -14.5t-28.5 -3.5q-18 0 -29 6.5t-11 16.5q0 11 9.5 24t25.5 23
q45 29 99 48.5t96 19.5q82 0 125 -46.5t43 -135.5q0 -20 -1 -48.5t-4 -88.5q-2 -41 -2.5 -57t-0.5 -25q0 -46 6.5 -65.5t21.5 -19.5q11 0 26.5 16.5t27.5 38.5q4 6 10 2t2 -10q-18 -25 -55.5 -53t-61.5 -28q-28 0 -42.5 18t-14.5 53q0 16 1 36.5t3 39.5zM102 130
q0 -41 31.5 -69t77.5 -28q43 0 90.5 44.5t57.5 80.5q5 65 6 94t1 58v10.5v10.5l-82 -35q-112 -47 -147 -79.5t-35 -86.5zM255 556q-39 0 -66 26.5t-27 65.5t27.5 66.5t65.5 27.5q39 0 66.5 -27.5t27.5 -66.5q0 -38 -27.5 -65t-66.5 -27zM255 729q-33 0 -55.5 -23.5
t-22.5 -57.5q0 -33 22.5 -56t55.5 -23t56 23t23 56q0 34 -23 57.5t-56 23.5z" />
    <glyph glyph-name="ae" unicode="&#xe6;" horiz-adv-x="857" 
d="M369 169q-28 -63 -90.5 -121.5t-116.5 -58.5q-58 0 -94 31.5t-36 80.5q0 55 61 105t189 100l84 33q-4 89 -28 125.5t-80 36.5q-25 0 -45.5 -8.5t-36.5 -25.5q-14 -15 -28.5 -43.5t-18.5 -33.5q-7 -11 -16.5 -14.5t-28.5 -3.5q-18 0 -29 6.5t-11 16.5q0 11 9.5 24t25.5 23
q45 29 99 48.5t96 19.5q62 0 102.5 -28.5t58.5 -84.5q45 55 101.5 84t116.5 29q37 0 67 -7.5t52 -22.5q29 -19 44 -48t11 -57q-2 -16 -12 -23.5t-30 -7.5h-341q-4 -17 -6.5 -36.5t-2.5 -40.5q0 -92 70 -155.5t172 -63.5q83 0 144 47t107 147q4 9 7.5 7.5t-0.5 -9.5
q-28 -66 -69 -118.5t-89 -84.5q-36 -24 -73.5 -35.5t-77.5 -11.5q-90 0 -162 50t-95 129zM740 397q0 36 -32.5 63.5t-82.5 27.5q-68 0 -114.5 -35.5t-64.5 -100.5q34 0 67.5 0.5t88.5 1.5q39 1 56.5 1.5t32.5 0.5q10 0 24 3.5t16 5.5q4 5 6.5 13.5t2.5 18.5zM102 130
q0 -41 31.5 -69t77.5 -28q43 0 91.5 52.5t62.5 100.5l1 124v10.5v10.5l-82 -35q-112 -47 -147 -79.5t-35 -86.5z" />
    <glyph glyph-name="ccedilla" unicode="&#xe7;" horiz-adv-x="542" 
d="M278 -10h-1q-106 0 -173 67t-67 173q0 108 87.5 194t197.5 86q68 0 117.5 -23t49.5 -52q0 -16 -14 -28.5t-35 -12.5q-9 0 -18 6t-28 27q-33 36 -58.5 48.5t-55.5 12.5q-79 0 -128.5 -58.5t-49.5 -154.5q0 -100 64.5 -164.5t164.5 -64.5q68 0 119 33.5t90 103.5q1 3 3 4
t4 0t2 -3t-1 -4q-44 -81 -113.5 -133t-143.5 -57q-17 -21 -28.5 -36.5t-21.5 -31.5q-1 -2 0.5 -2.5t4.5 -0.5q59 7 94 -13.5t35 -58.5q0 -45 -38.5 -82t-91.5 -37q-32 0 -54 11t-22 27q0 12 16 22t30 10q9 0 17 -3.5t20 -14.5q15 -14 25.5 -18t22.5 -4q21 0 34 14t13 35
q0 34 -36.5 51t-101.5 10q-4 0 -6.5 -2t-5.5 -8q-3 -5 -5 -6.5t-4 -1.5q-7 0 -8.5 5.5t5.5 13.5q50 64 66.5 85.5t26.5 35.5z" />
    <glyph glyph-name="egrave" unicode="&#xe8;" 
d="M34 0zM436 37q-36 -24 -73.5 -35.5t-77.5 -11.5q-112 0 -181.5 67t-69.5 173q0 52 22 102.5t63 91.5q40 41 91 63.5t102 22.5q37 0 67 -7.5t52 -22.5q29 -19 44 -48t11 -57q-2 -16 -12 -23.5t-30 -7.5h-341q-4 -17 -6.5 -36.5t-2.5 -40.5q0 -92 70 -155.5t172 -63.5
q83 0 144 47t107 147q4 9 7.5 7.5t-0.5 -9.5q-28 -66 -69 -118.5t-89 -84.5zM399 397q0 36 -32.5 63.5t-82.5 27.5q-68 0 -114.5 -35.5t-64.5 -100.5q34 0 67.5 0.5t88.5 1.5q39 1 56.5 1.5t32.5 0.5q10 0 24 3.5t16 5.5q4 5 6.5 13.5t2.5 18.5zM329 557q-1 0 -2 0.5t-2 1.5
q-14 15 -40 36.5t-79 59.5q-17 12 -23 16.5t-8 6.5q-4 3 -7 10t-3 13q0 7 8 15t16 8q7 0 14.5 -3.5t13.5 -9.5q1 -1 4 -5.5t14 -18.5q36 -52 57.5 -79.5t37.5 -42.5l2.5 -2.5t0.5 -1.5t-1.5 -2.5t-2.5 -1.5z" />
    <glyph glyph-name="eacute" unicode="&#xe9;" 
d="M34 0zM436 37q-36 -24 -73.5 -35.5t-77.5 -11.5q-112 0 -181.5 67t-69.5 173q0 52 22 102.5t63 91.5q40 41 91 63.5t102 22.5q37 0 67 -7.5t52 -22.5q29 -19 44 -48t11 -57q-2 -16 -12 -23.5t-30 -7.5h-341q-4 -17 -6.5 -36.5t-2.5 -40.5q0 -92 70 -155.5t172 -63.5
q83 0 144 47t107 147q4 9 7.5 7.5t-0.5 -9.5q-28 -66 -69 -118.5t-89 -84.5zM399 397q0 36 -32.5 63.5t-82.5 27.5q-68 0 -114.5 -35.5t-64.5 -100.5q34 0 67.5 0.5t88.5 1.5q39 1 56.5 1.5t32.5 0.5q10 0 24 3.5t16 5.5q4 5 6.5 13.5t2.5 18.5zM374 655q-53 -38 -79 -59.5
t-40 -36.5q-1 -1 -2 -1.5t-2 -0.5t-2.5 1.5t-1.5 2.5t0.5 1.5l2.5 2.5q16 15 37.5 42.5t57.5 79.5q11 14 14 18.5t4 5.5q6 6 13.5 9.5t14.5 3.5q8 0 16 -8t8 -15q0 -6 -3 -13t-7 -10q-2 -2 -8 -6.5t-23 -16.5z" />
    <glyph glyph-name="ecircumflex" unicode="&#xea;" 
d="M34 0zM436 37q-36 -24 -73.5 -35.5t-77.5 -11.5q-112 0 -181.5 67t-69.5 173q0 52 22 102.5t63 91.5q40 41 91 63.5t102 22.5q37 0 67 -7.5t52 -22.5q29 -19 44 -48t11 -57q-2 -16 -12 -23.5t-30 -7.5h-341q-4 -17 -6.5 -36.5t-2.5 -40.5q0 -92 70 -155.5t172 -63.5
q83 0 144 47t107 147q4 9 7.5 7.5t-0.5 -9.5q-28 -66 -69 -118.5t-89 -84.5zM399 397q0 36 -32.5 63.5t-82.5 27.5q-68 0 -114.5 -35.5t-64.5 -100.5q34 0 67.5 0.5t88.5 1.5q39 1 56.5 1.5t32.5 0.5q10 0 24 3.5t16 5.5q4 5 6.5 13.5t2.5 18.5zM290 704q-2 2 -4 2t-3 -2
q-39 -58 -56.5 -84t-25.5 -38q-8 -11 -15.5 -15t-18.5 -4q-9 0 -14.5 4.5t-5.5 9.5t4.5 12t13.5 17q25 26 57 55.5t60 51.5q2 1 5 1t4 -1q36 -27 66.5 -51.5t54.5 -45.5q10 -9 15 -16t5 -13q0 -7 -7 -14t-16 -7q-10 0 -18.5 5t-16.5 16q-6 8 -15 21t-31 43l-24 33t-14 20z
" />
    <glyph glyph-name="edieresis" unicode="&#xeb;" 
d="M34 0zM436 37q-36 -24 -73.5 -35.5t-77.5 -11.5q-112 0 -181.5 67t-69.5 173q0 52 22 102.5t63 91.5q40 41 91 63.5t102 22.5q37 0 67 -7.5t52 -22.5q29 -19 44 -48t11 -57q-2 -16 -12 -23.5t-30 -7.5h-341q-4 -17 -6.5 -36.5t-2.5 -40.5q0 -92 70 -155.5t172 -63.5
q83 0 144 47t107 147q4 9 7.5 7.5t-0.5 -9.5q-28 -66 -69 -118.5t-89 -84.5zM399 397q0 36 -32.5 63.5t-82.5 27.5q-68 0 -114.5 -35.5t-64.5 -100.5q34 0 67.5 0.5t88.5 1.5q39 1 56.5 1.5t32.5 0.5q10 0 24 3.5t16 5.5q4 5 6.5 13.5t2.5 18.5zM383 599q-20 0 -34.5 14.5
t-14.5 34.5t14.5 35t34.5 15t35 -15t15 -35t-15 -34.5t-35 -14.5zM197 599q-20 0 -34.5 14.5t-14.5 34.5t14.5 35t34.5 15t35 -15t15 -35t-15 -34.5t-35 -14.5z" />
    <glyph glyph-name="igrave" unicode="&#xec;" horiz-adv-x="226" 
d="M0 0zM79 1q-29 -1 -42.5 -1h-22.5q-6 0 -6 4.5t6 4.5q40 0 50.5 15.5t10.5 85.5v267q0 50 -10.5 63.5t-53.5 4.5q-6 -1 -7.5 3t4.5 5q33 7 62 20.5t63 36.5q3 2 10.5 -1t7.5 -6v-393q0 -70 10.5 -85.5t49.5 -15.5q6 0 6 -4.5t-6 -4.5h-22t-40 1q-18 1 -24.5 1h-9.5h-10
t-26 -1zM148 557q-1 0 -2 0.5t-2 1.5q-14 15 -40 36.5t-79 59.5q-17 12 -23 16.5t-8 6.5q-4 3 -7 10t-3 13q0 7 8 15t16 8q7 0 14.5 -3.5t13.5 -9.5q1 -1 4 -5.5t14 -18.5q36 -52 57.5 -79.5t37.5 -42.5l2.5 -2.5t0.5 -1.5t-1.5 -2.5t-2.5 -1.5z" />
    <glyph glyph-name="iacute" unicode="&#xed;" horiz-adv-x="226" 
d="M3 0zM79 1q-29 -1 -42.5 -1h-22.5q-6 0 -6 4.5t6 4.5q40 0 50.5 15.5t10.5 85.5v267q0 50 -10.5 63.5t-53.5 4.5q-6 -1 -7.5 3t4.5 5q33 7 62 20.5t63 36.5q3 2 10.5 -1t7.5 -6v-393q0 -70 10.5 -85.5t49.5 -15.5q6 0 6 -4.5t-6 -4.5h-22t-40 1q-18 1 -24.5 1h-9.5h-10
t-26 -1zM193 655q-53 -38 -79 -59.5t-40 -36.5q-1 -1 -2 -1.5t-2 -0.5t-2.5 1.5t-1.5 2.5t0.5 1.5l2.5 2.5q16 15 37.5 42.5t57.5 79.5q11 14 14 18.5t4 5.5q6 6 13.5 9.5t14.5 3.5q8 0 16 -8t8 -15q0 -6 -3 -13t-7 -10q-2 -2 -8 -6.5t-23 -16.5z" />
    <glyph glyph-name="icircumflex" unicode="&#xee;" horiz-adv-x="226" 
d="M0 0zM79 1q-29 -1 -42.5 -1h-22.5q-6 0 -6 4.5t6 4.5q40 0 50.5 15.5t10.5 85.5v267q0 50 -10.5 63.5t-53.5 4.5q-6 -1 -7.5 3t4.5 5q33 7 62 20.5t63 36.5q3 2 10.5 -1t7.5 -6v-393q0 -70 10.5 -85.5t49.5 -15.5q6 0 6 -4.5t-6 -4.5h-22t-40 1q-18 1 -24.5 1h-9.5h-10
t-26 -1zM109 704q-2 2 -4 2t-3 -2q-39 -58 -56.5 -84t-25.5 -38q-8 -11 -15.5 -15t-18.5 -4q-9 0 -14.5 4.5t-5.5 9.5t4.5 12t13.5 17q25 26 57 55.5t60 51.5q2 1 5 1t4 -1q36 -27 66.5 -51.5t54.5 -45.5q10 -9 15 -16t5 -13q0 -7 -7 -14t-16 -7q-10 0 -18.5 5t-16.5 16
q-6 8 -15 21t-31 43l-24 33t-14 20z" />
    <glyph glyph-name="idieresis" unicode="&#xef;" horiz-adv-x="226" 
d="M0 0zM79 1q-29 -1 -42.5 -1h-22.5q-6 0 -6 4.5t6 4.5q40 0 50.5 15.5t10.5 85.5v267q0 50 -10.5 63.5t-53.5 4.5q-6 -1 -7.5 3t4.5 5q33 7 62 20.5t63 36.5q3 2 10.5 -1t7.5 -6v-393q0 -70 10.5 -85.5t49.5 -15.5q6 0 6 -4.5t-6 -4.5h-22t-40 1q-18 1 -24.5 1h-9.5h-10
t-26 -1zM202 599q-20 0 -34.5 14.5t-14.5 34.5t14.5 35t34.5 15t35 -15t15 -35t-15 -34.5t-35 -14.5zM16 599q-20 0 -34.5 14.5t-14.5 34.5t14.5 35t34.5 15t35 -15t15 -35t-15 -34.5t-35 -14.5z" />
    <glyph glyph-name="eth" unicode="&#xf0;" horiz-adv-x="584" 
d="M320 653q-54 -31 -86 -50t-43 -25q-7 1 -11.5 8t-0.5 13q29 12 66 29.5t68 33.5q-32 35 -69 64.5t-81 54.5q-5 3 -3 6.5t8 0.5q49 -25 92.5 -53t81.5 -59q16 9 34.5 19.5t53.5 30.5q21 13 31 19t18 10q7 -1 11.5 -8t0.5 -13q-32 -14 -70.5 -32.5t-68.5 -33.5
q95 -80 144.5 -173t49.5 -188q0 -137 -74.5 -227t-187.5 -90q-109 0 -178.5 70t-69.5 180q0 54 18.5 101.5t54.5 85.5q36 39 85 61t96 22q44 0 78.5 -13.5t59.5 -40.5q-20 60 -46.5 108t-61.5 89zM119 257q0 -105 51.5 -180.5t130.5 -75.5q78 0 121 63.5t43 176.5
q0 122 -46 190.5t-131 68.5q-82 0 -125.5 -62.5t-43.5 -180.5z" />
    <glyph glyph-name="ntilde" unicode="&#xf1;" horiz-adv-x="562" 
d="M22 0zM90 1q-27 -1 -40 -1h-22q-6 0 -6 4.5t6 4.5q30 0 37.5 16t7.5 94v258q0 17 -11 35.5t-35 40.5q-2 2 -2 3.5t2 2.5q21 8 42 20t31 22q2 2 3 1.5t3 -2.5q17 -16 29 -44.5t12 -54.5q42 56 87 82.5t98 26.5q82 0 122.5 -51t40.5 -152v-209q0 -21 1 -36t3 -25
q4 -16 12 -22.5t32 -5.5q6 0 6 -4.5t-6 -4.5h-8t-24 1q-28 0 -40 0.5t-17 0.5h-9t-21 -1q-23 -1 -34.5 -1h-20.5q-6 0 -6 4.5t6 4.5q34 0 42.5 18t8.5 77v213q-1 79 -32.5 121t-88.5 42q-46 0 -80 -20.5t-71 -70.5v-380h52q6 0 6 -4.5t-6 -4.5h-7t-20 1q-24 0 -34 0.5
t-15 0.5h-9.5t-24.5 -1zM149 580q-2 -3 -6 -1t-1 6q31 46 53.5 65.5t49.5 19.5q10 0 26 -4t50 -16q30 -10 42 -13t19 -3q21 0 33.5 11t32.5 44q2 3 5.5 0.5t1.5 -5.5q-32 -54 -58 -77t-53 -23q-11 0 -26.5 3.5t-47.5 15.5q-29 11 -41 14t-21 3q-18 0 -31.5 -9.5t-27.5 -30.5
z" />
    <glyph glyph-name="ograve" unicode="&#xf2;" horiz-adv-x="581" 
d="M36 0zM546 257q0 -104 -77.5 -185.5t-184.5 -81.5q-109 0 -178.5 70t-69.5 180q0 112 76 191t188 79q109 0 177.5 -70t68.5 -183zM119 257q0 -105 51.5 -180.5t130.5 -75.5q78 0 121 63.5t43 176.5q0 105 -51 182t-126 77q-82 0 -125.5 -62.5t-43.5 -180.5zM325 557
q-1 0 -2 0.5t-2 1.5q-14 15 -40 36.5t-79 59.5q-17 12 -23 16.5t-8 6.5q-4 3 -7 10t-3 13q0 7 8 15t16 8q7 0 14.5 -3.5t13.5 -9.5q1 -1 4 -5.5t14 -18.5q36 -52 57.5 -79.5t37.5 -42.5l2.5 -2.5t0.5 -1.5t-1.5 -2.5t-2.5 -1.5z" />
    <glyph glyph-name="oacute" unicode="&#xf3;" horiz-adv-x="581" 
d="M36 0zM546 257q0 -104 -77.5 -185.5t-184.5 -81.5q-109 0 -178.5 70t-69.5 180q0 112 76 191t188 79q109 0 177.5 -70t68.5 -183zM119 257q0 -105 51.5 -180.5t130.5 -75.5q78 0 121 63.5t43 176.5q0 105 -51 182t-126 77q-82 0 -125.5 -62.5t-43.5 -180.5zM370 655
q-53 -38 -79 -59.5t-40 -36.5q-1 -1 -2 -1.5t-2 -0.5t-2.5 1.5t-1.5 2.5t0.5 1.5l2.5 2.5q16 15 37.5 42.5t57.5 79.5q11 14 14 18.5t4 5.5q6 6 13.5 9.5t14.5 3.5q8 0 16 -8t8 -15q0 -6 -3 -13t-7 -10q-2 -2 -8 -6.5t-23 -16.5z" />
    <glyph glyph-name="ocircumflex" unicode="&#xf4;" horiz-adv-x="581" 
d="M36 0zM546 257q0 -104 -77.5 -185.5t-184.5 -81.5q-109 0 -178.5 70t-69.5 180q0 112 76 191t188 79q109 0 177.5 -70t68.5 -183zM119 257q0 -105 51.5 -180.5t130.5 -75.5q78 0 121 63.5t43 176.5q0 105 -51 182t-126 77q-82 0 -125.5 -62.5t-43.5 -180.5zM286 704
q-2 2 -4 2t-3 -2q-39 -58 -56.5 -84t-25.5 -38q-8 -11 -15.5 -15t-18.5 -4q-9 0 -14.5 4.5t-5.5 9.5t4.5 12t13.5 17q25 26 57 55.5t60 51.5q2 1 5 1t4 -1q36 -27 66.5 -51.5t54.5 -45.5q10 -9 15 -16t5 -13q0 -7 -7 -14t-16 -7q-10 0 -18.5 5t-16.5 16q-6 8 -15 21t-31 43
l-24 33t-14 20z" />
    <glyph glyph-name="otilde" unicode="&#xf5;" horiz-adv-x="581" 
d="M36 0zM546 257q0 -104 -77.5 -185.5t-184.5 -81.5q-109 0 -178.5 70t-69.5 180q0 112 76 191t188 79q109 0 177.5 -70t68.5 -183zM119 257q0 -105 51.5 -180.5t130.5 -75.5q78 0 121 63.5t43 176.5q0 105 -51 182t-126 77q-82 0 -125.5 -62.5t-43.5 -180.5zM151 580
q-2 -3 -6 -1t-1 6q31 46 53.5 65.5t49.5 19.5q10 0 26 -4t50 -16q30 -10 42 -13t19 -3q21 0 33.5 11t32.5 44q2 3 5.5 0.5t1.5 -5.5q-32 -54 -58 -77t-53 -23q-11 0 -26.5 3.5t-47.5 15.5q-29 11 -41 14t-21 3q-18 0 -31.5 -9.5t-27.5 -30.5z" />
    <glyph glyph-name="odieresis" unicode="&#xf6;" horiz-adv-x="581" 
d="M36 0zM546 257q0 -104 -77.5 -185.5t-184.5 -81.5q-109 0 -178.5 70t-69.5 180q0 112 76 191t188 79q109 0 177.5 -70t68.5 -183zM119 257q0 -105 51.5 -180.5t130.5 -75.5q78 0 121 63.5t43 176.5q0 105 -51 182t-126 77q-82 0 -125.5 -62.5t-43.5 -180.5zM379 599
q-20 0 -34.5 14.5t-14.5 34.5t14.5 35t34.5 15t35 -15t15 -35t-15 -34.5t-35 -14.5zM193 599q-20 0 -34.5 14.5t-14.5 34.5t14.5 35t34.5 15t35 -15t15 -35t-15 -34.5t-35 -14.5z" />
    <glyph glyph-name="divide" unicode="&#xf7;" horiz-adv-x="558" 
d="M318 473q0 -15 -11.5 -26.5t-26.5 -11.5q-16 0 -27 11t-11 27t11 27t27 11q15 0 26.5 -11.5t11.5 -26.5zM277 341q38 0 70.5 1t100.5 5q5 -4 5 -12.5t-5 -11.5q-65 5 -97 6t-73 1t-73 -1t-97 -6q-5 3 -5 11.5t5 12.5q69 -4 100.5 -5t68.5 -1zM318 199q0 -15 -11.5 -26.5
t-26.5 -11.5q-16 0 -27 11t-11 27t11 27t27 11q15 0 26.5 -11.5t11.5 -26.5z" />
    <glyph glyph-name="oslash" unicode="&#xf8;" horiz-adv-x="581" 
d="M120 -3q-6 -8 -9 -12.5t-6 -8.5q-3 -1 -9 -2t-9 0q-2 0 -4 1.5t-9 8.5q20 24 32 39t17 21q-42 34 -64.5 84.5t-22.5 111.5q0 112 76 191t188 79q38 0 73.5 -10t65.5 -29q8 12 22.5 32.5t16.5 23.5q15 1 21.5 -4.5t7.5 -6.5q-5 -6 -11.5 -13.5t-17.5 -21.5l-12 -15t-7 -9
q42 -34 64.5 -85.5t22.5 -114.5q0 -104 -77.5 -185.5t-184.5 -81.5q-39 0 -75 10t-66 30q-4 -6 -8.5 -12.5t-14.5 -20.5zM288 500q-82 0 -125.5 -62.5t-43.5 -180.5q0 -45 11 -87.5t31 -77.5q31 40 58.5 76.5t64.5 85.5q64 88 85.5 118.5t39.5 57.5q-24 34 -55 52t-66 18z
M174 73q24 -35 56.5 -53.5t70.5 -18.5q78 0 121 63.5t43 176.5q0 46 -11 90t-32 79q-31 -40 -60 -79t-63 -86q-38 -51 -65.5 -89t-59.5 -83z" />
    <glyph glyph-name="ugrave" unicode="&#xf9;" horiz-adv-x="559" 
d="M0 0zM413 99q-42 -56 -87 -82.5t-98 -26.5q-81 0 -121 50.5t-40 152.5v184q0 25 -1.5 40.5t-5.5 23.5q-5 11 -15 14t-42 -3q-6 -1 -6 3.5t6 5.5q31 6 60.5 16.5t61.5 28.5q3 2 10.5 -1t7.5 -6v-316q0 -79 30.5 -121t87.5 -42q45 0 80 21t72 71v265q0 25 -1.5 40.5
t-5.5 23.5q-5 11 -15 14t-42 -3q-6 -1 -6 3.5t6 5.5q31 6 59.5 16.5t61.5 28.5q3 2 10.5 -1t7.5 -6v-380q0 -76 8 -93t45 -17q5 0 5 -4.5t-5 -4.5q-18 0 -50.5 -2.5t-79.5 -7.5q-4 -1 -6 0.5t-2 8.5q0 1 0.5 3t1.5 8q4 28 6 48.5t2 40.5zM318 557q-1 0 -2 0.5t-2 1.5
q-14 15 -40 36.5t-79 59.5q-17 12 -23 16.5t-8 6.5q-4 3 -7 10t-3 13q0 7 8 15t16 8q7 0 14.5 -3.5t13.5 -9.5q1 -1 4 -5.5t14 -18.5q36 -52 57.5 -79.5t37.5 -42.5l2.5 -2.5t0.5 -1.5t-1.5 -2.5t-2.5 -1.5z" />
    <glyph glyph-name="uacute" unicode="&#xfa;" horiz-adv-x="559" 
d="M0 0zM413 99q-42 -56 -87 -82.5t-98 -26.5q-81 0 -121 50.5t-40 152.5v184q0 25 -1.5 40.5t-5.5 23.5q-5 11 -15 14t-42 -3q-6 -1 -6 3.5t6 5.5q31 6 60.5 16.5t61.5 28.5q3 2 10.5 -1t7.5 -6v-316q0 -79 30.5 -121t87.5 -42q45 0 80 21t72 71v265q0 25 -1.5 40.5
t-5.5 23.5q-5 11 -15 14t-42 -3q-6 -1 -6 3.5t6 5.5q31 6 59.5 16.5t61.5 28.5q3 2 10.5 -1t7.5 -6v-380q0 -76 8 -93t45 -17q5 0 5 -4.5t-5 -4.5q-18 0 -50.5 -2.5t-79.5 -7.5q-4 -1 -6 0.5t-2 8.5q0 1 0.5 3t1.5 8q4 28 6 48.5t2 40.5zM363 655q-53 -38 -79 -59.5
t-40 -36.5q-1 -1 -2 -1.5t-2 -0.5t-2.5 1.5t-1.5 2.5t0.5 1.5l2.5 2.5q16 15 37.5 42.5t57.5 79.5q11 14 14 18.5t4 5.5q6 6 13.5 9.5t14.5 3.5q8 0 16 -8t8 -15q0 -6 -3 -13t-7 -10q-2 -2 -8 -6.5t-23 -16.5z" />
    <glyph glyph-name="ucircumflex" unicode="&#xfb;" horiz-adv-x="559" 
d="M0 0zM413 99q-42 -56 -87 -82.5t-98 -26.5q-81 0 -121 50.5t-40 152.5v184q0 25 -1.5 40.5t-5.5 23.5q-5 11 -15 14t-42 -3q-6 -1 -6 3.5t6 5.5q31 6 60.5 16.5t61.5 28.5q3 2 10.5 -1t7.5 -6v-316q0 -79 30.5 -121t87.5 -42q45 0 80 21t72 71v265q0 25 -1.5 40.5
t-5.5 23.5q-5 11 -15 14t-42 -3q-6 -1 -6 3.5t6 5.5q31 6 59.5 16.5t61.5 28.5q3 2 10.5 -1t7.5 -6v-380q0 -76 8 -93t45 -17q5 0 5 -4.5t-5 -4.5q-18 0 -50.5 -2.5t-79.5 -7.5q-4 -1 -6 0.5t-2 8.5q0 1 0.5 3t1.5 8q4 28 6 48.5t2 40.5zM279 704q-2 2 -4 2t-3 -2
q-39 -58 -56.5 -84t-25.5 -38q-8 -11 -15.5 -15t-18.5 -4q-9 0 -14.5 4.5t-5.5 9.5t4.5 12t13.5 17q25 26 57 55.5t60 51.5q2 1 5 1t4 -1q36 -27 66.5 -51.5t54.5 -45.5q10 -9 15 -16t5 -13q0 -7 -7 -14t-16 -7q-10 0 -18.5 5t-16.5 16q-6 8 -15 21t-31 43l-24 33t-14 20z
" />
    <glyph glyph-name="udieresis" unicode="&#xfc;" horiz-adv-x="559" 
d="M0 0zM413 99q-42 -56 -87 -82.5t-98 -26.5q-81 0 -121 50.5t-40 152.5v184q0 25 -1.5 40.5t-5.5 23.5q-5 11 -15 14t-42 -3q-6 -1 -6 3.5t6 5.5q31 6 60.5 16.5t61.5 28.5q3 2 10.5 -1t7.5 -6v-316q0 -79 30.5 -121t87.5 -42q45 0 80 21t72 71v265q0 25 -1.5 40.5
t-5.5 23.5q-5 11 -15 14t-42 -3q-6 -1 -6 3.5t6 5.5q31 6 59.5 16.5t61.5 28.5q3 2 10.5 -1t7.5 -6v-380q0 -76 8 -93t45 -17q5 0 5 -4.5t-5 -4.5q-18 0 -50.5 -2.5t-79.5 -7.5q-4 -1 -6 0.5t-2 8.5q0 1 0.5 3t1.5 8q4 28 6 48.5t2 40.5zM372 599q-20 0 -34.5 14.5
t-14.5 34.5t14.5 35t34.5 15t35 -15t15 -35t-15 -34.5t-35 -14.5zM186 599q-20 0 -34.5 14.5t-14.5 34.5t14.5 35t34.5 15t35 -15t15 -35t-15 -34.5t-35 -14.5z" />
    <glyph glyph-name="yacute" unicode="&#xfd;" horiz-adv-x="537" 
d="M0 0zM53 -191q-36 0 -59.5 11.5t-23.5 27.5q0 15 17 30.5t38 15.5q9 0 18.5 -2.5t26.5 -11.5q18 -9 27.5 -12t19.5 -3q48 0 77.5 27.5t57.5 91.5l11 24l-159 352q-38 84 -58 108t-59 23q-5 0 -5 4.5t5 4.5h9t28 -1q32 -1 44.5 -1h17.5h10.5t27.5 1q32 1 46.5 1h22.5
q6 0 6 -4.5t-6 -4.5q-25 0 -36 -4t-14 -13t2.5 -27t22.5 -57l133 -295l112 252q30 68 17.5 106t-63.5 38q-6 0 -6 4.5t6 4.5q9 0 21.5 -0.5t39.5 -0.5q17 -1 23.5 -1h9.5h16.5t40.5 1q19 1 25 1h8q5 0 5 -4.5t-5 -4.5q-32 1 -62.5 -34.5t-66.5 -115.5l-160 -359
q-41 -92 -90 -132.5t-119 -40.5zM368 655q-53 -38 -79 -59.5t-40 -36.5q-1 -1 -2 -1.5t-2 -0.5t-2.5 1.5t-1.5 2.5t0.5 1.5l2.5 2.5q16 15 37.5 42.5t57.5 79.5q11 14 14 18.5t4 5.5q6 6 13.5 9.5t14.5 3.5q8 0 16 -8t8 -15q0 -6 -3 -13t-7 -10q-2 -2 -8 -6.5t-23 -16.5z
" />
    <glyph glyph-name="thorn" unicode="&#xfe;" horiz-adv-x="596" 
d="M557 275q0 -118 -86 -201.5t-200 -83.5q-33 0 -64.5 9.5t-60.5 28.5v-163v-128h71q6 0 6 -4.5t-6 -4.5h-9t-28 1q-33 0 -46.5 0.5t-18.5 0.5h-11t-30 -1q-34 -1 -49.5 -1h-24.5q-6 0 -6 4.5t6 4.5q52 0 63 18t11 99v827q0 25 -2 41t-6 25q-5 11 -16.5 14t-41.5 -2
q-6 -1 -6 3.5t6 5.5q31 6 59.5 16.5t61.5 28.5q3 2 10.5 -1t7.5 -6v-201.5v-201.5q36 50 89 78.5t110 28.5q88 0 149.5 -67.5t61.5 -167.5zM483 239q0 101 -51.5 169.5t-134.5 68.5q-43 0 -84 -23t-66 -61v-144v-144q46 -48 86.5 -70.5t79.5 -22.5q82 0 126 59t44 168z" />
    <glyph glyph-name="ydieresis" unicode="&#xff;" horiz-adv-x="537" 
d="M0 0zM53 -191q-36 0 -59.5 11.5t-23.5 27.5q0 15 17 30.5t38 15.5q9 0 18.5 -2.5t26.5 -11.5q18 -9 27.5 -12t19.5 -3q48 0 77.5 27.5t57.5 91.5l11 24l-159 352q-38 84 -58 108t-59 23q-5 0 -5 4.5t5 4.5h9t28 -1q32 -1 44.5 -1h17.5h10.5t27.5 1q32 1 46.5 1h22.5
q6 0 6 -4.5t-6 -4.5q-25 0 -36 -4t-14 -13t2.5 -27t22.5 -57l133 -295l112 252q30 68 17.5 106t-63.5 38q-6 0 -6 4.5t6 4.5q9 0 21.5 -0.5t39.5 -0.5q17 -1 23.5 -1h9.5h16.5t40.5 1q19 1 25 1h8q5 0 5 -4.5t-5 -4.5q-32 1 -62.5 -34.5t-66.5 -115.5l-160 -359
q-41 -92 -90 -132.5t-119 -40.5zM377 599q-20 0 -34.5 14.5t-14.5 34.5t14.5 35t34.5 15t35 -15t15 -35t-15 -34.5t-35 -14.5zM191 599q-20 0 -34.5 14.5t-14.5 34.5t14.5 35t34.5 15t35 -15t15 -35t-15 -34.5t-35 -14.5z" />
    <glyph glyph-name="Amacron" unicode="&#x100;" horiz-adv-x="711" 
d="M0 0zM465 248l-117 -3q-27 0 -79.5 1t-99.5 3l-17 -43q-16 -40 -26 -80.5t-10 -68.5q0 -24 14.5 -36.5t41.5 -12.5q2 0 6 0.5l12 1.5q5 1 7 1h3q3 0 5 -1.5t2 -3.5q0 -3 -3 -4.5t-9 -1.5h-16.5t-41.5 1t-41 1h-15h-8.5t-20.5 -1q-24 -1 -35 -1h-19q-3 0 -4.5 1.5
t-1.5 3.5q0 1 2 2.5t4 1.5h4q20 0 38 14.5t34 45.5q16 28 34 66t32 76l193 482q1 2 2.5 2.5t4.5 0.5h10q4 0 6.5 -0.5t3.5 -2.5l182 -434q21 -51 36 -85t27 -58q29 -63 48 -85t51 -22h8q3 0 5 -1t2 -3t-1.5 -3.5t-4.5 -1.5q-9 0 -22.5 0.5t-42.5 1.5q-19 1 -26 1h-10h-11.5
t-31.5 -1q-37 -1 -53 -1.5t-25 -0.5q-6 0 -7.5 4.5t4.5 4.5h21q31 0 31 24t-23 88q-9 23 -21.5 54.5t-30.5 72.5zM460 258v1l-149 349l-139 -351l170 1h118zM289 802q16 -1 27.5 -1h23.5h1h54t36 1q25 1 30 0.5t5 -1.5q0 -4 -9 -14t-37 -37h-4h-12q-22 1 -36 1h-26
q-21 0 -44.5 -1t-31.5 -1q-20 -1 -27.5 -0.5t-7.5 2.5q0 4 9 14t37 37h3.5h8.5z" />
    <glyph glyph-name="amacron" unicode="&#x101;" horiz-adv-x="513" 
d="M32 0zM358 137q-23 -49 -84 -98.5t-112 -49.5q-58 0 -94 31.5t-36 80.5q0 55 61 105t189 100l84 33q-4 89 -28 125.5t-80 36.5q-20 0 -36.5 -5t-30.5 -16q-22 -17 -41.5 -52.5t-20.5 -37.5q-7 -11 -16.5 -14.5t-28.5 -3.5q-18 0 -29 6.5t-11 16.5q0 11 9.5 24t25.5 23
q45 29 99 48.5t96 19.5q82 0 125 -46.5t43 -135.5q0 -20 -1 -48.5t-4 -88.5q-2 -41 -2.5 -57t-0.5 -25q0 -46 6.5 -65.5t21.5 -19.5q11 0 26.5 16.5t27.5 38.5q4 6 10 2t2 -10q-18 -25 -55.5 -53t-61.5 -28q-28 0 -42.5 18t-14.5 53q0 16 1 36.5t3 39.5zM102 130
q0 -41 31.5 -69t77.5 -28q43 0 90.5 44.5t57.5 80.5q5 65 6 94t1 58v10.5v10.5l-82 -35q-112 -47 -147 -79.5t-35 -86.5zM197 630q16 -1 27.5 -1h23.5h1h54t36 1q25 1 30 0.5t5 -1.5q0 -4 -9 -14t-37 -37h-4h-12q-22 1 -36 1h-26q-21 0 -44.5 -1t-31.5 -1q-20 -1 -27.5 -0.5
t-7.5 2.5q0 4 9 14t37 37h3.5h8.5z" />
    <glyph glyph-name="Abreve" unicode="&#x102;" horiz-adv-x="711" 
d="M0 0zM465 248l-117 -3q-27 0 -79.5 1t-99.5 3l-17 -43q-16 -40 -26 -80.5t-10 -68.5q0 -24 14.5 -36.5t41.5 -12.5q2 0 6 0.5l12 1.5q5 1 7 1h3q3 0 5 -1.5t2 -3.5q0 -3 -3 -4.5t-9 -1.5h-16.5t-41.5 1t-41 1h-15h-8.5t-20.5 -1q-24 -1 -35 -1h-19q-3 0 -4.5 1.5
t-1.5 3.5q0 1 2 2.5t4 1.5h4q20 0 38 14.5t34 45.5q16 28 34 66t32 76l193 482q1 2 2.5 2.5t4.5 0.5h10q4 0 6.5 -0.5t3.5 -2.5l182 -434q21 -51 36 -85t27 -58q29 -63 48 -85t51 -22h8q3 0 5 -1t2 -3t-1.5 -3.5t-4.5 -1.5q-9 0 -22.5 0.5t-42.5 1.5q-19 1 -26 1h-10h-11.5
t-31.5 -1q-37 -1 -53 -1.5t-25 -0.5q-6 0 -7.5 4.5t4.5 4.5h21q31 0 31 24t-23 88q-9 23 -21.5 54.5t-30.5 72.5zM460 258v1l-149 349l-139 -351l170 1h118zM466 846q-18 -44 -49.5 -69t-72.5 -26q-42 0 -74.5 19.5t-48.5 55.5q-4 9 0.5 15.5t16.5 10.5q15 5 22 4.5t10 -7.5
q19 -40 44 -59.5t57 -19.5q29 0 48 20.5t28 59.5q1 3 3.5 5t6.5 2q5 0 7.5 -3.5t1.5 -7.5z" />
    <glyph glyph-name="abreve" unicode="&#x103;" horiz-adv-x="513" 
d="M32 0zM358 137q-23 -49 -84 -98.5t-112 -49.5q-58 0 -94 31.5t-36 80.5q0 55 61 105t189 100l84 33q-4 89 -28 125.5t-80 36.5q-20 0 -36.5 -5t-30.5 -16q-22 -17 -41.5 -52.5t-20.5 -37.5q-7 -11 -16.5 -14.5t-28.5 -3.5q-18 0 -29 6.5t-11 16.5q0 11 9.5 24t25.5 23
q45 29 99 48.5t96 19.5q82 0 125 -46.5t43 -135.5q0 -20 -1 -48.5t-4 -88.5q-2 -41 -2.5 -57t-0.5 -25q0 -46 6.5 -65.5t21.5 -19.5q11 0 26.5 16.5t27.5 38.5q4 6 10 2t2 -10q-18 -25 -55.5 -53t-61.5 -28q-28 0 -42.5 18t-14.5 53q0 16 1 36.5t3 39.5zM102 130
q0 -41 31.5 -69t77.5 -28q43 0 90.5 44.5t57.5 80.5q5 65 6 94t1 58v10.5v10.5l-82 -35q-112 -47 -147 -79.5t-35 -86.5zM374 674q-18 -44 -49.5 -69t-72.5 -26q-42 0 -74.5 19.5t-48.5 55.5q-4 9 0.5 15.5t16.5 10.5q15 5 22 4.5t10 -7.5q19 -40 44 -59.5t57 -19.5
q29 0 48 20.5t28 59.5q1 3 3.5 5t6.5 2q5 0 7.5 -3.5t1.5 -7.5z" />
    <glyph glyph-name="Aogonek" unicode="&#x104;" horiz-adv-x="711" 
d="M465 248l-117 -3q-27 0 -79.5 1t-99.5 3l-17 -43q-16 -40 -26 -80.5t-10 -68.5q0 -24 14.5 -36.5t41.5 -12.5q2 0 6 0.5l12 1.5q5 1 7 1h3q3 0 5 -1.5t2 -3.5q0 -3 -3 -4.5t-9 -1.5h-16.5t-41.5 1t-41 1h-15h-8.5t-20.5 -1q-24 -1 -35 -1h-19q-3 0 -4.5 1.5t-1.5 3.5
q0 1 2 2.5t4 1.5h4q20 0 38 14.5t34 45.5q16 28 34 66t32 76l193 482q1 2 2.5 2.5t4.5 0.5h10q4 0 6.5 -0.5t3.5 -2.5l182 -434q21 -51 36 -85t27 -58q29 -63 48 -85t51 -22h8q3 0 5 -1t2 -3t-1.5 -3.5t-4.5 -1.5q-9 0 -22.5 0.5t-42.5 1.5q-19 1 -26 1h-10q-57 0 -78 -7
t-42 -30q-19 -22 -27.5 -40t-8.5 -45q0 -24 16 -38.5t44 -14.5q13 0 25 3t42 18q5 2 -7.5 -31.5t-25.5 -40.5q-12 -7 -25 -10t-27 -3q-35 0 -57 21t-22 54q0 31 14 62t42 60q11 12 37.5 35.5t26.5 40.5q0 20 -18 71t-56 140zM460 258v1l-149 349l-139 -351l170 1h118z" />
    <glyph glyph-name="aogonek" unicode="&#x105;" horiz-adv-x="513" 
d="M453 -223q-12 -7 -25 -10t-27 -3q-35 0 -57 21t-22 54q0 34 27.5 74t79.5 80q-5 -1 -9 -2t-9 -1q-28 0 -42.5 18t-14.5 53q0 16 1 36.5t3 39.5q-23 -49 -84 -98.5t-112 -49.5q-58 0 -94 31.5t-36 80.5q0 55 61 105t189 100l84 33q-4 89 -28 125.5t-80 36.5
q-20 0 -36.5 -5t-30.5 -16q-22 -17 -41.5 -52.5t-20.5 -37.5q-7 -11 -16.5 -14.5t-28.5 -3.5q-18 0 -29 6.5t-11 16.5q0 11 9.5 24t25.5 23q45 29 99 48.5t96 19.5q82 0 125 -46.5t43 -135.5q0 -20 -1 -48.5t-4 -88.5q-2 -41 -2.5 -57t-0.5 -25q0 -46 6.5 -65.5t21.5 -19.5
q11 0 26.5 16.5t27.5 38.5q4 6 10 2t2 -10q-5 -8 -17 -20t-28 -25q-7 -5 -25.5 -19t-27.5 -22q-39 -34 -55 -57.5t-16 -46.5q0 -24 16 -38.5t44 -14.5q13 0 25 3t42 18q5 2 -7.5 -31.5t-25.5 -40.5zM102 130q0 -41 31.5 -69t77.5 -28q43 0 90.5 44.5t57.5 80.5q5 65 6 94
t1 58v10.5v10.5l-82 -35q-112 -47 -147 -79.5t-35 -86.5z" />
    <glyph glyph-name="Cacute" unicode="&#x106;" horiz-adv-x="756" 
d="M43 0zM422 -10q-162 0 -270.5 101.5t-108.5 254.5q0 152 111.5 254.5t271.5 102.5q62 0 135 -13t114 -31l12 -218q0 -5 -4 -5t-5 5q-6 61 -24.5 107.5t-48.5 78.5q-32 33 -76 49.5t-101 16.5q-133 0 -214 -95.5t-81 -251.5q0 -159 77 -252.5t210 -93.5q60 0 107 18.5
t80 54.5q31 33 49.5 82t24.5 112q0 3 4 3t4 -3l-12 -233q-46 -20 -114 -32t-141 -12zM503 848q-53 -38 -79 -59.5t-40 -36.5q-1 -1 -2 -1.5t-2 -0.5t-2.5 1.5t-1.5 2.5t0.5 1.5l2.5 2.5q16 15 37.5 42.5t57.5 79.5q11 14 14 18.5t4 5.5q6 6 13.5 9.5t14.5 3.5q8 0 16 -8
t8 -15q0 -6 -3 -13t-7 -10q-2 -2 -8 -6.5t-23 -16.5z" />
    <glyph glyph-name="cacute" unicode="&#x107;" horiz-adv-x="542" 
d="M37 0zM548 180q-45 -85 -119.5 -137.5t-151.5 -52.5q-106 0 -173 67t-67 173q0 108 87.5 194t197.5 86q68 0 117.5 -23t49.5 -52q0 -16 -14 -28.5t-35 -12.5q-9 0 -18 6t-28 27q-33 36 -58.5 48.5t-55.5 12.5q-79 0 -128.5 -58.5t-49.5 -154.5q0 -100 64.5 -164.5
t164.5 -64.5q68 0 119 33.5t90 103.5q1 3 3 4t4 0t2 -3t-1 -4zM376 655q-53 -38 -79 -59.5t-40 -36.5q-1 -1 -2 -1.5t-2 -0.5t-2.5 1.5t-1.5 2.5t0.5 1.5l2.5 2.5q16 15 37.5 42.5t57.5 79.5q11 14 14 18.5t4 5.5q6 6 13.5 9.5t14.5 3.5q8 0 16 -8t8 -15q0 -6 -3 -13t-7 -10
q-2 -2 -8 -6.5t-23 -16.5z" />
    <glyph glyph-name="Ccircumflex" unicode="&#x108;" horiz-adv-x="756" 
d="M43 0zM422 -10q-162 0 -270.5 101.5t-108.5 254.5q0 152 111.5 254.5t271.5 102.5q62 0 135 -13t114 -31l12 -218q0 -5 -4 -5t-5 5q-6 61 -24.5 107.5t-48.5 78.5q-32 33 -76 49.5t-101 16.5q-133 0 -214 -95.5t-81 -251.5q0 -159 77 -252.5t210 -93.5q60 0 107 18.5
t80 54.5q31 33 49.5 82t24.5 112q0 3 4 3t4 -3l-12 -233q-46 -20 -114 -32t-141 -12zM419 897q-2 2 -4 2t-3 -2q-39 -58 -56.5 -84t-25.5 -38q-8 -11 -15.5 -15t-18.5 -4q-9 0 -14.5 4.5t-5.5 9.5t4.5 12t13.5 17q25 26 57 55.5t60 51.5q2 1 5 1t4 -1q36 -27 66.5 -51.5
t54.5 -45.5q10 -9 15 -16t5 -13q0 -7 -7 -14t-16 -7q-10 0 -18.5 5t-16.5 16q-6 8 -15 21t-31 43l-24 33t-14 20z" />
    <glyph glyph-name="ccircumflex" unicode="&#x109;" horiz-adv-x="542" 
d="M37 0zM548 180q-45 -85 -119.5 -137.5t-151.5 -52.5q-106 0 -173 67t-67 173q0 108 87.5 194t197.5 86q68 0 117.5 -23t49.5 -52q0 -16 -14 -28.5t-35 -12.5q-9 0 -18 6t-28 27q-33 36 -58.5 48.5t-55.5 12.5q-79 0 -128.5 -58.5t-49.5 -154.5q0 -100 64.5 -164.5
t164.5 -64.5q68 0 119 33.5t90 103.5q1 3 3 4t4 0t2 -3t-1 -4zM292 704q-2 2 -4 2t-3 -2q-39 -58 -56.5 -84t-25.5 -38q-8 -11 -15.5 -15t-18.5 -4q-9 0 -14.5 4.5t-5.5 9.5t4.5 12t13.5 17q25 26 57 55.5t60 51.5q2 1 5 1t4 -1q36 -27 66.5 -51.5t54.5 -45.5q10 -9 15 -16
t5 -13q0 -7 -7 -14t-16 -7q-10 0 -18.5 5t-16.5 16q-6 8 -15 21t-31 43l-24 33t-14 20z" />
    <glyph glyph-name="Cdotaccent" unicode="&#x10a;" horiz-adv-x="756" 
d="M43 0zM422 -10q-162 0 -270.5 101.5t-108.5 254.5q0 152 111.5 254.5t271.5 102.5q62 0 135 -13t114 -31l12 -218q0 -5 -4 -5t-5 5q-6 61 -24.5 107.5t-48.5 78.5q-32 33 -76 49.5t-101 16.5q-133 0 -214 -95.5t-81 -251.5q0 -159 77 -252.5t210 -93.5q60 0 107 18.5
t80 54.5q31 33 49.5 82t24.5 112q0 3 4 3t4 -3l-12 -233q-46 -20 -114 -32t-141 -12zM419 789q-22 0 -37 15t-15 37t15 37.5t37 15.5t37.5 -15.5t15.5 -37.5t-15.5 -37t-37.5 -15z" />
    <glyph glyph-name="cdotaccent" unicode="&#x10b;" horiz-adv-x="542" 
d="M37 0zM548 180q-45 -85 -119.5 -137.5t-151.5 -52.5q-106 0 -173 67t-67 173q0 108 87.5 194t197.5 86q68 0 117.5 -23t49.5 -52q0 -16 -14 -28.5t-35 -12.5q-9 0 -18 6t-28 27q-33 36 -58.5 48.5t-55.5 12.5q-79 0 -128.5 -58.5t-49.5 -154.5q0 -100 64.5 -164.5
t164.5 -64.5q68 0 119 33.5t90 103.5q1 3 3 4t4 0t2 -3t-1 -4zM292 596q-22 0 -37 15t-15 37t15 37.5t37 15.5t37.5 -15.5t15.5 -37.5t-15.5 -37t-37.5 -15z" />
    <glyph glyph-name="Ccaron" unicode="&#x10c;" horiz-adv-x="756" 
d="M43 0zM422 -10q-162 0 -270.5 101.5t-108.5 254.5q0 152 111.5 254.5t271.5 102.5q62 0 135 -13t114 -31l12 -218q0 -5 -4 -5t-5 5q-6 61 -24.5 107.5t-48.5 78.5q-32 33 -76 49.5t-101 16.5q-133 0 -214 -95.5t-81 -251.5q0 -159 77 -252.5t210 -93.5q60 0 107 18.5
t80 54.5q31 33 49.5 82t24.5 112q0 3 4 3t4 -3l-12 -233q-46 -20 -114 -32t-141 -12zM419 759q2 -2 4 -2t3 2q39 58 56.5 84t25.5 38q8 11 15.5 15t18.5 4q9 0 14.5 -4.5t5.5 -9.5t-4.5 -12t-13.5 -17q-25 -26 -57 -55.5t-60 -51.5q-2 -1 -5 -1t-4 1q-36 27 -66.5 51.5
t-54.5 45.5q-10 9 -15 16t-5 13q0 7 7 14t16 7q10 0 18.5 -5t16.5 -16q6 -8 15 -21t31 -43l24 -33t14 -20z" />
    <glyph glyph-name="ccaron" unicode="&#x10d;" horiz-adv-x="542" 
d="M37 0zM548 180q-45 -85 -119.5 -137.5t-151.5 -52.5q-106 0 -173 67t-67 173q0 108 87.5 194t197.5 86q68 0 117.5 -23t49.5 -52q0 -16 -14 -28.5t-35 -12.5q-9 0 -18 6t-28 27q-33 36 -58.5 48.5t-55.5 12.5q-79 0 -128.5 -58.5t-49.5 -154.5q0 -100 64.5 -164.5
t164.5 -64.5q68 0 119 33.5t90 103.5q1 3 3 4t4 0t2 -3t-1 -4zM292 566q2 -2 4 -2t3 2q39 58 56.5 84t25.5 38q8 11 15.5 15t18.5 4q9 0 14.5 -4.5t5.5 -9.5t-4.5 -12t-13.5 -17q-25 -26 -57 -55.5t-60 -51.5q-2 -1 -5 -1t-4 1q-36 27 -66.5 51.5t-54.5 45.5q-10 9 -15 16
t-5 13q0 7 7 14t16 7q10 0 18.5 -5t16.5 -16q6 -8 15 -21t31 -43l24 -33t14 -20z" />
    <glyph glyph-name="Dcaron" unicode="&#x10e;" horiz-adv-x="733" 
d="M8 0zM157 3q-15 0 -50 -0.5t-91 -2.5q-8 0 -8 3.5t8 3.5q36 0 48.5 9t17.5 34q4 14 6 35t3 55q1 12 1 75v178q0 12 -0.5 30t-0.5 62q-1 49 -1.5 71t-0.5 37q0 66 -8.5 78.5t-57.5 12.5q-6 0 -6 4.5t6 4.5h10.5t35.5 -1q40 -1 55.5 -1h20.5h14.5t44.5 1q52 1 73.5 1h30.5
q162 0 272 -98.5t110 -248.5q0 -151 -107 -248.5t-271 -97.5q-7 0 -21.5 0.5t-50.5 0.5q-40 1 -57 1.5t-26 0.5zM314 10q134 0 210.5 90t76.5 246q0 154 -80 246t-215 92h-66q-38 0 -49 -11t-15 -42q-2 -16 -3 -39t-2 -60v-36.5v-61.5v-273q0 -51 -2.5 -91.5t-5.5 -55.5
q5 0 15.5 -0.5t38.5 -1.5q43 -1 63 -1.5t34 -0.5zM367 759q2 -2 4 -2t3 2q39 58 56.5 84t25.5 38q8 11 15.5 15t18.5 4q9 0 14.5 -4.5t5.5 -9.5t-4.5 -12t-13.5 -17q-25 -26 -57 -55.5t-60 -51.5q-2 -1 -5 -1t-4 1q-36 27 -66.5 51.5t-54.5 45.5q-10 9 -15 16t-5 13
q0 7 7 14t16 7q10 0 18.5 -5t16.5 -16q6 -8 15 -21t31 -43l24 -33t14 -20z" />
    <glyph glyph-name="dcaron" unicode="&#x10f;" horiz-adv-x="599" 
d="M36 0zM451 102q-36 -52 -91 -82t-114 -30q-88 0 -149 67.5t-61 167.5q0 118 86 201.5t201 83.5q34 0 66 -12t62 -35v218q0 25 -2 40.5t-6 24.5q-5 12 -16 15t-42 -3q-6 -1 -6 3.5t6 5.5q30 5 58 15.5t63 30.5q3 2 11.5 -1t8.5 -6v-687q0 -80 8.5 -95t42.5 -15q6 0 6 -4.5
t-6 -4.5q-41 0 -67 -2t-54 -8q-6 -1 -9 1t-3 8v3t1 8q3 28 4.5 49.5t1.5 42.5zM281 488q-84 0 -129.5 -58t-45.5 -165q0 -100 53.5 -171t137.5 -71q45 0 87.5 26.5t66.5 69.5v270q-51 54 -91 76.5t-79 22.5zM610 743q-8 13 -10 18.5t-2 10.5q0 13 14 27t26 14q16 0 27 -24
t11 -60q0 -34 -14.5 -75t-44.5 -90q-2 -3 -5.5 -1.5t-1.5 5.5q18 40 22 57.5t4 38.5q0 19 -5 36t-21 43z" />
    <glyph glyph-name="Dcroat" unicode="&#x110;" horiz-adv-x="733" 
d="M8 0zM157 3q-15 0 -50 -0.5t-91 -2.5q-8 0 -8 3.5t8 3.5q36 0 48.5 9t17.5 34q4 14 6 35t3 55q1 35 1.5 94t-0.5 111q-27 -1 -44 -1.5t-30 -1.5q-3 2 -3 11t3 12q11 -1 27.5 -1.5t46.5 -1.5v15.5v15.5q0 12 -0.5 30t-0.5 62q-1 49 -1.5 71t-0.5 37q0 66 -8.5 78.5
t-57.5 12.5q-6 0 -6 4.5t6 4.5h10.5t35.5 -1q40 -1 55.5 -1h20.5h14.5t44.5 1q52 1 73.5 1h30.5q162 0 272 -98.5t110 -248.5q0 -151 -107 -248.5t-271 -97.5q-7 0 -21.5 0.5t-50.5 0.5q-40 1 -57 1.5t-26 0.5zM314 10q134 0 210.5 90t76.5 246q0 154 -80 246t-215 92h-66
q-38 0 -49 -11t-15 -42q-2 -16 -3 -39t-2 -60v-36.5v-61.5v-73h7h7q52 0 97.5 1t72.5 3q3 -3 3 -12t-3 -11q-30 2 -74.5 3t-94.5 1h-7.5h-7.5v-185q0 -51 -2.5 -91.5t-5.5 -55.5q5 0 15.5 -0.5t38.5 -1.5q43 -1 63 -1.5t34 -0.5z" />
    <glyph glyph-name="dcroat" unicode="&#x111;" horiz-adv-x="599" 
d="M451 102q-36 -52 -91 -82t-114 -30q-88 0 -149 67.5t-61 167.5q0 118 86 201.5t201 83.5q34 0 66 -12t62 -35v158q-46 0 -84 -1t-63 -3q-3 1 -3 10.5t3 12.5q23 -2 62 -3t85 -1v45q0 25 -2 40.5t-6 24.5q-5 12 -16 15t-42 -3q-6 -1 -6 3.5t6 5.5q30 5 58 15.5t63 30.5
q3 2 11.5 -1t8.5 -6v-169q25 0 47 1t38 2q3 -3 3 -12.5t-3 -10.5q-18 1 -39.5 2t-45.5 1v-501q0 -80 8.5 -95t42.5 -15q6 0 6 -4.5t-6 -4.5q-41 0 -67 -2t-54 -8q-6 -1 -9 1t-3 8v3t1 8q3 28 4.5 49.5t1.5 42.5zM281 488q-84 0 -129.5 -58t-45.5 -165q0 -100 53.5 -171
t137.5 -71q45 0 87.5 26.5t66.5 69.5v270q-51 54 -91 76.5t-79 22.5z" />
    <glyph glyph-name="Emacron" unicode="&#x112;" horiz-adv-x="622" 
d="M8 0zM157 3l-141 -3q-8 0 -8 3.5t8 3.5q36 0 47.5 9t17.5 35q3 13 5.5 33.5t4.5 55.5q2 28 3 73.5t1 220.5v52.5t-1 42.5q0 32 -1.5 54.5t-3.5 38.5q-4 35 -13 48.5t-39 13.5h-18q-6 0 -6 4.5t6 4.5q8 0 23 -0.5t48 -1.5q21 -1 29 -1h11h23.5t88.5 1q129 1 179 1.5
t61 0.5q18 0 30.5 -1t16.5 -3q2 -1 9 -47t20 -137l4 -36q1 -5 -3.5 -5t-6.5 5l-5 36q-14 83 -69.5 129t-141.5 47h-127q-26 0 -31.5 -12.5t-6.5 -52.5q0 -11 -0.5 -28t0.5 -63v-52v-39v-69h83q80 0 116 26t36 89v21q0 6 5 6t5 -6q0 -9 -0.5 -27.5t-2.5 -63.5
q-1 -28 -1.5 -38t-0.5 -13q0 -4 0.5 -17t1.5 -50q2 -38 2.5 -52t0.5 -18q0 -6 -5 -6t-5 6v15q0 63 -36 89.5t-116 26.5h-83v-192q0 -51 -2.5 -91.5t-5.5 -55.5q8 0 26 -0.5t66 -0.5q50 -1 69.5 -1.5t27.5 -0.5q80 0 140 59t71 143l6 53q1 5 6.5 4.5t4.5 -5.5l-6 -54
q-13 -118 -19.5 -160t-11.5 -47q-2 -2 -27 -3t-106 -1q-35 0 -98.5 1t-154.5 2zM268 823q16 -1 27.5 -1h23.5h1h54t36 1q25 1 30 0.5t5 -1.5q0 -4 -9 -14t-37 -37h-4h-12q-22 1 -36 1h-26q-21 0 -44.5 -1t-31.5 -1q-20 -1 -27.5 -0.5t-7.5 2.5q0 4 9 14t37 37h3.5h8.5z" />
    <glyph glyph-name="emacron" unicode="&#x113;" 
d="M34 0zM436 37q-36 -24 -73.5 -35.5t-77.5 -11.5q-112 0 -181.5 67t-69.5 173q0 52 22 102.5t63 91.5q40 41 91 63.5t102 22.5q37 0 67 -7.5t52 -22.5q29 -19 44 -48t11 -57q-2 -16 -12 -23.5t-30 -7.5h-341q-4 -17 -6.5 -36.5t-2.5 -40.5q0 -92 70 -155.5t172 -63.5
q83 0 144 47t107 147q4 9 7.5 7.5t-0.5 -9.5q-28 -66 -69 -118.5t-89 -84.5zM399 397q0 36 -32.5 63.5t-82.5 27.5q-68 0 -114.5 -35.5t-64.5 -100.5q34 0 67.5 0.5t88.5 1.5q39 1 56.5 1.5t32.5 0.5q10 0 24 3.5t16 5.5q4 5 6.5 13.5t2.5 18.5zM237 630q16 -1 27.5 -1h23.5
h1h54t36 1q25 1 30 0.5t5 -1.5q0 -4 -9 -14t-37 -37h-4h-12q-22 1 -36 1h-26q-21 0 -44.5 -1t-31.5 -1q-20 -1 -27.5 -0.5t-7.5 2.5q0 4 9 14t37 37h3.5h8.5z" />
    <glyph glyph-name="Ebreve" unicode="&#x114;" horiz-adv-x="622" 
d="M8 0zM157 3l-141 -3q-8 0 -8 3.5t8 3.5q36 0 47.5 9t17.5 35q3 13 5.5 33.5t4.5 55.5q2 28 3 73.5t1 220.5v52.5t-1 42.5q0 32 -1.5 54.5t-3.5 38.5q-4 35 -13 48.5t-39 13.5h-18q-6 0 -6 4.5t6 4.5q8 0 23 -0.5t48 -1.5q21 -1 29 -1h11h23.5t88.5 1q129 1 179 1.5
t61 0.5q18 0 30.5 -1t16.5 -3q2 -1 9 -47t20 -137l4 -36q1 -5 -3.5 -5t-6.5 5l-5 36q-14 83 -69.5 129t-141.5 47h-127q-26 0 -31.5 -12.5t-6.5 -52.5q0 -11 -0.5 -28t0.5 -63v-52v-39v-69h83q80 0 116 26t36 89v21q0 6 5 6t5 -6q0 -9 -0.5 -27.5t-2.5 -63.5
q-1 -28 -1.5 -38t-0.5 -13q0 -4 0.5 -17t1.5 -50q2 -38 2.5 -52t0.5 -18q0 -6 -5 -6t-5 6v15q0 63 -36 89.5t-116 26.5h-83v-192q0 -51 -2.5 -91.5t-5.5 -55.5q8 0 26 -0.5t66 -0.5q50 -1 69.5 -1.5t27.5 -0.5q80 0 140 59t71 143l6 53q1 5 6.5 4.5t4.5 -5.5l-6 -54
q-13 -118 -19.5 -160t-11.5 -47q-2 -2 -27 -3t-106 -1q-35 0 -98.5 1t-154.5 2zM435 867q-18 -44 -49.5 -69t-72.5 -26q-42 0 -74.5 19.5t-48.5 55.5q-4 9 0.5 15.5t16.5 10.5q15 5 22 4.5t10 -7.5q19 -40 44 -59.5t57 -19.5q29 0 48 20.5t28 59.5q1 3 3.5 5t6.5 2
q5 0 7.5 -3.5t1.5 -7.5z" />
    <glyph glyph-name="ebreve" unicode="&#x115;" 
d="M34 0zM436 37q-36 -24 -73.5 -35.5t-77.5 -11.5q-112 0 -181.5 67t-69.5 173q0 52 22 102.5t63 91.5q40 41 91 63.5t102 22.5q37 0 67 -7.5t52 -22.5q29 -19 44 -48t11 -57q-2 -16 -12 -23.5t-30 -7.5h-341q-4 -17 -6.5 -36.5t-2.5 -40.5q0 -92 70 -155.5t172 -63.5
q83 0 144 47t107 147q4 9 7.5 7.5t-0.5 -9.5q-28 -66 -69 -118.5t-89 -84.5zM399 397q0 36 -32.5 63.5t-82.5 27.5q-68 0 -114.5 -35.5t-64.5 -100.5q34 0 67.5 0.5t88.5 1.5q39 1 56.5 1.5t32.5 0.5q10 0 24 3.5t16 5.5q4 5 6.5 13.5t2.5 18.5zM414 674q-18 -44 -49.5 -69
t-72.5 -26q-42 0 -74.5 19.5t-48.5 55.5q-4 9 0.5 15.5t16.5 10.5q15 5 22 4.5t10 -7.5q19 -40 44 -59.5t57 -19.5q29 0 48 20.5t28 59.5q1 3 3.5 5t6.5 2q5 0 7.5 -3.5t1.5 -7.5z" />
    <glyph glyph-name="Edotaccent" unicode="&#x116;" horiz-adv-x="622" 
d="M8 0zM157 3l-141 -3q-8 0 -8 3.5t8 3.5q36 0 47.5 9t17.5 35q3 13 5.5 33.5t4.5 55.5q2 28 3 73.5t1 220.5v52.5t-1 42.5q0 32 -1.5 54.5t-3.5 38.5q-4 35 -13 48.5t-39 13.5h-18q-6 0 -6 4.5t6 4.5q8 0 23 -0.5t48 -1.5q21 -1 29 -1h11h23.5t88.5 1q129 1 179 1.5
t61 0.5q18 0 30.5 -1t16.5 -3q2 -1 9 -47t20 -137l4 -36q1 -5 -3.5 -5t-6.5 5l-5 36q-14 83 -69.5 129t-141.5 47h-127q-26 0 -31.5 -12.5t-6.5 -52.5q0 -11 -0.5 -28t0.5 -63v-52v-39v-69h83q80 0 116 26t36 89v21q0 6 5 6t5 -6q0 -9 -0.5 -27.5t-2.5 -63.5
q-1 -28 -1.5 -38t-0.5 -13q0 -4 0.5 -17t1.5 -50q2 -38 2.5 -52t0.5 -18q0 -6 -5 -6t-5 6v15q0 63 -36 89.5t-116 26.5h-83v-192q0 -51 -2.5 -91.5t-5.5 -55.5q8 0 26 -0.5t66 -0.5q50 -1 69.5 -1.5t27.5 -0.5q80 0 140 59t71 143l6 53q1 5 6.5 4.5t4.5 -5.5l-6 -54
q-13 -118 -19.5 -160t-11.5 -47q-2 -2 -27 -3t-106 -1q-35 0 -98.5 1t-154.5 2zM311 789q-22 0 -37 15t-15 37t15 37.5t37 15.5t37.5 -15.5t15.5 -37.5t-15.5 -37t-37.5 -15z" />
    <glyph glyph-name="edotaccent" unicode="&#x117;" 
d="M34 0zM436 37q-36 -24 -73.5 -35.5t-77.5 -11.5q-112 0 -181.5 67t-69.5 173q0 52 22 102.5t63 91.5q40 41 91 63.5t102 22.5q37 0 67 -7.5t52 -22.5q29 -19 44 -48t11 -57q-2 -16 -12 -23.5t-30 -7.5h-341q-4 -17 -6.5 -36.5t-2.5 -40.5q0 -92 70 -155.5t172 -63.5
q83 0 144 47t107 147q4 9 7.5 7.5t-0.5 -9.5q-28 -66 -69 -118.5t-89 -84.5zM399 397q0 36 -32.5 63.5t-82.5 27.5q-68 0 -114.5 -35.5t-64.5 -100.5q34 0 67.5 0.5t88.5 1.5q39 1 56.5 1.5t32.5 0.5q10 0 24 3.5t16 5.5q4 5 6.5 13.5t2.5 18.5zM290 596q-22 0 -37 15
t-15 37t15 37.5t37 15.5t37.5 -15.5t15.5 -37.5t-15.5 -37t-37.5 -15z" />
    <glyph glyph-name="Eogonek" unicode="&#x118;" horiz-adv-x="622" 
d="M157 3l-141 -3q-8 0 -8 3.5t8 3.5q36 0 47.5 9t17.5 35q3 13 5.5 33.5t4.5 55.5q2 28 3 73.5t1 220.5v52.5t-1 42.5q0 32 -1.5 54.5t-3.5 38.5q-4 35 -13 48.5t-39 13.5h-18q-6 0 -6 4.5t6 4.5q8 0 23 -0.5t48 -1.5q21 -1 29 -1h11h23.5t88.5 1q129 1 179 1.5t61 0.5
q18 0 30.5 -1t16.5 -3q2 -1 9 -47t20 -137l4 -36q1 -5 -3.5 -5t-6.5 5l-5 36q-14 83 -69.5 129t-141.5 47h-127q-26 0 -31.5 -12.5t-6.5 -52.5q0 -11 -0.5 -28t0.5 -63v-52v-39v-69h83q80 0 116 26t36 89v21q0 6 5 6t5 -6q0 -9 -0.5 -27.5t-2.5 -63.5q-1 -28 -1.5 -38
t-0.5 -13q0 -4 0.5 -17t1.5 -50q2 -38 2.5 -52t0.5 -18q0 -6 -5 -6t-5 6v15q0 63 -36 89.5t-116 26.5h-83v-192q0 -51 -2.5 -91.5t-5.5 -55.5q8 0 26 -0.5t66 -0.5q50 -1 69.5 -1.5t27.5 -0.5q80 0 140 59t71 143l6 53q1 5 6.5 4.5t4.5 -5.5l-6 -54q-13 -118 -19.5 -160
t-11.5 -47q-2 -2 -19 -3t-49 -1q-38 -33 -55.5 -60.5t-17.5 -58.5q0 -24 16 -38.5t44 -14.5q13 0 25 3t42 18q5 2 -7.5 -31.5t-25.5 -40.5q-12 -7 -25 -10t-27 -3q-35 0 -57 21t-22 54q0 42 25 83t73 78h-26.5h-26.5q-35 0 -98.5 1t-154.5 2z" />
    <glyph glyph-name="eogonek" unicode="&#x119;" 
d="M407 -223q-12 -7 -25 -10t-27 -3q-35 0 -57 21t-22 54q0 42 24.5 83t75.5 84q-24 -8 -45.5 -12t-45.5 -4q-112 0 -181.5 67t-69.5 173q0 52 22 102.5t63 91.5q40 41 91 63.5t102 22.5q37 0 67 -7.5t52 -22.5q29 -19 44 -48t11 -57q-2 -16 -12 -23.5t-30 -7.5h-341
q-4 -17 -6.5 -36.5t-2.5 -40.5q0 -92 70 -155.5t172 -63.5q83 0 144 47t107 147q4 9 7.5 7.5t-0.5 -9.5q-17 -41 -39.5 -76.5t-48.5 -65.5q-13 -15 -31 -30t-54 -40q-21 -15 -31 -22.5t-17 -14.5q-29 -27 -44.5 -55t-15.5 -55q0 -24 16 -38.5t44 -14.5q13 0 25 3t42 18
q5 2 -7.5 -31.5t-25.5 -40.5zM399 397q0 36 -32.5 63.5t-82.5 27.5q-68 0 -114.5 -35.5t-64.5 -100.5q34 0 67.5 0.5t88.5 1.5q39 1 56.5 1.5t32.5 0.5q10 0 24 3.5t16 5.5q4 5 6.5 13.5t2.5 18.5z" />
    <glyph glyph-name="Ecaron" unicode="&#x11a;" horiz-adv-x="622" 
d="M8 0zM157 3l-141 -3q-8 0 -8 3.5t8 3.5q36 0 47.5 9t17.5 35q3 13 5.5 33.5t4.5 55.5q2 28 3 73.5t1 220.5v52.5t-1 42.5q0 32 -1.5 54.5t-3.5 38.5q-4 35 -13 48.5t-39 13.5h-18q-6 0 -6 4.5t6 4.5q8 0 23 -0.5t48 -1.5q21 -1 29 -1h11h23.5t88.5 1q129 1 179 1.5
t61 0.5q18 0 30.5 -1t16.5 -3q2 -1 9 -47t20 -137l4 -36q1 -5 -3.5 -5t-6.5 5l-5 36q-14 83 -69.5 129t-141.5 47h-127q-26 0 -31.5 -12.5t-6.5 -52.5q0 -11 -0.5 -28t0.5 -63v-52v-39v-69h83q80 0 116 26t36 89v21q0 6 5 6t5 -6q0 -9 -0.5 -27.5t-2.5 -63.5
q-1 -28 -1.5 -38t-0.5 -13q0 -4 0.5 -17t1.5 -50q2 -38 2.5 -52t0.5 -18q0 -6 -5 -6t-5 6v15q0 63 -36 89.5t-116 26.5h-83v-192q0 -51 -2.5 -91.5t-5.5 -55.5q8 0 26 -0.5t66 -0.5q50 -1 69.5 -1.5t27.5 -0.5q80 0 140 59t71 143l6 53q1 5 6.5 4.5t4.5 -5.5l-6 -54
q-13 -118 -19.5 -160t-11.5 -47q-2 -2 -27 -3t-106 -1q-35 0 -98.5 1t-154.5 2zM311 759q2 -2 4 -2t3 2q39 58 56.5 84t25.5 38q8 11 15.5 15t18.5 4q9 0 14.5 -4.5t5.5 -9.5t-4.5 -12t-13.5 -17q-25 -26 -57 -55.5t-60 -51.5q-2 -1 -5 -1t-4 1q-36 27 -66.5 51.5
t-54.5 45.5q-10 9 -15 16t-5 13q0 7 7 14t16 7q10 0 18.5 -5t16.5 -16q6 -8 15 -21t31 -43l24 -33t14 -20z" />
    <glyph glyph-name="ecaron" unicode="&#x11b;" 
d="M34 0zM436 37q-36 -24 -73.5 -35.5t-77.5 -11.5q-112 0 -181.5 67t-69.5 173q0 52 22 102.5t63 91.5q40 41 91 63.5t102 22.5q37 0 67 -7.5t52 -22.5q29 -19 44 -48t11 -57q-2 -16 -12 -23.5t-30 -7.5h-341q-4 -17 -6.5 -36.5t-2.5 -40.5q0 -92 70 -155.5t172 -63.5
q83 0 144 47t107 147q4 9 7.5 7.5t-0.5 -9.5q-28 -66 -69 -118.5t-89 -84.5zM399 397q0 36 -32.5 63.5t-82.5 27.5q-68 0 -114.5 -35.5t-64.5 -100.5q34 0 67.5 0.5t88.5 1.5q39 1 56.5 1.5t32.5 0.5q10 0 24 3.5t16 5.5q4 5 6.5 13.5t2.5 18.5zM290 566q2 -2 4 -2t3 2
q39 58 56.5 84t25.5 38q8 11 15.5 15t18.5 4q9 0 14.5 -4.5t5.5 -9.5t-4.5 -12t-13.5 -17q-25 -26 -57 -55.5t-60 -51.5q-2 -1 -5 -1t-4 1q-36 27 -66.5 51.5t-54.5 45.5q-10 9 -15 16t-5 13q0 7 7 14t16 7q10 0 18.5 -5t16.5 -16q6 -8 15 -21t31 -43l24 -33t14 -20z" />
    <glyph glyph-name="Gcircumflex" unicode="&#x11c;" horiz-adv-x="770" 
d="M43 0zM565 14q-52 -14 -83 -19t-60 -5q-162 0 -270.5 101.5t-108.5 254.5q0 152 111.5 254.5t271.5 102.5q62 0 135 -13t114 -31l12 -213q1 -6 -3.5 -7t-5.5 6q-5 51 -18.5 91.5t-35.5 70.5q-32 43 -81 64.5t-115 21.5q-135 0 -215 -94t-80 -253t77 -252.5t210 -93.5
q54 0 100.5 12.5t100.5 43.5q2 4 2.5 21t0.5 109q0 36 -0.5 70t-1.5 42q-12 3 -30.5 5t-47.5 3q-36 2 -100 3t-117 1q-5 0 -4.5 3.5t5.5 3.5q121 0 207 2.5t159 8.5q2 0 4 -2.5t2 -5.5q-1 -51 -1 -115.5v-206.5q0 -4 -2 -4.5t-6 3.5q-14 11 -33 20.5t-29 9.5
q-9 0 -21.5 -2.5t-42.5 -10.5zM437 897q-2 2 -4 2t-3 -2q-39 -58 -56.5 -84t-25.5 -38q-8 -11 -15.5 -15t-18.5 -4q-9 0 -14.5 4.5t-5.5 9.5t4.5 12t13.5 17q25 26 57 55.5t60 51.5q2 1 5 1t4 -1q36 -27 66.5 -51.5t54.5 -45.5q10 -9 15 -16t5 -13q0 -7 -7 -14t-16 -7
q-10 0 -18.5 5t-16.5 16q-6 8 -15 21t-31 43l-24 33t-14 20z" />
    <glyph glyph-name="gcircumflex" unicode="&#x11d;" horiz-adv-x="502" 
d="M0 0zM382 -233q-51 -34 -108.5 -52.5t-110.5 -18.5q-74 -1 -119.5 34.5t-45.5 92.5q0 51 48.5 99.5t119.5 73.5q-69 3 -101.5 19.5t-32.5 48.5q0 33 40.5 60.5t101.5 36.5q-67 12 -104 55.5t-37 110.5q0 76 60.5 128.5t148.5 52.5q34 0 76 6t113 22q27 7 36.5 8.5
t13.5 1.5q12 0 20.5 -4t8.5 -11q0 -16 -13.5 -31.5t-31.5 -15.5q-6 0 -17.5 1t-42.5 5q-55 7 -84 9.5t-51 2.5v-2q75 -10 118.5 -56t43.5 -115q0 -77 -58.5 -124.5t-152.5 -47.5h-11t-7 1q-54 -4 -86 -18.5t-32 -36.5q0 -24 26.5 -33.5t106.5 -9.5h134q75 0 116 -29t41 -79
q0 -48 -34 -97t-93 -88zM108 338q0 -79 33 -125t91 -46q61 0 93.5 42t32.5 120q0 72 -34 120.5t-88 48.5q-64 0 -96 -40t-32 -120zM187 -4q-66 -20 -105.5 -56.5t-39.5 -77.5q0 -53 48.5 -82t136.5 -29q100 0 176.5 47t76.5 111q0 46 -37.5 66.5t-125.5 20.5h-124h-3h-3z
M236 704q-2 2 -4 2t-3 -2q-39 -58 -56.5 -84t-25.5 -38q-8 -11 -15.5 -15t-18.5 -4q-9 0 -14.5 4.5t-5.5 9.5t4.5 12t13.5 17q25 26 57 55.5t60 51.5q2 1 5 1t4 -1q36 -27 66.5 -51.5t54.5 -45.5q10 -9 15 -16t5 -13q0 -7 -7 -14t-16 -7q-10 0 -18.5 5t-16.5 16q-6 8 -15 21
t-31 43l-24 33t-14 20z" />
    <glyph glyph-name="Gbreve" unicode="&#x11e;" horiz-adv-x="770" 
d="M43 0zM565 14q-52 -14 -83 -19t-60 -5q-162 0 -270.5 101.5t-108.5 254.5q0 152 111.5 254.5t271.5 102.5q62 0 135 -13t114 -31l12 -213q1 -6 -3.5 -7t-5.5 6q-5 51 -18.5 91.5t-35.5 70.5q-32 43 -81 64.5t-115 21.5q-135 0 -215 -94t-80 -253t77 -252.5t210 -93.5
q54 0 100.5 12.5t100.5 43.5q2 4 2.5 21t0.5 109q0 36 -0.5 70t-1.5 42q-12 3 -30.5 5t-47.5 3q-36 2 -100 3t-117 1q-5 0 -4.5 3.5t5.5 3.5q121 0 207 2.5t159 8.5q2 0 4 -2.5t2 -5.5q-1 -51 -1 -115.5v-206.5q0 -4 -2 -4.5t-6 3.5q-14 11 -33 20.5t-29 9.5
q-9 0 -21.5 -2.5t-42.5 -10.5zM561 867q-18 -44 -49.5 -69t-72.5 -26q-42 0 -74.5 19.5t-48.5 55.5q-4 9 0.5 15.5t16.5 10.5q15 5 22 4.5t10 -7.5q19 -40 44 -59.5t57 -19.5q29 0 48 20.5t28 59.5q1 3 3.5 5t6.5 2q5 0 7.5 -3.5t1.5 -7.5z" />
    <glyph glyph-name="gbreve" unicode="&#x11f;" horiz-adv-x="502" 
d="M0 0zM382 -233q-51 -34 -108.5 -52.5t-110.5 -18.5q-74 -1 -119.5 34.5t-45.5 92.5q0 51 48.5 99.5t119.5 73.5q-69 3 -101.5 19.5t-32.5 48.5q0 33 40.5 60.5t101.5 36.5q-67 12 -104 55.5t-37 110.5q0 76 60.5 128.5t148.5 52.5q34 0 76 6t113 22q27 7 36.5 8.5
t13.5 1.5q12 0 20.5 -4t8.5 -11q0 -16 -13.5 -31.5t-31.5 -15.5q-6 0 -17.5 1t-42.5 5q-55 7 -84 9.5t-51 2.5v-2q75 -10 118.5 -56t43.5 -115q0 -77 -58.5 -124.5t-152.5 -47.5h-11t-7 1q-54 -4 -86 -18.5t-32 -36.5q0 -24 26.5 -33.5t106.5 -9.5h134q75 0 116 -29t41 -79
q0 -48 -34 -97t-93 -88zM108 338q0 -79 33 -125t91 -46q61 0 93.5 42t32.5 120q0 72 -34 120.5t-88 48.5q-64 0 -96 -40t-32 -120zM187 -4q-66 -20 -105.5 -56.5t-39.5 -77.5q0 -53 48.5 -82t136.5 -29q100 0 176.5 47t76.5 111q0 46 -37.5 66.5t-125.5 20.5h-124h-3h-3z
M360 674q-18 -44 -49.5 -69t-72.5 -26q-42 0 -74.5 19.5t-48.5 55.5q-4 9 0.5 15.5t16.5 10.5q15 5 22 4.5t10 -7.5q19 -40 44 -59.5t57 -19.5q29 0 48 20.5t28 59.5q1 3 3.5 5t6.5 2q5 0 7.5 -3.5t1.5 -7.5z" />
    <glyph glyph-name="Gdotaccent" unicode="&#x120;" horiz-adv-x="770" 
d="M43 0zM565 14q-52 -14 -83 -19t-60 -5q-162 0 -270.5 101.5t-108.5 254.5q0 152 111.5 254.5t271.5 102.5q62 0 135 -13t114 -31l12 -213q1 -6 -3.5 -7t-5.5 6q-5 51 -18.5 91.5t-35.5 70.5q-32 43 -81 64.5t-115 21.5q-135 0 -215 -94t-80 -253t77 -252.5t210 -93.5
q54 0 100.5 12.5t100.5 43.5q2 4 2.5 21t0.5 109q0 36 -0.5 70t-1.5 42q-12 3 -30.5 5t-47.5 3q-36 2 -100 3t-117 1q-5 0 -4.5 3.5t5.5 3.5q121 0 207 2.5t159 8.5q2 0 4 -2.5t2 -5.5q-1 -51 -1 -115.5v-206.5q0 -4 -2 -4.5t-6 3.5q-14 11 -33 20.5t-29 9.5
q-9 0 -21.5 -2.5t-42.5 -10.5zM437 789q-22 0 -37 15t-15 37t15 37.5t37 15.5t37.5 -15.5t15.5 -37.5t-15.5 -37t-37.5 -15z" />
    <glyph glyph-name="gdotaccent" unicode="&#x121;" horiz-adv-x="502" 
d="M0 0zM382 -233q-51 -34 -108.5 -52.5t-110.5 -18.5q-74 -1 -119.5 34.5t-45.5 92.5q0 51 48.5 99.5t119.5 73.5q-69 3 -101.5 19.5t-32.5 48.5q0 33 40.5 60.5t101.5 36.5q-67 12 -104 55.5t-37 110.5q0 76 60.5 128.5t148.5 52.5q34 0 76 6t113 22q27 7 36.5 8.5
t13.5 1.5q12 0 20.5 -4t8.5 -11q0 -16 -13.5 -31.5t-31.5 -15.5q-6 0 -17.5 1t-42.5 5q-55 7 -84 9.5t-51 2.5v-2q75 -10 118.5 -56t43.5 -115q0 -77 -58.5 -124.5t-152.5 -47.5h-11t-7 1q-54 -4 -86 -18.5t-32 -36.5q0 -24 26.5 -33.5t106.5 -9.5h134q75 0 116 -29t41 -79
q0 -48 -34 -97t-93 -88zM108 338q0 -79 33 -125t91 -46q61 0 93.5 42t32.5 120q0 72 -34 120.5t-88 48.5q-64 0 -96 -40t-32 -120zM187 -4q-66 -20 -105.5 -56.5t-39.5 -77.5q0 -53 48.5 -82t136.5 -29q100 0 176.5 47t76.5 111q0 46 -37.5 66.5t-125.5 20.5h-124h-3h-3z
M236 596q-22 0 -37 15t-15 37t15 37.5t37 15.5t37.5 -15.5t15.5 -37.5t-15.5 -37t-37.5 -15z" />
    <glyph glyph-name="uni0122" unicode="&#x122;" horiz-adv-x="770" 
d="M43 0zM565 14q-52 -14 -83 -19t-60 -5q-162 0 -270.5 101.5t-108.5 254.5q0 152 111.5 254.5t271.5 102.5q62 0 135 -13t114 -31l12 -213q1 -6 -3.5 -7t-5.5 6q-5 51 -18.5 91.5t-35.5 70.5q-32 43 -81 64.5t-115 21.5q-135 0 -215 -94t-80 -253t77 -252.5t210 -93.5
q54 0 100.5 12.5t100.5 43.5q2 4 2.5 21t0.5 109q0 36 -0.5 70t-1.5 42q-12 3 -30.5 5t-47.5 3q-36 2 -100 3t-117 1q-5 0 -4.5 3.5t5.5 3.5q121 0 207 2.5t159 8.5q2 0 4 -2.5t2 -5.5q-1 -51 -1 -115.5v-206.5q0 -4 -2 -4.5t-6 3.5q-14 11 -33 20.5t-29 9.5
q-9 0 -21.5 -2.5t-42.5 -10.5zM480 -153q0 -35 -21 -68t-50 -50q-4 -2 -5.5 -0.5t2.5 4.5q24 14 37 39.5t13 60.5q0 7 -1 13.5t-4 13.5q-5 -10 -14 -15t-21 -5q-18 0 -30.5 12.5t-12.5 30.5q0 20 13.5 33.5t35.5 13.5q27 0 42.5 -22.5t15.5 -60.5z" />
    <glyph glyph-name="uni0123" unicode="&#x123;" horiz-adv-x="502" 
d="M0 0zM382 -233q-51 -34 -108.5 -52.5t-110.5 -18.5q-74 -1 -119.5 34.5t-45.5 92.5q0 51 48.5 99.5t119.5 73.5q-69 3 -101.5 19.5t-32.5 48.5q0 33 40.5 60.5t101.5 36.5q-67 12 -104 55.5t-37 110.5q0 76 60.5 128.5t148.5 52.5q34 0 76 6t113 22q27 7 36.5 8.5
t13.5 1.5q12 0 20.5 -4t8.5 -11q0 -16 -13.5 -31.5t-31.5 -15.5q-6 0 -17.5 1t-42.5 5q-55 7 -84 9.5t-51 2.5v-2q75 -10 118.5 -56t43.5 -115q0 -77 -58.5 -124.5t-152.5 -47.5h-11t-7 1q-54 -4 -86 -18.5t-32 -36.5q0 -24 26.5 -33.5t106.5 -9.5h134q75 0 116 -29t41 -79
q0 -48 -34 -97t-93 -88zM108 338q0 -79 33 -125t91 -46q61 0 93.5 42t32.5 120q0 72 -34 120.5t-88 48.5q-64 0 -96 -40t-32 -120zM187 -4q-66 -20 -105.5 -56.5t-39.5 -77.5q0 -53 48.5 -82t136.5 -29q100 0 176.5 47t76.5 111q0 46 -37.5 66.5t-125.5 20.5h-124h-3h-3z
M183 655q0 34 21.5 66t49.5 48q4 2 4.5 0t-1.5 -4q-26 -17 -38 -39.5t-12 -50.5q0 -7 1 -13.5t4 -13.5q5 10 14 15t21 5q18 0 30.5 -12.5t12.5 -30.5q0 -20 -13.5 -33.5t-35.5 -13.5q-26 0 -42 21t-16 56z" />
    <glyph glyph-name="Hcircumflex" unicode="&#x124;" horiz-adv-x="696" 
d="M18 0zM91 259v175v53.5v40.5q-1 33 -2 55.5t-2 38.5q-4 36 -12 49t-38 13h-13q-6 0 -6 4.5t6 4.5q8 0 22.5 -0.5t45.5 -1.5q20 -1 27.5 -1h10.5h10.5t28.5 1q33 1 48 1.5t24 0.5q6 0 6 -4.5t-6 -4.5h-20q-30 0 -38 -13t-12 -49q-1 -16 -2 -38.5t-2 -55.5v-40.5v-53.5v-80
l184 2l178 -3v81v53.5v40.5q-1 33 -2 55.5t-2 38.5q-4 36 -12 49t-38 13h-21q-6 0 -6 4.5t6 4.5q9 0 24 -0.5t48 -1.5q21 -1 29 -1h11h10.5t27.5 1q32 1 46.5 1.5t23.5 0.5q6 0 6 -4.5t-6 -4.5h-16q-29 0 -37 -13t-12 -49q-1 -16 -2 -39t-2 -55v-41v-53v-175v-53.5v-40.5
q1 -32 2 -54.5t2 -38.5q3 -36 11.5 -49.5t37.5 -13.5h16q6 0 6 -4.5t-6 -4.5q-9 0 -23.5 0.5t-46.5 1.5q-20 1 -27.5 1h-10.5h-11t-29 -1q-33 -1 -48 -1.5t-24 -0.5q-6 0 -6 4.5t6 4.5h21q30 0 38 13t12 49q1 16 2 38.5t2 55.5v40.5v53.5v85l-177 -2q-47 0 -99.5 0.5
t-85.5 1.5v-85v-53.5v-40.5q1 -33 2 -55.5t2 -38.5q4 -36 12 -49t38 -13h20q6 0 6 -4.5t-6 -4.5q-9 0 -24 0.5t-48 1.5q-21 1 -28.5 1h-10.5h-10.5t-27.5 -1q-31 -1 -45.5 -1.5t-22.5 -0.5q-6 0 -6 4.5t6 4.5h13q30 0 38 13t12 49q1 16 2 38.5t2 55.5v40.5v53.5zM348 897
q-2 2 -4 2t-3 -2q-39 -58 -56.5 -84t-25.5 -38q-8 -11 -15.5 -15t-18.5 -4q-9 0 -14.5 4.5t-5.5 9.5t4.5 12t13.5 17q25 26 57 55.5t60 51.5q2 1 5 1t4 -1q36 -27 66.5 -51.5t54.5 -45.5q10 -9 15 -16t5 -13q0 -7 -7 -14t-16 -7q-10 0 -18.5 5t-16.5 16q-6 8 -15 21t-31 43
l-24 33t-14 20z" />
    <glyph glyph-name="hcircumflex" unicode="&#x125;" horiz-adv-x="558" 
d="M0 0zM87 1q-27 -1 -40 -1h-22q-6 0 -6 4.5t6 4.5q30 0 37.5 16t7.5 94v562q0 25 -1.5 40.5t-5.5 24.5q-5 12 -16 15t-41 -2q-6 -1 -6 3.5t6 5.5q31 6 59.5 16.5t61.5 28.5q3 2 10.5 -1t7.5 -6v-402q43 55 87 80.5t96 25.5q82 0 122.5 -51t40.5 -152v-257q0 -24 9 -33
t39 -8q6 0 6 -4.5t-6 -4.5h-8t-24 1q-28 0 -40 0.5t-17 0.5h-9t-22 -1q-24 -1 -36 -1h-21q-6 0 -6 4.5t6 4.5q30 0 38.5 7.5t11.5 28.5q1 11 2 28t1 44v200q0 79 -31.5 121t-88.5 42q-45 0 -79 -20t-71 -69v-382h61q6 0 6 -4.5t-6 -4.5h-7.5t-22.5 1q-27 0 -38.5 0.5
t-16.5 0.5h-9.5t-24.5 -1zM106 971q-2 2 -4 2t-3 -2q-39 -58 -56.5 -84t-25.5 -38q-8 -11 -15.5 -15t-18.5 -4q-9 0 -14.5 4.5t-5.5 9.5t4.5 12t13.5 17q25 26 57 55.5t60 51.5q2 1 5 1t4 -1q36 -27 66.5 -51.5t54.5 -45.5q10 -9 15 -16t5 -13q0 -7 -7 -14t-16 -7
q-10 0 -18.5 5t-16.5 16q-6 8 -15 21t-31 43l-24 33t-14 20z" />
    <glyph glyph-name="Hbar" unicode="&#x126;" horiz-adv-x="696" 
d="M91 259v175v68t-1 36q-6 0 -13.5 -0.5t-20.5 -0.5q-15 0 -22 -0.5t-13 -0.5q-5 2 -5 11t5 12q6 0 13 -0.5t22 -0.5q13 0 20.5 -0.5t13.5 -0.5q-1 27 -2 46.5t-3 32.5q-4 27 -12.5 37.5t-35.5 10.5h-13q-6 0 -6 4.5t6 4.5q8 0 22.5 -0.5t45.5 -1.5q20 -1 27.5 -1h10.5
h10.5t28.5 1q33 1 48 1.5t24 0.5q6 0 6 -4.5t-6 -4.5h-20q-27 0 -35.5 -10.5t-12.5 -38.5q-2 -13 -3 -32.5t-2 -47.5h35.5t58.5 -1h53h31q31 0 72 0.5t110 1.5q-1 28 -2 47t-3 33q-4 27 -12.5 37.5t-35.5 10.5h-21q-6 0 -6 4.5t6 4.5q9 0 24 -0.5t48 -1.5q21 -1 29 -1h11
h10.5t27.5 1q32 1 46.5 1.5t23.5 0.5q6 0 6 -4.5t-6 -4.5h-16q-27 0 -35 -10.5t-12 -37.5q-2 -14 -3 -33t-2 -46q6 0 13.5 0.5t20.5 0.5q15 0 22 0.5t13 0.5q5 -3 5 -12t-5 -11q-6 0 -13 0.5t-21 0.5q-15 0 -22 0.5t-13 0.5q-1 -16 -1 -36v-68v-175v-53.5v-40.5
q1 -32 2 -54.5t2 -38.5q3 -36 11.5 -49.5t37.5 -13.5h16q6 0 6 -4.5t-6 -4.5q-9 0 -23.5 0.5t-46.5 1.5q-20 1 -27.5 1h-10.5h-11t-29 -1q-33 -1 -48 -1.5t-24 -0.5q-6 0 -6 4.5t6 4.5h21q30 0 38 13t12 49q1 16 2 38.5t2 55.5v40.5v53.5v85l-177 -2q-47 0 -99.5 0.5
t-85.5 1.5v-85v-53.5v-40.5q1 -33 2 -55.5t2 -38.5q4 -36 12 -49t38 -13h20q6 0 6 -4.5t-6 -4.5q-9 0 -24 0.5t-48 1.5q-21 1 -28.5 1h-10.5h-10.5t-27.5 -1q-31 -1 -45.5 -1.5t-22.5 -0.5q-6 0 -6 4.5t6 4.5h13q30 0 38 13t12 49q1 16 2 38.5t2 55.5v40.5v53.5zM529 353v81
v69t-1 36q-71 1 -110.5 1.5t-70.5 0.5t-70 -0.5t-109 -1.5q-1 -15 -1 -35.5v-69.5v-80l184 2z" />
    <glyph glyph-name="hbar" unicode="&#x127;" horiz-adv-x="558" 
d="M87 1q-27 -1 -40 -1h-22q-6 0 -6 4.5t6 4.5q30 0 37.5 16t7.5 94v501q-23 0 -44.5 -1t-37.5 -2q-3 1 -3 10.5t3 12.5q15 -1 36.5 -2t45.5 -1v44q0 25 -1.5 40.5t-5.5 24.5q-5 12 -16 15t-41 -2q-6 -1 -6 3.5t6 5.5q31 6 59.5 16.5t61.5 28.5q3 2 10.5 -1t7.5 -6v-170
q46 0 86 1t64 3q3 -3 3 -12.5t-3 -10.5q-26 2 -65.5 3t-84.5 1v-217q43 55 87 80.5t96 25.5q82 0 122.5 -51t40.5 -152v-257q0 -24 9 -33t39 -8q6 0 6 -4.5t-6 -4.5h-8t-24 1q-28 0 -40 0.5t-17 0.5h-9t-22 -1q-24 -1 -36 -1h-21q-6 0 -6 4.5t6 4.5q30 0 38.5 7.5t11.5 28.5
q1 11 2 28t1 44v200q0 79 -31.5 121t-88.5 42q-45 0 -79 -20t-71 -69v-382h61q6 0 6 -4.5t-6 -4.5h-7.5t-22.5 1q-27 0 -38.5 0.5t-16.5 0.5h-9.5t-24.5 -1z" />
    <glyph glyph-name="Itilde" unicode="&#x128;" horiz-adv-x="281" 
d="M0 0zM102 259v175v53.5v40.5q-1 33 -2 55.5t-2 38.5q-4 36 -12 49t-38 13h-21q-6 0 -6 4.5t6 4.5q9 0 24 -0.5t50 -1.5q22 -1 29.5 -1h10.5h11t30 1q34 1 49 1.5t23 0.5q6 0 6 -4.5t-6 -4.5h-21q-30 0 -38 -13t-12 -49q-1 -16 -2 -38.5t-2 -55.5v-40.5v-53.5v-175v-53.5
v-40.5q1 -33 2 -55.5t2 -38.5q4 -36 12 -49t38 -13h21q6 0 6 -4.5t-6 -4.5q-8 0 -23 0.5t-49 1.5q-22 1 -30 1h-11h-10.5t-29.5 -1q-35 -1 -50 -1.5t-24 -0.5q-6 0 -6 4.5t6 4.5h21q30 0 38 13t12 49q1 16 2 38.5t2 55.5v40.5v53.5zM5 773q-2 -3 -6 -1t-1 6q31 46 53.5 65.5
t49.5 19.5q10 0 26 -4t50 -16q30 -10 42 -13t19 -3q21 0 33.5 11t32.5 44q2 3 5.5 0.5t1.5 -5.5q-32 -54 -58 -77t-53 -23q-11 0 -26.5 3.5t-47.5 15.5q-29 11 -41 14t-21 3q-18 0 -31.5 -9.5t-27.5 -30.5z" />
    <glyph glyph-name="itilde" unicode="&#x129;" horiz-adv-x="226" 
d="M0 0zM79 1q-29 -1 -42.5 -1h-22.5q-6 0 -6 4.5t6 4.5q40 0 50.5 15.5t10.5 85.5v267q0 50 -10.5 63.5t-53.5 4.5q-6 -1 -7.5 3t4.5 5q33 7 62 20.5t63 36.5q3 2 10.5 -1t7.5 -6v-393q0 -70 10.5 -85.5t49.5 -15.5q6 0 6 -4.5t-6 -4.5h-22t-40 1q-18 1 -24.5 1h-9.5h-10
t-26 -1zM-26 580q-2 -3 -6 -1t-1 6q31 46 53.5 65.5t49.5 19.5q10 0 26 -4t50 -16q30 -10 42 -13t19 -3q21 0 33.5 11t32.5 44q2 3 5.5 0.5t1.5 -5.5q-32 -54 -58 -77t-53 -23q-11 0 -26.5 3.5t-47.5 15.5q-29 11 -41 14t-21 3q-18 0 -31.5 -9.5t-27.5 -30.5z" />
    <glyph glyph-name="Imacron" unicode="&#x12a;" horiz-adv-x="281" 
d="M21 0zM102 259v175v53.5v40.5q-1 33 -2 55.5t-2 38.5q-4 36 -12 49t-38 13h-21q-6 0 -6 4.5t6 4.5q9 0 24 -0.5t50 -1.5q22 -1 29.5 -1h10.5h11t30 1q34 1 49 1.5t23 0.5q6 0 6 -4.5t-6 -4.5h-21q-30 0 -38 -13t-12 -49q-1 -16 -2 -38.5t-2 -55.5v-40.5v-53.5v-175v-53.5
v-40.5q1 -33 2 -55.5t2 -38.5q4 -36 12 -49t38 -13h21q6 0 6 -4.5t-6 -4.5q-8 0 -23 0.5t-49 1.5q-22 1 -30 1h-11h-10.5t-29.5 -1q-35 -1 -50 -1.5t-24 -0.5q-6 0 -6 4.5t6 4.5h21q30 0 38 13t12 49q1 16 2 38.5t2 55.5v40.5v53.5zM87 823q16 -1 27.5 -1h23.5h1h54t36 1
q25 1 30 0.5t5 -1.5q0 -4 -9 -14t-37 -37h-4h-12q-22 1 -36 1h-26q-21 0 -44.5 -1t-31.5 -1q-20 -1 -27.5 -0.5t-7.5 2.5q0 4 9 14t37 37h3.5h8.5z" />
    <glyph glyph-name="imacron" unicode="&#x12b;" horiz-adv-x="226" 
d="M0 0zM79 1q-29 -1 -42.5 -1h-22.5q-6 0 -6 4.5t6 4.5q40 0 50.5 15.5t10.5 85.5v267q0 50 -10.5 63.5t-53.5 4.5q-6 -1 -7.5 3t4.5 5q33 7 62 20.5t63 36.5q3 2 10.5 -1t7.5 -6v-393q0 -70 10.5 -85.5t49.5 -15.5q6 0 6 -4.5t-6 -4.5h-22t-40 1q-18 1 -24.5 1h-9.5h-10
t-26 -1zM56 630q16 -1 27.5 -1h23.5h1h54t36 1q25 1 30 0.5t5 -1.5q0 -4 -9 -14t-37 -37h-4h-12q-22 1 -36 1h-26q-21 0 -44.5 -1t-31.5 -1q-20 -1 -27.5 -0.5t-7.5 2.5q0 4 9 14t37 37h3.5h8.5z" />
    <glyph glyph-name="Ibreve" unicode="&#x12c;" horiz-adv-x="281" 
d="M17 0zM102 259v175v53.5v40.5q-1 33 -2 55.5t-2 38.5q-4 36 -12 49t-38 13h-21q-6 0 -6 4.5t6 4.5q9 0 24 -0.5t50 -1.5q22 -1 29.5 -1h10.5h11t30 1q34 1 49 1.5t23 0.5q6 0 6 -4.5t-6 -4.5h-21q-30 0 -38 -13t-12 -49q-1 -16 -2 -38.5t-2 -55.5v-40.5v-53.5v-175v-53.5
v-40.5q1 -33 2 -55.5t2 -38.5q4 -36 12 -49t38 -13h21q6 0 6 -4.5t-6 -4.5q-8 0 -23 0.5t-49 1.5q-22 1 -30 1h-11h-10.5t-29.5 -1q-35 -1 -50 -1.5t-24 -0.5q-6 0 -6 4.5t6 4.5h21q30 0 38 13t12 49q1 16 2 38.5t2 55.5v40.5v53.5zM264 867q-18 -44 -49.5 -69t-72.5 -26
q-42 0 -74.5 19.5t-48.5 55.5q-4 9 0.5 15.5t16.5 10.5q15 5 22 4.5t10 -7.5q19 -40 44 -59.5t57 -19.5q29 0 48 20.5t28 59.5q1 3 3.5 5t6.5 2q5 0 7.5 -3.5t1.5 -7.5z" />
    <glyph glyph-name="ibreve" unicode="&#x12d;" horiz-adv-x="226" 
d="M0 0zM79 1q-29 -1 -42.5 -1h-22.5q-6 0 -6 4.5t6 4.5q40 0 50.5 15.5t10.5 85.5v267q0 50 -10.5 63.5t-53.5 4.5q-6 -1 -7.5 3t4.5 5q33 7 62 20.5t63 36.5q3 2 10.5 -1t7.5 -6v-393q0 -70 10.5 -85.5t49.5 -15.5q6 0 6 -4.5t-6 -4.5h-22t-40 1q-18 1 -24.5 1h-9.5h-10
t-26 -1zM233 674q-18 -44 -49.5 -69t-72.5 -26q-42 0 -74.5 19.5t-48.5 55.5q-4 9 0.5 15.5t16.5 10.5q15 5 22 4.5t10 -7.5q19 -40 44 -59.5t57 -19.5q29 0 48 20.5t28 59.5q1 3 3.5 5t6.5 2q5 0 7.5 -3.5t1.5 -7.5z" />
    <glyph glyph-name="Iogonek" unicode="&#x12e;" horiz-adv-x="281" 
d="M112 -119q0 -24 16 -38.5t44 -14.5q13 0 25 3t42 18q5 2 -7.5 -31.5t-25.5 -40.5q-12 -7 -25 -10t-27 -3q-35 0 -57 21t-22 54q0 42 26 84.5t75 78.5q-8 1 -16.5 1h-18.5h-10.5t-29.5 -1q-35 -1 -50 -1.5t-24 -0.5q-6 0 -6 4.5t6 4.5h21q30 0 38 13t12 49q1 16 2 38.5
t2 55.5v40.5v53.5v175v53.5v40.5q-1 33 -2 55.5t-2 38.5q-4 36 -12 49t-38 13h-21q-6 0 -6 4.5t6 4.5q9 0 24 -0.5t50 -1.5q22 -1 29.5 -1h10.5h11t30 1q34 1 49 1.5t23 0.5q6 0 6 -4.5t-6 -4.5h-21q-30 0 -38 -13t-12 -49q-1 -16 -2 -38.5t-2 -55.5v-40.5v-53.5v-175v-53.5
v-40.5q1 -33 2 -55.5t2 -38.5q4 -36 12 -49t38 -13h21q6 0 6 -4.5t-6 -4.5q-9 0 -26.5 0.5t-40.5 1.5q-39 -34 -57 -62t-18 -59z" />
    <glyph glyph-name="iogonek" unicode="&#x12f;" horiz-adv-x="226" 
d="M162 648q0 -22 -15.5 -37t-37.5 -15t-37 15t-15 37t15 37.5t37 15.5t37.5 -15.5t15.5 -37.5zM79 1q-29 -1 -42.5 -1h-22.5q-6 0 -6 4.5t6 4.5q40 0 50.5 15.5t10.5 85.5v267q0 50 -10.5 63.5t-53.5 4.5q-6 -1 -7.5 3t4.5 5q33 7 62 20.5t63 36.5q3 2 10.5 -1t7.5 -6v-393
q0 -70 10.5 -85.5t49.5 -15.5q6 0 6 -4.5t-6 -4.5h-30t-20 1q-39 -33 -56.5 -61t-17.5 -59q0 -24 16 -38.5t44 -14.5q13 0 25 3t42 18q5 2 -7.5 -31.5t-25.5 -40.5q-12 -7 -25 -10t-27 -3q-35 0 -57 21t-22 54q0 42 26 84t74 78q-7 0 -15.5 0.5t-19.5 0.5h-10t-26 -1z" />
    <glyph glyph-name="Idotaccent" unicode="&#x130;" horiz-adv-x="281" 
d="M21 0zM102 259v175v53.5v40.5q-1 33 -2 55.5t-2 38.5q-4 36 -12 49t-38 13h-21q-6 0 -6 4.5t6 4.5q9 0 24 -0.5t50 -1.5q22 -1 29.5 -1h10.5h11t30 1q34 1 49 1.5t23 0.5q6 0 6 -4.5t-6 -4.5h-21q-30 0 -38 -13t-12 -49q-1 -16 -2 -38.5t-2 -55.5v-40.5v-53.5v-175v-53.5
v-40.5q1 -33 2 -55.5t2 -38.5q4 -36 12 -49t38 -13h21q6 0 6 -4.5t-6 -4.5q-8 0 -23 0.5t-49 1.5q-22 1 -30 1h-11h-10.5t-29.5 -1q-35 -1 -50 -1.5t-24 -0.5q-6 0 -6 4.5t6 4.5h21q30 0 38 13t12 49q1 16 2 38.5t2 55.5v40.5v53.5zM140 789q-22 0 -37 15t-15 37t15 37.5
t37 15.5t37.5 -15.5t15.5 -37.5t-15.5 -37t-37.5 -15z" />
    <glyph glyph-name="dotlessi" unicode="&#x131;" horiz-adv-x="226" 
d="M79 1q-29 -1 -42.5 -1h-22.5q-6 0 -6 4.5t6 4.5q40 0 50.5 15.5t10.5 85.5v267q0 50 -10.5 63.5t-53.5 4.5q-6 -1 -7.5 3t4.5 5q33 7 62 20.5t63 36.5q3 2 10.5 -1t7.5 -6v-393q0 -70 10.5 -85.5t49.5 -15.5q6 0 6 -4.5t-6 -4.5h-22t-40 1q-18 1 -24.5 1h-9.5h-10t-26 -1
z" />
    <glyph glyph-name="IJ" unicode="&#x132;" horiz-adv-x="566" 
d="M21 0zM102 259v175v53.5v40.5q-1 33 -2 55.5t-2 38.5q-4 36 -12 49t-38 13h-21q-6 0 -6 4.5t6 4.5q9 0 24 -0.5t50 -1.5q22 -1 29.5 -1h10.5h11t30 1q34 1 49 1.5t23 0.5q6 0 6 -4.5t-6 -4.5h-21q-30 0 -38 -13t-12 -49q-1 -16 -2 -38.5t-2 -55.5v-40.5v-53.5v-175v-53.5
v-40.5q1 -33 2 -55.5t2 -38.5q4 -36 12 -49t38 -13h21q6 0 6 -4.5t-6 -4.5q-8 0 -23 0.5t-49 1.5q-22 1 -30 1h-11h-10.5t-29.5 -1q-35 -1 -50 -1.5t-24 -0.5q-6 0 -6 4.5t6 4.5h21q30 0 38 13t12 49q1 16 2 38.5t2 55.5v40.5v53.5zM307 -154q-21 -20 -48.5 -39t-38.5 -19
q-22 0 -35 7t-13 18q0 25 14.5 42t40.5 17q7 0 26 -1t29 -1q19 0 31 4t20 12q35 38 46.5 116.5t11.5 256.5v175v41.5v30.5q0 22 -0.5 39.5t-0.5 30.5q-1 25 -2 42t-3 28q-4 22 -11.5 30t-36.5 8h-26q-6 0 -6 4.5t6 4.5q9 0 25 -0.5t53 -1.5q23 -1 31 -1h11h11t31 1
q33 1 48.5 1.5t23.5 0.5q6 0 6 -4.5t-6 -4.5h-20q-33 0 -41.5 -12.5t-11.5 -46.5q-1 -16 -1.5 -38.5t-1.5 -57.5v-36.5v-58.5v-115v-17v-34q1 -25 1 -36v-19q0 -70 -7.5 -119t-24.5 -87q-15 -33 -40 -65t-91 -96z" />
    <glyph glyph-name="ij" unicode="&#x133;" horiz-adv-x="444" 
d="M3 0zM162 648q0 -22 -15.5 -37t-37.5 -15t-37 15t-15 37t15 37.5t37 15.5t37.5 -15.5t15.5 -37.5zM79 1q-29 -1 -42.5 -1h-22.5q-6 0 -6 4.5t6 4.5q40 0 50.5 15.5t10.5 85.5v267q0 50 -10.5 63.5t-53.5 4.5q-6 -1 -7.5 3t4.5 5q33 7 62 20.5t63 36.5q3 2 10.5 -1t7.5 -6
v-393q0 -70 10.5 -85.5t49.5 -15.5q6 0 6 -4.5t-6 -4.5h-22t-40 1q-18 1 -24.5 1h-9.5h-10t-26 -1zM380 648q0 -22 -15.5 -37t-37.5 -15t-37 15t-15 37t15 37.5t37 15.5t37.5 -15.5t15.5 -37.5zM264 -177q-37 -45 -62 -64.5t-45 -19.5q-16 0 -28 6t-12 14q0 19 17 36.5
t40 17.5q5 0 36.5 -0.5t43.5 11.5q18 21 25 42.5t11 52.5q2 21 3.5 47t1.5 56v355q0 49 -11.5 63.5t-54.5 4.5q-6 -1 -7.5 3t4.5 5q33 7 62 20.5t63 36.5q3 2 10.5 -1t7.5 -6l1 -454q-2 -54 -25 -104.5t-81 -121.5z" />
    <glyph glyph-name="Jcircumflex" unicode="&#x134;" horiz-adv-x="285" 
d="M0 0zM26 -154q-21 -20 -48.5 -39t-38.5 -19q-22 0 -35 7t-13 18q0 25 14.5 42t40.5 17q7 0 26 -1t29 -1q19 0 31 4t20 12q35 38 46.5 116.5t11.5 256.5v175v41.5v30.5q0 22 -0.5 39.5t-0.5 30.5q-1 25 -2 42t-3 28q-4 22 -11.5 30t-36.5 8h-26q-6 0 -6 4.5t6 4.5
q9 0 25 -0.5t53 -1.5q23 -1 31 -1h11h11t31 1q33 1 48.5 1.5t23.5 0.5q6 0 6 -4.5t-6 -4.5h-20q-33 0 -41.5 -12.5t-11.5 -46.5q-1 -16 -1.5 -38.5t-1.5 -57.5v-36.5v-58.5v-115v-17v-34q1 -25 1 -36v-19q0 -70 -7.5 -119t-24.5 -87q-15 -33 -40 -65t-91 -96zM150 897
q-2 2 -4 2t-3 -2q-39 -58 -56.5 -84t-25.5 -38q-8 -11 -15.5 -15t-18.5 -4q-9 0 -14.5 4.5t-5.5 9.5t4.5 12t13.5 17q25 26 57 55.5t60 51.5q2 1 5 1t4 -1q36 -27 66.5 -51.5t54.5 -45.5q10 -9 15 -16t5 -13q0 -7 -7 -14t-16 -7q-10 0 -18.5 5t-16.5 16q-6 8 -15 21t-31 43
l-24 33t-14 20z" />
    <glyph glyph-name="jcircumflex" unicode="&#x135;" horiz-adv-x="223" 
d="M0 0zM43 -177q-37 -45 -62 -64.5t-45 -19.5q-16 0 -28 6t-12 14q0 19 17 36.5t40 17.5q5 0 36.5 -0.5t43.5 11.5q18 21 25 42.5t11 52.5q2 21 3.5 47t1.5 56v355q0 49 -11.5 63.5t-54.5 4.5q-6 -1 -7.5 3t4.5 5q33 7 62 20.5t63 36.5q3 2 10.5 -1t7.5 -6l1 -454
q-2 -54 -25 -104.5t-81 -121.5zM106 704q-2 2 -4 2t-3 -2q-39 -58 -56.5 -84t-25.5 -38q-8 -11 -15.5 -15t-18.5 -4q-9 0 -14.5 4.5t-5.5 9.5t4.5 12t13.5 17q25 26 57 55.5t60 51.5q2 1 5 1t4 -1q36 -27 66.5 -51.5t54.5 -45.5q10 -9 15 -16t5 -13q0 -7 -7 -14t-16 -7
q-10 0 -18.5 5t-16.5 16q-6 8 -15 21t-31 43l-24 33t-14 20z" />
    <glyph glyph-name="uni0136" unicode="&#x136;" horiz-adv-x="668" 
d="M13 0zM65 1q-25 -1 -33 -1h-10q-6 0 -6 4.5t6 4.5q16 0 28 0.5t18 1.5q10 10 14 28.5t6 61.5q1 35 2 95.5t1 104.5v133v53.5v40.5q-1 33 -2 55.5t-2 38.5q-4 36 -12 49t-38 13h-18q-6 0 -6 4.5t6 4.5q8 0 23 -0.5t49 -1.5q22 -1 30 -1h11h10.5t27.5 1q32 1 46.5 1.5
t23.5 0.5q6 0 6 -4.5t-6 -4.5h-18q-30 0 -38.5 -13t-11.5 -49q-2 -16 -3 -38.5t-1 -55.5q-1 -18 -1 -41v-53v-140l180 194q55 60 85.5 105t30.5 67q-1 12 -11 18.5t-28 6.5q-2 0 -5.5 -0.5t-9.5 -2.5q-4 0 -5.5 -0.5t-2.5 -0.5q-4 0 -6.5 2t-2.5 4q0 3 3 4.5t8 1.5h16t40 -1
q28 -1 38.5 -1h14.5h10t28 1q32 1 46 1h22q5 0 5 -4.5t-5 -4.5h-2q-43 0 -81.5 -27t-178.5 -175l-97 -103q18 11 35.5 16t35.5 5q21 0 34 -2.5t28 -10.5q23 -12 39.5 -31t31.5 -50q8 -17 22 -52t21 -51q47 -119 74 -156.5t67 -37.5h12q10 0 9 -4.5t-11 -4.5h-34
q-11 0 -22 -0.5t-29 -2.5q-9 0 -13.5 -0.5t-7.5 -0.5q-17 0 -28 5.5t-22 18.5q-13 17 -29.5 52t-39.5 99q-22 63 -30.5 84t-16.5 38q-21 44 -42.5 65.5t-44.5 21.5q-19 0 -32 -6t-31 -21l-68 -72v-22v-53.5v-40.5q1 -33 2 -55.5t2 -38.5q4 -36 12 -49t38 -13h22q6 0 6 -4.5
t-6 -4.5h-9.5t-30.5 1q-35 1 -48.5 1h-18.5h-19.5t-51.5 -1zM423 -153q0 -35 -21 -68t-50 -50q-4 -2 -5.5 -0.5t2.5 4.5q24 14 37 39.5t13 60.5q0 7 -1 13.5t-4 13.5q-5 -10 -14 -15t-21 -5q-18 0 -30.5 12.5t-12.5 30.5q0 20 13.5 33.5t35.5 13.5q27 0 42.5 -22.5
t15.5 -60.5z" />
    <glyph glyph-name="uni0137" unicode="&#x137;" horiz-adv-x="552" 
d="M0 0zM176 1q-27 0 -38.5 0.5t-16.5 0.5h-9.5t-24.5 -1q-27 -1 -40 -1h-22q-6 0 -6 4.5t6 4.5q30 0 37.5 16t7.5 94v562q0 25 -1.5 40.5t-5.5 24.5q-5 12 -16 15t-41 -2q-6 -1 -6 3.5t6 5.5q31 6 59.5 16.5t61.5 28.5q3 2 10.5 -1t7.5 -6v-619l157 162q30 31 47.5 57.5
t19.5 46.5q2 18 -9 27.5t-33 9.5q-5 0 -5 4.5t5 4.5q8 0 22 -0.5t44 -0.5q18 -1 24.5 -1h9.5q4 0 18.5 0.5t51.5 0.5q23 1 30 1h9q5 0 5 -4.5t-5 -4.5q-45 0 -98.5 -34.5t-128.5 -112.5l-12 -13l96 -154q54 -86 94 -126.5t73 -40.5q6 0 6.5 -4.5t-6.5 -4.5h-94
q-12 0 -21 2.5t-17 7.5q-18 11 -40 41t-58 92l-82 137l-103 -105v-166h61q6 0 6 -4.5t-6 -4.5h-7.5t-22.5 1zM351 -153q0 -35 -21 -68t-50 -50q-4 -2 -5.5 -0.5t2.5 4.5q24 14 37 39.5t13 60.5q0 7 -1 13.5t-4 13.5q-5 -10 -14 -15t-21 -5q-18 0 -30.5 12.5t-12.5 30.5
q0 20 13.5 33.5t35.5 13.5q27 0 42.5 -22.5t15.5 -60.5z" />
    <glyph glyph-name="kgreenlandic" unicode="&#x138;" horiz-adv-x="553" 
d="M73 110v267q0 50 -10.5 63.5t-53.5 4.5q-6 -1 -7.5 3t4.5 5q32 7 60.5 20t63.5 37q3 2 10.5 -1t7.5 -6v-315l156 161q30 31 47.5 57.5t19.5 46.5q2 18 -9 27.5t-33 9.5q-5 0 -5 4.5t5 4.5q8 0 22 -0.5t44 -0.5q18 -1 24.5 -1h9.5q4 0 18.5 0.5t51.5 0.5q23 1 30 1h9
q5 0 5 -4.5t-5 -4.5q-45 0 -98.5 -34.5t-128.5 -112.5l-12 -13l96 -154q54 -86 94 -126.5t73 -40.5q6 0 6.5 -4.5t-6.5 -4.5h-94q-12 0 -21 2.5t-17 7.5q-18 11 -40 41t-58 92l-82 137l-102 -104v-167h70q6 0 6 -4.5t-6 -4.5h-8.5t-25.5 1q-30 0 -43 0.5t-18 0.5h-9.5
t-23.5 -1q-27 -1 -40 -1h-22q-6 0 -6 4.5t6 4.5q30 0 37.5 14.5t7.5 86.5z" />
    <glyph glyph-name="Lacute" unicode="&#x139;" horiz-adv-x="609" 
d="M8 0zM157 3l-141 -3q-8 0 -8 3.5t8 3.5q36 0 47.5 9t17.5 35q3 13 5.5 33.5t4.5 55.5q1 20 2 51t0 75q0 27 -0.5 71.5t-0.5 55.5q0 12 -0.5 30t-0.5 62q-1 49 -1.5 71t-0.5 37q0 66 -8.5 78.5t-57.5 12.5q-6 0 -6 4.5t6 4.5h10.5t35.5 -1q40 -1 55.5 -1h20.5h11.5t32.5 1
q37 1 53.5 1h25.5q6 0 6 -4.5t-6 -4.5h-28q-38 0 -49 -11t-15 -42q-2 -16 -3 -39t-2 -60v-36.5v-61.5v-273q0 -51 -2.5 -91.5t-5.5 -55.5q8 0 26 -0.5t67 -0.5q51 -1 70.5 -1.5t27.5 -0.5q77 0 136 69t71 160l10 91q1 5 6.5 4.5t4.5 -5.5l-10 -92q-14 -131 -21 -179.5
t-12 -52.5q-3 -3 -39.5 -4.5t-93.5 -1.5q-35 0 -97.5 1t-151.5 2zM222 848q-53 -38 -79 -59.5t-40 -36.5q-1 -1 -2 -1.5t-2 -0.5t-2.5 1.5t-1.5 2.5t0.5 1.5l2.5 2.5q16 15 37.5 42.5t57.5 79.5q11 14 14 18.5t4 5.5q6 6 13.5 9.5t14.5 3.5q8 0 16 -8t8 -15q0 -6 -3 -13
t-7 -10q-2 -2 -8 -6.5t-23 -16.5z" />
    <glyph glyph-name="lacute" unicode="&#x13a;" horiz-adv-x="217" 
d="M0 0zM87 1q-27 -1 -40 -1h-22q-6 0 -6 4.5t6 4.5q30 0 37.5 16t7.5 94v562q0 25 -1.5 40.5t-5.5 24.5q-5 12 -16 15t-41 -2q-6 -1 -6 3.5t6 5.5q31 6 59.5 16.5t61.5 28.5q3 2 10.5 -1t7.5 -6v-687q0 -77 8.5 -93.5t50.5 -16.5q6 0 6 -4.5t-6 -4.5h-20.5t-33.5 1
q-14 1 -20 1h-9h-9.5t-24.5 -1zM193 932q-53 -38 -79 -59.5t-40 -36.5q-1 -1 -2 -1.5t-2 -0.5t-2.5 1.5t-1.5 2.5t0.5 1.5l2.5 2.5q16 15 37.5 42.5t57.5 79.5q11 14 14 18.5t4 5.5q6 6 13.5 9.5t14.5 3.5q8 0 16 -8t8 -15q0 -6 -3 -13t-7 -10q-2 -2 -8 -6.5t-23 -16.5z" />
    <glyph glyph-name="uni013B" unicode="&#x13b;" horiz-adv-x="609" 
d="M8 0zM157 3l-141 -3q-8 0 -8 3.5t8 3.5q36 0 47.5 9t17.5 35q3 13 5.5 33.5t4.5 55.5q1 20 2 51t0 75q0 27 -0.5 71.5t-0.5 55.5q0 12 -0.5 30t-0.5 62q-1 49 -1.5 71t-0.5 37q0 66 -8.5 78.5t-57.5 12.5q-6 0 -6 4.5t6 4.5h10.5t35.5 -1q40 -1 55.5 -1h20.5h11.5t32.5 1
q37 1 53.5 1h25.5q6 0 6 -4.5t-6 -4.5h-28q-38 0 -49 -11t-15 -42q-2 -16 -3 -39t-2 -60v-36.5v-61.5v-273q0 -51 -2.5 -91.5t-5.5 -55.5q8 0 26 -0.5t67 -0.5q51 -1 70.5 -1.5t27.5 -0.5q77 0 136 69t71 160l10 91q1 5 6.5 4.5t4.5 -5.5l-10 -92q-14 -131 -21 -179.5
t-12 -52.5q-3 -3 -39.5 -4.5t-93.5 -1.5q-35 0 -97.5 1t-151.5 2zM376 -153q0 -35 -21 -68t-50 -50q-4 -2 -5.5 -0.5t2.5 4.5q24 14 37 39.5t13 60.5q0 7 -1 13.5t-4 13.5q-5 -10 -14 -15t-21 -5q-18 0 -30.5 12.5t-12.5 30.5q0 20 13.5 33.5t35.5 13.5q27 0 42.5 -22.5
t15.5 -60.5z" />
    <glyph glyph-name="uni013C" unicode="&#x13c;" horiz-adv-x="217" 
d="M0 0zM87 1q-27 -1 -40 -1h-22q-6 0 -6 4.5t6 4.5q30 0 37.5 16t7.5 94v562q0 25 -1.5 40.5t-5.5 24.5q-5 12 -16 15t-41 -2q-6 -1 -6 3.5t6 5.5q31 6 59.5 16.5t61.5 28.5q3 2 10.5 -1t7.5 -6v-687q0 -77 8.5 -93.5t50.5 -16.5q6 0 6 -4.5t-6 -4.5h-20.5t-33.5 1
q-14 1 -20 1h-9h-9.5t-24.5 -1zM173 -153q0 -35 -21 -68t-50 -50q-4 -2 -5.5 -0.5t2.5 4.5q24 14 37 39.5t13 60.5q0 7 -1 13.5t-4 13.5q-5 -10 -14 -15t-21 -5q-18 0 -30.5 12.5t-12.5 30.5q0 20 13.5 33.5t35.5 13.5q27 0 42.5 -22.5t15.5 -60.5z" />
    <glyph glyph-name="Lcaron" unicode="&#x13d;" horiz-adv-x="609" 
d="M8 0zM157 3l-141 -3q-8 0 -8 3.5t8 3.5q36 0 47.5 9t17.5 35q3 13 5.5 33.5t4.5 55.5q1 20 2 51t0 75q0 27 -0.5 71.5t-0.5 55.5q0 12 -0.5 30t-0.5 62q-1 49 -1.5 71t-0.5 37q0 66 -8.5 78.5t-57.5 12.5q-6 0 -6 4.5t6 4.5h10.5t35.5 -1q40 -1 55.5 -1h20.5h11.5t32.5 1
q37 1 53.5 1h25.5q6 0 6 -4.5t-6 -4.5h-28q-38 0 -49 -11t-15 -42q-2 -16 -3 -39t-2 -60v-36.5v-61.5v-273q0 -51 -2.5 -91.5t-5.5 -55.5q8 0 26 -0.5t67 -0.5q51 -1 70.5 -1.5t27.5 -0.5q77 0 136 69t71 160l10 91q1 5 6.5 4.5t4.5 -5.5l-10 -92q-14 -131 -21 -179.5
t-12 -52.5q-3 -3 -39.5 -4.5t-93.5 -1.5q-35 0 -97.5 1t-151.5 2zM379 632q-8 13 -10 18.5t-2 10.5q0 13 14 27t26 14q16 0 27 -24t11 -60q0 -34 -14.5 -75t-44.5 -90q-2 -3 -5.5 -1.5t-1.5 5.5q18 40 22 57.5t4 38.5q0 19 -5 36t-21 43z" />
    <glyph glyph-name="lcaron" unicode="&#x13e;" horiz-adv-x="217" 
d="M0 0zM87 1q-27 -1 -40 -1h-22q-6 0 -6 4.5t6 4.5q30 0 37.5 16t7.5 94v562q0 25 -1.5 40.5t-5.5 24.5q-5 12 -16 15t-41 -2q-6 -1 -6 3.5t6 5.5q31 6 59.5 16.5t61.5 28.5q3 2 10.5 -1t7.5 -6v-687q0 -77 8.5 -93.5t50.5 -16.5q6 0 6 -4.5t-6 -4.5h-20.5t-33.5 1
q-14 1 -20 1h-9h-9.5t-24.5 -1zM229 743q-8 13 -10 18.5t-2 10.5q0 13 14 27t26 14q16 0 27 -24t11 -60q0 -34 -14.5 -75t-44.5 -90q-2 -3 -5.5 -1.5t-1.5 5.5q18 40 22 57.5t4 38.5q0 19 -5 36t-21 43z" />
    <glyph glyph-name="Ldot" unicode="&#x13f;" horiz-adv-x="609" 
d="M157 3l-141 -3q-8 0 -8 3.5t8 3.5q36 0 47.5 9t17.5 35q3 13 5.5 33.5t4.5 55.5q1 20 2 51t0 75q0 27 -0.5 71.5t-0.5 55.5q0 12 -0.5 30t-0.5 62q-1 49 -1.5 71t-0.5 37q0 66 -8.5 78.5t-57.5 12.5q-6 0 -6 4.5t6 4.5h10.5t35.5 -1q40 -1 55.5 -1h20.5h11.5t32.5 1
q37 1 53.5 1h25.5q6 0 6 -4.5t-6 -4.5h-28q-38 0 -49 -11t-15 -42q-2 -16 -3 -39t-2 -60v-36.5v-61.5v-273q0 -51 -2.5 -91.5t-5.5 -55.5q8 0 26 -0.5t67 -0.5q51 -1 70.5 -1.5t27.5 -0.5q77 0 136 69t71 160l10 91q1 5 6.5 4.5t4.5 -5.5l-10 -92q-14 -131 -21 -179.5
t-12 -52.5q-3 -3 -39.5 -4.5t-93.5 -1.5q-35 0 -97.5 1t-151.5 2zM436 324q-25 0 -41.5 16.5t-16.5 41.5q0 24 17 41t41 17q23 0 40.5 -17.5t17.5 -40.5q0 -24 -17 -41t-41 -17z" />
    <glyph glyph-name="ldot" unicode="&#x140;" horiz-adv-x="357" 
d="M0 0zM87 1q-27 -1 -40 -1h-22q-6 0 -6 4.5t6 4.5q30 0 37.5 16t7.5 94v562q0 25 -1.5 40.5t-5.5 24.5q-5 12 -16 15t-41 -2q-6 -1 -6 3.5t6 5.5q31 6 59.5 16.5t61.5 28.5q3 2 10.5 -1t7.5 -6v-687q0 -77 8.5 -93.5t50.5 -16.5q6 0 6 -4.5t-6 -4.5h-20.5t-33.5 1
q-14 1 -20 1h-9h-9.5t-24.5 -1zM286 320q-25 0 -41.5 16.5t-16.5 41.5q0 24 17 41t41 17q23 0 40.5 -17.5t17.5 -40.5q0 -24 -17 -41t-41 -17z" />
    <glyph glyph-name="Lslash" unicode="&#x141;" horiz-adv-x="609" 
d="M157 3l-141 -3q-8 0 -8 3.5t8 3.5q36 0 47.5 9t17.5 35q3 13 5.5 33.5t4.5 55.5q2 28 2.5 73.5t-0.5 100.5l-61.5 -39t-37.5 -25q-5 2 -6 12t5 17q17 8 36.5 18t63.5 32q-1 14 -1 28.5v35.5q0 12 -0.5 30t-0.5 62q-1 49 -1.5 71t-0.5 37q0 66 -8.5 78.5t-57.5 12.5
q-6 0 -6 4.5t6 4.5h10.5t35.5 -1q40 -1 55.5 -1h20.5h11.5t32.5 1q37 1 53.5 1h25.5q6 0 6 -4.5t-6 -4.5h-28q-38 0 -49 -11t-15 -42q-2 -16 -3 -39t-2 -60v-36.5v-61.5v-67l3 2q62 37 108.5 66t94.5 60q6 -4 5.5 -14.5t-6.5 -16.5q-57 -30 -106 -55t-85 -45l-14 -9v-194
q0 -51 -2.5 -91.5t-5.5 -55.5q8 0 26 -0.5t67 -0.5q51 -1 70.5 -1.5t27.5 -0.5q77 0 136 69t71 160l10 91q1 5 6.5 4.5t4.5 -5.5l-10 -92q-14 -131 -21 -179.5t-12 -52.5q-3 -3 -39.5 -4.5t-93.5 -1.5q-35 0 -97.5 1t-151.5 2z" />
    <glyph glyph-name="lslash" unicode="&#x142;" horiz-adv-x="257" 
d="M108 1q-27 -1 -40 -1h-22q-6 0 -6 4.5t6 4.5q30 0 37.5 16t7.5 94v241q-33 -21 -55.5 -37t-40.5 -31q-6 4 -5.5 14.5t6.5 16.5q40 20 63.5 32t31.5 16v310q0 25 -1.5 40.5t-5.5 24.5q-5 12 -16 15t-41 -2q-6 -1 -6 3.5t6 5.5q31 6 59.5 16.5t61.5 28.5q3 2 10.5 -1
t7.5 -6v-402q41 29 65.5 46.5t32.5 23.5q6 -4 5.5 -14.5t-6.5 -16.5l-36 -18t-61 -31v-275q0 -77 8.5 -93.5t50.5 -16.5q6 0 6 -4.5t-6 -4.5h-20.5t-33.5 1q-14 1 -20 1h-9h-9.5t-24.5 -1z" />
    <glyph glyph-name="Nacute" unicode="&#x143;" horiz-adv-x="716" 
d="M0 0zM618 -3q-4 0 -11 6.5t-14 15.5l-482 602l-1 -362q0 -48 3 -86t8 -66q10 -51 30 -74.5t64 -23.5h14q5 0 5 -4.5t-5 -4.5h-30.5t-66.5 2q-19 1 -25.5 1h-9.5h-9t-20 -1q-21 -1 -32.5 -1.5t-19.5 -0.5q-6 0 -6 4.5t7 4.5h6q35 1 48.5 25t19.5 82q3 27 4.5 62.5
t1.5 80.5l1 359q0 7 -4 15t-12 16q-20 20 -38 28t-41 8h-4q-5 0 -5 4t5 4q41 0 75.5 1t64.5 3h6.5h2.5q4 0 6 -1.5t4 -4.5q5 -9 15 -23t24 -30l416 -517v313q0 48 -3.5 86.5t-10.5 67.5q-11 50 -33 73t-67 23h-14q-6 0 -6 4.5t6 4.5q9 0 26.5 -0.5t59.5 -1.5q26 -1 35.5 -1
h12.5h8t18 1q21 1 32 1.5t20 0.5q6 0 6 -4.5t-6 -4.5h-7q-31 0 -41 -13t-15 -46q-3 -17 -4.5 -40.5t-2.5 -55.5q0 -20 -0.5 -43.5t-0.5 -51.5v-427q0 -6 -2 -8t-6 -2zM462 848q-53 -38 -79 -59.5t-40 -36.5q-1 -1 -2 -1.5t-2 -0.5t-2.5 1.5t-1.5 2.5t0.5 1.5l2.5 2.5
q16 15 37.5 42.5t57.5 79.5q11 14 14 18.5t4 5.5q6 6 13.5 9.5t14.5 3.5q8 0 16 -8t8 -15q0 -6 -3 -13t-7 -10q-2 -2 -8 -6.5t-23 -16.5z" />
    <glyph glyph-name="nacute" unicode="&#x144;" horiz-adv-x="562" 
d="M22 0zM90 1q-27 -1 -40 -1h-22q-6 0 -6 4.5t6 4.5q30 0 37.5 16t7.5 94v258q0 17 -11 35.5t-35 40.5q-2 2 -2 3.5t2 2.5q21 8 42 20t31 22q2 2 3 1.5t3 -2.5q17 -16 29 -44.5t12 -54.5q42 56 87 82.5t98 26.5q82 0 122.5 -51t40.5 -152v-209q0 -21 1 -36t3 -25
q4 -16 12 -22.5t32 -5.5q6 0 6 -4.5t-6 -4.5h-8t-24 1q-28 0 -40 0.5t-17 0.5h-9t-21 -1q-23 -1 -34.5 -1h-20.5q-6 0 -6 4.5t6 4.5q34 0 42.5 18t8.5 77v213q-1 79 -32.5 121t-88.5 42q-46 0 -80 -20.5t-71 -70.5v-380h52q6 0 6 -4.5t-6 -4.5h-7t-20 1q-24 0 -34 0.5
t-15 0.5h-9.5t-24.5 -1zM368 655q-53 -38 -79 -59.5t-40 -36.5q-1 -1 -2 -1.5t-2 -0.5t-2.5 1.5t-1.5 2.5t0.5 1.5l2.5 2.5q16 15 37.5 42.5t57.5 79.5q11 14 14 18.5t4 5.5q6 6 13.5 9.5t14.5 3.5q8 0 16 -8t8 -15q0 -6 -3 -13t-7 -10q-2 -2 -8 -6.5t-23 -16.5z" />
    <glyph glyph-name="uni0145" unicode="&#x145;" horiz-adv-x="716" 
d="M0 0zM618 -3q-4 0 -11 6.5t-14 15.5l-482 602l-1 -362q0 -48 3 -86t8 -66q10 -51 30 -74.5t64 -23.5h14q5 0 5 -4.5t-5 -4.5h-30.5t-66.5 2q-19 1 -25.5 1h-9.5h-9t-20 -1q-21 -1 -32.5 -1.5t-19.5 -0.5q-6 0 -6 4.5t7 4.5h6q35 1 48.5 25t19.5 82q3 27 4.5 62.5
t1.5 80.5l1 359q0 7 -4 15t-12 16q-20 20 -38 28t-41 8h-4q-5 0 -5 4t5 4q41 0 75.5 1t64.5 3h6.5h2.5q4 0 6 -1.5t4 -4.5q5 -9 15 -23t24 -30l416 -517v313q0 48 -3.5 86.5t-10.5 67.5q-11 50 -33 73t-67 23h-14q-6 0 -6 4.5t6 4.5q9 0 26.5 -0.5t59.5 -1.5q26 -1 35.5 -1
h12.5h8t18 1q21 1 32 1.5t20 0.5q6 0 6 -4.5t-6 -4.5h-7q-31 0 -41 -13t-15 -46q-3 -17 -4.5 -40.5t-2.5 -55.5q0 -20 -0.5 -43.5t-0.5 -51.5v-427q0 -6 -2 -8t-6 -2zM439 -153q0 -35 -21 -68t-50 -50q-4 -2 -5.5 -0.5t2.5 4.5q24 14 37 39.5t13 60.5q0 7 -1 13.5t-4 13.5
q-5 -10 -14 -15t-21 -5q-18 0 -30.5 12.5t-12.5 30.5q0 20 13.5 33.5t35.5 13.5q27 0 42.5 -22.5t15.5 -60.5z" />
    <glyph glyph-name="uni0146" unicode="&#x146;" horiz-adv-x="562" 
d="M22 0zM90 1q-27 -1 -40 -1h-22q-6 0 -6 4.5t6 4.5q30 0 37.5 16t7.5 94v258q0 17 -11 35.5t-35 40.5q-2 2 -2 3.5t2 2.5q21 8 42 20t31 22q2 2 3 1.5t3 -2.5q17 -16 29 -44.5t12 -54.5q42 56 87 82.5t98 26.5q82 0 122.5 -51t40.5 -152v-209q0 -21 1 -36t3 -25
q4 -16 12 -22.5t32 -5.5q6 0 6 -4.5t-6 -4.5h-8t-24 1q-28 0 -40 0.5t-17 0.5h-9t-21 -1q-23 -1 -34.5 -1h-20.5q-6 0 -6 4.5t6 4.5q34 0 42.5 18t8.5 77v213q-1 79 -32.5 121t-88.5 42q-46 0 -80 -20.5t-71 -70.5v-380h52q6 0 6 -4.5t-6 -4.5h-7t-20 1q-24 0 -34 0.5
t-15 0.5h-9.5t-24.5 -1zM349 -153q0 -35 -21 -68t-50 -50q-4 -2 -5.5 -0.5t2.5 4.5q24 14 37 39.5t13 60.5q0 7 -1 13.5t-4 13.5q-5 -10 -14 -15t-21 -5q-18 0 -30.5 12.5t-12.5 30.5q0 20 13.5 33.5t35.5 13.5q27 0 42.5 -22.5t15.5 -60.5z" />
    </font>
</defs>
</svg>
